<?xml version="1.0" standalone="no"?>
<!DOCTYPE svg PUBLIC "-//W3C//DTD SVG 1.1//EN" "http://www.w3.org/Graphics/SVG/1.1/DTD/svg11.dtd" >
<svg xmlns="http://www.w3.org/2000/svg">
<metadata>
This is a custom SVG webfont generated by Font Squirrel.
Copyright   : Copyright c 2010 by Marco Mller All rights reserved
Designer    : Marco Mller
Foundry     : Marco Mller
Foundry URL : www26pluszeichende
</metadata>
<defs>
<font id="MelbourneLight" horiz-adv-x="862" >
<font-face units-per-em="2048" ascent="1536" descent="-512" />
<missing-glyph horiz-adv-x="430" />
<glyph unicode=" "  horiz-adv-x="430" />
<glyph unicode="&#x09;" horiz-adv-x="430" />
<glyph unicode="&#xa0;" horiz-adv-x="430" />
<glyph unicode="!" horiz-adv-x="421" d="M113 12q0 -6 3 -9t7 -3h2h72q12 0 12 12v78q0 6 -3 9t-5 3h-4h-72q-12 0 -12 -12v-78zM137 336v1085q0 6 3 9.5t7 3.5h3h24q12 0 12 -13v-1085q0 -6 -3 -9t-7 -3h-2h-24q-13 0 -13 12z" />
<glyph unicode="&#x22;" horiz-adv-x="555" d="M141 1421q0 6 3 9.5t8 3.5h2h71q12 0 13 -13l-23 -219q0 -6 -3 -9t-7 -3h-2h-27q-10 0 -12 12zM291 1421q0 6 3 9.5t5 3.5h4h72q12 0 12 -13l-22 -219q0 -6 -3.5 -9t-5.5 -3h-4h-26q-10 0 -13 12z" />
<glyph unicode="#" horiz-adv-x="1306" d="M41 315l6 29q2 8 12 10l293 -2l88 367h-336q-14 0 -10 10l6 29q2 8 13 10l340 -2l82 344q4 10 12 10h28q12 0 9 -12l-82 -342h362l84 344q4 10 13 10h28q12 0 8 -12l-82 -342h316q8 2 10 -2q1 -2 1 -4t-1 -4l-6 -29q-2 -8 -14 -8h-318l-86 -367h361q8 2 10 -2t0 -8 l-6 -29q-2 -8 -15 -8h-362l-78 -328q-4 -10 -12 -10h-29q-12 0 -8 13l78 325h-365l-78 -328q-4 -10 -12 -10h-29q-12 0 -8 13l78 325h-291q-14 0 -10 10zM401 352h365l88 367h-365z" />
<glyph unicode="$" horiz-adv-x="993" d="M90 389q0 6 3 9t5 3h4h25q12 0 12 -12q0 -158 95.5 -251t234.5 -101v692l-141 76q-221 117 -222 299q0 154 102.5 245t260.5 97v141q0 6 3 9t7 3h2h25q12 0 12 -12v-139q166 -8 256 -97t113 -233l-8 -16l-25 -6q-12 0 -14 10q-23 137 -95.5 212t-226.5 81v-641l127 -70 q258 -139 258 -332q0 -162 -101.5 -261t-283.5 -107v-154q0 -6 -3 -9t-7 -3h-2h-25q-12 0 -12 12v156q-66 4 -128 25.5t-120.5 64.5t-94.5 123t-36 186zM156 1098q0 -141 168 -234l145 -80v615q-90 -4 -155.5 -34t-98.5 -77t-46 -94t-13 -96zM518 37q164 6 250 96t86 223 q0 166 -262 308l-74 38v-665z" />
<glyph unicode="%" horiz-adv-x="1198" d="M119 924v276q0 92 44 147.5t124 55.5q78 0 124 -56.5t46 -146.5v-276q0 -88 -46 -144.5t-124 -56.5q-80 0 -124 55.5t-44 145.5zM162 944q0 -84 34.5 -130t90 -46t90.5 46t35 130v238q0 86 -35 132t-90 46q-57 0 -91 -45t-34 -133v-238zM309 12l475 1411q4 10 13 11h28 q12 0 9 -13l-476 -1411q-4 -10 -12 -10h-29q-12 0 -8 12zM670 201v276q0 92 44 147.5t124 55.5q78 0 124 -56.5t46 -146.5v-276q0 -88 -46.5 -144.5t-123.5 -56.5q-80 0 -124 55.5t-44 145.5zM713 221q0 -84 34.5 -130t90 -46t90.5 46t35 130v238q0 86 -35 132t-90 46 q-57 0 -91 -45t-34 -133v-238z" />
<glyph unicode="&#x26;" horiz-adv-x="1208" d="M158 319q0 101 47 183q49 86 135 162l141 124l-63 93q-51 94 -51 175q0 68 36 127q80 128 240 130h7q112 0 184 -69q74 -71 73 -206q0 -6 -3 -10t-7 -4h-2h-23q-12 0 -12 14q0 106 -55 167t-158 61q-143 0 -207 -111q-27 -46 -26 -98q0 -72 51 -156l383 -582l29 30l31 33 q11 11 30.5 25.5t38 21.5t39.5 7h43q6 0 9 -3t3 -7v-2v-25q-4 -12 -14 -12h-31q-23 0 -45.5 -12t-34.5 -23.5t-36.5 -38t-35.5 -37.5l44 -64l35 -55q11 -17 28.5 -41t27 -33t24 -19.5t27.5 -13.5t30 -3h36q6 0 10.5 -3t4.5 -7v-2v-23q0 -12 -15 -12h-45q-29 -2 -51 7t-49 38 t-40 47.5l-49 72.5l-52 79l-140 -146q-106 -114 -233 -113h-2q-129 1 -229 126q-78 97 -78 208zM211 379q-6 -29 -6 -58q0 -98 71 -184q70 -82 146 -98q28 -6 53 -6q44 0 81 18q58 29 116 88l143 150l-303 463l-139 -123q-135 -119 -162 -250z" />
<glyph unicode="'" horiz-adv-x="284" d="M80 1421q0 6 3 9.5t7 3.5h2h72q12 0 12 -13l-22 -219q0 -6 -3.5 -9t-7.5 -3h-2h-26q-10 0 -13 12z" />
<glyph unicode="(" horiz-adv-x="651" d="M164 588v278q0 647 305 899h18l15 -16q4 -4 3 -7q0 -5 -5 -9q-121 -94 -206 -303t-85 -564v-278q0 -354 85 -563t206 -304q5 -5 4 -9q0 -4 -2 -7l-15 -16q-4 -5 -8.5 -5t-9.5 5q-305 252 -305 899z" />
<glyph unicode=")" horiz-adv-x="716" d="M172 -295q-4 4 -4 7q0 5 6 9q121 94 206 303t85 564v278q0 354 -85 563t-206 304q-5 5 -5 9t3 7l14 16q4 5 9 5t10 -5q305 -252 305 -899v-278q0 -647 -305 -899h-19z" />
<glyph unicode="*" horiz-adv-x="600" d="M41 1413l8 21q0 2 1 3t5 3t11 2l182 -58v197q0 6 3 9t7 3h2h23q12 0 12 -12v-195l178 56q10 4 14 -8l9 -21q2 -12 -9 -16l-178 -62l113 -155q8 -8 -2 -17l-19 -14q-10 -4 -18 4l-113 154l-108 -150q-2 -4 -6 -5t-9 -1l-2 2l-18 14v2q-2 2 -4 7.5t2 9.5l111 149l-187 64 q-10 2 -8 14z" />
<glyph unicode="+" horiz-adv-x="643" d="M18 537v24q0 12 13 12h266v277q0 6 3 9t7 3h2h25q12 0 12 -12v-277h266q6 0 9.5 -3t3.5 -5v-4v-24q0 -12 -13 -13h-266v-272l-12 -16h-25q-12 0 -12 12v276h-262z" />
<glyph unicode="," horiz-adv-x="286" d="M100 -113q0 8 9 9h4q55 0 55 104h-29q-12 0 -12 12v78q0 6 3 9t5 3h4h72q12 0 12 -12v-78q0 -150 -110 -149h-4l-9 8v16z" />
<glyph unicode="-" horiz-adv-x="628" d="M106 537v24q0 12 13 12h395q6 0 9 -3t3 -5v-4v-24q0 -12 -12 -13h-391z" />
<glyph unicode="." horiz-adv-x="346" d="M90 12v78q0 6 3 9t5 3h4h72q12 0 12 -12v-78q0 -6 -3 -9t-7 -3h-2h-72q-12 0 -12 12z" />
<glyph unicode="/" horiz-adv-x="671" d="M14 -59l525 1554q4 10 12 10h29q12 0 8 -12l-525 -1554q-4 -10 -12 -11h-28q-13 1 -9 13z" />
<glyph unicode="0" horiz-adv-x="970" d="M123 406v622q0 193 87 306.5t263 113.5q174 0 262 -113.5t88 -306.5v-622q0 -193 -88 -306.5t-262 -113.5q-176 0 -263 113.5t-87 306.5zM170 406q0 -193 83 -283t220 -90t220 90t83 283v622q0 373 -303 373t-303 -373v-622z" />
<glyph unicode="1" d="M72 8v4v23q0 12 12 12h248v1339h-111q-6 0 -9 3.5t-3 7.5v2v22q0 12 12 13h146q12 0 12 -13v-1374h248q6 0 9 -3t3 -7v-2v-23q0 -12 -12 -12h-543q-6 0 -9 3t-3 5z" />
<glyph unicode="2" horiz-adv-x="884" d="M94 8v4v37q2 14 8 23l435 606q90 127 125.5 206t35.5 181q0 86 -22.5 156.5t-88 125t-169.5 54.5q-131 0 -195.5 -80t-64.5 -207q0 -6 -3 -9t-8 -3h-2h-24q-12 0 -12 12q0 162 82.5 248t226.5 86q100 0 169.5 -39t101.5 -104.5t44 -122t12 -117.5q0 -178 -145 -383 l-455 -635h615q6 0 9 -3t3 -7v-2v-23q0 -12 -12 -12h-654q-6 0 -9 3t-3 5z" />
<glyph unicode="3" horiz-adv-x="946" d="M102 332q0 6 3.5 9t5.5 3h4h22q12 0 13 -12q12 -299 274 -299q139 0 218 91t79 253q0 186 -67.5 263t-168.5 77h-14q-6 0 -9 3t-3 5v4v23q0 12 12 12h16q117 0 169.5 94t52.5 238q0 152 -79 228.5t-179 76.5q-129 0 -196 -69.5t-73 -182.5q0 -6 -3 -9t-7 -3h-2h-25 q-12 0 -12 12q4 141 90 220t228 79q88 0 152.5 -36t96 -94t45 -112.5t13.5 -109.5q0 -307 -191 -357q203 -43 203 -362q0 -164 -83 -277.5t-263 -113.5q-94 0 -159.5 31.5t-98.5 86t-47.5 110t-16.5 118.5z" />
<glyph unicode="4" horiz-adv-x="972" d="M72 387v37q0 20 12 43l432 954q6 12 19 13h77q6 0 9.5 -3.5t3.5 -5.5v-4v-999h157q6 0 9.5 -3t3.5 -5v-4v-23q0 -12 -13 -12h-155v-363q0 -6 -3 -9t-6 -3h-4h-24q-12 0 -12 12v363h-494q-12 0 -12 12zM121 422h457v964h-25l-432 -950v-14z" />
<glyph unicode="5" horiz-adv-x="915" d="M82 367q0 12 12 12h23q6 0 9 -3t3 -7v-2q2 -127 47 -205t104.5 -103.5t137.5 -25.5q131 0 213 98t82 277v137q0 172 -79 260t-216 88q-229 0 -289 -178q0 -12 -12 -13h-23q-6 0 -9 3.5t-3 7.5v2v706q0 6 3 9.5t5 3.5h4h553q6 0 9 -3.5t3 -5.5v-4v-24q0 -12 -12 -13h-518 v-587q33 80 121 111.5t168 31.5q158 0 250 -105.5t92 -285.5v-141q0 -197 -90 -309.5t-252 -112.5t-247 98.5t-89 282.5z" />
<glyph unicode="6" horiz-adv-x="933" d="M106 408v606q0 215 94.5 324.5t256.5 109.5q172 0 259 -100.5t87 -257.5q0 -6 -3 -9.5t-5 -3.5h-4h-23q-12 0 -12 13q-6 154 -88 232.5t-211 78.5q-125 0 -215 -89t-90 -298v-355q23 78 83 129.5t118.5 67.5t115.5 16q172 0 258 -102t86 -287v-75q0 -190 -94 -306 t-273 -116q-158 0 -249 118t-91 304zM152 479v-71q0 -180 83.5 -277.5t210.5 -97.5q152 0 236 98t84 277v71q0 346 -295 346q-33 0 -66.5 -5t-82 -25.5t-84 -55t-61 -102.5t-25.5 -158z" />
<glyph unicode="7" horiz-adv-x="825" d="M37 1397v2v22q0 12 12 13h643q12 0 13 -13v-75q0 -115 -60 -254l-457 -1082q-4 -10 -12 -10h-29q-14 0 -8 12l469 1100q45 106 49 225v49h-608q-6 0 -9 3.5t-3 7.5z" />
<glyph unicode="8" horiz-adv-x="921" d="M102 389q0 154 61.5 250t164.5 123q-92 25 -138.5 124t-46.5 214q0 348 309.5 348t309.5 -348q0 -115 -46 -214.5t-138 -123.5q102 -27 163.5 -123t61.5 -250q0 -53 -10.5 -105.5t-36 -107.5t-64.5 -96t-100.5 -67.5t-139 -26.5t-139 26.5t-100.5 67.5t-64.5 96 t-36 107.5t-10.5 105.5zM149 389q0 -174 89.5 -265t214.5 -91t214 91t89 265q0 156 -80 252t-223.5 96t-223.5 -96t-80 -252zM190 1100q0 -98 27 -165t72 -97.5t84 -42t80 -11.5t79.5 11.5t83.5 42t72 97t27 165.5q0 301 -262.5 301t-262.5 -301z" />
<glyph unicode="9" horiz-adv-x="942" d="M102 969v59q0 209 89.5 314.5t259.5 105.5q162 0 261 -114.5t99 -305.5v-618q0 -195 -95 -309.5t-261 -114.5q-154 0 -241 97t-93 251q0 12 12 12h23q6 0 9 -3t3 -7v-2q6 -150 91 -225.5t196 -75.5q139 0 224 97t85 280v374q-74 -207 -305 -206q-184 0 -270.5 109.5 t-86.5 281.5zM150 973q0 -176 83.5 -262t225.5 -86q143 0 224 94t81 270v39q0 172 -93 272.5t-220 100.5q-135 0 -218 -91t-83 -282v-55z" />
<glyph unicode=":" horiz-adv-x="360" d="M90 12v78q0 6 3 9t5 3h4h72q12 0 12 -12v-78q0 -6 -3 -9t-7 -3h-2h-72q-12 0 -12 12zM90 662v77q0 6 3 9.5t5 3.5h4h72q12 0 12 -13v-77q0 -6 -3 -9.5t-7 -3.5h-2h-72q-12 1 -12 13z" />
<glyph unicode=";" horiz-adv-x="376" d="M100 -113q0 8 9 9h4q55 0 55 104h-29q-12 0 -12 12v78q0 6 3 9t5 3h4h72q12 0 12 -12v-78q0 -150 -110 -149h-4l-9 8v16zM127 662v77q0 6 3 9.5t5 3.5h4h72q12 0 12 -13v-77q0 -6 -3 -9.5t-7 -3.5h-2h-72q-12 1 -12 13z" />
<glyph unicode="&#x3c;" horiz-adv-x="667" />
<glyph unicode="=" horiz-adv-x="993" d="M133 389v25q0 12 12 12h703q6 0 9 -3t3 -5v-4v-25q0 -12 -12 -12h-698zM133 688v25q0 12 12 12h703q6 0 9 -3t3 -5v-4v-25q0 -12 -12 -12h-698z" />
<glyph unicode="&#x3e;" horiz-adv-x="667" />
<glyph unicode="?" horiz-adv-x="765" d="M20 1178l11 -13h26q10 2 11 15q25 221 243 221q141 0 209 -81t68 -210q0 -63 -23.5 -119.5t-42.5 -79.5l-61 -71q-61 -70 -90 -107t-54.5 -93t-25.5 -112v-161l10 -13h27q10 0 10 13v161q0 70 34 125.5t101 128.5q86 92 123 159t39 169v14q0 136 -78 228q-82 96 -242 96 q-268 0 -295 -270zM266 12q0 -6 3 -9t5 -3h5h71q12 0 12 12v78q0 6 -3 9t-7 3h-2h-71q-12 0 -13 -12v-78z" />
<glyph unicode="@" horiz-adv-x="1441" d="M113 496v151q0 109 21.5 202t74.5 184t158.5 144.5t255.5 53.5q262 0 405 -166q139 -161 139 -408v-14l-2 -151q-4 -201 -133 -326t-358 -125q-133 0 -225.5 67.5t-92.5 163.5q0 109 46.5 158t177.5 80l329 82v90q0 133 -68.5 209t-195.5 76q-121 0 -183.5 -53.5 t-62.5 -176.5q0 -6 -3 -9t-7 -3h-2h-25q-12 0 -12 12q0 135 79 206t216 71q143 0 228 -91.5t85 -240.5v-414q0 -6 -3 -9t-5 -3h-4h-24q-12 0 -13 12l2 273l-338 -82q-76 -18 -114.5 -46t-45.5 -54.5t-7 -71.5q0 -94 76.5 -146.5t191.5 -52.5q117 0 207 36t139 95.5t73.5 128 t24.5 144.5v151q0 260 -136 400.5t-359 140.5q-461 0 -461 -537v-151q0 -59 1 -89t5 -90.5t16.5 -96.5t33 -89t54 -88t80.5 -73t115 -63.5t151 -39.5q12 -2 11 -17l-4 -22l-17 -10q-100 20 -179 56t-130 76t-88 97t-55.5 104.5t-28.5 116t-12 113.5t-2 115z" />
<glyph unicode="A" horiz-adv-x="1054" d="M92 12l402 1409q4 12 16 13h49q12 0 16 -13l388 -1409q0 -6 -3.5 -9t-5.5 -3h-4h-18q-14 0 -19 12l-153 543h-461l-158 -543q-2 -6 -6 -9t-8 -3h-4h-19q-12 0 -12 12zM307 604h443l-207 780h-17z" />
<glyph unicode="B" horiz-adv-x="1044" d="M164 0v1434h282q213 0 313.5 -86t100.5 -267q0 -139 -79 -218t-193 -101q147 -6 230 -110.5t83 -256.5q0 -174 -101.5 -284.5t-310.5 -110.5h-325zM213 47h276q193 0 278 98.5t85 245.5q0 344 -363 344h-276v-688zM213 782h215q383 0 383 299q0 92 -26.5 154.5t-80 94.5 t-114 44t-144.5 12h-233v-604z" />
<glyph unicode="C" horiz-adv-x="1069" d="M143 434v567q0 199 98.5 323t303.5 124q162 0 252 -79t123 -243l-9 -16l-24 -6q-12 0 -15 10q-37 156 -109.5 221.5t-217.5 65.5q-352 0 -352 -402v-565q0 -401 354 -401q178 0 255 98t77 311q0 6 3 9.5t7 3.5h2h24q12 0 13 -13q0 -215 -87 -335.5t-294 -120.5 t-305.5 122.5t-98.5 325.5z" />
<glyph unicode="D" horiz-adv-x="1103" d="M164 0v1434h377q201 0 295 -115t94 -318v-569q0 -195 -95.5 -313.5t-293.5 -118.5h-377zM213 47h328q162 0 251 95.5t89 289.5v569q0 385 -340 385h-328v-1339z" />
<glyph unicode="E" horiz-adv-x="1030" d="M164 0v1434h665q6 0 9.5 -3.5t3.5 -5.5v-4v-22q0 -12 -13 -13h-616v-630h473q6 0 9 -3t3 -8v-2v-20q0 -12 -12 -14h-473v-662h616q6 0 9.5 -3t3.5 -7v-2v-23q0 -12 -13 -12h-665z" />
<glyph unicode="F" horiz-adv-x="989" d="M164 12v1422h665q6 0 9.5 -3.5t3.5 -5.5v-4v-22q0 -12 -13 -13h-616v-630h473q6 0 9 -3t3 -8v-2v-20q0 -12 -12 -14h-473v-697q0 -6 -3 -9t-5 -3h-4h-25q-12 0 -12 12z" />
<glyph unicode="G" horiz-adv-x="1058" d="M123 434v567q0 199 98 323t303 124q162 0 252 -79t123 -243l-8 -16l-25 -6q-12 0 -14 10q-37 156 -109.5 221.5t-218.5 65.5q-352 0 -352 -402v-565q0 -401 354 -401q178 0 255 99t77 312v158h-371q-6 0 -9 3t-3 5v4v23q0 12 12 12h400q20 0 20 -20v-185 q0 -459 -381 -458q-207 0 -305 122.5t-98 325.5z" />
<glyph unicode="H" horiz-adv-x="1140" d="M164 12v1409q0 6 3 9.5t5 3.5h4h23q12 0 12 -13v-665h680v665q0 6 3 9.5t7 3.5h2h23q12 0 12 -13v-1409q0 -6 -3 -9t-5 -3h-4h-23q-12 0 -12 12v697h-680v-697q0 -6 -3 -9t-7 -3h-2h-23q-12 0 -12 12z" />
<glyph unicode="I" horiz-adv-x="452" d="M164 12v1409q0 6 3 9.5t5 3.5h4h25q12 0 12 -13v-1409q0 -6 -3 -9t-5 -3h-4h-25q-12 0 -12 12z" />
<glyph unicode="J" horiz-adv-x="716" d="M92 -2v22q0 12 12 13q61 0 126 18.5t132.5 60.5t110.5 126t43 198v985q0 6 3 9.5t5 3.5h4h25q12 0 12 -13v-985q0 -205 -126 -327.5t-335 -122.5q-6 0 -9 3t-3 7v2z" />
<glyph unicode="K" horiz-adv-x="1116" d="M164 12v1409q0 6 3 9.5t5 3.5h4h25q12 0 12 -13v-831l596 837l10 7h37q14 0 6 -13l-424 -608l340 -639q37 -70 72 -98.5t84 -28.5h43q6 0 9 -3t3 -7v-2v-23q0 -12 -12 -12h-45q-68 0 -111 40t-86 120l-329 610l-193 -266v-492q0 -6 -3 -9t-5 -3h-4h-25q-12 0 -12 12z" />
<glyph unicode="L" horiz-adv-x="876" d="M164 0v1421q0 6 3 9.5t5 3.5h4h25q12 0 12 -13v-1374h578q6 0 9 -3t3 -7v-2v-23q0 -12 -12 -12h-627z" />
<glyph unicode="M" horiz-adv-x="1241" d="M164 12v1409q0 6 3 9.5t5 3.5h4h49q14 0 19 -13l344 -725l340 725q2 6 6 9.5t8 3.5h4h49q12 0 13 -13v-1409q0 -6 -3.5 -9t-5.5 -3h-4h-24q-12 0 -13 12v1354l-344 -725q-4 -12 -16 -12h-20q-12 0 -17 12l-348 725v-1354q0 -6 -3 -9t-5 -3h-4h-25q-12 0 -12 12z" />
<glyph unicode="N" horiz-adv-x="1159" d="M164 12v1409q0 6 3 9.5t5 3.5h4h51q12 0 19 -13l665 -1376l-2 1376q0 6 3 9.5t6 3.5h4h24q12 0 12 -13v-1409q0 -6 -3 -9t-5 -3h-4h-57q-12 0 -19 12l-663 1385l6 -1385q0 -6 -3 -9t-5 -3h-4h-25q-12 0 -12 12z" />
<glyph unicode="O" horiz-adv-x="1101" d="M143 420v594q0 434 389.5 434t389.5 -434v-594q0 -434 -389.5 -434t-389.5 434zM193 420q0 -201 86 -294t253.5 -93t253.5 93t86 294v594q0 201 -86 294t-253.5 93t-253.5 -93.5t-86 -293.5v-594z" />
<glyph unicode="P" horiz-adv-x="1040" d="M164 12v1422h301q201 0 297 -111t96 -299v-57q0 -190 -96 -300t-297 -110h-252v-545q0 -6 -3 -9t-5 -3h-4h-25q-12 0 -12 12zM213 604h252q344 0 344 363v57q0 362 -344 362h-252v-782z" />
<glyph unicode="Q" horiz-adv-x="1146" d="M143 420v594q0 213 98.5 323.5t291 110.5t291 -110.5t98.5 -323.5v-594q0 -184 -70 -289q39 -49 64.5 -66.5t62.5 -17.5h39q6 0 9 -3t3 -7v-2v-23q0 -12 -12 -12h-47q-80 0 -148 94q-98 -109 -291 -108q-389 0 -389 434zM193 420q0 -201 86 -294t253 -93q174 0 259 98 l-207 262q-6 10 8 10h39q6 0 10 -6l178 -227q53 94 53 250v594q0 387 -339.5 387t-339.5 -387v-594z" />
<glyph unicode="R" horiz-adv-x="1110" d="M166 12v1422h334q178 0 274 -100.5t96 -278.5v-11q0 -362 -284 -407l223 -463q31 -53 81 -89t103 -36h4q6 0 9.5 -3t3.5 -5v-4v-25q0 -12 -13 -12h-6q-78 0 -136 48t-91 106l-227 477h-322v-619q0 -6 -3 -9t-7 -3h-2h-25q-12 0 -12 12zM215 678h287q178 0 248.5 91 t70.5 275v11q0 166 -87 248.5t-234 82.5h-285v-708z" />
<glyph unicode="S" horiz-adv-x="995" d="M90 389q0 6 3 9t5 3h4h25q12 0 12 -12q0 -164 103.5 -258t251.5 -94q176 0 268 91t92 228q0 166 -262 308l-264 141q-221 117 -222 299q0 160 111 252t277 92q180 0 275 -90t118 -240l-8 -16l-25 -6q-12 0 -14 10q-23 141 -102 217t-244 76q-98 0 -169 -29t-105 -77 t-49 -96t-15 -99q0 -141 168 -234l321 -176q258 -139 258 -332q0 -168 -108.5 -268t-300.5 -100q-51 0 -103.5 11t-108 41t-97.5 74t-68.5 114.5t-26.5 160.5z" />
<glyph unicode="T" horiz-adv-x="985" d="M82 1397v2v22q0 12 12 13h799q6 0 9 -3.5t3 -5.5v-4v-22q0 -12 -12 -13h-375v-1374q0 -6 -3 -9t-7 -3h-2h-25q-12 0 -12 12v1374h-375q-6 0 -9 3.5t-3 7.5z" />
<glyph unicode="U" horiz-adv-x="1073" d="M133 514v907q0 6 3 9.5t7 3.5h2h25q12 0 12 -13v-907q0 -244 83 -362.5t259 -118.5q160 0 248 121.5t88 359.5v907q0 6 3 9.5t5 3.5h4h25q12 0 12 -13v-907q0 -238 -92 -383t-293 -145q-391 0 -391 528z" />
<glyph unicode="V" horiz-adv-x="1095" d="M80 1421q-2 12 6 13h33q10 0 12 -11l391 -1374h8l379 1374q2 10 13 11h30q7 0 8 -7q0 -3 -2 -6l-391 -1409q-4 -12 -16 -12h-49q-12 0 -17 12z" />
<glyph unicode="W" horiz-adv-x="1542" d="M90 1421q-1 4 -1 6q0 6 7 7h33q10 0 12 -11l281 -1378l276 1190q0 6 4.5 9t6.5 3h4h37q12 0 14 -12l276 -1188l279 1376q2 10 12 11h33q8 0 6 -13l-289 -1409q-2 -12 -16 -12h-49q-12 0 -17 12l-268 1153l-268 -1153q-4 -12 -17 -12h-49q-12 0 -16 12z" />
<glyph unicode="X" horiz-adv-x="1169" d="M94 12l430 764l-358 645q-6 12 6 13h31q10 0 14 -11l334 -608l340 608q4 10 14 11h31q12 0 6 -13l-364 -647l436 -762q3 -4 3 -7q0 -5 -9 -5h-31q-8 0 -14 10l-412 721l-406 -721q-6 -10 -16 -10h-31q-7 0 -7 4q0 3 3 8z" />
<glyph unicode="Y" horiz-adv-x="1103" d="M94 1421q-1 4 -1 6q0 6 7 7h33q10 0 12 -11l365 -919h10l332 919q4 10 14 11h31q7 0 7 -7q0 -3 -1 -6l-510 -1411q-4 -10 -12 -10h-33q-8 0 -6 12l154 441h-11q-6 0 -8 8z" />
<glyph unicode="Z" horiz-adv-x="1099" d="M133 8v4v37q0 10 6 19l758 1318h-752q-6 0 -9 3.5t-3 7.5v2v22q0 12 12 13h789q6 0 9 -3.5t3 -5.5v-4v-51q0 -10 -6 -18l-758 -1305h772q6 0 9.5 -3t3.5 -7v-2v-23q0 -12 -13 -12h-809q-6 0 -9 3t-3 5z" />
<glyph unicode="\" horiz-adv-x="593" d="M-72 1493q-4 12 9 12h28q8 0 12 -10l525 -1554q4 -12 -8 -13h-29q-8 0 -12 11z" />
<glyph unicode="a" horiz-adv-x="882" d="M92 238q0 111 51.5 172t178.5 92l356 82v123q0 133 -68.5 208.5t-195.5 75.5q-121 0 -183.5 -53t-62.5 -176q0 -6 -3 -9t-5 -3h-4h-25q-12 0 -12 12q0 135 77.5 205.5t217.5 70.5q143 0 228 -91t85 -240v-695q0 -6 -3 -9t-7 -3h-2h-25q-12 0 -12 12v160 q-31 -90 -110 -138t-193 -48q-131 0 -207 67.5t-76 184.5zM141 252q0 -219 234 -219q147 0 226 83t79 208v208l-365 -81q-106 -25 -140 -75t-34 -124z" />
<glyph unicode="b" horiz-adv-x="940" d="M143 12v1409q0 6 3.5 9.5t5.5 3.5h4h22q12 0 12 -13v-565q16 59 91 120.5t190 61.5q135 0 219 -87t84 -244v-404q0 -139 -85 -228t-208 -89q-121 0 -195.5 54t-95.5 122v-150q0 -6 -3 -9t-7 -3h-2h-22q-13 0 -13 12zM188 303q0 -37 13.5 -78t42 -87t90 -75.5t143.5 -29.5 q111 0 179.5 81t68.5 187v406q0 127 -68.5 205.5t-185.5 78.5q-131 0 -207 -84t-76 -200v-404z" />
<glyph unicode="c" horiz-adv-x="923" d="M133 354v303q0 178 80 279.5t244 101.5q133 0 201.5 -67.5t86.5 -161.5q2 -10 -6 -14l-28 -7q-12 -2 -15 9q-35 195 -239 194q-274 0 -275 -334v-303q0 -143 66.5 -232t202.5 -89q129 0 195.5 75.5t66.5 176.5q0 6 3 9t5 3h4h25q12 0 12 -12q0 -113 -77 -206t-234 -93 q-160 0 -239 102t-79 266z" />
<glyph unicode="d" horiz-adv-x="907" d="M102 303v406q0 143 80 236t228 93q104 0 179 -55t97 -127v565q0 6 3 9.5t7 3.5h2h23q12 0 12 -13v-1409q0 -6 -3 -9t-5 -3h-4h-23q-12 0 -12 12v150q-29 -84 -105.5 -130t-181.5 -46q-129 0 -213 90t-84 227zM150 303q0 -106 69.5 -188t179.5 -82q82 0 143.5 28.5 t90.5 73.5t42 87t13 81v404q0 117 -74.5 200.5t-205.5 83.5q-117 0 -187.5 -78.5t-70.5 -205.5v-404z" />
<glyph unicode="e" horiz-adv-x="925" d="M133 285v428q0 147 83 236t251 89q129 0 213 -72.5t84 -197.5v-168q0 -12 -14 -14l-568 -111v-192q0 -115 71 -182.5t196 -67.5q123 0 194.5 60.5t71.5 168.5q0 6 3 9t7 3h2h23q12 0 12 -12q0 -127 -89 -201.5t-224 -74.5q-145 0 -230.5 83t-85.5 216zM182 524l535 105 v133q0 113 -73 171t-189 58q-141 0 -207 -83t-66 -197v-187z" />
<glyph unicode="f" horiz-adv-x="616" d="M133 967v4v22q0 12 12 13h103v135q0 158 59.5 225.5t204.5 67.5h29q6 0 9 -3.5t3 -5.5v-4v-22q0 -12 -12 -13h-29q-133 0 -175 -57t-42 -188v-135h270q6 0 9.5 -3.5t3.5 -7.5v-2v-22q0 -12 -13 -13h-270v-946q0 -6 -3 -9t-5 -3h-4h-23q-12 0 -12 12v946h-103q-6 0 -9 3.5 t-3 5.5z" />
<glyph unicode="g" horiz-adv-x="987" d="M94 121q-4 14 -4 28q0 39 29 80l94 133q-106 90 -107 256v68q0 170 79 261t227 91h188q70 0 99.5 12.5t56.5 51.5q5 5 9 5l7 -3l19 -14q8 -8 0 -21q-35 -45 -78 -60q-38 -14 -108 -14h-19q80 -29 116.5 -116.5t36.5 -192.5v-82q0 -133 -89 -222t-226 -89q-113 0 -172 39 l-92 -123q-24 -31 -24 -57q0 -12 5 -23q18 -36 98 -36q12 0 25 1l299 21q14 1 27 0q92 0 148 -37q59 -39 59 -142v-20q-4 -76 -22.5 -134t-60.5 -113.5t-123 -85t-198 -29.5q-262 0 -268 260q0 68 30.5 134t71.5 101q-113 2 -133 72zM154 604q0 -111 66.5 -187.5 t203.5 -76.5q104 0 186 69.5t82 194.5v82q0 305 -278 305q-123 0 -191.5 -78.5t-68.5 -226.5v-82zM172 -186q0 -215 221 -215q190 0 267 80.5t90 236.5q1 10 0 19q0 81 -50 109q-44 25 -113 25q-18 0 -38 -1l-266 -19q-111 -100 -111 -235z" />
<glyph unicode="h" horiz-adv-x="942" d="M154 12v1409q0 6 3 9.5t7 3.5h2h22q12 0 13 -13v-565q4 51 76.5 116.5t195.5 65.5q141 0 226 -86t85 -245v-695q0 -6 -3 -9t-7 -3h-2h-24q-12 0 -13 12v695q0 129 -69.5 206.5t-192.5 77.5q-121 0 -196.5 -74.5t-75.5 -209.5v-695q0 -6 -3 -9t-5 -3h-5h-22q-12 0 -12 12z " />
<glyph unicode="i" horiz-adv-x="452" d="M154 1384v37q0 6 3 9.5t7 3.5h2h31q12 0 12 -13v-37q0 -6 -3 -9t-5 -3h-4h-31q-12 0 -12 12zM158 12v1000q0 6 3 9t7 3h2h23q12 0 12 -12v-1000q0 -6 -3 -9t-5 -3h-4h-23q-12 0 -12 12z" />
<glyph unicode="j" horiz-adv-x="505" d="M-20 -326q0 12 12 13h24q215 0 215 245v1080q0 6 3.5 9t7.5 3h2h22q12 0 13 -12v-1080q0 -293 -263 -292h-24q-6 0 -9 3t-3 5v4v22zM227 1384v37q0 6 3 9.5t8 3.5h2h30q12 0 13 -13v-37q0 -6 -3.5 -9t-5.5 -3h-4h-30q-13 0 -13 12z" />
<glyph unicode="k" horiz-adv-x="858" d="M143 12v1409q0 6 3.5 9.5t5.5 3.5h4h24q12 0 13 -13v-913l415 510l10 6h37q16 0 7 -12l-314 -387l252 -451q72 -127 170 -127h16q6 0 9.5 -3t3.5 -7v-2v-23q0 -12 -13 -12h-18q-121 0 -211 160l-240 430l-124 -152v-426q0 -6 -3.5 -9t-5.5 -3h-4h-24q-13 0 -13 12z" />
<glyph unicode="l" horiz-adv-x="528" d="M147 279v1142q0 6 3.5 9.5t5.5 3.5h4h22q12 0 13 -13v-1142q0 -246 215 -246h24q6 0 9 -3t3 -5v-5v-22q0 -12 -12 -12h-24q-263 0 -263 293z" />
<glyph unicode="m" horiz-adv-x="1363" d="M143 12v1000q0 6 3.5 9t5.5 3h4h24q12 0 13 -12v-156q53 182 272 182q80 0 153.5 -34.5t98.5 -116.5q55 152 250 151q279 0 278 -331v-695q0 -6 -3 -9t-5 -3h-4h-25q-12 0 -12 12v695q0 139 -50 211.5t-179 72.5q-94 0 -159 -57t-65 -156v-766q0 -6 -3 -9t-7 -3h-2h-24 q-12 0 -13 12v766q0 92 -55 152.5t-174 60.5q-127 0 -199.5 -74.5t-72.5 -209.5v-695q0 -6 -3.5 -9t-5.5 -3h-4h-24q-13 0 -13 12z" />
<glyph unicode="n" horiz-adv-x="933" d="M143 12v1000q0 6 3.5 9t5.5 3h4h22q12 0 12 -12v-156q53 182 273 182q141 0 226 -86t85 -245v-695q0 -6 -3 -9t-5 -3h-4h-25q-12 0 -12 12v695q0 129 -69.5 206.5t-192.5 77.5q-127 0 -200 -74.5t-73 -209.5v-695q0 -6 -3 -9t-7 -3h-2h-22q-13 0 -13 12z" />
<glyph unicode="o" horiz-adv-x="864" d="M102 352v305q0 178 78 279.5t240 101.5q160 0 237.5 -102t77.5 -279v-305q0 -164 -78.5 -265t-238.5 -101h2q-160 0 -239 101t-79 265zM152 352q0 -145 66.5 -232t201.5 -87q133 0 199.5 87t66.5 232v305q0 334 -268 334h2q-268 0 -268 -334v-305z" />
<glyph unicode="p" horiz-adv-x="940" d="M143 -422v1434q0 6 3.5 9t5.5 3h4h22q12 0 12 -12v-156q53 182 269 182q154 0 234.5 -91t80.5 -240v-385q0 -147 -79 -241.5t-224 -94.5q-23 0 -53.5 5t-76.5 20.5t-88 54t-63 96.5v-584q0 -6 -3 -9t-7 -3h-2h-22q-13 0 -13 12zM188 299q0 -53 24 -110.5t92.5 -106.5 t168.5 -49q113 0 182.5 78.5t69.5 210.5v385q0 137 -72.5 210.5t-195.5 73.5q-121 0 -195 -74.5t-74 -209.5v-408z" />
<glyph unicode="q" horiz-adv-x="903" d="M102 303v406q0 152 79 240.5t229 88.5q104 0 179 -55t97 -127v156q0 6 3 9t7 3h2h23q12 0 12 -12v-1434q0 -6 -3 -9t-5 -3h-4h-23q-12 0 -12 12v584q-29 -84 -105.5 -130t-181.5 -46q-129 0 -213 90t-84 227zM150 303q0 -106 69.5 -188t179.5 -82q82 0 143.5 28.5 t90.5 73.5t42 87t13 81v404q0 117 -74.5 200.5t-205.5 83.5q-119 0 -188.5 -74.5t-69.5 -209.5v-404z" />
<glyph unicode="r" horiz-adv-x="544" d="M143 12v1000q0 6 3.5 9t5.5 3h4h24q12 0 13 -12v-152q14 66 84.5 122t185.5 56q6 0 9 -3t3 -7v-2v-22q0 -12 -12 -13q-111 0 -190.5 -69.5t-79.5 -212.5v-697q0 -6 -3.5 -9t-5.5 -3h-4h-24q-13 0 -13 12z" />
<glyph unicode="s" horiz-adv-x="851" d="M117 252q0 6 3 9t7 3h2l23 2q12 0 12 -12q8 -98 89 -159.5t198 -61.5q98 0 169.5 53t71.5 141q0 139 -153 219l-250 129q-141 74 -142 220q0 88 71 165.5t218 77.5q260 0 299 -225q0 -10 -10 -12l-23 -4q-8 -2 -12 10q-25 98 -81 141t-173 43q-74 0 -126 -21.5t-74.5 -55 t-31.5 -61.5t-9 -54q0 -123 102 -176l274 -142q168 -86 168 -254q0 -102 -80.5 -171.5t-214.5 -69.5q-154 0 -235.5 84t-91.5 182z" />
<glyph unicode="t" horiz-adv-x="628" d="M72 967v2v22q0 12 12 13h102v376q0 6 3.5 9.5t7.5 3.5h2h22q12 0 12 -13v-376h240q6 0 9 -3.5t3 -5.5v-4v-22q0 -12 -12 -13h-240v-663q0 -246 238 -246h8q6 0 9.5 -3t3.5 -7v-2v-23q0 -12 -13 -12h-8q-152 0 -218.5 82t-66.5 211v663h-102q-6 0 -9 3.5t-3 7.5z" />
<glyph unicode="u" horiz-adv-x="923" d="M133 338v674q0 6 3 9t7 3h2h25q12 0 12 -12v-674q0 -131 67.5 -218t188.5 -87q88 0 152.5 33.5t96.5 84t46.5 93.5t14.5 75v693q0 6 3 9t7 3h2h22q12 0 13 -12v-1000q0 -6 -3.5 -9t-5.5 -3h-4h-22q-12 0 -12 12v172q-82 -199 -310 -198q-137 0 -221 95t-84 257z" />
<glyph unicode="v" horiz-adv-x="808" d="M47 1012q-4 12 8 12h31q8 0 10 -10l283 -967l280 969l11 8h30q12 0 9 -12l-295 -1000q-2 -6 -5 -9t-8 -3h-2h-45q-10 0 -14 12z" />
<glyph unicode="w" horiz-adv-x="1282" d="M61 1012q-4 12 9 12h30q8 0 11 -10l217 -967l250 965q2 6 5 9t7 3h2h35q10 0 14 -12l256 -965l211 967l10 10h31q12 0 8 -12l-225 -1000q-2 -6 -5 -9t-5 -3h-5h-40q-10 0 -15 12l-252 967l-248 -967q-2 -6 -5 -9t-5 -3h-4h-41q-10 0 -14 12z" />
<glyph unicode="x" horiz-adv-x="811" d="M51 12l293 510l-252 490q-4 12 8 12h31q10 0 16 -10l228 -451l243 451q6 10 13 10h37q16 0 8 -12l-268 -490l282 -510q2 -4 2 -6q0 -6 -10 -6h-35h-2l-10 10l-258 475l-266 -475q-6 -10 -17 -10h-35q-10 0 -10 6q0 2 2 6z" />
<glyph unicode="y" horiz-adv-x="811" d="M47 -397v-2v-23q0 -12 12 -12h25q104 0 160.5 46t85.5 146l346 1254q4 12 -8 12h-33q-8 0 -10 -8l-267 -969h-12l-235 967l-11 10h-30q-12 0 -9 -12l242 -1000q2 -6 5 -9t7 -3h2h27l-59 -240q-37 -147 -201 -147h-25q-6 0 -9 -3t-3 -7z" />
<glyph unicode="z" horiz-adv-x="888" d="M90 8v4v37q0 10 6 19l633 909h-600q-6 0 -9 3t-3 7v2v23q0 12 12 12h633q6 0 9 -3t3 -5v-4v-35q0 -10 -6 -19l-633 -911h635q6 0 9 -3t3 -7v-2v-23q0 -12 -12 -12h-668q-6 0 -9 3t-3 5z" />
<glyph unicode="&#xa8;" horiz-adv-x="702" d="M96 1221v36q0 6 3 9.5t7 3.5h3h30q12 0 13 -13v-36q0 -6 -3.5 -9.5t-5.5 -3.5h-4h-30q-13 1 -13 13zM459 1221v36q0 6 3 9.5t5 3.5h4h31q12 0 12 -13v-36q0 -6 -3 -9.5t-7 -3.5h-2h-31q-12 1 -12 13z" />
<glyph unicode="&#xaa;" horiz-adv-x="882" d="M92 238q0 111 51.5 172t178.5 92l356 82v123q0 133 -68.5 208.5t-195.5 75.5q-121 0 -183.5 -53t-62.5 -176q0 -6 -3 -9t-5 -3h-4h-25q-12 0 -12 12q0 135 77.5 205.5t217.5 70.5q143 0 228 -91t85 -240v-695q0 -6 -3 -9t-7 -3h-2h-25q-12 0 -12 12v160 q-31 -90 -110 -138t-193 -48q-131 0 -207 67.5t-76 184.5zM141 252q0 -219 234 -219q147 0 226 83t79 208v208l-365 -81q-106 -25 -140 -75t-34 -124z" />
<glyph unicode="&#xab;" horiz-adv-x="755" d="M92 485l131 244q4 10 13 10h28q12 0 8 -12l-129 -242l129 -241q4 -12 -8 -13h-28q-8 0 -13 11zM326 485l131 244q4 10 12 10h29q12 0 8 -12l-129 -242l129 -241q4 -12 -8 -13h-29q-8 0 -12 11z" />
<glyph unicode="&#xad;" horiz-adv-x="628" d="M106 537v24q0 12 13 12h395q6 0 9 -3t3 -5v-4v-24q0 -12 -12 -13h-391z" />
<glyph unicode="&#xb2;" horiz-adv-x="884" d="M94 8v4v37q2 14 8 23l435 606q90 127 125.5 206t35.5 181q0 86 -22.5 156.5t-88 125t-169.5 54.5q-131 0 -195.5 -80t-64.5 -207q0 -6 -3 -9t-8 -3h-2h-24q-12 0 -12 12q0 162 82.5 248t226.5 86q100 0 169.5 -39t101.5 -104.5t44 -122t12 -117.5q0 -178 -145 -383 l-455 -635h615q6 0 9 -3t3 -7v-2v-23q0 -12 -12 -12h-654q-6 0 -9 3t-3 5z" />
<glyph unicode="&#xb3;" horiz-adv-x="946" d="M102 332q0 6 3.5 9t5.5 3h4h22q12 0 13 -12q12 -299 274 -299q139 0 218 91t79 253q0 186 -67.5 263t-168.5 77h-14q-6 0 -9 3t-3 5v4v23q0 12 12 12h16q117 0 169.5 94t52.5 238q0 152 -79 228.5t-179 76.5q-129 0 -196 -69.5t-73 -182.5q0 -6 -3 -9t-7 -3h-2h-25 q-12 0 -12 12q4 141 90 220t228 79q88 0 152.5 -36t96 -94t45 -112.5t13.5 -109.5q0 -307 -191 -357q203 -43 203 -362q0 -164 -83 -277.5t-263 -113.5q-94 0 -159.5 31.5t-98.5 86t-47.5 110t-16.5 118.5z" />
<glyph unicode="&#xb9;" d="M72 8v4v23q0 12 12 12h248v1339h-111q-6 0 -9 3.5t-3 7.5v2v22q0 12 12 13h146q12 0 12 -13v-1374h248q6 0 9 -3t3 -7v-2v-23q0 -12 -12 -12h-543q-6 0 -9 3t-3 5z" />
<glyph unicode="&#xba;" horiz-adv-x="864" d="M102 352v305q0 178 78 279.5t240 101.5q160 0 237.5 -102t77.5 -279v-305q0 -164 -78.5 -265t-238.5 -101h2q-160 0 -239 101t-79 265zM152 352q0 -145 66.5 -232t201.5 -87q133 0 199.5 87t66.5 232v305q0 334 -268 334h2q-268 0 -268 -334v-305z" />
<glyph unicode="&#xbb;" horiz-adv-x="757" d="M131 244l129 241l-129 242q-4 12 8 12h29q8 0 12 -10l131 -244l-131 -243q-4 -10 -12 -11h-29q-12 1 -8 13zM365 244l129 241l-129 242q-4 12 8 12h28q8 0 13 -10l131 -244l-131 -243q-4 -10 -13 -11h-28q-12 1 -8 13z" />
<glyph unicode="&#xbf;" horiz-adv-x="749" d="M43 324v-14q0 -136 78 -228q82 -96 241 -96q268 0 295 270l-10 12h-26q-10 -2 -11 -14q-25 -221 -243 -221q-141 0 -209 81t-68 210q0 63 23.5 119.5t42.5 78.5l61 72q61 70 90 106.5t54.5 93t25.5 111.5v162l-10 12h-27q-10 0 -10 -12v-162q0 -70 -34 -125t-101 -129 q-86 -92 -123 -158.5t-39 -168.5zM315 1343q0 -6 3.5 -9t5.5 -3h4h71q12 0 13 12v78q0 6 -3 9.5t-8 3.5h-2h-71q-12 0 -13 -13v-78z" />
<glyph unicode="&#xc4;" horiz-adv-x="1150" d="M66 12l401 1409q4 12 16 13h49q12 0 17 -13l387 -1409q0 -6 -3 -9t-7 -3h-2h-19q-14 0 -18 12l-154 543h-461l-157 -543q-2 -6 -6.5 -9t-8.5 -3h-4h-18q-12 0 -12 12zM281 604h442l-207 780h-16zM315 1589v37q0 6 3.5 9t5.5 3h4h30q12 0 13 -12v-37q0 -6 -3 -9t-8 -3h-2 h-30q-13 0 -13 12zM678 1589v37q0 6 3 9t7 3h2h31q12 0 12 -12v-37q0 -6 -3 -9t-5 -3h-4h-31q-12 0 -12 12z" />
<glyph unicode="&#xcb;" horiz-adv-x="905" d="M123 0v1434h665q6 0 9.5 -3.5t3.5 -5.5v-4v-22q0 -12 -13 -13h-616v-630h473q6 0 9 -3t3 -8v-2v-20q0 -12 -12 -14h-473v-662h616q6 0 9.5 -3t3.5 -7v-2v-23q0 -12 -13 -12h-665zM238 1589v37q0 6 3 9t5 3h4h31q12 0 12 -12v-37q0 -6 -3 -9t-7 -3h-2h-31q-12 0 -12 12z M600 1589v37q0 6 3 9t7 3h2h31q12 0 12 -12v-37q0 -6 -3 -9t-5 -3h-4h-31q-12 0 -12 12z" />
<glyph unicode="&#xcf;" horiz-adv-x="358" d="M-72 1589v37q0 6 3 9t8 3h2h30q12 0 13 -12v-37q0 -6 -3.5 -9t-5.5 -3h-4h-30q-13 0 -13 12zM113 12v1409q0 6 3 9.5t7 3.5h2h25q12 0 12 -13v-1409q0 -6 -3 -9t-7 -3h-2h-25q-12 0 -12 12zM291 1589v37q0 6 3 9t5 3h4h31q12 0 12 -12v-37q0 -6 -3 -9t-7 -3h-2h-31 q-12 0 -12 12z" />
<glyph unicode="&#xd6;" horiz-adv-x="1030" d="M109 420v594q0 434 389 434t389 -434v-594q0 -434 -389 -434t-389 434zM158 420q0 -201 86 -294t254 -93t254 93t86 294v594q0 201 -86 294t-254 93t-254 -93.5t-86 -293.5v-594zM297 1589v37q0 6 3 9t7 3h2h31q12 0 12 -12v-37q0 -6 -3 -9t-5 -3h-4h-31q-12 0 -12 12z M659 1589v37q0 6 3.5 9t5.5 3h4h30q12 0 13 -12v-37q0 -6 -3 -9t-7 -3h-3h-30q-13 0 -13 12z" />
<glyph unicode="&#xd8;" horiz-adv-x="1030" d="M109 420v594q0 434 389 434t389 -434v-594q0 -434 -389 -434t-389 434zM158 420q0 -201 86 -294t254 -93t254 93t86 294v594q0 201 -86 294t-254 93t-254 -93.5t-86 -293.5v-594zM223 -59l525 1554q4 10 12 10h28q12 0 9 -12l-525 -1554q-4 -10 -12 -11h-29q-12 1 -8 13z " />
<glyph unicode="&#xdc;" horiz-adv-x="1032" d="M113 514q0 -528 391 -528q201 0 293 145t92 383v907q0 6 -3 9.5t-5 3.5h-4h-25q-12 0 -12 -13v-907q0 -238 -88 -359.5t-248 -121.5q-176 0 -259 118.5t-83 362.5v907q0 6 -3 9.5t-7 3.5h-2h-25q-12 0 -12 -13v-907zM291 1589v37q0 6 3 9t5 3h4h31q12 0 12 -12v-37 q0 -6 -3 -9t-7 -3h-2h-31q-12 0 -12 12zM653 1589v37q0 6 3 9t8 3h2h30q12 0 13 -12v-37q0 -6 -3.5 -9t-5.5 -3h-4h-30q-13 0 -13 12z" />
<glyph unicode="&#xdf;" horiz-adv-x="944" d="M150 12v1053q0 11 -1 22q0 54 9 104q10 60 37.5 121.5t91 98.5t155.5 37q158 0 238 -95.5t80 -228.5q0 -125 -58.5 -197.5t-134.5 -92.5q39 -6 80 -28t85 -63t71.5 -118.5t27.5 -178.5q0 -221 -91 -333.5t-265 -112.5h-26q-6 0 -9.5 3t-3.5 5v4v23q0 12 13 12h28 q307 0 307 399q0 172 -81.5 267.5t-233.5 95.5h-31q-6 0 -9 3t-3 7v2v23q0 12 12 12h33q121 0 181.5 79t60.5 189q0 109 -67.5 193t-203.5 84q-246 0 -245 -336v-1053q0 -6 -3.5 -9t-5.5 -3h-4h-22q-12 0 -12 12z" />
<glyph unicode="&#xe4;" d="M68 238q0 111 51 172t178 92l356 82v123q0 133 -68.5 208.5t-195.5 75.5q-121 0 -183.5 -53t-62.5 -176q0 -6 -3 -9t-5 -3h-4h-25q-12 0 -12 12q0 135 78 205.5t217 70.5q143 0 228 -91t85 -240v-695q0 -6 -3 -9t-7 -3h-2h-24q-12 0 -13 12v160q-31 -90 -109.5 -138 t-193.5 -48q-131 0 -206.5 67.5t-75.5 184.5zM117 252q0 -219 233 -219q147 0 226 83t79 208v208l-364 -81q-106 -25 -140 -75t-34 -124zM201 1221v36q0 6 3 9.5t5 3.5h4h31q12 0 12 -13v-36q0 -6 -3 -9.5t-7 -3.5h-2h-31q-12 1 -12 13zM563 1221v36q0 6 3 9.5t7 3.5h2h31 q12 0 12 -13v-36q0 -6 -3 -9.5t-5 -3.5h-4h-31q-12 1 -12 13z" />
<glyph unicode="&#xeb;" d="M104 285q0 -133 85 -216t231 -83q135 0 224 74.5t89 201.5q0 6 -3 9t-5 3h-4h-23q-12 0 -12 -12q0 -109 -71.5 -169t-194.5 -60q-125 0 -195.5 67.5t-70.5 182.5v192l567 111q12 2 14 14v168q0 125 -84 197.5t-213 72.5q-168 0 -251 -89t-83 -236v-428zM154 524v187 q0 115 65.5 197.5t206.5 82.5q117 0 189.5 -58.5t72.5 -170.5v-133zM211 1221v36q0 6 3 9.5t7 3.5h2h31q12 0 12 -13v-36q0 -6 -3 -9.5t-5 -3.5h-4h-31q-12 1 -12 13zM573 1221v36q0 6 3.5 9.5t5.5 3.5h4h30q12 0 13 -13v-36q0 -6 -3 -9.5t-8 -3.5h-2h-30q-13 1 -13 13z" />
<glyph unicode="&#xef;" horiz-adv-x="452" d="M-29 1569v37q0 6 3 9t8 3h2h30q12 0 13 -12v-37q0 -6 -3.5 -9.5t-5.5 -3.5h-4h-30q-13 1 -13 13zM154 1384v37q0 6 3 9.5t7 3.5h2h31q12 0 12 -13v-37q0 -6 -3 -9t-5 -3h-4h-31q-12 0 -12 12zM158 12v1000q0 6 3 9t7 3h2h23q12 0 12 -12v-1000q0 -6 -3 -9t-5 -3h-4h-23 q-12 0 -12 12zM334 1569v37q0 6 3 9t5 3h4h31q12 0 12 -12v-37q0 -6 -3 -9.5t-7 -3.5h-2h-31q-12 1 -12 13z" />
<glyph unicode="&#xf6;" horiz-adv-x="874" d="M109 352q0 -164 78.5 -265t238.5 -101h-2q160 0 238.5 101t78.5 265v305q0 176 -77.5 278.5t-237.5 102.5q-162 0 -239.5 -101t-77.5 -280v-305zM158 352v305q0 334 268 334h-2q268 0 268 -334v-305q0 -145 -66.5 -232t-199.5 -87q-135 0 -201.5 87t-66.5 232zM205 1221 v36q0 6 3 9.5t5 3.5h4h31q12 0 12 -13v-36q0 -6 -3 -9.5t-7 -3.5h-2h-31q-12 1 -12 13zM567 1221v36q0 6 3 9.5t8 3.5h2h30q12 0 13 -13v-36q0 -6 -3.5 -9.5t-5.5 -3.5h-4h-30q-13 1 -13 13z" />
<glyph unicode="&#xfc;" horiz-adv-x="892" d="M115 338v674q0 6 3 9t5 3h4h25q12 0 12 -12v-674q0 -131 67.5 -218t188.5 -87q88 0 152.5 33.5t96 84t46 93.5t14.5 75v693q0 6 3 9t5 3h4h23q12 0 12 -12v-1000q0 -6 -3 -9t-7 -3h-2h-23q-12 0 -12 12v172q-82 -199 -309 -198q-137 0 -221 95t-84 257zM240 1221v36 q0 6 3 9.5t7 3.5h2h31q12 0 12 -13v-36q0 -6 -3 -9.5t-5 -3.5h-4h-31q-12 1 -12 13zM602 1221v36q0 6 3 9.5t5 3.5h4h31q12 0 12 -13v-36q0 -6 -3 -9.5t-7 -3.5h-2h-31q-12 1 -12 13z" />
<glyph unicode="&#xff;" horiz-adv-x="811" d="M47 -397v-2v-23q0 -12 12 -12h25q104 0 160.5 46t85.5 146l346 1254q4 12 -8 12h-33q-8 0 -10 -8l-267 -969h-12l-235 967l-11 10h-30q-12 0 -9 -12l242 -1000q2 -6 5 -9t7 -3h2h27l-59 -240q-37 -147 -201 -147h-25q-6 0 -9 -3t-3 -7zM160 1174v36q0 6 3 9.5t7 3.5h2h31 q12 0 12 -13v-36q0 -6 -3 -9.5t-5 -3.5h-4h-31q-12 1 -12 13zM522 1174v36q0 6 3 9.5t5 3.5h5h30q12 0 13 -13v-36q0 -6 -3.5 -9.5t-7.5 -3.5h-2h-30q-13 1 -13 13z" />
<glyph unicode="&#x152;" horiz-adv-x="2131" d="M143 420v594q0 434 389.5 434t389.5 -434v-594q0 -434 -389.5 -434t-389.5 434zM193 420q0 -201 86 -294t253.5 -93t253.5 93t86 294v594q0 201 -86 294t-253.5 93t-253.5 -93.5t-86 -293.5v-594zM1266 0v1434h665q6 0 9.5 -3.5t3.5 -5.5v-4v-22q0 -12 -13 -13h-616v-630 h473q6 0 9 -3t3 -8v-2v-20q0 -12 -12 -14h-473v-662h616q6 0 9.5 -3t3.5 -7v-2v-23q0 -12 -13 -12h-665z" />
<glyph unicode="&#x153;" horiz-adv-x="1789" d="M102 352v305q0 178 78 279.5t240 101.5q160 0 237.5 -102t77.5 -279v-305q0 -164 -78.5 -265t-238.5 -101h2q-160 0 -239 101t-79 265zM152 352q0 -145 66.5 -232t201.5 -87q133 0 199.5 87t66.5 232v305q0 334 -268 334h2q-268 0 -268 -334v-305zM997 285v428 q0 147 83 236t251 89q129 0 213 -72.5t84 -197.5v-168q0 -12 -14 -14l-567 -111v-192q0 -115 70.5 -182.5t195.5 -67.5q123 0 194.5 60.5t71.5 168.5q0 6 3 9t7 3h2h23q12 0 12 -12q0 -127 -89 -201.5t-224 -74.5q-145 0 -230.5 83t-85.5 216zM1047 524l534 105v133 q0 113 -72.5 171t-189.5 58q-141 0 -206.5 -83t-65.5 -197v-187z" />
<glyph unicode="&#x178;" horiz-adv-x="1103" d="M94 1421q-1 4 -1 6q0 6 7 7h33q10 0 12 -11l365 -919h10l332 919q4 10 14 11h31q7 0 7 -7q0 -3 -1 -6l-510 -1411q-4 -10 -12 -10h-33q-8 0 -6 12l154 441h-11q-6 0 -8 8zM289 1583v37q0 6 3 9t7 3h2h31q12 0 12 -12v-37q0 -6 -3 -9t-5 -3h-4h-31q-12 0 -12 12zM651 1583 v37q0 6 3 9t5 3h5h30q12 0 13 -12v-37q0 -6 -3.5 -9t-7.5 -3h-2h-30q-13 0 -13 12z" />
<glyph unicode="&#x2013;" horiz-adv-x="851" d="M66 537v24q0 12 12 12h682q6 0 9 -3t3 -5v-4v-24q0 -12 -12 -13h-678z" />
<glyph unicode="&#x2014;" horiz-adv-x="2048" d="M106 524v49h1840v-49h-1840z" />
<glyph unicode="&#x2018;" horiz-adv-x="294" d="M80 1288v78q0 150 110 150h5l8 -9v-16q0 -8 -8 -8h-5q-55 0 -55 -105h29q12 0 12 -12v-78q0 -6 -3 -9t-5 -3h-4h-72q-12 0 -12 12z" />
<glyph unicode="&#x2019;" horiz-adv-x="294" d="M80 1284v16q0 8 8 9h4q55 0 55 104h-28q-12 0 -13 12v78q0 6 3.5 9.5t5.5 3.5h4h71q12 0 13 -13v-78q0 -150 -111 -149h-4z" />
<glyph unicode="&#x201a;" horiz-adv-x="315" d="M80 -113q0 8 8 9h4q55 0 55 104h-28q-12 0 -13 12v78q0 6 3.5 9t5.5 3h4h71q12 0 13 -12v-78q0 -150 -111 -149h-4l-8 8v16z" />
<glyph unicode="&#x201c;" horiz-adv-x="555" d="M121 1288v78q0 150 110 150h5l8 -9v-16q0 -8 -8 -8h-5q-55 0 -55 -105h29q12 0 12 -12v-78q0 -6 -3 -9t-5 -3h-4h-72q-12 0 -12 12zM283 1288v78q0 150 110 150h4l9 -9v-16q0 -8 -9 -8h-4q-55 0 -55 -105h29q12 0 12 -12v-78q0 -6 -3 -9t-7 -3h-2h-72q-12 0 -12 12z" />
<glyph unicode="&#x201d;" horiz-adv-x="555" d="M121 1284v16q0 8 8 9h4q55 0 55 104h-28q-12 0 -13 12v78q0 6 3.5 9.5t5.5 3.5h4h71q12 0 13 -13v-78q0 -150 -111 -149h-4zM283 1284v16q0 8 8 9h4q55 0 55 104h-28q-12 0 -13 12v78q0 6 3 9.5t7 3.5h3h71q12 0 13 -13v-78q0 -150 -111 -149h-4z" />
<glyph unicode="&#x201e;" horiz-adv-x="477" d="M80 -113q0 8 8 9h4q55 0 55 104h-28q-12 0 -13 12v78q0 6 3.5 9t5.5 3h4h71q12 0 13 -12v-78q0 -150 -111 -149h-4l-8 8v16zM242 -113q0 8 8 9h4q55 0 55 104h-28q-12 0 -13 12v78q0 6 3 9t8 3h2h71q12 0 13 -12v-78q0 -150 -111 -149h-4l-8 8v16z" />
<glyph unicode="&#x2026;" horiz-adv-x="950" d="M92 12v37q0 6 3 9t7 3h2h31q12 0 12 -12v-37q0 -6 -3 -9t-5 -3h-4h-31q-12 0 -12 12zM356 12v37q0 6 3 9t6 3h4h30q12 0 13 -12v-37q0 -6 -3 -9t-8 -3h-2h-30q-13 0 -13 12zM621 12v37q0 6 3 9t7 3h2h31q12 0 12 -12v-37q0 -6 -3 -9t-5 -3h-4h-31q-12 0 -12 12z" />
<glyph unicode="&#x20ac;" horiz-adv-x="1075" d="M125 823l6 21q4 12 12 12h86v172q0 193 87 306.5t264 113.5q174 0 262 -113.5t90 -306.5q0 -6 -3 -9t-7 -3h-2h-25q-12 0 -12 12q0 373 -303.5 373t-303.5 -373v-172h416q14 0 10 -16l-6 -21q-4 -12 -12 -12h-408v-240h340q14 0 11 -16l-6 -21q-4 -12 -13 -12h-332v-112 q0 -193 83 -283t220.5 -90t220.5 90t83 283q0 6 3 9t7 3h2h23q12 0 12 -12q0 -193 -88 -306.5t-262 -113.5q-176 0 -263.5 113.5t-87.5 306.5v112h-94q-14 0 -10 17l6 20q4 12 12 12h86v240h-94q-14 0 -10 16z" />
<glyph unicode="&#x2122;" horiz-adv-x="2226" d="M82 1397v2v22q0 12 12 13h799q6 0 9 -3.5t3 -5.5v-4v-22q0 -12 -12 -13h-375v-1374q0 -6 -3 -9t-7 -3h-2h-25q-12 0 -12 12v1374h-375q-6 0 -9 3.5t-3 7.5zM1149 12v1409q0 6 3 9.5t5 3.5h4h49q14 0 19 -13l344 -725l340 725q2 6 6 9.5t8 3.5h4h49q12 0 13 -13v-1409 q0 -6 -3 -9t-5 -3h-5h-24q-12 0 -12 12v1354l-345 -725q-4 -12 -16 -12h-20q-12 0 -17 12l-348 725v-1354q0 -6 -3 -9t-5 -3h-4h-25q-12 0 -12 12z" />
<glyph unicode="&#xe000;" horiz-adv-x="1025" d="M0 1025h1025v-1025h-1025v1025z" />
<glyph unicode="&#xfb01;" horiz-adv-x="1069" d="M133 967v4v22q0 12 12 13h103v135q0 158 59.5 225.5t204.5 67.5h29q6 0 9 -3.5t3 -5.5v-4v-22q0 -12 -12 -13h-29q-133 0 -175 -57t-42 -188v-135h270q6 0 9.5 -3.5t3.5 -7.5v-2v-22q0 -12 -13 -13h-270v-946q0 -6 -3 -9t-5 -3h-4h-23q-12 0 -12 12v946h-103q-6 0 -9 3.5 t-3 5.5zM770 1384v37q0 6 3 9.5t7 3.5h2h31q12 0 12 -13v-37q0 -6 -3 -9t-5 -3h-4h-31q-12 0 -12 12zM774 12v1000q0 6 3 9t7 3h2h23q12 0 12 -12v-1000q0 -6 -3 -9t-5 -3h-4h-23q-12 0 -12 12z" />
<glyph unicode="&#xfb02;" horiz-adv-x="1144" d="M133 967v4v22q0 12 12 13h103v135q0 158 59.5 225.5t204.5 67.5h29q6 0 9 -3.5t3 -5.5v-4v-22q0 -12 -12 -13h-29q-133 0 -175 -57t-42 -188v-135h270q6 0 9.5 -3.5t3.5 -7.5v-2v-22q0 -12 -13 -13h-270v-946q0 -6 -3 -9t-5 -3h-4h-23q-12 0 -12 12v946h-103q-6 0 -9 3.5 t-3 5.5zM764 279v1142q0 6 3 9.5t5 3.5h4h23q12 0 12 -13v-1142q0 -246 215 -246h25q6 0 9 -3t3 -5v-5v-22q0 -12 -12 -12h-25q-262 0 -262 293z" />
<glyph unicode="&#xfb03;" horiz-adv-x="1685" d="M133 967v4v22q0 12 12 13h103v135q0 158 59.5 225.5t204.5 67.5h29q6 0 9 -3.5t3 -5.5v-4v-22q0 -12 -12 -13h-29q-133 0 -175 -57t-42 -188v-135h270q6 0 9.5 -3.5t3.5 -7.5v-2v-22q0 -12 -13 -13h-270v-946q0 -6 -3 -9t-5 -3h-4h-23q-12 0 -12 12v946h-103q-6 0 -9 3.5 t-3 5.5zM750 967v4v22q0 12 12 13h102v135q0 158 59.5 225.5t204.5 67.5h29q6 0 9 -3.5t3 -5.5v-4v-22q0 -12 -12 -13h-29q-133 0 -175 -57t-42 -188v-135h271q6 0 9 -3.5t3 -7.5v-2v-22q0 -12 -12 -13h-271v-946q0 -6 -3 -9t-5 -3h-4h-22q-12 0 -13 12v946h-102 q-6 0 -9 3.5t-3 5.5zM1386 1384v37q0 6 3.5 9.5t7.5 3.5h2h31q12 0 12 -13v-37q0 -6 -3 -9t-5 -3h-4h-31q-13 0 -13 12zM1391 12v1000q0 6 3 9t7 3h2h22q12 0 13 -12v-1000q0 -6 -3 -9t-5 -3h-5h-22q-12 0 -12 12z" />
<glyph unicode="&#xfb04;" horiz-adv-x="1761" d="M133 967v4v22q0 12 12 13h103v135q0 158 59.5 225.5t204.5 67.5h29q6 0 9 -3.5t3 -5.5v-4v-22q0 -12 -12 -13h-29q-133 0 -175 -57t-42 -188v-135h270q6 0 9.5 -3.5t3.5 -7.5v-2v-22q0 -12 -13 -13h-270v-946q0 -6 -3 -9t-5 -3h-4h-23q-12 0 -12 12v946h-103q-6 0 -9 3.5 t-3 5.5zM750 967v4v22q0 12 12 13h102v135q0 158 59.5 225.5t204.5 67.5h29q6 0 9 -3.5t3 -5.5v-4v-22q0 -12 -12 -13h-29q-133 0 -175 -57t-42 -188v-135h271q6 0 9 -3.5t3 -7.5v-2v-22q0 -12 -12 -13h-271v-946q0 -6 -3 -9t-5 -3h-4h-22q-12 0 -13 12v946h-102 q-6 0 -9 3.5t-3 5.5zM1380 279v1142q0 6 3 9.5t6 3.5h4h22q12 0 12 -13v-1142q0 -246 215 -246h25q6 0 9 -3t3 -5v-5v-22q0 -12 -12 -12h-25q-262 0 -262 293z" />
</font>
</defs>
</svg>
