<?xml version="1.0" standalone="no"?>
<!DOCTYPE svg PUBLIC "-//W3C//DTD SVG 1.1//EN" "http://www.w3.org/Graphics/SVG/1.1/DTD/svg11.dtd" >
<svg xmlns="http://www.w3.org/2000/svg">
<metadata>
This is a custom SVG webfont generated by Font Squirrel.
Copyright   :  1989 1990 1993 1994 1996 1998 1999 2000 Adobe Systems Incorporated All rights reserved
Designer    : David Siegel
Foundry URL : httpwwwadobecomtype
</metadata>
<defs>
<font id="TektonProBoldExtended" horiz-adv-x="424" >
<font-face units-per-em="1000" ascent="680" descent="-320" />
<missing-glyph horiz-adv-x="245" />
<glyph unicode="ffj" horiz-adv-x="440" d="M0 440h440v-440h-440v440z" />
<glyph unicode="fj" horiz-adv-x="665" d="M595 371v-457q0 -79 -53 -125.5t-138 -46.5q-76 0 -122.5 37t-46.5 67q0 28 14.5 47t40.5 19q20 0 35.5 -13t8.5 -39q22 -30 70 -30q83 0 83 110v419l-239 -31v-260q9 -12 9 -32q0 -41 -67 -41q-25 0 -42 11.5t-17 29.5q0 5 3.5 13.5t3.5 11.5v255l-75 -10q-13 -9 -27 -9 q-13 0 -23 13t-10 41q0 17 9 30t22 13q16 0 28 -6l76 10q0 143 44.5 206.5t144.5 63.5q117 0 193 -35t76 -76q0 -17 -15 -34.5t-50 -17.5q-57 0 -57 36q0 6 7 11q-41 33 -148 33q-44 0 -64.5 -41.5t-20.5 -133.5l238 32q7 1 24 7t30 6q67 0 67 -49q0 -11 -12 -35z" />
<glyph unicode="tt" horiz-adv-x="1064" d="M715 367v-251q0 -35 28 -35q30 0 98 29t111 69q0 17 12 28.5t32 11.5q31 0 45.5 -14.5t13.5 -41.5q0 -21 -60.5 -63.5t-145 -77.5t-139.5 -35q-49 0 -76 26t-27 74v266l-330 -45v-192q0 -35 28 -35q26 0 67.5 14.5t61.5 32.5q0 17 12 28.5t32 11.5q31 0 45.5 -14.5 t13.5 -41.5q0 -21 -44.5 -51t-108.5 -52t-112 -22q-49 0 -76 26t-27 74v206l-103 -15q-7 -7 -19 -8q-18 0 -31.5 13t-13.5 34t14 34.5t31 13.5q5 0 15 -5l107 16v124q-6 8 -6 28q0 40 72 40q50 0 50 -35q0 -14 -8 -25v-117l330 45v64q-6 8 -6 28q0 40 72 40q50 0 50 -35 q0 -14 -8 -25v-57l190 27q10 8 22 8q18 0 29.5 -13t11.5 -33q0 -49 -38 -49q-12 0 -18 4z" />
<glyph unicode="&#xfb00;" horiz-adv-x="813" d="M140 280l-78 -8q-12 -8 -26 -8t-24.5 13t-10.5 41q0 16 9.5 29.5t21.5 13.5q13 0 28 -6l80 8v13q0 135 40.5 205t139.5 70q54 0 96.5 -22.5t42.5 -52.5q0 -18 -13 -35.5t-37 -17.5q-18 0 -29.5 8.5t-10.5 20.5q-14 16 -51 16q-39 0 -54.5 -40t-15.5 -140v-13l238 24 q2 136 43 202.5t137 66.5q56 0 112 -31.5t56 -64.5q0 -16 -13 -32.5t-36 -16.5q-19 0 -31.5 9.5t-11.5 22.5q-19 30 -77 30q-38 0 -54 -38.5t-17 -136.5l172 18q23 10 24 10q20 0 32.5 -13t12.5 -32q0 -54 -38 -54q-10 0 -22 6l-181 -18v-259q9 -18 9 -31q0 -42 -61 -42 q-63 0 -63 43q0 7 7 23v254l-238 -24v-223q9 -18 9 -31q0 -42 -61 -42q-63 0 -63 43q0 7 7 23v219z" />
<glyph unicode="&#xfb03;" horiz-adv-x="1016" d="M140 282l-78 -8q-14 -9 -27 -9q-34 0 -34 54q0 17 9.5 30t22.5 13q16 0 28 -6l79 9v12q0 134 40.5 204t139.5 70q54 0 96.5 -22.5t42.5 -52.5q0 -18 -13 -35.5t-37 -17.5q-18 0 -29.5 8.5t-10.5 20.5q-14 16 -51 16q-39 0 -54.5 -39.5t-15.5 -139.5v-12l238 26 q1 141 45.5 203t143.5 62q117 0 193 -35t76 -76q0 -17 -15 -34.5t-50 -17.5q-57 0 -57 36q0 6 7 11q-39 33 -148 33q-43 0 -63.5 -40.5t-21.5 -129.5l238 27q6 1 23.5 7t30.5 6q67 0 67 -49q0 -17 -10 -32v-297q1 -2 5 -7t6.5 -10t2.5 -9q0 -30 -22.5 -43t-54.5 -13 q-22 0 -41 15t-19 40q0 9 13 35v274l-239 -26v-265q9 -12 9 -32q0 -41 -67 -41q-25 0 -42 11.5t-17 29.5q0 5 3.5 13.5t3.5 11.5v259l-238 -26v-226q9 -20 9 -31q0 -42 -61 -42q-63 0 -63 43q0 4 7 23v221z" />
<glyph unicode="&#xfb04;" horiz-adv-x="1015" d="M140 282l-78 -8q-14 -9 -27 -9q-34 0 -34 54q0 17 9.5 30t22.5 13q16 0 28 -6l79 9v12q0 134 40.5 204t139.5 70q54 0 96.5 -22.5t42.5 -52.5q0 -18 -13 -35.5t-37 -17.5q-18 0 -29.5 8.5t-10.5 20.5q-14 16 -51 16q-39 0 -54.5 -39.5t-15.5 -139.5v-12l238 27 q0 143 46.5 203.5t161.5 60.5q75 0 153 -26q21 3 51 -2q24 0 43 -13.5t19 -36.5q0 -19 -15 -43v-469q16 -9 16 -35q0 -15 -18 -31.5t-48 -16.5q-31 0 -49.5 14.5t-18.5 41.5q0 5 8 26v283l-239 -27v-261q11 -18 11 -32q0 -45 -70 -45q-25 0 -41.5 12.5t-16.5 33.5q0 6 7 25 v255l-238 -26v-227q9 -20 9 -31q0 -42 -61 -42q-63 0 -63 43q0 7 7 23v221zM835 443v101q-9 10 -12 11q-42 30 -126 30q-59 0 -80 -39t-21 -130z" />
<glyph unicode="fi" horiz-adv-x="669" d="M487 359l-239 -31v-260q9 -12 9 -32q0 -41 -67 -41q-25 0 -42 11.5t-17 29.5q0 5 3.5 13.5t3.5 11.5v255l-75 -10q-13 -9 -27 -9q-13 0 -23 13t-10 41q0 17 9 30t22 13q16 0 28 -6l76 10q0 143 44.5 206.5t144.5 63.5q117 0 193 -35t76 -76q0 -17 -15 -34.5t-50 -17.5 q-57 0 -57 36q0 6 7 11q-39 33 -148 33q-44 0 -64.5 -41.5t-20.5 -133.5l238 32q7 1 24 7t30 6q67 0 67 -48q0 -18 -10 -33v-297q1 -2 5 -7t6.5 -10t2.5 -9q0 -30 -22.5 -43t-54.5 -13q-23 0 -42 15t-19 40q0 13 14 35v274z" />
<glyph unicode="fl" horiz-adv-x="668" d="M487 359l-239 -26v-261q11 -18 11 -32q0 -45 -70 -45q-25 0 -41.5 12.5t-16.5 33.5q0 6 7 25v255l-74 -8q-13 -9 -28 -9q-33 0 -33 50q0 22 11 34.5t24 12.5q10 0 27 -5l73 8q0 142 46 203t162 61q75 0 153 -26q18 2 51 -1q24 0 43 -14t19 -37q0 -19 -15 -43v-470 q16 -8 16 -34q0 -15 -18 -31.5t-48 -16.5q-31 0 -49.5 14.5t-18.5 41.5q0 5 8 26v282zM248 416l239 26v102q-9 10 -12 11q-42 30 -126 30q-56 0 -78.5 -37.5t-22.5 -131.5z" />
<glyph unicode=" "  horiz-adv-x="245" />
<glyph unicode="&#x09;" horiz-adv-x="245" />
<glyph unicode="&#xa0;" horiz-adv-x="245" />
<glyph unicode="!" horiz-adv-x="270" d="M190 588v-323q10 -10 10 -42q0 -18 -25.5 -32t-55.5 -14q-24 0 -37.5 18t-13.5 37q0 15 12 37v315q-15 19 -15 41q0 26 18.5 38t67.5 12q27 0 39.5 -10.5t12.5 -36.5q0 -20 -13 -40zM116 -13q-19 0 -33 17t-14 38q0 33 23.5 60.5t53.5 27.5q47 0 47 -68 q0 -38 -16.5 -56.5t-60.5 -18.5z" />
<glyph unicode="&#x22;" horiz-adv-x="407" d="M152 595v-101q7 -16 7 -38q0 -19 -16 -31.5t-50 -12.5q-16 0 -25 1.5t-16 8.5t-7 20q0 20 17 42v107q-12 24 -12 29q0 23 17 37.5t51 14.5q24 0 37.5 -13.5t13.5 -26.5q0 -25 -17 -37zM345 595v-101q7 -16 7 -38q0 -19 -16 -31.5t-50 -12.5q-16 0 -25 1.5t-16 8.5t-7 20 q0 20 17 42v107q-12 24 -12 29q0 23 17 37.5t51 14.5q24 0 37.5 -13.5t13.5 -26.5q0 -25 -17 -37z" />
<glyph unicode="#" horiz-adv-x="668" d="M431 497l27 105q-11 23 3.5 42.5t49.5 19.5q29 0 41.5 -14t12.5 -31q0 -25 -21 -32l-23 -90h55q13 4 25 4q15 0 27.5 -12.5t12.5 -32.5q-3 -59 -40 -59q-18 0 -26 11h-75l-38 -148h63q13 5 24 5q17 0 28.5 -13.5t10.5 -36.5q0 -55 -38 -55q-19 0 -27 11h-83l-30 -119 q7 -16 7 -30q0 -15 -17 -26.5t-42 -11.5q-58 0 -58 45q0 14 6.5 25t16.5 13l27 104h-97l-31 -119q7 -12 7 -30q0 -15 -17 -26.5t-42 -11.5q-58 0 -58 44q0 31 23 39l28 104h-60q-12 -10 -33 -10q-16 0 -28 15t-11 33q-1 30 11.5 46.5t30.5 16.5q19 0 30 -12h82l38 148h-70 q-13 -11 -34 -11q-16 0 -27.5 16.5t-10.5 37.5q1 26 13 42t29 16q21 0 32 -12h89l26 105q-11 23 3.5 42.5t49.5 19.5q29 0 41.5 -14t12.5 -31q0 -25 -20 -32l-23 -90h97zM409 408h-96l-38 -148h96z" />
<glyph unicode="$" horiz-adv-x="866" d="M384 33v-54q10 -16 10 -32q0 -21 -16.5 -38.5t-36.5 -17.5t-37 13.5t-17 34.5q0 6 2 12.5t4.5 12t2.5 7.5v55q-129 0 -195.5 38t-66.5 88q0 19 16 33t37 14q32 0 41 -32q5 -23 60 -41t108 -17v190q-71 -27 -122 -27q-46 0 -90 31t-44 90q0 61 42.5 114t100 81.5 t113.5 33.5v35q0 2 -3 12.5t-3 15.5q0 17 12 29.5t36 12.5q26 0 39.5 -10.5t13.5 -26.5q0 -6 -7 -25v-38q51 1 93 -4.5t67 -14.5t42 -20.5t23.5 -21.5t6.5 -19q0 -27 -16.5 -42t-37.5 -15q-12 0 -18.5 3t-15 14.5t-10.5 13.5q-29 31 -134 27v-138q55 19 104 19q23 0 45 -5.5 t49 -20t43 -48.5t16 -84q0 -41 -19 -78.5t-48 -64.5t-64 -48t-67.5 -32.5t-58.5 -14.5zM296 386v154q-60 -5 -105.5 -42.5t-45.5 -90.5q0 -23 17.5 -35.5t35.5 -12.5q38 0 98 27zM384 325v-210q60 9 107 53t47 96q0 79 -71 79q-44 0 -83 -18z" />
<glyph unicode="%" horiz-adv-x="804" d="M618 608q0 -25 -29 -33l-320 -529q-4 -54 -58 -54q-28 0 -40.5 10t-12.5 34q0 6 4 12.5t11.5 14t8.5 9.5l329 540q1 20 14 32.5t28 12.5q21 0 43 -13.5t22 -35.5zM240 656q62 0 98 -30t36 -81q0 -63 -65 -114.5t-146 -51.5q-55 0 -91.5 30t-36.5 86q0 61 64.5 111 t140.5 50zM232 579q-40 0 -68.5 -25.5t-28.5 -54.5q0 -43 41 -43q37 0 67.5 26t30.5 55q0 18 -11 30t-31 12zM643 278q52 0 89 -34t37 -94q0 -73 -70.5 -120.5t-163.5 -47.5q-50 0 -86.5 32.5t-36.5 89.5q0 76 69 125t162 49zM627 201q-45 0 -80 -26t-35 -67q0 -23 13 -36 t31 -13q43 0 78 27t35 63q0 25 -12 38.5t-30 13.5z" />
<glyph unicode="&#x26;" horiz-adv-x="813" d="M420 375l158 -137q49 60 48 88q0 13 10 21t27 8q29 0 50 -16.5t21 -36.5q0 -11 -7 -21.5t-20 -12.5q-26 -50 -62 -89q2 -2 25.5 -23t38.5 -32.5t19 -11.5t21.5 12t30.5 12q16 0 26.5 -10t10.5 -27q0 -27 -38 -64t-71 -37q-34 0 -37 29l-91 83q-136 -130 -332 -130 q-97 0 -158 46t-61 142q0 47 17.5 86t50.5 67t65.5 47t75.5 37q-77 69 -77 140q0 51 53.5 83t136.5 32q225 0 225 -118q0 -99 -156 -167zM353 581q-37 0 -60.5 -12.5t-23.5 -32.5q0 -38 81 -103q58 21 88 49t30 56q0 43 -115 43zM514 169l-206 169q-78 -29 -122 -65.5 t-44 -97.5q0 -49 36.5 -77t83.5 -28q66 0 134 26t118 73z" />
<glyph unicode="'" horiz-adv-x="213" d="M152 595v-101q7 -16 7 -38q0 -19 -16 -31.5t-50 -12.5q-16 0 -25 1.5t-16 8.5t-7 20q0 20 17 42v107q-12 24 -12 29q0 23 17 37.5t51 14.5q24 0 37.5 -13.5t13.5 -26.5q0 -25 -17 -37z" />
<glyph unicode="(" horiz-adv-x="427" d="M323 683q11 0 21.5 -2.5t24.5 -10t23 -24.5t9 -41q0 -26 -19.5 -37t-43.5 -8q-72 -41 -111.5 -126t-39.5 -209q0 -116 36.5 -208.5t111.5 -139.5q18 12 37.5 -2.5t19.5 -43.5q0 -31 -15.5 -47t-31.5 -16q-39 0 -81 32q-93 76 -138.5 192t-45.5 237q0 142 56 246.5 t143 168.5q11 39 44 39z" />
<glyph unicode=")" horiz-adv-x="427" d="M114 683q14 0 25.5 -11t16.5 -28q87 -64 143 -168.5t56 -246.5q0 -121 -45.5 -237t-138.5 -192q-42 -32 -81 -32q-16 0 -31.5 16t-15.5 47q0 29 19.5 43.5t37.5 2.5q75 47 111.5 139.5t36.5 208.5q0 124 -39.5 209t-111.5 126q-24 -3 -43.5 8t-19.5 37q0 32 16.5 51 t32 23t31.5 4z" />
<glyph unicode="*" horiz-adv-x="405" d="M155 353q-13 0 -22.5 7.5t-9.5 19.5q0 19 13 36q25 32 34 57l-77 -28q-28 -10 -41.5 -1t-13.5 24q0 36 42 36q18 0 91 20q-18 20 -50 43q-29 24 -29 40q0 13 9 23.5t26 10.5q23 0 28 -12q10 -23 50 -68l22 64q-2 15 7.5 25.5t26.5 10.5q15 0 26 -9t11 -19q0 -14 -18 -37 q-23 -36 -30 -53l84 35q14 5 23 -4t9 -26t-10 -27.5t-24 -10.5q-32 0 -78 -11q31 -35 67 -63q23 -14 23 -25q0 -38 -29 -38q-18 0 -33 10.5t-20 25.5l-43 54l-25 -73q-1 -37 -39 -37z" />
<glyph unicode="+" horiz-adv-x="554" d="M225 272v98q-11 17 -11 35q0 15 13.5 27t37.5 12q31 0 47.5 -14t16.5 -32q0 -13 -8 -27v-99h103q1 0 12.5 5.5t17.5 5.5q20 0 32 -15.5t12 -42.5t-12.5 -42t-32.5 -15q-15 0 -29 8h-103v-105q11 -13 11 -27q0 -22 -15.5 -35.5t-35.5 -13.5q-30 0 -48.5 12.5t-18.5 30.5 q0 25 11 40v98h-101q-27 -9 -32 -9q-42 0 -42 49q0 64 46 64q9 0 28 -8h101z" />
<glyph unicode="," horiz-adv-x="255" d="M69 -120q-19 0 -26 7.5t-7 22.5q0 25 32 28q61 3 61 64q-15 -11 -29 -11q-21 0 -31 16t-10 40q0 34 17 55.5t48 21.5q61 0 61 -102q0 -68 -39 -105t-77 -37z" />
<glyph unicode="-" horiz-adv-x="447" d="M317 226l-185 -13q-13 -18 -40 -18q-18 0 -31.5 16t-13.5 42q0 27 14.5 42.5t32.5 15.5q20 0 30 -10l185 12q19 13 32 13q21 1 38 -15t17 -43q0 -24 -16 -40.5t-34 -16.5q-25 0 -29 15z" />
<glyph unicode="." horiz-adv-x="258" d="M112 -9q-21 0 -38 17.5t-17 48.5q0 27 19.5 50.5t51.5 23.5q55 0 55 -66q0 -30 -17.5 -52t-53.5 -22z" />
<glyph unicode="/" horiz-adv-x="448" d="M429 612q0 -16 -8 -28.5t-20 -14.5l-262 -518q5 -17 5 -32q0 -16 -18 -25.5t-43 -9.5q-28 0 -48 15t-20 43q0 27 39 38l262 520q-1 26 11 39t46 13q56 0 56 -40z" />
<glyph unicode="0" horiz-adv-x="866" d="M513 653q131 0 220 -65.5t89 -177.5q0 -82 -27.5 -150t-72.5 -112.5t-98.5 -78t-111 -51t-103.5 -25.5t-83 -8q-135 0 -208.5 58.5t-73.5 171.5q0 101 42.5 186t111 139t150.5 83.5t165 29.5zM505 566q-45 0 -91.5 -12.5t-92 -40.5t-81 -67.5t-57.5 -98t-22 -127.5 q0 -74 47.5 -111t116.5 -37q39 0 85.5 9.5t100 34t96.5 60.5t71.5 95t28.5 131q0 74 -55 119t-147 45z" />
<glyph unicode="1" horiz-adv-x="866" d="M475 520l-230 -119q-2 -12 -15.5 -21t-28.5 -9q-21 0 -35.5 15t-14.5 38q0 21 15.5 36.5t35.5 19.5l272 141l19.5 10l20 10.5t16.5 6.5t19 3q22 0 34.5 -10.5t12.5 -29.5t-13 -34v-512q9 -16 9 -26q0 -44 -72 -44q-33 0 -46 7t-13 32q0 18 14 32v454z" />
<glyph unicode="2" horiz-adv-x="866" d="M756 59q0 -35 -11 -47t-46 -12h-485q-16 -13 -52 -13q-23 0 -39 10t-16 21q0 62 55 137q85 118 306 190q10 4 14 5q60 19 98 51t38 74q0 92 -153 92q-156 0 -221 -80q-3 -4 -3 -24q0 -11 -17 -24.5t-44 -13.5q-28 0 -47 16.5t-19 39.5q0 15 9.5 28t21.5 12 q58 74 140.5 103t196.5 29q119 0 185 -47.5t66 -121.5q0 -148 -204 -209q-104 -31 -177.5 -74.5t-111.5 -114.5h409q1 34 12.5 46.5t45.5 12.5q49 0 49 -86z" />
<glyph unicode="3" horiz-adv-x="866" d="M569 562h-354v-39q8 -11 8 -28q0 -16 -17 -29.5t-42 -13.5q-30 0 -44.5 11t-14.5 26q0 31 12 36v68q0 24 15.5 39.5t38.5 15.5h512q17 0 29 -9t12 -27q0 -7 -1.5 -13.5l-2.5 -10.5t-5 -9.5t-5 -7t-6.5 -6.5t-6.5 -6l-167 -137q34 9 79 9q72 0 123.5 -43t51.5 -118 q0 -73 -40.5 -129.5t-109.5 -89.5t-152 -49.5t-177 -16.5q-99 0 -161 41.5t-62 121.5q0 29 20 49.5t50 20.5q28 0 43 -13.5t15 -32.5q0 -9 -2 -15.5t-4.5 -8.5t-7 -5t-5.5 -4q9 -67 138 -67q145 0 243.5 49.5t98.5 136.5q0 38 -28 64.5t-78 26.5q-58 0 -108 -14.5t-83 -29 t-50 -14.5q-20 0 -32 15.5t-12 36.5q0 23 16 32t47.5 18t53.5 27z" />
<glyph unicode="4" horiz-adv-x="866" d="M497 187l-366 -48q-22 -11 -47 -11q-61 0 -59 61q0 12 11.5 26.5t26.5 20.5l424 374q2 16 20 28.5t44 12.5q29 0 47.5 -15.5t18.5 -37.5q0 -24 -9 -39v-267l151 22q16 13 32 13q48 0 48 -50q0 -27 -13 -45t-32 -18q-17 0 -29 10l-157 -21v-123q16 -7 16 -30 q0 -57 -84 -57q-54 0 -54 47q0 21 11 30v117zM497 275v234l-316 -276z" />
<glyph unicode="5" horiz-adv-x="866" d="M679 558q-16 0 -29 10l-423 -23q0 -21 -6 -83.5t-13 -91.5q68 38 131.5 58t95.5 23t77 3q54 0 102 -10t88.5 -31t64 -58t23.5 -87q0 -69 -41.5 -125t-108 -89.5t-142 -51t-149.5 -17.5q-167 0 -235 61q-21 3 -31 15t-10 27q0 20 3 33.5t18.5 25.5t43.5 12q49 0 49 -47 q0 -6 15 -15t54 -17.5t90 -8.5q131 0 230 55t99 131q0 52 -44.5 80.5t-129.5 29.5q-73 0 -134.5 -17t-94 -38t-64.5 -38.5t-53 -17.5q-26 0 -44 11t-18 32q0 12 8.5 45.5t11.5 57.5q10 91 10 183q0 19 13 30.5t37 12.5l459 25q28 15 46 15q26 0 39 -16.5t13 -39.5 q0 -54 -51 -54z" />
<glyph unicode="6" horiz-adv-x="866" d="M361 -16q-125 0 -229 77q-22 -5 -42 17.5t-10 51.5q-37 61 -37 121q0 74 37.5 148t100 133t153 96t189.5 37q114 0 180 -34.5t66 -86.5q0 -22 -17.5 -36.5t-43.5 -14.5q-35 0 -49 19.5t-4 35.5q-22 31 -142 31q-148 0 -253.5 -102t-105.5 -218q0 -31 12 -49 q83 93 190 152.5t214 59.5q132 0 192.5 -46t60.5 -107q0 -69 -43.5 -125.5t-112.5 -90t-148.5 -51.5t-157.5 -18zM362 70q43 0 98.5 11t112 32.5t95 60t38.5 85.5q0 33 -34 55t-104 22q-93 0 -188 -55.5t-173 -145.5q24 -28 66.5 -46.5t88.5 -18.5z" />
<glyph unicode="7" horiz-adv-x="866" d="M215 539v-41q10 -12 10 -27q0 -19 -24 -32t-50 -13q-23 0 -37.5 13.5t-14.5 26.5q0 19 11 28v82q0 23 12.5 35.5t46.5 13.5l487 18q38 2 49 18q11 17 44 17q24 0 41 -12.5t17 -29.5q0 -34 -21 -51q-42 -59 -190 -282q-142 -213 -161 -248q1 -39 -14.5 -56t-55.5 -17 q-26 0 -40 15.5t-14 39.5q0 20 34 71l303 454q-9 -3 -77 -8z" />
<glyph unicode="8" horiz-adv-x="866" d="M282 -11q-51 0 -107.5 15.5t-102.5 52.5t-46 88q0 67 57 127.5t125 86.5v2q-67 33 -67 105q0 93 93 146t236 53q110 0 167.5 -31t57.5 -86q0 -32 -19 -68t-44 -54l2 -2q190 -13 190 -138q0 -81 -86.5 -151t-210.5 -108t-245 -38zM581 518q0 64 -131 64 q-85 0 -141.5 -31.5t-56.5 -83.5q0 -54 60 -69q86 24 207 29q25 17 43.5 42t18.5 49zM527 342q-92 0 -181.5 -25t-147.5 -69t-58 -94q0 -31 57 -54.5t92 -23.5q98 0 197 30.5t160.5 76.5t61.5 90q0 69 -181 69z" />
<glyph unicode="9" horiz-adv-x="866" d="M489 658q142 0 252 -103q20 -4 31.5 -23.5t11.5 -38.5q0 -11 -3 -18q25 -68 25 -113q0 -108 -64 -196.5t-167.5 -136t-221.5 -47.5q-188 0 -264 105q-12 1 -20.5 13.5t-8.5 26.5q0 33 22 49t46 16q33 0 49 -19.5t9 -39.5q21 -28 64.5 -46.5t96.5 -18.5q147 0 247.5 82.5 t100.5 181.5q0 25 -5 43h-2q-39 -50 -134.5 -86.5t-195.5 -36.5q-109 0 -188.5 46t-79.5 99q0 127 110.5 194t288.5 67zM479 572q-119 0 -196 -42.5t-77 -116.5q0 -28 57 -51.5t104 -23.5q68 0 138.5 22t115 55t44.5 63q0 31 -57 62.5t-129 31.5z" />
<glyph unicode=":" horiz-adv-x="256" d="M138 412q21 0 32.5 -22.5t11.5 -49.5q0 -29 -17 -50t-45 -21q-33 0 -49 21t-16 42q0 30 21.5 55t61.5 25zM114 -9q-55 0 -55 55q0 39 22.5 63.5t55.5 24.5q17 0 32.5 -13t15.5 -40q0 -36 -22 -63t-49 -27z" />
<glyph unicode=";" horiz-adv-x="255" d="M111 267q-21 0 -38 17.5t-17 48.5q0 27 19.5 50.5t50.5 23.5q57 0 57 -66q0 -30 -18 -52t-54 -22zM68 -120q-34 0 -32 30q0 25 32 28q61 3 61 64q-15 -11 -29 -11q-21 0 -31 16t-10 40q0 34 17 55.5t48 21.5q61 0 61 -102q0 -68 -39 -105t-78 -37z" />
<glyph unicode="&#x3c;" horiz-adv-x="554" d="M188 222l217 -130q28 -2 39 -8.5t11 -22.5q0 -22 -22 -50t-44 -28q-31 0 -39 30l-231 150q-34 22 -44.5 37.5t-10.5 38.5q0 22 34 40l253 132q0 15 14.5 26.5t31.5 11.5q29 0 49 -20t20 -34q0 -26 -10.5 -38.5t-39.5 -14.5z" />
<glyph unicode="=" horiz-adv-x="554" d="M124 375h300q3 1 9.5 3.5t11.5 4t9 1.5q42 0 42 -56q0 -55 -43 -55q-17 0 -29 6h-299q-23 -7 -33 -7q-40 0 -40 47q0 61 44 61q16 0 28 -5zM124 185h300q3 1 9.5 3.5t11.5 4t9 1.5q42 0 42 -56q0 -55 -43 -55q-17 0 -29 6h-299q-23 -7 -33 -7q-40 0 -40 47q0 61 44 61 q16 0 28 -5z" />
<glyph unicode="&#x3e;" horiz-adv-x="554" d="M145 92l217 130l-228 120q-29 2 -39.5 14.5t-10.5 38.5q0 14 20 34t49 20q17 0 31.5 -11.5t14.5 -26.5l253 -132q34 -18 34 -40q0 -23 -10.5 -38.5t-44.5 -37.5l-231 -150q-8 -30 -39 -30q-22 0 -44 28t-22 50q0 16 11 22.5t39 8.5z" />
<glyph unicode="?" horiz-adv-x="592" d="M280 154q-77 0 -111.5 21t-34.5 78q0 48 42 82t146 89q83 45 115 70.5t32 46.5q0 20 -31.5 34t-90.5 14q-68 0 -119 -22.5t-74 -49.5q1 -25 -14.5 -42.5t-33.5 -17.5q-29 0 -48 16.5t-19 43.5q0 17 9 32t19 16q118 110 294 110q92 0 157.5 -35.5t65.5 -95.5 q0 -47 -37 -79.5t-159 -101.5q-96 -55 -121.5 -72.5t-25.5 -33.5q0 -23 45 -23q72 0 72 37q0 13 14 22t35 9q23 0 41 -10.5t18 -32.5q0 -41 -48.5 -73t-137.5 -32zM264 -30q-20 0 -37 18t-17 48q0 34 18.5 57.5t52.5 23.5q25 0 39.5 -18t14.5 -52q0 -31 -18 -54t-53 -23z " />
<glyph unicode="@" horiz-adv-x="1038" d="M345 -58q111 0 188 37q5 25 36 25q22 0 39.5 -15t17.5 -32q0 -21 -17.5 -34.5t-44.5 -9.5q-101 -41 -223 -41q-138 0 -219 56t-81 179q0 75 50 154.5t133 144.5t202.5 106.5t246.5 41.5q86 0 149.5 -21t100 -58.5t54 -84t17.5 -102.5q0 -141 -76 -221t-181 -80 q-51 0 -74 26t-23 58q0 9 2 24t5 32.5t4 25.5l-2 1q-48 -58 -131.5 -103t-164.5 -45q-54 0 -85 26.5t-31 72.5q0 71 64 144.5t159.5 120.5t182.5 47q24 0 46 -8q3 21 37 21q23 0 37.5 -9.5t14.5 -25.5q0 -11 -7 -27l-37 -274q-5 -38 26 -38q52 0 99.5 58.5t47.5 166.5 q0 43 -10 76.5t-34.5 63.5t-72.5 46.5t-116 16.5q-113 0 -217 -36.5t-174.5 -92t-112.5 -121.5t-42 -125q0 -167 217 -167zM381 88q50 0 120 37t121 87.5t51 87.5v13q0 29 -42 29q-59 0 -126.5 -34.5t-112.5 -85.5t-45 -96q0 -18 9.5 -28t24.5 -10z" />
<glyph unicode="A" horiz-adv-x="823" d="M574 258l-334 -18q-99 -147 -104 -159q-1 -3 -1 -6q-1 -6 0 -19.5t1 -17.5q0 -17 -15.5 -30t-50.5 -13q-64 0 -64 50q0 24 70 130l236 344q41 57 50 83q-2 29 18.5 47.5t52.5 18.5q21 0 38 -11.5t17 -26.5q0 -7 -3 -17t-3 -15q0 -10 32.5 -62l75 -115.5l49.5 -74.5 q163 -249 163 -293q0 -58 -65 -58q-30 0 -46.5 11t-16.5 30q0 7 2.5 17.5t2.5 15.5q0 19 -105 189zM294 323l234 14l-107 185z" />
<glyph unicode="B" horiz-adv-x="823" d="M83 77v471q-11 15 -11 37q0 26 22.5 39.5t52.5 13.5q19 0 32 -10t14 -26q50 20 144.5 35.5t162.5 15.5q82 0 131.5 -25.5t49.5 -64.5q0 -94 -138 -139v-1q29 3 50 3q80 0 137 -36t57 -86q0 -63 -51 -117t-128 -89t-169 -60.5t-172 -36.5t-139 -11q-65 0 -65 48 q0 31 20 39zM194 514v-112q124 7 249 48t125 84q0 34 -108 34q-54 0 -138.5 -17t-127.5 -37zM194 286v-200q107 6 215 33t185 73.5t77 98.5q0 14 -13.5 28t-51.5 25.5t-95 11.5q-53 0 -142 -13t-132 -24q-27 -8 -35 -14t-8 -19z" />
<glyph unicode="C" horiz-adv-x="740" d="M437 656q100 0 176.5 -33.5t76.5 -81.5q0 -22 -17.5 -37t-45.5 -15q-41 0 -53 41q-5 16 -39.5 27.5t-83.5 11.5q-126 0 -213 -95t-87 -217q0 -87 55 -135.5t133 -48.5q63 0 122.5 27t94.5 64q8 52 62 52q29 0 46.5 -14.5t17.5 -28.5q0 -27 -33 -59q-61 -53 -151 -93 t-174 -39q-131 0 -206.5 72t-75.5 211q0 90 49 179t142 150.5t204 61.5z" />
<glyph unicode="D" horiz-adv-x="812" d="M67 36q0 23 13 41v484q-11 18 -11 40q0 19 21 33t54 14q26 0 38.5 -16t7.5 -36q145 56 290 56q127 0 210 -69t83 -156q0 -180 -180 -301q-100 -68 -232.5 -104t-229.5 -36q-64 0 -64 50zM191 502v-416q78 3 171 30t163 78q132 101 132 222q0 56 -52.5 102t-141.5 46 q-131 0 -272 -62z" />
<glyph unicode="E" horiz-adv-x="727" d="M194 272v-185l407 27q18 16 35 16q26 0 43.5 -16t17.5 -34q0 -34 -20 -45.5t-65 -10.5l-415 -27q-17 -21 -63 -21q-27 0 -45.5 14.5t-18.5 42.5q0 25 13 48v181q-17 14 -17 49q0 32 17 51v150q-22 14 -22 46q0 31 17 44q-6 8 -6 16q0 16 18 26.5t43 10.5q30 0 46 -12 t15 -28l362 23q21 16 41 16q28 0 44 -15t16 -35q0 -29 -17 -47.5t-45 -18.5q-23 0 -40 11l-361 -25v-162l296 30q21 16 41 16q26 0 43 -17.5t17 -40.5q0 -26 -17 -40t-44 -14q-18 0 -32 8z" />
<glyph unicode="F" horiz-adv-x="667" d="M194 272v-191q12 -18 12 -37q0 -23 -21.5 -36.5t-52.5 -13.5q-67 0 -67 45q0 36 18 52v168q-17 19 -17 49q0 32 17 53v144q-6 2 -12.5 17t-6.5 29q0 17 6 31.5t15 15.5q-1 21 21 34t50 13q24 0 35.5 -11t4.5 -26l344 40q5 1 16.5 6t21.5 5q28 0 44 -13t16 -32 q0 -37 -13.5 -51t-44.5 -14q-19 0 -42 9l-344 -41v-154l326 41q20 10 44 10q16 0 28 -16.5t12 -35.5q0 -31 -12.5 -44.5t-40.5 -13.5q-18 0 -36 8z" />
<glyph unicode="G" horiz-adv-x="896" d="M574 665q85 0 156 -28q28 -12 54.5 -37t26.5 -41q0 -23 -15.5 -35.5t-39.5 -12.5q-33 0 -52 35q-22 33 -135 33q-104 0 -223 -66q-191 -108 -191 -267q0 -84 56.5 -131t140.5 -47q54 0 121 17t111 44q71 42 112 90t41 77q-32 -8 -120.5 -24t-116.5 -16q-16 0 -29 12.5 t-13 29.5q0 48 51 48q62 0 178.5 23t125.5 23q46 0 46 -47q0 -33 -17 -76.5t-57 -94.5t-97.5 -93t-149 -70.5t-199.5 -28.5q-145 0 -222 73t-77 190q0 107 70.5 195t181.5 145q146 80 282 80z" />
<glyph unicode="H" horiz-adv-x="818" d="M197 285v-208q8 -22 8 -35q0 -18 -16.5 -32.5t-39.5 -14.5q-38 0 -56.5 12.5t-18.5 31.5q0 20 12 36v204q-7 2 -13 12t-6 20q0 54 19 57v200q-9 18 -9 29q0 19 22 33.5t54 14.5q18 0 35.5 -13t17.5 -30q0 -23 -9 -36v-191l430 28v155q-9 15 -9 39q0 20 19.5 34t43.5 14 q22 0 44.5 -14t22.5 -29q0 -21 -10 -35v-494q9 -17 9 -39q0 -16 -21 -27t-47 -12q-22 0 -43 14.5t-21 33.5t12 38v232z" />
<glyph unicode="I" horiz-adv-x="276" d="M193 546v-462q15 -17 15 -36q0 -21 -21.5 -37t-51.5 -16q-31 0 -49.5 16t-18.5 42q0 19 15 36v464q-13 13 -13 31q0 28 22 44.5t60 16.5q27 0 43.5 -16t16.5 -40q0 -25 -18 -43z" />
<glyph unicode="J" horiz-adv-x="689" d="M607 542v-371q-1 -47 -34 -93.5t-90 -79.5q-84 -53 -207 -53q-127 0 -190.5 53.5t-63.5 137.5q0 30 15 52t40 22q32 0 51.5 -17t19.5 -40q0 -24 -19 -42q2 -36 38.5 -57t99.5 -21q33 0 79 13t72 30q35 23 56.5 53t21.5 59v349q-16 13 -16 41q0 34 20.5 48.5t48.5 14.5 q29 0 48 -17t19 -44q0 -29 -9 -38z" />
<glyph unicode="K" horiz-adv-x="722" d="M194 324v-245q11 -11 11 -30q1 -29 -17.5 -42t-47.5 -13t-49.5 14.5t-19.5 39.5q0 21 12 34v480q-9 7 -9 28q0 24 17.5 39.5t41.5 15.5t47 -12t23 -38q0 -17 -9 -28v-131h2q17 15 63 41l249 134q10 17 20.5 24t29.5 7q16 0 36 -12t20 -35q0 -21 -16.5 -39.5t-41.5 -18.5 l-285 -153l391 -296q18 1 31.5 -12t13.5 -27q0 -20 -20 -39t-56 -19q-18 0 -31 7.5t-12 19.5l-331 249q-44 35 -61 57h-2z" />
<glyph unicode="L" horiz-adv-x="588" d="M194 558v-472l290 32q3 1 11 4.5t15 6t11 2.5q18 0 34 -12t16 -34q0 -30 -14 -46.5t-31 -16.5q-14 0 -31 5l-312 -34q-4 -1 -13.5 -3t-18 -3.5t-15.5 -1.5q-67 0 -67 53q0 21 14 35v484q-8 10 -8 29q0 30 21 44.5t48 14.5q25 0 42.5 -13.5t17.5 -42.5q0 -11 -10 -31z" />
<glyph unicode="M" horiz-adv-x="1008" d="M74 47q0 24 8 33v517q-1 20 17 32.5t43 13.5q25 -1 41 -13t17 -32q3 -31 41 -88t84.5 -112.5t94 -126t64.5 -122.5h3q19 50 71 114.5t103 115t93.5 105.5t47.5 91q0 5 -1.5 18t-1.5 19q0 16 16 25.5t42 9.5q34 0 53 -14t19 -37q0 -16 -6 -32v-489q9 -9 9 -29 q0 -25 -19.5 -38t-47.5 -13q-60 0 -60 43q0 18 11 31q0 235 4 353h-3q-24 -41 -93.5 -124t-123 -154t-56.5 -107q-3 -37 -64 -37q-68 0 -68 53q0 33 -37 94.5t-100 148.5t-89 129h-6q4 -114 4 -341q12 -15 12 -39q0 -50 -61 -50q-31 0 -46 14.5t-15 37.5z" />
<glyph unicode="N" horiz-adv-x="799" d="M83 75v486q-8 13 -8 31q0 22 16.5 37.5t49.5 15.5q57 0 57 -40q0 -30 49 -94q67 -85 200 -185q136 -103 165 -150h2q-2 132 -2 405q-1 2 -3.5 6.5t-4.5 10t-2 10.5q0 48 56 48q26 0 47 -11.5t21 -29.5q0 -12 -10 -35v-518q14 -14 14 -33q0 -20 -14 -27t-47 -7 q-16 0 -30 8.5t-19.5 15t-17.5 24.5q-27 36 -91.5 95.5t-126.5 106.5q-149 113 -196 194l-3 1q2 -240 2 -365q11 -22 11 -34q0 -46 -56 -46q-71 0 -71 52q0 13 12 28z" />
<glyph unicode="O" horiz-adv-x="819" d="M477 674q60 0 112 -17t94.5 -52.5t67 -97t24.5 -143.5q0 -107 -61 -195t-165 -137.5t-227 -49.5q-77 0 -135.5 25t-89.5 65t-46 83.5t-15 88.5q0 74 36.5 151.5t95.5 139t141.5 100.5t167.5 39zM469 588q-76 0 -151 -51.5t-120.5 -129t-45.5 -151.5q0 -78 47 -133 t141 -55q125 0 222 83.5t97 208.5q0 113 -50.5 170.5t-139.5 57.5z" />
<glyph unicode="P" horiz-adv-x="734" d="M77 42q0 18 11 35v352q-29 5 -29 44q0 43 29 58v34q-6 12 -6 26q0 21 20 35t38 14q35 0 50.5 -16t7.5 -41v-14q184 75 338 75q181 0 181 -113q0 -68 -77 -130.5t-194 -102.5t-247 -55v-174q11 -19 11 -27q0 -26 -16 -36.5t-61 -10.5q-27 0 -41.5 13.5t-14.5 33.5z M199 477v-146q160 18 281 73t121 105q0 43 -98 43q-141 0 -304 -75z" />
<glyph unicode="Q" horiz-adv-x="865" d="M536 670q125 0 199.5 -74t74.5 -193q0 -166 -110 -276q54 -49 100 -72q14 -2 23 -5t16.5 -11.5t7.5 -23.5q0 -25 -21.5 -44t-45.5 -19q-29 0 -42 24q-45 21 -122 87q-125 -77 -300 -77q-55 0 -101 11.5t-86.5 38t-64 76.5t-23.5 119q0 93 47 177t119.5 140t159.5 89 t169 33zM529 585q-43 0 -92 -14t-99 -43.5t-90 -69.5t-65.5 -98t-25.5 -124q0 -84 47 -124t124 -40q124 0 211 55q-63 52 -114 77q-12 12 -12 31.5t16.5 38t41.5 18.5q18 0 45 -17q17 -10 104 -83q74 89 74 206q0 79 -47 133t-118 54z" />
<glyph unicode="R" horiz-adv-x="765" d="M71 50q0 17 13 34v363q-4 -3 -10 -3q-10 0 -17.5 12.5t-7.5 31.5q0 46 35 61v24q-8 18 -8 31q0 26 18.5 40t45.5 14q32 0 47.5 -20t6.5 -49v-11q165 65 322 65q77 0 126 -27.5t49 -76.5q0 -64 -54.5 -110t-141 -72t-213.5 -44l427 -219q25 8 49 -5.5t24 -39.5 q0 -29 -18 -45t-44 -16q-34 0 -48 24l-478 245v-177q9 -18 9 -29q0 -29 -21 -43t-52 -13q-59 0 -59 55zM194 494v-131q168 26 274.5 66.5t106.5 89.5q0 17 -24.5 27.5t-66.5 10.5q-133 0 -290 -63z" />
<glyph unicode="S" horiz-adv-x="838" d="M465 650q93 0 164 -33t71 -71q0 -17 -14.5 -30t-38.5 -13q-60 0 -66 32q-27 27 -120 27q-116 0 -205.5 -50.5t-89.5 -103.5q0 -44 57 -44q55 0 161 26q116 28 203 28q90 0 147.5 -34t57.5 -102q0 -90 -87 -164q-73 -66 -186 -99.5t-236 -33.5q-112 0 -172 43.5t-60 81.5 q0 30 17.5 47t47.5 17q17 0 28.5 -10t23 -31t14.5 -24q28 -36 107 -36q81 0 169.5 24.5t147.5 65.5q38 24 53.5 49.5t15.5 60.5q0 31 -22 43.5t-69 12.5q-76 0 -192 -27t-189 -27q-155 0 -155 125q0 57 56.5 115t154.5 96.5t206 38.5z" />
<glyph unicode="T" horiz-adv-x="664" d="M383 540v-469q9 -15 9 -25q0 -51 -74 -51q-52 0 -52 45q0 23 6 35v449l-173 -28q-15 -10 -31 -10q-25 0 -39 13t-14 37q0 23 14.5 39t34.5 16q14 0 32 -10l188 30q14 16 42.5 19t40.5 -6l223 34q20 6 33 6q26 0 39.5 -14t13.5 -36t-13.5 -36.5t-38.5 -14.5q-11 0 -32 8z " />
<glyph unicode="U" horiz-adv-x="762" d="M290 -17q-102 0 -155 50t-53 109v428q-15 28 2 49.5t53 21.5q31 0 43 -20t12 -43v-445q11 -23 39.5 -39.5t67.5 -16.5q61 0 115 15.5t85.5 37t49 41.5t17.5 31v372q-10 8 -10 25q0 23 19.5 37t50.5 14q22 0 38 -13t16 -34q0 -12 -4 -20v-399q-1 -21 -31.5 -60.5 t-75.5 -66.5q-117 -74 -279 -74z" />
<glyph unicode="V" horiz-adv-x="707" d="M290 174h2q27 56 68.5 116.5t68.5 94.5l86.5 104l74.5 88q28 57 75 57q20 0 35.5 -15t15.5 -39q0 -28 -25 -53q-156 -152 -228 -247q-58 -79 -88.5 -141t-30.5 -84q0 -63 -74 -62q-27 -1 -45.5 13t-17.5 27q0 13 2.5 27t2.5 24q0 28 -16.5 73.5t-34 81.5l-52.5 105 q-83 168 -83 247q0 50 65 50q24 0 36.5 -18.5t12.5 -47.5q0 -42 71 -203q66 -144 79 -198z" />
<glyph unicode="W" horiz-adv-x="1030" d="M243 -8q-32 0 -46 17t-15 55q0 56 -78 266q-2 7 -13 35t-14.5 38.5l-12 35t-12 38.5l-8.5 34t-7 36.5t-2 32.5q0 33 17.5 49t47.5 16q24 0 40 -15t16 -40q0 -6 -3 -20t-2 -22q3 -56 46 -188q51 -133 63 -206q14 57 99 217q69 139 67 203q0 27 16.5 44t47.5 17 q30 1 43.5 -15.5t13.5 -51.5q0 -71 105 -243q68 -119 80 -171q21 67 100 222q66 118 71 199q-9 12 -9 30q0 23 16 38t47 15q27 0 44 -14.5t17 -36.5q0 -12 -4 -36q-6 -37 -21 -79.5t-25 -63.5l-38 -77l-35 -69l-40.5 -80.5t-32 -71.5t-22.5 -66q-14 -48 -27 -65.5t-38 -17.5 q-38 0 -51 15t-15 48q-1 50 -84 203q-77 124 -99 197q-11 -38 -76 -167q-98 -183 -98 -241q0 -20 -19.5 -32t-49.5 -12z" />
<glyph unicode="X" horiz-adv-x="657" d="M65 -5q-16 0 -31.5 12.5t-15.5 27.5q0 42 37 56q22 31 89.5 110.5t124.5 140.5q-63 72 -199 208q-30 20 -30 45q0 22 14 37t32 15q33 0 54 -15q16 -12 34 -29t40.5 -43l36.5 -42.5l44 -53t40 -49.5q136 144 176 191q12 36 64 36q25 0 40 -15t15 -37q0 -40 -40 -54 q-12 -13 -83.5 -83l-110.5 -111q31 -35 102 -123t104 -123q26 -14 26 -45q0 -21 -17 -38.5t-47 -17.5q-27 0 -41 15t-13 36q-26 29 -86 107.5t-92 115.5q-106 -118 -189 -234q-29 -40 -78 -40z" />
<glyph unicode="Y" horiz-adv-x="784" d="M339 87v211q-40 54 -152.5 134t-150.5 120q-15 4 -24 17.5t-9 31.5q0 22 20.5 39t44.5 17q23 0 38.5 -12t14.5 -30q35 -41 138 -116t136 -115h2q34 38 124 104t125 99q16 13 29 31q21 39 65 39q24 0 38.5 -16t14.5 -36q0 -6 -1.5 -11.5t-3.5 -9.5t-6.5 -9.5l-6.5 -8 t-8.5 -8.5t-7.5 -7q-8 -8 -29 -23.5t-27 -21.5q-30 -25 -85 -64.5t-98 -75t-70 -69.5v-221q10 -18 10 -29q0 -52 -77 -53q-28 0 -41.5 11t-13.5 43q0 28 11 39z" />
<glyph unicode="Z" horiz-adv-x="762" d="M597 567l-425 -19q-7 -26 -24 -40.5t-37 -14.5q-22 0 -32.5 14t-10.5 33q0 47 20.5 81t50.5 34q31 0 35 -20l371 14q30 1 74.5 4.5t65.5 3.5q28 0 44 -11t16 -30q0 -30 -13 -50t-49 -43l-535 -445l476 9q0 29 18 45.5t38 16.5q19 0 35 -18.5t16 -57.5q0 -74 -67 -74 q-11 0 -92 0.5t-133 0.5q-71 0 -183 -4q-93 -5 -144 -5q-49 0 -71.5 12t-22.5 46q0 40 49 78z" />
<glyph unicode="[" horiz-adv-x="433" d="M215 -133l134 14q22 14 29 14q18 0 29.5 -14.5t11.5 -38.5t-15 -34t-44 -13l-140 -13q-29 -11 -54 -11q-62 0 -62 65v751q0 66 61 66q27 0 49 -15l101 20q23 16 42 16q48 0 48 -52q0 -24 -13 -39.5t-30 -15.5q-16 0 -26 10l-124 -26v-681z" />
<glyph unicode="\" horiz-adv-x="448" d="M309 51l-262 518q-12 2 -20 14.5t-8 29.5q0 39 56 39q34 0 46 -13t11 -39l262 -520q39 -11 39 -38q0 -28 -20 -43t-48 -15q-25 0 -43 9.5t-18 25.5q0 15 5 32z" />
<glyph unicode="]" horiz-adv-x="433" d="M226 575l-134 -14q-2 -1 -7.5 -5.5t-10.5 -7t-11 -2.5q-18 0 -29.5 15t-11.5 39q0 42 59 47l140 14q29 11 54 11q62 0 62 -66v-750q0 -65 -61 -65q-26 0 -49 15l-101 -20q-20 -15 -42 -17q-48 0 -48 52q0 24 13 39.5t30 15.5q16 0 26 -10l124 25v680z" />
<glyph unicode="^" horiz-adv-x="554" d="M383 411l-93 120l-114 -124q-7 -54 -51 -54q-28 0 -48.5 14.5t-20.5 33.5q0 8 3.5 15.5t7.5 12t12.5 13t12.5 13.5l150 169q14 29 49 29q25 0 42 -15.5t23 -33.5l115 -152q25 -31 25 -51q0 -19 -15 -33.5t-49 -14.5q-21 0 -35 15t-14 43z" />
<glyph unicode="_" horiz-adv-x="500" d="M500 -150h-500v75h500v-75z" />
<glyph unicode="`" d="M169 644l92 -77q15 -1 25 -11t10 -25q0 -19 -12.5 -30t-33.5 -11q-16 0 -24.5 9t-9.5 19l-99 81q-28 7 -28 37q0 43 43 43q16 0 25.5 -10.5t11.5 -24.5z" />
<glyph unicode="a" horiz-adv-x="644" d="M460 289v41q0 42 -53 42q-117 0 -217 -49q1 -4 -4 -10.5t-17 -12t-27 -5.5q-16 0 -29 16t-13 32q0 17 16 33t31 12q114 62 288 62q59 0 94.5 -27t35.5 -73v-288q9 -7 9 -27q0 -40 -77 -40q-48 0 -48 36q0 8 10 28v46h-3q-148 -123 -314 -123q-51 0 -87 21t-36 64 q0 37 27 73.5t79 68.5t139 54t196 26zM459 195v29q-74 -3 -138.5 -19t-104.5 -36.5t-62.5 -42.5t-22.5 -39q0 -23 49 -23q74 0 176.5 51.5t102.5 79.5z" />
<glyph unicode="b" horiz-adv-x="621" d="M183 589v-240l1 -2q135 89 281 89q62 0 96 -24.5t34 -73.5q0 -52 -37.5 -113t-99 -114.5t-152 -89t-185.5 -35.5q-63 0 -63 44q0 25 17 38v511q-12 17 -12 37q0 19 26 30t50 11q22 0 37 -10.5t15 -30.5q0 -16 -8 -27zM183 259v-179q109 17 205.5 88.5t96.5 152.5 q0 16 -20 22.5t-39 6.5q-54 0 -121 -25t-122 -66z" />
<glyph unicode="c" horiz-adv-x="605" d="M374 445q77 0 127 -24.5t50 -61.5q0 -20 -17.5 -35t-47.5 -15q-25 0 -37 27q-14 26 -73 26q-68 0 -116 -35q-42 -28 -76.5 -71.5t-34.5 -92.5q0 -41 36 -68.5t101 -27.5q34 0 87 22q55 23 77 55q7 18 11.5 25.5t15 14t26.5 6.5q31 0 44.5 -15t13.5 -30q0 -16 -32.5 -55 t-83.5 -63q-48 -25 -89 -36t-102 -11q-92 0 -151.5 47t-59.5 120q0 83 41 138t115 107q27 20 79 36.5t96 16.5z" />
<glyph unicode="d" horiz-adv-x="677" d="M495 394v180q-14 7 -14 34q0 22 19.5 35t47.5 13q27 0 42.5 -15t15.5 -35l-3 -35v-501q13 -10 13 -29q0 -46 -69 -46q-57 0 -57 45q0 19 5 25v65q-49 -62 -146.5 -104.5t-190.5 -42.5q-55 0 -95.5 28.5t-40.5 84.5q0 77 60 152t147.5 120.5t167.5 45.5q58 0 98 -20z M405 333q-54 0 -119 -35t-109.5 -85.5t-44.5 -91.5q0 -48 59 -48q96 0 204 69q34 22 52.5 36.5t33.5 39t15 53.5t-25.5 45.5t-65.5 16.5z" />
<glyph unicode="e" horiz-adv-x="617" d="M382 445q45 0 81 -10.5t56.5 -25.5t34.5 -33t18.5 -32.5t4.5 -25.5q0 -14 -6 -25t-27.5 -26t-59 -28t-106 -27t-163.5 -27l-63 -8q-7 -17 -7 -43q0 -66 102 -66q68 0 124.5 20.5t87.5 44.5q-3 17 13.5 31.5t44.5 14.5q52 0 52 -48q0 -10 -12 -27t-39 -38.5t-64.5 -39.5 t-95 -30.5t-123.5 -12.5q-198 0 -198 143q0 134 105.5 226.5t239.5 92.5zM379 366q-57 0 -112 -28.5t-91 -84.5q288 40 288 65q0 18 -21 33t-64 15z" />
<glyph unicode="f" horiz-adv-x="466" d="M139 61v241l-77 -13q-10 -6 -21 -6q-40 0 -40 50q0 17 11 30.5t22 13.5q8 0 23 -5l82 13q0 143 40.5 213t139.5 70q56 0 112 -31.5t56 -64.5q0 -16 -13 -32.5t-36 -16.5q-20 0 -32 9.5t-11 22.5q-19 30 -77 30q-39 0 -55 -41t-16 -144l172 28q23 10 24 10q20 0 32.5 -13 t12.5 -32q0 -54 -38 -54q-10 0 -22 6l-181 -29v-248q9 -18 9 -31q0 -42 -61 -42q-63 0 -63 43q0 7 7 23z" />
<glyph unicode="g" horiz-adv-x="635" d="M563 385v-407q0 -63 -45.5 -108.5t-106 -65t-123.5 -19.5q-87 0 -142.5 23.5t-55.5 60.5q0 21 15 37.5t36 16.5q15 0 28 -8.5t15 -23.5q40 -27 111 -27q24 0 49 6t51.5 19t43.5 39t17 61q0 29 0.5 86.5t0.5 85.5q-35 -79 -122.5 -129t-171.5 -50q-137 0 -137 107 q0 62 34 124t93 111.5t148 80.5t190 31q72 0 72 -51zM178 67q51 0 122 43.5t113 120.5q37 60 42 124v1q-124 0 -222.5 -78.5t-98.5 -169.5q0 -41 44 -41z" />
<glyph unicode="h" horiz-adv-x="621" d="M437 65v225q0 30 -7 40t-25 10q-42 0 -108 -28.5t-113 -80.5v-163q8 -16 8 -29q0 -19 -24 -31.5t-51 -12.5q-48 0 -48 33q0 24 7 35v509q-1 4 -6 14t-5 15q0 28 20.5 42.5t55.5 14.5q15 0 34.5 -13.5t19.5 -33.5q0 -7 -11 -32v-242h3q58 45 131 72t133 27q51 0 72.5 -28 t21.5 -88v-254q0 -3 4 -10.5t4 -11.5q0 -18 -22 -33.5t-49 -15.5q-24 0 -40.5 10.5t-16.5 27.5q0 21 12 32z" />
<glyph unicode="i" horiz-adv-x="255" d="M138 634q53 0 53 -48q0 -46 -19 -71.5t-47 -25.5q-25 0 -38 13.5t-13 35.5q0 43 17 69.5t47 26.5zM192 390q0 -10 -6 -22l-5 -13v-276q15 -13 15 -33q0 -26 -26.5 -38.5t-59.5 -12.5q-50 0 -50 50q0 21 13 37v272q-9 9 -9 25q0 14 1.5 22t8 18t22.5 14.5t41 4.5 q18 0 36.5 -15.5t18.5 -32.5z" />
<glyph unicode="j" horiz-adv-x="275" d="M169 644q14 0 23 -5t12.5 -16.5t4 -20t0.5 -26.5q0 -87 -69 -87q-24 0 -37 23t-13 57q0 30 23 52.5t56 22.5zM201 337v-423q0 -79 -53 -125.5t-138 -46.5q-76 0 -122.5 37t-46.5 67q0 28 14.5 47t40.5 19q20 0 35.5 -13t8.5 -39q22 -30 70 -30q83 0 83 110v396 q-14 21 -14 39q0 63 84 63q22 0 37 -16.5t15 -44.5q0 -23 -14 -40z" />
<glyph unicode="k" horiz-adv-x="552" d="M181 580v-295h2q25 21 84 66l141 97q7 26 40 26q24 0 40 -15.5t16 -38.5q0 -21 -13 -32.5t-29 -11.5l-193 -136l214 -156q17 2 29.5 -9t12.5 -29q0 -24 -18.5 -40.5t-48.5 -16.5q-28 0 -40 26l-146 110l-89 69h-2v-112q0 -1 5.5 -14t5.5 -20q0 -53 -66 -53 q-25 0 -44 12.5t-19 41.5q0 21 10 31v495q-13 18 -13 31q0 51 67 51q32 0 47.5 -11t15.5 -38q0 -16 -9 -28z" />
<glyph unicode="l" horiz-adv-x="255" d="M73 75v485q-11 22 -11 36q0 34 15 47t58 13q23 0 42 -14t19 -37q0 -20 -15 -44v-487q19 -16 19 -34q0 -15 -19.5 -30t-47.5 -15q-31 0 -51 14t-20 40q0 12 11 26z" />
<glyph unicode="m" horiz-adv-x="968" d="M181 239v-167q9 -13 9 -27q0 -50 -60 -50q-66 0 -66 52q0 7 4.5 18t4.5 13v291q-10 20 -10 34q0 30 18 41.5t58 11.5q22 0 35.5 -14.5t13.5 -34.5q0 -19 -7 -32v-43q68 50 144.5 87t125.5 37q78 0 78 -74v-58q88 61 164 96.5t120 35.5q37 0 59 -17.5t22 -48.5v-322 q11 -14 11 -30q0 -23 -21.5 -33t-50.5 -10q-56 0 -56 46q0 14 9 23v267q0 10 -6 17.5t-17 7.5q-66 0 -234 -124v-162q0 -46 -15 -60.5t-54 -14.5q-56 0 -56 45q0 17 17 36v250q0 15 -4.5 21.5t-17.5 6.5q-29 0 -90 -31.5t-128 -83.5z" />
<glyph unicode="n" horiz-adv-x="616" d="M183 245v-185q7 -11 7 -25q0 -19 -22 -29.5t-48 -10.5q-24 0 -40.5 9.5t-16.5 27.5q0 19 12 30v139q-15 10 -15 34q0 23 15 62v83q-9 16 -9 30q0 18 23 31.5t51 13.5q53 0 53 -42q0 -16 -10 -30v-48q172 121 258 121q38 0 70.5 -26t32.5 -53v-308q7 -14 7 -29 q0 -45 -65 -45q-28 0 -44 11.5t-16 30.5q0 13 10 28v269q0 7 -13 16t-22 9q-10 0 -32.5 -7.5t-73.5 -35t-112 -71.5z" />
<glyph unicode="o" horiz-adv-x="648" d="M405 448q47 0 84 -13t59 -32.5t36.5 -46t19.5 -50t5 -47.5q0 -55 -34 -105.5t-69 -76.5q-77 -56 -136.5 -75.5t-150.5 -19.5q-42 0 -83 16.5t-71.5 54t-30.5 88.5q0 131 108.5 219t262.5 88zM387 365q-93 0 -168 -62.5t-75 -145.5q0 -42 30 -67t69 -25q92 0 168 51 q42 28 65 65t23 72q0 50 -27.5 81t-84.5 31z" />
<glyph unicode="p" horiz-adv-x="646" d="M181 362v-50h2q64 68 126 98t146 30q75 0 118 -38.5t43 -100.5q0 -59 -25 -111.5t-64.5 -88t-88 -62t-96 -39t-87.5 -12.5q-44 0 -74 24v-240q9 -20 9 -29q0 -46 -72 -46q-54 0 -54 39q0 21 9 39v584q-10 15 -10 29q0 28 17.5 40.5t40.5 12.5q68 0 68 -47q0 -6 -4 -17 t-4 -15zM181 199v-91q22 -36 67 -36q54 0 113.5 27.5t102 78.5t42.5 108q0 30 -19 49.5t-54 19.5q-39 0 -68 -9t-75 -42q-54 -38 -109 -105z" />
<glyph unicode="q" horiz-adv-x="660" d="M469 -246v417h-1q-27 -63 -105.5 -121t-177.5 -58q-11 0 -23 1t-38.5 9t-45.5 22.5t-34.5 44.5t-15.5 71q0 98 53.5 166.5t138 99.5t191.5 31q81 0 123 -14.5t42 -36.5v-582q31 16 67 50q10 33 41 33q20 0 31.5 -14.5t11.5 -36.5q0 -27 -86.5 -86t-112.5 -59 q-59 0 -59 63zM387 354q-61 0 -116 -19.5t-94 -65t-39 -109.5q0 -28 9.5 -47t23.5 -26t23.5 -9.5t17.5 -2.5q65 0 143 74.5t114 190.5q-21 14 -82 14z" />
<glyph unicode="r" horiz-adv-x="488" d="M73 62v310l-9 29q0 17 19 29t45 12q61 0 61 -38q0 -13 -8 -24v-45h2q135 103 230 103q30 0 51 -31t21 -92q0 -24 -15.5 -37.5t-43.5 -13.5q-25 0 -39 8t-14 20q0 13 4 27q0 25 -14 25q-24 0 -76 -29t-106 -79v-164q12 -16 12 -31q0 -24 -18 -35t-60 -11q-56 0 -56 40 q0 18 14 27z" />
<glyph unicode="s" horiz-adv-x="659" d="M391 453q78 0 122.5 -16.5t44.5 -45.5q0 -18 -12 -30.5t-33 -12.5q-23 0 -33 12q-11 15 -91 15q-89 0 -161.5 -29.5t-72.5 -66.5q0 -24 38 -24q22 0 133 23q125 23 161 23q59 0 99 -25.5t40 -75.5q0 -58 -44 -102t-109 -67t-126 -34t-109 -11q-72 0 -126 28t-54 65 q0 22 14 35.5t41 13.5q22 0 31.5 -8t9.5 -17q0 -5 -2 -11q34 -27 89 -27q61 0 123 13.5t107.5 41.5t45.5 63q0 37 -61 37q-12 0 -27 -2t-27.5 -4.5t-36 -8t-40.5 -8.5q-113 -23 -168 -23q-50 0 -80.5 25t-30.5 69q0 57 56.5 100.5t133.5 64t155 20.5z" />
<glyph unicode="t" horiz-adv-x="626" d="M169 436v64q-6 8 -6 28q0 40 72 40q50 0 50 -35q0 -14 -8 -25v-57l190 27q10 8 22 8q18 0 29.5 -13t11.5 -33q0 -49 -38 -49q-12 0 -18 4l-197 -28v-251q0 -35 28 -35q30 0 98 29t111 69q0 17 12 28.5t32 11.5q31 0 45.5 -14.5t13.5 -41.5q0 -21 -60.5 -63.5t-145 -77.5 t-139.5 -35q-49 0 -76 26t-27 74v266l-103 -15q-7 -7 -19 -8q-18 0 -31.5 13t-13.5 34t14 34.5t31 13.5q3 0 5.5 -0.5t5.5 -2t4 -1.5z" />
<glyph unicode="u" horiz-adv-x="613" d="M180 372v-254q0 -15 16 -29t34 -14q40 0 100 30.5t104 73.5v194q0 2 -3.5 11t-3.5 14q0 22 11 31t39 9q33 0 51.5 -12t13.5 -50v-315q10 -15 10 -27q0 -17 -20.5 -28t-49.5 -11q-32 0 -45 8.5t-13 26.5q0 6 5 15.5l6 11.5v27q-118 -101 -242 -101q-44 0 -82.5 34.5 t-38.5 77.5v272q0 3 -3 12t-3 13q0 47 67 47q20 0 38 -10.5t18 -32.5q0 -15 -9 -24z" />
<glyph unicode="v" horiz-adv-x="561" d="M223 -10q-62 0 -63 50q0 15 -54 129q-74 153 -75 196q-8 7 -8 25q0 16 18.5 31t50.5 15q28 0 45 -13t17 -26q0 -15 -9 -31q0 -33 38 -123l53 -122q32 60 100 142q61 72 105 137q16 25 30.5 35.5t38.5 10.5q25 0 39.5 -12.5t14.5 -35.5q0 -17 -15.5 -37.5t-54.5 -60.5 t-61 -66q-126 -154 -148 -210q-14 -34 -62 -34z" />
<glyph unicode="w" horiz-adv-x="825" d="M147 411q0 -9 -6 -27l89 -249h2l135 222q-9 24 -9 39q0 18 17.5 28.5t44.5 10.5q52 0 52 -73l97 -220h2q17 43 70 114q45 68 49 109q-6 12 -6 28q0 20 21.5 32.5t49.5 12.5q19 0 34.5 -12.5t15.5 -28.5q0 -26 -12 -37q-16 -75 -76 -154q-64 -88 -101 -170q6 -20 -6 -31.5 t-48 -11.5q-46 0 -51 42l-100 229l-133 -219q-10 -52 -59 -52q-26 0 -38 11.5t-16 39.5l-122 316q-13 10 -13 33q0 24 18 39.5t41 15.5q58 0 58 -37z" />
<glyph unicode="x" horiz-adv-x="587" d="M294 164l-164 -145q-4 -30 -42 -30q-19 0 -37.5 16.5t-18.5 43.5q0 20 9.5 31.5t21.5 11.5l146 124q-89 54 -151 125q-22 9 -22 40q0 22 21 38.5t47 16.5q14 0 24 -7t13 -13.5t7 -19.5q12 -22 40 -47t44 -36l53 -35q42 41 151 130q0 13 9.5 23t29.5 10q22 0 41 -16.5 t19 -39.5q0 -35 -30 -44l-137 -117q83 -57 139.5 -111t56.5 -84q0 -20 -14.5 -31.5t-39.5 -11.5q-29 0 -39 23q-88 96 -177 155z" />
<glyph unicode="y" horiz-adv-x="626" d="M305 28l-258 312q-24 15 -24 44q0 23 19.5 37.5t43.5 14.5q32 0 46 -14.5t11 -41.5l215 -261l141 272q2 50 55 50q29 0 46 -12.5t17 -34.5q0 -24 -27 -42l-228 -422q-75 -135 -214 -135q-51 0 -92.5 19.5t-57.5 55.5q-4 7 -10.5 11t-10.5 10t-4 20q0 26 15 41.5t41 15.5 t42.5 -11t16.5 -29q0 -5 -2 -12.5t-2 -8.5q1 -13 19.5 -21t46.5 -8q45 0 78.5 34.5t76.5 115.5z" />
<glyph unicode="z" horiz-adv-x="607" d="M55 78l338 266h-266q0 -23 -13 -36.5t-36 -13.5q-18 0 -29.5 15t-11.5 40q0 40 14 58t50 18h376q20 15 50 16q22 0 34 -11t12 -27q0 -38 -33 -53l-338 -268h283q9 47 46 47q47 0 47 -59q0 -79 -59 -79q-21 0 -34 9h-386q-18 -9 -40 -9q-21 0 -32.5 11.5t-11.5 28.5 q0 18 11.5 32t28.5 15z" />
<glyph unicode="{" horiz-adv-x="475" d="M328 -230q-72 0 -113.5 34.5t-41.5 95.5q0 24 7 67.5t7 65.5q0 96 -24.5 126t-99.5 30q-37 0 -35 45q0 26 11 37.5t37 11.5q82 0 106 37t24 165q0 95 52 146.5t150 51.5q33 0 45 -13t12 -38q0 -23 -15 -32t-47 -7q-42 1 -66 -29.5t-24 -72.5v-76q0 -160 -105 -183 q47 -11 66 -58.5t19 -131.5q0 -23 -6 -63.5t-6 -58.5q0 -32 15.5 -48t38.5 -16q31 0 57 9.5t36 9.5q37 0 37 -50q0 -30 -26 -42.5t-111 -12.5z" />
<glyph unicode="|" horiz-adv-x="272" d="M88 -179v846q-12 21 -12 44q0 39 69 39q54 0 54 -38q0 -37 -15 -45v-846q17 -13 17 -36q0 -16 -16 -25.5t-40 -9.5q-64 0 -64 46q0 11 7 25z" />
<glyph unicode="}" horiz-adv-x="475" d="M147 683q72 0 113.5 -34.5t41.5 -96.5q0 -23 -7 -66.5t-7 -65.5q0 -96 24.5 -126t99.5 -30q36 0 35 -45q0 -26 -11 -37.5t-37 -11.5q-82 0 -106 -37t-24 -165q0 -95 -52 -146.5t-150 -51.5q-33 0 -45 13t-12 38q0 23 15 32t47 7q42 -1 66 29.5t24 72.5v76q0 160 105 183 q-47 11 -66 58.5t-19 131.5q0 23 6 63.5t6 58.5q0 32 -15.5 48t-38.5 16q-30 0 -57 -9.5t-36 -9.5q-37 0 -37 50q0 30 26 42.5t111 12.5z" />
<glyph unicode="~" horiz-adv-x="554" d="M358 128q-34 0 -56 14t-49 48q-31 37 -53 37q-30 0 -54 -49q-24 -48 -40 -48q-66 0 -66 41q0 33 28 51q34 56 66 79t75 23q30 0 52 -16t47 -50q28 -36 49 -36q37 0 42 49q3 34 11.5 48.5t27.5 14.5q24 0 40 -12.5t16 -31.5q0 -71 -42 -116.5t-94 -45.5z" />
<glyph unicode="&#xa1;" horiz-adv-x="270" d="M150 447q19 0 33 -17t14 -38q0 -33 -23.5 -60.5t-53.5 -27.5q-47 0 -47 68q0 38 16.5 56.5t60.5 18.5zM76 -155v324q-10 10 -10 42q0 18 25.5 32t55.5 14q24 0 37.5 -18t13.5 -37q0 -14 -12 -38v-314q15 -21 15 -41q0 -26 -18.5 -38t-67.5 -12q-27 0 -39.5 10t-12.5 36 q0 23 13 40z" />
<glyph unicode="&#xa2;" horiz-adv-x="866" d="M379 464v-266q36 5 70.5 20.5t50.5 32.5q-4 20 6.5 33.5t34.5 13.5q64 0 64 -38q0 -52 -70.5 -92t-155.5 -56v-100q14 -23 14 -28q0 -16 -14.5 -28t-42.5 -12q-57 0 -57 33q0 18 12 37v91q-53 0 -91 5q-65 9 -112.5 51t-47.5 111q0 103 70.5 168.5t180.5 92.5v71 q-13 8 -13 24q0 17 19.5 30.5t52.5 13.5q21 0 33 -13t12 -33q0 -13 -16 -22v-57q40 5 65 5q65 0 110.5 -24t45.5 -62q0 -23 -24.5 -37.5t-42.5 -14.5q-31 0 -39 21q-8 35 -62 35q-28 0 -53 -6zM148 282q0 -77 72 -89q28 -5 71 -5v258q-64 -21 -103.5 -64.5t-39.5 -99.5z" />
<glyph unicode="&#xa3;" horiz-adv-x="866" d="M588 308l-266 -12q-20 -142 -76 -187q67 7 174.5 -17t140.5 -24q109 0 156 72q-3 5 -3 17q0 37 39 37q30 0 46 -17.5t16 -39.5q0 -31 -25 -38q-74 -117 -233 -117q-45 0 -142 23.5t-162 23.5q-66 0 -117 -17q-67 -20 -94 -20q-14 0 -24 15.5t-10 35.5q0 36 48 44 q71 15 100 47q42 46 58 158q-84 -6 -115 -6q-14 0 -24.5 13t-10.5 32q0 14 11 24.5t30 11.5l121 5q35 275 267 275q85 0 160 -53q14 2 27.5 -7.5t13.5 -23.5q0 -32 -19 -49t-40 -17q-14 0 -24 9t-10 19q-55 36 -117 36q-68 0 -102.5 -42t-47.5 -143l250 13q18 8 32 8t23 -15 t9 -31q0 -28 -10.5 -40t-23.5 -12q-12 0 -26 9z" />
<glyph unicode="&#xa4;" horiz-adv-x="554" d="M263 75q-74 0 -112 34l-27 -24q0 -14 -10.5 -24t-32.5 -10q-23 0 -36.5 14t-13.5 37q0 16 9 28.5t21 12.5l32 28q-32 48 -32 130q0 83 37 137l-34 38q-13 1 -21.5 14.5t-8.5 29.5q0 50 53 50q17 0 27.5 -10t12.5 -24l29 -34q55 42 143 42q67 0 101 -38l32 34q6 30 37 30 q23 0 38.5 -13t15.5 -37q0 -17 -9.5 -30.5t-23.5 -13.5l-31 -34q36 -55 36 -125q0 -81 -37 -136l32 -32q12 -3 21.5 -15.5t9.5 -28.5q0 -23 -13.5 -37t-36.5 -14q-22 0 -34 11.5t-12 26.5l-26 26q-54 -43 -136 -43zM266 173q60 0 97.5 42t37.5 100q0 46 -31 88.5t-79 42.5 q-62 0 -99 -40.5t-37 -106.5q0 -54 28 -90t83 -36z" />
<glyph unicode="&#xa5;" horiz-adv-x="866" d="M340 74v31l-146 -6q-22 -11 -43 -11q-20 0 -29.5 14t-9.5 32q0 17 11.5 30.5t28.5 13.5q25 0 38 -7l150 7v68l-147 -6q-22 -12 -41 -12q-40 0 -40 47q0 18 11.5 31t27.5 13q25 0 39 -7l150 6v12q-27 30 -144 100.5t-155 118.5q-33 10 -33 54q0 23 20.5 38.5t42.5 15.5 q19 0 34.5 -12.5t14.5 -29.5q30 -41 138.5 -110t137.5 -96h2q38 34 133.5 92.5t124.5 87.5q20 18 27 31q17 37 58 37q23 0 36.5 -14t13.5 -36q0 -31 -33 -62q-13 -13 -39 -35q-34 -27 -136.5 -86t-131.5 -88v-11l181 7q20 10 38 10q16 0 25.5 -12.5t9.5 -28.5q0 -23 -14 -36 t-34 -13q-10 0 -23 7l-183 -9v-67l180 9q21 10 39 10q16 0 25.5 -13t9.5 -30q0 -21 -13.5 -34t-34.5 -13q-12 0 -23 6l-183 -8v-35q10 -15 10 -28q0 -52 -77 -53q-28 0 -41.5 10t-13.5 39q0 22 11 31z" />
<glyph unicode="&#xa6;" horiz-adv-x="272" d="M184 562v-196q17 -11 17 -36q0 -16 -15.5 -25.5t-40.5 -9.5q-64 0 -64 47q0 8 7 24v196q-12 21 -12 44q0 39 69 39q54 0 54 -39q0 -35 -15 -44zM88 -74v196q-12 21 -12 44q0 39 69 39q54 0 54 -39q0 -35 -15 -44v-196q17 -11 17 -36q0 -16 -15.5 -25.5t-40.5 -9.5 q-64 0 -64 47q0 10 7 24z" />
<glyph unicode="&#xa7;" horiz-adv-x="782" d="M465 647q89 0 151.5 -30t62.5 -58q0 -17 -16.5 -35t-38.5 -18q-18 0 -28.5 8.5t-9.5 20.5q-40 27 -136 27t-175 -31.5t-79 -78.5q0 -40 72 -40q40 0 129 13.5t129 13.5q95 0 149 -36.5t54 -102.5q0 -54 -44 -94q24 -26 24 -57q0 -63 -61 -114t-156.5 -78.5t-200.5 -27.5 q-126 0 -186.5 41t-60.5 87q0 21 14 35.5t34 14.5q39 0 61 -42q27 -51 131 -51q134 0 223.5 36.5t89.5 85.5q0 25 -23.5 34.5t-74.5 9.5q-35 0 -136.5 -14.5t-148.5 -14.5q-65 0 -112.5 32t-47.5 88q0 62 52 107q-22 25 -22 63q0 52 38 93.5t97.5 65t123 35.5t122.5 12z M515 357q-39 0 -132.5 -13.5t-118.5 -13.5q-50 0 -77 7q-24 -22 -24 -58q0 -21 20.5 -33.5t50.5 -12.5q34 0 129 14.5t126 14.5q73 0 113 -15q18 20 18 48q0 62 -105 62z" />
<glyph unicode="&#xa8;" d="M106 500q-20 0 -31.5 18.5t-11.5 42.5q0 26 14.5 43.5t42.5 17.5q23 0 37.5 -11.5t14.5 -32.5q0 -40 -15 -59t-51 -19zM301 502q-24 0 -36.5 15.5t-12.5 40.5q0 27 14 45t39 18q23 0 39 -15t16 -41t-14 -44.5t-45 -18.5z" />
<glyph unicode="&#xa9;" horiz-adv-x="1070" d="M452 -30q-63 0 -129 16.5t-125.5 48.5t-97 86.5t-37.5 122.5q0 99 73 194.5t195 156.5t253 61q47 0 100 -9t111.5 -31t104.5 -54t76.5 -83t30.5 -114q0 -83 -37 -151.5t-96 -112.5t-134 -74.5t-147.5 -43.5t-140.5 -13zM456 44q45 0 94 7.5t101 23t97.5 42t82 60.5 t58 81.5t21.5 103.5t-33.5 100.5t-85.5 69.5t-106.5 37.5t-103.5 12.5q-103 0 -201.5 -50t-159 -129t-60.5 -159q0 -49 28.5 -88.5t74 -63t95.5 -36t98 -12.5zM455 118q-195 0 -195 126q0 68 60.5 126t154.5 90.5t194 32.5q66 0 66 -72q12 -7 12 -22q0 -14 -12 -25.5 t-43 -11.5q-45 0 -45 29q0 2 2.5 8.5t2.5 10.5q0 14 -13 14q-98 0 -186.5 -51.5t-88.5 -124.5q0 -60 84 -60q82 0 151.5 31t83.5 66q7 17 28 17q26 0 38.5 -12.5t12.5 -28.5q0 -14 -28 -37.5t-70.5 -47t-100 -41t-108.5 -17.5z" />
<glyph unicode="&#xaa;" horiz-adv-x="540" d="M393 524v40q0 28 -50 28q-84 0 -162 -31q2 -8 -11 -15t-27 -7q-22 0 -32.5 11.5t-11.5 27.5q0 14 10.5 23t24.5 7q107 47 232 47q56 0 89 -22t33 -58v-187q8 -19 8 -22q0 -11 -21.5 -19.5t-48.5 -8.5q-43 0 -43 21q0 3 10 20v29q-37 -35 -106.5 -56t-142.5 -21 q-48 0 -77 18t-29 46q0 41 43 74.5t105 50t127 16.5q49 0 80 -12zM185 393q49 0 126.5 26.5t76.5 51.5q0 17 -60 17q-78 0 -134 -26t-56 -54q0 -15 47 -15z" />
<glyph unicode="&#xab;" horiz-adv-x="626" d="M201 98l-154 139q-26 14 -26 45q0 11 8 24t20 18l211 145q21 27 53 27q19 0 32 -15.5t13 -36.5q0 -20 -15.5 -33t-37.5 -13l-163 -117l122 -115q14 0 26.5 -12.5t12.5 -30.5q0 -21 -15.5 -37.5t-38.5 -16.5q-15 0 -30 8t-18 21zM455 98l-153 139q-26 14 -26 45 q0 12 7.5 24.5t20.5 17.5l211 145q19 27 52 27q20 0 33 -15.5t13 -36.5q0 -19 -15.5 -32.5t-37.5 -13.5l-163 -117l122 -115q14 0 26.5 -12.5t12.5 -30.5q0 -21 -15.5 -37.5t-39.5 -16.5q-15 0 -29.5 8t-18.5 21z" />
<glyph unicode="&#xac;" horiz-adv-x="554" d="M405 279h-283q-16 -6 -30 -6q-40 0 -40 47q0 60 44 60q15 0 27 -5h313q73 0 73 -54q0 -24 -8 -38v-104q8 -10 8 -26q0 -21 -14 -33.5t-31 -12.5q-32 0 -50.5 11t-18.5 29q0 26 10 39v93z" />
<glyph unicode="&#xad;" horiz-adv-x="447" d="M317 226l-185 -13q-13 -18 -40 -18q-18 0 -31.5 16t-13.5 42q0 27 14.5 42.5t32.5 15.5q20 0 30 -10l185 12q19 13 32 13q21 1 38 -15t17 -43q0 -24 -16 -40.5t-34 -16.5q-25 0 -29 15z" />
<glyph unicode="&#xae;" horiz-adv-x="1070" d="M451 -30q-62 0 -127 16.5t-124 48.5t-96.5 86.5t-37.5 122.5q0 74 43.5 148.5t114.5 132.5t166.5 94.5t193.5 36.5q46 0 98.5 -9t110.5 -31t104.5 -54t76.5 -83t30 -114q0 -83 -37 -151.5t-95.5 -112.5t-133.5 -74.5t-147 -43.5t-140 -13zM455 44q54 0 113 10.5t120 35 t109.5 60t79 91t30.5 121.5q0 56 -34 100.5t-85.5 69.5t-105 37.5t-101.5 12.5q-102 0 -199.5 -50t-158 -129t-60.5 -159q0 -49 28.5 -89t73.5 -63t94.5 -35.5t95.5 -12.5zM452 220v-61q0 -56 -70 -56q-20 0 -25.5 4t-5.5 20q0 14 5 29v275q0 21 12 32t29 11q27 0 53 -17 q94 45 178 45q105 0 105 -72q0 -53 -53 -92.5t-161 -71.5q68 -55 114 -55q41 0 45 24q2 10 11 17t22 7q20 0 33 -12t13 -28q0 -33 -46.5 -59t-88.5 -26q-38 0 -75 19t-95 67zM452 396v-90q89 22 135 49t46 52q0 29 -34 29q-67 0 -147 -40z" />
<glyph unicode="&#xaf;" d="M341 553l-247 -22q-22 -5 -26 -5q-15 0 -24.5 11t-9.5 30q0 18 11 30t24 12q3 0 6.5 -1.5t7.5 -3t6 -2.5l241 21q22 8 27 8q15 0 23.5 -11t8.5 -29q0 -22 -16 -33.5t-32 -4.5z" />
<glyph unicode="&#xb0;" horiz-adv-x="359" d="M205 666q62 0 95.5 -38t33.5 -98q0 -67 -45 -112t-120 -45q-56 0 -91.5 42t-35.5 88q0 82 45 122.5t118 40.5zM200 591q-37 0 -58.5 -21t-21.5 -55q0 -30 17 -48.5t46 -18.5q35 0 54 25t19 59q0 27 -15.5 43t-40.5 16z" />
<glyph unicode="&#xb1;" horiz-adv-x="554" d="M322 423v-61h103q1 0 12.5 5.5t17.5 5.5q20 0 32 -15.5t12 -42.5q0 -28 -13 -42.5t-32 -14.5q-15 0 -29 8h-103v-65q11 -13 11 -27q0 -22 -15.5 -35.5t-36.5 -13.5q-29 0 -47.5 11.5t-18.5 27.5q0 21 11 39v63h-101q-25 -8 -32 -9q-42 0 -42 49q0 62 46 64q9 0 28 -8h101 v63q-11 13 -11 32q0 15 13.5 26t37.5 11q30 0 47 -14t17 -29q0 -18 -8 -28zM425 0h-300q-26 -9 -32 -8q-42 0 -42 49q0 62 46 62q12 0 28 -7h300q1 0 12.5 5.5t17.5 5.5q20 0 32 -15.5t12 -42.5t-13 -42t-32 -15q-10 0 -29 8z" />
<glyph unicode="&#xb2;" horiz-adv-x="498" d="M161 449l194 5q20 0 20 4q1 16 14.5 26t31.5 10q50 0 50 -51q0 -56 -56 -57l-308 -10q-41 -1 -56.5 8t-15.5 36q0 99 190 160q122 39 122 82q0 30 -74 30q-32 0 -53 -6.5t-28.5 -13.5t-14.5 -19q-1 -2 -4 -7t-4 -7t-4.5 -6.5t-6 -6t-7 -4.5t-10 -4t-12.5 -2t-16 -1 q-21 0 -35 11t-14 26q0 14 11 31t35 36t73 31.5t115 12.5q75 0 118.5 -24.5t43.5 -69.5q0 -22 -10 -41t-23.5 -32t-38.5 -26t-43.5 -20l-49.5 -18q-65 -22 -94 -39t-40 -44z" />
<glyph unicode="&#xb3;" horiz-adv-x="539" d="M360 690l-183 -16q-2 -50 -47 -50q-41 0 -41 63q0 53 40 53q38 0 163.5 11.5t144.5 11.5q47 0 47 -36q0 -6 -4.5 -14t-14.5 -18.5t-18 -18l-23.5 -21t-21.5 -19.5q50 2 85.5 -24.5t35.5 -74.5q0 -78 -84.5 -125.5t-206.5 -47.5q-48 0 -87 11t-59.5 26.5t-31 29.5 t-10.5 23q0 18 17 33t40 15q22 0 42 -29q26 -36 100 -36q76 0 124.5 28.5t48.5 64.5q0 45 -55 45q-34 0 -51.5 -10.5t-28 -21t-26.5 -10.5q-17 0 -28.5 8t-11.5 22q0 36 42 44q22 5 51.5 30t51.5 53z" />
<glyph unicode="&#xb4;" d="M343 602l-102 -77q-1 -13 -16 -24.5t-32 -11.5t-28 11t-11 29q0 14 8.5 24.5t18.5 11.5l103 79q-4 17 8.5 27t31.5 10q23 0 34.5 -13t11.5 -30q0 -33 -27 -36z" />
<glyph unicode="&#xb5;" horiz-adv-x="617" d="M433 180v185q-6 12 -6 29q0 18 15.5 30t38.5 12q26 0 46.5 -10t20.5 -28l-7 -33v-302q8 -21 8 -29q0 -15 -21 -27t-50 -12q-54 0 -54 30q0 11 10 29v34q-114 -103 -219 -103q-23 0 -36 10v-167q16 -7 16 -38q0 -20 -20.5 -32.5t-42.5 -12.5q-29 0 -49 11t-20 29 q0 29 8 44v537q-7 14 -7 27q0 23 19.5 34.5t48.5 11.5q22 0 40.5 -11.5t18.5 -31.5q0 -22 -12 -30v-253q0 -20 16 -32t39 -12q44 0 101.5 32.5t97.5 78.5z" />
<glyph unicode="&#xb6;" horiz-adv-x="683" d="M312 50v248q-54 -14 -118 -14q-87 0 -131 32.5t-44 86.5q0 43 34.5 85.5t95.5 78t157 57t209 21.5q22 11 40 11q72 0 72 -55q0 -28 -13 -33v-505q13 -18 13 -32q0 -40 -68 -40q-52 0 -52 32q0 5 3 32v509q-57 0 -94 -6v-503q14 -6 14 -29q0 -16 -24.5 -29t-48.5 -13 q-23 0 -39 9.5t-16 24.5q0 23 10 32zM312 384v155q-87 -21 -135 -56t-48 -73q0 -18 21 -29.5t60 -11.5q54 0 102 15z" />
<glyph unicode="&#xb7;" horiz-adv-x="258" d="M108 145q-21 0 -38 17.5t-17 48.5q0 27 19.5 50.5t51.5 23.5q55 0 55 -66q0 -30 -17.5 -52t-53.5 -22z" />
<glyph unicode="&#xb8;" d="M279 12q0 -9 -5.5 -17t-11.5 -9l-32 -43q33 0 56 -21.5t23 -64.5q0 -52 -40.5 -85t-104.5 -33q-36 0 -60 15q-6 -4 -17 -4q-9 0 -15 11.5t-6 26.5q0 17 11 30t23 13q6 0 12.5 -4.5t6.5 -9.5q17 -9 48 -9q35 0 55.5 13.5t20.5 32.5q0 28 -35 28q-6 0 -20 -4q-5 -9 -24 -9 q-10 0 -17.5 8.5t-7.5 22.5q0 20 15 35l63 84q2 30 26 30q14 0 25 -11.5t11 -25.5z" />
<glyph unicode="&#xb9;" horiz-adv-x="292" d="M241 704v-246q0 -5 2.5 -17.5t2.5 -19.5q0 -21 -21.5 -33.5t-61.5 -12.5q-43 0 -43 28q0 7 3 15t6 13l8 13.5t7 11.5v191q-3 0 -31.5 -21.5t-41.5 -21.5q-15 0 -25 10t-10 25q0 7 3 13.5t11.5 13.5t14.5 11.5t21.5 14.5l24.5 16q15 10 34 26.5t31 23t26 6.5 q17 0 32.5 -9.5t15.5 -23.5q0 -3 -9 -27z" />
<glyph unicode="&#xba;" horiz-adv-x="534" d="M489 522q0 -68 -83.5 -129.5t-198.5 -61.5q-76 0 -119 32t-43 77q0 85 81.5 150t203.5 65q81 0 120 -42.5t39 -90.5zM388 527q0 62 -70 62q-66 0 -119 -43.5t-53 -96.5q0 -24 19.5 -38t53.5 -14q65 0 117 41.5t52 88.5z" />
<glyph unicode="&#xbb;" horiz-adv-x="626" d="M237 282l-144 114q-23 2 -37.5 14t-14.5 32q0 22 12.5 37.5t32.5 15.5q33 0 54 -28l191 -143q12 -5 19.5 -18t7.5 -24q0 -30 -27 -45l-173 -140q-1 -12 -16 -20.5t-31 -8.5q-24 0 -40 16t-16 37q0 17 13 30t27 13zM486 282l-144 114q-23 2 -37.5 14t-14.5 32 q0 22 12.5 37.5t32.5 15.5q33 0 54 -28l191 -143q12 -5 19.5 -18t7.5 -24q0 -30 -27 -45l-173 -140q-1 -12 -16 -20.5t-31 -8.5q-24 0 -40 16t-16 37q0 17 13 30t27 13z" />
<glyph unicode="&#xbc;" horiz-adv-x="991" d="M135 26q0 7 1.5 13t5.5 11.5t6.5 8t9.5 8t8 6.5l437 540q13 44 41 44q23 0 44.5 -16t21.5 -38q0 -14 -12 -26.5t-23 -13.5l-428 -531q-2 -20 -19.5 -32t-39.5 -12q-53 0 -53 38zM232 589v-246q0 -4 2.5 -17t2.5 -20q0 -21 -21.5 -33.5t-61.5 -12.5q-43 0 -43 28 q0 14 24 53v191q-3 0 -31.5 -21.5t-41.5 -21.5q-15 0 -25 10t-10 25q0 7 3 13.5t11 13.5t15 12l22 15l24 16q15 10 34 26t31 22.5t26 6.5q17 0 32.5 -9.5t15.5 -23.5q0 -3 -9 -27zM831 321v-142l86 9q18 12 24 12q15 0 26 -10.5t11 -31.5q0 -42 -34 -42q-16 0 -27 9l-86 -9 v-49q16 -8 16 -26q0 -46 -79 -46q-24 0 -35.5 12t-11.5 26q0 19 9 25v48l-231 -23l-11 -3q-12 -2 -19 -2q-41 0 -41 50q0 21 27 37l269 198q11 31 65 31q21 0 36.5 -10.5t15.5 -26.5q0 -23 -10 -36zM730 170v122l-189 -141z" />
<glyph unicode="&#xbd;" horiz-adv-x="1011" d="M140 26q0 7 1.5 13t5.5 11.5t6.5 8t8.5 7.5t8 7l437 540q15 44 42 44q23 0 44 -16t21 -38q0 -14 -12 -26.5t-23 -13.5l-428 -531q-1 -19 -18.5 -31.5t-39.5 -12.5q-53 0 -53 38zM232 589v-247q0 -4 2.5 -16.5t2.5 -19.5q0 -21 -21.5 -33.5t-61.5 -12.5q-43 0 -43 27 q0 14 24 53v192q-3 0 -31.5 -22t-41.5 -22q-15 0 -25 10t-10 26q0 7 3 13.5t11.5 13.5t14.5 11.5t21.5 14.5l24.5 16q15 10 34 26.5t31 23t26 6.5q17 0 32.5 -9.5t15.5 -23.5q0 -3 -9 -27zM650 63l195 6q19 0 19 4q1 15 14.5 25.5t31.5 10.5q24 0 37 -14t13 -37 q0 -57 -56 -58l-308 -9q-41 -1 -56.5 8t-15.5 35q0 98 190 161q122 39 122 83q0 29 -74 29q-46 0 -65 -10t-31 -28q-6 -12 -8 -15t-9.5 -11t-18.5 -10.5t-28 -2.5q-21 0 -35 11t-14 27q0 14 11 30.5t35 35.5t73 31.5t115 12.5q75 0 118.5 -24.5t43.5 -69.5q0 -28 -13 -49.5 t-39.5 -38t-50.5 -26.5t-62 -23q-64 -22 -93.5 -39.5t-40.5 -44.5z" />
<glyph unicode="&#xbe;" horiz-adv-x="1216" d="M351 26q0 7 1.5 13t5.5 11.5t6.5 8t9.5 8t8 6.5l436 540q15 44 42 44q23 0 44.5 -16t21.5 -38q0 -14 -12.5 -26.5t-23.5 -13.5l-427 -531q-2 -20 -19.5 -32t-39.5 -12q-53 0 -53 38zM351 574l-183 -15q-2 -50 -47 -50q-41 0 -41 63q0 53 40 53q38 0 163.5 11.5 t144.5 11.5q47 0 47 -36q0 -7 -4.5 -15t-14.5 -18.5t-18 -18l-23.5 -21.5t-21.5 -19q50 2 85.5 -24.5t35.5 -74.5q0 -78 -84.5 -125t-206.5 -47q-39 0 -72 7.5t-54 18t-35.5 23t-20.5 22.5t-6 17q0 18 17 33.5t40 15.5q21 0 42 -29q26 -37 100 -37q76 0 124.5 28.5 t48.5 65.5q0 45 -55 45q-34 0 -51.5 -10.5t-28 -21.5t-26.5 -11q-17 0 -28.5 8.5t-11.5 22.5q0 36 42 44q22 5 51.5 30t51.5 53zM1056 320v-141l86 9q15 10 24 10q32 0 32 -40t-29 -40q-19 0 -27 7l-86 -9v-49q16 -8 16 -26q0 -46 -79 -46q-24 0 -35.5 12t-11.5 26 q0 19 9 25v48l-230 -22q-21 -6 -30 -6q-41 0 -41 51q0 19 26 36l269 197q11 31 65 31q21 0 36.5 -10.5t15.5 -26.5q0 -24 -10 -36zM955 170v121l-189 -140z" />
<glyph unicode="&#xbf;" horiz-adv-x="592" d="M331 453q20 0 37 -18t17 -48q0 -34 -18.5 -57.5t-52.5 -23.5q-25 0 -39.5 18t-14.5 52q0 31 18 54t53 23zM316 269q77 0 111.5 -21t34.5 -78q0 -48 -41.5 -82t-146.5 -90q-83 -44 -115 -69.5t-32 -46.5q0 -20 31.5 -34.5t90.5 -14.5q68 0 119 22.5t74 49.5 q-1 26 14.5 43.5t33.5 17.5q29 0 48 -16.5t19 -43.5q0 -17 -9 -32.5t-19 -16.5q-121 -110 -294 -110q-92 0 -157.5 35.5t-65.5 95.5q0 48 37 80.5t158 101.5q96 54 122 72t26 34q0 23 -46 23q-72 0 -72 -37q0 -13 -14 -22t-35 -9q-23 0 -41 10.5t-18 32.5q0 41 49 73t138 32 z" />
<glyph unicode="&#xc0;" horiz-adv-x="823" d="M574 258l-334 -18q-99 -147 -104 -159q-1 -3 -1 -6q-1 -6 0 -19.5t1 -17.5q0 -17 -15.5 -30t-50.5 -13q-64 0 -64 50q0 24 70 130l236 344q41 57 50 83q-2 29 18.5 47.5t52.5 18.5q21 0 38 -11.5t17 -26.5q0 -7 -3 -17t-3 -15q0 -10 32.5 -62l75 -115.5l49.5 -74.5 q163 -249 163 -293q0 -58 -65 -58q-30 0 -46.5 11t-16.5 30q0 7 2.5 17.5t2.5 15.5q0 19 -105 189zM294 323l234 14l-107 185zM368 861l92 -77q15 -1 25 -10.5t10 -24.5q0 -20 -13 -31t-33 -11q-16 0 -24.5 9t-9.5 19l-99 81q-28 7 -28 37q0 43 43 43q16 0 25.5 -10.5 t11.5 -24.5z" />
<glyph unicode="&#xc1;" horiz-adv-x="823" d="M574 258l-334 -18q-99 -147 -104 -159q-1 -3 -1 -6q-1 -6 0 -19.5t1 -17.5q0 -17 -15.5 -30t-50.5 -13q-64 0 -64 50q0 24 70 130l236 344q41 57 50 83q-2 29 18.5 47.5t52.5 18.5q21 0 38 -11.5t17 -26.5q0 -7 -3 -17t-3 -15q0 -10 32.5 -62l75 -115.5l49.5 -74.5 q163 -249 163 -293q0 -58 -65 -58q-30 0 -46.5 11t-16.5 30q0 7 2.5 17.5t2.5 15.5q0 19 -105 189zM294 323l234 14l-107 185zM560 820l-101 -77q-2 -13 -16.5 -24.5t-32.5 -11.5q-17 0 -27.5 11.5t-10.5 28.5q0 14 8.5 24.5t17.5 12.5l103 79q-3 17 9.5 26.5t31.5 9.5 q22 0 33.5 -13t11.5 -29q0 -33 -27 -37z" />
<glyph unicode="&#xc2;" horiz-adv-x="823" d="M574 258l-334 -18q-99 -147 -104 -159q-1 -3 -1 -6q-1 -6 0 -19.5t1 -17.5q0 -17 -15.5 -30t-50.5 -13q-64 0 -64 50q0 24 70 130l236 344q41 57 50 83q-2 29 18.5 47.5t52.5 18.5q21 0 38 -11.5t17 -26.5q0 -7 -3 -17t-3 -15q0 -10 32.5 -62l75 -115.5l49.5 -74.5 q163 -249 163 -293q0 -58 -65 -58q-30 0 -46.5 11t-16.5 30q0 7 2.5 17.5t2.5 15.5q0 19 -105 189zM294 323l234 14l-107 185zM488 848l87 -93q1 -1 6.5 -5t8.5 -6.5t7 -7t6 -9.5t2 -11q0 -17 -14.5 -28.5t-39.5 -11.5q-15 0 -24.5 12.5t-7.5 26.5l-78 83l-111 -87 q1 -14 -8.5 -24.5t-25.5 -10.5q-18 0 -33 12.5t-15 27.5q0 29 35 43l118 95q24 20 41 20q20 0 46 -26z" />
<glyph unicode="&#xc3;" horiz-adv-x="823" d="M574 258l-334 -18q-99 -147 -104 -159q-1 -3 -1 -6q-1 -6 0 -19.5t1 -17.5q0 -17 -15.5 -30t-50.5 -13q-64 0 -64 50q0 24 70 130l236 344q41 57 50 83q-2 29 18.5 47.5t52.5 18.5q21 0 38 -11.5t17 -26.5q0 -7 -3 -17t-3 -15q0 -10 32.5 -62l75 -115.5l49.5 -74.5 q163 -249 163 -293q0 -58 -65 -58q-30 0 -46.5 11t-16.5 30q0 7 2.5 17.5t2.5 15.5q0 19 -105 189zM294 323l234 14l-107 185zM493 709q-51 0 -88 40q-24 26 -44 26q-34 0 -48 -36q-14 -26 -37 -26q-22 0 -32.5 11.5t-10.5 27.5q0 4 3 8t7.5 9t6.5 8q22 36 48 51.5t69 15.5 q33 0 70 -35q33 -33 61 -33q20 0 30 12.5t8 27.5t10 23.5t27 8.5q19 0 30.5 -10t11.5 -20q0 -7 -4 -19q-15 -45 -41 -67.5t-77 -22.5z" />
<glyph unicode="&#xc4;" horiz-adv-x="823" d="M574 258l-334 -18q-99 -147 -104 -159q-1 -3 -1 -6q-1 -6 0 -19.5t1 -17.5q0 -17 -15.5 -30t-50.5 -13q-64 0 -64 50q0 24 70 130l236 344q41 57 50 83q-2 29 18.5 47.5t52.5 18.5q21 0 38 -11.5t17 -26.5q0 -7 -3 -17t-3 -15q0 -10 32.5 -62l75 -115.5l49.5 -74.5 q163 -249 163 -293q0 -58 -65 -58q-30 0 -46.5 11t-16.5 30q0 7 2.5 17.5t2.5 15.5q0 19 -105 189zM294 323l234 14l-107 185zM324 704q-20 0 -31.5 18.5t-11.5 42.5q0 26 14.5 43.5t42.5 17.5q23 0 37.5 -11.5t14.5 -32.5q0 -40 -15 -59t-51 -19zM519 706q-24 0 -36.5 15.5 t-12.5 40.5q0 27 14 45t39 18q23 0 39 -15t16 -41t-14 -44.5t-45 -18.5z" />
<glyph unicode="&#xc5;" horiz-adv-x="823" d="M574 258l-334 -18q-99 -147 -104 -159q-1 -3 -1 -6q-1 -6 0 -19.5t1 -17.5q0 -17 -15.5 -30t-50.5 -13q-64 0 -64 50q0 24 70 130l236 344q41 57 50 83q-2 29 18.5 47.5t52.5 18.5q21 0 38 -11.5t17 -26.5q0 -7 -3 -17t-3 -15q0 -10 32.5 -62l75 -115.5l49.5 -74.5 q163 -249 163 -293q0 -58 -65 -58q-30 0 -46.5 11t-16.5 30q0 7 2.5 17.5t2.5 15.5q0 19 -105 189zM294 323l234 14l-107 185zM416 690q-34 0 -56 28.5t-22 73.5q0 39 37.5 68t70.5 29q37 0 62 -25.5t25 -73.5q0 -45 -38.5 -72.5t-78.5 -27.5zM424 747q16 0 32.5 13t16.5 30 q0 42 -28 42q-17 0 -32 -13t-15 -33q0 -39 26 -39z" />
<glyph unicode="&#xc6;" horiz-adv-x="1064" d="M619 266v-188q66 0 192 8.5t151 17.5q19 7 39 7q14 0 23.5 -11.5t9.5 -33.5q0 -59 -66 -59l-358 -15q-3 0 -26 -4t-42 -4q-55 0 -55 48q0 40 22 48v178l-255 -16q-114 -143 -128 -168q-12 -18 -12 -30q0 -22 -19.5 -35.5t-48.5 -13.5q-24 0 -42 13t-18 35t12 38.5 t31 19.5q102 132 185 225q36 42 91 96l115.5 111l76.5 72q7 60 58 60q31 0 51.5 -9t20.5 -25q0 -13 -7 -20l291 16q6 1 20 7.5t24 6.5q21 0 34.5 -14t13.5 -39q0 -26 -14 -42.5t-30 -16.5q-21 0 -47 11l-293 -14v-176l249 17q9 1 30.5 7t28.5 6q47 0 47 -41q0 -52 -60 -54z M509 343v168q-116 -114 -173 -180z" />
<glyph unicode="&#xc7;" horiz-adv-x="740" d="M386 -12l-33 -45q33 0 56 -21.5t23 -64.5q0 -52 -41 -85t-105 -33q-35 0 -59 15q-8 -4 -17 -4t-15.5 11.5t-6.5 26.5q0 17 11 30t23 13q6 0 13 -4.5t7 -9.5q16 -9 48 -9q36 0 56 13.5t20 32.5q0 28 -35 28q-8 0 -20 -4q-5 -9 -24 -9q-10 0 -17.5 8.5t-7.5 22.5 q0 20 15 35l36 48q-126 3 -198.5 74.5t-72.5 207.5q0 90 49.5 179.5t142 150.5t202.5 61q100 0 177.5 -33.5t77.5 -81.5q0 -22 -18 -37t-46 -15q-41 0 -53 41q-4 16 -39 27.5t-84 11.5q-125 0 -212.5 -95t-87.5 -217q0 -87 55 -135.5t134 -48.5q63 0 122 27t95 64 q3 22 17.5 37t44.5 15q28 0 46 -14.5t18 -28.5q0 -26 -34 -59q-48 -43 -118.5 -78.5t-144.5 -47.5z" />
<glyph unicode="&#xc8;" horiz-adv-x="727" d="M194 272v-185l407 27q18 16 35 16q26 0 43.5 -16t17.5 -34q0 -34 -20 -45.5t-65 -10.5l-415 -27q-17 -21 -63 -21q-27 0 -45.5 14.5t-18.5 42.5q0 25 13 48v181q-17 14 -17 49q0 32 17 51v150q-22 14 -22 46q0 31 17 44q-6 8 -6 16q0 16 18 26.5t43 10.5q30 0 46 -12 t15 -28l362 23q21 16 41 16q28 0 44 -15t16 -35q0 -29 -17 -47.5t-45 -18.5q-23 0 -40 11l-361 -25v-162l296 30q21 16 41 16q26 0 43 -17.5t17 -40.5q0 -26 -17 -40t-44 -14q-18 0 -32 8zM313 844l92 -77q16 -1 25.5 -10.5t9.5 -24.5q0 -20 -12.5 -31t-33.5 -11 q-16 0 -24.5 9t-9.5 20l-99 80q-28 7 -28 38q0 42 43 42q17 0 26.5 -10.5t10.5 -24.5z" />
<glyph unicode="&#xc9;" horiz-adv-x="727" d="M194 272v-185l407 27q18 16 35 16q26 0 43.5 -16t17.5 -34q0 -34 -20 -45.5t-65 -10.5l-415 -27q-17 -21 -63 -21q-27 0 -45.5 14.5t-18.5 42.5q0 25 13 48v181q-17 14 -17 49q0 32 17 51v150q-22 14 -22 46q0 31 17 44q-6 8 -6 16q0 16 18 26.5t43 10.5q30 0 46 -12 t15 -28l362 23q21 16 41 16q28 0 44 -15t16 -35q0 -29 -17 -47.5t-45 -18.5q-23 0 -40 11l-361 -25v-162l296 30q21 16 41 16q26 0 43 -17.5t17 -40.5q0 -26 -17 -40t-44 -14q-18 0 -32 8zM498 803l-101 -77q-2 -13 -17 -24.5t-32 -11.5t-27.5 11t-11.5 29q1 14 9.5 24.5 t17.5 12.5l103 78q-3 17 9 27t31 10q23 0 34.5 -13t11.5 -30q0 -33 -27 -36z" />
<glyph unicode="&#xca;" horiz-adv-x="727" d="M194 272v-185l407 27q18 16 35 16q26 0 43.5 -16t17.5 -34q0 -34 -20 -45.5t-65 -10.5l-415 -27q-17 -21 -63 -21q-27 0 -45.5 14.5t-18.5 42.5q0 25 13 48v181q-17 14 -17 49q0 32 17 51v150q-22 14 -22 46q0 31 17 44q-6 8 -6 16q0 16 18 26.5t43 10.5q30 0 46 -12 t15 -28l362 23q21 16 41 16q28 0 44 -15t16 -35q0 -29 -17 -47.5t-45 -18.5q-23 0 -40 11l-361 -25v-162l296 30q21 16 41 16q26 0 43 -17.5t17 -40.5q0 -26 -17 -40t-44 -14q-18 0 -32 8zM427 863l87 -93q1 -1 6.5 -5t8.5 -6.5t7 -7t6 -9.5t2 -11q0 -17 -14.5 -28.5 t-38.5 -11.5q-16 0 -25.5 12.5t-7.5 26.5l-78 84l-111 -88q1 -13 -8.5 -24t-24.5 -11q-19 0 -34 12.5t-15 27.5q0 30 35 43l118 95q22 20 41 20q22 0 46 -26z" />
<glyph unicode="&#xcb;" horiz-adv-x="727" d="M194 272v-185l407 27q18 16 35 16q26 0 43.5 -16t17.5 -34q0 -34 -20 -45.5t-65 -10.5l-415 -27q-17 -21 -63 -21q-27 0 -45.5 14.5t-18.5 42.5q0 25 13 48v181q-17 14 -17 49q0 32 17 51v150q-22 14 -22 46q0 31 17 44q-6 8 -6 16q0 16 18 26.5t43 10.5q30 0 46 -12 t15 -28l362 23q21 16 41 16q28 0 44 -15t16 -35q0 -29 -17 -47.5t-45 -18.5q-23 0 -40 11l-361 -25v-162l296 30q21 16 41 16q26 0 43 -17.5t17 -40.5q0 -26 -17 -40t-44 -14q-18 0 -32 8zM262 702q-20 0 -31.5 18.5t-11.5 42.5q0 26 14.5 43.5t42.5 17.5q23 0 37.5 -11.5 t14.5 -32.5q0 -40 -15 -59t-51 -19zM457 704q-24 0 -36.5 15.5t-12.5 40.5q0 27 14 45t39 18q23 0 39 -15t16 -41t-14 -44.5t-45 -18.5z" />
<glyph unicode="&#xcc;" horiz-adv-x="276" d="M193 546v-462q15 -17 15 -36q0 -21 -21.5 -37t-51.5 -16q-31 0 -49.5 16t-18.5 42q0 19 15 36v464q-13 13 -13 31q0 28 22 44.5t60 16.5q27 0 43.5 -16t16.5 -40q0 -25 -18 -43zM86 850l92 -78q15 -1 24.5 -10.5t9.5 -24.5q0 -20 -12.5 -31t-32.5 -11q-16 0 -25 9t-9 20 l-99 80q-28 7 -28 38q0 42 43 42q16 0 25.5 -10.5t11.5 -23.5z" />
<glyph unicode="&#xcd;" horiz-adv-x="276" d="M193 546v-462q15 -17 15 -36q0 -21 -21.5 -37t-51.5 -16q-31 0 -49.5 16t-18.5 42q0 19 15 36v464q-13 13 -13 31q0 28 22 44.5t60 16.5q27 0 43.5 -16t16.5 -40q0 -25 -18 -43zM278 808l-102 -78q-1 -13 -16 -24t-32 -11t-28 11t-11 28q0 14 8.5 25t18.5 12l102 79 q-3 17 9.5 27t31.5 10q22 0 34 -13.5t12 -29.5q0 -33 -27 -36z" />
<glyph unicode="&#xce;" horiz-adv-x="276" d="M193 546v-462q15 -17 15 -36q0 -21 -21.5 -37t-51.5 -16q-31 0 -49.5 16t-18.5 42q0 19 15 36v464q-13 13 -13 31q0 28 22 44.5t60 16.5q27 0 43.5 -16t16.5 -40q0 -25 -18 -43zM204 848l87 -93q1 -1 6.5 -5t8.5 -6.5t7 -7t6 -9.5t2 -11q0 -17 -14 -29t-39 -12 q-16 0 -25.5 13t-7.5 27l-78 83l-110 -87q1 -13 -9 -24.5t-25 -11.5q-19 0 -34 13t-15 28q0 29 35 42l118 96q23 19 41 19q21 0 46 -25z" />
<glyph unicode="&#xcf;" horiz-adv-x="276" d="M193 546v-462q15 -17 15 -36q0 -21 -21.5 -37t-51.5 -16q-31 0 -49.5 16t-18.5 42q0 19 15 36v464q-13 13 -13 31q0 28 22 44.5t60 16.5q27 0 43.5 -16t16.5 -40q0 -25 -18 -43zM39 699q-20 0 -31.5 18.5t-11.5 42.5q0 26 14.5 43.5t42.5 17.5q23 0 37.5 -11.5 t14.5 -32.5q0 -40 -15 -59t-51 -19zM235 701q-24 0 -36.5 15.5t-12.5 40.5q0 27 14 45t39 18q23 0 39 -15t16 -41t-14 -44.5t-45 -18.5z" />
<glyph unicode="&#xd0;" horiz-adv-x="825" d="M81 36q0 23 13 41v186l-43 -3q-14 -7 -19 -7q-14 0 -24 9.5t-10 26.5q0 25 11 40t29 17l56 4v211q-11 17 -11 39q0 20 21 34t54 14q26 0 38.5 -16t7.5 -36q145 56 289 56q127 0 210 -66t83 -148q0 -190 -180 -313q-100 -67 -232.5 -103t-228.5 -36q-64 0 -64 50zM205 502 v-144l138 9l10 3.5t14.5 4.5t15.5 2q19 0 30 -14t11 -33q0 -22 -11 -38t-33 -16q-1 0 -40 6l-135 -10v-186q78 3 170.5 29.5t162.5 77.5q132 101 132 234q0 51 -52.5 94t-140.5 43q-131 0 -272 -62z" />
<glyph unicode="&#xd1;" horiz-adv-x="799" d="M83 75v486q-8 13 -8 31q0 22 16.5 37.5t49.5 15.5q57 0 57 -40q0 -30 49 -94q67 -85 200 -185q136 -103 165 -150h2q-2 132 -2 405q-1 2 -3.5 6.5t-4.5 10t-2 10.5q0 48 56 48q26 0 47 -11.5t21 -29.5q0 -12 -10 -35v-518q14 -14 14 -33q0 -20 -14 -27t-47 -7 q-16 0 -30 8.5t-19.5 15t-17.5 24.5q-27 36 -91.5 95.5t-126.5 106.5q-149 113 -196 194l-3 1q2 -240 2 -365q11 -22 11 -34q0 -46 -56 -46q-71 0 -71 52q0 13 12 28zM474 692q-53 0 -87 40q-26 26 -45 26q-34 0 -48 -36q-14 -26 -37 -26q-22 0 -32.5 11.5t-10.5 27.5 q0 4 3 8t7.5 9t6.5 8q22 36 48 51.5t70 15.5q33 0 70 -35q33 -33 61 -33q20 0 29.5 12.5t7.5 27.5q-1 15 10.5 23.5t27.5 8.5q19 0 30.5 -10t11.5 -20q0 -7 -4 -19q-15 -44 -41.5 -67t-77.5 -23z" />
<glyph unicode="&#xd2;" horiz-adv-x="819" d="M477 674q60 0 112 -17t94.5 -52.5t67 -97t24.5 -143.5q0 -107 -61 -195t-165 -137.5t-227 -49.5q-77 0 -135.5 25t-89.5 65t-46 83.5t-15 88.5q0 74 36.5 151.5t95.5 139t141.5 100.5t167.5 39zM469 588q-76 0 -151 -51.5t-120.5 -129t-45.5 -151.5q0 -78 47 -133 t141 -55q125 0 222 83.5t97 208.5q0 113 -50.5 170.5t-139.5 57.5zM378 868l92 -77q15 -2 25 -11.5t10 -24.5q0 -19 -12.5 -30t-33.5 -11q-16 0 -24.5 8.5t-9.5 19.5l-99 81q-28 6 -28 37q0 43 43 43q17 0 26 -10.5t11 -24.5z" />
<glyph unicode="&#xd3;" horiz-adv-x="819" d="M477 674q60 0 112 -17t94.5 -52.5t67 -97t24.5 -143.5q0 -107 -61 -195t-165 -137.5t-227 -49.5q-77 0 -135.5 25t-89.5 65t-46 83.5t-15 88.5q0 74 36.5 151.5t95.5 139t141.5 100.5t167.5 39zM469 588q-76 0 -151 -51.5t-120.5 -129t-45.5 -151.5q0 -78 47 -133 t141 -55q125 0 222 83.5t97 208.5q0 113 -50.5 170.5t-139.5 57.5zM577 825l-102 -77q-1 -13 -16 -24.5t-32 -11.5t-28 11.5t-11 28.5q0 14 8.5 25t18.5 12l103 79q-4 17 8.5 26.5t31.5 9.5q23 0 34.5 -13t11.5 -29q0 -33 -27 -37z" />
<glyph unicode="&#xd4;" horiz-adv-x="819" d="M477 674q60 0 112 -17t94.5 -52.5t67 -97t24.5 -143.5q0 -107 -61 -195t-165 -137.5t-227 -49.5q-77 0 -135.5 25t-89.5 65t-46 83.5t-15 88.5q0 74 36.5 151.5t95.5 139t141.5 100.5t167.5 39zM469 588q-76 0 -151 -51.5t-120.5 -129t-45.5 -151.5q0 -78 47 -133 t141 -55q125 0 222 83.5t97 208.5q0 113 -50.5 170.5t-139.5 57.5zM525 874l88 -93q1 -1 6.5 -5t8.5 -6.5t7 -7t6 -9.5t2 -11q0 -17 -14.5 -28.5t-39.5 -11.5q-16 0 -25.5 12.5t-7.5 26.5l-77 83l-111 -87q1 -13 -9 -24t-25 -11q-18 0 -33 12.5t-15 27.5q0 30 34 43l118 95 q24 20 41 20q25 0 46 -26z" />
<glyph unicode="&#xd5;" horiz-adv-x="819" d="M477 674q60 0 112 -17t94.5 -52.5t67 -97t24.5 -143.5q0 -107 -61 -195t-165 -137.5t-227 -49.5q-77 0 -135.5 25t-89.5 65t-46 83.5t-15 88.5q0 74 36.5 151.5t95.5 139t141.5 100.5t167.5 39zM469 588q-76 0 -151 -51.5t-120.5 -129t-45.5 -151.5q0 -78 47 -133 t141 -55q125 0 222 83.5t97 208.5q0 113 -50.5 170.5t-139.5 57.5zM522 720q-53 0 -87 40q-24 26 -45 26q-34 0 -48 -36q-14 -26 -37 -26q-22 0 -32 11.5t-10 27.5q0 4 3 8l7 9t6 8q22 36 48.5 51.5t69.5 15.5q33 0 70 -35q33 -33 61 -33q20 0 29.5 12.5t7.5 27.5t10 23.5 t28 8.5q19 0 30.5 -10t11.5 -20q0 -11 -5 -19q-15 -45 -41 -67.5t-77 -22.5z" />
<glyph unicode="&#xd6;" horiz-adv-x="819" d="M477 674q60 0 112 -17t94.5 -52.5t67 -97t24.5 -143.5q0 -107 -61 -195t-165 -137.5t-227 -49.5q-77 0 -135.5 25t-89.5 65t-46 83.5t-15 88.5q0 74 36.5 151.5t95.5 139t141.5 100.5t167.5 39zM469 588q-76 0 -151 -51.5t-120.5 -129t-45.5 -151.5q0 -78 47 -133 t141 -55q125 0 222 83.5t97 208.5q0 113 -50.5 170.5t-139.5 57.5zM360 711q-20 0 -31.5 18.5t-11.5 42.5q0 26 14.5 43.5t42.5 17.5q23 0 37.5 -11.5t14.5 -32.5q0 -40 -15 -59t-51 -19zM555 713q-24 0 -36.5 15.5t-12.5 40.5q0 27 14 45t39 18q23 0 39 -15t16 -41 t-14 -44.5t-45 -18.5z" />
<glyph unicode="&#xd7;" horiz-adv-x="554" d="M277 284l101 101q4 20 18 33.5t33 13.5q20 0 39 -18t19 -44q0 -21 -13.5 -35.5t-27.5 -16.5l-101 -103l96 -97q47 -15 47 -53q0 -22 -19.5 -40.5t-41.5 -18.5q-36 0 -54 44l-96 98l-98 -98q1 -20 -14.5 -33.5t-40.5 -13.5t-42 20t-17 45q0 22 19.5 38t32.5 17l92 92 l-99 99q-47 16 -47 50q0 23 18 42.5t43 19.5q33 0 54 -44z" />
<glyph unicode="&#xd8;" horiz-adv-x="843" d="M126 67l-68 -49q-4 -15 -18 -25.5t-30 -10.5q-21 0 -34 15t-13 37q0 20 11 35.5t26 15.5q6 0 16 -4l68 53q-22 54 -22 110q0 74 36.5 151.5t95.5 139t141 100.5t167 39q126 0 207 -69l73 52q10 28 42 28q19 0 35 -13t16 -36q0 -24 -16 -35.5t-36 -8.5l-64 -49 q42 -71 42 -179q0 -107 -61 -195t-165 -137.5t-227 -49.5q-142 0 -222 85zM185 207l439 330q-50 51 -128 51q-58 0 -116.5 -31t-102.5 -79t-71.5 -107.5t-27.5 -114.5q0 -24 7 -49zM664 474l-449 -337q54 -69 151 -69q125 0 222 83.5t97 208.5q0 64 -21 114z" />
<glyph unicode="&#xd9;" horiz-adv-x="762" d="M290 -17q-102 0 -155 50t-53 109v428q-15 28 2 49.5t53 21.5q31 0 43 -20t12 -43v-445q11 -23 39.5 -39.5t67.5 -16.5q61 0 115 15.5t85.5 37t49 41.5t17.5 31v372q-10 8 -10 25q0 23 19.5 37t50.5 14q22 0 38 -13t16 -34q0 -12 -4 -20v-399q-1 -21 -31.5 -60.5 t-75.5 -66.5q-117 -74 -279 -74zM297 846l92 -78q15 -1 24.5 -10.5t9.5 -24.5q0 -20 -12.5 -31t-32.5 -11q-16 0 -25 9t-9 20l-99 80q-28 7 -28 38q0 42 43 42q16 0 25.5 -10.5t11.5 -23.5z" />
<glyph unicode="&#xda;" horiz-adv-x="762" d="M290 -17q-102 0 -155 50t-53 109v428q-15 28 2 49.5t53 21.5q31 0 43 -20t12 -43v-445q11 -23 39.5 -39.5t67.5 -16.5q61 0 115 15.5t85.5 37t49 41.5t17.5 31v372q-10 8 -10 25q0 23 19.5 37t50.5 14q22 0 38 -13t16 -34q0 -12 -4 -20v-399q-1 -21 -31.5 -60.5 t-75.5 -66.5q-117 -74 -279 -74zM511 791l-101 -77q-1 -13 -16 -24.5t-32 -11.5t-28 11.5t-11 28.5q0 14 8.5 24.5t18.5 12.5l102 79q-3 17 9.5 26.5t31.5 9.5q22 0 33.5 -13t11.5 -29q0 -33 -27 -37z" />
<glyph unicode="&#xdb;" horiz-adv-x="762" d="M290 -17q-102 0 -155 50t-53 109v428q-15 28 2 49.5t53 21.5q31 0 43 -20t12 -43v-445q11 -23 39.5 -39.5t67.5 -16.5q61 0 115 15.5t85.5 37t49 41.5t17.5 31v372q-10 8 -10 25q0 23 19.5 37t50.5 14q22 0 38 -13t16 -34q0 -12 -4 -20v-399q-1 -21 -31.5 -60.5 t-75.5 -66.5q-117 -74 -279 -74zM439 854l87 -93q2 -2 8.5 -7t10.5 -8.5t7.5 -10t3.5 -13.5q0 -17 -14.5 -29t-39.5 -12q-16 0 -25.5 13t-7.5 27l-77 83l-111 -87q1 -14 -8.5 -25t-25.5 -11q-18 0 -33 13t-15 28q0 29 35 42l118 96q23 19 41 19q21 0 46 -25z" />
<glyph unicode="&#xdc;" horiz-adv-x="762" d="M290 -17q-102 0 -155 50t-53 109v428q-15 28 2 49.5t53 21.5q31 0 43 -20t12 -43v-445q11 -23 39.5 -39.5t67.5 -16.5q61 0 115 15.5t85.5 37t49 41.5t17.5 31v372q-10 8 -10 25q0 23 19.5 37t50.5 14q22 0 38 -13t16 -34q0 -12 -4 -20v-399q-1 -21 -31.5 -60.5 t-75.5 -66.5q-117 -74 -279 -74zM283 691q-20 0 -31.5 18.5t-11.5 42.5q0 26 14.5 43.5t42.5 17.5q23 0 37.5 -11.5t14.5 -32.5q0 -40 -15 -59t-51 -19zM478 693q-24 0 -36.5 15.5t-12.5 40.5q0 27 14 45t39 18q23 0 39 -15t16 -41t-14 -44.5t-45 -18.5z" />
<glyph unicode="&#xdd;" horiz-adv-x="784" d="M339 87v211q-40 54 -152.5 134t-150.5 120q-15 4 -24 17.5t-9 31.5q0 22 20.5 39t44.5 17q23 0 38.5 -12t14.5 -30q35 -41 138 -116t136 -115h2q34 38 124 104t125 99q16 13 29 31q21 39 65 39q24 0 38.5 -16t14.5 -36q0 -6 -1.5 -11.5t-3.5 -9.5t-6.5 -9.5l-6.5 -8 t-8.5 -8.5t-7.5 -7q-8 -8 -29 -23.5t-27 -21.5q-30 -25 -85 -64.5t-98 -75t-70 -69.5v-221q10 -18 10 -29q0 -52 -77 -53q-28 0 -41.5 11t-13.5 43q0 28 11 39zM526 784l-102 -77q-1 -13 -16 -24.5t-32 -11.5t-28 11.5t-11 28.5q0 14 8.5 24.5t18.5 12.5l102 79 q-3 17 9.5 26.5t31.5 9.5q22 0 34 -13t12 -29q0 -33 -27 -37z" />
<glyph unicode="&#xde;" horiz-adv-x="726" d="M192 580v-87q60 26 156.5 48t192.5 22q78 0 121.5 -35t43.5 -99q0 -53 -51 -100.5t-129.5 -80t-166 -53.5t-167.5 -27v-97q14 -16 14 -37q0 -39 -72 -39q-21 0 -44 11.5t-23 25.5q0 22 14 39v507q-8 19 -8 32q0 18 21.5 31.5t51.5 13.5q24 0 43 -12t19 -28q0 -23 -16 -35 zM192 399v-144q125 9 261.5 60t136.5 108q0 23 -18.5 37.5t-54.5 14.5q-71 0 -164 -23t-161 -53z" />
<glyph unicode="&#xdf;" horiz-adv-x="767" d="M124 324l-50 -9q-14 -8 -25 -8q-39 0 -39 48q0 19 11.5 34t26.5 15q10 0 22 -5l54 9v88q0 82 74.5 130.5t193.5 48.5q88 0 150.5 -33.5t62.5 -95.5q0 -39 -18 -62t-56 -48q-3 -2 -12 -7.5t-13 -8.5l-11.5 -8.5t-11.5 -9.5t-8.5 -9.5t-6.5 -10.5t-2 -10q0 -23 114 -63 q155 -57 155 -148q0 -89 -77 -133.5t-196 -44.5q-80 0 -131 29.5t-52 67.5q0 65 52 65q18 0 30 -10.5t12 -22.5q0 -10 -5 -17q36 -29 95 -29q77 0 119.5 25t42.5 66q0 40 -145 94q-64 24 -94 49t-30 64q0 52 68 95l35.5 24t23.5 22.5t12 28.5q0 58 -116 58q-70 0 -108.5 -29 t-38.5 -69v-424q10 -18 10 -30q0 -45 -67 -45q-57 0 -57 43q0 5 3 13.5t3 11.5v261z" />
<glyph unicode="&#xe0;" horiz-adv-x="644" d="M460 289v41q0 42 -53 42q-117 0 -217 -49q1 -4 -4 -10.5t-17 -12t-27 -5.5q-16 0 -29 16t-13 32q0 17 16 33t31 12q114 62 288 62q59 0 94.5 -27t35.5 -73v-288q9 -7 9 -27q0 -40 -77 -40q-48 0 -48 36q0 8 10 28v46h-3q-148 -123 -314 -123q-51 0 -87 21t-36 64 q0 37 27 73.5t79 68.5t139 54t196 26zM459 195v29q-74 -3 -138.5 -19t-104.5 -36.5t-62.5 -42.5t-22.5 -39q0 -23 49 -23q74 0 176.5 51.5t102.5 79.5zM288 649l92 -77q35 -4 35 -36q0 -19 -12.5 -30t-33.5 -11q-16 0 -24.5 8.5t-9.5 19.5l-99 81q-28 7 -28 37q0 43 43 43 q16 0 25.5 -10.5t11.5 -24.5z" />
<glyph unicode="&#xe1;" horiz-adv-x="644" d="M460 289v41q0 42 -53 42q-117 0 -217 -49q1 -4 -4 -10.5t-17 -12t-27 -5.5q-16 0 -29 16t-13 32q0 17 16 33t31 12q114 62 288 62q59 0 94.5 -27t35.5 -73v-288q9 -7 9 -27q0 -40 -77 -40q-48 0 -48 36q0 8 10 28v46h-3q-148 -123 -314 -123q-51 0 -87 21t-36 64 q0 37 27 73.5t79 68.5t139 54t196 26zM459 195v29q-74 -3 -138.5 -19t-104.5 -36.5t-62.5 -42.5t-22.5 -39q0 -23 49 -23q74 0 176.5 51.5t102.5 79.5zM472 608l-101 -78q-2 -13 -16.5 -24.5t-32.5 -11.5q-17 0 -27.5 11.5t-10.5 28.5q0 14 8 25t18 12l103 79q-3 17 9.5 27 t31.5 10q22 0 33.5 -13.5t11.5 -29.5q0 -33 -27 -36z" />
<glyph unicode="&#xe2;" horiz-adv-x="644" d="M460 289v41q0 42 -53 42q-117 0 -217 -49q1 -4 -4 -10.5t-17 -12t-27 -5.5q-16 0 -29 16t-13 32q0 17 16 33t31 12q114 62 288 62q59 0 94.5 -27t35.5 -73v-288q9 -7 9 -27q0 -40 -77 -40q-48 0 -48 36q0 8 10 28v46h-3q-148 -123 -314 -123q-51 0 -87 21t-36 64 q0 37 27 73.5t79 68.5t139 54t196 26zM459 195v29q-74 -3 -138.5 -19t-104.5 -36.5t-62.5 -42.5t-22.5 -39q0 -23 49 -23q74 0 176.5 51.5t102.5 79.5zM397 655l87 -93q1 -1 6.5 -5t8.5 -6.5t7 -7t6 -9.5t2 -11q0 -17 -14.5 -28.5t-39.5 -11.5q-16 0 -25 12.5t-7 26.5 l-78 83l-111 -87q1 -13 -9 -24t-25 -11q-18 0 -33 12.5t-15 27.5q0 29 34 43l119 95q24 20 40 20q21 0 47 -26z" />
<glyph unicode="&#xe3;" horiz-adv-x="644" d="M460 289v41q0 42 -53 42q-117 0 -217 -49q1 -4 -4 -10.5t-17 -12t-27 -5.5q-16 0 -29 16t-13 32q0 17 16 33t31 12q114 62 288 62q59 0 94.5 -27t35.5 -73v-288q9 -7 9 -27q0 -40 -77 -40q-48 0 -48 36q0 8 10 28v46h-3q-148 -123 -314 -123q-51 0 -87 21t-36 64 q0 37 27 73.5t79 68.5t139 54t196 26zM459 195v29q-74 -3 -138.5 -19t-104.5 -36.5t-62.5 -42.5t-22.5 -39q0 -23 49 -23q74 0 176.5 51.5t102.5 79.5zM406 503q-51 0 -88 40q-24 26 -45 26q-34 0 -48 -36q-12 -26 -37 -26q-22 0 -32 11.5t-10 27.5q0 4 3 8l7 9t6 8 q22 36 48.5 51.5t69.5 15.5q33 0 70 -35q33 -33 61 -33q20 0 30 12.5t8 27.5t10 23.5t27 8.5q19 0 30.5 -10t11.5 -20q0 -12 -5 -19q-14 -45 -40 -67.5t-77 -22.5z" />
<glyph unicode="&#xe4;" horiz-adv-x="644" d="M460 289v41q0 42 -53 42q-117 0 -217 -49q1 -4 -4 -10.5t-17 -12t-27 -5.5q-16 0 -29 16t-13 32q0 17 16 33t31 12q114 62 288 62q59 0 94.5 -27t35.5 -73v-288q9 -7 9 -27q0 -40 -77 -40q-48 0 -48 36q0 8 10 28v46h-3q-148 -123 -314 -123q-51 0 -87 21t-36 64 q0 37 27 73.5t79 68.5t139 54t196 26zM459 195v29q-74 -3 -138.5 -19t-104.5 -36.5t-62.5 -42.5t-22.5 -39q0 -23 49 -23q74 0 176.5 51.5t102.5 79.5zM244 500q-20 0 -31.5 18.5t-11.5 42.5q0 26 14.5 43.5t42.5 17.5q23 0 37.5 -11.5t14.5 -32.5q0 -40 -15 -59t-51 -19z M439 502q-24 0 -36.5 15.5t-12.5 40.5q0 27 14 45t39 18q23 0 39 -15t16 -41t-14 -44.5t-45 -18.5z" />
<glyph unicode="&#xe5;" horiz-adv-x="644" d="M460 289v41q0 42 -53 42q-117 0 -218 -49q2 -4 -3 -10.5t-17 -12t-27 -5.5q-16 0 -29 16t-13 32q0 17 16 33t31 12q114 62 288 62q59 0 94.5 -27t35.5 -73v-288q9 -7 9 -27q0 -40 -77 -40q-48 0 -48 36q0 8 10 28v46h-3q-150 -123 -314 -123q-51 0 -87 21t-36 64 q0 37 27 73.5t79 68.5t139 54t196 26zM459 195v29q-74 -3 -138.5 -19t-104.5 -36.5t-62.5 -42.5t-22.5 -39q0 -23 49 -23q74 0 176.5 51.5t102.5 79.5zM322 483q-34 0 -56 28.5t-22 73.5q0 39 37.5 68t70.5 29q38 0 63 -25.5t25 -73.5q0 -45 -39 -72.5t-79 -27.5zM331 540 q16 0 32.5 13t16.5 30q0 42 -28 42q-17 0 -32.5 -13t-15.5 -33q0 -39 27 -39z" />
<glyph unicode="&#xe6;" horiz-adv-x="1031" d="M20 67q0 51 42.5 92t129.5 66q82 27 184 35l98 10v49q0 22 -13 35t-36 13q-133 0 -238 -59q0 -7 -12 -15t-30 -8q-19 0 -32.5 15.5t-14.5 29.5q0 19 12.5 32.5t29.5 12.5q75 38 142.5 54.5t164.5 16.5q60 0 94.5 -24t34.5 -61v-24q50 47 115.5 76.5t117.5 29.5 q55 0 96.5 -15.5t62 -38.5t30.5 -44t10 -37q0 -21 -20 -42t-53 -24l-353 -31q-17 -34 -17 -75q0 -32 28.5 -51t86.5 -19q137 0 218 72q-4 19 10 30t40 11q29 0 42 -13t13 -29q0 -7 -11.5 -23t-38 -38.5t-63 -42.5t-94.5 -34t-124 -14q-86 0 -133.5 31t-60.5 77 q-46 -45 -135.5 -78t-174.5 -33q-148 0 -148 85zM629 281l277 26q1 20 -23.5 39t-75.5 19q-94 0 -178 -84zM473 203l-82 -8q-98 -7 -170 -32q-42 -16 -65.5 -37.5t-23.5 -40.5q0 -22 60 -22q34 0 99 19t123 53.5t59 67.5z" />
<glyph unicode="&#xe7;" horiz-adv-x="605" d="M307 -17l-29 -40q33 0 56 -21.5t23 -64.5q0 -52 -40.5 -85t-104.5 -33q-36 0 -60 15q-6 -4 -17 -4q-8 0 -14.5 11.5t-6.5 26.5q0 17 11 30t23 13q6 0 12.5 -4.5t6.5 -9.5q18 -9 48 -9q35 0 55.5 13.5t20.5 32.5q0 28 -34 28q-7 0 -21 -4q-5 -9 -24 -9q-10 0 -17.5 8.5 t-7.5 22.5q0 19 16 35l35 46q-85 3 -140 49t-55 116q0 83 41 138.5t115 107.5q27 20 78.5 36.5t95.5 16.5q77 0 127 -24t50 -62q0 -20 -16.5 -35t-46.5 -15q-12 0 -20 5t-10.5 8.5t-7.5 13.5q-4 8 -9 13t-21 9t-43 4q-68 0 -116 -35q-42 -28 -76.5 -71.5t-34.5 -92.5 q0 -41 36 -68.5t100 -27.5q33 0 88 22q55 24 77 55q10 25 19.5 35.5t32.5 10.5q32 0 45.5 -15t13.5 -30q0 -9 -12 -28.5t-40.5 -46.5t-64.5 -43q-72 -39 -137 -44z" />
<glyph unicode="&#xe8;" horiz-adv-x="617" d="M382 445q45 0 81 -10.5t56.5 -25.5t34.5 -33t18.5 -32.5t4.5 -25.5q0 -14 -6 -25t-27.5 -26t-59 -28t-106 -27t-163.5 -27l-63 -8q-7 -17 -7 -43q0 -66 102 -66q68 0 124.5 20.5t87.5 44.5q-3 17 13.5 31.5t44.5 14.5q52 0 52 -48q0 -10 -12 -27t-39 -38.5t-64.5 -39.5 t-95 -30.5t-123.5 -12.5q-198 0 -198 143q0 134 105.5 226.5t239.5 92.5zM379 366q-57 0 -112 -28.5t-91 -84.5q288 40 288 65q0 18 -21 33t-64 15zM280 638l92 -77q15 -1 25 -10.5t10 -24.5q0 -20 -12.5 -31t-33.5 -11q-16 0 -24.5 9t-9.5 19l-99 81q-28 7 -28 37 q0 43 43 43q16 0 25.5 -10.5t11.5 -24.5z" />
<glyph unicode="&#xe9;" horiz-adv-x="617" d="M382 445q45 0 81 -10.5t56.5 -25.5t34.5 -33t18.5 -32.5t4.5 -25.5q0 -14 -6 -25t-27.5 -26t-59 -28t-106 -27t-163.5 -27l-63 -8q-7 -17 -7 -43q0 -66 102 -66q68 0 124.5 20.5t87.5 44.5q-3 17 13.5 31.5t44.5 14.5q52 0 52 -48q0 -10 -12 -27t-39 -38.5t-64.5 -39.5 t-95 -30.5t-123.5 -12.5q-198 0 -198 143q0 134 105.5 226.5t239.5 92.5zM379 366q-57 0 -112 -28.5t-91 -84.5q288 40 288 65q0 18 -21 33t-64 15zM469 608l-102 -78q-1 -13 -16 -24.5t-33 -11.5q-17 0 -27.5 11.5t-10.5 28.5q0 14 8.5 25t17.5 12l103 79q-3 17 9.5 27 t31.5 10q22 0 34 -13.5t12 -29.5q0 -33 -27 -36z" />
<glyph unicode="&#xea;" horiz-adv-x="617" d="M382 445q45 0 81 -10.5t56.5 -25.5t34.5 -33t18.5 -32.5t4.5 -25.5q0 -14 -6 -25t-27.5 -26t-59 -28t-106 -27t-163.5 -27l-63 -8q-7 -17 -7 -43q0 -66 102 -66q68 0 124.5 20.5t87.5 44.5q-3 17 13.5 31.5t44.5 14.5q52 0 52 -48q0 -10 -12 -27t-39 -38.5t-64.5 -39.5 t-95 -30.5t-123.5 -12.5q-198 0 -198 143q0 134 105.5 226.5t239.5 92.5zM379 366q-57 0 -112 -28.5t-91 -84.5q288 40 288 65q0 18 -21 33t-64 15zM400 653l87 -93l9 -6q8 -6 11 -9t7 -10t4 -14q0 -17 -14.5 -29t-39.5 -12q-16 0 -25.5 13t-7.5 27l-78 83l-111 -87 q1 -14 -8.5 -25t-24.5 -11q-19 0 -34 13t-15 28q0 28 35 43l118 95q24 20 41 20q23 0 46 -26z" />
<glyph unicode="&#xeb;" horiz-adv-x="617" d="M382 445q45 0 81 -10.5t56.5 -25.5t34.5 -33t18.5 -32.5t4.5 -25.5q0 -14 -6 -25t-27.5 -26t-59 -28t-106 -27t-163.5 -27l-63 -8q-7 -17 -7 -43q0 -66 102 -66q68 0 124.5 20.5t87.5 44.5q-3 17 13.5 31.5t44.5 14.5q52 0 52 -48q0 -10 -12 -27t-39 -38.5t-64.5 -39.5 t-95 -30.5t-123.5 -12.5q-198 0 -198 143q0 134 105.5 226.5t239.5 92.5zM379 366q-57 0 -112 -28.5t-91 -84.5q288 40 288 65q0 18 -21 33t-64 15zM243 501q-20 0 -31.5 18.5t-11.5 42.5q0 26 14.5 43.5t42.5 17.5q23 0 37.5 -11.5t14.5 -32.5q0 -40 -15 -59t-51 -19z M438 504q-24 0 -36.5 15.5t-12.5 40.5q0 27 14 45t39 18q23 0 39 -15t16 -41t-14 -44.5t-45 -18.5z" />
<glyph unicode="&#xec;" horiz-adv-x="255" d="M192 390q0 -10 -6 -22l-5 -13v-276q15 -13 15 -33q0 -26 -26.5 -38.5t-59.5 -12.5q-50 0 -50 50q0 21 13 37v272q-9 9 -9 25q0 14 1.5 22t8 18t22.5 14.5t41 4.5q18 0 36.5 -15.5t18.5 -32.5zM78 644l93 -77q15 -2 24.5 -11.5t9.5 -24.5q0 -19 -12.5 -30t-32.5 -11 q-16 0 -25 8.5t-10 19.5l-98 81q-29 8 -29 37q0 43 44 43q16 0 25.5 -11t10.5 -24z" />
<glyph unicode="&#xed;" horiz-adv-x="255" d="M192 390q0 -10 -6 -22l-5 -13v-276q15 -13 15 -33q0 -26 -26.5 -38.5t-59.5 -12.5q-50 0 -50 50q0 21 13 37v272q-9 9 -9 25q0 14 1.5 22t8 18t22.5 14.5t41 4.5q18 0 36.5 -15.5t18.5 -32.5zM255 608l-102 -78q-1 -13 -16 -24t-32 -11t-27.5 11t-11.5 28q1 14 9.5 25 t17.5 12l103 79q-4 17 8.5 27t31.5 10q23 0 34.5 -13t11.5 -30q0 -33 -27 -36z" />
<glyph unicode="&#xee;" horiz-adv-x="255" d="M192 390q0 -10 -6 -22l-5 -13v-276q15 -13 15 -33q0 -26 -26.5 -38.5t-59.5 -12.5q-50 0 -50 50q0 21 13 37v272q-9 9 -9 25q0 14 1.5 22t8 18t22.5 14.5t41 4.5q18 0 36.5 -15.5t18.5 -32.5zM186 642l88 -93q1 -1 6.5 -5t8.5 -6.5t7 -7t6 -9.5t2 -11q0 -17 -14.5 -28.5 t-39.5 -11.5q-16 0 -25.5 12.5t-7.5 26.5l-77 83l-111 -87q1 -13 -9 -24t-25 -11q-18 0 -33 12.5t-15 27.5q0 29 34 43l119 95q24 20 40 20q23 0 46 -26z" />
<glyph unicode="&#xef;" horiz-adv-x="255" d="M192 390q0 -10 -6 -22l-5 -13v-276q15 -13 15 -33q0 -26 -26.5 -38.5t-59.5 -12.5q-50 0 -50 50q0 21 13 37v272q-9 9 -9 25q0 14 1.5 22t8 18t22.5 14.5t41 4.5q18 0 36.5 -15.5t18.5 -32.5zM22 500q-20 0 -31.5 18.5t-11.5 42.5q0 26 14.5 43.5t42.5 17.5 q23 0 37.5 -11.5t14.5 -32.5q0 -40 -15 -59t-51 -19zM217 502q-24 0 -36.5 15.5t-12.5 40.5q0 27 14 45t39 18q23 0 39 -15t16 -41t-14 -44.5t-45 -18.5z" />
<glyph unicode="&#xf0;" horiz-adv-x="662" d="M411 511l-80 -38q-6 -17 -40 -17q-13 0 -23.5 8.5t-10.5 21.5q0 18 12.5 29.5t30.5 8.5l44 22q-49 22 -95 22q-2 0 -11.5 -3t-16.5 -3q-16 0 -28 12t-12 28q0 25 15 41t36 16q26 0 33 -15q83 -5 163 -45l69 34q13 22 37 22q40 0 40 -31q0 -40 -39 -40l-49 -23 q71 -52 104.5 -122.5t33.5 -141.5q0 -95 -55.5 -168.5t-141 -110t-182.5 -36.5q-59 0 -102.5 16t-65 41.5t-31 51t-9.5 51.5q0 117 100 205t250 88q36 0 71 -12t50 -28q-12 34 -40.5 67.5t-56.5 48.5zM394 353q-109 0 -178.5 -59t-68.5 -142q0 -87 108 -87q102 0 180 59.5 t78 132.5q0 44 -30.5 70t-88.5 26z" />
<glyph unicode="&#xf1;" horiz-adv-x="616" d="M183 245v-185q7 -11 7 -25q0 -19 -22 -29.5t-48 -10.5q-24 0 -40.5 9.5t-16.5 27.5q0 19 12 30v139q-15 10 -15 34q0 23 15 62v83q-9 16 -9 30q0 18 23 31.5t51 13.5q53 0 53 -42q0 -16 -10 -30v-48q172 121 258 121q38 0 70.5 -26t32.5 -53v-308q7 -14 7 -29 q0 -45 -65 -45q-28 0 -44 11.5t-16 30.5q0 13 10 28v269q0 7 -13 16t-22 9q-10 0 -32.5 -7.5t-73.5 -35t-112 -71.5zM378 504q-49 0 -88 39q-24 26 -45 26q-34 0 -48 -36q-12 -26 -37 -26q-21 0 -31.5 11.5t-10.5 27.5q0 5 7.5 14t8.5 11q22 36 48.5 51.5t69.5 15.5 q32 0 70 -34q33 -33 61 -33q20 0 30 12.5t7 27.5q-1 15 10.5 23.5t27.5 8.5q19 0 30.5 -10t11.5 -20q0 -11 -5 -19q-14 -45 -40 -67.5t-77 -22.5z" />
<glyph unicode="&#xf2;" horiz-adv-x="648" d="M405 448q47 0 84 -13t59 -32.5t36.5 -46t19.5 -50t5 -47.5q0 -55 -34 -105.5t-69 -76.5q-77 -56 -136.5 -75.5t-150.5 -19.5q-42 0 -83 16.5t-71.5 54t-30.5 88.5q0 131 108.5 219t262.5 88zM387 365q-93 0 -168 -62.5t-75 -145.5q0 -42 30 -67t69 -25q92 0 168 51 q42 28 65 65t23 72q0 50 -27.5 81t-84.5 31zM282 649l92 -77q35 -4 35 -36q0 -19 -12.5 -30t-33.5 -11q-16 0 -24.5 8.5t-9.5 19.5l-99 81q-28 7 -28 37q0 43 43 43q16 0 25.5 -10.5t11.5 -24.5z" />
<glyph unicode="&#xf3;" horiz-adv-x="648" d="M405 448q47 0 84 -13t59 -32.5t36.5 -46t19.5 -50t5 -47.5q0 -55 -34 -105.5t-69 -76.5q-77 -56 -136.5 -75.5t-150.5 -19.5q-42 0 -83 16.5t-71.5 54t-30.5 88.5q0 131 108.5 219t262.5 88zM387 365q-93 0 -168 -62.5t-75 -145.5q0 -42 30 -67t69 -25q92 0 168 51 q42 28 65 65t23 72q0 50 -27.5 81t-84.5 31zM481 608l-102 -78q-1 -13 -16 -24.5t-32 -11.5t-28 11.5t-11 28.5q0 14 8.5 25t17.5 12l103 79q-3 17 9.5 27t31.5 10q22 0 34 -13.5t12 -29.5q0 -33 -27 -36z" />
<glyph unicode="&#xf4;" horiz-adv-x="648" d="M405 448q47 0 84 -13t59 -32.5t36.5 -46t19.5 -50t5 -47.5q0 -55 -34 -105.5t-69 -76.5q-77 -56 -136.5 -75.5t-150.5 -19.5q-42 0 -83 16.5t-71.5 54t-30.5 88.5q0 131 108.5 219t262.5 88zM387 365q-93 0 -168 -62.5t-75 -145.5q0 -42 30 -67t69 -25q92 0 168 51 q42 28 65 65t23 72q0 50 -27.5 81t-84.5 31zM420 654l87 -93q1 -1 6.5 -5t8.5 -6.5t7 -7t6 -9.5t2 -11q0 -17 -14.5 -28.5t-39.5 -11.5q-16 0 -25 12.5t-7 26.5l-78 83l-111 -87q1 -13 -9 -24t-25 -11q-18 0 -33 12.5t-15 27.5q0 30 34 43l119 95q24 20 41 20q20 0 46 -26z " />
<glyph unicode="&#xf5;" horiz-adv-x="648" d="M405 448q47 0 84 -13t59 -32.5t36.5 -46t19.5 -50t5 -47.5q0 -55 -34 -105.5t-69 -76.5q-77 -56 -136.5 -75.5t-150.5 -19.5q-42 0 -83 16.5t-71.5 54t-30.5 88.5q0 131 108.5 219t262.5 88zM387 365q-93 0 -168 -62.5t-75 -145.5q0 -42 30 -67t69 -25q92 0 168 51 q42 28 65 65t23 72q0 50 -27.5 81t-84.5 31zM421 502q-53 0 -87 40q-26 26 -45 26q-34 0 -48 -36q-13 -27 -37 -27q-22 0 -32 12t-10 28q0 4 3 8l7 9t6 8q22 36 48.5 51.5t69.5 15.5q33 0 70 -35q33 -33 60 -33q21 0 30.5 12.5t7.5 27.5t10 23.5t28 8.5q19 0 30.5 -10 t11.5 -20q0 -4 -5 -19q-15 -45 -41 -67.5t-77 -22.5z" />
<glyph unicode="&#xf6;" horiz-adv-x="648" d="M405 448q47 0 84 -13t59 -32.5t36.5 -46t19.5 -50t5 -47.5q0 -55 -34 -105.5t-69 -76.5q-77 -56 -136.5 -75.5t-150.5 -19.5q-42 0 -83 16.5t-71.5 54t-30.5 88.5q0 131 108.5 219t262.5 88zM387 365q-93 0 -168 -62.5t-75 -145.5q0 -42 30 -67t69 -25q92 0 168 51 q42 28 65 65t23 72q0 50 -27.5 81t-84.5 31zM251 501q-20 0 -31.5 18.5t-11.5 42.5q0 26 14.5 43.5t42.5 17.5q23 0 37.5 -11.5t14.5 -32.5q0 -40 -15 -59t-51 -19zM446 504q-24 0 -36.5 15.5t-12.5 40.5q0 27 14 45t39 18q23 0 39 -15t16 -41t-14 -44.5t-45 -18.5z" />
<glyph unicode="&#xf7;" horiz-adv-x="554" d="M279 320q-30 0 -46.5 15t-16.5 40t17.5 41.5t45.5 16.5q19 0 35 -18t16 -46q0 -19 -13 -34t-38 -15zM424 176h-300q-21 -7 -32 -7q-40 0 -40 47q0 61 44 61q16 0 28 -5h300q3 1 9.5 3.5t11.5 4t9 1.5q42 0 42 -56q0 -55 -42 -55q-18 0 -30 6zM275 15q-27 0 -43.5 14.5 t-16.5 36.5q0 26 17.5 44t52.5 18q19 0 31 -14.5t12 -33.5q0 -28 -17 -46.5t-36 -18.5z" />
<glyph unicode="&#xf8;" horiz-adv-x="664" d="M549 409l37 26q9 26 37 26q18 0 32.5 -10t14.5 -32q0 -35 -44 -37l-32 -23q25 -47 25 -100q0 -55 -34 -105.5t-69 -76.5q-77 -56 -136.5 -75.5t-150.5 -19.5q-62 0 -112 32l-42 -29q-11 -25 -43 -25q-18 0 -30 10t-11 27q0 23 14 33.5t34 8.5l29 23q-23 34 -23 79 q0 131 108 219t261 88q85 0 135 -39zM163 124l303 221q-27 20 -68 20q-93 0 -169 -62t-76 -143q0 -21 10 -36zM501 297l-298 -217q19 -15 50 -15q93 0 169 51q42 28 65.5 64.5t23.5 68.5q0 29 -10 48z" />
<glyph unicode="&#xf9;" horiz-adv-x="613" d="M180 372v-254q0 -15 16 -29t34 -14q40 0 100 30.5t104 73.5v194q0 2 -3.5 11t-3.5 14q0 22 11 31t39 9q33 0 51.5 -12t13.5 -50v-315q10 -15 10 -27q0 -17 -20.5 -28t-49.5 -11q-32 0 -45 8.5t-13 26.5q0 6 5 15.5l6 11.5v27q-118 -101 -242 -101q-44 0 -82.5 34.5 t-38.5 77.5v272q0 3 -3 12t-3 13q0 47 67 47q20 0 38 -10.5t18 -32.5q0 -15 -9 -24zM228 646l92 -77q15 -1 25 -10.5t10 -24.5q0 -20 -12.5 -30.5t-33.5 -10.5q-16 0 -24.5 8.5t-9.5 19.5l-99 80q-28 7 -28 37q0 43 43 43q16 0 25.5 -10.5t11.5 -24.5z" />
<glyph unicode="&#xfa;" horiz-adv-x="613" d="M180 372v-254q0 -15 16 -29t34 -14q40 0 100 30.5t104 73.5v194q0 2 -3.5 11t-3.5 14q0 22 11 31t39 9q33 0 51.5 -12t13.5 -50v-315q10 -15 10 -27q0 -17 -20.5 -28t-49.5 -11q-32 0 -45 8.5t-13 26.5q0 6 5 15.5l6 11.5v27q-118 -101 -242 -101q-44 0 -82.5 34.5 t-38.5 77.5v272q0 3 -3 12t-3 13q0 47 67 47q20 0 38 -10.5t18 -32.5q0 -15 -9 -24zM449 594l-101 -77q-2 -13 -16.5 -24.5t-32.5 -11.5q-17 0 -27.5 11.5t-10.5 28.5q0 14 8 24.5t18 12.5l103 78q-3 17 9.5 27t31.5 10q22 0 33.5 -13t11.5 -30q0 -33 -27 -36z" />
<glyph unicode="&#xfb;" horiz-adv-x="613" d="M180 372v-254q0 -15 16 -29t34 -14q40 0 100 30.5t104 73.5v194q0 2 -3.5 11t-3.5 14q0 22 11 31t39 9q33 0 51.5 -12t13.5 -50v-315q10 -15 10 -27q0 -17 -20.5 -28t-49.5 -11q-32 0 -45 8.5t-13 26.5q0 6 5 15.5l6 11.5v27q-118 -101 -242 -101q-44 0 -82.5 34.5 t-38.5 77.5v272q0 3 -3 12t-3 13q0 47 67 47q20 0 38 -10.5t18 -32.5q0 -15 -9 -24zM369 653l87 -93q1 -1 6.5 -5t8.5 -6.5t7 -7t6 -9.5t2 -11q0 -17 -14.5 -28.5t-38.5 -11.5q-16 0 -25.5 12.5t-7.5 26.5l-78 83l-111 -87q1 -13 -8.5 -24t-25.5 -11q-18 0 -33 12.5 t-15 27.5q0 31 35 43l118 95q24 20 41 20q20 0 46 -26z" />
<glyph unicode="&#xfc;" horiz-adv-x="613" d="M180 372v-254q0 -15 16 -29t34 -14q40 0 100 30.5t104 73.5v194q0 2 -3.5 11t-3.5 14q0 22 11 31t39 9q33 0 51.5 -12t13.5 -50v-315q10 -15 10 -27q0 -17 -20.5 -28t-49.5 -11q-32 0 -45 8.5t-13 26.5q0 6 5 15.5l6 11.5v27q-118 -101 -242 -101q-44 0 -82.5 34.5 t-38.5 77.5v272q0 3 -3 12t-3 13q0 47 67 47q20 0 38 -10.5t18 -32.5q0 -15 -9 -24zM204 500q-20 0 -31.5 18.5t-11.5 42.5q0 26 14.5 43.5t42.5 17.5q23 0 37.5 -11.5t14.5 -32.5q0 -40 -15 -59t-51 -19zM399 502q-24 0 -36.5 15.5t-12.5 40.5q0 27 14 45t39 18 q23 0 39 -15t16 -41t-14 -44.5t-45 -18.5z" />
<glyph unicode="&#xfd;" horiz-adv-x="626" d="M305 28l-258 312q-24 15 -24 44q0 23 19.5 37.5t43.5 14.5q32 0 46 -14.5t11 -41.5l215 -261l141 272q2 50 55 50q29 0 46 -12.5t17 -34.5q0 -24 -27 -42l-228 -422q-75 -135 -214 -135q-51 0 -92.5 19.5t-57.5 55.5q-4 7 -10.5 11t-10.5 10t-4 20q0 26 15 41.5t41 15.5 t42.5 -11t16.5 -29q0 -5 -2 -12.5t-2 -8.5q1 -13 19.5 -21t46.5 -8q45 0 78.5 34.5t76.5 115.5zM453 585l-101 -77q-2 -13 -16.5 -24t-32.5 -11q-17 0 -27.5 11t-10.5 28q0 14 8 24.5t18 12.5l103 78q-3 17 9.5 27t31.5 10q22 0 33.5 -13t11.5 -29q0 -33 -27 -37z" />
<glyph unicode="&#xfe;" horiz-adv-x="646" d="M73 -231v796q-1 5 -5 20.5t-4 19.5q0 25 18.5 36.5t39.5 11.5q35 0 53 -10.5t18 -25.5q0 -4 -6 -23.5t-6 -24.5v-257h2q64 68 126 98t146 30q75 0 118 -38.5t43 -100.5q0 -59 -25 -111.5t-64.5 -88t-88 -62t-96 -39t-87.5 -12.5q-44 0 -74 24v-245q10 -14 10 -29 q0 -47 -77 -47q-51 0 -51 37q0 19 10 41zM181 199v-91q22 -36 67 -36q54 0 113.5 27.5t102 78.5t42.5 108q0 30 -19 49.5t-54 19.5q-39 0 -68 -9t-75 -42q-54 -38 -109 -105z" />
<glyph unicode="&#xff;" horiz-adv-x="626" d="M305 28l-258 312q-24 15 -24 44q0 23 19.5 37.5t43.5 14.5q32 0 46 -14.5t12 -41.5l214 -261l141 272q2 50 55 50q29 0 46 -12.5t17 -34.5q0 -24 -27 -42l-228 -422q-75 -135 -214 -135q-51 0 -92.5 19.5t-57.5 55.5q-4 7 -10.5 11t-10.5 10t-4 20q0 26 15 41.5t41 15.5 t42.5 -11t16.5 -29q0 -5 -2 -12.5t-2 -8.5q1 -13 19.5 -21t46.5 -8q45 0 78.5 34.5t76.5 115.5zM212 490q-20 0 -31.5 18.5t-11.5 42.5q0 26 14.5 43.5t42.5 17.5q23 0 37.5 -11.5t14.5 -32.5q0 -40 -15 -59t-51 -19zM408 493q-24 0 -36.5 15.5t-12.5 40.5q0 27 14 45t39 18 q23 0 39 -15t16 -41t-14 -44.5t-45 -18.5z" />
<glyph unicode="&#x100;" horiz-adv-x="823" d="M574 258l-334 -18q-99 -147 -104 -159q-1 -3 -1 -6q-1 -6 0 -19.5t1 -17.5q0 -17 -15.5 -30t-50.5 -13q-64 0 -64 50q0 24 70 130l236 344q41 57 50 83q-2 29 18.5 47.5t52.5 18.5q21 0 38 -11.5t17 -26.5q0 -7 -3 -17t-3 -15q0 -10 32.5 -62l75 -115.5l49.5 -74.5 q163 -249 163 -293q0 -58 -65 -58q-30 0 -46.5 11t-16.5 30q0 7 2.5 17.5t2.5 15.5q0 19 -105 189zM294 323l234 14l-107 185zM551 754l-247 -22q-22 -5 -26 -5q-15 0 -24.5 11t-9.5 30q0 18 11 30t24 12q3 0 6.5 -1.5t7.5 -3t6 -2.5l241 21q22 8 27 8q15 0 23.5 -11 t8.5 -29q0 -22 -16 -33.5t-32 -4.5z" />
<glyph unicode="&#x101;" horiz-adv-x="644" d="M460 289v41q0 42 -53 42q-117 0 -217 -49q1 -4 -4 -10.5t-17 -12t-27 -5.5q-16 0 -29 16t-13 32q0 17 16 33t31 12q114 62 288 62q59 0 94.5 -27t35.5 -73v-288q9 -7 9 -27q0 -40 -77 -40q-48 0 -48 36q0 8 10 28v46h-3q-148 -123 -314 -123q-51 0 -87 21t-36 64 q0 37 27 73.5t79 68.5t139 54t196 26zM459 195v29q-74 -3 -138.5 -19t-104.5 -36.5t-62.5 -42.5t-22.5 -39q0 -23 49 -23q74 0 176.5 51.5t102.5 79.5zM454 547l-247 -22q-20 -5 -26 -5q-15 0 -24.5 11t-9.5 30q0 18 11 30t24 12q2 0 20 -7l242 21q22 8 27 8q14 0 22.5 -11 t8.5 -29q0 -22 -16 -33.5t-32 -4.5z" />
<glyph unicode="&#x102;" horiz-adv-x="823" d="M574 258l-334 -18q-99 -147 -104 -159q-1 -3 -1 -6q-1 -6 0 -19.5t1 -17.5q0 -17 -15.5 -30t-50.5 -13q-64 0 -64 50q0 24 70 130l236 344q41 57 50 83q-2 29 18.5 47.5t52.5 18.5q21 0 38 -11.5t17 -26.5q0 -7 -3 -17t-3 -15q0 -10 32.5 -62l75 -115.5l49.5 -74.5 q163 -249 163 -293q0 -58 -65 -58q-30 0 -46.5 11t-16.5 30q0 7 2.5 17.5t2.5 15.5q0 19 -105 189zM294 323l234 14l-107 185zM405 696q-69 0 -115 40t-46 85q0 25 9 36t30 11q33 0 33 -35q0 -22 23 -44.5t64 -22.5q89 0 114 59q-3 11 -3 21q0 12 13.5 19.5t29.5 7.5 q18 0 29 -9.5t11 -24.5q0 -21 -10 -30q-19 -49 -65.5 -81t-116.5 -32z" />
<glyph unicode="&#x103;" horiz-adv-x="644" d="M460 289v41q0 42 -53 42q-117 0 -217 -49q1 -4 -4 -10.5t-17 -12t-27 -5.5q-16 0 -29 16t-13 32q0 17 16 33t31 12q114 62 288 62q59 0 94.5 -27t35.5 -73v-288q9 -7 9 -27q0 -40 -77 -40q-48 0 -48 36q0 8 10 28v46h-3q-148 -123 -314 -123q-51 0 -87 21t-36 64 q0 37 27 73.5t79 68.5t139 54t196 26zM459 195v29q-74 -3 -138.5 -19t-104.5 -36.5t-62.5 -42.5t-22.5 -39q0 -23 49 -23q74 0 176.5 51.5t102.5 79.5zM310 495q-69 0 -115 40t-46 85q0 25 9 36t30 11q33 0 33 -35q0 -22 23 -44.5t64 -22.5q89 0 114 59q-3 10 -3 21 q0 12 13.5 19.5t29.5 7.5q18 0 29 -9.5t11 -24.5q0 -21 -10 -30q-19 -49 -65.5 -81t-116.5 -32z" />
<glyph unicode="&#x104;" horiz-adv-x="823" d="M294 323l235 14l-108 185zM662 -209q-53 0 -88.5 28.5t-35.5 78.5q0 52 43.5 96.5t94.5 60.5q3 12 3 14q0 19 -105 189l-334 -18q-99 -147 -104 -159q-1 -3 -1 -6q-1 -6 0 -19.5t1 -17.5q0 -17 -15.5 -30t-50.5 -13q-64 0 -64 50q0 28 70 130l236 344q41 57 50 83 q-2 29 18.5 47.5t52.5 18.5q21 0 38 -11.5t17 -26.5q0 -7 -3 -17t-3 -15q0 -10 32.5 -62l75 -115.5l49.5 -74.5q163 -249 163 -293q0 -58 -65 -58q-27 0 -34 -2q-37 -8 -66 -40q-24 -27 -24 -57q0 -18 16 -29.5t37 -11.5q46 0 62 19q-2 2 -2 9q0 6 8.5 11.5t21.5 5.5 q33 0 33 -39q0 -25 -36 -47.5t-91 -22.5z" />
<glyph unicode="&#x105;" horiz-adv-x="644" d="M538 -207q-57 0 -91 28.5t-34 82.5q0 55 43 107q-12 19 3 48v46h-3q-148 -123 -314 -123q-51 0 -87 21t-36 64q0 37 27 73.5t79 68.5t139 54t196 26v41q0 42 -53 42q-117 0 -217 -49q1 -4 -4 -10.5t-17 -12t-27 -5.5q-16 0 -29 16t-13 32q0 17 16 33t31 12q114 62 288 62 q59 0 94.5 -27t35.5 -73v-288q10 -8 10 -27q0 -17 -19 -28q-68 -36 -68 -103q0 -22 16 -34.5t39 -12.5t42.5 9.5t26.5 21.5q-2 2 -2 10q0 7 8.5 12t21.5 5q35 0 35 -38q0 -28 -39 -56t-98 -28zM459 195v29q-74 -3 -138.5 -19t-104.5 -36.5t-62.5 -42.5t-22.5 -39 q0 -23 49 -23q74 0 176.5 51.5t102.5 79.5z" />
<glyph unicode="&#x106;" horiz-adv-x="740" d="M437 656q100 0 176.5 -33.5t76.5 -81.5q0 -22 -17.5 -37t-45.5 -15q-41 0 -53 41q-5 16 -39.5 27.5t-83.5 11.5q-126 0 -213 -95t-87 -217q0 -87 55 -135.5t133 -48.5q63 0 122.5 27t94.5 64q8 52 62 52q29 0 46.5 -14.5t17.5 -28.5q0 -27 -33 -59q-61 -53 -151 -93 t-174 -39q-131 0 -206.5 72t-75.5 211q0 90 49 179t142 150.5t204 61.5zM518 808l-101 -78q-2 -13 -17 -24t-32 -11t-28 11t-11 28q0 14 8.5 25t18.5 12l103 79q-3 17 9 27t31 10q23 0 34.5 -13t11.5 -30q0 -33 -27 -36z" />
<glyph unicode="&#x107;" horiz-adv-x="605" d="M374 445q77 0 127 -24.5t50 -61.5q0 -20 -17.5 -35t-47.5 -15q-25 0 -37 27q-14 26 -73 26q-68 0 -116 -35q-42 -28 -76.5 -71.5t-34.5 -92.5q0 -41 36 -68.5t101 -27.5q34 0 87 22q55 23 77 55q7 18 11.5 25.5t15 14t26.5 6.5q31 0 44.5 -15t13.5 -30q0 -16 -32.5 -55 t-83.5 -63q-48 -25 -89 -36t-102 -11q-92 0 -151.5 47t-59.5 120q0 83 41 138t115 107q27 20 79 36.5t96 16.5zM433 603l-102 -77q-1 -13 -16 -24.5t-32 -11.5t-28 11t-11 29q0 13 8.5 24t17.5 13l103 78q-3 17 9.5 27t31.5 10q22 0 34 -13.5t12 -29.5q0 -33 -27 -36z" />
<glyph unicode="&#x10c;" horiz-adv-x="740" d="M437 656q100 0 176.5 -33.5t76.5 -81.5q0 -22 -17.5 -37t-45.5 -15q-41 0 -53 41q-5 16 -39.5 27.5t-83.5 11.5q-126 0 -213 -95t-87 -217q0 -87 55 -135.5t133 -48.5q63 0 122.5 27t94.5 64q8 52 62 52q29 0 46.5 -14.5t17.5 -28.5q0 -27 -33 -59q-61 -53 -151 -93 t-174 -39q-131 0 -206.5 72t-75.5 211q0 90 49 179t142 150.5t204 61.5zM531 771l-113 -64q-23 -13 -45 -13q-23 0 -43 17l-77 65q-20 10 -20 34q0 16 11 26t31 10q22 0 35 -27l72 -57l108 61q12 23 35 23q18 0 31 -11t13 -30q0 -13 -12 -22.5t-26 -11.5z" />
<glyph unicode="&#x10d;" horiz-adv-x="605" d="M374 445q77 0 127 -24.5t50 -61.5q0 -20 -17.5 -35t-47.5 -15q-25 0 -37 27q-14 26 -73 26q-68 0 -116 -35q-42 -28 -76.5 -71.5t-34.5 -92.5q0 -41 36 -68.5t101 -27.5q34 0 87 22q55 23 77 55q7 18 11.5 25.5t15 14t26.5 6.5q31 0 44.5 -15t13.5 -30q0 -16 -32.5 -55 t-83.5 -63q-48 -25 -89 -36t-102 -11q-92 0 -151.5 47t-59.5 120q0 83 41 138t115 107q27 20 79 36.5t96 16.5zM451 565l-114 -64q-23 -12 -44 -12q-24 0 -44 17l-77 65q-20 9 -20 34q0 15 11.5 25.5t30.5 10.5q22 0 36 -28l71 -56l108 60q13 24 36 24q18 0 30.5 -11.5 t12.5 -30.5q0 -12 -11.5 -22t-25.5 -12z" />
<glyph unicode="&#x10e;" horiz-adv-x="812" d="M67 36q0 23 13 41v484q-11 18 -11 40q0 19 21 33t54 14q26 0 38.5 -16t7.5 -36q145 56 290 56q127 0 210 -69t83 -156q0 -180 -180 -301q-100 -68 -232.5 -104t-229.5 -36q-64 0 -64 50zM191 502v-416q78 3 171 30t163 78q132 101 132 222q0 56 -52.5 102t-141.5 46 q-131 0 -272 -62zM549 770l-113 -64q-24 -12 -45 -12q-23 0 -44 16l-77 66q-20 9 -20 34q0 15 11 25t31 10q22 0 36 -27l71 -56l109 60q12 23 35 23q18 0 31 -11t13 -30q0 -13 -12 -22.5t-26 -11.5z" />
<glyph unicode="&#x10f;" horiz-adv-x="677" d="M495 394v180q-14 7 -14 34q0 22 19.5 35t47.5 13q27 0 42.5 -15t15.5 -35l-3 -35v-501q13 -10 13 -29q0 -46 -69 -46q-57 0 -57 45q0 19 5 25v65q-49 -62 -146.5 -104.5t-190.5 -42.5q-55 0 -95.5 28.5t-40.5 84.5q0 77 60 152t147.5 120.5t167.5 45.5q58 0 98 -20z M405 333q-54 0 -119 -35t-109.5 -85.5t-44.5 -91.5q0 -48 59 -48q96 0 204 69q34 22 52.5 36.5t33.5 39t15 53.5t-25.5 45.5t-65.5 16.5zM683 451q-30 0 -30 28q0 18 9 24.5t27 10.5q43 7 43 50q0 17 -13 23q-47 -8 -47 35q0 34 36 34q37 0 63.5 -25.5t26.5 -66.5 q0 -53 -36.5 -83t-78.5 -30z" />
<glyph unicode="&#x110;" horiz-adv-x="825" d="M81 36q0 23 13 41v186l-43 -3q-14 -7 -19 -7q-14 0 -24 9.5t-10 26.5q0 25 11 40t29 17l56 4v211q-11 17 -11 39q0 20 21 34t54 14q26 0 38.5 -16t7.5 -36q145 56 289 56q127 0 210 -66t83 -148q0 -190 -180 -313q-100 -67 -232.5 -103t-228.5 -36q-64 0 -64 50zM205 502 v-144l138 9l10 3.5t14.5 4.5t15.5 2q19 0 30 -14t11 -33q0 -22 -11 -38t-33 -16q-1 0 -40 6l-135 -10v-186q78 3 170.5 29.5t162.5 77.5q132 101 132 234q0 51 -52.5 94t-140.5 43q-131 0 -272 -62z" />
<glyph unicode="&#x111;" horiz-adv-x="677" d="M405 333q-54 0 -119 -35t-109.5 -85.5t-44.5 -91.5q0 -48 59 -48q96 0 204 69q34 22 52.5 36.5t33.5 39t15 53.5t-25.5 45.5t-65.5 16.5zM641 479l-38 -4v-405q13 -10 13 -29q0 -46 -69 -46q-57 0 -57 45q0 19 5 25v65q-49 -62 -146.5 -104.5t-190.5 -42.5 q-55 0 -95.5 28.5t-40.5 83.5q0 77 60 152.5t147.5 121t167.5 45.5q58 0 98 -20v72l-142 -14q-20 -5 -25 -5q-14 0 -23 10.5t-9 29.5q0 18 10.5 29t22.5 11q3 0 6.5 -1.5t7.5 -3t6 -2.5l146 13v41q-14 7 -14 34q0 22 19.5 35t47.5 13q27 0 43 -15.5t15 -34.5l-3 -35v-29 l28 3q22 8 26 8q14 0 22 -10.5t8 -27.5q0 -21 -15.5 -32.5t-30.5 -3.5z" />
<glyph unicode="&#x112;" horiz-adv-x="727" d="M194 272v-185l407 27q18 16 35 16q26 0 43.5 -16t17.5 -34q0 -34 -20 -45.5t-65 -10.5l-415 -27q-17 -21 -63 -21q-27 0 -45.5 14.5t-18.5 42.5q0 25 13 48v181q-17 14 -17 49q0 32 17 51v150q-22 14 -22 46q0 31 17 44q-6 8 -6 16q0 16 18 26.5t43 10.5q30 0 46 -12 t15 -28l362 23q21 16 41 16q28 0 44 -15t16 -35q0 -29 -17 -47.5t-45 -18.5q-23 0 -40 11l-361 -25v-162l296 30q21 16 41 16q26 0 43 -17.5t17 -40.5q0 -26 -17 -40t-44 -14q-18 0 -32 8zM497 748l-247 -22q-22 -5 -26 -5q-15 0 -24.5 11t-9.5 30q0 18 11 30t23 12l21 -7 l241 21q22 8 27 8q15 0 23.5 -11t8.5 -29q0 -22 -16 -33.5t-32 -4.5z" />
<glyph unicode="&#x113;" horiz-adv-x="617" d="M382 445q45 0 81 -10.5t56.5 -25.5t34.5 -33t18.5 -32.5t4.5 -25.5q0 -14 -6 -25t-27.5 -26t-59 -28t-106 -27t-163.5 -27l-63 -8q-7 -17 -7 -43q0 -66 102 -66q68 0 124.5 20.5t87.5 44.5q-3 17 13.5 31.5t44.5 14.5q52 0 52 -48q0 -10 -12 -27t-39 -38.5t-64.5 -39.5 t-95 -30.5t-123.5 -12.5q-198 0 -198 143q0 134 105.5 226.5t239.5 92.5zM379 366q-57 0 -112 -28.5t-91 -84.5q288 40 288 65q0 18 -21 33t-64 15zM450 542l-247 -22q-23 -5 -26 -5q-15 0 -24.5 11t-9.5 30q0 18 11 30t23 12l21 -7l242 21q20 8 26 8q15 0 23.5 -11t8.5 -29 q0 -22 -16 -33.5t-32 -4.5z" />
<glyph unicode="&#x116;" horiz-adv-x="727" d="M194 272v-185l407 27q18 16 35 16q26 0 43.5 -16t17.5 -34q0 -34 -20 -45.5t-65 -10.5l-415 -27q-17 -21 -63 -21q-27 0 -45.5 14.5t-18.5 42.5q0 25 13 48v181q-17 14 -17 49q0 32 17 51v150q-22 14 -22 46q0 31 17 44q-6 8 -6 16q0 16 18 26.5t43 10.5q30 0 46 -12 t15 -28l362 23q21 16 41 16q28 0 44 -15t16 -35q0 -29 -17 -47.5t-45 -18.5q-23 0 -40 11l-361 -25v-162l296 30q21 16 41 16q26 0 43 -17.5t17 -40.5q0 -26 -17 -40t-44 -14q-18 0 -32 8zM362 686q-24 0 -37 13.5t-13 35.5q0 43 17 69.5t46 26.5q54 0 54 -48 q0 -46 -19 -71.5t-48 -25.5z" />
<glyph unicode="&#x117;" horiz-adv-x="617" d="M382 445q45 0 81 -10.5t56.5 -25.5t34.5 -33t18.5 -32.5t4.5 -25.5q0 -14 -6 -25t-27.5 -26t-59 -28t-106 -27t-163.5 -27l-63 -8q-7 -17 -7 -43q0 -66 102 -66q68 0 124.5 20.5t87.5 44.5q-3 17 13.5 31.5t44.5 14.5q52 0 52 -48q0 -10 -12 -27t-39 -38.5t-64.5 -39.5 t-95 -30.5t-123.5 -12.5q-198 0 -198 143q0 134 105.5 226.5t239.5 92.5zM379 366q-57 0 -112 -28.5t-91 -84.5q288 40 288 65q0 18 -21 33t-64 15zM310 487q-24 0 -37 13.5t-13 35.5q0 43 17 69.5t46 26.5q54 0 54 -48q0 -46 -19 -71.5t-48 -25.5z" />
<glyph unicode="&#x118;" horiz-adv-x="727" d="M562 -182q-54 0 -89.5 28.5t-35.5 78.5q0 56 47 90l-287 -18q-17 -21 -63 -21q-27 0 -45.5 14.5t-18.5 42.5q0 25 13 48v181q-17 14 -17 49q0 32 17 51v150q-22 14 -22 46q0 31 17 44q-6 8 -6 16q0 16 18 26.5t43 10.5q30 0 46 -12t15 -28l362 23q21 16 42 16 q28 0 44 -15t16 -35q0 -29 -17 -47.5t-45 -18.5q-22 0 -41 11l-361 -25v-162l297 30q20 16 40 16q26 0 43 -17.5t17 -40.5q0 -26 -16.5 -40t-44.5 -14q-18 0 -32 8l-304 -32v-186l407 27q17 17 35 17q26 0 43.5 -16.5t17.5 -34.5q0 -33 -18.5 -44t-61.5 -11q-45 -6 -81 -44 q-24 -27 -24 -57q0 -18 16 -29.5t37 -11.5q46 0 62 19q-2 2 -2 9q0 6 8.5 11t21.5 5q33 0 33 -38q0 -25 -36 -47.5t-90 -22.5z" />
<glyph unicode="&#x119;" horiz-adv-x="617" d="M380 366q-57 0 -112 -28.5t-91 -84.5q288 40 288 65q0 18 -21 33t-64 15zM377 -191q-54 0 -89.5 28.5t-35.5 78.5q0 41 26 70q-22 -3 -49 -3q-89 2 -140.5 36.5t-51.5 106.5q0 134 105.5 226.5t238.5 92.5h1q45 0 81 -10.5t56.5 -25.5t34.5 -33t18.5 -32.5t4.5 -25.5 q0 -14 -6 -25t-27.5 -26t-59.5 -28t-106.5 -27t-162.5 -27l-63 -8q-7 -17 -7 -43q0 -33 27.5 -50t74.5 -17q69 0 125.5 20.5t86.5 45.5q-3 17 13.5 31.5t44.5 14.5q52 0 52 -48q0 -21 -43 -60t-114 -62q-36 -11 -61 -38q-24 -27 -24 -57q0 -18 16 -29.5t37 -11.5q46 0 62 19 q-2 2 -2 9q0 6 8.5 11.5t21.5 5.5q33 0 33 -39q0 -25 -36 -47.5t-90 -22.5z" />
<glyph unicode="&#x11a;" horiz-adv-x="727" d="M194 272v-185l407 27q18 16 35 16q26 0 43.5 -16t17.5 -34q0 -34 -20 -45.5t-65 -10.5l-415 -27q-17 -21 -63 -21q-27 0 -45.5 14.5t-18.5 42.5q0 25 13 48v181q-17 14 -17 49q0 32 17 51v150q-22 14 -22 46q0 31 17 44q-6 8 -6 16q0 16 18 26.5t43 10.5q30 0 46 -12 t15 -28l362 23q21 16 41 16q28 0 44 -15t16 -35q0 -29 -17 -47.5t-45 -18.5q-23 0 -40 11l-361 -25v-162l296 30q21 16 41 16q26 0 43 -17.5t17 -40.5q0 -26 -17 -40t-44 -14q-18 0 -32 8zM508 767l-114 -64q-22 -12 -44 -12q-23 0 -44 16l-77 66q-20 9 -20 33q0 16 11 26 t31 10q23 0 36 -27l71 -56l108 60q12 23 36 23q17 0 30 -11t13 -30q0 -13 -11.5 -22.5t-25.5 -11.5z" />
<glyph unicode="&#x11b;" horiz-adv-x="617" d="M382 445q45 0 81 -10.5t56.5 -25.5t34.5 -33t18.5 -32.5t4.5 -25.5q0 -14 -6 -25t-27.5 -26t-59 -28t-106 -27t-163.5 -27l-63 -8q-7 -17 -7 -43q0 -66 102 -66q68 0 124.5 20.5t87.5 44.5q-3 17 13.5 31.5t44.5 14.5q52 0 52 -48q0 -10 -12 -27t-39 -38.5t-64.5 -39.5 t-95 -30.5t-123.5 -12.5q-198 0 -198 143q0 134 105.5 226.5t239.5 92.5zM379 366q-57 0 -112 -28.5t-91 -84.5q288 40 288 65q0 18 -21 33t-64 15zM466 559l-113 -64q-24 -12 -45 -12q-24 0 -44 17l-77 65q-20 9 -20 34q0 15 11.5 25.5t30.5 10.5q23 0 36 -27l71 -57 l108 60q13 24 36 24q18 0 30.5 -11.5t12.5 -30.5q0 -12 -11.5 -22t-25.5 -12z" />
<glyph unicode="&#x11e;" horiz-adv-x="896" d="M574 665q85 0 156 -28q28 -12 54.5 -37t26.5 -41q0 -23 -15.5 -35.5t-39.5 -12.5q-33 0 -52 35q-22 33 -135 33q-104 0 -223 -66q-191 -108 -191 -267q0 -84 56.5 -131t140.5 -47q54 0 121 17t111 44q71 42 112 90t41 77q-32 -8 -120.5 -24t-116.5 -16q-16 0 -29 12.5 t-13 29.5q0 48 51 48q62 0 178.5 23t125.5 23q46 0 46 -47q0 -33 -17 -76.5t-57 -94.5t-97.5 -93t-149 -70.5t-199.5 -28.5q-145 0 -222 73t-77 190q0 107 70.5 195t181.5 145q146 80 282 80zM452 702q-69 0 -115 40t-46 85q0 25 9 36t30 11q33 0 33 -35q0 -22 23 -44.5 t64 -22.5q89 0 114 59q-3 11 -3 21q0 12 13.5 19.5t29.5 7.5q18 0 29 -9.5t11 -24.5q0 -21 -10 -30q-19 -49 -65.5 -81t-116.5 -32z" />
<glyph unicode="&#x11f;" horiz-adv-x="635" d="M563 385v-407q0 -63 -45.5 -108.5t-106 -65t-123.5 -19.5q-87 0 -142.5 23.5t-55.5 60.5q0 21 15 37.5t36 16.5q15 0 28 -8.5t15 -23.5q40 -27 111 -27q24 0 49 6t51.5 19t43.5 39t17 61q0 29 0.5 86.5t0.5 85.5q-35 -79 -122.5 -129t-171.5 -50q-137 0 -137 107 q0 62 34 124t93 111.5t148 80.5t190 31q72 0 72 -51zM178 67q51 0 122 43.5t113 120.5q37 60 42 124v1q-124 0 -222.5 -78.5t-98.5 -169.5q0 -41 44 -41zM311 482q-69 0 -115 40t-46 85q0 25 9 36t30 11q33 0 33 -35q0 -22 23 -44.5t64 -22.5q89 0 114 59q-3 11 -3 21 q0 12 13.5 19.5t29.5 7.5q18 0 29 -9.5t11 -24.5q0 -21 -10 -30q-19 -49 -65.5 -81t-116.5 -32z" />
<glyph unicode="&#x122;" horiz-adv-x="896" d="M575 665q84 0 155 -28q28 -12 54.5 -37t26.5 -41q0 -23 -15.5 -35.5t-39.5 -12.5q-33 0 -52 35q-22 33 -134 33q-104 0 -223 -66q-192 -107 -192 -267q0 -84 56.5 -131t141.5 -47q54 0 121 17t111 44q70 42 111 90t41 77q-32 -8 -120 -24t-116 -16q-16 0 -29.5 12.5 t-13.5 29.5q0 48 51 48q62 0 178.5 23t125.5 23q46 0 46 -47q0 -33 -17 -76.5t-57 -94.5t-97.5 -93t-149 -70.5t-199.5 -28.5q-145 0 -222 73t-77 190q0 107 70.5 195t181.5 145q148 80 283 80zM403 -246q-30 0 -30 28q0 18 9 24.5t27 10.5q43 7 43 50q0 17 -13 23 q-47 -9 -47 35q0 34 36 34q37 0 63.5 -25.5t26.5 -66.5q0 -53 -36.5 -83t-78.5 -30z" />
<glyph unicode="&#x123;" horiz-adv-x="635" d="M563 385v-407q0 -63 -45.5 -108.5t-106 -65t-123.5 -19.5q-87 0 -142.5 23.5t-55.5 60.5q0 21 15 37.5t36 16.5q15 0 28 -8.5t15 -23.5q40 -27 111 -27q24 0 49 6t51.5 19t43.5 39t17 61q0 29 0.5 86.5t0.5 85.5q-35 -79 -122.5 -129t-171.5 -50q-137 0 -137 107 q0 62 34 124t93 111.5t148 80.5t190 31q72 0 72 -51zM178 67q51 0 122 43.5t113 120.5q37 60 42 124v1q-124 0 -222.5 -78.5t-98.5 -169.5q0 -41 44 -41zM387 679q30 0 30 -28q0 -29 -36 -35q-43 -7 -43 -50q0 -17 13 -23q47 8 47 -36q0 -34 -36 -34q-37 0 -63.5 26 t-26.5 67q0 52 36.5 82.5t78.5 30.5z" />
<glyph unicode="&#x12a;" horiz-adv-x="276" d="M193 546v-462q15 -17 15 -36q0 -21 -21.5 -37t-51.5 -16q-31 0 -49.5 16t-18.5 42q0 19 15 36v464q-13 13 -13 31q0 28 22 44.5t60 16.5q27 0 43.5 -16t16.5 -40q0 -25 -18 -43zM271 746l-247 -22q-20 -5 -26 -5q-15 0 -24.5 11t-9.5 30q0 18 11 30t24 12q3 0 20 -7 l242 21q20 8 26 8q15 0 23.5 -11t8.5 -29q0 -22 -16 -33.5t-32 -4.5z" />
<glyph unicode="&#x12b;" horiz-adv-x="255" d="M192 390q0 -10 -6 -22l-5 -13v-276q15 -13 15 -33q0 -26 -26.5 -38.5t-59.5 -12.5q-50 0 -50 50q0 21 13 37v272q-9 9 -9 25q0 14 1.5 22t8 18t22.5 14.5t41 4.5q18 0 36.5 -15.5t18.5 -32.5zM256 545l-246 -22q-22 -5 -26 -5q-15 0 -24.5 11t-9.5 30q0 18 11 30t23 12 l21 -7l241 21q22 8 27 8q15 0 23.5 -11t8.5 -29q0 -22 -16.5 -33.5t-32.5 -4.5z" />
<glyph unicode="&#x12e;" horiz-adv-x="276" d="M170 -203q-57 0 -91 28.5t-34 82.5q0 53 40 104q-17 15 -17.5 38t14.5 39v464q-13 13 -13 31q0 28 22 44.5t60 16.5q26 0 43 -16t17 -39q0 -26 -18 -44v-462q15 -17 15 -36q0 -25 -26 -41q-62 -36 -62 -99q0 -22 15.5 -34.5t39.5 -12.5q23 0 42.5 9.5t26.5 21.5 q-2 2 -2 10q0 7 8.5 12t21.5 5q35 0 35 -38q0 -28 -39 -56t-98 -28z" />
<glyph unicode="&#x12f;" horiz-adv-x="255" d="M138 634q53 0 53 -48q0 -46 -19 -71.5t-47 -25.5q-25 0 -38 13.5t-13 35.5q0 43 17 69.5t47 26.5zM161 -201q-57 0 -91 28.5t-34 82.5q0 49 37 99q-12 15 -11.5 37.5t12.5 35.5v271q-9 11 -9 26q0 14 1.5 22t8 18t22.5 14.5t41 4.5q18 0 36.5 -15.5t18.5 -31.5v-1 q0 -10 -5 -22l-6 -13v-276q15 -15 15 -33q0 -22 -23 -36q-63 -35 -63 -100q0 -22 15.5 -34.5t39.5 -12.5q23 0 42.5 9.5t26.5 21.5q-2 2 -2 10q0 7 8.5 12t21.5 5q35 0 35 -38q0 -28 -39 -56t-98 -28z" />
<glyph unicode="&#x130;" horiz-adv-x="276" d="M193 546v-462q15 -17 15 -36q0 -21 -21.5 -37t-51.5 -16q-31 0 -49.5 16t-18.5 42q0 19 15 36v464q-13 13 -13 31q0 28 22 44.5t60 16.5q27 0 43.5 -16t16.5 -40q0 -25 -18 -43zM137 688q-24 0 -37 13.5t-13 35.5q0 43 17 69.5t46 26.5q54 0 54 -48q0 -46 -19 -71.5 t-48 -25.5z" />
<glyph unicode="&#x131;" horiz-adv-x="255" d="M192 390q0 -10 -6 -22l-5 -13v-276q15 -13 15 -33q0 -26 -26.5 -38.5t-59.5 -12.5q-50 0 -50 50q0 21 13 37v272q-9 9 -9 25q0 14 1.5 22t8 18t22.5 14.5t41 4.5q18 0 36.5 -15.5t18.5 -32.5z" />
<glyph unicode="&#x136;" horiz-adv-x="722" d="M194 324v-245q11 -11 11 -30q1 -29 -17.5 -42t-47.5 -13t-49.5 14.5t-19.5 39.5q0 21 12 34v480q-9 7 -9 28q0 24 17.5 39.5t41.5 15.5t47 -12t23 -38q0 -17 -9 -28v-131h2q17 15 63 41l249 134q10 17 20 24t30 7q15 0 35.5 -12t20.5 -35q-1 -21 -17.5 -39.5t-40.5 -18.5 l-285 -153l390 -296q18 1 32 -11.5t14 -27.5q0 -20 -20.5 -39t-55.5 -19q-18 0 -31 7.5t-12 19.5l-331 249q-44 35 -61 57h-2zM315 -223q-29 0 -29 28q0 18 8.5 24.5t26.5 10.5q43 7 43 50q0 18 -13 22q-47 -8 -47 36q0 34 36 34q37 0 63.5 -25.5t26.5 -66.5 q0 -53 -36.5 -83t-78.5 -30z" />
<glyph unicode="&#x137;" horiz-adv-x="552" d="M181 580v-295h2l52.5 41.5t31.5 24.5l141 97q6 26 39 26q25 0 41 -15.5t16 -38.5q0 -21 -13.5 -32.5t-28.5 -11.5l-192 -136l213 -156q17 2 29.5 -9t12.5 -29q0 -24 -18.5 -40.5t-48.5 -16.5q-28 0 -40 26l-146 110l-89 69h-2v-112q0 -1 5.5 -14t5.5 -20q0 -53 -66 -53 q-25 0 -44 12.5t-19 41.5q0 21 10 31v495q-13 18 -13 31q0 51 67 51q32 0 47.5 -11t15.5 -38q0 -16 -9 -28zM231 -244q-29 0 -29 28q0 18 8.5 24.5t26.5 10.5q43 7 43 50q0 18 -13 22q-47 -8 -47 36q0 34 36 34q37 0 63.5 -25.5t26.5 -66.5q0 -53 -36.5 -83t-78.5 -30z" />
<glyph unicode="&#x139;" horiz-adv-x="588" d="M194 558v-472l290 32q3 1 11 4.5t15 6t11 2.5q18 0 34 -12t16 -34q0 -30 -14 -46.5t-31 -16.5q-14 0 -31 5l-312 -34q-4 -1 -13.5 -3t-18 -3.5t-15.5 -1.5q-67 0 -67 53q0 21 14 35v484q-8 10 -8 29q0 30 21 44.5t48 14.5q25 0 42.5 -13.5t17.5 -42.5q0 -11 -10 -31z M411 806l-101 -77q-2 -13 -17 -24.5t-32 -11.5t-28 11.5t-11 28.5q0 14 8.5 25t18.5 12l103 79q-3 17 9 27t31 10q23 0 34.5 -13t11.5 -30q0 -33 -27 -37z" />
<glyph unicode="&#x13a;" horiz-adv-x="255" d="M73 75v485q-11 22 -11 36q0 34 15 47t58 13q23 0 42 -14t19 -37q0 -20 -15 -44v-487q19 -16 19 -34q0 -15 -19.5 -30t-47.5 -15q-31 0 -51 14t-20 40q0 12 11 26zM259 798l-102 -78q-1 -13 -16 -24t-32 -11t-28 11t-11 28q0 14 8.5 25t17.5 12l103 79q-3 17 9.5 27 t31.5 10q22 0 34 -13.5t12 -29.5q0 -33 -27 -36z" />
<glyph unicode="&#x13b;" horiz-adv-x="588" d="M194 558v-472l291 32q35 13 37 13q17 0 33 -12t16 -34q0 -30 -13.5 -46.5t-30.5 -16.5q-15 0 -32 5l-312 -34q-4 -1 -13.5 -3t-18 -3.5t-15.5 -1.5q-67 0 -67 53q0 21 14 35v484q-8 10 -8 29q0 30 21 44.5t48 14.5q25 0 42.5 -13.5t17.5 -42.5q0 -11 -10 -31zM250 -246 q-30 0 -30 28q0 18 9 24.5t27 10.5q43 7 43 50q0 17 -13 23q-47 -8 -47 36q0 33 36 33q37 0 63.5 -25.5t26.5 -66.5q0 -53 -36.5 -83t-78.5 -30z" />
<glyph unicode="&#x13c;" horiz-adv-x="255" d="M73 75v485q-11 22 -11 36q0 34 15 47t58 13q23 0 42 -14t19 -37q0 -20 -15 -44v-487q19 -16 19 -34q0 -15 -19.5 -30t-47.5 -15q-31 0 -51 14t-20 40q0 12 11 26zM85 -242q-16 0 -23 7.5t-6 20.5q0 18 8.5 24.5t26.5 10.5q43 7 43 50q0 18 -13 22q-47 -8 -47 36 q0 34 36 34q37 0 63.5 -25.5t26.5 -66.5q0 -53 -36.5 -83t-78.5 -30z" />
<glyph unicode="&#x13d;" horiz-adv-x="588" d="M194 558v-472l290 32q3 1 11 4.5t15 6t11 2.5q18 0 34 -12t16 -34q0 -30 -14 -46.5t-31 -16.5q-14 0 -31 5l-312 -34q-4 -1 -13.5 -3t-18 -3.5t-15.5 -1.5q-67 0 -67 53q0 21 14 35v484q-8 10 -8 29q0 30 21 44.5t48 14.5q25 0 42.5 -13.5t17.5 -42.5q0 -11 -10 -31z M306 450q-30 0 -30 28q0 18 9 24.5t27 10.5q43 7 43 50q0 18 -13 22q-47 -8 -47 36q0 34 36 34q37 0 63.5 -25.5t26.5 -66.5q0 -53 -36.5 -83t-78.5 -30z" />
<glyph unicode="&#x13e;" horiz-adv-x="255" d="M73 75v485q-11 22 -11 36q0 34 15 47t58 13q24 0 43 -14t19 -37q0 -18 -16 -44v-487q19 -16 19 -34q0 -14 -19.5 -29.5t-47.5 -15.5q-31 0 -51 14t-20 40q0 12 11 26zM264 451q-30 0 -30 28q0 18 9 24.5t27 10.5q43 7 43 50q0 17 -13 23q-47 -8 -47 35q0 34 36 34 q37 0 63.5 -25.5t26.5 -66.5q0 -53 -36.5 -83t-78.5 -30z" />
<glyph unicode="&#x141;" horiz-adv-x="629" d="M367 382l-125 -76v-220l290 32q3 1 11 4.5t15 6t11 2.5q18 0 34 -12t16 -34q0 -30 -14 -46.5t-31 -16.5q-14 0 -31 5l-312 -34q-4 -1 -13.5 -3t-18 -3.5t-15.5 -1.5q-67 0 -67 53q0 21 14 35v181l-43 -28q-1 -8 -13.5 -14t-26.5 -6q-20 0 -30.5 12t-10.5 31q0 22 10 37 t23 15q16 0 23 -2l68 41v218q-8 8 -8 29q0 30 21 44t48 14q25 0 42.5 -13.5t17.5 -41.5q0 -10 -10 -32v-165l97 58q10 21 39 21q19 0 34.5 -13.5t15.5 -35.5q0 -19 -18 -34.5t-43 -6.5z" />
<glyph unicode="&#x142;" horiz-adv-x="303" d="M97 75v182l-28 -27q-2 -11 -14.5 -17t-25.5 -6q-17 0 -29.5 11.5t-12.5 29.5q0 24 15 37.5t41 9.5l54 50v215q-11 24 -11 36q0 34 15 47t58 13q23 0 42 -14t19 -37q0 -20 -15 -44v-140l38 37q5 23 36 23q47 0 47 -46q0 -25 -18.5 -36t-34.5 -3l-68 -64v-258 q19 -16 19 -34q0 -15 -19.5 -30t-47.5 -15q-31 0 -51 14t-20 40q0 12 11 26z" />
<glyph unicode="&#x143;" horiz-adv-x="799" d="M83 75v486q-8 13 -8 31q0 22 16.5 37.5t49.5 15.5q57 0 57 -40q0 -30 49 -94q67 -85 200 -185q136 -103 165 -150h2q-2 132 -2 405q-1 2 -3.5 6.5t-4.5 10t-2 10.5q0 48 56 48q26 0 47 -11.5t21 -29.5q0 -12 -10 -35v-518q14 -14 14 -33q0 -20 -14 -27t-47 -7 q-16 0 -30 8.5t-19.5 15t-17.5 24.5q-27 36 -91.5 95.5t-126.5 106.5q-149 113 -196 194l-3 1q2 -240 2 -365q11 -22 11 -34q0 -46 -56 -46q-71 0 -71 52q0 13 12 28zM533 801l-102 -77q-1 -13 -16 -24.5t-32 -11.5t-28 11.5t-11 28.5q0 14 8.5 25t18.5 12l103 79 q-3 17 9 26.5t31 9.5q23 0 34.5 -13t11.5 -29q0 -33 -27 -37z" />
<glyph unicode="&#x144;" horiz-adv-x="616" d="M183 245v-185q7 -11 7 -25q0 -19 -22 -29.5t-48 -10.5q-24 0 -40.5 9.5t-16.5 27.5q0 19 12 30v139q-15 10 -15 34q0 23 15 62v83q-9 16 -9 30q0 18 23 31.5t51 13.5q53 0 53 -42q0 -16 -10 -30v-48q172 121 258 121q38 0 70.5 -26t32.5 -53v-308q7 -14 7 -29 q0 -45 -65 -45q-28 0 -44 11.5t-16 30.5q0 13 10 28v269q0 7 -13 16t-22 9q-10 0 -32.5 -7.5t-73.5 -35t-112 -71.5zM439 603l-101 -78q-2 -13 -16.5 -24t-32.5 -11q-17 0 -27.5 11t-10.5 28q0 14 8 25t18 12l103 79q-3 17 9 27t31 10q23 0 34.5 -13t11.5 -30q0 -33 -27 -36 z" />
<glyph unicode="&#x145;" horiz-adv-x="799" d="M83 75v486q-8 13 -8 31q0 22 16.5 37.5t49.5 15.5q57 0 57 -40q0 -30 49 -94q67 -85 200 -185q136 -103 165 -150h2q-2 132 -2 405q-1 2 -3.5 6.5t-4.5 10t-2 10.5q0 48 56 48q26 0 47 -11.5t21 -29.5q0 -12 -10 -35v-518q14 -14 14 -33q0 -20 -14 -27t-47 -7 q-16 0 -30 8.5t-19.5 15t-17.5 24.5q-27 36 -91.5 95.5t-126.5 106.5q-149 113 -196 194l-3 1q2 -240 2 -365q11 -22 11 -34q0 -46 -56 -46q-71 0 -71 52q0 13 12 28zM355 -222q-30 0 -30 28q0 18 9 24.5t27 10.5q43 7 43 50q0 18 -13 22q-47 -8 -47 36q0 34 36 34 q37 0 63.5 -25.5t26.5 -66.5q0 -53 -36.5 -83t-78.5 -30z" />
<glyph unicode="&#x146;" horiz-adv-x="616" d="M183 245v-185q7 -11 7 -25q0 -19 -22 -29.5t-48 -10.5q-24 0 -40.5 9.5t-16.5 27.5q0 19 12 30v139q-15 10 -15 34q0 23 15 62v83q-9 16 -9 30q0 18 23 31.5t51 13.5q53 0 53 -42q0 -16 -10 -30v-48q172 121 258 121q38 0 70.5 -26t32.5 -53v-308q7 -14 7 -29 q0 -45 -65 -45q-28 0 -44 11.5t-16 30.5q0 13 10 28v269q0 7 -13 16t-22 9q-10 0 -32.5 -7.5t-73.5 -35t-112 -71.5zM264 -244q-30 0 -30 28q0 18 9 24.5t27 10.5q43 7 43 50q0 18 -13 22q-47 -8 -47 36q0 34 36 34q37 0 63.5 -25.5t26.5 -66.5q0 -53 -36.5 -83t-78.5 -30z " />
<glyph unicode="&#x147;" horiz-adv-x="799" d="M83 75v486q-8 13 -8 31q0 22 16.5 37.5t49.5 15.5q57 0 57 -40q0 -30 49 -94q67 -85 200 -185q136 -103 165 -150h2q-2 132 -2 405q-1 2 -3.5 6.5t-4.5 10t-2 10.5q0 48 56 48q26 0 47 -11.5t21 -29.5q0 -12 -10 -35v-518q14 -14 14 -33q0 -20 -14 -27t-47 -7 q-16 0 -30 8.5t-19.5 15t-17.5 24.5q-27 36 -91.5 95.5t-126.5 106.5q-149 113 -196 194l-3 1q2 -240 2 -365q11 -22 11 -34q0 -46 -56 -46q-71 0 -71 52q0 13 12 28zM547 752l-113 -64q-26 -13 -45 -13q-21 0 -44 17l-77 66q-20 9 -20 33q0 16 11 26t31 10q24 0 36 -27 l71 -56l108 60q12 23 36 23q18 0 31 -11t13 -30q0 -13 -12 -22.5t-26 -11.5z" />
<glyph unicode="&#x148;" horiz-adv-x="616" d="M183 245v-185q7 -11 7 -25q0 -19 -22 -29.5t-48 -10.5q-24 0 -40.5 9.5t-16.5 27.5q0 19 12 30v139q-15 10 -15 34q0 23 15 62v83q-9 16 -9 30q0 18 23 31.5t51 13.5q53 0 53 -42q0 -16 -10 -30v-48q172 121 258 121q38 0 70.5 -26t32.5 -53v-308q7 -14 7 -29 q0 -45 -65 -45q-28 0 -44 11.5t-16 30.5q0 13 10 28v269q0 7 -13 16t-22 9q-10 0 -32.5 -7.5t-73.5 -35t-112 -71.5zM452 566l-114 -64q-22 -12 -45 -12t-43 17l-77 65q-20 9 -20 34q0 15 11.5 25.5t30.5 10.5q22 0 35 -27l72 -57l108 60q13 24 35 24q18 0 31 -11.5 t13 -30.5q0 -12 -11.5 -22t-25.5 -12z" />
<glyph unicode="&#x14c;" horiz-adv-x="819" d="M477 674q60 0 112 -17t94.5 -52.5t67 -97t24.5 -143.5q0 -107 -61 -195t-165 -137.5t-227 -49.5q-77 0 -135.5 25t-89.5 65t-46 83.5t-15 88.5q0 74 36.5 151.5t95.5 139t141.5 100.5t167.5 39zM469 588q-76 0 -151 -51.5t-120.5 -129t-45.5 -151.5q0 -78 47 -133 t141 -55q125 0 222 83.5t97 208.5q0 113 -50.5 170.5t-139.5 57.5zM565 750l-247 -22q-22 -5 -26 -5q-15 0 -24.5 11t-9.5 30q0 18 11 30t24 12q3 0 6.5 -1.5t7.5 -3t6 -2.5l241 21q22 8 27 8q15 0 23.5 -11t8.5 -29q0 -22 -16 -33.5t-32 -4.5z" />
<glyph unicode="&#x14d;" horiz-adv-x="648" d="M405 448q47 0 84 -13t59 -32.5t36.5 -46t19.5 -50t5 -47.5q0 -55 -34 -105.5t-69 -76.5q-77 -56 -136.5 -75.5t-150.5 -19.5q-42 0 -83 16.5t-71.5 54t-30.5 88.5q0 131 108.5 219t262.5 88zM387 365q-93 0 -168 -62.5t-75 -145.5q0 -42 30 -67t69 -25q92 0 168 51 q42 28 65 65t23 72q0 50 -27.5 81t-84.5 31zM464 540l-248 -22q-20 -5 -25 -5q-15 0 -24.5 11t-9.5 30q0 18 11 30t23 12l21 -7l241 21q22 8 27 8q15 0 23.5 -11t8.5 -29q0 -22 -16 -33.5t-32 -4.5z" />
<glyph unicode="&#x150;" horiz-adv-x="819" d="M477 674q60 0 112 -17t94.5 -52.5t67 -97t24.5 -143.5q0 -107 -61 -195t-165 -137.5t-227 -49.5q-77 0 -135.5 25t-89.5 65t-46 83.5t-15 88.5q0 74 36.5 151.5t95.5 139t141.5 100.5t167.5 39zM469 588q-76 0 -151 -51.5t-120.5 -129t-45.5 -151.5q0 -78 47 -133 t141 -55q125 0 222 83.5t97 208.5q0 113 -50.5 170.5t-139.5 57.5zM660 840l-98 -93q2 -14 -13.5 -29.5t-37.5 -15.5q-16 0 -26 13t-10 31q0 9 6 18.5t14 12.5l99 94q-6 17 6.5 31t37.5 14q18 0 31 -13.5t13 -30.5q0 -23 -22 -32zM495 840l-98 -93q2 -14 -13.5 -29.5 t-37.5 -15.5q-16 0 -26 13t-10 31q0 9 6 18.5t14 12.5l99 94q-5 17 7 31t37 14q18 0 31 -13.5t13 -30.5q0 -23 -22 -32z" />
<glyph unicode="&#x151;" horiz-adv-x="648" d="M405 448q47 0 84 -13t59 -32.5t36.5 -46t19.5 -50t5 -47.5q0 -55 -34 -105.5t-69 -76.5q-77 -56 -136.5 -75.5t-150.5 -19.5q-42 0 -83 16.5t-71.5 54t-30.5 88.5q0 131 108.5 219t262.5 88zM387 365q-93 0 -168 -62.5t-75 -145.5q0 -42 30 -67t69 -25q92 0 168 51 q42 28 65 65t23 72q0 50 -27.5 81t-84.5 31zM568 621l-98 -93q2 -14 -14 -29.5t-38 -15.5q-16 0 -25.5 13t-9.5 31q0 9 6 18.5t14 12.5l98 94q-6 17 7 31t38 14q18 0 31 -13.5t13 -30.5q0 -23 -22 -32zM403 621l-98 -93q2 -13 -13.5 -29t-37.5 -16q-16 0 -26 13t-10 31 q0 9 6 18.5t14 12.5l98 94q-5 17 7.5 31t37.5 14q18 0 31 -13.5t13 -30.5q0 -23 -22 -32z" />
<glyph unicode="&#x152;" horiz-adv-x="1264" d="M772 520v-152l314 30q3 0 14.5 6t16.5 6q46 0 46 -46q0 -11 -1 -17t-6 -13.5t-17 -12t-31 -5.5l-336 -33v-196l407 41q23 3 41.5 -9t18.5 -39q0 -50 -48 -50q-16 0 -34 9l-381 -38q-3 -1 -10.5 -5t-14 -6.5t-19.5 -5t-29 -2.5q-22 0 -38.5 12.5t-16.5 35.5q0 12 4.5 27 t8.5 18v58q-133 -151 -370 -151q-117 0 -186 75.5t-69 194.5q0 87 41.5 167t108 135t150.5 87.5t167 32.5q92 0 158 -53l2 3q0 16 15 27t40 11q32 0 50.5 -18.5t8.5 -38.5l386 46q24 3 40.5 -8t16.5 -34t-14 -38t-36 -15q-4 0 -19 4t-22 3zM316 68q113 0 208 57t137 144v224 q-16 41 -63.5 68t-109.5 27q-132 0 -234 -95.5t-102 -234.5q0 -89 43.5 -139.5t120.5 -50.5z" />
<glyph unicode="&#x153;" horiz-adv-x="1032" d="M399 443q69 0 114 -38t50 -87q36 48 107 86.5t125 38.5q57 0 98.5 -14t61 -35t28 -38.5t8.5 -31.5q0 -24 -23 -47t-55 -29l-338 -63q-8 -24 -8 -52q0 -27 24.5 -47.5t70.5 -20.5q63 0 125.5 21t99.5 53q-6 17 5.5 29.5t32.5 12.5q34 0 49.5 -13.5t15.5 -28.5 q0 -17 -19 -36q-59 -60 -146 -89t-172 -29q-66 0 -112.5 26t-57.5 70q-43 -45 -113.5 -71.5t-139.5 -26.5q-96 0 -146 41.5t-50 112.5q0 127 103 216.5t262 89.5zM389 360q-105 0 -175 -62t-70 -152q0 -80 102 -80q95 0 165 63.5t70 133.5q0 44 -23 70.5t-69 26.5zM614 264 l280 51q-1 22 -25 36t-65 14q-47 0 -101.5 -30t-88.5 -71z" />
<glyph unicode="&#x154;" horiz-adv-x="765" d="M71 50q0 17 13 34v363q-4 -3 -10 -3q-10 0 -17.5 12.5t-7.5 31.5q0 46 35 61v24q-8 18 -8 31q0 26 18.5 40t45.5 14q32 0 47.5 -20t6.5 -49v-11q165 65 322 65q77 0 126 -27.5t49 -76.5q0 -64 -54.5 -110t-141 -72t-213.5 -44l427 -219q25 8 49 -5.5t24 -39.5 q0 -29 -18 -45t-44 -16q-34 0 -48 24l-478 245v-177q9 -18 9 -29q0 -29 -21 -43t-52 -13q-59 0 -59 55zM194 494v-131q168 26 274.5 66.5t106.5 89.5q0 17 -24.5 27.5t-66.5 10.5q-133 0 -290 -63zM518 808l-102 -78q-1 -13 -16 -24t-33 -11q-17 0 -27.5 11t-10.5 28 q0 14 8 25t18 12l104 79q-4 17 8.5 27t31.5 10q23 0 34.5 -13t11.5 -30q0 -33 -27 -36z" />
<glyph unicode="&#x155;" horiz-adv-x="488" d="M73 62v310l-9 29q0 17 19 29t45 12q61 0 61 -38q0 -13 -8 -24v-45h2q135 103 230 103q30 0 51 -31t21 -92q0 -24 -15.5 -37.5t-43.5 -13.5q-25 0 -39 8t-14 20q0 13 4 27q0 25 -14 25q-24 0 -76 -29t-106 -79v-164q12 -16 12 -31q0 -24 -18 -35t-60 -11q-56 0 -56 40 q0 18 14 27zM375 602l-102 -77q-1 -13 -16 -24.5t-33 -11.5q-17 0 -27.5 11.5t-10.5 28.5q0 14 8 24.5t18 12.5l103 78q-3 17 9.5 27t31.5 10q22 0 34 -13t12 -30q0 -32 -27 -36z" />
<glyph unicode="&#x156;" horiz-adv-x="765" d="M71 50q0 17 13 34v363q-4 -3 -10 -3q-10 0 -17.5 12.5t-7.5 31.5q0 46 35 61v24q-8 18 -8 31q0 26 18.5 40t45.5 14q32 0 47.5 -20t6.5 -49v-11q165 65 322 65q77 0 126 -27.5t49 -76.5q0 -64 -54.5 -110t-141 -72t-213.5 -44l427 -219q25 8 49 -5.5t24 -39.5 q0 -29 -18 -45t-44 -16q-34 0 -48 24l-478 245v-177q9 -18 9 -29q0 -29 -21 -43t-52 -13q-59 0 -59 55zM194 494v-131q168 26 274.5 66.5t106.5 89.5q0 17 -24.5 27.5t-67.5 10.5q-131 0 -289 -63zM338 -222q-30 0 -30 28q0 18 9 24.5t27 10.5q43 7 43 50q0 18 -13 22 q-47 -8 -47 36q0 34 36 34q37 0 63.5 -25.5t26.5 -66.5q0 -53 -36.5 -83t-78.5 -30z" />
<glyph unicode="&#x157;" horiz-adv-x="488" d="M73 62v310l-9 29q0 17 19 29t45 12q61 0 61 -38q0 -13 -8 -24v-45h2q135 103 230 103q30 0 51 -31t21 -92q0 -24 -15.5 -37.5t-43.5 -13.5q-25 0 -39 8t-14 20q0 13 4 27q0 25 -14 25q-24 0 -76 -29t-106 -79v-164q12 -16 12 -31q0 -24 -18 -35t-60 -11q-56 0 -56 40 q0 18 14 27zM93 -241q-30 0 -28 28q0 18 8.5 24.5t26.5 10.5q43 7 43 50q0 17 -13 23q-47 -9 -47 35q0 34 36 34q37 0 63.5 -25.5t26.5 -66.5q0 -53 -37 -83t-79 -30z" />
<glyph unicode="&#x158;" horiz-adv-x="765" d="M71 50q0 17 13 34v363q-4 -3 -10 -3q-10 0 -17.5 12.5t-7.5 31.5q0 46 35 61v24q-8 18 -8 31q0 26 18.5 40t45.5 14q32 0 47.5 -20t6.5 -49v-11q165 65 322 65q77 0 126 -27.5t49 -76.5q0 -64 -54.5 -110t-141 -72t-213.5 -44l427 -219q25 8 49 -5.5t24 -39.5 q0 -29 -18 -45t-44 -16q-34 0 -48 24l-478 245v-177q9 -18 9 -29q0 -29 -21 -43t-52 -13q-59 0 -59 55zM194 494v-131q168 26 274.5 66.5t106.5 89.5q0 17 -24.5 27.5t-66.5 10.5q-133 0 -290 -63zM526 768l-113 -65q-24 -12 -45 -12q-24 0 -44 17l-77 65q-20 9 -20 34 q0 15 11.5 25.5t30.5 10.5q22 0 36 -27l71 -57l108 61q12 23 36 23q18 0 31 -11.5t13 -30.5q0 -12 -12 -21.5t-26 -11.5z" />
<glyph unicode="&#x159;" horiz-adv-x="488" d="M73 62v310l-9 29q0 17 19 29t45 12q61 0 61 -38q0 -13 -8 -24v-45h2q135 103 230 103q30 0 51 -31t21 -92q0 -24 -15.5 -37.5t-43.5 -13.5q-25 0 -39 8t-14 20q0 13 4 27q0 25 -14 25q-24 0 -76 -29t-106 -79v-164q12 -16 12 -31q0 -24 -18 -35t-60 -11q-56 0 -56 40 q0 18 14 27zM392 562l-113 -64q-24 -12 -45 -12q-23 0 -43 16l-77 66q-20 9 -20 34q0 15 11 25t31 10q23 0 35 -27l71 -56l109 60q12 23 35 23q18 0 31 -11t13 -30q0 -13 -12 -22.5t-26 -11.5z" />
<glyph unicode="&#x15a;" horiz-adv-x="838" d="M465 650q93 0 164 -33t71 -71q0 -17 -14.5 -30t-38.5 -13q-60 0 -66 32q-27 27 -120 27q-116 0 -205.5 -50.5t-89.5 -103.5q0 -44 57 -44q55 0 161 26q116 28 203 28q90 0 147.5 -34t57.5 -102q0 -90 -87 -164q-73 -66 -186 -99.5t-236 -33.5q-112 0 -172 43.5t-60 81.5 q0 30 17.5 47t47.5 17q17 0 28.5 -10t23 -31t14.5 -24q28 -36 107 -36q81 0 169.5 24.5t147.5 65.5q38 24 53.5 49.5t15.5 60.5q0 31 -22 43.5t-69 12.5q-76 0 -192 -27t-189 -27q-155 0 -155 125q0 57 56.5 115t154.5 96.5t206 38.5zM554 807l-101 -77q-2 -13 -16.5 -24 t-32.5 -11q-17 0 -27.5 11t-10.5 28q0 14 8 25t18 12l103 79q-3 17 9.5 27t31.5 10q22 0 33.5 -13.5t11.5 -29.5q0 -33 -27 -37z" />
<glyph unicode="&#x15b;" horiz-adv-x="659" d="M391 453q78 0 122.5 -16.5t44.5 -45.5q0 -18 -12 -30.5t-33 -12.5q-23 0 -33 12q-11 15 -91 15q-89 0 -161.5 -29.5t-72.5 -66.5q0 -24 38 -24q22 0 133 23q125 23 161 23q59 0 99 -25.5t40 -75.5q0 -58 -44 -102t-109 -67t-126 -34t-109 -11q-72 0 -126 28t-54 65 q0 22 14 35.5t41 13.5q22 0 31.5 -8t9.5 -17q0 -5 -2 -11q34 -27 89 -27q61 0 123 13.5t107.5 41.5t45.5 63q0 37 -61 37q-12 0 -27 -2t-27.5 -4.5t-36 -8t-40.5 -8.5q-113 -23 -168 -23q-50 0 -80.5 25t-30.5 69q0 57 56.5 100.5t133.5 64t155 20.5zM460 602l-101 -77 q-2 -13 -16.5 -24.5t-32.5 -11.5q-17 0 -27.5 11.5t-10.5 28.5q0 14 8 24.5t18 12.5l103 78q-3 17 9.5 27t31.5 10q22 0 33.5 -13t11.5 -30q0 -32 -27 -36z" />
<glyph unicode="&#x15e;" horiz-adv-x="838" d="M436 -13l-21 -28q33 0 56 -21.5t23 -64.5q0 -52 -41 -85t-105 -33q-35 0 -59 15q-8 -4 -17 -4t-15.5 11.5t-6.5 26.5q0 17 11 30t23 13q6 0 13 -4.5t7 -9.5q16 -9 48 -9q36 0 56 13.5t20 32.5q0 28 -35 28q-8 0 -20 -4q-5 -9 -24 -9q-10 0 -17.5 8.5t-7.5 22.5 q0 20 15 35l30 38q-39 -4 -86 -4q-112 0 -172 43.5t-60 81.5q0 30 17.5 47t47.5 17q17 0 28.5 -10t23 -31t14.5 -24q28 -36 107 -36q81 0 169.5 24.5t147.5 65.5q38 24 53.5 49.5t15.5 60.5q0 31 -22 43.5t-69 12.5q-76 0 -192 -27t-189 -27q-155 0 -155 125q0 57 56.5 115 t154.5 96.5t205 38.5h1q93 0 164 -33t71 -71q0 -17 -14.5 -30t-38.5 -13q-60 0 -66 32q-27 27 -120 27q-116 0 -205.5 -50.5t-89.5 -103.5q0 -44 57 -44q55 0 161 26q116 28 203 28q90 0 147.5 -33.5t57.5 -101.5q0 -91 -87 -165q-86 -79 -231 -111q-27 -7 -38 -20z" />
<glyph unicode="&#x15f;" horiz-adv-x="659" d="M363 0l-31 -41q33 0 56 -21.5t23 -64.5q0 -53 -41 -86t-105 -33q-35 0 -59 15q-8 -4 -17 -4t-15.5 11.5t-6.5 26.5q0 17 11 30t23 13q7 0 13.5 -4.5t6.5 -8.5q16 -10 48 -10q36 0 56 14t20 33q0 28 -35 28q-7 0 -21 -4q-4 -9 -23 -9q-10 0 -17.5 8.5t-7.5 22.5 q0 20 15 35l30 37q-34 -2 -48 -2q-72 0 -126 28t-54 65q0 22 14 35.5t41 13.5q22 0 31.5 -8t9.5 -17q0 -5 -2 -11q34 -27 89 -27q61 0 123 13.5t107.5 41.5t45.5 63q0 37 -61 37q-12 0 -27 -2t-27.5 -4.5t-36 -8t-40.5 -8.5q-113 -23 -168 -23q-50 0 -80.5 25t-30.5 69 q0 57 56.5 100.5t133.5 64t154 20.5h1q78 0 122.5 -16.5t44.5 -45.5q0 -18 -12 -30.5t-33 -12.5q-23 0 -33 12q-11 15 -91 15q-89 0 -161.5 -29.5t-72.5 -66.5q0 -24 38 -24q23 0 132 23q127 23 162 23q59 0 99 -25.5t40 -75.5q0 -55 -42 -98.5t-97 -65.5t-124 -36z" />
<glyph unicode="&#x160;" horiz-adv-x="838" d="M465 650q93 0 164 -33t71 -71q0 -17 -14.5 -30t-38.5 -13q-60 0 -66 32q-27 27 -120 27q-116 0 -205.5 -50.5t-89.5 -103.5q0 -44 57 -44q55 0 161 26q116 28 203 28q90 0 147.5 -34t57.5 -102q0 -90 -87 -164q-73 -66 -186 -99.5t-236 -33.5q-112 0 -172 43.5t-60 81.5 q0 30 17.5 47t47.5 17q17 0 28.5 -10t23 -31t14.5 -24q28 -36 107 -36q81 0 169.5 24.5t147.5 65.5q38 24 53.5 49.5t15.5 60.5q0 31 -22 43.5t-69 12.5q-76 0 -192 -27t-189 -27q-155 0 -155 125q0 57 56.5 115t154.5 96.5t206 38.5zM566 768l-113 -64q-24 -12 -45 -12 q-23 0 -44 16l-77 66q-20 9 -20 34q0 15 11 25t31 10q24 0 36 -27l71 -56l109 60q12 23 35 23q18 0 31 -11t13 -30q0 -13 -12 -22.5t-26 -11.5z" />
<glyph unicode="&#x161;" horiz-adv-x="659" d="M391 453q78 0 122.5 -16.5t44.5 -45.5q0 -18 -12 -30.5t-33 -12.5q-23 0 -33 12q-11 15 -91 15q-89 0 -161.5 -29.5t-72.5 -66.5q0 -24 38 -24q22 0 133 23q125 23 161 23q59 0 99 -25.5t40 -75.5q0 -58 -44 -102t-109 -67t-126 -34t-109 -11q-72 0 -126 28t-54 65 q0 22 14 35.5t41 13.5q22 0 31.5 -8t9.5 -17q0 -5 -2 -11q34 -27 89 -27q61 0 123 13.5t107.5 41.5t45.5 63q0 37 -61 37q-12 0 -27 -2t-27.5 -4.5t-36 -8t-40.5 -8.5q-113 -23 -168 -23q-50 0 -80.5 25t-30.5 69q0 57 56.5 100.5t133.5 64t155 20.5zM473 565l-114 -65 q-23 -12 -45 -12q-23 0 -43 17l-77 65q-20 9 -20 34q0 16 11 26t31 10q22 0 35 -27l72 -57l108 61q12 23 35 23q18 0 31 -11t13 -30q0 -13 -11.5 -22.5t-25.5 -11.5z" />
<glyph unicode="&#x162;" horiz-adv-x="664" d="M383 540v-469q9 -15 9 -25q0 -51 -74 -51q-52 0 -52 45q0 23 6 35v449l-173 -28q-15 -10 -31 -10q-25 0 -39 13t-14 37q0 23 14.5 39t34.5 16q14 0 32 -10l188 30q14 16 42.5 19t40.5 -6l223 34q20 6 33 6q26 0 39.5 -14t13.5 -36t-13.5 -36.5t-38.5 -14.5q-11 0 -32 8z M287 -244q-29 0 -29 28q0 18 8.5 24.5t26.5 10.5q43 7 43 50q0 18 -13 22q-47 -8 -47 36q0 34 36 34q37 0 63.5 -25.5t26.5 -66.5q0 -53 -36.5 -83t-78.5 -30z" />
<glyph unicode="&#x163;" horiz-adv-x="626" d="M169 436v64q-6 8 -6 28q0 40 72 40q50 0 50 -35q0 -14 -8 -25v-57l190 27q10 8 22 8q18 0 29.5 -13t11.5 -33q0 -49 -38 -49q-12 0 -18 4l-197 -28v-251q0 -35 28 -35q30 0 98 29t111 69q0 17 12 28.5t32 11.5q31 0 45.5 -14.5t13.5 -41.5q0 -21 -60.5 -63.5t-145 -77.5 t-139.5 -35q-49 0 -76 26t-27 74v266l-103 -15q-7 -7 -19 -8q-18 0 -31.5 13t-13.5 34t14 34.5t31 13.5q3 0 5.5 -0.5t5.5 -2t4 -1.5zM268 -246q-29 0 -29 28q0 18 9 24.5t27 10.5q43 7 43 50q0 17 -13 23q-47 -8 -47 36q0 33 36 33q37 0 63.5 -25.5t26.5 -66.5 q0 -53 -37 -83t-79 -30z" />
<glyph unicode="&#x164;" horiz-adv-x="664" d="M383 540v-469q9 -15 9 -25q0 -51 -74 -51q-52 0 -52 45q0 23 6 35v449l-173 -28q-15 -10 -31 -10q-25 0 -39 13t-14 37q0 23 14.5 39t34.5 16q14 0 32 -10l188 30q14 16 42.5 19t40.5 -6l223 34q20 6 33 6q26 0 39.5 -14t13.5 -36t-13.5 -36.5t-38.5 -14.5q-11 0 -32 8z M479 766l-114 -64q-23 -12 -44 -12q-24 0 -44 17l-77 65q-20 9 -20 34q0 15 11 25t31 10q22 0 36 -27l71 -56l108 60q12 23 35 23q18 0 31 -11t13 -30q0 -12 -12 -22t-25 -12z" />
<glyph unicode="&#x165;" horiz-adv-x="626" d="M169 436v64q-6 8 -6 29q0 39 72 39q50 0 50 -35q0 -14 -8 -24v-58l190 27q10 8 22 8q18 0 29 -13t11 -33q0 -49 -38 -49q-11 0 -17 4l-197 -28v-251q0 -35 28 -35q30 0 98 29t111 69q0 17 12 28.5t32 11.5q31 0 45.5 -14.5t13.5 -41.5q0 -21 -60.5 -63.5t-145 -77.5 t-139.5 -35q-49 0 -76 26t-27 74v266l-103 -15q-7 -7 -19 -8q-18 0 -31.5 13t-13.5 34t14 34.5t31 13.5q3 0 5.5 -0.5t5.5 -2t4 -1.5zM360 513q-30 0 -30 28q0 18 9 24.5t27 10.5q43 7 43 50q0 18 -13 22q-47 -8 -47 36q0 34 36 34q37 0 63.5 -25.5t26.5 -66.5 q0 -53 -36.5 -83t-78.5 -30z" />
<glyph unicode="&#x16a;" horiz-adv-x="762" d="M290 -17q-102 0 -155 50t-53 109v428q-15 28 2 49.5t53 21.5q31 0 43 -20t12 -43v-445q11 -23 39.5 -39.5t67.5 -16.5q61 0 115 15.5t85.5 37t49 41.5t17.5 31v372q-10 8 -10 25q0 23 19.5 37t50.5 14q22 0 38 -13t16 -34q0 -12 -4 -20v-399q-1 -21 -31.5 -60.5 t-75.5 -66.5q-117 -74 -279 -74zM515 743l-247 -22q-22 -5 -26 -5q-15 0 -24.5 11t-9.5 30q0 18 11 30t24 12q3 0 6.5 -1.5t7.5 -3t6 -2.5l241 21q22 8 27 8q15 0 23.5 -11t8.5 -29q0 -22 -16 -33.5t-32 -4.5z" />
<glyph unicode="&#x16b;" horiz-adv-x="613" d="M180 372v-254q0 -15 16 -29t34 -14q40 0 100 30.5t104 73.5v194q0 2 -3.5 11t-3.5 14q0 22 11 31t39 9q33 0 51.5 -12t13.5 -50v-315q10 -15 10 -27q0 -17 -20.5 -28t-49.5 -11q-32 0 -45 8.5t-13 26.5q0 6 5 15.5l6 11.5v27q-118 -101 -242 -101q-44 0 -82.5 34.5 t-38.5 77.5v272q0 3 -3 12t-3 13q0 47 67 47q20 0 38 -10.5t18 -32.5q0 -15 -9 -24zM437 542l-247 -22q-22 -5 -26 -5q-15 0 -24.5 11t-9.5 30q0 18 11 30t24 12q3 0 6.5 -1.5t7.5 -3t6 -2.5l242 21q22 8 26 8q15 0 23.5 -11t8.5 -29q0 -22 -16 -33.5t-32 -4.5z" />
<glyph unicode="&#x16e;" horiz-adv-x="762" d="M290 -17q-102 0 -155 50t-53 109v428q-15 28 2 49.5t53 21.5q31 0 43 -20t12 -43v-445q11 -23 39.5 -39.5t67.5 -16.5q61 0 115 15.5t85.5 37t49 41.5t17.5 31v372q-10 8 -10 25q0 23 19.5 37t50.5 14q22 0 38 -13t16 -34q0 -12 -4 -20v-399q-1 -21 -31.5 -60.5 t-75.5 -66.5q-117 -74 -279 -74zM371 682q-34 0 -56 28.5t-22 73.5q0 39 37.5 68.5t70.5 29.5q37 0 62 -25.5t25 -73.5q0 -46 -38.5 -73.5t-78.5 -27.5zM379 739q16 0 32.5 13t16.5 31q0 19 -7.5 30.5t-20.5 11.5q-17 0 -32 -13.5t-15 -33.5q0 -39 26 -39z" />
<glyph unicode="&#x16f;" horiz-adv-x="613" d="M180 372v-254q0 -15 16 -29t34 -14q40 0 100 30.5t104 73.5v194q0 2 -3.5 11t-3.5 14q0 22 11 31t39 9q33 0 51.5 -12t13.5 -50v-315q10 -15 10 -27q0 -17 -20.5 -28t-49.5 -11q-32 0 -45 8.5t-13 26.5q0 6 5 15.5l6 11.5v27q-118 -101 -242 -101q-44 0 -82.5 34.5 t-38.5 77.5v272q0 3 -3 12t-3 13q0 47 67 47q20 0 38 -10.5t18 -32.5q0 -15 -9 -24zM302 483q-34 0 -56 28.5t-22 73.5q0 39 37.5 68t70.5 29q37 0 62 -25.5t25 -73.5q0 -45 -38.5 -72.5t-78.5 -27.5zM310 540q16 0 32.5 13t16.5 30q0 42 -28 42q-17 0 -32 -13t-15 -33 q0 -39 26 -39z" />
<glyph unicode="&#x170;" horiz-adv-x="762" d="M290 -17q-102 0 -155 50t-53 109v428q-15 28 2 49.5t53 21.5q31 0 43 -20t12 -43v-445q11 -23 39.5 -39.5t67.5 -16.5q61 0 115 15.5t85.5 37t49 41.5t17.5 31v372q-10 8 -10 25q0 23 19.5 37t50.5 14q22 0 38 -13t16 -34q0 -12 -4 -20v-399q-1 -21 -31.5 -60.5 t-75.5 -66.5q-117 -74 -279 -74zM580 803l-97 -93q2 -13 -13.5 -29t-37.5 -16q-16 0 -26 13t-10 31q0 9 6 18.5t14 12.5l98 94q-6 17 7 31t38 14q18 0 31 -13.5t13 -30.5q0 -23 -23 -32zM416 803l-98 -93q2 -14 -13.5 -29.5t-37.5 -15.5q-16 0 -26 13t-10 31q0 9 6 18.5 t14 12.5l99 94q-5 17 7 31t37 14q18 0 31 -13.5t13 -30.5q0 -23 -22 -32z" />
<glyph unicode="&#x171;" horiz-adv-x="613" d="M180 372v-254q0 -15 16 -29t34 -14q40 0 100 30.5t104 73.5v194q0 2 -3.5 11t-3.5 14q0 22 11 31t39 9q33 0 51.5 -12t13.5 -50v-315q10 -15 10 -27q0 -17 -20.5 -28t-49.5 -11q-32 0 -45 8.5t-13 26.5q0 6 5 15.5l6 11.5v27q-118 -101 -242 -101q-44 0 -82.5 34.5 t-38.5 77.5v272q0 3 -3 12t-3 13q0 47 67 47q20 0 38 -10.5t18 -32.5q0 -15 -9 -24zM514 601l-97 -93q2 -14 -14 -29.5t-38 -15.5q-16 0 -25.5 12.5t-9.5 30.5q0 10 6 19.5t13 11.5l99 94q-6 17 7 31.5t38 14.5q18 0 31 -13.5t13 -30.5q0 -24 -23 -32zM350 601l-98 -93 q2 -14 -13.5 -29.5t-37.5 -15.5q-16 0 -26 12.5t-10 30.5q0 10 6 19.5t14 11.5l98 94q-5 18 7.5 32t37.5 14q18 0 31 -13.5t13 -30.5q0 -24 -22 -32z" />
<glyph unicode="&#x172;" horiz-adv-x="762" d="M425 -195q-54 0 -89.5 28t-35.5 79q0 40 31 73q-20 -2 -40 -2q-104 0 -156.5 50t-52.5 109v428q-15 28 2 49.5t53 21.5q31 0 43 -20t12 -43v-445q11 -23 39.5 -39.5t67.5 -16.5q61 0 115 15.5t85.5 37t49 41.5t17.5 31v372q-10 8 -10 25q0 23 19.5 37t50.5 14 q22 0 38 -13t16 -34q0 -12 -4 -20v-399q-1 -21 -31.5 -60.5t-75.5 -66.5q-46 -30 -99 -47q-48 -18 -71 -43q-24 -25 -24 -57q0 -18 16 -29.5t37 -11.5q46 0 62 19q-2 2 -2 9q0 6 8.5 11.5t21.5 5.5q33 0 33 -39q0 -25 -35.5 -47.5t-90.5 -22.5z" />
<glyph unicode="&#x173;" horiz-adv-x="613" d="M518 -206q-57 0 -91 28.5t-34 82.5q0 51 39 103q-14 17 3 49v27q-118 -101 -242 -101q-44 0 -82.5 34.5t-38.5 77.5v272q0 3 -3 12t-3 13q0 47 67 47q20 0 38 -10.5t18 -32.5q0 -15 -9 -24v-254q0 -15 16 -29t34 -14q40 0 100 30.5t104 73.5v194q0 2 -3.5 11t-3.5 14 q0 22 11 31t39 9q33 0 51.5 -12t13.5 -50v-315q10 -15 10 -27q0 -17 -16 -25q-68 -40 -68 -104q0 -22 16 -34.5t39 -12.5t42.5 9.5t26.5 21.5q-2 2 -2 10q0 7 8.5 12t21.5 5q35 0 35 -38q0 -28 -39 -56t-98 -28z" />
<glyph unicode="&#x178;" horiz-adv-x="784" d="M339 87v211q-40 54 -152.5 134t-150.5 120q-15 4 -24 17.5t-9 31.5q0 22 20.5 39t44.5 17q23 0 38.5 -12t14.5 -30q35 -41 138 -116t136 -115h2q34 38 124 104t125 99q16 13 29 31q21 39 65 39q24 0 38.5 -16t14.5 -36q0 -6 -1.5 -11.5t-3.5 -9.5t-6.5 -9.5l-6.5 -8 t-8.5 -8.5t-7.5 -7q-8 -8 -29 -23.5t-27 -21.5q-30 -25 -85 -64.5t-98 -75t-70 -69.5v-221q10 -18 10 -29q0 -52 -77 -53q-28 0 -41.5 11t-13.5 43q0 28 11 39zM293 680q-20 0 -31.5 18.5t-11.5 42.5q0 26 14.5 43.5t42.5 17.5q23 0 37.5 -11.5t14.5 -32.5q0 -40 -15 -59 t-51 -19zM488 682q-24 0 -36.5 15.5t-12.5 40.5q0 27 14 45t39 18q23 0 39 -15t16 -41t-14 -44.5t-45 -18.5z" />
<glyph unicode="&#x179;" horiz-adv-x="762" d="M597 567l-425 -19q-7 -26 -24 -40.5t-37 -14.5q-22 0 -32.5 14t-10.5 33q0 47 20.5 81t50.5 34q31 0 35 -20l371 14q30 1 74.5 4.5t65.5 3.5q28 0 44 -11t16 -30q0 -30 -13 -50t-49 -43l-535 -445l476 9q0 29 18 45.5t38 16.5q19 0 35 -18.5t16 -57.5q0 -74 -67 -74 q-11 0 -92 0.5t-133 0.5q-71 0 -183 -4q-93 -5 -144 -5q-49 0 -71.5 12t-22.5 46q0 40 49 78zM516 804l-101 -77q-1 -13 -16 -24.5t-33 -11.5q-17 0 -27.5 11.5t-10.5 28.5q0 14 8 25t18 12l103 79q-3 17 9.5 26.5t31.5 9.5q22 0 34 -13t12 -29q0 -33 -28 -37z" />
<glyph unicode="&#x17a;" horiz-adv-x="607" d="M55 78l338 266h-266q0 -23 -13 -36.5t-36 -13.5q-18 0 -29.5 15t-11.5 40q0 40 14 58t50 18h376q21 16 50 16q22 0 34 -11t12 -27q0 -38 -33 -53l-338 -268h283q9 47 46 47q47 0 47 -59q0 -79 -59 -79q-21 0 -34 9h-386q-18 -9 -40 -9q-21 0 -32.5 11.5t-11.5 28.5 q0 18 11.5 32t28.5 15zM435 602l-102 -78q-1 -13 -16 -24t-32 -11t-28 11t-11 28q0 14 8.5 25t17.5 12l104 79q-4 17 8.5 27t31.5 10q22 0 34 -13.5t12 -29.5q0 -33 -27 -36z" />
<glyph unicode="&#x17b;" horiz-adv-x="762" d="M597 567l-425 -19q-7 -26 -24 -40.5t-37 -14.5q-22 0 -32.5 14t-10.5 33q0 47 20.5 81t50.5 34q31 0 35 -20l371 14q30 1 74.5 4.5t65.5 3.5q28 0 44 -11t16 -30q0 -30 -13 -50t-49 -43l-535 -445l476 9q0 29 18 45.5t38 16.5q19 0 35 -18.5t16 -57.5q0 -74 -67 -74 q-11 0 -92 0.5t-133 0.5q-71 0 -183 -4q-93 -5 -144 -5q-49 0 -71.5 12t-22.5 46q0 40 49 78zM391 690q-24 0 -37 13.5t-13 35.5q0 43 17 69.5t46 26.5q54 0 54 -48q0 -46 -19 -71.5t-48 -25.5z" />
<glyph unicode="&#x17c;" horiz-adv-x="607" d="M55 78l338 266h-266q0 -23 -13 -36.5t-36 -13.5q-18 0 -29.5 15t-11.5 40q0 40 14 58t50 18h376q20 15 50 16q22 0 34 -11t12 -27q0 -38 -33 -53l-338 -268h283q9 47 46 47q47 0 47 -59q0 -79 -59 -79q-21 0 -34 9h-386q-18 -9 -40 -9q-21 0 -32.5 11.5t-11.5 28.5 q0 18 11.5 32t28.5 15zM300 492q-24 0 -37 13.5t-13 35.5q0 43 17 69.5t46 26.5q54 0 54 -48q0 -46 -19 -71.5t-48 -25.5z" />
<glyph unicode="&#x17d;" horiz-adv-x="762" d="M597 567l-425 -19q-7 -26 -24 -40.5t-37 -14.5q-22 0 -32.5 14t-10.5 33q0 47 20.5 81t50.5 34q31 0 35 -20l371 14q30 1 74.5 4.5t65.5 3.5q28 0 44 -11t16 -30q0 -30 -13 -50t-49 -43l-535 -445l476 9q0 29 18 45.5t38 16.5q19 0 35 -18.5t16 -57.5q0 -74 -67 -74 q-11 0 -92 0.5t-133 0.5q-71 0 -183 -4q-93 -5 -144 -5q-49 0 -71.5 12t-22.5 46q0 40 49 78zM537 768l-114 -64q-23 -12 -44 -12q-23 0 -44 16l-77 66q-20 9 -20 34q0 15 11 25t31 10q22 0 36 -27l71 -56l108 60q12 23 36 23q18 0 30.5 -11t12.5 -30q0 -13 -11.5 -22.5 t-25.5 -11.5z" />
<glyph unicode="&#x17e;" horiz-adv-x="607" d="M55 78l338 266h-266q0 -23 -13 -36.5t-36 -13.5q-18 0 -29.5 15t-11.5 40q0 40 14 58t50 18h376q20 15 50 16q22 0 34 -11t12 -27q0 -38 -33 -53l-338 -268h283q9 47 46 47q47 0 47 -59q0 -79 -59 -79q-21 0 -34 9h-386q-18 -9 -40 -9q-21 0 -32.5 11.5t-11.5 28.5 q0 18 11.5 32t28.5 15zM446 562l-114 -64q-22 -13 -44 -13q-24 0 -44 17l-77 65q-20 10 -20 34q0 16 11 26t31 10q22 0 35 -27l72 -57l108 61q12 23 36 23q17 0 30 -11t13 -30q0 -13 -11.5 -22.5t-25.5 -11.5z" />
<glyph unicode="&#x192;" horiz-adv-x="866" d="M413 376l151 9q8 12 28 12t31 -12t11 -34t-12 -40.5t-31 -18.5q-8 0 -24 9l-173 -11q-44 -196 -83.5 -291.5t-84 -126.5t-120.5 -31q-38 0 -63 7t-40 23.5t-21.5 31.5t-14.5 44q-23 10 -23 40q0 25 16 41t41 16q24 0 39 -10t15 -27q0 -14 -8 -24q5 -33 19.5 -44.5 t47.5 -11.5q36 0 59.5 25.5t49 101.5t59.5 229l-118 -7q-9 -7 -24 -7q-16 0 -25.5 15.5t-9.5 39.5q0 18 11.5 31t29.5 13q15 0 24 -7l131 9q16 72 40.5 126.5t50 87t55.5 52.5t55.5 27t52.5 7q67 0 104.5 -37.5t37.5 -66.5q0 -19 -14 -37.5t-35 -18.5q-25 0 -36.5 9t-9.5 26 q2 15 -13 27t-42 12q-39 0 -74.5 -50t-59.5 -158z" />
<glyph unicode="&#x218;" horiz-adv-x="838" d="M465 650q93 0 164 -33t71 -71q0 -17 -14.5 -30t-38.5 -13q-60 0 -66 32q-27 27 -120 27q-116 0 -205.5 -50.5t-89.5 -103.5q0 -44 57 -44q55 0 161 26q116 28 203 28q90 0 147.5 -34t57.5 -102q0 -90 -87 -164q-73 -66 -186 -99.5t-236 -33.5q-112 0 -172 43.5t-60 81.5 q0 30 17.5 47t47.5 17q17 0 28.5 -10t23 -31t14.5 -24q28 -36 107 -36q81 0 169.5 24.5t147.5 65.5q38 24 53.5 49.5t15.5 60.5q0 31 -22 43.5t-69 12.5q-77 0 -192 -27q-116 -27 -189 -27q-155 0 -155 125q0 57 56.5 115t154.5 96.5t206 38.5zM374 -246q-29 0 -29 28 q0 18 8.5 24.5t26.5 10.5q43 7 43 50q0 17 -13 23q-47 -9 -47 35q0 34 36 34q37 0 63.5 -25.5t26.5 -66.5q0 -53 -36.5 -83t-78.5 -30z" />
<glyph unicode="&#x219;" horiz-adv-x="659" d="M391 453q78 0 122.5 -16.5t44.5 -45.5q0 -18 -12 -30.5t-33 -12.5q-23 0 -33 12q-11 15 -91 15q-89 0 -161.5 -29.5t-72.5 -66.5q0 -24 38 -24q22 0 133 23q125 23 161 23q59 0 99 -25.5t40 -75.5q0 -58 -43.5 -102t-109 -67t-126 -34t-108.5 -11q-73 0 -127 28t-54 65 q0 22 14 35.5t41 13.5q22 0 31.5 -8t9.5 -17q0 -5 -2 -11q34 -27 89 -27q61 0 123 13.5t107.5 41.5t45.5 63q0 37 -61 37q-12 0 -27 -2t-27.5 -4.5t-36 -8t-40.5 -8.5q-111 -23 -168 -23q-50 0 -80.5 25t-30.5 69q0 57 56.5 100.5t134 64t154.5 20.5zM286 -244q-30 0 -30 28 q0 18 9 24.5t27 10.5q43 7 43 50q0 18 -13 22q-47 -8 -47 36q0 34 36 34q37 0 63.5 -25.5t26.5 -66.5q0 -53 -36.5 -83t-78.5 -30z" />
<glyph unicode="&#x21a;" horiz-adv-x="664" d="M383 540v-469q9 -15 9 -25q0 -51 -74 -51q-52 0 -52 45q0 23 6 35v449l-173 -28q-15 -10 -31 -10q-25 0 -39 13t-14 37q0 23 14.5 39t34.5 16q14 0 32 -10l188 30q14 16 42.5 19t40.5 -6l223 34q20 6 33 6q26 0 39.5 -14t13.5 -36t-13.5 -36.5t-38.5 -14.5q-11 0 -32 8z M287 -244q-29 0 -29 28q0 18 8.5 24.5t26.5 10.5q43 7 43 50q0 18 -13 22q-47 -8 -47 36q0 34 36 34q37 0 63.5 -25.5t26.5 -66.5q0 -53 -36.5 -83t-78.5 -30z" />
<glyph unicode="&#x21b;" horiz-adv-x="626" d="M169 436v64q-6 8 -6 28q0 40 72 40q50 0 50 -35q0 -14 -8 -25v-57l190 27q10 8 22 8q18 0 29.5 -13t11.5 -33q0 -49 -38 -49q-12 0 -18 4l-197 -28v-251q0 -35 28 -35q30 0 98 29t111 69q0 17 12 28.5t32 11.5q31 0 45.5 -14.5t13.5 -41.5q0 -21 -60.5 -63.5t-145 -77.5 t-139.5 -35q-49 0 -76 26t-27 74v266l-103 -15q-7 -7 -19 -8q-18 0 -31.5 13t-13.5 34t14 34.5t31 13.5q3 0 5.5 -0.5t5.5 -2t4 -1.5zM268 -246q-29 0 -29 28q0 18 9 24.5t27 10.5q43 7 43 50q0 17 -13 23q-47 -8 -47 36q0 33 36 33q37 0 63.5 -25.5t26.5 -66.5 q0 -53 -37 -83t-79 -30z" />
<glyph unicode="&#x2c6;" d="M272 642l87 -93q1 -1 6.5 -5t8.5 -6.5t7 -7t6 -9.5t2 -11q0 -17 -14.5 -28.5t-39.5 -11.5q-16 0 -25 12.5t-7 26.5l-78 83l-111 -87q1 -14 -8.5 -24.5t-25.5 -10.5q-18 0 -33 12.5t-15 27.5q0 30 34 43l119 95q24 20 41 20q20 0 46 -26z" />
<glyph unicode="&#x2c7;" d="M355 562l-114 -65q-23 -12 -45 -12q-23 0 -43 17l-77 65q-20 10 -20 34q0 16 11 26t31 10q22 0 35 -27l72 -57l108 61q12 23 35 23q18 0 31 -11t13 -30q0 -13 -11.5 -22.5t-25.5 -11.5z" />
<glyph unicode="&#x2c9;" d="M341 553l-247 -22q-22 -5 -26 -5q-15 0 -24.5 11t-9.5 30q0 18 11 30t24 12q3 0 6.5 -1.5t7.5 -3t6 -2.5l241 21q22 8 27 8q15 0 23.5 -11t8.5 -29q0 -22 -16 -33.5t-32 -4.5z" />
<glyph unicode="&#x2d8;" d="M197 481q-69 0 -115 40t-46 85q0 25 9 36t30 11q33 0 33 -35q0 -22 23 -44.5t64 -22.5q89 0 114 59q-3 10 -3 21q0 12 13.5 19.5t29.5 7.5q18 0 29 -9.5t11 -24.5q0 -21 -10 -30q-19 -49 -65.5 -81t-116.5 -32z" />
<glyph unicode="&#x2d9;" d="M206 489q-24 0 -37 13.5t-13 35.5q0 43 17 69.5t46 26.5q54 0 54 -48q0 -46 -19 -71.5t-48 -25.5z" />
<glyph unicode="&#x2da;" d="M212 483q-34 0 -56 28.5t-22 73.5q0 39 37.5 68t70.5 29q37 0 62 -25.5t25 -73.5q0 -45 -38.5 -72.5t-78.5 -27.5zM220 540q16 0 32.5 13t16.5 30q0 42 -28 42q-17 0 -32 -13t-15 -33q0 -39 26 -39z" />
<glyph unicode="&#x2db;" d="M184 -229q-54 0 -89.5 28.5t-35.5 78.5q0 59 57.5 109t110.5 51q7 12 36 12q12 0 20.5 -9t8.5 -21q0 -17 -11.5 -29.5t-27.5 -12.5q-53 0 -95 -45q-24 -27 -24 -57q0 -18 16 -29.5t37 -11.5q46 0 62 19q-2 2 -2 9q0 6 8.5 11t21.5 5q33 0 33 -38q0 -25 -36 -47.5 t-90 -22.5z" />
<glyph unicode="&#x2dc;" d="M281 503q-54 0 -88 40q-24 26 -45 26q-34 0 -47 -36q-14 -26 -37 -26q-22 0 -32.5 11.5t-10.5 27.5q0 5 7.5 14t8.5 11q22 36 48.5 51.5t69.5 15.5q33 0 70 -35q33 -33 61 -33q20 0 30 12.5t7 27.5q-1 15 10.5 23.5t27.5 8.5q19 0 30.5 -10t11.5 -20q0 -12 -5 -19 q-14 -44 -40.5 -67t-76.5 -23z" />
<glyph unicode="&#x2dd;" d="M407 597l-98 -93q2 -14 -13.5 -29.5t-37.5 -15.5q-16 0 -26 13t-10 31q0 9 6 18.5t14 12.5l99 93q-6 17 6.5 31.5t37.5 14.5q18 0 31 -13.5t13 -30.5q0 -24 -22 -32zM242 597l-98 -93q2 -14 -13.5 -29.5t-37.5 -15.5q-16 0 -26 13t-10 31q0 9 6 18.5t14 12.5l99 93 q-6 17 6.5 31.5t37.5 14.5q18 0 31 -13.5t13 -30.5q0 -25 -22 -32z" />
<glyph unicode="&#x3c0;" horiz-adv-x="549" d="M509 403l-95 -9q-12 -108 -15 -141q-6 -69 -4 -98q3 -72 27 -72q10 0 25.5 9t22.5 18q7 41 48 41q25 0 37.5 -14t12.5 -32q0 -13 -7 -23q-19 -31 -66.5 -57.5t-92.5 -26.5q-88 0 -102 134q-6 47 0 111q1 23 13 141l-66 -6l-17 -139q-11 -78 -23.5 -123t-39.5 -83 q-1 -25 -18 -38.5t-43 -13.5q-27 0 -45 13t-18 34q0 37 34 47q39 55 53 159l16 129q-27 -4 -45 -15q-10 -8 -25 -24q-21 -23 -43 -23q-21 0 -36 12t-15 33q0 41 43 53q62 48 187 61l279 26q12 12 30 12q24 0 37.5 -14.5t13.5 -33.5q0 -21 -12.5 -35.5t-35.5 -14.5 q-3 0 -15 3z" />
<glyph unicode="&#x2010;" horiz-adv-x="447" d="M317 226l-185 -13q-13 -18 -40 -18q-18 0 -31.5 16t-13.5 42q0 27 14.5 42.5t32.5 15.5q20 0 30 -10l185 12q19 13 32 13q21 1 38 -15t17 -43q0 -24 -16 -40.5t-34 -16.5q-25 0 -29 15z" />
<glyph unicode="&#x2013;" horiz-adv-x="500" d="M117 327h256q20 12 32 12q22 1 38.5 -15t16.5 -43q0 -24 -16 -40t-34 -16q-26 0 -28 14h-257q-14 -18 -40 -18q-17 0 -31 16t-14 42q0 28 15 43.5t33 15.5q20 0 29 -11z" />
<glyph unicode="&#x2014;" horiz-adv-x="1000" d="M882 239h-757q-14 -18 -40 -18q-17 0 -31 16t-14 42q0 28 15 43.5t33 15.5q20 0 29 -11h756q20 12 32 12q22 1 38.5 -15t16.5 -43q0 -24 -16 -40t-34 -16q-26 0 -28 14z" />
<glyph unicode="&#x2018;" horiz-adv-x="213" d="M105 437q-30 0 -46.5 25.5t-16.5 69.5q0 63 37 103.5t71 40.5q36 0 36 -24q0 -27 -29 -30q-22 -2 -44.5 -24t-17.5 -55q19 19 41 19q19 0 31 -14.5t12 -40.5q0 -25 -20 -47.5t-54 -22.5z" />
<glyph unicode="&#x2019;" horiz-adv-x="213" d="M125 676q30 0 46.5 -25.5t16.5 -69.5q0 -63 -37 -103.5t-71 -40.5q-36 0 -36 24q0 27 29 30q22 2 44.5 24t17.5 55q-19 -19 -41 -19q-19 0 -31 15t-12 40t20 47.5t54 22.5z" />
<glyph unicode="&#x201a;" horiz-adv-x="213" d="M188 19q0 -62 -37 -102.5t-71 -40.5q-36 0 -36 24q0 27 29 30q22 2 44.5 24t17.5 55q-19 -19 -41 -19q-19 0 -31 14.5t-12 40.5q0 25 20 47.5t53 22.5q31 0 47.5 -25.5t16.5 -70.5z" />
<glyph unicode="&#x201c;" horiz-adv-x="407" d="M105 437q-30 0 -46.5 25.5t-16.5 69.5q0 63 37 103.5t71 40.5q36 0 36 -24q0 -27 -29 -30q-22 -2 -44.5 -24t-17.5 -55q19 19 41 19q19 0 31 -14.5t12 -40.5q0 -25 -20 -47.5t-54 -22.5zM299 437q-30 0 -46.5 25.5t-16.5 69.5q0 63 37 103.5t71 40.5q36 0 36 -24 q0 -27 -29 -30q-22 -2 -44.5 -24t-17.5 -55q19 19 41 19q19 0 31 -14.5t12 -40.5q0 -25 -20 -47.5t-54 -22.5z" />
<glyph unicode="&#x201d;" horiz-adv-x="407" d="M125 676q30 0 46.5 -25.5t16.5 -69.5q0 -63 -37 -103.5t-71 -40.5q-36 0 -36 24q0 27 29 30q22 2 44.5 24t17.5 55q-19 -19 -41 -19q-19 0 -31 15t-12 40t20 47.5t54 22.5zM320 676q30 0 46.5 -25.5t16.5 -69.5q0 -63 -37 -103.5t-72 -40.5q-36 0 -36 24q0 27 30 30 q22 2 44.5 24t17.5 55q-19 -19 -42 -19q-19 0 -31 15t-12 40t20 47.5t55 22.5z" />
<glyph unicode="&#x201e;" horiz-adv-x="407" d="M188 19q0 -62 -37 -102.5t-71 -40.5q-36 0 -36 24q0 27 29 30q22 2 44.5 24t17.5 55q-19 -19 -41 -19q-19 0 -31 14.5t-12 40.5q0 25 20 47.5t53 22.5q31 0 47.5 -25.5t16.5 -70.5zM382 19q0 -62 -37 -102.5t-71 -40.5q-36 0 -36 24q0 27 29 30q22 2 44.5 24t17.5 55 q-19 -19 -41 -19q-19 0 -31 14.5t-12 40.5q0 25 20 47.5t53 22.5q31 0 47.5 -25.5t16.5 -70.5z" />
<glyph unicode="&#x2020;" horiz-adv-x="606" d="M358 566v-111h122q26 14 40 15q21 0 36 -15.5t15 -38.5q0 -28 -18 -43t-42 -15q-8 0 -27 11h-126v-296q16 -18 16 -36q0 -51 -64 -51q-72 0 -72 54q0 14 10 41v288h-124q-28 -17 -38 -16q-23 0 -36 19t-13 39q0 25 14.5 41.5t34.5 16.5q12 0 35 -14h127v108 q-14 26 -14 45q0 21 20.5 33.5t47.5 12.5q29 0 46.5 -16t17.5 -39q0 -17 -8 -33z" />
<glyph unicode="&#x2021;" horiz-adv-x="606" d="M358 568v-88h130q24 15 40 15q39 0 39 -54q0 -25 -15 -40.5t-36 -15.5q-9 0 -29 9h-129v-142h129q26 14 41 15q39 -1 39 -56q0 -27 -15 -41t-36 -14q-6 0 -26 10h-132v-95q17 -11 17 -37q0 -48 -68 -48q-31 0 -49.5 13t-18.5 36q0 29 9 42v89h-124q-21 -16 -36 -16 q-23 0 -35.5 15t-12.5 34q0 30 13 47t35 17q12 0 34 -11h126v142h-124q-24 -15 -37 -15q-24 0 -35.5 17.5t-11.5 36.5q0 28 13 43t34 15q10 0 32 -11h129v86q-13 24 -13 41q0 22 19.5 34.5t48.5 12.5q27 0 45.5 -17t18.5 -37q0 -12 -9 -32z" />
<glyph unicode="&#x2022;" horiz-adv-x="410" d="M168 170q-52 0 -85 40t-33 82q0 51 18 86.5t47.5 51.5t57 22.5t57.5 6.5q55 0 88 -27.5t33 -109.5q0 -43 -21 -75.5t-52.5 -47.5t-59.5 -22t-50 -7z" />
<glyph unicode="&#x2026;" horiz-adv-x="1000" d="M159 -9q-21 0 -38 17.5t-17 48.5q0 27 19.5 50.5t51.5 23.5q55 0 55 -66q0 -30 -17.5 -52t-53.5 -22zM492 -9q-21 0 -38 17.5t-17 48.5q0 27 19.5 50.5t51.5 23.5q55 0 55 -66q0 -30 -17.5 -52t-53.5 -22zM825 -9q-21 0 -38 17.5t-17 48.5q0 27 19.5 50.5t51.5 23.5 q55 0 55 -66q0 -30 -17.5 -52t-53.5 -22z" />
<glyph unicode="&#x2030;" horiz-adv-x="1208" d="M618 608q0 -25 -29 -33l-320 -529q-3 -54 -58 -54q-27 0 -39.5 10t-12.5 34q0 6 4 12.5t11.5 14t8.5 9.5l328 540q1 20 14 32.5t28 12.5q21 0 43 -13.5t22 -35.5zM162 379q-54 0 -90.5 30t-36.5 86q0 61 64 111t140 50q63 0 99 -30t36 -81q0 -63 -65.5 -114.5 t-146.5 -51.5zM177 456q37 0 67 26t30 55q0 18 -11 30t-30 12q-41 0 -69.5 -25.5t-28.5 -54.5q0 -43 42 -43zM643 278q52 0 89 -34t37 -94q0 -73 -70.5 -120.5t-163.5 -47.5q-50 0 -86.5 32.5t-36.5 89.5q0 76 69 125t162 49zM1046 278q52 0 89 -34t37 -94 q0 -73 -70.5 -120.5t-163.5 -47.5q-50 0 -86.5 32.5t-36.5 89.5q0 76 69 125t162 49zM627 201q-45 0 -80 -26t-35 -67q0 -23 13 -36t31 -13q43 0 78 27t35 63q0 25 -12 38.5t-30 13.5zM1030 201q-45 0 -80 -26.5t-35 -67.5q0 -23 13 -36t31 -13q43 0 78 27t35 64 q0 24 -12 38t-30 14z" />
<glyph unicode="&#x2039;" horiz-adv-x="376" d="M200 98l-154 139q-26 15 -26 45q0 11 8 24t20 18l212 145q19 27 52 27q20 0 33 -15.5t13 -36.5q0 -19 -15.5 -32.5t-37.5 -13.5l-163 -117l121 -115q14 0 27 -12.5t13 -30.5q0 -21 -15.5 -37.5t-39.5 -16.5q-15 0 -29.5 8t-18.5 21z" />
<glyph unicode="&#x203a;" horiz-adv-x="376" d="M237 282l-144 114q-22 2 -36.5 14t-15.5 32q-1 21 12 37t33 16q33 0 54 -28l191 -143q12 -5 19.5 -18t7.5 -24q0 -30 -27 -45l-173 -140q-1 -12 -16 -20.5t-31 -8.5q-24 0 -40 16t-16 37q0 17 13 30t27 13z" />
<glyph unicode="&#x2044;" horiz-adv-x="404" d="M-86 26q0 7 1.5 13t5.5 11.5t6.5 8t9.5 8t8 6.5l437 540q13 44 41 44q23 0 44.5 -16t21.5 -38q0 -14 -12 -26.5t-23 -13.5l-428 -531q-2 -20 -19.5 -32t-39.5 -12q-53 0 -53 38z" />
<glyph unicode="&#x2070;" horiz-adv-x="574" d="M244 369q-88 0 -139 35t-51 104q0 77 47.5 136.5t117.5 89t145 29.5q89 0 149.5 -40.5t60.5 -105.5q0 -57 -26 -102.5t-64 -71.5t-85.5 -44t-85.5 -24t-69 -6zM259 442q32 0 66 10t66 29t52.5 53.5t20.5 78.5q0 37 -30 57t-83 20q-73 0 -130 -48t-57 -125q0 -35 26 -55 t69 -20z" />
<glyph unicode="&#x2074;" horiz-adv-x="553" d="M428 700v-141l86 8q13 11 24 11q33 0 33 -41q0 -40 -30 -40q-19 0 -27 8l-86 -10v-49q16 -8 16 -25q0 -47 -79 -47q-24 0 -35.5 12t-11.5 26q0 19 9 25v49l-230 -23q-21 -6 -30 -6q-42 0 -42 51q0 20 27 37l269 198q12 30 65 30q21 0 36.5 -10.5t15.5 -25.5 q0 -24 -10 -37zM327 549v122l-189 -141z" />
<glyph unicode="&#x2075;" horiz-adv-x="535" d="M422 693l-256 -12q-2 -24 -8 -64q79 33 178 33q188 0 188 -108q0 -54 -48.5 -95t-114 -59.5t-132.5 -18.5q-90 0 -136 21.5t-46 55.5q0 14 15 26t34 12q25 0 47 -18q33 -25 88 -25q83 0 134.5 25.5t51.5 63.5q0 24 -19 36.5t-70 12.5q-67 0 -138 -21q-37 -13 -44 -16 q-22 -10 -35 -10q-51 0 -51 35q0 7 5.5 24t6.5 26l5 36l5 37t3 26q2 32 42 34l292 13q14 12 30 12q18 0 29 -12.5t11 -33.5t-12 -32.5t-29 -11.5q-14 0 -26 8z" />
<glyph unicode="&#x2076;" horiz-adv-x="571" d="M253 369q-85 0 -147 43q-18 -1 -32.5 13t-10.5 34q-22 35 -22 70q0 91 93.5 166t235.5 75q78 0 121.5 -18.5t43.5 -48.5q0 -15 -12 -25.5t-30 -10.5q-21 0 -55 17q-30 15 -77 15q-88 0 -149 -45.5t-67 -99.5q-1 -9 4 -20q46 42 115 71.5t129 29.5q83 0 124.5 -28 t41.5 -68q0 -42 -29.5 -76t-76.5 -54t-98.5 -30t-101.5 -10zM264 441q68 0 129 25.5t61 64.5q0 13 -15 23t-45 10q-107 0 -214 -92q11 -13 37 -22.5t47 -8.5z" />
<glyph unicode="&#x2077;" horiz-adv-x="448" d="M346 688l-210 -15l-1 -20q10 -8 10 -20q0 -15 -17 -24.5t-45 -9.5q-19 0 -29.5 12.5t-9.5 34.5l6 59q2 20 11.5 29t32.5 10l272 15q16 1 37.5 10t32.5 9q17 0 31.5 -9.5t14.5 -25.5q0 -14 -25 -45l-170 -237q-14 -20 -31 -59q-6 -15 -21.5 -25t-34.5 -10q-21 0 -34 12 t-13 31q0 11 7 22t18 23.5t14 16.5z" />
<glyph unicode="&#x2078;" horiz-adv-x="578" d="M219 372q-79 0 -126.5 26.5t-47.5 71.5q0 38 30 70t73 50q-33 14 -33 49q0 54 66.5 92.5t157.5 38.5q70 0 113.5 -22t43.5 -58t-31 -59q46 -7 78 -28t32 -54q0 -74 -107.5 -125.5t-248.5 -51.5zM340 702h-2q-52 0 -85.5 -16.5t-33.5 -40.5q0 -22 24 -25q62 16 119 16 q12 6 21.5 17t9.5 22q0 12 -15 19.5t-38 7.5zM228 444q83 0 161.5 29t78.5 64q0 31 -89 31q-82 0 -154.5 -27.5t-72.5 -63.5q0 -14 21.5 -23.5t54.5 -9.5z" />
<glyph unicode="&#x2079;" horiz-adv-x="550" d="M331 766q96 0 166 -58q14 -3 24.5 -15t10.5 -26q0 -5 -2 -11q15 -30 15 -60q0 -98 -88.5 -164t-213.5 -66q-73 0 -132 21.5t-59 61.5q0 16 12 26t33 10q13 0 30 -8t24 -16t34 -15.5t56 -7.5q82 0 136.5 37.5t62.5 85.5q2 9 0 19q-31 -29 -87 -47t-114 -18 q-82 0 -127.5 27t-45.5 68q0 68 77.5 112t187.5 44zM324 695q-70 0 -111.5 -21.5t-41.5 -50.5q0 -37 71 -37q61 0 112 19.5t72 45.5q-11 17 -39 30.5t-63 13.5z" />
<glyph unicode="&#x207d;" horiz-adv-x="301" d="M214 821q25 0 45 -16t20 -50q0 -23 -17 -33t-38 -7q-33 -16 -53 -58.5t-20 -107.5q0 -137 77 -176q14 10 31 -2.5t17 -37.5q0 -27 -15 -39.5t-31 -12.5q-32 0 -52 16q-63 34 -93.5 106.5t-30.5 148.5q0 81 36 143.5t84 93.5q4 13 15 22.5t25 9.5z" />
<glyph unicode="&#x207e;" horiz-adv-x="301" d="M112 821q24 0 39 -32q118 -79 118 -237q0 -75 -29.5 -148t-92.5 -107q-26 -16 -57 -16q-15 0 -28 12.5t-13 39.5q0 25 17 37.5t32 2.5q39 20 57 61t18 115q0 132 -72 166q-21 -4 -38 6t-17 34q0 35 21.5 50.5t44.5 15.5z" />
<glyph unicode="&#x2080;" horiz-adv-x="574" d="M225 -122q-88 0 -139 35t-51 104q0 113 96 183.5t214 70.5q89 0 149.5 -40.5t60.5 -105.5q0 -57 -26 -102t-64 -71.5t-85.5 -44t-85.5 -23.5t-69 -6zM240 -49q44 0 88.5 16t80.5 56.5t36 97.5q0 37 -30 57t-83 20q-73 0 -130 -48t-57 -125q0 -35 26 -54.5t69 -19.5z" />
<glyph unicode="&#x2081;" horiz-adv-x="292" d="M223 213v-246q0 -5 2.5 -17.5t2.5 -19.5q0 -21 -21.5 -33.5t-61.5 -12.5q-43 0 -43 28q0 7 3 15t6 13l8 13.5t7 11.5v191q-3 0 -31.5 -21.5t-41.5 -21.5q-15 0 -25 10t-10 25q0 7 3 13.5t11.5 13.5t14.5 11.5t21.5 14.5l24.5 16q15 10 34 26.5t31 23t26 6.5 q17 0 32.5 -9.5t15.5 -23.5q0 -3 -9 -27z" />
<glyph unicode="&#x2082;" horiz-adv-x="498" d="M142 -44l195 6q19 0 19 4q1 15 14.5 25.5t31.5 10.5q24 0 37 -14t13 -37q0 -57 -56 -58l-308 -9q-41 -2 -56.5 7t-15.5 36q0 98 191 161q122 39 122 82q0 30 -74 30q-32 0 -53 -6.5t-29 -13.5t-15 -19q-1 -2 -4 -7t-4 -7t-4.5 -6.5t-6 -6t-7 -4.5t-10 -4t-12.5 -2t-16 -1 q-21 0 -35 11t-14 26q0 14 11 31t35 36t73 31.5t115 12.5q76 0 119.5 -24.5t43.5 -69.5q0 -28 -13 -49.5t-39.5 -38t-50.5 -26.5t-62 -23q-65 -22 -94.5 -39.5t-40.5 -44.5z" />
<glyph unicode="&#x2083;" horiz-adv-x="539" d="M341 198l-183 -16q-2 -50 -47 -50q-41 0 -41 63q0 53 40 53q38 0 163.5 11.5t144.5 11.5q47 0 47 -36q0 -6 -4.5 -14t-14.5 -18.5t-18 -18l-23.5 -21t-21.5 -19.5q50 2 85.5 -24.5t35.5 -74.5q0 -78 -84.5 -125t-206.5 -47q-39 0 -72 7.5t-54 18t-35.5 23t-20.5 22.5 t-6 17q0 18 17 33.5t40 15.5q21 0 42 -29q26 -37 100 -37q76 0 124.5 28.5t48.5 65.5q0 45 -55 45q-34 0 -51.5 -11t-28 -21.5t-26.5 -10.5q-17 0 -28.5 8.5t-11.5 22.5q0 36 42 44q22 5 51.5 30t51.5 53z" />
<glyph unicode="&#x2084;" horiz-adv-x="553" d="M409 209v-142l86 9q16 11 24 10q33 0 33 -40q0 -41 -30 -41q-19 0 -27 8l-86 -10v-49q16 -6 16 -25q0 -46 -79 -46q-24 0 -35.5 12t-11.5 26q0 19 9 25v48l-230 -23q-2 0 -13 -3t-17 -3q-42 0 -42 51q0 20 27 37l269 198q12 31 65 31q21 0 36.5 -10.5t15.5 -26.5 q0 -24 -10 -36zM308 58v122l-189 -141z" />
<glyph unicode="&#x2085;" horiz-adv-x="535" d="M403 201l-256 -12q-3 -29 -8 -64q79 33 178 33q188 0 188 -107q0 -54 -48.5 -95t-114 -59.5t-132.5 -18.5q-90 0 -136 21t-46 55q0 15 15 27t34 12q22 0 47 -18q32 -26 88 -26q83 0 134.5 25.5t51.5 63.5q0 24 -19 36.5t-70 12.5q-67 0 -138 -21q-37 -13 -44 -16 q-27 -10 -35 -10q-51 0 -51 36q0 6 5.5 22.5t6.5 26.5l7 50t6 49q2 32 42 34l292 13q14 12 30 12q18 0 29 -12.5t11 -33.5t-12 -32.5t-29 -11.5q-14 0 -26 8z" />
<glyph unicode="&#x2086;" horiz-adv-x="571" d="M234 -122q-83 0 -146 42q-18 0 -32.5 14t-10.5 34q-22 34 -22 69q0 91 93.5 166t234.5 75q78 0 121.5 -18.5t43.5 -48.5q0 -15 -12 -25.5t-30 -10.5q-21 0 -55 17q-30 15 -77 15q-87 0 -148 -45.5t-67 -99.5q-1 -9 4 -20q47 42 115 71.5t128 29.5q83 0 124.5 -28 t41.5 -68q0 -55 -51.5 -95.5t-118.5 -57t-136 -16.5zM245 -51q69 0 129.5 25.5t60.5 64.5q0 13 -15 23t-45 10q-107 0 -214 -92q11 -12 37 -21.5t47 -9.5z" />
<glyph unicode="&#x2087;" horiz-adv-x="448" d="M328 197l-211 -15l-1 -20q10 -8 10 -20q0 -15 -17 -24.5t-45 -9.5q-19 0 -29.5 12.5t-9.5 34.5l6 59q2 20 11.5 29t32.5 10l273 15q16 1 37.5 10t32.5 9q17 0 31.5 -9.5t14.5 -25.5q0 -14 -25 -45l-170 -237q-14 -20 -31 -59q-6 -15 -21.5 -25t-34.5 -10q-21 0 -34 12 t-13 31q0 11 7 22t18 23.5t14 16.5z" />
<glyph unicode="&#x2088;" horiz-adv-x="578" d="M200 -119q-79 0 -126.5 26.5t-47.5 70.5q0 38 30 70t73 51q-33 14 -33 48q0 54 66.5 92.5t157.5 38.5q70 0 113.5 -22t43.5 -58q0 -33 -30 -59q46 -6 78 -27t32 -54q0 -75 -107.5 -126t-249.5 -51zM320 210q-52 0 -86 -16.5t-34 -40.5q0 -20 23 -25q48 14 120 17 q12 5 21.5 16t9.5 22q0 12 -15.5 19.5t-38.5 7.5zM209 -48q84 0 162.5 28.5t78.5 64.5q0 32 -90 32q-81 0 -154 -27.5t-73 -63.5q0 -14 22 -24t54 -10z" />
<glyph unicode="&#x2089;" horiz-adv-x="550" d="M313 274q96 0 166 -58q14 -3 24.5 -15t10.5 -26q0 -5 -2 -11q15 -30 15 -60q0 -99 -88 -164t-214 -65q-72 0 -131.5 21.5t-59.5 60.5q0 16 12 25.5t33 9.5q14 0 30.5 -7.5t23.5 -15.5q7 -9 33.5 -16t56.5 -7q82 0 136.5 37.5t62.5 85.5q2 9 0 19q-31 -29 -87 -47 t-114 -18q-82 0 -127.5 27t-45.5 68q0 68 77.5 112t187.5 44zM306 203q-70 0 -111.5 -21.5t-41.5 -50.5q0 -37 71 -37q61 0 112 19.5t72 45.5q-11 17 -39 30.5t-63 13.5z" />
<glyph unicode="&#x208d;" horiz-adv-x="301" d="M196 330q25 0 45 -16t20 -50q0 -23 -17 -33t-38 -7q-33 -16 -53 -58.5t-20 -107.5q0 -137 77 -176q14 10 31 -2.5t17 -37.5q0 -27 -15 -39.5t-31 -12.5q-32 0 -52 16q-63 34 -93.5 106.5t-30.5 148.5q0 81 36 143.5t84 93.5q4 13 15 22.5t25 9.5z" />
<glyph unicode="&#x208e;" horiz-adv-x="301" d="M94 330q24 0 39 -32q118 -79 118 -237q0 -75 -29.5 -148t-92.5 -107q-26 -16 -57 -16q-15 0 -28 12.5t-13 39.5q0 25 17 37.5t32 2.5q39 20 57 61t18 115q0 132 -72 166q-21 -4 -38 6t-17 34q0 34 21.5 50t44.5 16z" />
<glyph unicode="&#x20ac;" horiz-adv-x="866" d="M576 218l-340 -15q24 -63 88.5 -98t149.5 -35q89 0 149.5 19t86.5 47q41 41 61 41t38 -16.5t18 -35.5q0 -37 -52 -72q-109 -70 -301 -70q-151 0 -245.5 58.5t-117.5 156.5l-27 -1q-18 -10 -30 -10q-17 0 -27 12.5t-10 32.5q0 19 10.5 30t26.5 11q9 0 21 -3l26 1 q2 35 7 60l-22 -1q-14 -8 -35 -8q-17 0 -26.5 12.5t-9.5 29.5q0 20 10 32t27 12q12 0 25 -5l58 3q52 108 165.5 177.5t249.5 69.5q129 0 205 -38q64 -34 64 -82q0 -19 -19.5 -36.5t-41.5 -17.5q-16 0 -31.5 13.5t-21.5 33.5q-50 40 -153 40q-85 0 -163 -43t-124 -112l367 16 q17 12 37 12q19 0 30.5 -12.5t11.5 -28.5q0 -21 -12 -34t-32 -13q-10 0 -24 4l-418 -19q-9 -30 -9 -60l354 15q16 9 31 9q41 0 41 -37q0 -23 -12 -36.5t-29 -13.5q-13 0 -25 5z" />
<glyph unicode="&#x2113;" horiz-adv-x="866" d="M381 -15q-127 0 -138 131q0 2 -0.5 7t-0.5 7q-20 -10 -31 -16q-29 -27 -60 -27q-22 0 -36 13.5t-14 34.5q0 51 78 58q38 17 63 31q12 311 118 417q44 46 111 46q78 0 131 -47.5t53 -125.5q0 -73 -76 -158t-229 -171q-1 -15 -1 -45q0 -35 11 -52.5t28 -17.5q23 0 51 16.5 t42 36.5q-1 3 -1 9q1 12 14 24.5t37 12.5t40 -15.5t16 -36.5q0 -20 -18 -32q-34 -44 -85 -72t-103 -28zM467 602q-17 0 -34 -15q-28 -29 -49 -107t-29 -193q90 60 139 120t49 107q0 36 -21.5 62t-54.5 26z" />
<glyph unicode="&#x2122;" horiz-adv-x="1055" d="M977 636q0 -10 -4 -18v-246q7 -10 7 -19q0 -43 -65 -43q-38 0 -38 31q0 2 7 23q0 27 0.5 83t0.5 85h-1q-10 -17 -58 -81t-61 -93q-14 -31 -47 -31q-26 0 -37 25q-12 27 -53 87.5t-51 79.5h-2q1 -47 1 -141q4 -8 4 -23q0 -20 -15 -32.5t-43 -12.5q-43 0 -43 43q0 5 4 13.5 t4 9.5v260q-3 14 10.5 27t36.5 13q22 0 36.5 -12t16.5 -23q17 -37 70.5 -112t65.5 -104q13 29 73 106.5t80 118.5q14 26 46 26q23 0 39 -11t16 -29zM280 594v-213q6 -30 6 -36q0 -20 -9.5 -27.5t-30.5 -7.5q-28 0 -45.5 10t-17.5 28q0 13 6 25v213l-117 -11q-20 -8 -22 -8 q-14 0 -24.5 8.5t-10.5 21.5q0 50 62 50l290 25q33 5 37 5q18 0 28 -10.5t10 -24.5q1 -25 -12.5 -33t-41.5 -6z" />
<glyph unicode="&#x2126;" horiz-adv-x="768" d="M632 -1h-145q-6 0 -18.5 -2t-19.5 -2q-24 1 -41 12.5t-17 36.5q0 27 26 55q57 62 76 88q95 112 95 246q0 63 -41.5 109t-105.5 46q-91 0 -154 -71.5t-63 -184.5q0 -50 18 -99t36.5 -76t48.5 -65q19 -26 19 -43q1 -24 -14.5 -40.5t-42.5 -16.5q-15 0 -24 2l-152 -3 q-7 0 -19.5 -4t-18.5 -4q-24 0 -39.5 14.5t-15.5 39.5q0 21 16.5 39t40.5 18q27 0 43 -12l94 1q-43 49 -70.5 117.5t-27.5 136.5q0 142 95.5 240t240.5 98q95 0 169.5 -64.5t74.5 -176.5q0 -94 -43 -176.5t-123 -168.5h93q13 23 46 23q21 0 36.5 -13t15.5 -41q0 -27 -17 -46 t-46 -19q-10 0 -26 6z" />
<glyph unicode="&#x212e;" horiz-adv-x="803" d="M772 309h-600q-5 0 -5 -4v-181q0 -11 8 -21q96 -99 227 -99q143 0 239 111h53q-50 -60 -127.5 -94.5t-165.5 -34.5q-153 0 -261.5 97t-108.5 235q0 139 108.5 236.5t261.5 97.5q154 0 262.5 -97.5t108.5 -236.5v-9zM636 333v182q0 13 -9 22q-97 95 -225 95 q-130 0 -226 -98q-9 -9 -9 -23v-178q0 -6 5 -6h460q4 0 4 6z" />
<glyph unicode="&#x2202;" horiz-adv-x="494" d="M196 71q67 0 120 66t53 193q-31 15 -79 15q-72 0 -122.5 -50.5t-50.5 -132.5q0 -41 21 -66t58 -25zM183 -18q-50 0 -86.5 17.5t-54.5 46t-26 56t-8 54.5q0 118 78.5 197.5t212.5 79.5q33 0 57 -9q-11 61 -47 103.5t-79 42.5q-30 0 -52 -7q-17 -26 -49 -26q-29 0 -43 18 t-14 40q0 23 17 38t40 15q3 0 12 -3q41 13 89 13q63 0 113.5 -34.5t78 -87t41.5 -104.5t14 -96q0 -93 -27.5 -164.5t-72 -111t-94 -59t-100.5 -19.5z" />
<glyph unicode="&#x2206;" horiz-adv-x="612" d="M552 -4l-503 -11q-22 -1 -37.5 12t-16.5 34q-1 22 40 100q75 146 114 235q68 151 91 249q7 31 20 48t41 17q8 0 15 -1.5t12.5 -5t9.5 -6.5t8 -9.5t6.5 -10t5.5 -12.5t4.5 -12t4 -13t3.5 -12q18 -64 123 -280q76 -157 98 -234q19 -15 19 -38q0 -24 -18 -36.5t-40 -13.5z M120 77l363 9q-20 64 -86 202q-72 151 -95 216q-22 -77 -81 -213q-44 -106 -101 -214z" />
<glyph unicode="&#x220f;" horiz-adv-x="823" d="M262 536v-688q6 -14 6 -23q0 -28 -15.5 -44.5t-43.5 -16.5q-30 0 -46.5 16t-16.5 43q0 6 8 30v669l-56 -7q-15 -11 -36 -13q-24 0 -39 15.5t-15 39.5q0 28 17.5 46t46.5 18q13 0 31 -8l71 9q20 15 42 15q12 0 24 -7l476 60q19 11 40 11q24 0 38.5 -13.5t18 -25.5t3.5 -22 q0 -21 -14 -38t-40 -17q-14 0 -31 10l-61 -8v-715q16 -18 16 -34q0 -24 -17 -40.5t-46 -16.5q-61 0 -61 72v721z" />
<glyph unicode="&#x2211;" horiz-adv-x="713" d="M499 639l-306 -4l218 -255q17 -6 27 -21.5t10 -30.5q0 -14 -7 -25.5t-21 -24.5t-18 -18l-233 -297l404 8q15 46 58 46q25 0 38.5 -16t13.5 -37q0 -95 -65 -95q-12 0 -36 6l-457 -8q-12 0 -30.5 -2.5t-26.5 -2.5q-26 0 -41 14.5t-15 37.5q0 8 3.5 16.5t6.5 12.5t11.5 14 t10.5 12l279 355l-251 298q-34 39 -34 58q0 47 62 47l398 6q13 16 37 16q48 0 54 -49q1 -5 6 -27t5 -32q0 -23 -14 -38t-33 -15q-33 0 -47 30q-1 2 -2.5 6t-2.5 8t-2 7z" />
<glyph unicode="&#x2212;" horiz-adv-x="554" d="M124 272h300q3 1 9.5 3.5t11.5 4t9 1.5q42 0 42 -56q0 -55 -43 -55q-17 0 -29 6h-299q-23 -7 -33 -7q-40 0 -40 47q0 61 44 61q16 0 28 -5z" />
<glyph unicode="&#x2215;" horiz-adv-x="404" d="M-86 26q0 7 1.5 13t5.5 11.5t6.5 8t9.5 8t8 6.5l437 540q13 44 41 44q23 0 44.5 -16t21.5 -38q0 -14 -12 -26.5t-23 -13.5l-428 -531q-2 -20 -19.5 -32t-39.5 -12q-53 0 -53 38z" />
<glyph unicode="&#x2219;" horiz-adv-x="258" d="M108 145q-21 0 -38 17.5t-17 48.5q0 27 19.5 50.5t51.5 23.5q55 0 55 -66q0 -30 -17.5 -52t-53.5 -22z" />
<glyph unicode="&#x221a;" horiz-adv-x="549" d="M128 308l-65 -23q-28 -8 -34 -8q-25 0 -38.5 15.5t-13.5 38.5q0 21 16 34.5t37 13.5q11 0 20 -3l65 23q4 10 16 18.5t27 8.5q13 0 24 -8q39 -5 39 -47q0 -7 -5 -17q19 -47 72 -137q46 -74 66 -127q8 86 56 333q38 201 46 285q-10 16 -10 33q0 53 66 53q22 0 40 -13 t18 -37q0 -7 -7 -24t-8 -23q-17 -135 -53 -323q-65 -341 -69 -427q0 -7 2 -18.5t2 -17.5q0 -19 -16.5 -33t-38.5 -14q-42 0 -57 42q-1 3 -4.5 14.5t-5.5 17.5q-26 78 -87 182q-78 135 -100 188z" />
<glyph unicode="&#x221e;" horiz-adv-x="713" d="M539 98q-94 0 -175 77l-22 21q-26 -30 -46 -47q-55 -49 -125 -49q-71 0 -108.5 44t-37.5 113q0 60 37 101.5t111 41.5q87 0 167 -72q46 40 49 43q77 58 167 58q64 0 102 -45.5t38 -118.5q0 -67 -44 -117t-113 -50zM538 190q25 0 45 21.5t20 52.5q0 33 -15 53t-41 20 q-62 0 -116 -50q-8 -6 -25 -23q6 -7 18 -17q60 -57 114 -57zM172 192q38 0 80 44l24 24q-52 48 -103 48q-26 0 -40.5 -15.5t-14.5 -40.5q0 -29 14.5 -44.5t39.5 -15.5z" />
<glyph unicode="&#x222b;" horiz-adv-x="274" d="M198 437v-208q0 -230 -25 -337q-19 -90 -54 -123t-87 -33q-28 0 -52 13.5t-35 36.5q-27 14 -27 40q0 22 18 38.5t41 16.5q20 0 33.5 -11t13.5 -28q0 -1 -0.5 -3.5t-0.5 -4.5q6 -10 15 -10q30 0 43 122q14 102 14 287v208q0 147 21 219q17 60 49.5 83t82.5 23 q37 0 63.5 -21.5t26.5 -47.5t-14 -41t-38 -15q-27 0 -36 18q-2 3 -4 7t-3 7q-5 6 -12 6q-16 0 -23 -43q-10 -53 -10 -199z" />
<glyph unicode="&#x2248;" horiz-adv-x="554" d="M382 258q-37 0 -109 22q-64 18 -96 18q-25 0 -44 -13q-17 -27 -49 -27q-24 0 -38.5 17t-14.5 37q0 28 16.5 45.5t41.5 17.5q6 0 16 -2q33 18 73 18q39 0 95 -18q70 -19 101 -19q28 0 53 14q15 25 47 25q23 0 37.5 -17t14.5 -40q0 -21 -14.5 -39t-36.5 -18q-3 0 -7 0.5 t-5 0.5q-41 -22 -81 -22zM382 58q-40 0 -109 21q-64 18 -96 18q-25 0 -44 -12q-17 -27 -49 -27q-24 0 -38.5 16.5t-14.5 36.5q0 28 16.5 45.5t41.5 17.5q3 0 8.5 -0.5t7.5 -0.5q33 18 73 18q33 0 95 -18q73 -20 101 -20t53 14q16 26 47 26q23 0 37.5 -17t14.5 -40 q0 -21 -14.5 -39t-36.5 -18h-12q-39 -21 -81 -21z" />
<glyph unicode="&#x2260;" horiz-adv-x="554" d="M126 68l15 21h-31q-12 -7 -23 -7q-40 0 -40 47q0 61 44 61q16 0 28 -5h74l58 94h-131q-23 -7 -33 -7q-40 0 -40 47q0 61 44 61q16 0 28 -5h184l41 67q2 52 39 52q23 0 44.5 -16t21.5 -38t-29 -42l-17 -23h34q13 9 23 9q42 0 42 -56q0 -55 -43 -55q-17 0 -29 6h-78 l-59 -94h137q3 1 9.5 3.5t11.5 4t9 1.5q42 0 42 -56q0 -55 -43 -55q-17 0 -29 6h-188l-39 -65q-4 -50 -37 -50q-23 0 -45.5 15.5t-22.5 36.5q0 17 28 42z" />
<glyph unicode="&#x2264;" horiz-adv-x="554" d="M194 336l218 -105q52 6 52 -30q0 -26 -18 -52.5t-39 -26.5q-29 0 -42 25l-249 130q-35 16 -45 32.5t-10 43.5t33 39l271 112q2 14 17 23.5t33 9.5q27 0 45 -20.5t18 -36.5q0 -51 -55 -51zM126 88h285q22 12 31 12q22 0 38 -15.5t16 -42.5q0 -24 -16 -40t-35 -16 q-23 0 -27 14h-284q-15 -17 -41 -17q-17 0 -30.5 16t-13.5 41q0 28 14.5 43t32.5 15q20 0 30 -10z" />
<glyph unicode="&#x2265;" horiz-adv-x="554" d="M348 336l-229 93q-55 0 -55 52q0 16 18 36.5t45 20.5q18 0 33 -9.5t17 -24.5l271 -111q14 -5 23.5 -16.5t9.5 -23.5q0 -27 -10 -43.5t-45 -32.5l-249 -130q-13 -25 -42 -25q-21 0 -39 26.5t-18 52.5q0 38 52 30zM123 88h285q22 12 31 12q22 0 38 -15.5t16 -42.5 q0 -24 -16 -40t-35 -16q-23 0 -27 14h-284q-15 -17 -41 -17q-17 0 -30.5 16t-13.5 41q0 28 14.5 43t32.5 15q20 0 30 -10z" />
<glyph unicode="&#x25ca;" horiz-adv-x="494" d="M239 -18q-47 0 -58 49q-11 42 -65 131l-82 133q-2 3 -10.5 14.5t-12 17t-7.5 15t-4 17.5q0 9 3.5 18.5t8 16l12 17.5l11.5 17q10 17 43.5 67.5t49.5 76.5q55 91 62 123q14 56 58 56q23 0 41.5 -15t15.5 -42q5 -15 16 -37t28.5 -51.5l31.5 -52l38.5 -60.5l34.5 -54 q33 -49 33 -68q0 -11 -5 -21t-14.5 -21.5t-11.5 -15.5l-28 -43.5l-39.5 -61.5t-33.5 -54q-51 -83 -60 -122q-12 -50 -56 -50zM238 140q25 55 73 126l67 107l-58.5 96.5t-71.5 124.5q-27 -55 -77.5 -135t-61.5 -99q13 -23 59 -98q50 -81 70 -122z" />
<glyph unicode="&#xf6c3;" d="M167 -244q-29 0 -29 28q0 18 8.5 24.5t26.5 10.5q43 7 43 50q0 18 -13 22q-47 -8 -47 36q0 34 36 34q37 0 63.5 -25.5t26.5 -66.5q0 -53 -36.5 -83t-78.5 -30z" />
<glyph unicode="&#xf6c9;" d="M347 808l-102 -77q-1 -13 -16 -24.5t-32 -11.5t-28 11t-11 29q0 14 8.5 24.5t18.5 12.5l103 78q-4 17 8.5 27t31.5 10q23 0 34.5 -13t11.5 -30q0 -33 -27 -36z" />
<glyph unicode="&#xf6ca;" d="M360 768l-114 -65q-22 -12 -45 -12t-43 17l-77 65q-20 10 -20 34q0 16 11 26t31 10q22 0 35 -27l72 -57l108 61q12 23 35 23q18 0 31 -11t13 -30q0 -13 -11.5 -22.5t-25.5 -11.5z" />
<glyph unicode="&#xf6cb;" d="M111 705q-20 0 -31.5 18.5t-11.5 42.5q0 26 14.5 43.5t42.5 17.5q23 0 37.5 -11.5t14.5 -32.5q0 -40 -15 -59t-51 -19zM306 708q-24 0 -36.5 15.5t-12.5 40.5q0 27 14 45t39 18q23 0 39 -15t16 -41t-14 -44.5t-45 -18.5z" />
<glyph unicode="&#xf6ce;" d="M174 849l92 -77q15 -1 25 -10.5t10 -24.5q0 -20 -12.5 -31t-33.5 -11q-16 0 -24.5 9t-9.5 19l-99 81q-28 7 -28 37q0 43 43 43q16 0 25.5 -10.5t11.5 -24.5z" />
<glyph unicode="&#xf6cf;" d="M412 803l-98 -93q2 -14 -13.5 -29.5t-37.5 -15.5q-16 0 -26 13t-10 31q0 9 6 18.5t14 12.5l99 93q-6 17 6.5 31.5t37.5 14.5q18 0 31 -13.5t13 -30.5q0 -24 -22 -32zM247 803l-98 -93q2 -14 -13.5 -29.5t-37.5 -15.5q-16 0 -26 13t-10 31q0 9 6 18.5t14 12.5l99 93 q-6 17 6.5 31.5t37.5 14.5q18 0 31 -13.5t13 -30.5q0 -25 -22 -32z" />
<glyph unicode="&#xf6d0;" d="M346 758l-247 -22q-23 -5 -26 -5q-15 0 -24.5 11t-9.5 30q0 18 11 30t24 12q3 0 6.5 -1.5t7.5 -3t6 -2.5l241 21q22 8 27 8q15 0 23.5 -11t8.5 -29q0 -22 -16 -33.5t-32 -4.5z" />
<glyph unicode="&#xf6df;" horiz-adv-x="445" d="M261 140v-119q38 3 58 19q0 32 37 32q55 0 55 -29q0 -39 -46 -63.5t-104 -30.5v-38q11 -17 11 -23q0 -14 -12.5 -24t-36.5 -10q-51 0 -51 27q0 18 10 32v33q-56 2 -87 11q-35 7 -57.5 31.5t-22.5 60.5q0 61 46 100.5t121 54.5v27q-11 7 -11 19q0 16 16 27t46 11 q18 0 29.5 -11.5t11.5 -25.5q0 -11 -13 -20v-19q18 2 32 2q47 0 81 -15t34 -44q0 -18 -17.5 -29t-36.5 -11q-23 0 -33 13q-7 13 -35 13q-8 1 -25 -1zM102 61q0 -36 38 -40q23 -5 42 -4v113q-80 -19 -80 -69z" />
<glyph unicode="&#xf6e0;" horiz-adv-x="445" d="M279 632v-119q38 3 58 19q0 32 37 32q55 0 55 -29q0 -39 -46 -63.5t-104 -30.5v-38q11 -17 11 -23q0 -14 -12.5 -24t-36.5 -10q-51 0 -51 27q0 18 10 32v33q-56 2 -87 11q-35 7 -57.5 31.5t-22.5 60.5q0 61 46 100.5t121 54.5v27q-11 7 -11 19q0 16 16 27t46 11 q18 0 29.5 -11.5t11.5 -25.5q0 -11 -13 -20v-19q18 2 32 2q47 0 81 -15t34 -44q0 -18 -17.5 -29t-36.5 -11q-23 0 -33 13q-7 13 -35 13q-8 1 -25 -1zM120 553q0 -36 38 -40q23 -5 42 -4v113q-80 -19 -80 -69z" />
<glyph unicode="&#xf6e1;" horiz-adv-x="160" d="M41 -199q-30 0 -30 26q0 21 23 21q51 1 51 44q-13 -9 -24 -9q-32 0 -32 43q0 27 14 42t41 15q49 0 49 -81q0 -46 -30.5 -73.5t-61.5 -27.5z" />
<glyph unicode="&#xf6e2;" horiz-adv-x="160" d="M59 293q-30 0 -30 26q0 21 23 21q51 1 51 43q-13 -9 -24 -9q-32 0 -32 43q0 27 14.5 42.5t40.5 15.5q49 0 49 -82q0 -45 -30.5 -72.5t-61.5 -27.5z" />
<glyph unicode="&#xf6e3;" horiz-adv-x="464" d="M266 -93v-19q4 -12 4 -20q0 -18 -14 -31t-32 -13q-19 0 -32.5 10.5t-13.5 27.5q0 6 5 19v19q-85 1 -125.5 22t-40.5 52q0 13 11.5 23.5t28.5 10.5q23 0 33 -17q9 -23 94 -22v78q-41 -12 -75 -12q-37 0 -66 21t-29 58q0 58 51.5 98.5t118.5 47.5v15q-3 7 -3 20 q0 14 10 23.5t31 9.5q46 0 46 -29q0 -8 -4 -20v-13q56 -1 93 -11t48.5 -21t11.5 -23q0 -18 -11 -30.5t-26 -12.5q-17 0 -32 16q-12 14 -84 13v-62q28 8 65 8q44 0 72 -21.5t28 -70.5q0 -58 -50.5 -95.5t-112.5 -48.5zM184 121v71q-35 -6 -56 -22t-22 -37q0 -11 7.5 -17.5 t17.5 -6.5q17 0 53 12zM264 62v-84q33 5 53.5 21.5t20.5 40.5q0 30 -30 30q-18 0 -44 -8z" />
<glyph unicode="&#xf6e4;" horiz-adv-x="464" d="M284 398v-19q4 -12 4 -21q0 -17 -14 -30t-32 -13q-19 0 -32.5 10t-13.5 27q0 9 5 19v19q-85 1 -125.5 22.5t-40.5 52.5q0 13 11.5 23.5t28.5 10.5q23 0 33 -17q9 -23 94 -22v78q-41 -12 -74 -12q-37 0 -66 21t-29 59q0 58 51.5 98.5t117.5 47.5v15q-3 7 -3 20 q0 14 10 23.5t31 9.5q46 0 46 -29q0 -8 -4 -20v-13q56 -1 93 -11t48.5 -21t11.5 -23q0 -18 -11 -30.5t-26 -12.5q-17 0 -32 16q-12 14 -84 13v-62q28 8 65 8q44 0 72 -21.5t28 -70.5q0 -57 -50.5 -95t-112.5 -50zM202 612v71q-35 -5 -56 -21t-21 -38q0 -11 7.5 -17.5 t17.5 -6.5q16 0 52 12zM282 553v-83q33 6 53.5 21.5t20.5 39.5q0 30 -30 30q-23 0 -44 -8z" />
<glyph unicode="&#xf6e5;" horiz-adv-x="301" d="M194 1l-105 -7q-11 -14 -34 -14q-14 0 -26 13.5t-12 35.5q0 23 13 36.5t28 13.5t25 -8l106 7q16 9 25 9q18 0 33 -13t15 -36t-14 -36t-30 -13q-17 0 -24 12z" />
<glyph unicode="&#xf6e6;" horiz-adv-x="301" d="M213 493l-105 -7q-10 -14 -34 -14q-14 0 -26 13.5t-12 35.5q0 23 13 36.5t28 13.5t25 -8l106 7q16 9 25 9q18 0 33 -13t15 -36t-14 -36t-30 -13q-17 0 -24 12z" />
<glyph unicode="&#xf6e7;" horiz-adv-x="160" d="M73 -118q-18 0 -32.5 13.5t-14.5 37.5q0 21 16 38.5t42 17.5q48 0 48 -51q0 -23 -14.5 -39.5t-44.5 -16.5z" />
<glyph unicode="&#xf6e8;" horiz-adv-x="160" d="M92 373q-18 0 -32.5 14t-14.5 38q0 21 16 39t42 18q48 0 48 -52q0 -23 -14.5 -40t-44.5 -17z" />
<glyph unicode="&#xf6f4;" d="M201 528q-69 0 -115 40t-46 85q0 25 9 35.5t30 10.5q33 0 33 -34q0 -22 23 -44.5t64 -22.5q89 0 114 59q-3 11 -3 21q0 12 13.5 19.5t29.5 7.5q18 0 29 -9.5t11 -24.5q0 -21 -10 -31q-19 -49 -65.5 -80.5t-116.5 -31.5z" />
<glyph unicode="&#xf6f5;" d="M360 609l-114 -64q-22 -13 -45 -13t-43 17l-77 65q-20 10 -20 34q0 16 11 26t31 10q22 0 35 -27l72 -57l108 61q12 23 35 23q18 0 31 -11t13 -30q0 -13 -11.5 -22.5t-25.5 -11.5z" />
<glyph unicode="&#xf6f6;" d="M276 689l87 -93q1 -1 6.5 -5t8.5 -6.5t7 -7t6 -9.5t2 -11q0 -17 -14.5 -28.5t-39.5 -11.5q-16 0 -25 13t-7 27l-78 82l-111 -87q1 -13 -8.5 -24t-25.5 -11q-18 0 -33 13t-15 27q0 30 34 43l119 95q24 20 41 20q20 0 46 -26z" />
<glyph unicode="&#xf6f7;" d="M211 536q-24 0 -37 13.5t-13 35.5q0 43 17 69.5t46 26.5q54 0 54 -48q0 -46 -19 -71.5t-48 -25.5z" />
<glyph unicode="&#xf6f8;" d="M412 644l-98 -92q2 -14 -13.5 -30t-37.5 -16q-16 0 -26 13t-10 31q0 10 6 19.5t14 11.5l99 94q-6 17 6.5 31t37.5 14q18 0 31 -13.5t13 -30.5q0 -23 -22 -32zM247 644l-98 -92q2 -14 -13.5 -30t-37.5 -16q-16 0 -26 13t-10 31q0 10 6 19.5t14 11.5l99 94q-5 17 7 31 t37 14q18 0 31 -13t13 -31q0 -23 -22 -32z" />
<glyph unicode="&#xf6f9;" horiz-adv-x="523" d="M217 303l62 35q11 17 35 17q17 0 31.5 -12t14.5 -32q0 -15 -15.5 -29.5t-39.5 -7.5l-88 -47v-143l222 22q32 12 34 12q15 0 30 -11t15 -31q0 -29 -13.5 -44t-27.5 -15q-16 0 -28 4l-244 -25q-3 0 -19 -3.5t-24 -3.5q-64 0 -64 51q0 17 11 30v107l-27 -15q-1 -7 -12 -11.5 t-24 -4.5q-35 0 -35 39q0 19 9 32.5t21 13.5q13 0 18 -2l50 26v139q-6 4 -6 25q0 29 20 42t46 13q23 0 39.5 -12.5t16.5 -38.5q0 -14 -8 -28v-92z" />
<glyph unicode="&#xf6fa;" horiz-adv-x="1046" d="M647 363v-88l248 24q2 0 12.5 5t15.5 5q43 0 43 -43q0 -14 -1.5 -20.5t-13 -14.5t-34.5 -10l-270 -26v-113l327 31q21 2 38 -9t17 -36q0 -46 -44 -46q-18 0 -32 8l-304 -29q-32 -16 -69 -16q-20 0 -36.5 11.5t-16.5 33.5t10 37l-1 24q-53 -51 -121.5 -77.5t-175.5 -26.5 q-98 0 -155.5 55.5t-57.5 142.5q0 85 59 158t148 113t181 40q69 0 125 -39l1 4q3 12 16.5 20.5t37.5 8.5q29 0 47.5 -14.5t11.5 -32.5l309 35q21 3 36 -6.5t15 -31.5t-13 -36t-33 -14q-4 0 -17.5 3.5t-18.5 3.5zM261 67q90 0 167.5 41.5t110.5 107.5v120q-12 35 -49.5 57 t-90.5 22q-103 0 -181 -64t-78 -160q0 -61 32.5 -92.5t88.5 -31.5z" />
<glyph unicode="&#xf6fb;" d="M189 -182q-54 0 -89.5 28.5t-35.5 78.5q0 59 57.5 109t110.5 51q7 12 36 12q12 0 20.5 -9t8.5 -21q0 -17 -11.5 -29.5t-27.5 -12.5q-53 0 -95 -45q-24 -27 -24 -57q0 -18 16 -29.5t37 -11.5q46 0 62 19q-2 2 -2 9q0 6 8.5 11.5t21.5 5.5q33 0 33 -39q0 -25 -36 -47.5 t-90 -22.5z" />
<glyph unicode="&#xf6fc;" d="M216 530q-34 0 -56 28.5t-22 73.5q0 39 37.5 68t70.5 29q38 0 63 -25.5t25 -73.5q0 -45 -39 -72.5t-79 -27.5zM225 587q16 0 32.5 13t16.5 30q0 42 -28 42q-17 0 -32.5 -13t-15.5 -33q0 -39 27 -39z" />
<glyph unicode="&#xf6fd;" horiz-adv-x="705" d="M387 479q94 0 148.5 -19.5t54.5 -54.5q0 -17 -15.5 -31t-35.5 -14q-47 0 -60 27q-31 12 -89 12q-89 0 -158.5 -32.5t-69.5 -64.5q0 -27 40 -27q44 0 129 18q98 19 182 19q68 0 108 -27.5t40 -78.5q0 -70 -88 -130q-115 -87 -333 -87q-93 0 -141 30.5t-48 64.5 q0 24 16.5 38.5t45.5 14.5q10 0 20 -6t15.5 -12t13.5 -16.5t10 -13.5q24 -19 75 -19q67 0 134 15.5t108 39.5q59 35 59 71q0 33 -51 33q-52 0 -158 -19q-104 -18 -156 -18q-135 0 -135 99q0 67 104.5 127.5t234.5 60.5zM498 609l-114 -64q-22 -13 -44 -13q-21 0 -44 17 l-77 65q-20 10 -20 34q0 16 11 26t31 10q22 0 36 -27l71 -57l108 61q12 23 36 23q17 0 30 -11t13 -30q0 -13 -11.5 -22.5t-25.5 -11.5z" />
<glyph unicode="&#xf6fe;" d="M286 550q-54 0 -88 40q-24 26 -45 26q-34 0 -47 -36q-14 -26 -37 -26q-22 0 -32.5 11.5t-10.5 27.5q0 5 7.5 14t8.5 11q22 36 48.5 51.5t69.5 15.5q33 0 70 -35q33 -33 61 -33q20 0 30 12.5t7 27.5q-1 15 10.5 23.5t27.5 8.5q19 0 30.5 -10t11.5 -20q0 -11 -5 -19 q-14 -44 -40.5 -67t-76.5 -23z" />
<glyph unicode="&#xf6ff;" horiz-adv-x="630" d="M459 397l-311 -16q-7 -23 -23.5 -36t-34.5 -13q-40 0 -40 45q0 42 18.5 74t47.5 32t33 -18l269 10q18 1 45 3l47 3.5t38 1.5q55 0 55 -38q0 -28 -12 -45.5t-44 -37.5l-393 -285l341 6q1 27 18 42t36 15q17 0 32.5 -17t15.5 -54q0 -70 -63 -70q-14 0 -77.5 0.5t-98.5 0.5 q-78 0 -135 -3q-55 -3 -111 -3q-42 0 -63 12t-21 44q0 44 47 71zM466 609l-113 -64q-24 -12 -45 -12q-23 0 -43 16l-77 66q-20 9 -20 33q0 16 11 26t31 10q22 0 35 -27l71 -56l109 60q12 23 35 23q18 0 31 -11t13 -30q0 -13 -12 -22.5t-26 -11.5z" />
<glyph unicode="&#xf721;" horiz-adv-x="229" d="M167 418v-199q8 -9 8 -37q0 -16 -24 -29t-51 -13q-24 0 -36.5 16.5t-12.5 34.5q0 11 10 34v188q-13 17 -13 39t18 33t63 11q26 0 37.5 -9t11.5 -34q0 -17 -11 -35zM98 -13q-17 0 -30.5 16t-13.5 34q0 29 21.5 53t49.5 24q45 0 45 -61q0 -36 -16.5 -51t-55.5 -15z" />
<glyph unicode="&#xf726;" horiz-adv-x="672" d="M373 264l95 -74q34 38 39 66q1 11 11 19.5t27 8.5q28 0 45.5 -15.5t17.5 -36.5q0 -22 -26 -30q-22 -36 -45 -61q2 -1 13 -10l21.5 -17t13.5 -8q4 0 22.5 12t29.5 12q37 0 37 -36q0 -24 -35 -59t-66 -35q-14 0 -24.5 7t-12.5 20l-62 46q-101 -89 -262 -89q-88 0 -137.5 34 t-49.5 102q0 119 157 164q-56 46 -56 101q0 43 44 72.5t127 29.5q190 0 190 -103q0 -73 -114 -120zM297 410q-26 0 -45.5 -8t-19.5 -24q0 -9 9.5 -20.5t20 -19l34.5 -23.5q41 11 63.5 28t22.5 35q0 32 -85 32zM401 126l-141 102q-124 -36 -124 -100q0 -27 25.5 -43t61.5 -16 q106 0 178 57z" />
<glyph unicode="&#xf730;" horiz-adv-x="696" d="M651 256q0 -109 -112.5 -191t-252.5 -82q-121 0 -181.5 51.5t-60.5 135.5q0 71 53 136t134 103.5t164 38.5q111 0 183.5 -53t72.5 -139zM540 259q0 46 -39 76.5t-107 30.5q-88 0 -163.5 -59t-75.5 -137q0 -46 39.5 -75.5t95.5 -29.5t113.5 25.5t97 71t39.5 97.5z" />
<glyph unicode="&#xf731;" horiz-adv-x="454" d="M330 394v-338q7 -9 7 -21q0 -17 -17 -29t-50 -12q-29 0 -43 11.5t-14 27.5q0 17 9 28v272l-81 -40q-15 -27 -45 -27q-21 0 -34 15t-13 36q0 31 35 44l156 75q36 18 50 18q21 0 33 -11.5t12 -26.5q0 -14 -5 -22z" />
<glyph unicode="&#xf732;" horiz-adv-x="619" d="M585 73l-8 -36q-3 -18 -17 -28.5t-34 -10.5q-16 0 -38 5l-372 -7q-22 -6 -40 -6q-16 0 -27 11t-11 27q0 11 8 20.5t17.5 15t29.5 15.5q165 80 247 157q49 45 49 80q0 23 -23 38.5t-67 15.5t-86.5 -13t-65.5 -31l-6 -15q-5 -11 -18.5 -19.5t-29.5 -8.5q-21 0 -34 14.5 t-13 36.5q0 17 14 33.5t36 26.5q36 25 92.5 41.5t111.5 16.5q96 0 147.5 -36t51.5 -90q0 -75 -95 -154q-56 -48 -141 -95l226 9q4 8 6 13q14 25 48 25q22 0 34 -14t8 -37z" />
<glyph unicode="&#xf733;" horiz-adv-x="625" d="M162 228l67 12q42 14 98 52t56 61q0 22 -39 22q-38 0 -87.5 -13.5t-82.5 -30.5q-24 -33 -54 -33q-25 0 -38 14t-13 34q0 40 58 53q120 59 239 59q58 0 91.5 -23t33.5 -58q0 -71 -100 -133h9q63 -1 111.5 -34.5t48.5 -97.5q0 -74 -63 -140.5t-155.5 -104t-181.5 -37.5 q-66 0 -105.5 28.5t-39.5 67.5q0 23 16.5 37.5t42.5 14.5q25 0 38 -12.5t13 -27.5q0 -7 -1 -12q11 -11 44 -11q95 0 188.5 63t93.5 127q0 61 -114 61q-49 0 -91 -10q-63 -14 -73 -14q-24 0 -37 12t-13 31q0 35 40 43z" />
<glyph unicode="&#xf734;" horiz-adv-x="673" d="M487 49v-151q8 -14 8 -33t-20 -32t-50 -13q-57 0 -57 38q0 19 11 37v146l-303 -21q-20 -5 -24 -5q-49 0 -49 49q0 19 27 44l345 304q4 8 5 11q8 34 57 34q58 0 58 -46q0 -6 -4 -19t-4 -18v-242l68 7q16 14 34 14q50 0 50 -47q0 -24 -14.5 -40t-34.5 -16q-14 0 -27 5z M379 124v182l-230 -201z" />
<glyph unicode="&#xf735;" horiz-adv-x="619" d="M206 351l-25 -119q31 17 77 29.5t87 12.5q100 0 155 -45.5t55 -116.5q0 -81 -54 -147t-133.5 -100.5t-162.5 -34.5q-75 0 -122 28t-47 65q0 22 15 34.5t35 12.5q34 1 50 -26q2 -5 8 -15q5 -4 23 -9t31 -5q49 0 104.5 20.5t99.5 66t44 104.5q0 38 -29 60.5t-80 22.5 q-88 0 -178 -64q-31 -21 -50 -21q-21 0 -34.5 10t-13.5 27q0 9 5 19.5t6 14.5l43 203q-4 27 14.5 43t44.5 16q15 0 25 -2l253 13q27 9 42 9q23 0 35 -15t12 -35q0 -23 -14 -37t-33 -14q-17 0 -31 7z" />
<glyph unicode="&#xf736;" horiz-adv-x="700" d="M648 247q0 -75 -53 -135.5t-127.5 -90.5t-149.5 -30q-123 0 -185 79q-29 8 -36 27q-6 11 -6 27q-23 51 -23 106q0 84 36 158t93.5 124t129 79t143.5 29q62 0 99.5 -22.5t37.5 -55.5q0 -23 -14 -38t-35 -15q-40 0 -49 32q-2 4 -2 7q-11 9 -38 9q-102 0 -187.5 -69.5 t-102.5 -174.5q-2 -14 0 -23q46 60 118.5 98t149.5 38q98 0 149.5 -43t51.5 -116zM540 246q0 33 -25.5 54t-75.5 21q-71 0 -146.5 -51t-99.5 -112q13 -38 47 -61t78 -23q95 0 158.5 51.5t63.5 120.5z" />
<glyph unicode="&#xf737;" horiz-adv-x="610" d="M158 337l-5 -21q5 -8 5 -18q0 -19 -17 -31t-45 -12q-21 0 -36 10.5t-15 29.5q0 16 9 26l14 55q7 27 19 37t45 12l366 20q8 0 12 4q21 15 47 15q21 0 34.5 -12t13.5 -28q0 -28 -32 -56q-14 -14 -160 -235t-153 -240q-22 -67 -66 -67q-25 0 -39.5 15.5t-14.5 38.5 q0 28 33 74l274 403q-10 -2 -15 -2z" />
<glyph unicode="&#xf738;" horiz-adv-x="681" d="M641 271q0 -49 -30 -99.5t-81 -90.5q-57 -45 -132 -72t-147 -27q-101 0 -157.5 39t-56.5 112q0 60 41.5 112t111.5 89q-74 28 -74 99q0 58 45 102t103 63.5t112 19.5q91 0 142.5 -32t51.5 -93q0 -56 -67 -101q63 -8 100.5 -40.5t37.5 -80.5zM466 488q0 22 -23.5 35 t-64.5 13q-67 0 -112 -30t-45 -70q0 -23 18 -36.5t51 -14.5q25 3 32 4q38 8 52 10q40 13 66 37.5t26 51.5zM529 258q0 28 -26.5 46t-83.5 18q-85 0 -167 -47q-45 -25 -74 -63.5t-29 -75.5q0 -31 29 -49.5t76 -18.5q46 0 103.5 21.5t101.5 54.5q70 57 70 114z" />
<glyph unicode="&#xf739;" horiz-adv-x="683" d="M621 194q0 -54 -16.5 -107.5t-50.5 -102t-80 -86t-109.5 -59.5t-134.5 -22q-72 0 -111 22t-39 55q0 20 15 34t38 14q36 0 48 -27q2 -4 2 -7q18 -8 50 -8q93 0 174 63.5t96 154.5q1 6 1 18q-27 -33 -61 -54q-86 -52 -198 -52q-89 0 -140.5 41t-51.5 114q0 107 97.5 184 t221.5 77q155 0 221 -126q11 -5 19.5 -17t8.5 -23q0 -12 -5 -24q5 -38 5 -62zM362 363q-78 0 -139.5 -50t-61.5 -121q0 -33 26 -54t73 -21q90 0 167 51q49 35 74 82q-9 49 -46.5 81t-92.5 32z" />
<glyph unicode="&#xf73f;" horiz-adv-x="490" d="M246 117q-70 0 -100 19.5t-30 68.5q0 38 36.5 63t119.5 59q61 25 82.5 38.5t21.5 26.5q0 26 -76 26q-84 0 -158 -37q0 -24 -15 -41t-32 -17q-29 0 -46.5 15.5t-17.5 41.5q0 34 26 45q35 28 99.5 49.5t152.5 21.5q85 0 131 -26t46 -62q0 -41 -33.5 -70t-118.5 -66 q-76 -32 -97 -43.5t-21 -21.5q0 -17 32 -17q23 0 45 7.5t24 13.5q23 21 53 21q16 0 27 -9t11 -24q0 -34 -45 -58t-117 -24zM232 -33q-20 0 -35.5 16.5t-15.5 46.5q0 25 18.5 46.5t46.5 21.5q52 0 52 -62q0 -29 -17.5 -49t-48.5 -20z" />
<glyph unicode="&#xf760;" d="M174 691l92 -77q15 -1 25 -10.5t10 -24.5q0 -20 -12.5 -31t-33.5 -11q-16 0 -24.5 9t-9.5 19l-99 81q-28 7 -28 37q0 43 43 43q16 0 25.5 -10.5t11.5 -24.5z" />
<glyph unicode="&#xf761;" horiz-adv-x="703" d="M488 177l-272 -13q-73 -88 -74 -99q-1 -5 0 -15t1 -14q0 -15 -14.5 -27.5t-48.5 -12.5q-63 0 -63 47q0 20 54 89l197 248q32 36 39 55q-2 24 18 40t52 16q19 0 35 -9.5t16 -24.5q0 -5 -1.5 -13t-1.5 -12q0 -12 113 -163q144 -199 144 -223q0 -50 -61 -50q-62 0 -62 38 q0 5 1.5 13.5t1.5 11.5q0 6 -74 118zM272 238l170 8l-77 119z" />
<glyph unicode="&#xf762;" horiz-adv-x="707" d="M78 72v317q-10 13 -10 34q0 25 22 37t49 12q18 0 31 -8.5t15 -21.5q38 16 112 27.5t130 12.5q70 0 111.5 -21.5t41.5 -53.5q0 -60 -78 -94v-1q11 2 26 2q57 0 98.5 -26t41.5 -62q0 -58 -63 -105.5t-154.5 -73.5t-178.5 -40t-151 -14q-60 0 -60 45q0 26 17 34zM186 361 v-68q88 6 185.5 35t97.5 55q0 20 -80 20q-43 0 -106 -12.5t-97 -29.5zM186 188v-107q138 6 253.5 46t115.5 86q0 8 -8.5 16t-33.5 15t-61 7q-41 0 -119.5 -12.5t-111.5 -21.5q-25 -7 -30 -11t-5 -18z" />
<glyph unicode="&#xf763;" horiz-adv-x="634" d="M365 482q96 0 154 -27.5t58 -68.5q0 -18 -17.5 -32t-43.5 -14q-36 0 -48 36q-4 11 -31.5 18.5t-62.5 7.5q-94 0 -159 -63.5t-65 -142.5q0 -55 38 -89.5t101 -34.5q101 0 163 60q8 44 60 44q27 0 43 -13t16 -26q0 -24 -21 -45q-45 -42 -123.5 -73.5t-148.5 -31.5 q-109 0 -171.5 53t-62.5 159q0 110 96 196.5t225 86.5z" />
<glyph unicode="&#xf764;" horiz-adv-x="698" d="M77 75v321q-11 18 -11 36q0 19 21 31.5t53 12.5q23 0 35 -13.5t10 -30.5q114 47 228 48q110 0 177 -49t67 -117q0 -130 -152 -222q-84 -49 -192 -75.5t-188 -26.5q-58 0 -58 48q0 19 10 37zM185 343v-259q56 2 132 23.5t125 51.5q45 30 74 67t29 73q0 41 -36 68.5 t-110 27.5q-98 0 -214 -52z" />
<glyph unicode="&#xf765;" horiz-adv-x="623" d="M187 190v-111l317 20q15 13 33 13q24 0 39.5 -12.5t15.5 -28.5q0 -33 -17.5 -43t-59.5 -10l-325 -20q-17 -19 -59 -19q-27 0 -45.5 14t-18.5 40q0 19 12 43v104q-14 14 -14 44q0 25 14 41v94q-17 15 -17 41q0 28 13 41q-5 7 -5 12q0 15 17 24.5t40 9.5q28 0 44.5 -11 t14.5 -24l279 18q19 14 38 14q25 0 39.5 -13.5t14.5 -32.5q0 -27 -15.5 -42.5t-41.5 -15.5q-24 0 -37 8l-276 -18v-100l223 21q18 14 37 14q24 0 39.5 -14.5t15.5 -35.5q0 -24 -15 -37t-40 -13q-19 0 -30 8z" />
<glyph unicode="&#xf766;" horiz-adv-x="574" d="M187 190v-116q9 -16 9 -31q0 -21 -19.5 -34t-48.5 -13q-64 0 -64 41q0 30 15 45v93q-14 19 -14 43q0 26 14 45v89q-5 3 -10.5 16.5t-5.5 26.5q0 38 19 44q-1 17 21 28t47 11q22 0 32.5 -9t5.5 -21l266 31q3 0 14 4.5t20 4.5q26 0 40 -12t14 -30q0 -32 -12 -44t-41 -12 q-14 0 -38 8l-264 -31v-96l253 31q20 8 39 8q15 0 26 -15t11 -32q0 -50 -49 -50q-16 0 -32 7z" />
<glyph unicode="&#xf767;" horiz-adv-x="725" d="M480 489q62 0 103 -19q27 -10 47 -29t20 -33q0 -22 -14.5 -35t-38.5 -13q-8 0 -15 3t-10.5 6t-9.5 10t-8 9q-30 19 -93 19q-81 0 -168 -45q-62 -33 -101 -79.5t-39 -100.5q0 -56 39 -84.5t101 -28.5q60 0 121 15.5t102 42.5q51 36 64 84q-28 -8 -87.5 -17.5t-84.5 -9.5 q-14 0 -25.5 11.5t-11.5 27.5q0 45 46 45q51 0 136.5 14t92.5 14q43 0 43 -43q0 -25 -12.5 -56.5t-43.5 -69t-75.5 -68.5t-118 -51.5t-162.5 -20.5q-115 0 -175.5 53.5t-60.5 140.5q0 79 56 143t144 108q116 57 239 57z" />
<glyph unicode="&#xf768;" horiz-adv-x="703" d="M190 200v-130q7 -21 7 -30q0 -16 -15.5 -30t-36.5 -14q-37 0 -55 12.5t-18 27.5q0 17 10 33v126q-17 7 -17 34q0 46 17 50v126q-7 16 -7 26q0 16 21.5 29.5t51.5 13.5q17 0 33.5 -12t16.5 -27q0 -16 -8 -32v-119l330 21v89q-8 14 -8 35q0 19 18.5 32t41.5 13 q22 0 43 -12.5t21 -27.5q0 -20 -8 -31v-336q8 -16 8 -36q0 -15 -22 -25t-43 -10q-22 0 -41.5 13.5t-19.5 29.5q0 17 10 35v147z" />
<glyph unicode="&#xf769;" horiz-adv-x="265" d="M187 384v-307q12 -16 12 -31q0 -21 -20 -35.5t-49 -14.5t-46 15t-17 39q0 17 12 32v309q-11 12 -11 28q0 26 20 40.5t57 14.5q24 0 40.5 -14.5t16.5 -36.5q0 -26 -15 -39z" />
<glyph unicode="&#xf76a;" horiz-adv-x="599" d="M520 381v-239q0 -92 -110 -147q-68 -35 -172 -35q-90 0 -147 46t-57 110q0 25 14.5 44t37.5 19q30 0 48 -16t18 -37q0 -18 -15 -33q5 -21 33.5 -35.5t71.5 -14.5q67 0 115 28q55 33 55 78v226q-14 11 -14 39q0 32 19.5 45t44.5 13q28 0 46.5 -15.5t18.5 -40.5 q0 -27 -7 -35z" />
<glyph unicode="&#xf76b;" horiz-adv-x="612" d="M187 219v-146q8 -10 10 -27q-1 -51 -63 -51q-28 0 -46.5 13.5t-18.5 35.5q0 20 10 31v324q-8 3 -8 24q0 23 16 37t39 14t45.5 -10.5t22.5 -35.5q0 -16 -7 -25v-75h1q18 14 48 28l195 92q15 24 44 24q14 0 32.5 -11t18.5 -32q0 -19 -15.5 -37t-37.5 -17l-211 -98l279 -194 q17 1 29.5 -11.5t12.5 -25.5q0 -18 -18.5 -36t-53.5 -18q-16 0 -28 6t-11 17l-233 162q-34 25 -51 42h-1z" />
<glyph unicode="&#xf76c;" horiz-adv-x="508" d="M187 395v-311l222 22q32 12 34 12q15 0 30 -11t15 -31q0 -29 -13.5 -44t-27.5 -15q-16 0 -28 4l-244 -25q-3 0 -19 -3.5t-24 -3.5q-64 0 -64 51q0 17 11 30v324q-6 4 -6 25q0 29 20 42t46 13q23 0 39.5 -12.5t16.5 -38.5q0 -12 -8 -28z" />
<glyph unicode="&#xf76d;" horiz-adv-x="851" d="M77 74v359q-1 16 17 28t41 12q24 0 39 -11.5t16 -31.5q3 -24 48 -73.5l99.5 -113t73.5 -114.5h2q12 35 51.5 79t80 78t74.5 70t38 59q0 5 -1.5 15t-1.5 14q0 15 15.5 23.5t40.5 8.5q31 0 49 -13t18 -33q0 -19 -4 -28v-333q7 -11 7 -25q0 -24 -18.5 -36t-46.5 -12 q-55 0 -55 40q0 16 9 27q0 150 3 223h-3q-17 -24 -68.5 -79t-90 -102t-40.5 -72q-1 -33 -64 -33q-66 0 -66 45q0 25 -25 64t-73.5 98t-63.5 80h-6q4 -67 4 -210q9 -12 9 -34q0 -47 -56 -47q-26 0 -42.5 12t-16.5 36q0 18 7 30z" />
<glyph unicode="&#xf76e;" horiz-adv-x="688" d="M79 68v331q-6 11 -6 27q0 19 16 33.5t48 14.5q53 0 53 -37q0 -21 36 -62q49 -53 154 -121q104 -69 128 -101h2q-2 84 -2 263q0 1 -2 5t-3.5 9t-1.5 9q0 43 53 43q24 0 43.5 -10t19.5 -26q0 -11 -8 -31v-353q11 -13 11 -27q0 -39 -53 -39q-32 0 -67 39q-69 67 -183 147 q-105 69 -137 116h-1q2 -144 2 -230q8 -19 8 -30q0 -19 -14 -30.5t-38 -11.5q-67 0 -67 48q0 12 9 24z" />
<glyph unicode="&#xf76f;" horiz-adv-x="703" d="M409 495q113 0 180.5 -57.5t67.5 -169.5q0 -120 -110.5 -200.5t-268.5 -80.5q-65 0 -114 18t-75 47.5t-38.5 61.5t-12.5 65q0 114 113.5 215t257.5 101zM400 413q-90 0 -169.5 -73t-79.5 -150q0 -52 38 -86.5t108 -34.5q96 0 172.5 57t76.5 137q0 74 -39.5 112t-106.5 38 z" />
<glyph unicode="&#xf770;" horiz-adv-x="635" d="M82 71v218q-22 12 -22 41q0 41 22 55v18q-4 10 -4 22q0 19 18.5 32t35.5 13q30 0 45 -11.5t13 -30.5v-10q135 55 272 55q147 0 147 -96q0 -57 -62 -106.5t-155 -80t-202 -44.5v-83q10 -20 10 -24q0 -22 -15.5 -32.5t-57.5 -10.5q-22 0 -38 11.5t-16 31.5q0 14 9 32z M190 334v-108q136 21 221.5 58.5t85.5 75.5q0 28 -66 28q-46 0 -114 -14.5t-127 -39.5z" />
<glyph unicode="&#xf771;" horiz-adv-x="731" d="M451 493q100 0 165.5 -52.5t65.5 -144.5q0 -56 -23 -109t-61 -88q34 -29 62 -44q43 -4 43 -36q0 -24 -21 -42.5t-43 -18.5q-24 0 -37 21q-17 8 -87 61q-95 -51 -236 -51q-107 0 -172.5 42.5t-65.5 138.5q0 87 59.5 162.5t154 118t196.5 42.5zM444 410q-62 0 -128 -29.5 t-113.5 -84.5t-47.5 -119q0 -51 37.5 -78t90.5 -27q99 0 152 32q-43 34 -79 47q-11 10 -12 29t15 37.5t41 18.5q22 0 42 -16q7 -5 32.5 -25l43.5 -33q51 48 51 126q0 55 -35.5 88.5t-89.5 33.5z" />
<glyph unicode="&#xf772;" horiz-adv-x="649" d="M69 47q0 14 10 30v226q-4 -2 -8 -2q-23 0 -23 37q0 38 31 51v22q-6 14 -6 26q0 25 17 38t43 13q28 0 42 -15.5t12 -39.5v-11q133 51 249 51q61 0 102 -23.5t41 -62.5q0 -66 -69.5 -105t-218.5 -63l296 -130q22 7 44.5 -5t22.5 -36q0 -27 -16 -42t-40 -15q-31 0 -45 20 l-367 160v-98q7 -14 7 -24q0 -53 -68 -53q-27 0 -41.5 14t-14.5 37zM186 345v-76q146 22 213.5 46t67.5 56q0 22 -53 22q-108 0 -228 -48z" />
<glyph unicode="&#xf773;" horiz-adv-x="705" d="M387 479q94 0 148.5 -19.5t54.5 -54.5q0 -17 -15.5 -31t-35.5 -14q-47 0 -60 27q-31 12 -89 12q-89 0 -158.5 -32.5t-69.5 -64.5q0 -27 40 -27q44 0 129 18q98 19 182 19q68 0 108 -27.5t40 -78.5q0 -70 -88 -130q-115 -87 -333 -87q-93 0 -141 30.5t-48 64.5 q0 24 16.5 38.5t45.5 14.5q10 0 20 -6t15.5 -12t13.5 -16.5t10 -13.5q24 -19 75 -19q67 0 134 15.5t108 39.5q59 35 59 71q0 33 -51 33q-52 0 -158 -19q-104 -18 -156 -18q-135 0 -135 99q0 67 104.5 127.5t234.5 60.5z" />
<glyph unicode="&#xf774;" horiz-adv-x="578" d="M340 380v-315q7 -14 7 -22q0 -47 -69 -47q-51 0 -51 42q0 18 5 31v295l-130 -21q-13 -8 -28 -8q-49 0 -49 47q0 21 14 36t32 15q11 0 29 -9l146 22q12 15 40 18t37 -5l174 26q20 5 29 5q26 0 38.5 -13.5t12.5 -33.5t-12.5 -33t-36.5 -13q-10 0 -29 7z" />
<glyph unicode="&#xf775;" horiz-adv-x="654" d="M257 -12q-80 0 -130.5 39.5t-50.5 90.5v290q-13 27 3.5 45.5t51.5 18.5q29 0 40.5 -18.5t11.5 -38.5v-302q7 -15 29 -26t49 -11q47 0 89 11t67 26.5t39 30t14 24.5v242q-8 6 -8 20q0 22 18.5 35t47.5 13q21 0 37 -12.5t16 -31.5q0 -10 -3 -18v-261q-1 -22 -29.5 -54.5 t-73.5 -57.5q-91 -55 -218 -55z" />
<glyph unicode="&#xf776;" horiz-adv-x="609" d="M250 151h2q24 42 53.5 79.5t50.5 60l61 63l64 65.5q15 27 30.5 38t41.5 11q18 0 33.5 -15t15.5 -35q0 -26 -25 -49q-153 -129 -193 -183q-82 -107 -82 -139q0 -21 -18 -37t-53 -15q-26 -1 -43.5 12t-16.5 24q0 9 2 22t2 21q0 10 -2 20t-7 22.5l-8.5 21.5t-13.5 25.5 l-15 25l-18.5 30l-19.5 30.5q-37 62 -52 99t-15 77q0 47 64 47q21 0 33.5 -16.5t12.5 -39.5q0 -19 11 -45.5t45 -92.5q49 -86 60 -127z" />
<glyph unicode="&#xf777;" horiz-adv-x="874" d="M217 -6q-60 0 -60 63q0 40 -65 180q-2 5 -10.5 24.5l-12 27t-10.5 25t-10 28l-7.5 25t-6 26.5t-1.5 24q0 28 17 42.5t46 14.5q23 0 39.5 -14t16.5 -37q0 -6 -3 -17t-2 -17q0 -14 5 -34t8.5 -30.5t13.5 -36.5l10 -27q2 -5 15 -35.5t20 -49.5t11 -37q17 57 76 146 q49 80 49 125q0 24 16.5 40.5t46.5 16.5q27 1 40.5 -14.5t13.5 -46.5q0 -46 85 -163q50 -70 61 -104q7 15 19.5 36l28.5 46.5t22 36.5q54 82 56 150q-7 8 -7 27q0 21 15.5 35t43.5 14q26 0 42.5 -14.5t16.5 -35.5q0 -10 -2 -28q-12 -67 -67 -162q-9 -17 -33 -57.5t-39.5 -70 t-23.5 -50.5q-6 -10 -14.5 -28t-14 -27.5t-16 -18t-23.5 -8.5q-34 0 -48.5 13.5t-15.5 40.5q-1 40 -66 138q-65 88 -78 126q-2 -6 -56 -96q-32 -49 -55.5 -101t-23.5 -72q0 -18 -18 -28.5t-45 -10.5z" />
<glyph unicode="&#xf778;" horiz-adv-x="598" d="M79 -4q-15 0 -28.5 11t-13.5 25q0 22 7 33.5t25 19.5q37 45 168 169q-93 85 -164 135q-20 8 -20 38q0 21 13.5 35t31.5 14q29 0 46 -11q22 -16 45.5 -37.5t56 -54l56.5 -55.5l133 126q13 28 60 28q25 0 38.5 -13.5t13.5 -33.5q0 -41 -38 -49q-45 -30 -144 -121 q104 -106 168 -164q24 -11 24 -43q0 -18 -16.5 -35t-46.5 -17q-25 0 -38 14t-12 31q-20 19 -65 69t-79 83q-58 -58 -147 -163q-20 -23 -36 -28q-15 -6 -38 -6z" />
<glyph unicode="&#xf779;" horiz-adv-x="654" d="M275 80v126q-31 40 -117 95t-118 85q-13 4 -21.5 16.5t-8.5 29.5q0 20 19.5 36.5t42.5 16.5q22 0 36.5 -10.5t13.5 -25.5q29 -33 107 -83.5t102 -78.5h1q26 28 94.5 73.5t95.5 69.5q18 16 22 22q8 11 12.5 16t17 11t30.5 6q24 0 37 -15.5t13 -34.5q0 -7 -1.5 -12.5 t-5.5 -11t-6.5 -8l-8.5 -8.5l-7 -7q-6 -6 -23 -17l-20 -13q-17 -13 -92 -65t-106 -88v-136q8 -16 8 -25q0 -48 -74 -49q-27 0 -39.5 10t-12.5 40q0 26 9 35z" />
<glyph unicode="&#xf77a;" horiz-adv-x="630" d="M459 397l-311 -16q-7 -23 -23.5 -36t-34.5 -13q-40 0 -40 45q0 42 18.5 74t47.5 32t33 -18l269 10q18 1 45 3l47 3.5t38 1.5q55 0 55 -38q0 -28 -12 -45.5t-44 -37.5l-393 -285l341 6q1 27 18 42t36 15q17 0 32.5 -17t15.5 -54q0 -70 -63 -70q-14 0 -77.5 0.5t-98.5 0.5 q-78 0 -135 -3q-55 -3 -111 -3q-42 0 -63 12t-21 44q0 44 47 71z" />
<glyph unicode="&#xf7a1;" horiz-adv-x="229" d="M129 474q17 0 30.5 -16t13.5 -34q0 -30 -21.5 -53.5t-49.5 -23.5q-45 0 -45 61q0 35 16.5 50.5t55.5 15.5zM61 42v200q-8 9 -8 37q0 16 24 28.5t51 12.5q24 0 36.5 -16.5t12.5 -34.5q0 -9 -10 -34v-189q13 -15 13 -38q0 -22 -18 -33t-63 -11q-26 0 -37.5 9t-11.5 34 q0 17 11 35z" />
<glyph unicode="&#xf7a8;" d="M111 546q-20 0 -31.5 18.5t-11.5 42.5q0 26 14.5 43.5t42.5 17.5q23 0 37.5 -11.5t14.5 -32.5q0 -40 -15 -59t-51 -19zM306 549q-24 0 -36.5 15.5t-12.5 39.5q0 28 14 45.5t39 17.5q23 0 39 -15t16 -41q0 -25 -14 -43.5t-45 -18.5z" />
<glyph unicode="&#xf7af;" d="M346 600l-247 -22q-23 -5 -26 -5q-15 0 -24.5 11t-9.5 30q0 18 11 30t24 12q3 0 6.5 -1.5t7.5 -3t6 -2.5l241 21q22 8 27 8q15 0 23.5 -11t8.5 -29q0 -22 -16 -34t-32 -4z" />
<glyph unicode="&#xf7b4;" d="M347 649l-102 -77q-1 -13 -16 -24.5t-32 -11.5t-28 11.5t-11 28.5q0 14 8.5 25t18.5 12l103 79q-4 17 8.5 27t31.5 10q23 0 34.5 -13t11.5 -30q0 -33 -27 -37z" />
<glyph unicode="&#xf7b8;" d="M284 60q0 -9 -5.5 -17t-11.5 -9l-32 -43q33 0 56 -21.5t23 -64.5q0 -52 -40.5 -85.5t-104.5 -33.5q-36 0 -60 15q-6 -4 -17 -4q-9 0 -15 11.5t-6 26.5q0 17 11 30t23 13q6 0 12.5 -4.5t6.5 -8.5q16 -10 48 -10q36 0 56 14t20 33q0 28 -35 28q-6 0 -20 -4q-5 -9 -24 -9 q-10 0 -17.5 8.5t-7.5 22.5q0 20 15 35l63 84q2 30 26 30q14 0 25 -11.5t11 -25.5z" />
<glyph unicode="&#xf7bf;" horiz-adv-x="490" d="M265 474q20 0 35.5 -16.5t15.5 -46.5q0 -25 -18.5 -46.5t-46.5 -21.5q-52 0 -52 62q0 29 17.5 49t48.5 20zM251 324q70 0 100.5 -19.5t30.5 -68.5q0 -38 -36.5 -63t-119.5 -59q-62 -25 -83.5 -38.5t-21.5 -26.5q0 -26 77 -26q84 0 158 37q0 24 15 41t32 17q29 0 46.5 -15 t17.5 -42q0 -35 -26 -44q-34 -29 -98.5 -50.5t-153.5 -21.5q-86 0 -132 26t-46 63q0 40 33.5 69t118.5 66q76 32 97.5 43.5t21.5 21.5q0 17 -33 17q-23 0 -45 -7.5t-24 -13.5q-23 -21 -53 -21q-16 0 -27 9t-11 24q0 34 45 58t117 24z" />
<glyph unicode="&#xf7e0;" horiz-adv-x="703" d="M488 177l-272 -13q-73 -88 -74 -99q-1 -5 0 -15t1 -14q0 -15 -14.5 -27.5t-48.5 -12.5q-63 0 -63 47q0 20 54 89l197 248q32 36 39 55q-2 24 18 40t52 16q19 0 35 -9.5t16 -24.5q0 -5 -1.5 -13t-1.5 -12q0 -12 113 -163q144 -199 144 -223q0 -50 -61 -50q-62 0 -62 38 q0 5 1.5 13.5t1.5 11.5q0 6 -74 118zM272 238l170 8l-77 119zM314 690l92 -77q15 -1 25 -10.5t10 -24.5q0 -20 -13 -31t-33 -11q-16 0 -24.5 9t-9.5 20l-99 80q-28 7 -28 37q0 43 43 43q16 0 25.5 -10.5t11.5 -24.5z" />
<glyph unicode="&#xf7e1;" horiz-adv-x="703" d="M488 177l-272 -13q-73 -88 -74 -99q-1 -5 0 -15t1 -14q0 -15 -14.5 -27.5t-48.5 -12.5q-63 0 -63 47q0 20 54 89l197 248q32 36 39 55q-2 24 18 40t52 16q19 0 35 -9.5t16 -24.5q0 -5 -1.5 -13t-1.5 -12q0 -12 113 -163q144 -199 144 -223q0 -50 -61 -50q-62 0 -62 38 q0 5 1.5 13.5t1.5 11.5q0 6 -74 118zM272 238l170 8l-77 119zM487 648l-102 -77q-1 -13 -16 -24.5t-32 -11.5t-28 11.5t-11 28.5q0 14 8.5 25t18.5 12l103 79q-4 17 8.5 27t31.5 10q22 0 34 -13.5t12 -29.5q0 -33 -27 -37z" />
<glyph unicode="&#xf7e2;" horiz-adv-x="703" d="M488 177l-272 -13q-73 -88 -74 -99q-1 -5 0 -15t1 -14q0 -15 -14.5 -27.5t-48.5 -12.5q-63 0 -63 47q0 20 54 89l197 248q32 36 39 55q-2 24 18 40t52 16q19 0 35 -9.5t16 -24.5q0 -5 -1.5 -13t-1.5 -12q0 -12 113 -163q144 -199 144 -223q0 -50 -61 -50q-62 0 -62 38 q0 5 1.5 13.5t1.5 11.5q0 6 -74 118zM272 238l170 8l-77 119zM420 688l88 -93q1 -1 6.5 -5t8.5 -6.5t7 -7t6 -9.5t2 -11q0 -17 -14.5 -28.5t-39.5 -11.5q-16 0 -25.5 13t-7.5 27l-77 83l-111 -88q1 -13 -9 -24t-25 -11q-18 0 -33 13t-15 27q0 30 34 43l118 95q24 20 41 20 q25 0 46 -26z" />
<glyph unicode="&#xf7e3;" horiz-adv-x="703" d="M488 177l-272 -13q-73 -88 -74 -99q-1 -5 0 -15t1 -14q0 -15 -14.5 -27.5t-48.5 -12.5q-63 0 -63 47q0 20 54 89l197 248q32 36 39 55q-2 24 18 40t52 16q19 0 35 -9.5t16 -24.5q0 -5 -1.5 -13t-1.5 -12q0 -12 113 -163q144 -199 144 -223q0 -50 -61 -50q-62 0 -62 38 q0 5 1.5 13.5t1.5 11.5q0 6 -74 118zM272 238l170 8l-77 119zM427 546q-49 0 -88 39q-24 26 -44 26q-36 0 -48 -36q-14 -26 -37 -26q-22 0 -32.5 12t-10.5 27q0 4 3 8t7.5 9t6.5 8q22 36 48 51.5t69 15.5q32 0 70 -34q35 -33 61 -33q20 0 30 12t8 27t10 23.5t28 8.5 q19 0 30.5 -10t11.5 -20q0 -3 -5 -18q-15 -45 -41 -67.5t-77 -22.5z" />
<glyph unicode="&#xf7e4;" horiz-adv-x="703" d="M488 177l-272 -13q-73 -88 -74 -99q-1 -5 0 -15t1 -14q0 -15 -14.5 -27.5t-48.5 -12.5q-63 0 -63 47q0 20 54 89l197 248q32 36 39 55q-2 24 18 40t52 16q19 0 35 -9.5t16 -24.5q0 -5 -1.5 -13t-1.5 -12q0 -12 113 -163q144 -199 144 -223q0 -50 -61 -50q-62 0 -62 38 q0 5 1.5 13.5t1.5 11.5q0 6 -74 118zM272 238l170 8l-77 119zM258 542q-20 0 -31.5 18.5t-11.5 42.5q0 26 14.5 43.5t42.5 17.5q23 0 37.5 -11.5t14.5 -32.5q0 -40 -15 -59t-51 -19zM453 544q-24 0 -36.5 15.5t-12.5 40.5q0 28 14 45.5t39 17.5q24 0 39.5 -15t15.5 -42 q0 -25 -14 -43.5t-45 -18.5z" />
<glyph unicode="&#xf7e5;" horiz-adv-x="703" d="M488 177l-272 -13q-73 -88 -74 -99q-1 -5 0 -15t1 -14q0 -15 -14.5 -27.5t-48.5 -12.5q-63 0 -63 47q0 20 54 89l197 248q32 36 39 55q-2 24 18 40t52 16q19 0 35 -9.5t16 -24.5q0 -5 -1.5 -13t-1.5 -12q0 -12 113 -163q144 -199 144 -223q0 -50 -61 -50q-62 0 -62 38 q0 5 1.5 13.5t1.5 11.5q0 6 -74 118zM272 238l170 8l-77 119zM352 524q-34 0 -56 28.5t-22 73.5q0 39 37.5 68t70.5 29q38 0 63 -25.5t25 -73.5q0 -45 -39 -72.5t-79 -27.5zM361 581q16 0 32.5 13t16.5 30q0 42 -28 42q-17 0 -32.5 -13t-15.5 -33q0 -39 27 -39z" />
<glyph unicode="&#xf7e6;" horiz-adv-x="877" d="M516 188v-114q62 0 157.5 6t115.5 13q12 6 36 6q32 0 32 -39q0 -32 -18 -44.5t-40 -12.5l-285 -9q-5 0 -28.5 -4t-42.5 -4q-54 0 -54 45q0 39 19 46v105l-203 -13q-73 -75 -100 -112q-8 -11 -8 -21q0 -18 -18.5 -29t-44.5 -11q-22 0 -38 12t-16 32t11 35.5t28 17.5 l149 152q80 78 229 196q3 22 16 38t39 16q70 0 70 -31q0 -12 -5 -17l233 12q4 1 11 3.5t13 4t12 1.5q20 0 32.5 -12.5t12.5 -36.5t-13 -38t-27 -14q-16 0 -41 9l-234 -9v-102l195 12q7 1 26 6t25 5q45 0 45 -35q0 -49 -51 -51zM408 256v100q-82 -68 -125 -109z" />
<glyph unicode="&#xf7e7;" horiz-adv-x="634" d="M371 0l-31 -40q33 0 56 -21.5t23 -64.5q0 -53 -41 -86t-105 -33q-35 0 -59 15q-8 -4 -17 -4t-15.5 11.5t-6.5 26.5q0 17 11 30t23 13q6 0 12.5 -4.5t6.5 -8.5q17 -10 48 -10q36 0 56.5 14t20.5 33q0 28 -35 28q-8 0 -20 -4q-5 -9 -24 -9q-10 0 -18 8.5t-8 22.5 q0 19 16 35l29 36q-4 -1 -15 -1q-109 0 -171.5 53t-62.5 159q0 110 96 196.5t225 86.5q96 0 154.5 -27.5t58.5 -68.5q0 -18 -17.5 -32t-43.5 -14q-36 0 -48 36q-4 11 -31.5 18.5t-62.5 7.5q-94 0 -159.5 -63.5t-65.5 -142.5q0 -55 38.5 -89.5t101.5 -34.5q101 0 163 60 q8 44 60 44q26 0 42.5 -13t16.5 -26q0 -24 -22 -45q-65 -63 -179 -92z" />
<glyph unicode="&#xf7e8;" horiz-adv-x="623" d="M187 190v-111l317 20q15 13 33 13q24 0 39.5 -12.5t15.5 -28.5q0 -33 -17.5 -43t-59.5 -10l-325 -20q-17 -19 -59 -19q-27 0 -45.5 14t-18.5 40q0 19 12 43v104q-14 14 -14 44q0 25 14 41v94q-17 15 -17 41q0 28 13 41q-5 7 -5 12q0 15 17 24.5t40 9.5q28 0 44.5 -11 t14.5 -24l279 18q19 14 38 14q25 0 39.5 -13.5t14.5 -32.5q0 -27 -15.5 -42.5t-41.5 -15.5q-24 0 -37 8l-276 -18v-100l223 21q18 14 37 14q24 0 39.5 -14.5t15.5 -35.5q0 -24 -15 -37t-40 -13q-19 0 -30 8zM273 683l92 -77q35 -4 35 -36q0 -19 -12.5 -30t-33.5 -11 q-16 0 -24.5 8.5t-9.5 19.5l-99 81q-28 6 -28 37q0 43 43 43q16 0 25.5 -10.5t11.5 -24.5z" />
<glyph unicode="&#xf7e9;" horiz-adv-x="623" d="M187 190v-111l317 20q15 13 33 13q24 0 39.5 -12.5t15.5 -28.5q0 -33 -17.5 -43t-59.5 -10l-325 -20q-17 -19 -59 -19q-27 0 -45.5 14t-18.5 40q0 19 12 43v104q-14 14 -14 44q0 25 14 41v94q-17 15 -17 41q0 28 13 41q-5 7 -5 12q0 15 17 24.5t40 9.5q28 0 44.5 -11 t14.5 -24l279 18q19 14 38 14q25 0 39.5 -13.5t14.5 -32.5q0 -27 -15.5 -42.5t-41.5 -15.5q-24 0 -37 8l-276 -18v-100l223 21q18 14 37 14q24 0 39.5 -14.5t15.5 -35.5q0 -24 -15 -37t-40 -13q-19 0 -30 8zM445 640l-101 -77q-2 -13 -16.5 -24.5t-32.5 -11.5 q-17 0 -27.5 11.5t-10.5 28.5q0 14 8 25t18 12l103 79q-3 17 9 27t31 10q23 0 34.5 -13t11.5 -30q0 -33 -27 -37z" />
<glyph unicode="&#xf7ea;" horiz-adv-x="623" d="M187 190v-111l317 20q15 13 33 13q24 0 39.5 -12.5t15.5 -28.5q0 -33 -17.5 -43t-59.5 -10l-325 -20q-17 -19 -59 -19q-27 0 -45.5 14t-18.5 40q0 19 12 43v104q-14 14 -14 44q0 25 14 41v94q-17 15 -17 41q0 28 13 41q-5 7 -5 12q0 15 17 24.5t40 9.5q28 0 44.5 -11 t14.5 -24l279 18q19 14 38 14q25 0 39.5 -13.5t14.5 -32.5q0 -27 -15.5 -42.5t-41.5 -15.5q-24 0 -37 8l-276 -18v-100l223 21q18 14 37 14q24 0 39.5 -14.5t15.5 -35.5q0 -24 -15 -37t-40 -13q-19 0 -30 8zM377 692l87 -93q1 -1 6.5 -5t8.5 -6.5t7 -7t6 -9.5t2 -11 q0 -17 -14.5 -28.5t-39.5 -11.5q-16 0 -25 12.5t-7 26.5l-78 83l-111 -87q1 -13 -9 -24t-25 -11q-18 0 -33 12.5t-15 27.5q0 30 34 43l119 95q24 20 41 20q20 0 46 -26z" />
<glyph unicode="&#xf7eb;" horiz-adv-x="623" d="M187 190v-111l318 20q13 13 32 13q24 0 39.5 -12.5t15.5 -28.5q0 -33 -17.5 -43t-59.5 -10l-325 -20q-17 -19 -59 -19q-27 0 -45.5 14t-18.5 40q0 19 12 43v104q-14 14 -14 44q0 25 14 41v94q-17 15 -17 41q0 28 13 41q-5 7 -5 12q0 15 17 24.5t40 9.5q28 0 44.5 -11 t14.5 -24l279 18q19 14 38 14q25 0 39.5 -13.5t14.5 -32.5q0 -27 -15.5 -42.5t-41.5 -15.5q-24 0 -37 8l-276 -18v-100l223 21q18 14 37 14q24 0 39.5 -14.5t15.5 -35.5q0 -24 -15 -37t-40 -13q-17 0 -30 8zM213 545q-20 0 -31.5 18.5t-11.5 42.5q0 26 14.5 43.5t42.5 17.5 q23 0 37.5 -11.5t14.5 -32.5q0 -40 -15 -59t-51 -19zM408 547q-24 0 -36.5 15.5t-12.5 40.5q0 27 14 45t39 18q23 0 39 -15t16 -41t-14 -44.5t-45 -18.5z" />
<glyph unicode="&#xf7ec;" horiz-adv-x="265" d="M187 384v-307q12 -16 12 -31q0 -21 -20 -35.5t-49 -14.5t-46 15t-17 39q0 17 12 32v309q-11 12 -11 28q0 26 20 40.5t57 14.5q24 0 40.5 -14.5t16.5 -36.5q0 -26 -15 -39zM94 686l92 -77q15 -2 25 -11.5t10 -24.5q0 -19 -12.5 -30t-33.5 -11q-16 0 -24.5 8.5t-9.5 19.5 l-99 81q-28 6 -28 37q0 43 43 43q17 0 26 -10.5t11 -24.5z" />
</font>
</defs>
</svg>
