<?xml version="1.0" standalone="no"?>
<!DOCTYPE svg PUBLIC "-//W3C//DTD SVG 1.1//EN" "http://www.w3.org/Graphics/SVG/1.1/DTD/svg11.dtd" >
<svg xmlns="http://www.w3.org/2000/svg">
<metadata>
This is a custom SVG webfont generated by Font Squirrel.
Copyright   :  1989 1990 1993 1994 1996 1998 1999 2000 Adobe Systems Incorporated All rights reserved
Designer    : David Siegel
Foundry URL : httpwwwadobecomtype
</metadata>
<defs>
<font id="TektonProBoldCondensed" horiz-adv-x="295" >
<font-face units-per-em="1000" ascent="680" descent="-320" />
<missing-glyph horiz-adv-x="140" />
<glyph unicode="ffj" horiz-adv-x="445" d="M0 445h445v-445h-445v445z" />
<glyph unicode="fj" horiz-adv-x="397" d="M352 383v-482q0 -75 -37.5 -112.5t-91.5 -37.5q-51 0 -82 35.5t-31 60.5q0 21 12 37.5t35 16.5q16 0 28.5 -11.5t8.5 -36.5q3 -10 12 -18.5t18 -8.5q45 0 45 94v449l-109 -22v-287q10 -10 10 -28q0 -37 -52 -37q-22 0 -35 9t-13 25q0 6 3.5 13.5t3.5 10.5v279l-27 -6 q-14 -7 -18 -7q-27 0 -27 47q0 15 8 25.5t22 10.5q7 0 19 -4l23 5q0 140 27 202.5t94 62.5q72 0 112.5 -40.5t40.5 -74.5q0 -14 -12.5 -30.5t-38.5 -16.5q-17 0 -31 9.5t-14 30.5q0 7 7 12q-16 36 -60 36q-22 0 -32 -39t-10 -137l106 21q2 0 19.5 8t29.5 8q17 0 31 -12.5 t14 -28.5q0 -20 -8 -31z" />
<glyph unicode="tt" horiz-adv-x="609" d="M424 381v-282q0 -24 11 -24q9 0 41 31t50 62q-1 17 8.5 27.5t25.5 10.5q27 0 36.5 -11t9.5 -32q0 -31 -77 -103.5t-126 -72.5q-28 0 -45 21.5t-17 51.5v305l-158 -29v-237q0 -24 11 -24q6 0 14 5.5t11 12.5q-1 17 8.5 28t25.5 11q26 0 36 -11.5t10 -32.5q0 -27 -47.5 -64 t-89.5 -37q-28 0 -45 21.5t-17 51.5v259l-40 -7q-6 -6 -20 -9q-38 3 -38 46q0 17 11 28.5t27 11.5q11 0 17 -6l43 8v123q-6 6 -6 22q0 34 57 34q42 0 42 -28q0 -13 -10 -24v-111l158 29v78q-6 6 -6 22q0 34 57 34q42 0 42 -28q0 -13 -10 -24v-66l83 17q8 8 17 8q16 0 25 -12 t9 -25q0 -47 -31 -47q-13 0 -16 5z" />
<glyph unicode="&#xfb00;" horiz-adv-x="457" d="M80 308l-34 -6q-8 -6 -16 -6q-30 0 -30 46q0 13 7.5 26.5t19.5 13.5q9 0 19 -4l34 6v12q0 140 23 197.5t94 57.5q31 0 53 -15.5t22 -34.5q0 -23 -11 -40.5t-27 -17.5q-11 0 -19 6.5t-7 12.5q-6 14 -17 14q-10 0 -15.5 -13.5t-9 -50.5t-3.5 -102v-15l109 17q0 140 23 198 t94 58q31 0 64.5 -27.5t33.5 -49.5q0 -18 -10 -32t-27 -14q-15 0 -25 10t-10 21q-9 17 -32 17q-10 0 -15.5 -13.5t-9 -50.5t-3.5 -102l71 12q1 0 8.5 5.5t14.5 5.5q15 0 25.5 -11.5t10.5 -26.5q0 -20 -7.5 -34.5t-20.5 -14.5q-12 0 -20 4l-82 -14v-296q9 -18 9 -27 q0 -35 -49 -35q-48 0 -48 39q0 6 5 18v285l-109 -17v-263q9 -18 9 -27q0 -35 -49 -35q-48 0 -48 39q0 6 5 18v256z" />
<glyph unicode="&#xfb03;" horiz-adv-x="599" d="M80 295l-34 -7q-18 -7 -19 -7q-10 0 -18.5 11t-8.5 36q0 14 8 25t22 11q6 0 20 -4l30 6v29q0 140 23 198t94 58q31 0 53 -15.5t22 -34.5q0 -23 -11 -40.5t-27 -17.5q-11 0 -19 6.5t-7 12.5q-6 14 -17 14q-10 0 -15.5 -13.5t-9 -50.5t-3.5 -102v-29l109 22q0 140 27 202.5 t94 62.5q72 0 112.5 -40.5t40.5 -74.5q0 -14 -12.5 -30.5t-38.5 -16.5q-17 0 -31 9.5t-14 30.5q0 7 7 12q-16 36 -60 36q-22 0 -32 -39t-10 -137l106 21q3 0 20 8t29 8q17 0 31 -12.5t14 -28.5q0 -20 -8 -31v-315q12 -21 12 -25q0 -23 -19.5 -35.5t-40.5 -12.5 q-20 0 -33.5 12t-13.5 35q0 10 12 31v296l-109 -22v-287q10 -10 10 -28q0 -37 -52 -37q-22 0 -35 9t-13 25q0 6 3.5 13.5t3.5 10.5v279l-109 -22v-254q9 -16 9 -26q0 -35 -49 -35q-48 0 -48 39q0 6 5 18v243z" />
<glyph unicode="&#xfb04;" horiz-adv-x="600" d="M80 295l-34 -7q-18 -7 -19 -7q-10 0 -18.5 11t-8.5 36q0 14 8 25t22 11q6 0 20 -4l30 6v29q0 140 23 198t94 58q31 0 53 -15.5t22 -34.5q0 -23 -11 -40.5t-27 -17.5q-11 0 -19 6.5t-7 12.5q-6 14 -17 14q-10 0 -15.5 -13.5t-9 -50.5t-3.5 -102v-28l109 22q0 141 29 202.5 t99 61.5q40 0 79 -25q9 6 28 3q21 1 37.5 -11t16.5 -32q0 -26 -14 -45v-495q14 -11 14 -27q0 -13 -15.5 -27t-39.5 -14q-50 0 -50 45q0 4 8 25v304l-109 -22v-289q11 -13 11 -27q0 -36 -57 -36q-17 0 -30.5 10t-13.5 28q0 4 7 20v279l-109 -22v-253q9 -18 9 -27 q0 -35 -49 -35q-48 0 -48 39q0 6 5 18v243zM464 441v116q-4 10 -7 13q-18 23 -53 23q-25 0 -37 -37.5t-12 -136.5z" />
<glyph unicode="fi" horiz-adv-x="404" d="M269 369l-109 -22v-287q10 -10 10 -28q0 -37 -52 -37q-22 0 -35 9t-13 25q0 6 3.5 13.5t3.5 10.5v279l-27 -6q-9 -7 -18 -7q-27 0 -27 46q0 15 8 25.5t22 10.5q10 0 19 -3l23 5q0 140 27 202.5t94 62.5q72 0 112.5 -40.5t40.5 -74.5q0 -14 -12.5 -30.5t-38.5 -16.5 q-17 0 -31 9.5t-14 30.5q0 7 7 12q-16 36 -60 36q-22 0 -32 -39t-10 -136l106 21q4 0 20.5 7.5t28.5 7.5q17 0 31 -12.5t14 -28.5q0 -11 -8 -31v-315q12 -18 12 -25q0 -23 -19.5 -35.5t-40.5 -12.5q-20 0 -33.5 12t-13.5 35q0 10 12 31v296z" />
<glyph unicode="fl" horiz-adv-x="405" d="M269 369l-109 -22v-289q11 -13 11 -27q0 -36 -57 -36q-17 0 -30.5 10t-13.5 28q0 4 7 20v279l-27 -5q-8 -6 -20 -6q-25 0 -25 43q0 18 8 28t20 10q3 0 21 -3l23 5q0 141 29 202.5t99 61.5q40 0 79 -25q9 6 28 3q21 1 37.5 -11t16.5 -32q0 -26 -14 -45v-495q14 -11 14 -27 q0 -13 -15.5 -27t-39.5 -14q-50 0 -50 45q0 4 8 25v304zM160 419l109 22v116q-4 10 -7 13q-18 23 -53 23q-25 0 -37 -37.5t-12 -136.5z" />
<glyph unicode=" "  horiz-adv-x="140" />
<glyph unicode="&#x09;" horiz-adv-x="140" />
<glyph unicode="&#xa0;" horiz-adv-x="140" />
<glyph unicode="!" horiz-adv-x="208" d="M147 595v-350q10 -9 10 -42q0 -17 -21 -30.5t-47 -13.5q-20 0 -30 14.5t-10 31.5q0 22 12 36v351q-13 20 -13 34q0 27 14.5 38t57.5 11q21 0 30 -9.5t9 -32.5q0 -21 -12 -38zM91 -5q-15 0 -26 13.5t-11 29.5q0 27 18.5 49t42.5 22q37 0 37 -54q0 -31 -13 -45.5t-48 -14.5 z" />
<glyph unicode="&#x22;" horiz-adv-x="304" d="M113 595v-91q6 -15 6 -39q0 -19 -12.5 -31.5t-37.5 -12.5q-18 0 -27 6t-9 25q0 22 19 41v98q-15 20 -15 29q0 52 51 52q18 0 28 -13.5t10 -26.5q0 -25 -13 -37zM259 595v-91q6 -15 6 -39q0 -19 -12.5 -31.5t-37.5 -12.5q-18 0 -27 6t-9 25q0 22 19 41v98q-15 20 -15 29 q0 52 51 52q18 0 28 -13.5t10 -26.5q0 -25 -13 -37z" />
<glyph unicode="#" horiz-adv-x="623" d="M409 488l29 114q-9 23 3.5 40.5t43.5 17.5q25 0 36.5 -12.5t11.5 -28.5q0 -10 -6.5 -20t-14.5 -12l-25 -99h55q12 4 25 4q15 0 25.5 -11.5t10.5 -29.5q1 -50 -33 -50q-18 0 -26 11h-75l-40 -156h63q13 5 24 5q16 0 26.5 -12t10.5 -29q1 -51 -33 -51q-20 0 -26 11h-84 l-32 -128q7 -16 7 -30t-15.5 -25t-36.5 -11q-52 0 -52 46q0 25 23 35l29 113h-102l-33 -128q7 -12 7 -30q0 -14 -15.5 -25t-36.5 -11q-52 0 -52 42q0 14 8 25.5t15 13.5l30 113h-62q-12 -10 -33 -10q-15 0 -25 14t-11 30q0 25 10 39.5t27 14.5q20 0 31 -12h81l41 156h-70 q-13 -11 -34 -11q-15 0 -25 14.5t-10 30.5q-1 24 9 39t27 15q22 0 32 -12h88l29 114q-9 23 3.5 40.5t43.5 17.5q25 0 36.5 -12.5t11.5 -28.5q0 -10 -6.5 -20t-14.5 -12l-25 -99h101zM391 412h-101l-40 -156h100z" />
<glyph unicode="$" horiz-adv-x="518" d="M240 40v-74q11 -22 11 -28q0 -18 -13 -32t-28 -14q-18 0 -31.5 10.5t-13.5 29.5q0 6 5.5 16t5.5 11v74q-61 4 -103 44.5t-42 82.5q0 15 12.5 25.5t27.5 10.5q13 0 21 -8t9 -19q1 -27 22.5 -44.5t52.5 -22.5v209q-28 -14 -61 -14q-26 0 -53 26.5t-27 82.5q0 80 46 134 t95 71v46q-1 2 -4 10t-3 13q0 14 9.5 23t27.5 9q19 0 30 -8.5t11 -19.5q0 -10 -7 -22v-39q61 -3 96.5 -28t35.5 -47q0 -48 -38 -48q-14 0 -22.5 4.5t-9.5 7t-6 13.5q-13 26 -56 26v-135q19 9 47 9q15 0 29.5 -5t32.5 -19t28.5 -45.5t10.5 -77.5q0 -93 -44.5 -156.5 t-103.5 -81.5zM176 389v149q-24 -11 -43.5 -42.5t-19.5 -79.5q0 -41 22 -41t41 14zM240 339v-225q28 16 48 60.5t20 89.5q0 85 -37 85q-21 0 -31 -10z" />
<glyph unicode="%" horiz-adv-x="486" d="M423 611q0 -23 -24 -32l-256 -540q0 -23 -14.5 -35.5t-34.5 -12.5q-44 0 -44 38q0 8 10 19t12 15l260 549q0 20 11.5 32.5t25.5 12.5q18 1 36 -12t18 -34zM152 656q37 0 62 -23.5t25 -70.5q0 -57 -41.5 -103t-83.5 -46q-37 0 -64 25t-27 73q0 59 42 102t87 43zM144 593 q-15 0 -29.5 -23t-14.5 -54q0 -40 21 -40q13 0 27 25.5t14 55.5q0 36 -18 36zM384 250h2q29 0 53 -29.5t24 -84.5q0 -68 -40 -111.5t-96 -43.5q-33 0 -58.5 28t-25.5 80q0 80 44.5 120.5t96.5 40.5zM364 187q-19 0 -31.5 -24.5t-12.5 -70.5q0 -48 21 -48q17 0 31 24t14 67 q0 52 -22 52z" />
<glyph unicode="&#x26;" horiz-adv-x="490" d="M247 401l101 -172q23 50 22 77q0 9 6.5 16.5t17.5 7.5q23 0 40 -14t17 -29q0 -8 -4.5 -17t-10.5 -8q-19 -62 -47 -102q9 -18 27.5 -50t23.5 -32q4 0 17 11t24 11q22 0 22 -25q0 -23 -32.5 -52t-58.5 -29q-21 0 -24 23l-48 82q-92 -118 -192 -118q-22 0 -44 9.5t-42.5 30 t-33.5 60t-13 92.5q0 82 38.5 146.5t98.5 99.5q-56 92 -56 162q0 26 27 52t85 26q61 0 97.5 -21t36.5 -62q0 -98 -95 -175zM216 602q-43 0 -43 -36q0 -53 37 -105q24 17 41 52t17 54q0 35 -52 35zM302 165l-114 195q-43 -33 -69 -73.5t-26 -107.5q0 -55 21 -88.5t52 -33.5 q63 0 136 108z" />
<glyph unicode="'" horiz-adv-x="157" d="M113 595v-91q6 -15 6 -39q0 -19 -12.5 -31.5t-37.5 -12.5q-18 0 -27 6t-9 25q0 22 19 41v98q-15 20 -15 29q0 52 51 52q18 0 28 -13.5t10 -26.5q0 -25 -13 -37z" />
<glyph unicode="(" horiz-adv-x="269" d="M181 683q7 0 15 -2t20 -7.5t19.5 -20.5t7.5 -38q0 -15 -10.5 -24.5t-22.5 -7.5q-44 -44 -59 -135.5t-15 -222.5q0 -266 69 -355q13 4 22.5 -9t9.5 -33q0 -29 -15 -43.5t-28 -14.5q-14 0 -32 11t-25 26q-87 170 -87 422q0 275 96 418q1 15 11.5 25.5t23.5 10.5z" />
<glyph unicode=")" horiz-adv-x="269" d="M89 683q11 0 21.5 -10.5t11.5 -25.5q96 -143 96 -418q0 -252 -87 -422q-7 -15 -25 -26t-32 -11q-13 0 -28 14.5t-15 43.5q0 20 9.5 33t22.5 9q69 89 69 355q0 131 -15 222.5t-59 135.5q-12 -2 -22.5 7.5t-10.5 24.5q0 23 7.5 38t19.5 20.5t20.5 7.5t16.5 2z" />
<glyph unicode="*" horiz-adv-x="365" d="M141 377q-11 0 -19.5 7.5t-8.5 17.5q0 20 12 35q19 22 31 51l-74 -27q-25 -9 -37 -0.5t-12 22.5q0 34 41 34q21 0 84 18q-13 12 -47 38q-29 22 -29 36q0 11 9 21.5t25 10.5q21 0 25 -10q11 -21 48 -64l19 61q-2 14 7 23.5t24 9.5q14 0 24.5 -8.5t10.5 -17.5 q0 -12 -16 -35q-20 -27 -29 -49l77 33q12 4 20.5 -4.5t8.5 -25.5q0 -15 -9.5 -24t-22.5 -9q-29 0 -69 -9q29 -35 64 -58q19 -13 19 -24q0 -35 -27 -35q-17 0 -31 10t-19 24l-39 49l-22 -67q-1 -19 -10.5 -26.5t-27.5 -7.5z" />
<glyph unicode="+" horiz-adv-x="554" d="M227 266v108q-11 17 -11 35q0 14 12.5 24t32.5 10q27 0 42 -12t15 -29q0 -13 -8 -27v-109h114q2 1 13 6t16 5q40 0 40 -52q0 -23 -10.5 -36.5t-29.5 -13.5q-15 0 -29 8h-114v-116q11 -13 11 -27q0 -21 -14 -33t-31 -12q-26 0 -43 10.5t-17 28.5q0 25 11 40v109h-112 q-27 -9 -32 -9q-38 0 -38 43q0 56 42 56q12 0 28 -7h112z" />
<glyph unicode="," horiz-adv-x="192" d="M40 -105q-24 0 -24 21q0 24 34 27q49 2 51 59q-9 -10 -25 -10q-17 0 -27 15.5t-10 34.5q0 30 13 49t38 19q53 0 53 -82q0 -66 -32.5 -99.5t-70.5 -33.5z" />
<glyph unicode="-" horiz-adv-x="275" d="M176 233l-72 -12q-14 -15 -32 -15q-14 0 -24.5 15t-10.5 36q0 23 11 37t26 14q14 0 23 -9l75 9q10 12 26 12q18 0 29 -14t11 -36q0 -18 -11 -33.5t-25 -15.5q-19 0 -26 12z" />
<glyph unicode="." horiz-adv-x="201" d="M89 -8q-16 0 -29.5 15t-13.5 41q0 23 15.5 43t40.5 20q43 0 43 -56q0 -26 -14 -44.5t-42 -18.5z" />
<glyph unicode="/" horiz-adv-x="266" d="M256 619q0 -10 -5.5 -20t-13.5 -12l-125 -537q7 -16 7 -31q0 -14 -16 -25t-37 -11q-25 0 -42 12t-17 37t30 33l126 538q-2 24 8 36.5t42 12.5q43 0 43 -33z" />
<glyph unicode="0" horiz-adv-x="518" d="M305 653q26 0 55.5 -12.5t59 -37.5t49 -72.5t19.5 -109.5q0 -97 -22.5 -176t-55.5 -126t-73.5 -78.5t-74.5 -43.5t-61 -12q-75 0 -124.5 60t-49.5 170q0 95 19 172.5t48.5 125.5t67 81t73.5 46t70 13zM303 571q-75 0 -130.5 -85t-55.5 -266q0 -78 23.5 -115.5t59.5 -37.5 q29 0 61.5 18t64.5 55.5t53 109t21 164.5q0 76 -25 116.5t-72 40.5z" />
<glyph unicode="1" horiz-adv-x="518" d="M270 539l-116 -79q-5 -26 -36 -26q-16 0 -27.5 13.5t-11.5 31.5q0 19 12 31.5t27 15.5l165 109q29 19 47 19q17 0 27.5 -10t10.5 -25q0 -18 -14 -34v-526q9 -11 9 -26q0 -38 -61 -38q-26 0 -36 5.5t-10 26.5q0 18 14 34v478z" />
<glyph unicode="2" horiz-adv-x="518" d="M451 54q0 -54 -26 -54h-282q-19 -13 -49 -13q-18 0 -27 8t-9 15q0 9 1 18t3.5 18.5l4.5 16.5t6.5 17l7 16t8.5 16.5l8 14l8.5 15t7.5 13.5q12 20 24.5 38.5l21.5 31.5t22.5 28l19.5 22t21 21t18.5 17l20 17t18.5 16q65 57 65 155q0 35 -17.5 56t-44.5 21q-49 0 -74.5 -21 t-42.5 -63q-1 -2 -1 -23q0 -11 -17 -23.5t-37 -12.5q-25 0 -38 14t-13 33q0 13 8.5 25.5t18.5 12.5q28 69 75 101t127 32q61 0 102.5 -41.5t41.5 -109.5q0 -45 -8.5 -80t-26 -61.5t-31.5 -41.5t-38 -35q-55 -47 -93.5 -94.5t-60.5 -114.5h193q0 33 8.5 46t38.5 13 q20 0 28.5 -17.5t8.5 -62.5z" />
<glyph unicode="3" horiz-adv-x="518" d="M302 572h-155v-29q6 -7 6 -27q0 -10 -16 -21.5t-32 -11.5q-20 0 -32.5 9.5t-12.5 20.5q0 29 12 34v70q0 31 35 31h266q46 0 46 -32q0 -27 -25 -55l-109 -130q23 6 56 6q52 0 92 -45t40 -122q0 -144 -79 -214.5t-217 -70.5q-51 0 -91.5 40t-40.5 109q0 24 15.5 41t37.5 17 q24 0 34 -11.5t10 -27.5q0 -11 -3 -16.5t-8.5 -8.5t-6.5 -5q22 -60 73 -60q87 0 137.5 50.5t50.5 143.5q0 41 -18.5 74t-54.5 33q-45 0 -77.5 -13t-51.5 -25.5t-30 -12.5q-18 0 -29 15t-11 36q0 18 10.5 25t30.5 16t34 26z" />
<glyph unicode="4" horiz-adv-x="518" d="M300 201l-211 -35q-15 -13 -40 -13q-40 0 -38 48q0 21 25 39l251 371q0 14 15 24.5t38 10.5t37 -12t14 -30q0 -23 -7 -31v-280l48 8q9 10 26 12q40 0 40 -47q0 -27 -11 -40.5t-27 -13.5t-26 11l-50 -7v-153q13 -13 13 -25q0 -43 -67 -43q-19 0 -28.5 10.5t-9.5 26.5 q0 17 8 24v145zM300 279v229l-167 -257z" />
<glyph unicode="5" horiz-adv-x="518" d="M387 566q-11 0 -25 8l-199 -18q0 -15 -4 -79t-9 -90q70 65 162 65q27 0 53.5 -8t52 -26t41 -53.5t15.5 -84.5q0 -61 -18 -112t-45.5 -84t-62 -56t-66 -33t-58.5 -10q-98 0 -152 71q-26 9 -26 40q0 54 48 54q39 0 39 -45q0 -13 22 -28.5t55 -15.5q80 0 128.5 59t48.5 144 q0 53 -23.5 83t-68.5 30q-38 0 -71.5 -16t-53 -35.5t-40 -36t-36.5 -16.5q-15 0 -25.5 10t-10.5 25q0 8 7 32t8 41q10 100 10 226q0 7 2.5 12t9.5 7t10 2t12 1l231 21q21 13 39 13q47 0 47 -50q0 -47 -47 -47z" />
<glyph unicode="6" horiz-adv-x="518" d="M252 -16q-52 0 -90 23t-82 78q-18 0 -29 23t0 47q-18 47 -18 107q0 94 35 186.5t99.5 154.5t140.5 62q52 0 94 -27.5t42 -69.5q0 -20 -14.5 -32t-36.5 -12q-24 0 -33.5 14.5t-4.5 27.5q-11 23 -54 23q-50 0 -93.5 -51t-66.5 -120t-23 -132q0 -28 3 -47q37 73 98 128 t124 55q70 0 105.5 -46.5t35.5 -105.5q0 -130 -75 -208t-157 -78zM246 59q55 0 101.5 54.5t46.5 156.5q0 25 -15 50.5t-43 25.5q-50 0 -101.5 -57t-89.5 -131q9 -40 39 -69.5t62 -29.5z" />
<glyph unicode="7" horiz-adv-x="518" d="M142 554v-35q6 -7 6 -16q0 -13 -14.5 -25t-35.5 -11q-18 1 -28.5 12t-10.5 23q0 9 9 22v67q0 20 8 28t35 9l274 17q20 1 26 15q4 14 32 14q21 0 35 -10t14 -23q0 -37 -23 -52q-9 -19 -119 -281q-84 -203 -103 -264q0 -61 -56 -61q-19 0 -29.5 13.5t-10.5 35.5q0 14 27 78 l192 462q-13 -3 -32 -4z" />
<glyph unicode="8" horiz-adv-x="518" d="M157 -11q-46 0 -89 41t-43 109q0 66 39.5 130t81.5 94v2q-51 26 -51 101q0 96 53.5 147.5t127.5 51.5q54 0 88 -32.5t34 -75.5q0 -34 -11.5 -68t-30.5 -53l1 -2q37 2 85.5 -35t48.5 -101q0 -76 -57.5 -149.5t-135.5 -116.5t-141 -43zM313 531q0 26 -13.5 44t-40.5 18 q-38 0 -60 -31.5t-22 -86.5q0 -29 12 -47.5t27 -17.5q27 17 57 26q16 17 28 44.5t12 50.5zM319 357q-73 0 -140.5 -68t-67.5 -152q0 -29 15.5 -50t35.5 -21q43 0 99 32t98.5 86.5t42.5 109.5q0 24 -22.5 43.5t-60.5 19.5z" />
<glyph unicode="9" horiz-adv-x="518" d="M299 658q90 0 144 -99q15 -6 23.5 -25.5t8.5 -38.5q0 -12 -5 -20q10 -68 10 -105q0 -168 -82 -278.5t-191 -110.5q-95 0 -148 114q-8 1 -15 11t-7 23q0 25 16.5 38.5t34.5 13.5q31 0 43.5 -18t4.5 -37q8 -27 28 -48t40 -21q81 0 135.5 88t54.5 184q0 29 -2 42h-1 q-20 -39 -74 -70.5t-107 -31.5q-62 0 -105 56t-43 98q0 112 64 173.5t173 61.5zM289 583q-59 0 -99.5 -40t-40.5 -116q0 -24 25.5 -53.5t47.5 -29.5q59 0 107.5 45.5t48.5 102.5q0 34 -24 62.5t-65 28.5z" />
<glyph unicode=":" horiz-adv-x="195" d="M96 405q23 0 34.5 -18t11.5 -39q0 -26 -16.5 -45.5t-41.5 -19.5q-20 0 -31 19t-11 37q0 25 14 45.5t40 20.5zM83 -8q-41 0 -41 51q0 31 18.5 50t42.5 19q13 0 26 -11t13 -34q0 -32 -18.5 -53.5t-40.5 -21.5z" />
<glyph unicode=";" horiz-adv-x="193" d="M89 283q-16 0 -29.5 15t-13.5 41q0 23 15 43t39 20q45 0 45 -56q0 -26 -14.5 -44.5t-41.5 -18.5zM40 -105q-24 0 -24 21q0 24 34 27q49 2 51 59q-9 -10 -25 -10q-17 0 -27 15.5t-10 34.5q0 30 13 49t38 19q53 0 53 -82q0 -66 -32.5 -99.5t-70.5 -33.5z" />
<glyph unicode="&#x3c;" horiz-adv-x="554" d="M178 224l223 -135q23 -2 33 -7.5t10 -19.5q0 -19 -19 -43t-38 -24q-27 0 -33 26l-236 152q-29 19 -38 32.5t-9 33.5q0 18 29 34l250 130q-2 13 11 26t27 13q23 0 42.5 -20.5t19.5 -31.5q0 -23 -9 -33.5t-34 -13.5z" />
<glyph unicode="=" horiz-adv-x="554" d="M115 370h308q3 1 9.5 3.5t11.5 4t9 1.5q38 0 38 -50q0 -48 -38 -48q-18 0 -30 6h-308q-21 -7 -32 -7q-36 0 -36 41q0 54 40 54q16 0 28 -5zM115 185h308q3 1 9.5 3.5t11.5 4t9 1.5q38 0 38 -50q0 -48 -38 -48q-18 0 -30 6h-308q-21 -7 -32 -7q-36 0 -36 41q0 54 40 54 q16 0 28 -5z" />
<glyph unicode="&#x3e;" horiz-adv-x="554" d="M137 89l223 135l-229 119q-25 3 -34 13.5t-9 33.5q0 11 19.5 31.5t42.5 20.5q14 0 27 -13t11 -26l250 -130q29 -16 29 -34q0 -20 -9 -33.5t-38 -32.5l-236 -152q-6 -26 -33 -26q-19 0 -38 24t-19 43q0 14 10 19.5t33 7.5z" />
<glyph unicode="?" horiz-adv-x="379" d="M161 138q-43 0 -63 18.5t-20 61.5t22 82.5t81 99.5q57 58 75 89.5t18 64.5q0 17 -13 31.5t-34 14.5q-24 0 -46 -15.5t-31.5 -29.5t-22.5 -37q3 -18 -9 -32t-25 -14q-20 0 -35.5 12.5t-15.5 32.5q0 30 15 35q68 123 191 123q51 0 83 -35.5t32 -73.5q0 -45 -21.5 -87 t-97.5 -124q-62 -66 -78.5 -89.5t-16.5 -41.5t17 -18q14 0 20.5 9t6.5 18q0 8 8 15t20 7q44 0 44 -35q0 -31 -26 -56.5t-78 -25.5zM147 -12q-14 0 -27 12t-13 29q0 39 12 55t44 16q37 0 37 -53q0 -23 -13 -41t-40 -18z" />
<glyph unicode="@" horiz-adv-x="650" d="M203 -68q68 0 112 32q4 22 28 22q16 0 31.5 -11t15.5 -26q0 -17 -15.5 -29t-35.5 -10q-60 -38 -139 -38q-81 0 -131 56.5t-50 178.5q0 74 30.5 153.5t80.5 144.5t122.5 107t150.5 42q62 0 105.5 -20t66 -59t32 -85t9.5 -108q0 -79 -15.5 -139t-41 -91.5t-51 -46.5 t-51.5 -15q-41 0 -62 21.5t-21 55.5q0 14 5 59h-2q-25 -43 -70 -83t-89 -40q-30 0 -49.5 23.5t-19.5 69.5q0 74 36 150.5t91.5 125t107.5 48.5q16 0 25 -4q4 21 28 21q17 0 27 -8.5t10 -19.5q0 -3 -2 -10t-2 -9l-29 -296q-4 -48 26 -48q14 0 31.5 20t34 73.5t16.5 127.5 q0 115 -30 172t-115 57q-66 0 -127 -38t-101.5 -96t-65 -125.5t-24.5 -127.5q0 -177 117 -177zM251 78q16 0 50 35t64.5 91.5t30.5 103.5v16q0 28 -20 28q-44 0 -96 -79t-52 -149q0 -46 23 -46z" />
<glyph unicode="A" horiz-adv-x="496" d="M338 231l-189 -16q-41 -118 -43 -130q-3 -12 -3 -49q0 -41 -55 -41q-21 0 -32.5 12.5t-11.5 30.5q0 7 1.5 15t6 21.5t8.5 23.5l13.5 33.5l15.5 39.5l134 342q19 53 24 83q-1 28 12.5 48.5t37.5 20.5q25 0 37.5 -12.5t12.5 -25.5q0 -11 -4 -22t-4 -19q0 -34 83 -246 q92 -241 92 -285q0 -28 -16 -44t-40 -16q-18 0 -32 10.5t-14 25.5q0 10 3.5 22.5t3.5 16.5q0 31 -41 161zM178 292l135 11l-63 184z" />
<glyph unicode="B" horiz-adv-x="497" d="M60 69v495q-7 11 -7 26q0 24 17.5 35.5t41.5 11.5q16 0 25.5 -8t8.5 -20q91 41 164 41q40 0 69.5 -22.5t29.5 -59.5q0 -91 -93 -143v-2q16 2 23 2q60 0 96 -39t36 -90q0 -75 -44.5 -137t-108 -97t-123 -53.5t-99.5 -18.5q-54 0 -54 42q0 30 18 37zM146 532v-122 q63 3 120 44t57 84q0 18 -10.5 27.5t-38.5 9.5q-26 0 -65 -13.5t-63 -29.5zM146 310v-233q32 5 70.5 20.5t76.5 40t63.5 63t25.5 82.5q0 30 -25 54.5t-68 24.5q-57 0 -111 -23q-32 -14 -32 -29z" />
<glyph unicode="C" horiz-adv-x="443" d="M276 656q69 0 107.5 -30t38.5 -63q0 -53 -46 -53q-21 0 -30.5 9t-12.5 29q-2 12 -18 20.5t-40 8.5q-43 0 -81 -61.5t-57 -136t-19 -130.5q0 -91 26.5 -139.5t59.5 -48.5q32 0 67.5 22t50.5 50q1 18 3.5 28t13.5 20.5t31 10.5q21 0 32 -13t11 -28q0 -31 -24 -64 q-27 -37 -80 -71t-116 -34q-73 0 -118.5 69t-45.5 203q0 52 16.5 118.5t46 131t78.5 108.5t106 44z" />
<glyph unicode="D" horiz-adv-x="485" d="M40 26q0 27 12 39v519q-5 15 -5 28q0 15 12.5 28t39.5 13q24 0 33.5 -13t5.5 -29q66 41 150 41q67 0 119 -70.5t52 -155.5q0 -184 -82 -292q-51 -68 -132 -108t-147 -40q-58 0 -58 40zM138 530v-458q115 17 173 112t58 234q0 59 -33 108.5t-74 49.5q-63 0 -124 -46z" />
<glyph unicode="E" horiz-adv-x="442" d="M147 281v-201l190 15q12 14 30 14q23 0 38 -14t15 -31q0 -28 -18.5 -38t-59.5 -10l-196 -15q-12 -16 -53 -16q-19 0 -32 13t-13 35q0 23 13 42v193q-18 18 -18 43q0 26 18 44v165q-21 10 -21 35t15 35q-6 8 -6 17q0 15 15.5 25t37.5 10q43 0 45 -34l157 17q22 15 33 15 q27 0 41 -12.5t14 -31.5q0 -24 -14.5 -39.5t-39.5 -15.5q-7 0 -31 6l-160 -18v-169l122 18q18 14 32 14q23 0 37.5 -15t14.5 -33q0 -49 -56 -49q-7 0 -19 6z" />
<glyph unicode="F" horiz-adv-x="403" d="M146 285v-210q13 -18 13 -39t-18 -32.5t-45 -11.5q-52 1 -52 43q0 29 16 48v190q-17 16 -17 43q0 30 17 47v152q-6 2 -13 16t-7 26q0 30 19 33q-2 24 15.5 37t42.5 13q15 0 25 -9.5t4 -22.5l153 28q8 1 19.5 6.5t18.5 5.5q21 0 36.5 -11t14.5 -31q0 -32 -11.5 -45 t-39.5 -13q-16 0 -35 8l-156 -29v-160l140 25q14 14 42 14q12 0 23.5 -16.5t11.5 -30.5q0 -32 -10.5 -43.5t-33.5 -11.5q-21 0 -35 6z" />
<glyph unicode="G" horiz-adv-x="536" d="M342 665q69 0 103 -42q32 -38 32 -69q0 -17 -11.5 -30t-33.5 -13q-38 0 -47 46q-1 11 -15 21.5t-35 10.5q-40 0 -102 -58q-117 -111 -117 -285q0 -92 27 -140.5t69 -48.5q36 0 77.5 21t65.5 55q64 92 64 165q-18 -7 -59.5 -16.5t-58.5 -9.5q-14 0 -23.5 9.5t-9.5 28.5 q0 18 11 31.5t30 13.5q37 0 94.5 13.5t63.5 13.5q19 0 29.5 -13t10.5 -32q0 -28 -8.5 -68t-31 -91t-55 -93.5t-87.5 -72t-122 -30.5q-81 0 -127.5 71t-46.5 193q0 106 43 193.5t110 146.5q90 79 160 79z" />
<glyph unicode="H" horiz-adv-x="500" d="M145 298v-229q7 -21 7 -33q0 -18 -13 -29.5t-32 -11.5q-58 0 -58 39q0 7 3 18t7 12v228q-16 12 -16 31q0 39 16 46v206q-7 17 -7 28q0 19 17 30.5t43 11.5q12 0 26.5 -12.5t14.5 -28.5q0 -23 -8 -31v-191l209 13v176q-8 11 -8 35q0 18 15.5 28.5t35.5 10.5 q15 0 32.5 -12.5t17.5 -24.5q0 -16 -7 -29v-515q7 -14 7 -31q0 -16 -16.5 -27t-35.5 -11q-22 0 -36.5 13t-14.5 33q0 18 10 33v238z" />
<glyph unicode="I" horiz-adv-x="205" d="M145 554v-479q13 -17 13 -33q0 -18 -15.5 -32.5t-39.5 -14.5q-26 0 -42 13t-16 35q0 17 14 36v481q-11 6 -11 28q0 24 19 40.5t43 16.5q26 0 38 -16t12 -37q0 -22 -15 -38z" />
<glyph unicode="J" horiz-adv-x="422" d="M358 551v-411q0 -80 -60 -140q-57 -55 -145 -55q-64 0 -104 42.5t-40 111.5q0 28 13 51t35 23q24 0 40.5 -15.5t16.5 -33.5q0 -23 -16 -37q-5 -60 55 -60q21 0 43.5 10t35.5 25q40 43 40 95v389q-15 10 -15 38q0 56 60 56q20 0 35 -16.5t15 -42.5q0 -21 -9 -30z" />
<glyph unicode="K" horiz-adv-x="464" d="M146 348v-279q11 -8 11 -26q1 -26 -15 -37t-39 -11t-39.5 13t-15.5 37q1 18 12 27v501q-7 7 -7 24q0 25 14.5 36.5t33.5 11.5q20 0 36 -10.5t16 -30.5t-7 -27v-153h2q14 25 46 58l113 120q16 41 48 41q14 0 31.5 -11.5t17.5 -31.5q-1 -14 -12 -29t-26 -18l-156 -161 l219 -318q13 -2 22.5 -12t9.5 -20q0 -17 -18.5 -34t-40.5 -17q-46 0 -46 34l-165 246q-32 48 -43 77h-2z" />
<glyph unicode="L" horiz-adv-x="365" d="M146 566v-496l124 19q16 14 33 14q16 0 29.5 -11t13.5 -33q0 -25 -11 -38t-28 -13q-13 0 -28 5l-142 -23q-25 -5 -40 -5q-51 0 -51 42q0 25 14 35v505q-7 16 -7 25q0 53 53 53q49 0 49 -52q0 -3 -9 -27z" />
<glyph unicode="M" horiz-adv-x="637" d="M49 38q0 24 8 31v522q0 29 11.5 39.5t38.5 12.5q42 -3 42 -35q0 -44 73 -205.5t85 -234.5h3q16 73 87.5 215t73.5 185q0 7 -1 24t-1 23q0 14 12 23t32 9q64 0 64 -47q0 -15 -7 -29v-504q9 -9 9 -27q0 -20 -16 -32.5t-37 -12.5q-50 0 -50 37q0 21 11 32q0 266 2 341h-1 q-46 -79 -93.5 -201.5t-47.5 -169.5q0 -34 -41 -34q-50 0 -50 54q0 53 -35.5 154t-84.5 203h-1q2 -73 2 -339q11 -13 11 -34q0 -19 -13.5 -31t-38.5 -12q-23 0 -35 12t-12 31z" />
<glyph unicode="N" horiz-adv-x="489" d="M60 67v501q-8 13 -8 29q0 20 13 34t36 14q30 0 41 -8.5t11 -27.5q0 -35 29 -102q25 -60 98 -175q51 -81 71 -130h1q-3 127 -3 385l-5 9q-5 10 -5 16q0 23 12.5 33.5t30.5 10.5q21 0 37.5 -9.5t16.5 -26.5q0 -12 -7 -31v-536q10 -14 10 -24q0 -18 -10.5 -26t-40.5 -8 q-20 0 -30 14t-19 43q-11 37 -42 98t-56 102q-84 133 -102 185l-2 1q3 -366 3 -371q9 -13 9 -27q0 -24 -10 -34.5t-34 -10.5q-58 0 -58 45q0 14 13 27z" />
<glyph unicode="O" horiz-adv-x="489" d="M282 674q75 0 124.5 -76t49.5 -234q0 -163 -77 -273t-188 -110q-59 0 -98.5 44t-53.5 100t-14 118q0 100 35.5 200t95.5 165.5t126 65.5zM270 598q-33 0 -70 -51.5t-61.5 -132.5t-24.5 -159q0 -79 23.5 -138.5t71.5 -59.5q59 0 108.5 89t49.5 215q0 116 -25.5 176.5 t-71.5 60.5z" />
<glyph unicode="P" horiz-adv-x="443" d="M52 35q0 18 12 31v378q-28 2 -28 42q0 33 28 49v39q-6 8 -6 26q0 16 16 28t32 12q24 0 35.5 -12.5t6.5 -35.5v-9l36 21.5t40.5 22t37.5 11t56 6.5q54 0 83.5 -28.5t29.5 -72.5q0 -35 -16 -72.5t-48 -74t-88.5 -66.5t-128.5 -45v-222q11 -19 11 -26q0 -28 -11 -35t-51 -7 q-22 0 -34.5 11.5t-12.5 28.5zM150 498v-132q102 18 147.5 63t44.5 93q0 14 -14.5 27t-39.5 13q-34 0 -62 -13.5t-76 -50.5z" />
<glyph unicode="Q" horiz-adv-x="522" d="M321 668q79 0 117 -70.5t38 -194.5q0 -175 -60 -283q42 -53 80 -81q36 -5 36 -33q0 -23 -15.5 -36.5t-35.5 -13.5q-17 0 -25.5 4t-14.5 18q-31 21 -79 77q-72 -70 -179 -70q-25 0 -49.5 11t-49.5 36t-40.5 76.5t-15.5 121.5q0 95 27 179t70 139.5t94.5 87.5t101.5 32z M309 594q-69 0 -130 -103.5t-61 -261.5q0 -75 19.5 -122t60.5 -47q68 0 112 51q-52 58 -96 86q-15 14 -1 41.5t41 27.5q18 0 36 -16q22 -20 63 -69q35 87 35 232q0 73 -21 127t-58 54z" />
<glyph unicode="R" horiz-adv-x="507" d="M51 47q0 5 13 31v400q-3 -2 -8 -2q-7 0 -13.5 9t-6.5 27q0 43 28 52v18q-6 14 -6 28q0 18 16 30.5t37 12.5q19 0 31.5 -14.5t5.5 -35.5v-10q98 50 194 50q52 0 83.5 -28t31.5 -76q0 -67 -63.5 -127t-189.5 -86l255 -243q24 9 42 -6t18 -32q0 -26 -18 -41.5t-41 -15.5 q-13 0 -25.5 7.5t-18.5 20.5l-268 264v-206q10 -23 10 -33q0 -46 -68 -46q-20 0 -29.5 15.5t-9.5 36.5zM148 521v-147q220 62 220 155q0 18 -13 28.5t-34 10.5q-87 0 -173 -47z" />
<glyph unicode="S" horiz-adv-x="498" d="M285 648q47 0 87.5 -34t40.5 -65q0 -41 -39 -41q-53 0 -51 36q-14 29 -58 29q-53 0 -98.5 -49.5t-45.5 -106.5q0 -52 35 -52q24 0 92 21q64 22 109 22q51 0 82.5 -34t31.5 -97q0 -88 -35 -143q-41 -67 -117.5 -108t-146.5 -41q-67 0 -103 45.5t-36 81.5q0 21 14 38t35 17 q11 0 19 -7t11 -14.5t7 -22.5t6 -19q16 -44 55 -44q46 0 99 31.5t81 77.5q22 34 22 104q0 58 -45 58q-32 0 -96 -22q-61 -21 -106 -21q-47 0 -75 28t-28 90q0 87 75.5 164.5t177.5 77.5z" />
<glyph unicode="T" horiz-adv-x="382" d="M236 555v-489q9 -15 9 -25q0 -46 -60 -46q-41 0 -41 40q0 22 6 34v473l-80 -20q-15 -11 -31 -11q-19 0 -30.5 11.5t-11.5 29.5q0 20 11 34t26 14q14 0 26 -5l96 23q8 10 30.5 14.5t35.5 -1.5l103 22q17 7 30 7q16 0 27 -11t11 -34q0 -18 -11 -32t-27 -14q-15 0 -29 7z " />
<glyph unicode="U" horiz-adv-x="500" d="M200 -17q-77 0 -110 41.5t-34 95.5v458q-12 23 1 42.5t39 19.5q42 0 42 -54v-474q6 -20 22.5 -34t39.5 -14q68 0 109 37.5t41 66.5v414q-9 9 -9 23q0 19 15.5 31.5t39.5 12.5q16 0 28 -9.5t12 -28.5q0 -14 -4 -20v-434q0 -16 -12.5 -46t-30.5 -48q-83 -80 -189 -80z" />
<glyph unicode="V" horiz-adv-x="441" d="M191 181h2q20 79 66 197t82 195q8 33 19.5 45.5t31.5 12.5q44 0 44 -49q0 -19 -16 -49q-61 -106 -105 -211q-35 -86 -57 -161.5t-22 -100.5q0 -38 -15 -53.5t-49 -13.5q-17 -2 -33.5 10.5t-14.5 27.5q0 10 2 26.5t2 24.5q0 67 -52 273q-44 176 -44 240q0 45 47 45 q25 0 33 -18.5t8 -52.5q0 -39 39 -214q23 -103 32 -174z" />
<glyph unicode="W" horiz-adv-x="643" d="M155 -8q-37 0 -37 85q0 83 -39 255l-9.5 42.5t-10 46l-8 41.5t-7.5 46t-4 40t-2 44q0 27 14 40t33 13q20 0 31 -11.5t11 -29.5q0 -6 -2.5 -20.5t-2.5 -22.5q0 -65 25 -194q27 -127 32 -199q17 82 53 196q38 127 36 217q0 28 9 40t28 13q29 1 38 -13t9 -54q0 -64 46 -221 q43 -158 47 -175q13 101 47 228q24 97 32 190q-8 10 -8 24q0 45 49 45q21 0 35.5 -11.5t14.5 -24.5q0 -21 -3 -39q-11 -73 -48 -207q-53 -196 -65 -313q-4 -43 -14 -60t-37 -17t-35 15t-14 64q-3 29 -51 200q-20 69 -39 146l-14.5 -55.5t-17 -61t-14.5 -51.5 q-46 -150 -46 -208q0 -19 -16 -31t-46 -12z" />
<glyph unicode="X" horiz-adv-x="413" d="M65 -5q-17 0 -30 11.5t-13 28.5q0 31 22 39l126 266q-51 141 -105 216q-24 33 -24 46q0 20 9.5 31.5t21.5 11.5q28 0 45 -15q31 -28 89 -189q5 -13 7 -20l42.5 95l38.5 87q6 38 50 38q18 0 31 -12.5t13 -31.5q0 -22 -24 -51l-117 -209q46 -122 114 -265q10 -9 10 -30 q0 -23 -15 -35t-36 -12q-44 0 -38 51q-40 103 -77 208q-21 -47 -53 -133t-33 -88q-7 -17 -23 -27.5t-31 -10.5z" />
<glyph unicode="Y" horiz-adv-x="467" d="M190 80v243q-20 50 -79.5 123.5t-82.5 118.5q-28 14 -28 44q0 20 19 33t39 14q18 1 30.5 -12.5t10.5 -32.5q11 -32 66 -106.5t69 -104.5h2q17 31 63 87t66 90q17 31 18 34q6 22 15.5 33.5t30.5 11.5q19 0 32 -10t13 -29q0 -16 -24 -55q-7 -11 -35 -50q-12 -17 -67 -83 t-72 -107v-253q12 -12 12 -27q0 -19 -15 -33t-44 -14q-28 0 -39 9t-11 37q0 29 11 39z" />
<glyph unicode="Z" horiz-adv-x="457" d="M332 577l-180 -13q-15 -45 -53 -45q-20 0 -30 12.5t-10 27.5q0 39 18 66.5t46 27.5q19 0 28 -11l214 12q8 0 19 2t17 2q16 0 28.5 -8.5t12.5 -21.5q0 -28 -29 -72l-298 -487l217 9q0 24 14.5 38.5t33.5 14.5q17 0 32.5 -12.5t15.5 -42.5q0 -37 -14.5 -57t-32.5 -20 q-3 0 -40.5 0.5t-84.5 0.5q-1 0 -105 -4q-21 -1 -40.5 -2.5t-28 -2t-15.5 -0.5q-53 0 -53 49q0 22 17 44z" />
<glyph unicode="[" horiz-adv-x="271" d="M142 -140l83 11q11 11 22 11q14 0 23.5 -14.5t9.5 -32.5q0 -34 -44 -39l-94 -11q-25 -9 -43 -9q-44 0 -43 52v786q0 26 14 39t30 13q21 0 39 -9l60 11q15 11 32 11q19 0 29 -12t10 -28q0 -26 -10.5 -38.5t-23.5 -12.5q-17 0 -23 7l-74 -13v-719z" />
<glyph unicode="\" horiz-adv-x="266" d="M155 50l-125 537q-19 5 -19 33q0 32 43 32q32 0 42 -12.5t8 -36.5l126 -538q30 -8 30 -33t-17 -37t-42 -12q-21 0 -37 11t-16 25q0 15 7 31z" />
<glyph unicode="]" horiz-adv-x="271" d="M129 587l-83 -11q-11 -11 -22 -11q-14 0 -23.5 14.5t-9.5 32.5q0 36 44 39l94 12q25 9 43 9q44 0 43 -52v-786q0 -26 -14 -39t-30 -13q-17 0 -39 9l-60 -10q-16 -12 -32 -12q-19 0 -29 12t-10 28q0 26 10.5 38.5t23.5 12.5q17 0 23 -7l74 13v719z" />
<glyph unicode="^" horiz-adv-x="554" d="M378 422l-92 114l-112 -119q0 -19 -9.5 -36t-27.5 -17q-25 0 -45.5 14.5t-20.5 33.5q0 10 5 18t16 19t16 17l140 158q13 29 38 29q20 0 36 -16t22 -33l106 -141q25 -27 25 -51q0 -18 -13.5 -33t-43.5 -15q-17 0 -29.5 15t-10.5 43z" />
<glyph unicode="_" horiz-adv-x="500" d="M500 -150h-500v75h500v-75z" />
<glyph unicode="`" d="M130 630l43 -70q7 -3 13.5 -11.5t6.5 -18.5q0 -35 -42 -35q-15 0 -24.5 11t-8.5 25l-42 68q-20 11 -20 32q0 37 42 37q30 0 32 -38z" />
<glyph unicode="a" horiz-adv-x="386" d="M248 287v57q0 37 -24 37q-43 0 -85 -38q2 -8 -9 -18t-29 -10t-30 14.5t-12 31.5q0 14 14.5 28t29.5 11q66 50 161 50q26 0 45.5 -22t19.5 -61v-318q7 -5 7 -21q0 -34 -58 -34q-39 0 -39 28q0 10 7 21v44h-1q-74 -106 -163 -106q-32 0 -52 21.5t-20 55.5q0 67 66.5 136.5 t171.5 92.5zM246 194v32q-60 -14 -108 -61t-48 -83q0 -22 23 -22q40 0 86.5 47.5t46.5 86.5z" />
<glyph unicode="b" horiz-adv-x="390" d="M137 595v-236l2 -2q74 78 157 78q75 0 75 -105q0 -67 -46 -149t-113 -138.5t-122 -56.5q-27 0 -39 8.5t-12 30.5t15 31v531q-13 16 -13 37q0 16 20.5 24.5t41.5 8.5q42 0 42 -35q0 -13 -8 -27zM137 278v-203q61 34 105.5 105.5t44.5 152.5q0 27 -34 27q-18 0 -52 -21.5 t-64 -60.5z" />
<glyph unicode="c" horiz-adv-x="372" d="M230 443q45 0 79 -22t34 -50q0 -49 -53 -49q-20 0 -29 24t-30 24q-37 0 -79 -60q-43 -58 -43 -156t61 -98q26 0 49 21q33 29 46 63q3 23 10.5 35t28.5 12q22 0 32 -13t10 -27q0 -10 -19 -47t-47 -66q-52 -53 -126 -53q-61 0 -94.5 43.5t-33.5 114.5q0 77 15.5 122 t52.5 100q20 29 60.5 55.5t75.5 26.5z" />
<glyph unicode="d" horiz-adv-x="420" d="M284 398v184q-14 6 -14 35q0 17 15.5 28t39.5 11q21 0 33 -12.5t12 -30.5l-3 -34v-524q13 -5 13 -22q0 -22 -12.5 -30.5t-43.5 -8.5q-45 0 -45 36q0 19 5 22v71q-31 -56 -83.5 -99t-99.5 -43q-42 0 -67.5 32.5t-25.5 88.5q0 115 75 213.5t155 98.5q27 0 46 -16zM233 341 q-44 0 -92 -80t-48 -143q0 -55 39 -55q43 0 100 86q19 29 26 40.5t14.5 34.5t7.5 49q0 68 -47 68z" />
<glyph unicode="e" horiz-adv-x="371" d="M234 442q56 0 84.5 -39.5t28.5 -80.5q0 -40 -40 -67.5t-158 -54.5l-34 -8q-7 -27 -7 -61q0 -71 48 -71q33 0 63 22t37 45q-2 18 10 30t34 12q41 0 41 -40q0 -11 -14.5 -34t-39 -48t-63 -43.5t-80.5 -18.5q-53 0 -85 33t-32 106q0 134 63 226t144 92zM229 367 q-34 0 -60.5 -31t-39.5 -76q61 13 94 23t42 17t9 15q0 22 -12 37t-33 15z" />
<glyph unicode="f" horiz-adv-x="265" d="M80 52v285l-34 -6q-8 -6 -16 -6q-30 0 -30 47q0 13 7 26t19 13q5 0 12.5 -2t8.5 -2l33 6q0 140 23 197.5t94 57.5q31 0 64.5 -27.5t33.5 -49.5q0 -18 -10 -32t-27 -14q-15 0 -25 10t-10 21q-9 17 -32 17q-10 0 -15.5 -13.5t-9 -50.5t-3.5 -102l71 12q1 0 8.5 5.5 t14.5 5.5q15 0 25.5 -11.5t10.5 -26.5q0 -20 -7.5 -34.5t-20.5 -14.5q-12 0 -20 4l-82 -14v-296q9 -18 9 -27q0 -35 -49 -35q-48 0 -48 39q0 6 5 18z" />
<glyph unicode="g" horiz-adv-x="384" d="M332 383v-397q0 -93 -49 -146t-113 -53q-45 0 -80 19.5t-35 44.5q0 23 10.5 37t27.5 14q28 0 33 -28q18 -15 48 -15q75 0 75 134q0 22 1 68t1 69q-26 -69 -63 -109t-78 -40q-44 0 -67.5 33.5t-23.5 82.5q0 81 28.5 156.5t89.5 128.5t142 53q53 0 53 -52zM121 59 q26 0 60 49.5t52 131.5q13 59 16 123v1q-63 0 -106 -80t-43 -176q0 -49 21 -49z" />
<glyph unicode="h" horiz-adv-x="380" d="M246 60v237q0 40 -15 40q-40 0 -93 -78v-197q8 -16 8 -28q0 -17 -19 -28t-43 -11q-21 0 -28.5 7t-7.5 25q0 24 7 31v524q0 4 -4 14t-4 15q0 21 16 34t39 13q13 0 28 -14t15 -30q0 -13 -7 -29v-233h2q79 83 135 83q30 0 42 -20.5t12 -67.5v-290q0 -1 4 -8.5t4 -12.5 q0 -17 -16.5 -29t-34.5 -12q-23 0 -36 9t-13 23q0 23 9 33z" />
<glyph unicode="i" horiz-adv-x="189" d="M111 626q18 0 28.5 -12t10.5 -33q0 -41 -17 -66t-40 -25q-40 0 -40 49q0 37 15.5 62t42.5 25zM146 391q0 -16 -10 -33v-291q3 -2 7 -9.5t4 -14.5q0 -22 -20.5 -35t-43.5 -13q-18 0 -29.5 13t-11.5 33q0 19 11 30v283q-9 9 -9 26q0 18 2.5 28t15.5 19.5t39 9.5 q16 0 30.5 -15.5t14.5 -30.5z" />
<glyph unicode="j" horiz-adv-x="203" d="M128 628q15 0 23 -10.5t9 -21t1 -30.5q0 -80 -57 -80q-19 0 -30 21t-11 53q0 27 19 47.5t46 20.5zM150 342v-441q0 -75 -37.5 -112.5t-91.5 -37.5q-51 0 -82 35.5t-31 60.5q0 21 12 37.5t35 16.5q16 0 28.5 -11.5t8.5 -36.5q3 -10 12 -18.5t18 -8.5q45 0 45 94v423 q-14 17 -14 37q0 58 66 58q21 0 33.5 -14.5t12.5 -41.5q0 -14 -15 -40z" />
<glyph unicode="k" horiz-adv-x="367" d="M135 590v-316l2 -2q27 46 54 82l59 82q-1 14 9.5 25t25.5 11q26 0 38 -13.5t12 -32.5q0 -13 -9 -23t-19 -10l-109 -153l115 -172q12 1 22.5 -8t10.5 -22q0 -21 -16 -34t-45 -13q-11 0 -19.5 8.5t-10.5 23.5l-75 112q-33 52 -43 75l-2 -2v-133q1 -3 4 -9.5t5 -12t2 -10.5 q0 -48 -55 -48q-49 0 -49 51q0 20 10 27v513q-11 6 -11 27q0 12 2.5 20t15 16t35.5 8q27 0 38 -10.5t11 -32.5q0 -17 -8 -24z" />
<glyph unicode="l" horiz-adv-x="189" d="M53 67v506q-9 20 -9 34q0 30 10 39.5t44 9.5q20 0 36.5 -12t16.5 -33q0 -22 -15 -44v-505q14 -11 14 -27q0 -14 -17 -27t-38 -13t-35.5 12.5t-14.5 32.5q0 9 8 27z" />
<glyph unicode="m" horiz-adv-x="589" d="M136 265v-201q8 -14 8 -26q0 -22 -10.5 -32.5t-37.5 -10.5t-39.5 11t-12.5 37q0 6 9 27v308q-10 20 -10 36q0 41 59 41q40 0 40 -40q0 -18 -6 -31v-36q105 107 147 107q48 0 48 -67v-41q117 108 164 108q18 0 29.5 -12t11.5 -35v-348q11 -8 11 -24q0 -19 -18.5 -30 t-39.5 -11q-25 0 -35 7.5t-10 32.5q0 18 9 23v278q0 21 -12 21q-21 0 -110 -86v-212q0 -39 -12 -51.5t-44 -12.5q-43 0 -43 38q0 17 16 31v270q0 18 -13 18q-20 0 -99 -87z" />
<glyph unicode="n" horiz-adv-x="380" d="M140 279v-227q7 -8 7 -23q0 -17 -17.5 -25.5t-38.5 -8.5q-45 0 -45 32q0 15 11 27v167q-14 8 -14 32q0 23 14 56v77q-7 14 -7 31q0 14 17 26t36 12q47 0 47 -30q0 -19 -10 -31v-34q61 59 87 77t48 18q19 0 37.5 -18t18.5 -39v-340q6 -15 6 -23q0 -40 -52 -40 q-45 0 -45 36q0 11 8 24v288q0 4 -5.5 9.5t-10.5 5.5q-15 0 -92 -79z" />
<glyph unicode="o" horiz-adv-x="389" d="M243 447q34 0 58.5 -19t36.5 -49.5t17.5 -60.5t5.5 -60q0 -56 -20 -106.5t-40 -75.5q-44 -56 -79.5 -75.5t-87.5 -19.5q-38 0 -72.5 41t-34.5 118q0 131 63 219t153 88zM223 372q-42 0 -77 -67t-35 -150q0 -44 12 -71.5t32 -27.5q42 0 80 52q42 60 42 146q0 118 -54 118z " />
<glyph unicode="p" horiz-adv-x="401" d="M136 376v-51h1q33 57 69 83.5t85 26.5q37 0 62.5 -34.5t25.5 -94.5q0 -140 -62.5 -229t-136.5 -89q-28 0 -44 19v-230q9 -13 9 -28q0 -40 -60 -40q-41 0 -41 34q0 22 9 36v590q-9 11 -9 28q0 22 13 33t31 11q55 0 55 -40q0 -6 -3 -15zM136 197v-105q13 -32 40 -32 q42 0 80.5 72.5t38.5 161.5q0 65 -35 65q-28 0 -73 -65q-34 -50 -51 -97z" />
<glyph unicode="q" horiz-adv-x="401" d="M267 -236v381h-1q-23 -65 -62.5 -109t-86.5 -44q-7 0 -15 1t-23.5 9t-27.5 21t-21 41t-9 66q0 137 62.5 221.5t143.5 84.5q57 0 89.5 -15t32.5 -35v-576q25 24 44 51q3 20 27 20q29 0 29 -35q0 -24 -55 -81t-77 -57q-50 0 -50 56zM221 361q-37 0 -76.5 -57t-39.5 -147 q0 -35 7 -57t14 -27.5t13 -5.5q35 0 74.5 78.5t55.5 202.5q-14 13 -48 13z" />
<glyph unicode="r" horiz-adv-x="308" d="M53 57v324l-7 25q0 13 15.5 23t37.5 10q19 0 31 -8.5t12 -21.5q0 -15 -6 -22v-29h1q74 79 114 79q23 0 39 -28t16 -92q0 -43 -45 -43q-41 0 -41 26q0 13 5 26q0 21 -10 21q-4 0 -16 -10t-29.5 -30.5t-33.5 -45.5v-195q12 -10 12 -27q0 -23 -14 -33.5t-52 -10.5 q-42 0 -42 39q0 12 13 23z" />
<glyph unicode="s" horiz-adv-x="399" d="M255 455q33 0 58 -14t25 -39q0 -37 -35 -37q-12 0 -19 10q-5 9 -28 9q-60 0 -98 -31.5t-38 -66.5q0 -28 21 -28q8 0 19 3.5t25.5 9.5l21.5 9q61 22 79 22q40 0 65 -27.5t25 -74.5q0 -45 -18 -82t-44 -60t-57.5 -39.5t-57 -23t-43.5 -6.5q-41 0 -76 23t-35 55 q0 23 12 39.5t35 16.5q16 0 24.5 -9t8.5 -18q0 -8 -4 -16q11 -19 40 -19q37 0 84.5 34.5t47.5 88.5q0 43 -29 43q-10 0 -20 -3t-24 -9.5t-22 -9.5q-57 -22 -88 -22q-34 0 -53.5 27.5t-19.5 65.5q0 70 69.5 124.5t148.5 54.5z" />
<glyph unicode="t" horiz-adv-x="368" d="M100 436v78q-6 6 -6 22q0 34 57 34q42 0 42 -28q0 -13 -10 -24v-66l83 17q8 8 17 8q16 0 25 -12t9 -25q0 -47 -31 -47q-13 0 -16 5l-87 -17v-283q0 -23 11 -23q9 0 41 30.5t50 61.5q-1 17 8.5 27.5t25.5 10.5q27 0 36.5 -11t9.5 -32q0 -18 -35.5 -60t-85 -78.5 t-82.5 -36.5q-28 0 -45 21.5t-17 51.5v303l-40 -7q-6 -6 -20 -9q-38 3 -38 46q0 17 11 28.5t27 11.5q10 0 17 -5z" />
<glyph unicode="u" horiz-adv-x="380" d="M136 377v-280q0 -8 6.5 -16.5t13.5 -8.5q15 0 41.5 24.5t46.5 55.5v231q-6 12 -6 20q0 32 42 32q13 0 21 -1.5t15.5 -6t10 -15.5t0.5 -29v-327q8 -12 8 -25q0 -36 -60 -36q-36 0 -36 28q0 8 7 22v19q-65 -82 -126 -81q-25 1 -46 22.5t-21 50.5v321q0 2 -2.5 9t-2.5 12 q0 40 53 40q17 0 29.5 -9.5t12.5 -28.5q0 -12 -7 -23z" />
<glyph unicode="v" horiz-adv-x="330" d="M131 -9q-18 0 -32.5 13t-15.5 46q0 32 -23 120q-36 146 -36 202q-7 7 -7 21q0 17 14.5 30t37.5 13q22 0 33.5 -13t11.5 -22q0 -19 -9 -30q1 -56 18 -141l19 -102q20 69 49 138q33 86 46 123q9 29 21 41.5t33 12.5q38 0 38 -39q0 -10 -2.5 -21.5t-10.5 -29l-13 -28.5 t-20 -40l-22 -43q-53 -105 -82 -206q-7 -25 -18 -35t-30 -10z" />
<glyph unicode="w" horiz-adv-x="497" d="M113 414q0 -11 -8 -27l36 -240h2l75 209q-10 21 -10 41q0 36 47 36q42 0 42 -80l51 -204h2q4 34 30 107q27 74 18 120q-7 14 -7 25q0 17 17 28.5t40 11.5q14 0 25.5 -10.5t11.5 -24.5q0 -17 -11 -28q-4 -89 -27 -149q-48 -124 -57 -201q4 -18 -4 -26.5t-34 -8.5 q-46 0 -46 35l-53 229l-78 -213q0 -51 -47 -51q-22 0 -31.5 13.5t-9.5 43.5l-52 321q-9 9 -9 28q0 24 12 36t28 12q47 0 47 -33z" />
<glyph unicode="x" horiz-adv-x="340" d="M171 155l-78 -135q0 -10 -1 -15t-9.5 -10.5t-24.5 -5.5q-14 0 -30.5 13t-16.5 34q0 30 20 30l89 148q-52 55 -94 148q-14 6 -14 28q0 17 17.5 31.5t37.5 14.5q34 0 34 -39q14 -47 64 -113l70 123q0 36 34 36q17 0 33.5 -14t16.5 -31q0 -19 -17 -31l-87 -145 q116 -149 116 -200q0 -16 -11.5 -27t-28.5 -11q-25 0 -37 30q-31 78 -83 141z" />
<glyph unicode="y" horiz-adv-x="369" d="M163 28l-141 331q-18 15 -18 36q0 17 17.5 28.5t32.5 11.5q24 0 35 -15t9 -34l101 -251l78 260q0 16 10 29.5t31 13.5q22 0 36.5 -10.5t14.5 -28.5q0 -21 -19 -31l-144 -438q-25 -79 -53 -105t-67 -26q-34 0 -61 23.5t-36 67.5q-1 7 -6.5 14t-5.5 18q0 17 11 27.5 t30 10.5q47 0 47 -35q0 -5 -2.5 -12.5t-2.5 -9.5q0 -11 7.5 -21t18.5 -10q15 0 32 33.5t45 122.5z" />
<glyph unicode="z" horiz-adv-x="358" d="M32 62l197 291h-126q-1 -27 -11 -40.5t-25 -13.5q-37 0 -37 41q0 46 13.5 65.5t41.5 19.5h175q17 14 42 14q15 0 27 -10t12 -24q0 -25 -13 -44l-200 -289h132q9 47 42 47q34 0 34 -56q0 -37 -14 -54t-33 -17q-17 0 -29 8h-173q-13 -8 -33 -8q-44 0 -44 31q0 33 22 39z " />
<glyph unicode="{" horiz-adv-x="291" d="M205 -230q-55 0 -84 32.5t-28 89.5q0 20 4.5 64t4.5 67q0 103 -13.5 137.5t-58.5 34.5q-29 0 -29 38q0 43 34 43q50 0 64.5 42t14.5 180q0 89 36 137t98 48q26 0 35 -9t9 -26q0 -23 -10 -32.5t-35 -9.5q-50 0 -50 -105v-99q0 -65 -19 -115.5t-58 -54.5q40 -9 52.5 -55 t12.5 -157q0 -24 -5 -65t-5 -56q0 -54 30 -54q16 0 32 6t25 6q14 0 22 -12.5t8 -33.5q0 -22 -17 -31.5t-70 -9.5z" />
<glyph unicode="|" horiz-adv-x="258" d="M88 -182v853q-10 19 -10 41q0 38 60 38q46 0 46 -37q0 -34 -13 -42v-853q15 -11 15 -34q0 -16 -13.5 -25t-35.5 -9q-55 0 -55 44q0 8 6 24z" />
<glyph unicode="}" horiz-adv-x="291" d="M82 683q55 0 84 -32.5t28 -89.5q0 -20 -4.5 -64t-4.5 -66q0 -104 13.5 -138.5t58.5 -34.5q29 0 29 -38q0 -43 -34 -43q-50 0 -64.5 -42t-14.5 -180q0 -89 -36 -137t-98 -48q-44 0 -44 35q0 24 10 33t35 9q50 0 50 105v99q0 65 19 115.5t58 54.5q-40 9 -52.5 55t-12.5 157 q0 25 5 65t5 56q0 54 -30 54q-16 0 -32 -6t-25 -6q-14 0 -22 12.5t-8 33.5q0 22 17 31.5t70 9.5z" />
<glyph unicode="~" horiz-adv-x="554" d="M356 128q-35 0 -57.5 15.5t-56.5 56.5q-2 2 -6 7l-5.5 7t-5 5.5t-5 4.5t-4.5 3.5t-5 3.5t-5 2t-6 1.5t-6 0.5q-31 0 -59 -58q-21 -47 -40 -47q-23 0 -40 9.5t-17 30.5q0 35 28 51q34 55 65.5 77.5t75.5 22.5q30 0 50 -15.5t46 -50.5q20 -25 30 -33.5t22 -8.5q26 0 36 11 t12 38q4 39 13 54.5t29 15.5q18 0 32.5 -12t14.5 -30q0 -71 -42 -116.5t-94 -45.5z" />
<glyph unicode="&#xa1;" horiz-adv-x="208" d="M116 441q15 0 26 -13.5t11 -29.5q0 -27 -18.5 -49t-42.5 -22q-37 0 -37 54q0 31 13 45.5t48 14.5zM60 -160v350q-10 10 -10 43q0 17 21 30.5t47 13.5q20 0 30 -14.5t10 -31.5q0 -24 -12 -36v-351q13 -20 13 -34q0 -27 -14.5 -38t-57.5 -11q-21 0 -30 9.5t-9 32.5t12 37z " />
<glyph unicode="&#xa2;" horiz-adv-x="518" d="M249 482v-279q41 19 57 64q-11 40 30 40q43 0 43 -32q0 -40 -38 -84t-92 -68v-126q12 -12 12 -25q0 -29 -44 -29q-39 0 -39 26q0 11 9 29v112q-9 -3 -23 -3q-51 0 -86 50t-35 115q0 103 36 166.5t108 96.5v82q-11 14 -11 22q0 12 15 21.5t39 9.5q32 0 32 -36 q0 -10 -13 -16v-67q15 5 35 5q36 0 61.5 -27.5t25.5 -50.5q0 -21 -15.5 -33t-31.5 -12q-23 0 -24 19q0 12 -6.5 24t-15.5 12q-18 0 -29 -6zM123 286q0 -43 13 -73.5t33 -30.5q6 0 18 3v273q-64 -52 -64 -172z" />
<glyph unicode="&#xa3;" horiz-adv-x="518" d="M333 303l-118 -10q-12 -144 -57 -195q40 3 101 -19.5t89 -22.5q40 0 61 71q-5 4 -5 16q0 40 32 40q21 0 38 -14t17 -31q0 -20 -13 -24q-22 -73 -54.5 -103t-76.5 -30q-35 0 -93 23.5t-103 23.5q-32 0 -60 -16q-38 -19 -52 -19t-23 13.5t-9 34.5q0 6 1 10.5t1.5 7.5t3 6 t3.5 4.5t5 4t5 3t6.5 3t6.5 2.5q40 15 60 54q25 50 32 150q-2 0 -27 -2.5t-33 -2.5q-14 0 -23.5 13.5t-9.5 30.5q0 11 10.5 20.5t24.5 10.5l62 5q5 86 19 144.5t37 88.5t48.5 41.5t59.5 11.5q53 0 101 -46q9 2 19.5 -7t10.5 -20q0 -29 -18 -41t-39 -12q-12 0 -19.5 8 t-7.5 19q-21 23 -50 23q-32 0 -51 -45t-26 -158l116 10q12 6 27 6q12 0 20 -11.5t8 -27.5q0 -27 -11 -39.5t-24 -12.5q-14 0 -22 10z" />
<glyph unicode="&#xa4;" horiz-adv-x="554" d="M262 75q-35 0 -63.5 11.5t-42.5 25.5l-30 -28q-4 -29 -37 -29q-19 0 -32 12.5t-13 35.5q0 12 8.5 24.5t22.5 13.5l28 26q-32 49 -32 134q0 91 37 140l-36 42q-10 3 -18 13.5t-8 23.5q0 24 12.5 35t30.5 11q21 0 32.5 -11t11.5 -26l26 -31q56 45 138 45q57 0 98 -41l31 34 q6 30 37 30q19 0 32 -12.5t13 -35.5q0 -13 -8.5 -25t-21.5 -13l-32 -34q39 -61 39 -129q0 -82 -40 -140l32 -33q11 -2 20.5 -14t9.5 -25q0 -25 -13 -36t-31 -11q-21 0 -32.5 11t-11.5 26l-26 26q-59 -46 -131 -46zM264 156q57 0 98.5 49t41.5 110q0 50 -33 98.5t-79 48.5 q-60 0 -100 -47t-40 -118q0 -57 30 -99t82 -42z" />
<glyph unicode="&#xa5;" horiz-adv-x="518" d="M193 72v35l-60 -5q-17 -13 -36 -13q-33 0 -33 46q0 16 10.5 28t22.5 12q18 0 33 -5l63 5v64l-61 -4q-16 -14 -34 -14q-34 0 -34 49q0 16 10.5 26.5t22.5 10.5q16 0 33 -5l63 5v16q-20 50 -79.5 123.5t-82.5 118.5q-28 14 -28 44q0 20 19 33t39 14q18 1 30.5 -12.5 t10.5 -32.5q11 -32 66 -106.5t69 -104.5h2q17 31 63 87t66 90q17 31 18 34q6 22 15.5 33.5t30.5 11.5q19 0 32 -10t13 -29q0 -16 -24 -55q-7 -11 -35 -50q-12 -17 -67 -83t-72 -107v-11l82 5q14 11 32 11q30 0 30 -36q0 -20 -11 -34t-27 -14q-15 0 -23 5l-83 -5v-63l82 6 q13 10 33 10q12 0 20.5 -9.5t8.5 -26.5q0 -48 -38 -48q-16 0 -22 6l-84 -6v-43q12 -12 12 -26q0 -20 -15 -34t-44 -14q-28 0 -39 9t-11 37q0 23 11 31z" />
<glyph unicode="&#xa6;" horiz-adv-x="258" d="M171 566v-203q15 -11 15 -34q0 -15 -14 -24.5t-35 -9.5q-55 0 -55 44q0 8 6 24v203q-10 19 -10 41q0 38 60 38q46 0 46 -37q0 -33 -13 -42zM88 -77v202q-10 20 -10 42q0 38 60 38q46 0 46 -37q0 -33 -13 -43v-202q15 -11 15 -34q0 -15 -14 -24.5t-35 -9.5q-55 0 -55 44 q0 8 6 24z" />
<glyph unicode="&#xa7;" horiz-adv-x="469" d="M278 647q54 0 93 -28t39 -53q0 -16 -17 -32t-36 -16q-34 0 -32 27q-19 26 -57 26q-47 0 -86 -33t-39 -81q0 -45 39 -45q18 0 64.5 7.5t71.5 7.5q117 0 117 -127q0 -51 -28 -93q15 -25 15 -57q0 -95 -74.5 -158t-171.5 -63q-73 0 -110 40t-37 82q0 19 12 33t30 14 q35 0 38 -38q0 -19 19.5 -37t46.5 -18q68 0 113 38.5t45 97.5q0 51 -48 51q-13 0 -63 -11.5t-79 -11.5q-48 0 -77.5 32.5t-29.5 72.5q0 58 35 108q-17 26 -17 58q0 52 21.5 93t55.5 65t72 36.5t75 12.5zM297 352q-19 0 -62 -8.5t-57 -8.5q-21 0 -38 5q-16 -21 -16 -55 q0 -19 13 -29t31 -10q19 0 64.5 10.5t60.5 10.5q27 0 46 -10q8 24 8 43q0 52 -50 52z" />
<glyph unicode="&#xa8;" d="M67 501q-18 0 -28 19t-10 37q0 56 49 56q45 0 45 -41q0 -38 -10.5 -54.5t-45.5 -16.5zM215 503q-42 0 -42 52q0 58 43 58q16 0 33.5 -12.5t17.5 -35.5q0 -62 -52 -62z" />
<glyph unicode="&#xa9;" horiz-adv-x="642" d="M272 -30q-37 0 -75 16.5t-72.5 48.5t-56.5 86.5t-22 122.5q0 99 42.5 194.5t114 156.5t147.5 61q23 0 52 -8.5t64 -30t63.5 -52.5t47.5 -83.5t19 -116.5q0 -100 -32.5 -179.5t-83 -124.5t-104.5 -68t-104 -23zM276 33q28 0 60 11t67 36.5t62.5 62t45.5 93.5t18 125 q0 61 -19.5 109t-49 73t-58.5 37.5t-54 12.5q-57 0 -112 -52.5t-89 -134t-34 -162.5q0 -54 17 -97t43 -66.5t52.5 -35.5t50.5 -12zM264 118q-45 0 -74 30t-29 96q0 102 75 174.5t171 72.5q37 0 37 -72q10 -7 10 -21q0 -10 -11 -19.5t-33 -9.5q-35 0 -35 22q0 4 2 10t2 9 q0 14 -5 14q-39 0 -86.5 -55.5t-47.5 -128.5q0 -55 36 -55q39 0 73.5 28.5t44.5 62.5q6 16 24 16q15 0 27 -13.5t12 -29.5q0 -26 -63.5 -78.5t-129.5 -52.5z" />
<glyph unicode="&#xaa;" horiz-adv-x="325" d="M217 523v42q0 27 -21 27q-42 0 -79 -26q1 -8 -8.5 -14t-21.5 -6q-14 0 -24 10t-10 29q0 12 10 21t21 7q66 42 138 42q28 0 45 -18t17 -47v-209q8 -13 8 -20q0 -23 -53 -23q-31 0 -31 17q0 4 1.5 7.5t4 6.5t3.5 5v30q-15 -30 -52.5 -51.5t-74.5 -21.5q-31 0 -49.5 19.5 t-18.5 48.5q0 55 46.5 95t99.5 40q35 0 49 -11zM111 397q31 1 67 25t36 50q0 14 -43 14q-28 -1 -53 -22.5t-25 -47.5q0 -19 18 -19z" />
<glyph unicode="&#xab;" horiz-adv-x="395" d="M96 105l-63 133q-17 15 -17 43t20 44l95 138q6 29 45 29q17 0 33 -11.5t16 -28.5q0 -13 -8.5 -25t-19.5 -14l-93 -134l61 -126q10 0 17.5 -11t7.5 -27q0 -18 -14.5 -30.5t-30.5 -12.5q-38 0 -49 33zM260 105l-63 133q-17 17 -17 43q0 28 20 44l96 138q4 29 45 29 q17 0 32.5 -11.5t15.5 -28.5q0 -13 -8 -25t-19 -14l-94 -134l61 -126q10 0 17.5 -11t7.5 -27q0 -18 -14.5 -30.5t-29.5 -12.5q-39 0 -50 33z" />
<glyph unicode="&#xac;" horiz-adv-x="554" d="M401 287h-289q-16 -6 -30 -6q-35 0 -35 40q0 54 39 54q15 0 27 -5h313q66 0 66 -41q0 -24 -8 -38v-104q8 -10 8 -26q0 -20 -13.5 -31t-29.5 -11q-25 0 -41.5 9.5t-16.5 26.5q0 26 10 39v93z" />
<glyph unicode="&#xad;" horiz-adv-x="275" d="M176 233l-72 -12q-14 -15 -32 -15q-14 0 -24.5 15t-10.5 36q0 23 11 37t26 14q14 0 23 -9l75 9q10 12 26 12q18 0 29 -14t11 -36q0 -18 -11 -33.5t-25 -15.5q-19 0 -26 12z" />
<glyph unicode="&#xae;" horiz-adv-x="642" d="M272 -30q-39 0 -78.5 16.5t-74.5 48.5t-57 86.5t-22 122.5q0 99 42.5 194.5t115.5 156.5t152 61q25 0 55 -8.5t65.5 -29.5t64 -52.5t48 -84t19.5 -116.5q0 -100 -32.5 -179.5t-83.5 -124.5t-106 -68t-108 -23zM276 33q38 0 80.5 18.5t83.5 55.5t68 103.5t27 150.5 q0 61 -19.5 109t-50 73t-60.5 37.5t-57 12.5q-60 0 -116.5 -52.5t-90.5 -133.5t-34 -163q0 -103 55 -157t114 -54zM282 219v-66q0 -50 -55 -50q-11 0 -15.5 4t-4.5 18q0 8 4 28v286q0 19 9.5 28t20.5 9q24 0 39 -12q55 38 94 38q72 0 72 -73q0 -103 -134 -163 q31 -40 45 -54.5t24 -14.5q22 0 24 27q4 21 25 21q14 0 24 -8.5t10 -22.5q0 -28 -31.5 -54t-59.5 -26q-24 0 -42.5 17t-48.5 68zM282 405v-93q45 19 71 46t26 56q0 25 -19 25q-28 0 -78 -34z" />
<glyph unicode="&#xaf;" d="M207 548l-109 -16q-8 -4 -23 -4q-12 0 -21.5 11.5t-9.5 25.5q0 20 9.5 30t21.5 10q7 0 20 -5l100 15q14 7 24 7q13 0 23 -10.5t10 -27.5q0 -22 -16 -31t-29 -5z" />
<glyph unicode="&#xb0;" horiz-adv-x="264" d="M147 665q40 0 64 -32t24 -81q0 -53 -30.5 -91.5t-84.5 -38.5q-37 0 -61.5 35t-24.5 73q0 67 32 101t81 34zM143 600q-47 0 -47 -60q0 -53 34 -53q42 0 42 71q0 42 -29 42z" />
<glyph unicode="&#xb1;" horiz-adv-x="554" d="M310 412v-67h114q2 1 13 6t16 5q40 0 40 -52q0 -24 -11 -37t-29 -13q-15 0 -29 8h-114v-76q11 -13 11 -27q0 -21 -14 -33t-31 -12q-26 0 -43 10.5t-17 28.5q0 25 11 40v69h-112q-25 -8 -32 -9q-38 0 -38 42q0 57 42 57q12 0 28 -7h112v67q-11 17 -11 35q0 14 12.5 24 t32.5 10q27 0 42 -12t15 -29q0 -12 -8 -28zM424 0h-309q-27 -9 -32 -9q-38 0 -38 43q0 56 42 56q12 0 28 -7h309q2 1 13 6t16 5q40 0 40 -51q0 -24 -11 -37.5t-29 -13.5q-10 0 -29 8z" />
<glyph unicode="&#xb2;" horiz-adv-x="302" d="M104 439l86 4q16 0 16 5q0 16 9.5 27t25.5 11q41 0 41 -45q0 -52 -36 -55l-166 -10q-53 -3 -53 36q0 62 27.5 99t78.5 66q63 34 63 92q0 31 -26 31q-24 0 -32 -10t-11 -30q-2 -12 -4.5 -19t-13.5 -13.5t-30 -6.5q-17 0 -27 9.5t-10 19.5q0 39 34 76t105 37 q41 0 67.5 -20.5t26.5 -63.5q0 -93 -92 -148q-79 -48 -79 -92z" />
<glyph unicode="&#xb3;" horiz-adv-x="330" d="M211 695l-85 -15q0 -22 -10.5 -32.5t-24.5 -10.5q-34 0 -34 54q0 48 35 48q21 0 87 11.5t77 11.5q34 0 34 -34q0 -29 -50 -98q32 1 52 -23t20 -71q0 -78 -49 -125t-119 -47q-52 0 -85 33.5t-33 56.5q0 13 13.5 24t32.5 11q26 0 32 -26q10 -36 46 -36t59.5 28t23.5 69 q0 47 -29 47q-22 0 -33 -18t-28 -18q-12 0 -20.5 7t-8.5 19q0 27 34 40q20 9 63 94z" />
<glyph unicode="&#xb4;" d="M249 604l-57 -76q-1 -14 -11.5 -23.5t-27.5 -9.5q-35 0 -37 34q2 25 22 30l59 79q-6 17 5.5 25t28.5 8t27.5 -9t10.5 -25q0 -22 -20 -33z" />
<glyph unicode="&#xb5;" horiz-adv-x="380" d="M236 161v219q-5 20 -5 24q0 16 12.5 25t29.5 9q20 0 36 -8.5t16 -21.5l-6 -28v-328q6 -12 6 -23q0 -34 -58 -34q-17 0 -26.5 8t-9.5 17q0 13 7 20v36q-17 -29 -44.5 -57t-46.5 -28q-9 0 -19 8v-188q15 -10 15 -31q0 -17 -16 -25.5t-36 -8.5q-52 0 -52 28q0 26 6 37v569 q-5 15 -5 22q0 16 15.5 26t37.5 10q16 0 30.5 -9t14.5 -21q0 -18 -10 -26v-285q0 -14 6.5 -22.5t15.5 -8.5q13 0 38.5 27.5t47.5 67.5z" />
<glyph unicode="&#xb6;" horiz-adv-x="460" d="M198 42v304q-50 -10 -71 -10q-54 0 -83.5 26.5t-29.5 67.5q0 57 53.5 108.5t127.5 79.5t141 27q16 10 30 10q29 0 40 -9t11 -30t-10 -27v-538q12 -15 12 -27q0 -36 -60 -36q-17 0 -24 7t-7 25q0 8 4 22v540q-22 0 -59 -8v-531q12 -10 12 -23t-19.5 -24.5t-36.5 -11.5 q-42 0 -42 29q0 20 11 29zM198 418v133q-100 -43 -100 -112q0 -32 47 -32q21 0 53 11z" />
<glyph unicode="&#xb7;" horiz-adv-x="201" d="M79 155q-16 0 -29.5 15t-13.5 41q0 23 15.5 43t40.5 20q43 0 43 -56q0 -26 -14 -44.5t-42 -18.5z" />
<glyph unicode="&#xb8;" d="M190 12q0 -6 -4.5 -13.5t-11.5 -8.5l-21 -42q29 1 46.5 -19t17.5 -55q0 -44 -28 -74t-77 -30q-21 0 -34 13q-10 -6 -15 -6q-8 0 -15 10.5t-7 23.5q0 14 10 26t20 12q6 0 11.5 -4.5t5.5 -10.5q14 -8 25 -8q22 0 36.5 12.5t14.5 33.5q0 28 -21 28q-2 0 -12 -6q-5 -6 -23 -6 q-11 0 -17.5 7t-6.5 17q0 16 12 26l47 83q0 9 6.5 14.5t15.5 5.5t17 -9t8 -20z" />
<glyph unicode="&#xb9;" horiz-adv-x="209" d="M171 711v-267q0 -2 2 -13.5t2 -17.5q0 -17 -17 -27.5t-48 -10.5q-37 0 -37 24q0 9 3.5 17t10.5 17.5t8 10.5v199q-2 0 -14 -13t-21 -13q-12 0 -21.5 7.5t-9.5 20.5q0 25 36 55q17 13 33.5 30t26 25t18.5 8q14 0 25.5 -7t11.5 -19q0 -5 -4.5 -15t-4.5 -11z" />
<glyph unicode="&#xba;" horiz-adv-x="325" d="M294 522q0 -67 -49 -129t-116 -62q-45 0 -71 32t-26 77q0 85 48.5 150t119.5 65q48 0 71 -42.5t23 -90.5zM219 523q0 69 -30 69q-32 0 -57 -42t-25 -103q0 -53 34 -53q28 0 53 40t25 89z" />
<glyph unicode="&#xbb;" horiz-adv-x="395" d="M128 283l-68 128q-25 7 -25 38q0 18 14 30.5t29 12.5q39 0 51 -33l69 -134q18 -16 18 -44q0 -27 -20 -44l-86 -132q1 -15 -12.5 -24.5t-34.5 -9.5q-17 0 -33 11.5t-16 28.5q0 13 8.5 25.5t18.5 14.5zM292 283l-68 128q-25 7 -25 38q0 18 14.5 30.5t29.5 12.5q38 0 50 -33 l70 -134q17 -17 17 -44t-19 -44l-87 -132q1 -15 -12 -24.5t-35 -9.5q-17 0 -33 11.5t-16 28.5q0 13 8.5 25.5t19.5 14.5z" />
<glyph unicode="&#xbc;" horiz-adv-x="599" d="M86 24q0 15 6 23.5t13.5 13t9.5 8.5l222 540q2 48 38 48q19 0 38 -12.5t19 -28.5q0 -14 -8.5 -24.5t-17.5 -14.5l-224 -542q-1 -23 -17.5 -35t-34.5 -12q-44 0 -44 36zM162 596v-267q0 -3 2 -14t2 -17q0 -17 -17 -27.5t-48 -10.5q-37 0 -37 24q0 9 3.5 17t10.5 17.5 t8 10.5v199q-2 0 -14 -13t-21 -13q-12 0 -21.5 7.5t-9.5 20.5q0 25 36 55q17 13 33.5 30t26 25t18.5 8q14 0 25.5 -7t11.5 -19q0 -5 -4.5 -15t-4.5 -11zM509 327v-147l25 5q13 11 24 11q13 0 22.5 -9t9.5 -29q0 -36 -30 -36q-16 0 -24 8l-27 -5v-66q15 -7 15 -24 q0 -40 -62 -40q-18 0 -28.5 10.5t-10.5 21.5q0 18 8 25v62l-106 -17q-19 -7 -27 -7q-32 0 -32 40q0 14 25 36l137 198q3 23 48 23q17 0 29 -9t12 -23q0 -15 -8 -28zM432 169v115l-86 -129z" />
<glyph unicode="&#xbd;" horiz-adv-x="598" d="M86 24q0 15 6 23.5t13.5 13t9.5 8.5l221 540q2 22 12 35t26 13q20 0 38.5 -12t18.5 -28q0 -27 -25 -40l-224 -542q-1 -23 -17 -35t-34 -12q-45 0 -45 36zM162 596v-267q0 -2 2 -13.5t2 -16.5q0 -18 -17 -28.5t-48 -10.5q-37 0 -37 24q0 9 3.5 17t10.5 17.5t8 10.5v199 q-2 0 -14 -13t-21 -13q-12 0 -21.5 7.5t-9.5 20.5q0 25 36 55q17 13 33.5 30t26 25t18.5 8q14 0 25.5 -7t11.5 -19q0 -5 -4.5 -15t-4.5 -11zM385 54l85 4q16 2 16 4q0 16 9.5 27.5t25.5 11.5q41 0 41 -45q0 -54 -36 -55l-165 -10q-53 -3 -53 37q0 61 27.5 98t78.5 66 q63 34 63 92q0 31 -26 31q-24 0 -32 -10t-11 -30q-2 -12 -4.5 -19t-13.5 -13.5t-30 -6.5q-17 0 -27 9.5t-10 19.5q0 39 34 76t105 37q41 0 67.5 -20.5t26.5 -63.5q0 -93 -92 -148q-79 -48 -79 -92z" />
<glyph unicode="&#xbe;" horiz-adv-x="708" d="M195 24q0 20 14.5 32t14.5 13l222 540q2 22 12 35t26 13q20 0 38.5 -12.5t18.5 -28.5q0 -14 -8.5 -24.5t-17.5 -14.5l-223 -543q-1 -22 -17.5 -34t-34.5 -12q-45 0 -45 36zM202 579l-85 -14q0 -22 -10.5 -32.5t-24.5 -10.5q-34 0 -34 54q0 48 35 48q21 0 87 11.5t77 11.5 q34 0 34 -34q0 -31 -50 -98q32 1 52 -23t20 -71q0 -78 -49 -125t-119 -47q-52 0 -85 33.5t-33 56.5q0 13 13.5 24.5t32.5 11.5q26 0 32 -26q11 -37 46 -37q36 0 59.5 28t23.5 69q0 47 -29 47q-22 0 -33 -18t-28 -18q-12 0 -20.5 7t-8.5 19q0 27 34 40q19 9 63 93zM618 327 v-147l25 5q13 9 24 9q28 0 28 -36q0 -35 -26 -35q-17 0 -24 6l-27 -5v-65q15 -7 15 -24q0 -40 -62 -40q-19 0 -29 10.5t-10 21.5q0 17 8 25v61l-106 -16q-19 -7 -27 -7q-32 0 -32 40q0 11 25 36l137 198q3 23 48 23q17 0 29 -9t12 -23q0 -15 -8 -28zM541 169v114l-86 -128z " />
<glyph unicode="&#xbf;" horiz-adv-x="379" d="M215 441q14 0 27 -12t13 -29q0 -39 -12 -55t-44 -16q-37 0 -37 53q0 23 13 41t40 18zM201 292q43 0 63 -18.5t20 -60.5q0 -43 -22 -83t-81 -100q-57 -58 -75 -89.5t-18 -63.5q0 -18 13 -32.5t34 -14.5q24 0 46 15.5t31.5 29.5t22.5 37q-3 19 9 32.5t25 13.5 q20 0 35.5 -12.5t15.5 -31.5q0 -31 -15 -36q-68 -123 -191 -123q-51 0 -83 35.5t-32 73.5q0 45 21.5 87t97.5 124q62 66 78.5 89.5t16.5 41.5t-17 18q-14 0 -20.5 -9t-6.5 -18q0 -8 -8 -15t-20 -7q-44 0 -44 35q0 31 26 56.5t78 25.5z" />
<glyph unicode="&#xc0;" horiz-adv-x="496" d="M338 231l-189 -16q-41 -118 -43 -130q-3 -12 -3 -49q0 -41 -55 -41q-21 0 -32.5 12.5t-11.5 30.5q0 7 1.5 15t6 21.5t8.5 23.5l13.5 33.5l15.5 39.5l134 342q19 53 24 83q-1 28 12.5 48.5t37.5 20.5q25 0 37.5 -12.5t12.5 -25.5q0 -11 -4 -22t-4 -19q0 -34 83 -246 q92 -241 92 -285q0 -28 -16 -44t-40 -16q-18 0 -32 10.5t-14 25.5q0 10 3.5 22.5t3.5 16.5q0 31 -41 161zM178 292l135 11l-63 184zM230 832l43 -70q7 -3 13.5 -11.5t6.5 -18.5q0 -35 -42 -35q-15 0 -24.5 11t-8.5 25l-42 68q-20 11 -20 32q0 37 42 37q30 0 32 -38z" />
<glyph unicode="&#xc1;" horiz-adv-x="496" d="M338 231l-189 -16q-41 -118 -43 -130q-3 -12 -3 -49q0 -41 -55 -41q-21 0 -32.5 12.5t-11.5 30.5q0 7 1.5 15t6 21.5t8.5 23.5l13.5 33.5l15.5 39.5l134 342q19 53 24 83q-1 28 12.5 48.5t37.5 20.5q25 0 37.5 -12.5t12.5 -25.5q0 -11 -4 -22t-4 -19q0 -34 83 -246 q92 -241 92 -285q0 -28 -16 -44t-40 -16q-18 0 -32 10.5t-14 25.5q0 10 3.5 22.5t3.5 16.5q0 31 -41 161zM178 292l135 11l-63 184zM349 806l-57 -77q-2 -13 -12.5 -22.5t-26.5 -9.5q-36 0 -38 34q2 25 22 30l59 79q-6 17 5.5 25t29.5 8q17 0 27.5 -9t10.5 -25 q0 -22 -20 -33z" />
<glyph unicode="&#xc2;" horiz-adv-x="496" d="M338 231l-189 -16q-41 -118 -43 -130q-3 -12 -3 -49q0 -41 -55 -41q-21 0 -32.5 12.5t-11.5 30.5q0 7 1.5 15t6 21.5t8.5 23.5l13.5 33.5l15.5 39.5l134 342q19 53 24 83q-1 28 12.5 48.5t37.5 20.5q25 0 37.5 -12.5t12.5 -25.5q0 -11 -4 -22t-4 -19q0 -34 83 -246 q92 -241 92 -285q0 -28 -16 -44t-40 -16q-18 0 -32 10.5t-14 25.5q0 10 3.5 22.5t3.5 16.5q0 31 -41 161zM178 292l135 11l-63 184zM293 832l52 -92q13 -11 13 -29q0 -14 -11 -24t-28 -10q-15 0 -21 10t-4 23l-36 68l-44 -69q1 -15 -7.5 -23.5t-20.5 -8.5q-16 0 -26.5 11.5 t-10.5 22.5q0 12 17 33l64 95q15 21 30 21q19 0 33 -28z" />
<glyph unicode="&#xc3;" horiz-adv-x="496" d="M338 231l-189 -16q-41 -118 -43 -130q-3 -12 -3 -49q0 -41 -55 -41q-21 0 -32.5 12.5t-11.5 30.5q0 7 1.5 15t6 21.5t8.5 23.5l13.5 33.5l15.5 39.5l134 342q19 53 24 83q-1 28 12.5 48.5t37.5 20.5q25 0 37.5 -12.5t12.5 -25.5q0 -11 -4 -22t-4 -19q0 -34 83 -246 q92 -241 92 -285q0 -28 -16 -44t-40 -16q-18 0 -32 10.5t-14 25.5q0 10 3.5 22.5t3.5 16.5q0 31 -41 161zM178 292l135 11l-63 184zM304 699q-33 0 -63 33q-19 21 -28 21q-20 0 -30 -28q-10 -21 -32 -21q-36 0 -36 33q0 5 6.5 13t7.5 9q18 31 38 43.5t50 12.5q25 0 51 -28 q28 -28 41 -28q21 0 21 32q0 28 33 28q15 0 25.5 -8t10.5 -18q0 -5 -5 -17q-22 -77 -90 -77z" />
<glyph unicode="&#xc4;" horiz-adv-x="496" d="M338 231l-189 -16q-41 -118 -43 -130q-3 -12 -3 -49q0 -41 -55 -41q-21 0 -32.5 12.5t-11.5 30.5q0 7 1.5 15t6 21.5t8.5 23.5l13.5 33.5l15.5 39.5l134 342q19 53 24 83q-1 28 12.5 48.5t37.5 20.5q25 0 37.5 -12.5t12.5 -25.5q0 -11 -4 -22t-4 -19q0 -34 83 -246 q92 -241 92 -285q0 -28 -16 -44t-40 -16q-18 0 -32 10.5t-14 25.5q0 10 3.5 22.5t3.5 16.5q0 31 -41 161zM178 292l135 11l-63 184zM173 698q-18 0 -28 19t-10 37q0 56 49 56q45 0 45 -41q0 -38 -10.5 -54.5t-45.5 -16.5zM321 700q-42 0 -42 52q0 58 43 58q16 0 33.5 -12.5 t17.5 -35.5q0 -62 -52 -62z" />
<glyph unicode="&#xc5;" horiz-adv-x="496" d="M338 231l-189 -16q-41 -118 -43 -130q-3 -12 -3 -49q0 -41 -55 -41q-21 0 -32.5 12.5t-11.5 30.5q0 7 1.5 15t6 21.5t8.5 23.5l13.5 33.5l15.5 39.5l134 342q19 53 24 83q-1 28 12.5 48.5t37.5 20.5q25 0 37.5 -12.5t12.5 -25.5q0 -11 -4 -22t-4 -19q0 -34 83 -246 q92 -241 92 -285q0 -28 -16 -44t-40 -16q-18 0 -32 10.5t-14 25.5q0 10 3.5 22.5t3.5 16.5q0 31 -41 161zM178 292l135 11l-63 184zM248 678h-2q-27 0 -45 23.5t-18 59.5q0 31 32 55t55 24q31 0 51.5 -21t20.5 -60q0 -36 -31 -58.5t-63 -22.5zM254 725q13 0 26 9t13 23 q0 36 -20 36q-15 0 -28 -10t-13 -27q0 -31 22 -31z" />
<glyph unicode="&#xc6;" horiz-adv-x="653" d="M400 270v-202q38 0 96.5 5.5t79.5 14.5q10 4 27 4q11 0 18.5 -10.5t7.5 -29.5q0 -48 -45 -48l-230 -12q-3 0 -8.5 -1t-10 -1.5t-8.5 -0.5q-31 0 -31 42q0 35 21 39v194l-132 -11q-72 -155 -72 -207q0 -23 -17.5 -37t-42.5 -14q-18 0 -35 13t-17 36q0 16 9.5 30t22.5 19 q50 124 108 240q81 159 163 276q1 17 12.5 32t34.5 15q25 0 40 -7.5t15 -19.5q0 -11 -6 -19l121 10q9 1 25.5 8.5t25.5 7.5q17 0 28.5 -13.5t11.5 -34.5q0 -24 -12 -38.5t-29 -14.5t-39 10l-132 -10v-194l102 10q6 1 18 5t21.5 6.5t16.5 2.5q16 0 26 -9t10 -25 q0 -27 -13.5 -37t-42.5 -12zM317 334v174q-45 -71 -97 -184z" />
<glyph unicode="&#xc7;" horiz-adv-x="443" d="M239 -12l-20 -40q29 1 46.5 -19t17.5 -55q0 -44 -28 -74t-78 -30q-21 0 -34 13q-10 -6 -15 -6q-7 0 -14.5 10.5t-7.5 23.5q0 14 10 26t20 12q6 0 11.5 -4.5t5.5 -10.5q14 -8 25 -8q22 0 37 12.5t15 33.5q0 28 -21 28q-2 0 -12 -6q-5 -6 -23 -6q-11 0 -17.5 7t-6.5 17 q0 17 12 26l26 45q-72 2 -115.5 71t-43.5 200q0 52 16.5 118.5t46 131t78.5 108.5t106 44q69 0 107.5 -30t38.5 -63q0 -53 -46 -53q-21 0 -30.5 9t-12.5 29q-2 12 -17.5 20.5t-39.5 8.5q-33 0 -63.5 -36.5t-50.5 -89t-32 -107.5t-12 -95q0 -91 27 -139t60 -48q32 0 67 21.5 t51 49.5q2 60 47 60q22 0 33 -13.5t11 -28.5q0 -31 -24 -64q-22 -29 -61.5 -58t-89.5 -41z" />
<glyph unicode="&#xc8;" horiz-adv-x="442" d="M147 281v-201l190 15q12 14 30 14q23 0 38 -14t15 -31q0 -28 -18.5 -38t-59.5 -10l-196 -15q-12 -16 -53 -16q-19 0 -32 13t-13 35q0 23 13 42v193q-18 18 -18 43q0 26 18 44v165q-21 10 -21 35t15 35q-6 8 -6 17q0 15 15.5 25t37.5 10q43 0 45 -34l157 17q22 15 33 15 q27 0 41 -12.5t14 -31.5q0 -24 -14.5 -39.5t-39.5 -15.5q-7 0 -31 6l-160 -18v-169l122 18q18 14 32 14q23 0 37.5 -15t14.5 -33q0 -49 -56 -49q-7 0 -19 6zM202 813l43 -70q20 -7 20 -30q0 -35 -42 -35q-15 0 -24 11t-8 25l-43 69q-20 9 -20 32q0 36 43 36q29 0 31 -38z " />
<glyph unicode="&#xc9;" horiz-adv-x="442" d="M147 281v-201l190 15q12 14 30 14q23 0 38 -14t15 -31q0 -28 -18.5 -38t-59.5 -10l-196 -15q-12 -16 -53 -16q-19 0 -32 13t-13 35q0 23 13 42v193q-18 18 -18 43q0 26 18 44v165q-21 10 -21 35t15 35q-6 8 -6 17q0 15 15.5 25t37.5 10q43 0 45 -34l157 17q22 15 33 15 q27 0 41 -12.5t14 -31.5q0 -24 -14.5 -39.5t-39.5 -15.5q-7 0 -31 6l-160 -18v-169l122 18q18 14 32 14q23 0 37.5 -15t14.5 -33q0 -49 -56 -49q-7 0 -19 6zM324 788l-57 -76q-2 -13 -12.5 -23t-26.5 -10q-36 0 -38 34q1 10 7 19.5t15 10.5l59 79q-6 17 5.5 25t29.5 8 q17 0 27.5 -9t10.5 -25q0 -22 -20 -33z" />
<glyph unicode="&#xca;" horiz-adv-x="442" d="M147 281v-201l190 15q12 14 30 14q23 0 38 -14t15 -31q0 -28 -18.5 -38t-59.5 -10l-196 -15q-12 -16 -53 -16q-19 0 -32 13t-13 35q0 23 13 42v193q-18 18 -18 43q0 26 18 44v165q-21 10 -21 35t15 35q-6 8 -6 17q0 15 15.5 25t37.5 10q43 0 45 -34l157 17q22 15 33 15 q27 0 41 -12.5t14 -31.5q0 -24 -14.5 -39.5t-39.5 -15.5q-7 0 -31 6l-160 -18v-169l122 18q18 14 32 14q23 0 37.5 -15t14.5 -33q0 -49 -56 -49q-7 0 -19 6zM263 833l52 -91q12 -14 12 -30q0 -14 -10.5 -24t-27.5 -10q-15 0 -21 10t-4 23l-36 68l-43 -69q1 -15 -8 -23.5 t-21 -8.5q-16 0 -26.5 11.5t-10.5 22.5q0 12 17 33l64 95q15 21 30 21q19 0 33 -28z" />
<glyph unicode="&#xcb;" horiz-adv-x="442" d="M147 281v-201l190 15q12 14 30 14q23 0 38 -14t15 -31q0 -28 -18.5 -38t-59.5 -10l-196 -15q-12 -16 -53 -16q-19 0 -32 13t-13 35q0 23 13 42v193q-18 18 -18 43q0 26 18 44v165q-21 10 -21 35t15 35q-6 8 -6 17q0 15 15.5 25t37.5 10q43 0 45 -34l157 17q22 15 33 15 q27 0 41 -12.5t14 -31.5q0 -24 -14.5 -39.5t-39.5 -15.5q-7 0 -31 6l-160 -18v-169l122 18q18 14 32 14q23 0 37.5 -15t14.5 -33q0 -49 -56 -49q-7 0 -19 6zM141 690q-18 0 -28 19t-10 37q0 56 49 56q45 0 45 -41q0 -38 -10.5 -54.5t-45.5 -16.5zM289 693q-42 0 -42 52 q0 58 43 58q16 0 33.5 -12.5t17.5 -35.5q0 -62 -52 -62z" />
<glyph unicode="&#xcc;" horiz-adv-x="205" d="M145 554v-479q13 -17 13 -33q0 -18 -15.5 -32.5t-39.5 -14.5q-26 0 -42 13t-16 35q0 17 14 36v481q-11 6 -11 28q0 24 19 40.5t43 16.5q26 0 38 -16t12 -37q0 -22 -15 -38zM84 832l43 -70q7 -2 13.5 -11t6.5 -19q0 -35 -42 -35q-15 0 -24 11t-8 25l-43 68q-20 11 -20 32 q0 37 43 37q14 0 22.5 -11t8.5 -27z" />
<glyph unicode="&#xcd;" horiz-adv-x="205" d="M145 554v-479q13 -17 13 -33q0 -18 -15.5 -32.5t-39.5 -14.5q-26 0 -42 13t-16 35q0 17 14 36v481q-11 6 -11 28q0 24 19 40.5t43 16.5q26 0 38 -16t12 -37q0 -22 -15 -38zM203 806l-57 -77q-1 -13 -11.5 -22.5t-27.5 -9.5t-27 9.5t-10 24.5q0 10 6.5 19t15.5 11l59 79 q-6 17 5.5 25t28.5 8t27.5 -9t10.5 -25q0 -22 -20 -33z" />
<glyph unicode="&#xce;" horiz-adv-x="205" d="M145 554v-479q13 -17 13 -33q0 -18 -15.5 -32.5t-39.5 -14.5q-26 0 -42 13t-16 35q0 17 14 36v481q-11 6 -11 28q0 24 19 40.5t43 16.5q26 0 38 -16t12 -37q0 -22 -15 -38zM143 833l51 -91q12 -14 12 -30q0 -14 -10.5 -24t-27.5 -10q-15 0 -21 10t-4 23l-35 68l-44 -69 q1 -15 -8 -23.5t-20 -8.5q-17 0 -27.5 11.5t-10.5 22.5q0 6 1.5 11t3.5 7.5l6 7.5t6 7l64 95q17 21 31 21q16 0 33 -28z" />
<glyph unicode="&#xcf;" horiz-adv-x="205" d="M145 554v-479q13 -17 13 -33q0 -18 -15.5 -32.5t-39.5 -14.5q-26 0 -42 13t-16 35q0 17 14 36v481q-11 6 -11 28q0 24 19 40.5t43 16.5q26 0 38 -16t12 -37q0 -22 -15 -38zM22 690q-18 0 -28 19t-10 37q0 56 49 56q45 0 45 -41q0 -38 -10.5 -54.5t-45.5 -16.5zM170 693 q-42 0 -42 52q0 58 43 58q16 0 33.5 -12.5t17.5 -35.5q0 -62 -52 -62z" />
<glyph unicode="&#xd0;" horiz-adv-x="501" d="M56 26q0 27 12 39v218l-19 -2q-18 -6 -19 -6q-14 0 -23 8.5t-9 21.5q0 22 11.5 35t27.5 15l31 3v226q-5 15 -5 28q0 15 12.5 28t39.5 13q24 0 33.5 -13t5.5 -29q66 41 150 41q66 0 118.5 -65t52.5 -143q0 -202 -82 -310q-51 -68 -132 -108t-147 -40q-58 0 -58 40z M154 530v-164l84 10q1 0 7 2.5t13.5 4t14.5 1.5q34 0 34 -39q0 -50 -39 -50q-9 0 -33 6l-81 -9v-220q115 17 173 112t58 252q0 51 -33 95.5t-74 44.5q-63 0 -124 -46z" />
<glyph unicode="&#xd1;" horiz-adv-x="489" d="M60 67v501q-8 13 -8 29q0 20 13 34t36 14q30 0 41 -8.5t11 -27.5q0 -35 29 -102q25 -60 98 -175q51 -81 71 -130h1q-3 127 -3 385l-5 9q-5 10 -5 16q0 23 12.5 33.5t30.5 10.5q21 0 37.5 -9.5t16.5 -26.5q0 -12 -7 -31v-536q10 -14 10 -24q0 -18 -10.5 -26t-40.5 -8 q-20 0 -30 14t-19 43q-11 37 -42 98t-56 102q-84 133 -102 185l-2 1q3 -366 3 -371q9 -13 9 -27q0 -24 -10 -34.5t-34 -10.5q-58 0 -58 45q0 14 13 27zM295 699q-32 0 -62 33q-19 21 -28 21q-20 0 -30 -28q-10 -21 -32 -21q-19 0 -28 9.5t-9 23.5q0 5 7 12.5t8 9.5 q17 31 37 43.5t51 12.5q23 0 51 -28t41 -28q10 0 15.5 10t4.5 22q1 28 33 28q15 0 25.5 -8t10.5 -18q0 -7 -4 -17q-24 -77 -91 -77z" />
<glyph unicode="&#xd2;" horiz-adv-x="489" d="M282 674q75 0 124.5 -76t49.5 -234q0 -163 -77 -273t-188 -110q-59 0 -98.5 44t-53.5 100t-14 118q0 100 35.5 200t95.5 165.5t126 65.5zM270 598q-33 0 -70 -51.5t-61.5 -132.5t-24.5 -159q0 -79 23.5 -138.5t71.5 -59.5q59 0 108.5 89t49.5 215q0 116 -25.5 176.5 t-71.5 60.5zM242 849l43 -70q20 -7 20 -30q0 -35 -42 -35q-15 0 -24 11t-8 25l-43 69q-20 9 -20 32q0 36 43 36q15 0 23 -11t8 -27z" />
<glyph unicode="&#xd3;" horiz-adv-x="489" d="M282 674q75 0 124.5 -76t49.5 -234q0 -163 -77 -273t-188 -110q-59 0 -98.5 44t-53.5 100t-14 118q0 100 35.5 200t95.5 165.5t126 65.5zM270 598q-33 0 -70 -51.5t-61.5 -132.5t-24.5 -159q0 -79 23.5 -138.5t71.5 -59.5q59 0 108.5 89t49.5 215q0 116 -25.5 176.5 t-71.5 60.5zM375 824l-57 -77q-1 -13 -11.5 -23t-27.5 -10t-27 9.5t-10 24.5q0 10 6.5 19.5t15.5 10.5l59 79q-6 17 5.5 25t28.5 8t27.5 -9t10.5 -25q0 -23 -20 -32z" />
<glyph unicode="&#xd4;" horiz-adv-x="489" d="M282 674q75 0 124.5 -76t49.5 -234q0 -163 -77 -273t-188 -110q-59 0 -98.5 44t-53.5 100t-14 118q0 100 35.5 200t95.5 165.5t126 65.5zM270 598q-33 0 -70 -51.5t-61.5 -132.5t-24.5 -159q0 -79 23.5 -138.5t71.5 -59.5q59 0 108.5 89t49.5 215q0 116 -25.5 176.5 t-71.5 60.5zM319 851l51 -91q12 -10 12 -29q0 -14 -10.5 -24.5t-27.5 -10.5q-15 0 -21 10.5t-4 22.5l-35 68l-44 -69q1 -14 -8 -23t-21 -9q-16 0 -26.5 11.5t-10.5 23.5q0 13 17 32l64 95q14 22 31 22t33 -29z" />
<glyph unicode="&#xd5;" horiz-adv-x="489" d="M282 674q75 0 124.5 -76t49.5 -234q0 -163 -77 -273t-188 -110q-59 0 -98.5 44t-53.5 100t-14 118q0 100 35.5 200t95.5 165.5t126 65.5zM270 598q-33 0 -70 -51.5t-61.5 -132.5t-24.5 -159q0 -79 23.5 -138.5t71.5 -59.5q59 0 108.5 89t49.5 215q0 116 -25.5 176.5 t-71.5 60.5zM321 709q-32 0 -62 33q-21 21 -29 21q-20 0 -29 -28q-11 -21 -32 -21q-19 0 -28 9.5t-9 23.5q0 5 6.5 13t7.5 9q18 31 38 43.5t50 12.5q24 0 52 -28t41 -28q20 0 20 32q0 28 33 28q15 0 25.5 -8t10.5 -18q0 -5 -5 -17q-24 -77 -90 -77z" />
<glyph unicode="&#xd6;" horiz-adv-x="489" d="M282 674q75 0 124.5 -76t49.5 -234q0 -163 -77 -273t-188 -110q-59 0 -98.5 44t-53.5 100t-14 118q0 100 35.5 200t95.5 165.5t126 65.5zM270 598q-33 0 -70 -51.5t-61.5 -132.5t-24.5 -159q0 -79 23.5 -138.5t71.5 -59.5q59 0 108.5 89t49.5 215q0 116 -25.5 176.5 t-71.5 60.5zM198 703q-18 0 -28 19t-10 37q0 56 49 56q45 0 45 -41q0 -38 -10.5 -54.5t-45.5 -16.5zM346 705q-42 0 -42 52q0 58 43 58q16 0 33.5 -12.5t17.5 -35.5q0 -62 -52 -62z" />
<glyph unicode="&#xd7;" horiz-adv-x="554" d="M271 274l116 116q3 18 15.5 30t28.5 12q19 0 35 -16t16 -41q0 -17 -12 -29t-24 -14l-116 -117l110 -111q41 -16 41 -45q0 -22 -16 -37.5t-37 -15.5q-32 0 -47 39l-110 112l-114 -113q1 -17 -15 -29t-35 -12q-22 0 -35.5 17.5t-13.5 39.5q0 18 17 32t28 15l109 108 l-114 114q-16 5 -28.5 17.5t-12.5 26.5q0 21 15 37t38 16q27 0 47 -38z" />
<glyph unicode="&#xd8;" horiz-adv-x="509" d="M86 55l-24 -34q5 -11 -9.5 -24t-32.5 -13t-29 12.5t-11 31.5q0 15 8 29t19 14q7 0 14 -3l35 51q-16 60 -16 124q0 100 35.5 200t95.5 165.5t125 65.5q72 0 118 -66l28 40q2 13 11.5 23t21.5 10q18 0 33.5 -11t15.5 -31q0 -39 -40 -37l-39 -55q26 -75 26 -183 q0 -163 -77 -273t-188 -110q-75 0 -120 74zM132 215l228 316q-26 67 -74 67q-34 0 -71 -51.5t-61.5 -132.5t-24.5 -159q0 -16 3 -40zM375 460l-230 -322q27 -81 79 -81q59 0 108.5 89t49.5 215q0 56 -7 99z" />
<glyph unicode="&#xd9;" horiz-adv-x="500" d="M200 -17q-77 0 -110 41.5t-34 95.5v458q-12 23 1 42.5t39 19.5q42 0 42 -54v-474q6 -20 22.5 -34t39.5 -14q68 0 109 37.5t41 66.5v414q-9 9 -9 23q0 19 15.5 31.5t39.5 12.5q16 0 28 -9.5t12 -28.5q0 -14 -4 -20v-434q0 -16 -12.5 -46t-30.5 -48q-83 -80 -189 -80z M210 816l43 -70q8 -3 14.5 -11.5t6.5 -18.5q0 -18 -13 -26.5t-30 -8.5q-15 0 -24 11t-8 25l-43 69q-20 9 -20 32q0 36 43 36q15 0 23 -11t8 -27z" />
<glyph unicode="&#xda;" horiz-adv-x="500" d="M200 -17q-77 0 -110 41.5t-34 95.5v458q-12 23 1 42.5t39 19.5q42 0 42 -54v-474q6 -20 22.5 -34t39.5 -14q68 0 109 37.5t41 66.5v414q-9 9 -9 23q0 19 15.5 31.5t39.5 12.5q16 0 28 -9.5t12 -28.5q0 -14 -4 -20v-434q0 -16 -12.5 -46t-30.5 -48q-83 -80 -189 -80z M337 804l-57 -77q-1 -13 -11.5 -23t-27.5 -10q-36 0 -38 35q1 10 7 19t15 11l60 78q-6 17 5.5 25.5t28.5 8.5t27.5 -9.5t10.5 -25.5q0 -23 -20 -32z" />
<glyph unicode="&#xdb;" horiz-adv-x="500" d="M200 -17q-77 0 -110 41.5t-34 95.5v458q-12 23 1 42.5t39 19.5q42 0 42 -54v-474q6 -20 22.5 -34t39.5 -14q68 0 109 37.5t41 66.5v414q-9 9 -9 23q0 19 15.5 31.5t39.5 12.5q16 0 28 -9.5t12 -28.5q0 -14 -4 -20v-434q0 -16 -12.5 -46t-30.5 -48q-83 -80 -189 -80z M279 833l52 -91q12 -14 12 -30q0 -14 -11 -24t-27 -10q-15 0 -21.5 10.5t-4.5 22.5l-35 68l-44 -69q1 -15 -8 -23.5t-21 -8.5q-16 0 -26.5 11.5t-10.5 22.5q0 12 17 33l64 95q17 21 31 21q19 0 33 -28z" />
<glyph unicode="&#xdc;" horiz-adv-x="500" d="M200 -17q-77 0 -110 41.5t-34 95.5v458q-12 23 1 42.5t39 19.5q42 0 42 -54v-474q6 -20 22.5 -34t39.5 -14q68 0 109 37.5t41 66.5v414q-9 9 -9 23q0 19 15.5 31.5t39.5 12.5q16 0 28 -9.5t12 -28.5q0 -14 -4 -20v-434q0 -16 -12.5 -46t-30.5 -48q-83 -80 -189 -80z M162 690q-18 0 -28 19t-10 37q0 56 49 56q45 0 45 -41q0 -38 -10.5 -54.5t-45.5 -16.5zM310 693q-42 0 -42 52q0 58 43 58q16 0 33.5 -12.5t17.5 -35.5q0 -62 -52 -62z" />
<glyph unicode="&#xdd;" horiz-adv-x="467" d="M190 80v243q-20 50 -79.5 123.5t-82.5 118.5q-28 14 -28 44q0 20 19 33t39 14q18 1 30.5 -12.5t10.5 -32.5q11 -32 66 -106.5t69 -104.5h2q17 31 63 87t66 90q17 31 18 34q6 22 15.5 33.5t30.5 11.5q19 0 32 -10t13 -29q0 -16 -24 -55q-7 -11 -35 -50q-12 -17 -67 -83 t-72 -107v-253q12 -12 12 -27q0 -19 -15 -33t-44 -14q-28 0 -39 9t-11 37q0 29 11 39zM329 796l-57 -77q-2 -13 -12.5 -23t-26.5 -10q-36 0 -38 34q1 10 7 19.5t15 10.5l59 79q-6 17 5.5 25t29.5 8q17 0 27.5 -9t10.5 -25q0 -23 -20 -32z" />
<glyph unicode="&#xde;" horiz-adv-x="432" d="M140 592v-102q81 48 161 48q57 0 87.5 -35.5t30.5 -89.5q0 -58 -51.5 -113t-115 -86t-112.5 -35v-117q13 -23 13 -33q0 -34 -60 -34q-18 0 -35.5 9.5t-17.5 24.5q0 11 14 34v524q-7 21 -7 30q0 14 17.5 26t43.5 12q17 0 31 -11t14 -23q0 -16 -13 -29zM140 400v-143 q68 6 129 52t61 95q0 17 -12.5 34t-36.5 17q-34 0 -77 -18t-64 -37z" />
<glyph unicode="&#xdf;" horiz-adv-x="497" d="M95 338l-38 -8q-13 -8 -22 -9q-30 0 -30 45q0 15 9.5 28t21.5 13q10 0 19 -3l40 8v80q0 75 45.5 129t111.5 54q61 0 103 -34t42 -95q0 -59 -34 -107q-26 -35 -26 -65q0 -31 55 -79q40 -35 60.5 -68.5t20.5 -76.5q0 -88 -43 -127.5t-113 -39.5q-47 0 -78.5 28t-31.5 62 q0 21 11.5 37.5t37.5 16.5q13 0 22 -7t9 -18q0 -6 -6 -15q11 -29 40 -29q68 0 68 88q0 49 -71 114q-65 57 -65 106q0 48 30 87q30 40 30 89q0 27 -16 42.5t-45 15.5q-36 0 -55 -34t-19 -75v-438q8 -10 8 -24q0 -34 -55 -34q-41 0 -41 32q0 5 2.5 12.5t2.5 9.5v289z" />
<glyph unicode="&#xe0;" horiz-adv-x="386" d="M248 287v57q0 37 -24 37q-43 0 -85 -38q2 -8 -9 -18t-29 -10t-30 14.5t-12 31.5q0 14 14.5 28t29.5 11q66 50 161 50q26 0 45.5 -22t19.5 -61v-318q7 -5 7 -21q0 -34 -58 -34q-39 0 -39 28q0 10 7 21v44h-1q-74 -106 -163 -106q-32 0 -52 21.5t-20 55.5q0 67 66.5 136.5 t171.5 92.5zM246 194v32q-60 -14 -108 -61t-48 -83q0 -22 23 -22q40 0 86.5 47.5t46.5 86.5zM191 630l43 -70q20 -7 20 -30q0 -35 -42 -35q-15 0 -24 11t-8 25l-43 69q-19 9 -19 31q0 37 42 37q14 0 22.5 -11t8.5 -27z" />
<glyph unicode="&#xe1;" horiz-adv-x="386" d="M248 287v57q0 37 -24 37q-43 0 -85 -38q2 -8 -9 -18t-29 -10t-30 14.5t-12 31.5q0 14 14.5 28t29.5 11q66 50 161 50q26 0 45.5 -22t19.5 -61v-318q7 -5 7 -21q0 -34 -58 -34q-39 0 -39 28q0 10 7 21v44h-1q-74 -106 -163 -106q-32 0 -52 21.5t-20 55.5q0 67 66.5 136.5 t171.5 92.5zM246 194v32q-60 -14 -108 -61t-48 -83q0 -22 23 -22q40 0 86.5 47.5t46.5 86.5zM299 604l-57 -76q-1 -14 -11.5 -23.5t-27.5 -9.5t-27 9.5t-10 24.5q0 10 6.5 19t15.5 11l59 79q-6 17 5.5 25t28.5 8t27.5 -9t10.5 -25q0 -22 -20 -33z" />
<glyph unicode="&#xe2;" horiz-adv-x="386" d="M248 287v57q0 37 -24 37q-43 0 -85 -38q2 -8 -9 -18t-29 -10t-30 14.5t-12 31.5q0 14 14.5 28t29.5 11q66 50 161 50q26 0 45.5 -22t19.5 -61v-318q7 -5 7 -21q0 -34 -58 -34q-39 0 -39 28q0 10 7 21v44h-1q-74 -106 -163 -106q-32 0 -52 21.5t-20 55.5q0 67 66.5 136.5 t171.5 92.5zM246 194v32q-60 -14 -108 -61t-48 -83q0 -22 23 -22q40 0 86.5 47.5t46.5 86.5zM237 630l51 -91q13 -11 13 -29q0 -14 -11 -24t-27 -10q-15 0 -21.5 10.5t-4.5 22.5l-35 68l-44 -69q1 -15 -8 -23.5t-20 -8.5q-17 0 -27 11.5t-10 22.5q0 12 17 33l64 95 q15 21 30 21q20 0 33 -29z" />
<glyph unicode="&#xe3;" horiz-adv-x="386" d="M248 287v57q0 37 -24 37q-43 0 -85 -38q2 -8 -9 -18t-29 -10t-30 14.5t-12 31.5q0 14 14.5 28t29.5 11q66 50 161 50q26 0 45.5 -22t19.5 -61v-318q7 -5 7 -21q0 -34 -58 -34q-39 0 -39 28q0 10 7 21v44h-1q-74 -106 -163 -106q-32 0 -52 21.5t-20 55.5q0 67 66.5 136.5 t171.5 92.5zM246 194v32q-60 -14 -108 -61t-48 -83q0 -22 23 -22q40 0 86.5 47.5t46.5 86.5zM245 497q-34 0 -62 34q-21 21 -28 21q-21 0 -30 -28q-11 -21 -32 -21q-19 0 -28 9.5t-9 23.5q0 5 6.5 13t7.5 9q18 31 38 43.5t51 12.5q24 0 51 -29q28 -28 41 -28q20 0 20 32 q0 28 33 28q15 0 25.5 -8t10.5 -18q0 -5 -5 -17q-24 -77 -90 -77z" />
<glyph unicode="&#xe4;" horiz-adv-x="386" d="M248 287v57q0 37 -24 37q-43 0 -85 -38q2 -8 -9 -18t-29 -10t-30 14.5t-12 31.5q0 14 14.5 28t29.5 11q66 50 161 50q26 0 45.5 -22t19.5 -61v-318q7 -5 7 -21q0 -34 -58 -34q-39 0 -39 28q0 10 7 21v44h-1q-74 -106 -163 -106q-32 0 -52 21.5t-20 55.5q0 67 66.5 136.5 t171.5 92.5zM246 194v32q-60 -14 -108 -61t-48 -83q0 -22 23 -22q40 0 86.5 47.5t46.5 86.5zM127 501q-18 0 -28 19t-10 37q0 56 49 56q45 0 45 -41q0 -38 -10.5 -54.5t-45.5 -16.5zM276 503q-42 0 -42 52q0 58 43 58q16 0 33.5 -12.5t17.5 -35.5q0 -62 -52 -62z" />
<glyph unicode="&#xe5;" horiz-adv-x="386" d="M248 287v57q0 37 -24 37q-42 0 -86 -38q2 -8 -8.5 -18t-28.5 -10t-30 14.5t-12 31.5q0 14 14.5 28t29.5 11q66 50 161 50q26 0 45.5 -22t19.5 -61v-318q7 -5 7 -21q0 -34 -58 -34q-39 0 -39 28q0 10 7 21v44h-1q-74 -106 -163 -106q-32 0 -52 21.5t-20 55.5 q0 67 66.5 136.5t171.5 92.5zM246 194v32q-60 -14 -108 -61t-48 -83q0 -22 23 -22q40 0 86.5 47.5t46.5 86.5zM193 472q-27 0 -45 23.5t-18 59.5q0 31 32 55t55 24q31 0 51.5 -21t20.5 -60q0 -36 -31.5 -58.5t-64.5 -22.5zM201 519q13 0 26 9t13 23q0 36 -20 36 q-15 0 -28 -10t-13 -27q0 -31 22 -31z" />
<glyph unicode="&#xe6;" horiz-adv-x="621" d="M11 63q0 93 80 152q52 38 130 49l47 7v60q0 16 -8.5 27.5t-22.5 11.5q-52 0 -101 -45q1 -7 -13 -16.5t-34 -9.5q-15 0 -24.5 15t-9.5 28q0 15 12 30t28 14q71 59 160 59q34 0 61.5 -24t27.5 -56v-26q28 50 64 76.5t72 26.5q41 0 69.5 -27t38 -54.5t9.5 -47.5 q0 -22 -13.5 -42.5t-39.5 -23.5l-193 -30q-13 -43 -13 -85q0 -32 18 -52.5t46 -20.5q31 0 63.5 23t52.5 57q-5 18 4 28.5t30 10.5q22 0 34 -9.5t11 -23.5q0 -5 -8 -22t-25.5 -41t-41 -45.5t-59.5 -37t-75 -15.5q-44 0 -76 27t-44 71q-25 -42 -73.5 -71.5t-90.5 -29.5 t-67.5 22t-25.5 60zM383 286l143 23q1 17 -13 39t-34 22q-46 0 -96 -84zM269 205l-41 -6q-59 -8 -94 -35q-41 -33 -41 -82q0 -26 27 -26q37 0 93 50t56 99z" />
<glyph unicode="&#xe7;" horiz-adv-x="372" d="M191 -14l-19 -38q29 1 46.5 -19t17.5 -55q0 -44 -28 -74t-78 -30q-19 0 -34 13q-8 -6 -14 -6q-8 0 -15 10.5t-7 23.5q0 14 10 26t20 12q6 0 11.5 -4.5t5.5 -10.5q14 -8 25 -8q22 0 36.5 12.5t14.5 33.5q0 28 -21 28q-2 0 -12 -6q-4 -6 -23 -6q-11 0 -17.5 7t-6.5 17 q0 16 12 26l26 45q-54 3 -84.5 45t-30.5 111q0 77 15.5 122t52.5 100q20 29 60.5 55.5t74.5 26.5q45 0 79.5 -22t34.5 -50q0 -49 -53 -49q-14 0 -19.5 6t-9.5 18q-9 24 -30 24q-37 0 -79 -60q-43 -58 -43 -155q0 -99 61 -99q26 0 49 21q33 29 46 63q2 15 4.5 24t11 16 t23.5 7q21 0 31.5 -12.5t10.5 -26.5q0 -11 -19 -47.5t-48 -65.5q-38 -41 -88 -49z" />
<glyph unicode="&#xe8;" horiz-adv-x="371" d="M234 442q56 0 84.5 -39.5t28.5 -80.5q0 -40 -40 -67.5t-158 -54.5l-34 -8q-7 -27 -7 -61q0 -71 48 -71q33 0 63 22t37 45q-2 18 10 30t34 12q41 0 41 -40q0 -11 -14.5 -34t-39 -48t-63 -43.5t-80.5 -18.5q-53 0 -85 33t-32 106q0 134 63 226t144 92zM229 367 q-34 0 -60.5 -31t-39.5 -76q61 13 94 23t42 17t9 15q0 22 -12 37t-33 15zM195 630l43 -70q20 -10 20 -31q0 -18 -13 -26.5t-30 -8.5q-14 0 -23.5 11.5t-8.5 24.5l-43 69q-19 10 -19 32q0 37 42 37q14 0 22.5 -11t9.5 -27z" />
<glyph unicode="&#xe9;" horiz-adv-x="371" d="M234 442q56 0 84.5 -39.5t28.5 -80.5q0 -40 -40 -67.5t-158 -54.5l-34 -8q-7 -27 -7 -61q0 -71 48 -71q33 0 63 22t37 45q-2 18 10 30t34 12q41 0 41 -40q0 -11 -14.5 -34t-39 -48t-63 -43.5t-80.5 -18.5q-53 0 -85 33t-32 106q0 134 63 226t144 92zM229 367 q-34 0 -60.5 -31t-39.5 -76q61 13 94 23t42 17t9 15q0 22 -12 37t-33 15zM313 604l-57 -77q-2 -13 -12.5 -23t-26.5 -10q-36 0 -38 35q2 25 22 30l59 79q-6 17 5.5 25t29.5 8q17 0 27.5 -9t10.5 -25q0 -22 -20 -33z" />
<glyph unicode="&#xea;" horiz-adv-x="371" d="M234 442q56 0 84.5 -39.5t28.5 -80.5q0 -40 -40 -67.5t-158 -54.5l-34 -8q-7 -27 -7 -61q0 -71 48 -71q33 0 63 22t37 45q-2 18 10 30t34 12q41 0 41 -40q0 -11 -14.5 -34t-39 -48t-63 -43.5t-80.5 -18.5q-53 0 -85 33t-32 106q0 134 63 226t144 92zM229 367 q-34 0 -60.5 -31t-39.5 -76q61 13 94 23t42 17t9 15q0 22 -12 37t-33 15zM257 630l51 -91q13 -11 13 -29q0 -14 -11 -24.5t-27 -10.5t-22 10.5t-4 22.5l-35 69l-44 -70q1 -14 -8 -23t-20 -9q-17 0 -27.5 11.5t-10.5 23.5q0 11 17 32l64 95q16 22 31 22q20 0 33 -29z" />
<glyph unicode="&#xeb;" horiz-adv-x="371" d="M234 442q56 0 84.5 -39.5t28.5 -80.5q0 -40 -40 -67.5t-158 -54.5l-34 -8q-7 -27 -7 -61q0 -71 48 -71q33 0 63 22t37 45q-2 18 10 30t34 12q41 0 41 -40q0 -11 -14.5 -34t-39 -48t-63 -43.5t-80.5 -18.5q-53 0 -85 33t-32 106q0 134 63 226t144 92zM229 367 q-34 0 -60.5 -31t-39.5 -76q61 13 94 23t42 17t9 15q0 22 -12 37t-33 15zM135 497q-18 0 -28 19t-10 37q0 56 49 56q45 0 45 -41q0 -38 -10.5 -54.5t-45.5 -16.5zM283 499q-42 0 -42 52q0 58 43 58q16 0 33.5 -12.5t17.5 -35.5q0 -62 -52 -62z" />
<glyph unicode="&#xec;" horiz-adv-x="189" d="M146 391q0 -16 -10 -33v-291q3 -2 7 -9.5t4 -14.5q0 -22 -20.5 -35t-43.5 -13q-18 0 -29.5 13t-11.5 33q0 19 11 30v283q-9 9 -9 26q0 18 2.5 28t15.5 19.5t39 9.5q16 0 30.5 -15.5t14.5 -30.5zM75 630l43 -70q19 -10 19 -31q0 -35 -42 -35q-14 0 -23.5 11.5t-8.5 24.5 l-43 69q-19 10 -19 32q0 37 42 37q14 0 22.5 -11t9.5 -27z" />
<glyph unicode="&#xed;" horiz-adv-x="189" d="M146 391q0 -16 -10 -33v-291q3 -2 7 -9.5t4 -14.5q0 -22 -20.5 -35t-43.5 -13q-18 0 -29.5 13t-11.5 33q0 19 11 30v283q-9 9 -9 26q0 18 2.5 28t15.5 19.5t39 9.5q16 0 30.5 -15.5t14.5 -30.5zM196 604l-57 -77q-2 -13 -12.5 -23t-27.5 -10t-27 9.5t-10 25.5 q0 9 6.5 18.5t15.5 11.5l59 79q-6 17 5.5 25t28.5 8t27.5 -9t10.5 -25q0 -23 -19 -33z" />
<glyph unicode="&#xee;" horiz-adv-x="189" d="M146 391q0 -16 -10 -33v-291q3 -2 7 -9.5t4 -14.5q0 -22 -20.5 -35t-43.5 -13q-18 0 -29.5 13t-11.5 33q0 19 11 30v283q-9 9 -9 26q0 18 2.5 28t15.5 19.5t39 9.5q16 0 30.5 -15.5t14.5 -30.5zM135 630l51 -91q13 -11 13 -29q0 -14 -11 -24.5t-27 -10.5 q-15 0 -21.5 10.5t-4.5 22.5l-35 69l-44 -70q1 -14 -8 -23t-20 -9q-17 0 -27 11.5t-10 23.5q0 13 17 32l64 95q14 22 30 22q20 0 33 -29z" />
<glyph unicode="&#xef;" horiz-adv-x="189" d="M146 391q0 -16 -10 -33v-291q3 -2 7 -9.5t4 -14.5q0 -22 -20.5 -35t-43.5 -13q-18 0 -29.5 13t-11.5 33q0 19 11 30v283q-9 9 -9 26q0 18 2.5 28t15.5 19.5t39 9.5q16 0 30.5 -15.5t14.5 -30.5zM14 501q-18 0 -28 19t-10 37q0 56 49 56q45 0 45 -41q0 -38 -10.5 -54.5 t-45.5 -16.5zM162 503q-42 0 -42 52q0 58 43 58q16 0 33.5 -12.5t17.5 -35.5q0 -62 -52 -62z" />
<glyph unicode="&#xf0;" horiz-adv-x="396" d="M245 506l-45 -23q-9 -22 -41 -22q-12 0 -20 10.5t-8 23.5q0 18 12 29.5t28 9.5l30 15q-23 25 -50 25q-1 0 -8.5 -2t-14.5 -2q-13 0 -23.5 9t-10.5 29t13.5 34t28.5 14q23 0 30 -12q47 -5 101 -54l38 20q9 16 32 16q33 0 33 -29q0 -20 -8 -28t-27 -10l-31 -16 q65 -97 65 -247q0 -142 -66.5 -228.5t-154.5 -86.5q-35 0 -60 16t-37.5 41.5t-18 51t-5.5 51.5q0 118 55.5 208t138.5 90q47 0 65 -31q-5 38 -41 98zM229 368q-46 0 -82 -68t-36 -153q0 -40 12 -65.5t34 -25.5q51 0 89 60t38 139q0 113 -55 113z" />
<glyph unicode="&#xf1;" horiz-adv-x="380" d="M140 279v-227q7 -8 7 -23q0 -17 -17.5 -25.5t-38.5 -8.5q-45 0 -45 32q0 15 11 27v167q-14 8 -14 32q0 23 14 56v77q-7 14 -7 31q0 14 17 26t36 12q47 0 47 -30q0 -19 -10 -31v-34q61 59 87 77t48 18q19 0 37.5 -18t18.5 -39v-340q6 -15 6 -23q0 -40 -52 -40 q-45 0 -45 36q0 11 8 24v288q0 4 -5.5 9.5t-10.5 5.5q-15 0 -92 -79zM238 499q-31 0 -63 32q-18 22 -28 22q-19 0 -30 -28q-9 -22 -32 -22q-19 0 -27.5 10t-8.5 24q0 5 6.5 13t7.5 9q31 56 88 56q23 0 51 -28t41 -28q10 0 15.5 10t4.5 22q1 28 33 28q15 0 25.5 -8t10.5 -18 q0 -4 -2 -10t-2 -7q-24 -77 -90 -77z" />
<glyph unicode="&#xf2;" horiz-adv-x="389" d="M243 447q34 0 58.5 -19t36.5 -49.5t17.5 -60.5t5.5 -60q0 -56 -20 -106.5t-40 -75.5q-44 -56 -79.5 -75.5t-87.5 -19.5q-38 0 -72.5 41t-34.5 118q0 131 63 219t153 88zM223 372q-42 0 -77 -67t-35 -150q0 -44 12 -71.5t32 -27.5q42 0 80 52q42 60 42 146q0 118 -54 118z M193 630l43 -70q20 -10 20 -31q0 -18 -13 -26.5t-30 -8.5q-15 0 -24 11.5t-8 24.5l-43 69q-20 11 -20 32q0 37 43 37q14 0 22.5 -11t9.5 -27z" />
<glyph unicode="&#xf3;" horiz-adv-x="389" d="M243 447q34 0 58.5 -19t36.5 -49.5t17.5 -60.5t5.5 -60q0 -56 -20 -106.5t-40 -75.5q-44 -56 -79.5 -75.5t-87.5 -19.5q-38 0 -72.5 41t-34.5 118q0 131 63 219t153 88zM223 372q-42 0 -77 -67t-35 -150q0 -44 12 -71.5t32 -27.5q42 0 80 52q42 60 42 146q0 118 -54 118z M316 604l-57 -77q-2 -13 -12.5 -23t-26.5 -10q-36 0 -38 35q2 25 22 30l59 79q-6 17 5.5 25t29.5 8q17 0 27 -9t10 -25q0 -22 -19 -33z" />
<glyph unicode="&#xf4;" horiz-adv-x="389" d="M243 447q34 0 58.5 -19t36.5 -49.5t17.5 -60.5t5.5 -60q0 -56 -20 -106.5t-40 -75.5q-44 -56 -79.5 -75.5t-87.5 -19.5q-38 0 -72.5 41t-34.5 118q0 131 63 219t153 88zM223 372q-42 0 -77 -67t-35 -150q0 -44 12 -71.5t32 -27.5q42 0 80 52q42 60 42 146q0 118 -54 118z M263 630l51 -91q12 -12 12 -29q0 -14 -10.5 -24.5t-27.5 -10.5q-15 0 -21 10.5t-4 22.5l-35 69l-44 -70q1 -14 -8 -23t-21 -9q-16 0 -26.5 11.5t-10.5 23.5q0 13 17 32l64 95q14 22 31 22t33 -29z" />
<glyph unicode="&#xf5;" horiz-adv-x="389" d="M243 447q34 0 58.5 -19t36.5 -49.5t17.5 -60.5t5.5 -60q0 -56 -20 -106.5t-40 -75.5q-44 -56 -79.5 -75.5t-87.5 -19.5q-38 0 -72.5 41t-34.5 118q0 131 63 219t153 88zM223 372q-42 0 -77 -67t-35 -150q0 -44 12 -71.5t32 -27.5q42 0 80 52q42 60 42 146q0 118 -54 118z M269 490q-27 0 -63 32q-18 22 -28 22q-20 0 -29 -28q-11 -22 -32 -22q-19 0 -28 10t-9 24q0 5 6.5 13t7.5 9q18 31 38 43.5t50 12.5q24 0 52 -28q26 -28 40 -28q21 0 21 32q0 28 32 28q15 0 25.5 -8t10.5 -18q0 -4 -2 -10t-2 -7q-24 -77 -90 -77z" />
<glyph unicode="&#xf6;" horiz-adv-x="389" d="M243 447q34 0 58.5 -19t36.5 -49.5t17.5 -60.5t5.5 -60q0 -56 -20 -106.5t-40 -75.5q-44 -56 -79.5 -75.5t-87.5 -19.5q-38 0 -72.5 41t-34.5 118q0 131 63 219t153 88zM223 372q-42 0 -77 -67t-35 -150q0 -44 12 -71.5t32 -27.5q42 0 80 52q42 60 42 146q0 118 -54 118z M142 497q-18 0 -28 19t-10 37q0 56 49 56q45 0 45 -41q0 -38 -10.5 -54.5t-45.5 -16.5zM290 499q-42 0 -42 52q0 58 43 58q16 0 33.5 -12.5t17.5 -35.5q0 -62 -52 -62z" />
<glyph unicode="&#xf7;" horiz-adv-x="554" d="M273 323q-26 0 -40.5 14t-14.5 38q0 22 15.5 38t39.5 16q17 0 31.5 -17t14.5 -43q0 -18 -11.5 -32t-34.5 -14zM423 183h-308q-23 -7 -32 -7q-36 0 -36 41q0 54 40 54q17 0 27 -5h309q3 1 9.5 3.5t11.5 4t9 1.5q38 0 38 -50q0 -48 -39 -48q-17 0 -29 6zM271 20 q-24 0 -39 13.5t-15 34.5q0 24 16 41t47 17q17 0 27 -13.5t10 -31.5q0 -26 -14.5 -43.5t-31.5 -17.5z" />
<glyph unicode="&#xf8;" horiz-adv-x="402" d="M319 418l17 23q2 9 9.5 15.5t18.5 6.5q16 0 27.5 -9.5t11.5 -26.5q0 -19 -8 -25t-28 -8l-17 -22q20 -53 20 -113q0 -56 -20 -107t-40 -76q-44 -56 -79.5 -75.5t-86.5 -19.5q-26 0 -53 24l-19 -26q-3 -23 -36 -23q-12 0 -23 9t-11 21q0 32 34 32l20 28q-20 43 -20 94 q0 131 62.5 219t152.5 88q39 0 68 -29zM121 127l151 219q-13 26 -39 26q-41 0 -78.5 -66t-37.5 -143q0 -14 4 -36zM286 290l-150 -215q13 -19 28 -19q45 0 82 53q43 61 43 131q0 29 -3 50z" />
<glyph unicode="&#xf9;" horiz-adv-x="380" d="M136 377v-280q0 -8 6.5 -16.5t13.5 -8.5q15 0 41.5 24.5t46.5 55.5v231q-6 12 -6 20q0 32 42 32q13 0 21 -1.5t15.5 -6t10 -15.5t0.5 -29v-327q8 -12 8 -25q0 -36 -60 -36q-36 0 -36 28q0 8 7 22v19q-65 -82 -126 -81q-25 1 -46 22.5t-21 50.5v321q0 2 -2.5 9t-2.5 12 q0 40 53 40q17 0 29.5 -9.5t12.5 -28.5q0 -12 -7 -23zM167 630l43 -70q20 -10 20 -31q0 -18 -13 -26.5t-30 -8.5q-14 0 -23.5 11.5t-8.5 24.5l-43 69q-19 11 -19 32q0 37 42 37q14 0 22.5 -11t9.5 -27z" />
<glyph unicode="&#xfa;" horiz-adv-x="380" d="M136 377v-280q0 -8 6.5 -16.5t13.5 -8.5q15 0 41.5 24.5t46.5 55.5v231q-6 12 -6 20q0 32 42 32q13 0 21 -1.5t15.5 -6t10 -15.5t0.5 -29v-327q8 -12 8 -25q0 -36 -60 -36q-36 0 -36 28q0 8 7 22v19q-65 -82 -126 -81q-25 1 -46 22.5t-21 50.5v321q0 2 -2.5 9t-2.5 12 q0 40 53 40q17 0 29.5 -9.5t12.5 -28.5q0 -12 -7 -23zM290 604l-57 -77q-1 -13 -11.5 -23t-27.5 -10t-27 9.5t-10 25.5q0 9 6.5 18.5t15.5 11.5l59 79q-6 17 5.5 25t28.5 8t27.5 -9t10.5 -25q0 -22 -20 -33z" />
<glyph unicode="&#xfb;" horiz-adv-x="380" d="M136 377v-280q0 -8 6.5 -16.5t13.5 -8.5q15 0 41.5 24.5t46.5 55.5v231q-6 12 -6 20q0 32 42 32q13 0 21 -1.5t15.5 -6t10 -15.5t0.5 -29v-327q8 -12 8 -25q0 -36 -60 -36q-36 0 -36 28q0 8 7 22v19q-65 -82 -126 -81q-25 1 -46 22.5t-21 50.5v321q0 2 -2.5 9t-2.5 12 q0 40 53 40q17 0 29.5 -9.5t12.5 -28.5q0 -12 -7 -23zM231 630l51 -91q13 -11 13 -29q0 -14 -11 -24.5t-27 -10.5q-15 0 -21.5 10.5t-4.5 22.5l-35 69l-44 -70q1 -14 -7.5 -23t-20.5 -9q-17 0 -27 11.5t-10 23.5q0 13 17 32l64 95q14 22 30 22q20 0 33 -29z" />
<glyph unicode="&#xfc;" horiz-adv-x="380" d="M136 377v-280q0 -8 6.5 -16.5t13.5 -8.5q15 0 41.5 24.5t46.5 55.5v231q-6 12 -6 20q0 32 42 32q13 0 21 -1.5t15.5 -6t10 -15.5t0.5 -29v-327q8 -12 8 -25q0 -36 -60 -36q-36 0 -36 28q0 8 7 22v19q-65 -82 -126 -81q-25 1 -46 22.5t-21 50.5v321q0 2 -2.5 9t-2.5 12 q0 40 53 40q17 0 29.5 -9.5t12.5 -28.5q0 -12 -7 -23zM110 501q-18 0 -28 19t-10 37q0 56 49 56q45 0 45 -41q0 -38 -10.5 -54.5t-45.5 -16.5zM258 503q-42 0 -42 52q0 58 43 58q16 0 33.5 -12.5t17.5 -35.5q0 -62 -52 -62z" />
<glyph unicode="&#xfd;" horiz-adv-x="369" d="M163 28l-141 331q-18 15 -18 36q0 17 17.5 28.5t32.5 11.5q24 0 35 -15t9 -34l101 -251l78 260q0 16 10 29.5t31 13.5q22 0 36.5 -10.5t14.5 -28.5q0 -21 -19 -31l-144 -438q-25 -79 -53 -105t-67 -26q-34 0 -61 23.5t-36 67.5q-1 7 -6.5 14t-5.5 18q0 17 11 27.5 t30 10.5q47 0 47 -35q0 -5 -2.5 -12.5t-2.5 -9.5q0 -11 7.5 -21t18.5 -10q15 0 32 33.5t45 122.5zM280 604l-57 -77q-1 -13 -11.5 -23t-27.5 -10t-27 9.5t-10 25.5q0 9 6.5 18.5t15.5 11.5l59 79q-6 17 5.5 25t28.5 8t27.5 -9t10.5 -25q0 -22 -20 -33z" />
<glyph unicode="&#xfe;" horiz-adv-x="401" d="M53 -239v811q-1 5 -2.5 14t-3 16.5t-1.5 11.5q0 18 14.5 28.5t28.5 10.5q29 0 43 -9t14 -20q0 -4 -5 -22.5t-5 -23.5v-253h1q33 57 69 83.5t85 26.5q37 0 62.5 -34.5t25.5 -94.5q0 -140 -62.5 -229t-136.5 -89q-28 0 -44 19v-246q9 -11 9 -27q0 -23 -14 -33t-46 -10 q-41 0 -41 32q0 22 9 38zM136 197v-105q13 -32 40 -32q42 0 80.5 72.5t38.5 161.5q0 65 -35 65q-28 0 -73 -65q-34 -50 -51 -97z" />
<glyph unicode="&#xff;" horiz-adv-x="369" d="M163 28l-141 331q-18 15 -18 36q0 17 17.5 28.5t32.5 11.5q24 0 35 -15t9 -34l101 -251l78 260q0 16 10 29.5t31 13.5q22 0 36.5 -10.5t14.5 -28.5q0 -21 -19 -31l-144 -438q-25 -79 -53 -105t-67 -26q-34 0 -61 23.5t-36 67.5q-1 7 -6.5 14t-5.5 18q0 17 11 27.5 t30 10.5q47 0 47 -35q0 -5 -2.5 -12.5t-2.5 -9.5q0 -11 7.5 -21t18.5 -10q15 0 32 33.5t45 122.5zM107 497q-18 0 -28 19t-10 37q0 56 49 56q45 0 45 -41q0 -38 -10.5 -54.5t-45.5 -16.5zM255 499q-42 0 -42 52q0 58 43 58q16 0 33.5 -12.5t17.5 -35.5q0 -62 -52 -62z" />
<glyph unicode="&#x100;" horiz-adv-x="496" d="M338 231l-189 -16q-41 -118 -43 -130q-3 -12 -3 -49q0 -41 -55 -41q-21 0 -32.5 12.5t-11.5 30.5q0 7 1.5 15t6 21.5t8.5 23.5l13.5 33.5l15.5 39.5l134 342q19 53 24 83q-1 28 12.5 48.5t37.5 20.5q25 0 37.5 -12.5t12.5 -25.5q0 -11 -4 -22t-4 -19q0 -34 83 -246 q92 -241 92 -285q0 -28 -16 -44t-40 -16q-18 0 -32 10.5t-14 25.5q0 10 3.5 22.5t3.5 16.5q0 31 -41 161zM178 292l135 11l-63 184zM313 740l-109 -16q-8 -4 -23 -4q-12 0 -21.5 11.5t-9.5 25.5q0 20 10 30t21 10q10 0 20 -5l101 15q14 7 24 7q13 0 23 -10.5t10 -27.5 q0 -22 -16 -31t-30 -5z" />
<glyph unicode="&#x101;" horiz-adv-x="386" d="M248 287v57q0 37 -24 37q-43 0 -85 -38q2 -8 -9 -18t-29 -10t-30 14.5t-12 31.5q0 14 14.5 28t29.5 11q66 50 161 50q26 0 45.5 -22t19.5 -61v-318q7 -5 7 -21q0 -34 -58 -34q-39 0 -39 28q0 10 7 21v44h-1q-74 -106 -163 -106q-32 0 -52 21.5t-20 55.5q0 67 66.5 136.5 t171.5 92.5zM246 194v32q-60 -14 -108 -61t-48 -83q0 -22 23 -22q40 0 86.5 47.5t46.5 86.5zM260 543l-109 -16q-8 -4 -23 -4q-13 0 -22 11.5t-9 25.5q0 20 9.5 30t21.5 10q8 0 20 -5l100 15q14 7 24 7q13 0 23 -10.5t10 -27.5q0 -22 -16 -31t-29 -5z" />
<glyph unicode="&#x102;" horiz-adv-x="496" d="M338 231l-189 -16q-41 -118 -43 -130q-3 -12 -3 -49q0 -41 -55 -41q-21 0 -32.5 12.5t-11.5 30.5q0 7 1.5 15t6 21.5t8.5 23.5l13.5 33.5l15.5 39.5l134 342q19 53 24 83q-1 28 12.5 48.5t37.5 20.5q25 0 37.5 -12.5t12.5 -25.5q0 -11 -4 -22t-4 -19q0 -34 83 -246 q92 -241 92 -285q0 -28 -16 -44t-40 -16q-18 0 -32 10.5t-14 25.5q0 10 3.5 22.5t3.5 16.5q0 31 -41 161zM178 292l135 11l-63 184zM246 681q-40 0 -68.5 34.5t-28.5 68.5q0 32 35 32q33 0 33 -29q0 -16 9 -29.5t22 -13.5q34 0 46 36q-4 7 -4 17t12.5 16.5t26.5 6.5 t23.5 -7.5t9.5 -20.5q0 -16 -7 -24q-16 -43 -41 -65t-68 -22z" />
<glyph unicode="&#x103;" horiz-adv-x="386" d="M248 287v57q0 37 -24 37q-43 0 -85 -38q2 -8 -9 -18t-29 -10t-30 14.5t-12 31.5q0 14 14.5 28t29.5 11q66 50 161 50q26 0 45.5 -22t19.5 -61v-318q7 -5 7 -21q0 -34 -58 -34q-39 0 -39 28q0 10 7 21v44h-1q-74 -106 -163 -106q-32 0 -52 21.5t-20 55.5q0 67 66.5 136.5 t171.5 92.5zM246 194v32q-60 -14 -108 -61t-48 -83q0 -22 23 -22q40 0 86.5 47.5t46.5 86.5zM189 479q-40 0 -68.5 34.5t-28.5 68.5q0 32 35 32q33 0 33 -29q0 -16 9 -29.5t22 -13.5q34 0 46 36q-4 7 -4 17t12.5 16.5t26.5 6.5t23.5 -7.5t9.5 -20.5q0 -16 -7 -24 q-16 -43 -41 -65t-68 -22z" />
<glyph unicode="&#x104;" horiz-adv-x="496" d="M178 292l135 11l-63 184zM368 -184q-40 0 -65 21t-25 63q0 52 30 90.5t67 54.5q4 14 4 25q0 31 -41 161l-189 -16q-41 -118 -43 -130q-3 -12 -3 -49q0 -41 -55 -41q-21 0 -32.5 12.5t-11.5 30.5q0 7 1.5 15t6 21.5t8.5 23.5l13.5 33.5l15.5 39.5l134 342q19 53 24 83 q-1 28 12.5 48.5t37.5 20.5q25 0 37.5 -12.5t12.5 -25.5q0 -11 -4 -22t-4 -19q0 -34 83 -246q92 -241 92 -285q0 -28 -16 -44t-40 -16t-34 -6q-17 -9 -30 -29q-17 -24 -17 -57q0 -15 10.5 -24t24.5 -9q32 0 37 19q-3 5 -3 11q0 18 30 18q14 0 23 -9.5t9 -24.5 q0 -25 -27 -46.5t-73 -21.5z" />
<glyph unicode="&#x105;" horiz-adv-x="386" d="M308 -181q-43 0 -68 23t-25 68q0 47 30 95q-12 15 1 38v44h-1q-74 -106 -163 -106q-32 0 -52 21.5t-20 55.5q0 67 66.5 136.5t171.5 92.5v57q0 37 -24 37q-43 0 -85 -38q2 -8 -9 -18t-29 -10t-30 14.5t-12 31.5q0 14 14.5 28t29.5 11q66 50 161 50q26 0 45.5 -22 t19.5 -61v-318q7 -5 7 -21q0 -15 -12 -24q-50 -33 -50 -91q0 -18 11.5 -29t27.5 -11t27 9t13 20q-3 4 -3 10q0 18 31 18q14 0 22.5 -9t8.5 -25q0 -27 -28.5 -52t-75.5 -25zM246 194v32q-60 -14 -108 -61t-48 -83q0 -22 23 -22q40 0 86.5 47.5t46.5 86.5z" />
<glyph unicode="&#x106;" horiz-adv-x="443" d="M276 656q69 0 107.5 -30t38.5 -63q0 -53 -46 -53q-21 0 -30.5 9t-12.5 29q-2 12 -18 20.5t-40 8.5q-43 0 -81 -61.5t-57 -136t-19 -130.5q0 -91 26.5 -139.5t59.5 -48.5q32 0 67.5 22t50.5 50q1 18 3.5 28t13.5 20.5t31 10.5q21 0 32 -13t11 -28q0 -31 -24 -64 q-27 -37 -80 -71t-116 -34q-73 0 -118.5 69t-45.5 203q0 52 16.5 118.5t46 131t78.5 108.5t106 44zM354 806l-57 -76q-1 -14 -11.5 -23.5t-27.5 -9.5q-16 0 -26.5 9.5t-10.5 24.5q0 10 6.5 19t15.5 11l59 79q-6 17 5.5 25t28.5 8t27.5 -9t10.5 -25q0 -22 -20 -33z" />
<glyph unicode="&#x107;" horiz-adv-x="372" d="M230 443q45 0 79 -22t34 -50q0 -49 -53 -49q-20 0 -29 24t-30 24q-37 0 -79 -60q-43 -58 -43 -156t61 -98q26 0 49 21q33 29 46 63q3 23 10.5 35t28.5 12q22 0 32 -13t10 -27q0 -10 -19 -47t-47 -66q-52 -53 -126 -53q-61 0 -94.5 43.5t-33.5 114.5q0 77 15.5 122 t52.5 100q20 29 60.5 55.5t75.5 26.5zM286 606l-57 -77q-1 -13 -11.5 -23t-27.5 -10t-27 9.5t-10 25.5q0 9 6.5 18.5t15.5 11.5l59 79q-6 17 5.5 25t28.5 8t27.5 -9t10.5 -25q0 -22 -20 -33z" />
<glyph unicode="&#x10c;" horiz-adv-x="443" d="M276 656q69 0 107.5 -30t38.5 -63q0 -53 -46 -53q-21 0 -30.5 9t-12.5 29q-2 12 -18 20.5t-40 8.5q-43 0 -81 -61.5t-57 -136t-19 -130.5q0 -91 26.5 -139.5t59.5 -48.5q32 0 67.5 22t50.5 50q1 18 3.5 28t13.5 20.5t31 10.5q21 0 32 -13t11 -28q0 -31 -24 -64 q-27 -37 -80 -71t-116 -34q-73 0 -118.5 69t-45.5 203q0 52 16.5 118.5t46 131t78.5 108.5t106 44zM350 763l-61 -63q-12 -13 -36 -13q-20 0 -29 17l-36 61q-18 10 -18 28q0 36 35 36q20 0 33 -29l26 -44l42 46q2 11 11.5 19t20.5 8q15 0 25.5 -9t10.5 -23q0 -20 -24 -34z " />
<glyph unicode="&#x10d;" horiz-adv-x="372" d="M230 443q45 0 79 -22t34 -50q0 -49 -53 -49q-20 0 -29 24t-30 24q-37 0 -79 -60q-43 -58 -43 -156t61 -98q26 0 49 21q33 29 46 63q3 23 10.5 35t28.5 12q22 0 32 -13t10 -27q0 -10 -19 -47t-47 -66q-52 -53 -126 -53q-61 0 -94.5 43.5t-33.5 114.5q0 77 15.5 122 t52.5 100q20 29 60.5 55.5t75.5 26.5zM294 560l-61 -63q-12 -13 -36 -13q-20 0 -29 17l-36 61q-18 10 -18 28q0 36 36 36q20 0 32 -29l27 -44l41 46q2 11 11.5 19t20.5 8q15 0 25.5 -8.5t10.5 -23.5q0 -20 -24 -34z" />
<glyph unicode="&#x10e;" horiz-adv-x="485" d="M40 26q0 27 12 39v519q-5 15 -5 28q0 15 12.5 28t39.5 13q24 0 33.5 -13t5.5 -29q66 41 150 41q67 0 119 -70.5t52 -155.5q0 -184 -82 -292q-51 -68 -132 -108t-147 -40q-58 0 -58 40zM138 530v-458q115 17 173 112t58 234q0 59 -33 108.5t-74 49.5q-63 0 -124 -46z M326 761l-62 -63q-10 -13 -36 -13q-20 0 -29 17l-36 61q-18 11 -18 28q0 36 36 36q20 0 32 -29l27 -44l42 46q2 11 11 19t20 8q15 0 25.5 -8.5t10.5 -23.5q0 -19 -23 -34z" />
<glyph unicode="&#x10f;" horiz-adv-x="420" d="M284 398v184q-14 7 -14 35q0 17 15.5 28t39.5 11q21 0 33 -12.5t12 -30.5l-3 -33v-525q13 -5 13 -22q0 -22 -12.5 -30.5t-43.5 -8.5q-45 0 -45 36q0 19 5 22v71q-31 -56 -83.5 -99t-99.5 -43q-42 0 -67.5 32.5t-25.5 88.5q0 115 75 213.5t155 98.5q27 0 46 -16zM233 341 q-44 0 -92 -80t-48 -143q0 -55 39 -55q43 0 100 86q19 29 26 40.5t14.5 34.5t7.5 49q0 68 -47 68zM421 465q-24 0 -24 22q0 28 34 31q19 2 30.5 17t11.5 38q0 19 -13 25q-40 -4 -40 31q0 27 30 27q32 0 54.5 -22.5t22.5 -60.5q0 -50 -34 -79t-72 -29z" />
<glyph unicode="&#x110;" horiz-adv-x="501" d="M56 26q0 27 12 39v218l-19 -2q-18 -6 -19 -6q-14 0 -23 8.5t-9 21.5q0 22 11.5 35t27.5 15l31 3v226q-5 15 -5 28q0 15 12.5 28t39.5 13q24 0 33.5 -13t5.5 -29q66 41 150 41q66 0 118.5 -65t52.5 -143q0 -202 -82 -310q-51 -68 -132 -108t-147 -40q-58 0 -58 40z M154 530v-164l84 10q1 0 7 2.5t13.5 4t14.5 1.5q34 0 34 -39q0 -50 -39 -50q-9 0 -33 6l-81 -9v-220q115 17 173 112t58 252q0 51 -33 95.5t-74 44.5q-63 0 -124 -46z" />
<glyph unicode="&#x111;" horiz-adv-x="420" d="M233 341q-44 0 -92 -80t-48 -143q0 -55 39 -55q43 0 100 86q19 29 26 40.5t14.5 34.5t7.5 49q0 68 -47 68zM397 491l-30 -4v-432q13 -5 13 -22q0 -22 -12.5 -30.5t-43.5 -8.5q-45 0 -45 36q0 19 5 22v71q-31 -56 -83.5 -99t-99.5 -43q-42 0 -67.5 32.5t-25.5 88.5 q0 114 75 213t155 99q27 0 46 -16v77l-79 -12q-7 -4 -22 -4q-9 0 -16.5 9t-7.5 21q0 17 7.5 25t16.5 8t19 -5l82 13v52q-14 7 -14 35q0 17 15.5 28t39.5 11q22 0 34.5 -12.5t10.5 -30.5l-3 -34v-38l20 3q12 6 22 6t18 -8t8 -22q0 -18 -14 -25.5t-24 -3.5z" />
<glyph unicode="&#x112;" horiz-adv-x="442" d="M147 281v-201l190 15q12 14 30 14q23 0 38 -14t15 -31q0 -28 -18.5 -38t-59.5 -10l-196 -15q-12 -16 -53 -16q-19 0 -32 13t-13 35q0 23 13 42v193q-18 18 -18 43q0 26 18 44v165q-21 10 -21 35t15 35q-6 8 -6 17q0 15 15.5 25t37.5 10q43 0 45 -34l157 17q22 15 33 15 q27 0 41 -12.5t14 -31.5q0 -24 -14.5 -39.5t-39.5 -15.5q-7 0 -31 6l-160 -18v-169l122 18q18 14 32 14q23 0 37.5 -15t14.5 -33q0 -49 -56 -49q-7 0 -19 6zM281 721l-108 -16q-9 -4 -23 -4q-13 0 -22.5 11.5t-9.5 25.5q0 20 10 30t21 10q10 0 20 -5l101 15q12 7 24 7 q13 0 22.5 -10.5t9.5 -27.5q0 -22 -15.5 -31t-29.5 -5z" />
<glyph unicode="&#x113;" horiz-adv-x="371" d="M234 442q56 0 84.5 -39.5t28.5 -80.5q0 -40 -40 -67.5t-158 -54.5l-34 -8q-7 -27 -7 -61q0 -71 48 -71q33 0 63 22t37 45q-2 18 10 30t34 12q41 0 41 -40q0 -11 -14.5 -34t-39 -48t-63 -43.5t-80.5 -18.5q-53 0 -85 33t-32 106q0 134 63 226t144 92zM229 367 q-34 0 -60.5 -31t-39.5 -76q61 13 94 23t42 17t9 15q0 22 -12 37t-33 15zM272 524l-109 -16q-9 -4 -23 -4q-13 0 -22.5 11.5t-9.5 25.5q0 20 10 30t21 10q10 0 20 -5l101 15q14 7 24 7q13 0 23 -10.5t10 -27.5q0 -22 -16 -31t-29 -5z" />
<glyph unicode="&#x116;" horiz-adv-x="442" d="M147 281v-201l190 15q12 14 30 14q23 0 38 -14t15 -31q0 -28 -18.5 -38t-59.5 -10l-196 -15q-12 -16 -53 -16q-19 0 -32 13t-13 35q0 23 13 42v193q-18 18 -18 43q0 26 18 44v165q-21 10 -21 35t15 35q-6 8 -6 17q0 15 15.5 25t37.5 10q43 0 45 -34l157 17q22 15 33 15 q27 0 41 -12.5t14 -31.5q0 -24 -14.5 -39.5t-39.5 -15.5q-7 0 -31 6l-160 -18v-169l122 18q18 14 32 14q23 0 37.5 -15t14.5 -33q0 -49 -56 -49q-7 0 -19 6zM216 662q-40 0 -40 49q0 37 15 62t42 25q18 0 29 -12t11 -33q0 -41 -17 -66t-40 -25z" />
<glyph unicode="&#x117;" horiz-adv-x="371" d="M234 442q56 0 84.5 -39.5t28.5 -80.5q0 -40 -40 -67.5t-158 -54.5l-34 -8q-7 -27 -7 -61q0 -71 48 -71q33 0 63 22t37 45q-2 18 10 30t34 12q41 0 41 -40q0 -11 -14.5 -34t-39 -48t-63 -43.5t-80.5 -18.5q-53 0 -85 33t-32 106q0 134 63 226t144 92zM229 367 q-34 0 -60.5 -31t-39.5 -76q61 13 94 23t42 17t9 15q0 22 -12 37t-33 15zM189 482q-40 0 -40 49q0 37 15 62t42 25q18 0 29 -12t11 -33q0 -41 -17 -66t-40 -25z" />
<glyph unicode="&#x118;" horiz-adv-x="442" d="M312 -165q-39 0 -64 21t-25 63q0 55 32 90l-109 -8q-12 -16 -53 -16q-19 0 -32 12.5t-13 34.5q0 24 13 43v193q-18 18 -18 43q0 26 18 44v165q-21 10 -21 35t15 35q-6 8 -6 17q0 15 15.5 25t37.5 10q43 0 45 -34l157 17q20 15 32 15q27 0 41 -12.5t14 -31.5 q0 -24 -14.5 -39.5t-39.5 -15.5q-8 0 -30 6l-160 -18v-169l122 18q18 14 32 14q22 0 36.5 -15t14.5 -33q0 -49 -55 -49q-7 0 -19 6l-131 -20v-201l189 15q12 14 30 14q23 0 38 -14.5t15 -30.5q0 -19 -10 -29.5t-23.5 -13.5t-41.5 -5q-25 -8 -45 -37q-17 -24 -17 -57 q0 -15 10 -24t25 -9q31 0 36 20q-3 3 -3 10q0 18 30 18q14 0 23 -9.5t9 -24.5q0 -25 -27 -46.5t-73 -21.5z" />
<glyph unicode="&#x119;" horiz-adv-x="371" d="M230 367q-34 0 -60.5 -31t-39.5 -76q61 13 94 23t42 17t9 15q0 22 -12 37t-33 15zM207 -168q-39 0 -64 21t-25 63q0 35 17 71q-1 0 -4 -0.5t-5 -0.5q-99 11 -99 138q0 134 63 226t143 92h1q56 0 84.5 -39.5t28.5 -80.5q0 -40 -39.5 -67.5t-158.5 -54.5l-34 -8 q-7 -27 -7 -61q0 -71 48 -71q32 0 62.5 22.5t37.5 44.5q-2 18 10 30t34 12q41 0 41 -40q0 -19 -31.5 -57.5t-76.5 -62.5q-25 -13 -39 -33q-17 -24 -17 -56q0 -16 10.5 -25t24.5 -9q32 0 37 20q-3 3 -3 10q0 18 30 18q14 0 23 -9.5t9 -24.5q0 -25 -27.5 -46.5t-73.5 -21.5z " />
<glyph unicode="&#x11a;" horiz-adv-x="442" d="M147 281v-201l190 15q12 14 30 14q23 0 38 -14t15 -31q0 -28 -18.5 -38t-59.5 -10l-196 -15q-12 -16 -53 -16q-19 0 -32 13t-13 35q0 23 13 42v193q-18 18 -18 43q0 26 18 44v165q-21 10 -21 35t15 35q-6 8 -6 17q0 15 15.5 25t37.5 10q43 0 45 -34l157 17q22 15 33 15 q27 0 41 -12.5t14 -31.5q0 -24 -14.5 -39.5t-39.5 -15.5q-7 0 -31 6l-160 -18v-169l122 18q18 14 32 14q23 0 37.5 -15t14.5 -33q0 -49 -56 -49q-7 0 -19 6zM312 752l-61 -63q-12 -13 -36 -13q-20 0 -29 17l-36 61q-18 10 -18 28q0 36 35 36q21 0 33 -29l26 -44l42 46 q2 11 11.5 19t20.5 8q15 0 25.5 -8.5t10.5 -23.5q0 -20 -24 -34z" />
<glyph unicode="&#x11b;" horiz-adv-x="371" d="M234 442q56 0 84.5 -39.5t28.5 -80.5q0 -40 -40 -67.5t-158 -54.5l-34 -8q-7 -27 -7 -61q0 -71 48 -71q33 0 63 22t37 45q-2 18 10 30t34 12q41 0 41 -40q0 -11 -14.5 -34t-39 -48t-63 -43.5t-80.5 -18.5q-53 0 -85 33t-32 106q0 134 63 226t144 92zM229 367 q-34 0 -60.5 -31t-39.5 -76q61 13 94 23t42 17t9 15q0 22 -12 37t-33 15zM294 553l-61 -63q-13 -13 -36 -13q-20 0 -29 18l-37 60q-18 13 -18 28q0 16 9.5 26t26.5 10q21 0 33 -29l26 -44l42 47q2 10 11 18t21 8q15 0 25.5 -8.5t10.5 -23.5q0 -17 -24 -34z" />
<glyph unicode="&#x11e;" horiz-adv-x="536" d="M342 665q69 0 103 -42q32 -38 32 -69q0 -17 -11.5 -30t-33.5 -13q-38 0 -47 46q-1 11 -15 21.5t-35 10.5q-40 0 -102 -58q-117 -111 -117 -285q0 -92 27 -140.5t69 -48.5q36 0 77.5 21t65.5 55q64 92 64 165q-18 -7 -59.5 -16.5t-58.5 -9.5q-14 0 -23.5 9.5t-9.5 28.5 q0 18 11 31.5t30 13.5q37 0 94.5 13.5t63.5 13.5q19 0 29.5 -13t10.5 -32q0 -28 -8.5 -68t-31 -91t-55 -93.5t-87.5 -72t-122 -30.5q-81 0 -127.5 71t-46.5 193q0 106 43 193.5t110 146.5q90 79 160 79zM296 689q-40 0 -68.5 34.5t-28.5 68.5q0 32 35 32q33 0 33 -29 q0 -16 9 -29.5t22 -13.5q34 0 46 36q-4 7 -4 17t12.5 16.5t26.5 6.5t23.5 -7.5t9.5 -20.5q0 -16 -7 -24q-16 -43 -41 -65t-68 -22z" />
<glyph unicode="&#x11f;" horiz-adv-x="384" d="M332 383v-397q0 -93 -49 -146t-113 -53q-45 0 -80 19.5t-35 44.5q0 23 10.5 37t27.5 14q28 0 33 -28q18 -15 48 -15q75 0 75 134q0 22 1 68t1 69q-26 -69 -63 -109t-78 -40q-44 0 -67.5 33.5t-23.5 82.5q0 81 28.5 156.5t89.5 128.5t142 53q53 0 53 -52zM121 59 q26 0 60 49.5t52 131.5q13 59 16 123v1q-63 0 -106 -80t-43 -176q0 -49 21 -49zM185 472q-40 0 -68.5 34.5t-28.5 68.5q0 32 35 32q33 0 33 -29q0 -16 9 -29.5t22 -13.5q34 0 46 36q-4 7 -4 17t12.5 16.5t26.5 6.5t23.5 -7.5t9.5 -20.5q0 -16 -7 -24q-16 -43 -41 -65 t-68 -22z" />
<glyph unicode="&#x122;" horiz-adv-x="536" d="M342 665q69 0 103 -42q32 -38 32 -69q0 -17 -11.5 -30t-33.5 -13q-38 0 -47 46q-1 11 -15 21.5t-36 10.5q-39 0 -101 -58q-117 -111 -117 -285q0 -92 27 -140.5t69 -48.5q36 0 77.5 21t65.5 55q64 92 64 165q-18 -7 -59.5 -16.5t-58.5 -9.5q-13 0 -23 9.5t-10 28.5 q0 18 11 31.5t30 13.5q37 0 94.5 13.5t63.5 13.5q19 0 29.5 -13t10.5 -32q0 -28 -8.5 -68t-31 -91t-55 -93.5t-87.5 -72t-122 -30.5q-81 0 -127.5 71t-46.5 193q0 106 43 193.5t110 146.5q91 79 160 79zM223 -240q-24 0 -24 22q0 28 34 31q19 2 30.5 17t11.5 38q0 20 -13 26 q-40 -4 -40 30q0 27 30 27q32 0 54.5 -22.5t22.5 -60.5q0 -50 -34 -79t-72 -29z" />
<glyph unicode="&#x123;" horiz-adv-x="384" d="M332 383v-397q0 -93 -49 -146t-113 -53q-45 0 -80 19.5t-35 44.5q0 23 10.5 37t27.5 14q28 0 33 -28q18 -15 48 -15q75 0 75 134q0 22 1 68t1 69q-26 -69 -63 -109t-78 -40q-44 0 -67.5 33.5t-23.5 82.5q0 81 28.5 156.5t89.5 128.5t142 53q53 0 53 -52zM121 59 q26 0 60 49.5t52 131.5q16 72 16 123v1q-63 0 -106 -80t-43 -176q0 -49 21 -49zM239 658q23 0 23 -22q0 -27 -34 -31q-18 -2 -29.5 -17t-11.5 -38q0 -20 13 -26q40 4 40 -30q0 -12 -7.5 -20t-22.5 -8q-32 0 -54.5 23t-22.5 61q0 50 34 79t72 29z" />
<glyph unicode="&#x12a;" horiz-adv-x="205" d="M145 554v-479q13 -17 13 -33q0 -18 -15.5 -32.5t-39.5 -14.5q-26 0 -42 13t-16 35q0 17 14 36v481q-11 6 -11 28q0 24 19 40.5t43 16.5q26 0 38 -16t12 -37q0 -22 -15 -38zM161 715l-109 -16q-8 -4 -23 -4q-13 0 -22 11.5t-9 25.5q0 20 9.5 30t21.5 10q7 0 20 -5l100 15 q14 7 24 7q13 0 23 -10.5t10 -27.5q0 -22 -16 -31t-29 -5z" />
<glyph unicode="&#x12b;" horiz-adv-x="189" d="M146 391q0 -16 -10 -33v-291q3 -2 7 -9.5t4 -14.5q0 -22 -20.5 -35t-43.5 -13q-18 0 -29.5 13t-11.5 33q0 19 11 30v283q-9 9 -9 26q0 18 2.5 28t15.5 19.5t39 9.5q16 0 30.5 -15.5t14.5 -30.5zM154 526l-109 -16q-8 -4 -22 -4q-13 0 -22.5 11.5t-9.5 25.5q0 20 10 30 t21 10q10 0 20 -5l101 15q12 7 24 7q13 0 22.5 -10.5t9.5 -27.5q0 -22 -15.5 -31t-29.5 -5z" />
<glyph unicode="&#x12e;" horiz-adv-x="205" d="M126 -175q-43 0 -67.5 23t-24.5 68t27 92q-31 28 -2 71v481q-11 6 -11 28q0 24 19 40.5t43 16.5q26 0 38 -16t12 -37q0 -22 -15 -38v-479q13 -17 13 -33q0 -21 -24 -40q-41 -30 -41 -83q0 -19 11.5 -29.5t26.5 -10.5q16 0 27 9t13 20q-3 3 -3 10q0 18 31 18q14 0 22.5 -9 t8.5 -25q0 -27 -28.5 -52t-75.5 -25z" />
<glyph unicode="&#x12f;" horiz-adv-x="189" d="M111 626q18 0 28.5 -12t10.5 -33q0 -41 -17 -66t-40 -25q-40 0 -40 49q0 37 15.5 62t42.5 25zM118 -172q-43 0 -67.5 23t-24.5 68q0 43 27 90q-10 13 -10 32t11 30v283q-9 9 -9 26q0 18 2.5 28t15.5 19.5t39 9.5q16 0 30.5 -15.5t14.5 -29.5v-1q0 -16 -10 -33v-292 q11 -6 11 -24q0 -20 -21 -35q-42 -31 -42 -85q0 -18 11.5 -29t26.5 -11q16 0 27 9t13 20q-3 3 -3 10q0 18 31 18q14 0 22.5 -9.5t8.5 -24.5q0 -27 -28.5 -52t-75.5 -25z" />
<glyph unicode="&#x130;" horiz-adv-x="205" d="M145 554v-479q13 -17 13 -33q0 -18 -15.5 -32.5t-39.5 -14.5q-26 0 -42 13t-16 35q0 17 14 36v481q-11 6 -11 28q0 24 19 40.5t43 16.5q26 0 38 -16t12 -37q0 -22 -15 -38zM97 670q-40 0 -40 49q0 37 15 62t42 25q18 0 29 -12t11 -33q0 -41 -17 -66t-40 -25z" />
<glyph unicode="&#x131;" horiz-adv-x="189" d="M146 391q0 -16 -10 -33v-291q3 -2 7 -9.5t4 -14.5q0 -22 -20.5 -35t-43.5 -13q-18 0 -29.5 13t-11.5 33q0 19 11 30v283q-9 9 -9 26q0 18 2.5 28t15.5 19.5t39 9.5q16 0 30.5 -15.5t14.5 -30.5z" />
<glyph unicode="&#x136;" horiz-adv-x="464" d="M146 348v-279q11 -8 11 -26q1 -26 -15 -37t-39 -11t-39.5 13t-15.5 37q1 18 12 27v501q-7 7 -7 24q0 25 14.5 36.5t33.5 11.5q20 0 36 -10.5t16 -30.5t-7 -27v-153h2q14 25 46 58l113 120q18 41 48 41q14 0 32 -11.5t18 -31.5q-1 -14 -12 -29t-26 -18l-156 -161l218 -318 q13 -2 23 -12t10 -20q0 -17 -18.5 -34t-40.5 -17q-46 0 -46 34l-165 246q-35 51 -44 77h-2zM189 -218q-23 0 -23 22q0 28 34 31q19 2 30.5 17t11.5 38q0 20 -13 26q-41 -5 -41 29q0 12 8 20t22 8q33 0 55.5 -22.5t22.5 -60.5q0 -50 -34.5 -79t-72.5 -29z" />
<glyph unicode="&#x137;" horiz-adv-x="367" d="M135 590v-316l2 -2q27 46 54 82l58 82q0 14 10.5 25t25.5 11q25 0 37.5 -14t12.5 -32q0 -13 -9.5 -23t-19.5 -10l-108 -153l115 -172q12 1 22 -8t10 -22q0 -21 -16 -34t-44 -13q-25 0 -31 32l-74 112q-33 52 -43 75l-2 -2v-133q1 -3 4 -9.5t5 -12t2 -10.5q0 -48 -55 -48 q-49 0 -49 51q0 20 10 27v513q-11 6 -11 27q0 12 2.5 20t15 16t35.5 8q27 0 38 -10.5t11 -32.5q0 -17 -8 -24zM140 -239q-24 0 -24 22q0 28 35 31q18 2 29.5 17t11.5 38q0 19 -13 26q-40 -4 -40 30q0 27 30 27q32 0 54.5 -22.5t22.5 -60.5q0 -50 -34 -79t-72 -29z" />
<glyph unicode="&#x139;" horiz-adv-x="365" d="M146 566v-496l124 19q16 14 33 14q16 0 29.5 -11t13.5 -33q0 -25 -11 -38t-28 -13q-13 0 -28 5l-142 -23q-25 -5 -40 -5q-51 0 -51 42q0 25 14 35v505q-7 16 -7 25q0 53 53 53q49 0 49 -52q0 -3 -9 -27zM251 806l-57 -77q-2 -13 -12.5 -22.5t-27.5 -9.5q-35 0 -37 34 q2 25 22 30l59 79q-6 17 5.5 25t29.5 8q17 0 27.5 -9t10.5 -25q0 -22 -20 -33z" />
<glyph unicode="&#x13a;" horiz-adv-x="189" d="M53 67v506q-9 20 -9 34q0 30 10 39.5t44 9.5q20 0 36.5 -12t16.5 -33q0 -22 -15 -44v-505q14 -11 14 -27q0 -14 -17 -27t-38 -13t-35.5 12.5t-14.5 32.5q0 9 8 27zM203 788l-57 -77q-2 -13 -12.5 -23t-26.5 -10q-36 0 -38 34q1 10 7 19.5t15 10.5l59 79q-6 17 5.5 25 t29.5 8q17 0 27.5 -9t10.5 -25q0 -23 -20 -32z" />
<glyph unicode="&#x13b;" horiz-adv-x="365" d="M146 566v-496l125 19q14 14 32 14q16 0 29.5 -11t13.5 -33q0 -24 -10.5 -37.5t-27.5 -13.5q-13 0 -28 5l-143 -23q-25 -5 -40 -5q-51 0 -51 42q0 25 14 35v505q-7 16 -7 25q0 53 53 53q50 0 50 -52zM140 -240q-23 0 -23 22q0 28 34 31q19 2 30.5 17t11.5 38q0 20 -13 26 q-41 -4 -41 30q0 27 30 27q33 0 55.5 -22.5t22.5 -60.5q0 -50 -34.5 -79t-72.5 -29z" />
<glyph unicode="&#x13c;" horiz-adv-x="189" d="M53 67v506q-9 20 -9 34q0 30 10 39.5t44 9.5q20 0 36.5 -12t16.5 -33q0 -22 -15 -44v-505q14 -11 14 -27q0 -14 -17 -27t-38 -13t-35.5 12.5t-14.5 32.5q0 9 8 27zM60 -232q-23 0 -23 22q0 28 34 31q19 2 30.5 17t11.5 38q0 20 -13 26q-40 -4 -40 29q0 28 30 28 q32 0 54.5 -22.5t22.5 -60.5q0 -50 -34.5 -79t-72.5 -29z" />
<glyph unicode="&#x13d;" horiz-adv-x="365" d="M146 566v-496l125 19q14 14 32 14q16 0 29.5 -11t13.5 -33q0 -24 -10.5 -37.5t-27.5 -13.5q-13 0 -28 5l-143 -23q-25 -5 -40 -5q-51 0 -51 42q0 25 14 35v505q-7 16 -7 25q0 53 53 53q50 0 50 -51q0 -1 -10 -28zM216 464q-24 0 -24 22q0 28 34 31q19 2 30.5 17t11.5 38 q0 20 -13 26q-41 -5 -41 29q0 28 31 28q32 0 54.5 -22.5t22.5 -60.5q0 -50 -34 -79t-72 -29z" />
<glyph unicode="&#x13e;" horiz-adv-x="189" d="M53 67v506q-9 20 -9 34q0 30 10 39.5t44 9.5q20 0 36.5 -12t16.5 -32q0 -23 -15 -45v-505q14 -11 14 -27q0 -14 -17 -27t-38 -13t-35.5 12.5t-14.5 32.5q0 9 8 27zM188 465q-24 0 -24 22q0 28 34 31q19 2 30.5 17t11.5 38q0 19 -13 25q-40 -4 -40 30q0 28 30 28 q32 0 54.5 -22.5t22.5 -60.5q0 -50 -34 -79t-72 -29z" />
<glyph unicode="&#x141;" horiz-adv-x="369" d="M252 359l-79 -53v-236l124 19q16 14 33 14q16 0 29.5 -11t13.5 -33q0 -25 -11 -38t-28 -13q-13 0 -28 5l-142 -23q-25 -5 -40 -5q-51 0 -51 42q0 25 14 35v192l-24 -19q-3 -17 -32 -17q-16 0 -26.5 10t-10.5 25q0 24 9 38t20 14q15 0 20 -1l44 29v234q-7 16 -7 25 q0 53 53 53q49 0 49 -52q0 -3 -9 -27v-181l51 36q1 8 11.5 15t22.5 7q18 0 30.5 -12.5t12.5 -30.5q0 -19 -16.5 -34t-32.5 -7z" />
<glyph unicode="&#x142;" horiz-adv-x="255" d="M86 67v205l-23 -21q-3 -23 -35 -23q-15 0 -26.5 10.5t-11.5 24.5q0 21 12.5 33.5t32.5 10.5l51 45v221q-9 20 -9 34q0 30 10 39.5t44 9.5q20 0 36.5 -12t16.5 -33q0 -22 -15 -44v-153l28 25q5 19 33 19q16 0 28 -11t12 -32q0 -18 -16.5 -27.5t-29.5 -5.5l-55 -49v-271 q14 -11 14 -27q0 -14 -17 -27t-38 -13t-35.5 12.5t-14.5 32.5q0 9 8 27z" />
<glyph unicode="&#x143;" horiz-adv-x="489" d="M60 67v501q-8 13 -8 29q0 20 13 34t36 14q30 0 41 -8.5t11 -27.5q0 -35 29 -102q25 -60 98 -175q51 -81 71 -130h1q-3 127 -3 385l-5 9q-5 10 -5 16q0 23 12.5 33.5t30.5 10.5q21 0 37.5 -9.5t16.5 -26.5q0 -12 -7 -31v-536q10 -14 10 -24q0 -18 -10.5 -26t-40.5 -8 q-20 0 -30 14t-19 43q-11 37 -42 98t-56 102q-84 133 -102 185l-2 1q3 -366 3 -371q9 -13 9 -27q0 -24 -10 -34.5t-34 -10.5q-58 0 -58 45q0 14 13 27zM339 789l-57 -77q-1 -13 -11.5 -23t-27.5 -10q-36 0 -38 35q2 25 23 30l59 78q-6 17 5.5 25t28.5 8t27.5 -9t10.5 -25 q0 -23 -20 -32z" />
<glyph unicode="&#x144;" horiz-adv-x="380" d="M140 279v-227q7 -8 7 -23q0 -17 -17.5 -25.5t-38.5 -8.5q-45 0 -45 32q0 15 11 27v167q-14 8 -14 32q0 23 14 56v77q-7 14 -7 31q0 14 17 26t36 12q47 0 47 -30q0 -19 -10 -31v-34q61 59 87 77t48 18q19 0 37.5 -18t18.5 -39v-340q6 -15 6 -23q0 -40 -52 -40 q-45 0 -45 36q0 11 8 24v288q0 4 -5.5 9.5t-10.5 5.5q-15 0 -92 -79zM292 606l-57 -77q-2 -14 -12.5 -23.5t-27.5 -9.5q-16 0 -26.5 9.5t-10.5 24.5q0 10 6.5 19.5t15.5 10.5l59 79q-6 18 5.5 26t28.5 8q18 0 28.5 -9.5t10.5 -25.5q0 -23 -20 -32z" />
<glyph unicode="&#x145;" horiz-adv-x="489" d="M60 67v501q-8 13 -8 29q0 20 13 34t36 14q30 0 41 -8.5t11 -27.5q0 -35 29 -102q25 -60 98 -175q51 -81 71 -130h1q-3 127 -3 385l-5 9q-5 10 -5 16q0 23 12.5 33.5t30.5 10.5q21 0 37.5 -9.5t16.5 -26.5q0 -12 -7 -31v-536q10 -14 10 -24q0 -18 -10.5 -26t-40.5 -8 q-20 0 -30 14t-19 43q-11 37 -42 98t-56 102q-84 133 -102 185l-2 1q3 -366 3 -371q9 -13 9 -27q0 -24 -10 -34.5t-34 -10.5q-58 0 -58 45q0 14 13 27zM201 -217q-24 0 -24 22q0 28 34 31q19 2 30.5 17t11.5 39q0 18 -13 25q-41 -4 -41 30q0 11 8 19.5t23 8.5q32 0 54.5 -23 t22.5 -61q0 -50 -34 -79t-72 -29z" />
<glyph unicode="&#x146;" horiz-adv-x="380" d="M140 279v-227q7 -8 7 -23q0 -17 -17.5 -25.5t-38.5 -8.5q-45 0 -45 32q0 15 11 27v167q-14 8 -14 32q0 23 14 56v77q-7 14 -7 31q0 14 17 26t36 12q47 0 47 -30q0 -19 -10 -31v-34q61 59 87 77t48 18q19 0 37.5 -18t18.5 -39v-340q6 -15 6 -23q0 -40 -52 -40 q-45 0 -45 36q0 11 8 24v288q0 4 -5.5 9.5t-10.5 5.5q-15 0 -92 -79zM147 -239q-24 0 -24 22q0 28 34 31q19 2 30.5 17t11.5 39q0 18 -13 25q-41 -4 -41 30q0 11 8 19.5t23 8.5q32 0 54.5 -23t22.5 -61q0 -50 -34 -79t-72 -29z" />
<glyph unicode="&#x147;" horiz-adv-x="489" d="M60 67v501q-8 13 -8 29q0 20 13 34t36 14q30 0 41 -8.5t11 -27.5q0 -35 29 -102q25 -60 98 -175q51 -81 71 -130h1q-3 127 -3 385l-5 9q-5 10 -5 16q0 23 12.5 33.5t30.5 10.5q21 0 37.5 -9.5t16.5 -26.5q0 -12 -7 -31v-536q10 -14 10 -24q0 -18 -10.5 -26t-40.5 -8 q-20 0 -30 14t-19 43q-11 37 -42 98t-56 102q-84 133 -102 185l-2 1q3 -366 3 -371q9 -13 9 -27q0 -24 -10 -34.5t-34 -10.5q-58 0 -58 45q0 14 13 27zM343 751l-62 -63q-10 -13 -36 -13q-20 0 -29 17l-36 61q-18 13 -18 28q0 36 36 36q21 0 33 -29l26 -44l42 46q2 11 11 19 t20 8q15 0 26 -8.5t11 -23.5t-24 -34z" />
<glyph unicode="&#x148;" horiz-adv-x="380" d="M140 279v-227q7 -8 7 -23q0 -17 -17.5 -25.5t-38.5 -8.5q-45 0 -45 32q0 15 11 27v167q-14 8 -14 32q0 23 14 56v77q-7 14 -7 31q0 14 17 26t36 12q47 0 47 -30q0 -19 -10 -31v-34q61 59 87 77t48 18q19 0 37.5 -18t18.5 -39v-340q6 -15 6 -23q0 -40 -52 -40 q-45 0 -45 36q0 11 8 24v288q0 4 -5.5 9.5t-10.5 5.5q-15 0 -92 -79zM289 563l-62 -63q-11 -12 -36 -12q-20 0 -29 17l-36 60q-18 13 -18 29q0 36 36 36q20 0 33 -30l26 -44l42 47q2 11 11 19t20 8q15 0 25.5 -9t10.5 -23q0 -17 -23 -35z" />
<glyph unicode="&#x14c;" horiz-adv-x="489" d="M282 674q75 0 124.5 -76t49.5 -234q0 -163 -77 -273t-188 -110q-59 0 -98.5 44t-53.5 100t-14 118q0 100 35.5 200t95.5 165.5t126 65.5zM270 598q-33 0 -70 -51.5t-61.5 -132.5t-24.5 -159q0 -79 23.5 -138.5t71.5 -59.5q59 0 108.5 89t49.5 215q0 116 -25.5 176.5 t-71.5 60.5zM330 735l-109 -16q-8 -4 -23 -4q-13 0 -22 11.5t-9 25.5q0 20 9.5 30t21.5 10q8 0 20 -5l101 15q12 7 23 7q14 0 23.5 -10.5t9.5 -27.5q0 -22 -15.5 -31t-29.5 -5z" />
<glyph unicode="&#x14d;" horiz-adv-x="389" d="M243 447q34 0 58.5 -19t36.5 -49.5t17.5 -60.5t5.5 -60q0 -56 -20 -106.5t-40 -75.5q-44 -56 -79.5 -75.5t-87.5 -19.5q-38 0 -72.5 41t-34.5 118q0 131 63 219t153 88zM223 372q-42 0 -77 -67t-35 -150q0 -44 12 -71.5t32 -27.5q42 0 80 52q42 60 42 146q0 118 -54 118z M278 519l-109 -16q-9 -4 -23 -4q-13 0 -22.5 11.5t-9.5 25.5q0 20 10 30t21 10q9 0 21 -5l100 15q14 7 24 7q13 0 23 -10.5t10 -27.5q0 -22 -16 -31t-29 -5z" />
<glyph unicode="&#x150;" horiz-adv-x="489" d="M282 674q75 0 124.5 -76t49.5 -234q0 -163 -77 -273t-188 -110q-59 0 -98.5 44t-53.5 100t-14 118q0 100 35.5 200t95.5 165.5t126 65.5zM270 598q-33 0 -70 -51.5t-61.5 -132.5t-24.5 -159q0 -79 23.5 -138.5t71.5 -59.5q59 0 108.5 89t49.5 215q0 116 -25.5 176.5 t-71.5 60.5zM446 831l-69 -91q3 -13 -10 -28.5t-33 -15.5q-33 0 -33 38q0 17 13 23l70 94q-7 14 4.5 29.5t33.5 15.5q15 0 27.5 -10t12.5 -30q0 -13 -16 -25zM315 831l-69 -91q3 -13 -10 -28.5t-32 -15.5q-34 0 -34 38q0 16 13 23l70 94q-6 14 5.5 29.5t33.5 15.5 q15 0 27.5 -10t12.5 -30q0 -14 -17 -25z" />
<glyph unicode="&#x151;" horiz-adv-x="389" d="M243 447q34 0 58.5 -19t36.5 -49.5t17.5 -60.5t5.5 -60q0 -56 -20 -106.5t-40 -75.5q-44 -56 -79.5 -75.5t-87.5 -19.5q-38 0 -72.5 41t-34.5 118q0 131 63 219t153 88zM223 372q-42 0 -77 -67t-35 -150q0 -44 12 -71.5t32 -27.5q42 0 80 52q42 60 42 146q0 118 -54 118z M400 618l-70 -92q3 -13 -9.5 -28.5t-32.5 -15.5q-33 0 -33 38q0 17 13 23l70 95q-7 14 4.5 29.5t33.5 15.5q14 0 27 -10.5t13 -29.5q0 -12 -16 -25zM269 618l-69 -92q3 -13 -9.5 -28.5t-32.5 -15.5q-33 0 -34 38q1 17 14 23l70 95q-7 14 4.5 29.5t34.5 15.5q14 0 26.5 -10.5 t12.5 -29.5q0 -14 -17 -25z" />
<glyph unicode="&#x152;" horiz-adv-x="789" d="M484 532v-166l170 21q4 0 12.5 6t12.5 6q21 0 31 -11.5t10 -28.5q0 -14 -2.5 -21.5t-14.5 -14.5t-35 -9l-184 -23v-214l233 31q23 3 38 -8t15 -36q0 -20 -13 -31t-30 -11q-3 0 -22 8l-218 -29q-2 0 -8 -5t-17.5 -9t-28.5 -4q-20 0 -32.5 10.5t-12.5 25.5q0 32 10 36l1 52 q-46 -66 -95 -96t-124 -30q-69 0 -112 75.5t-43 195.5q0 175 86 297.5t193 122.5q57 0 96 -49l1 2q1 15 14 25t29 10q27 0 39 -17t4 -35l218 34q21 3 35 -7t14 -31q0 -17 -11 -31.5t-28 -14.5q-4 0 -17.5 3t-19.5 2zM218 57q58 0 109 54t71 139v258q-11 38 -41.5 63.5 t-62.5 25.5q-72 0 -126 -100.5t-54 -237.5q0 -202 104 -202z" />
<glyph unicode="&#x153;" horiz-adv-x="620" d="M240 442q47 0 77 -34.5t29 -79.5q20 45 60 79.5t77 34.5q56 0 84.5 -43t28.5 -79q0 -18 -13.5 -38.5t-37.5 -26.5l-180 -52q-12 -41 -12 -73q0 -30 13.5 -50t38.5 -20q28 0 59.5 24t53.5 63q-5 15 4.5 26t26.5 11q25 0 35.5 -12.5t10.5 -24.5q0 -11 -19 -38 q-81 -124 -184 -124q-36 0 -67 25t-35 59q-19 -40 -61 -63t-88 -23q-56 0 -85 41.5t-29 112.5q0 127 60 216t153 89zM231 367q-47 0 -83.5 -63.5t-36.5 -157.5q0 -46 12 -67t39 -21q56 0 90 65.5t34 136.5q0 107 -55 107zM388 272l137 40q-1 23 -13.5 39t-32.5 16 q-21 0 -46.5 -27.5t-44.5 -67.5z" />
<glyph unicode="&#x154;" horiz-adv-x="507" d="M51 47q0 5 13 31v400q-3 -2 -8 -2q-7 0 -13.5 9t-6.5 27q0 43 28 52v18q-6 14 -6 28q0 18 16 30.5t37 12.5q19 0 31.5 -14.5t5.5 -35.5v-10q98 50 194 50q52 0 83.5 -28t31.5 -76q0 -67 -63.5 -127t-189.5 -86l255 -243q24 9 42 -6t18 -32q0 -26 -18 -41.5t-41 -15.5 q-13 0 -25.5 7.5t-18.5 20.5l-268 264v-206q10 -23 10 -33q0 -46 -68 -46q-20 0 -29.5 15.5t-9.5 36.5zM148 521v-147q220 62 220 155q0 18 -13 28.5t-34 10.5q-87 0 -173 -47zM355 806l-58 -77q-1 -13 -11.5 -22.5t-27.5 -9.5t-27 9.5t-10 24.5q0 10 6.5 19t15.5 11l59 79 q-6 17 5.5 25t28.5 8t27.5 -9t10.5 -25q0 -23 -19 -33z" />
<glyph unicode="&#x155;" horiz-adv-x="308" d="M53 57v324l-7 25q0 13 15.5 23t37.5 10q19 0 31 -8.5t12 -21.5q0 -15 -6 -22v-29h1q74 79 114 79q23 0 39 -28t16 -92q0 -43 -45 -43q-41 0 -41 26q0 13 5 26q0 21 -10 21q-4 0 -16 -10t-29.5 -30.5t-33.5 -45.5v-195q12 -10 12 -27q0 -23 -14 -33.5t-52 -10.5 q-42 0 -42 39q0 12 13 23zM257 604l-57 -77q-1 -13 -11.5 -23t-27.5 -10q-36 0 -38 35q1 10 7 19t15 11l60 79q-6 17 5.5 25t28.5 8t27.5 -9t10.5 -25q0 -22 -20 -33z" />
<glyph unicode="&#x156;" horiz-adv-x="507" d="M51 47q0 5 13 31v400q-3 -2 -8 -2q-7 0 -13.5 9t-6.5 27q0 43 28 52v18q-6 14 -6 28q0 18 16 30.5t37 12.5q19 0 31.5 -14.5t5.5 -35.5v-10q98 50 194 50q52 0 83.5 -28t31.5 -76q0 -67 -63.5 -127t-188.5 -86l254 -243q24 9 42 -6t18 -32q0 -26 -18 -41.5t-41 -15.5 q-13 0 -25.5 7.5t-18.5 20.5l-268 264v-206q10 -23 10 -33q0 -46 -68 -46q-20 0 -29.5 15.5t-9.5 36.5zM148 521v-147q220 62 220 155q0 18 -13 28.5t-34 10.5q-87 0 -173 -47zM210 -217q-24 0 -24 22q0 28 34 31q19 2 30.5 17t11.5 39q0 18 -13 25q-41 -4 -41 30 q0 11 8 19.5t22 8.5q33 0 55.5 -23t22.5 -61q0 -50 -34 -79t-72 -29z" />
<glyph unicode="&#x157;" horiz-adv-x="308" d="M53 57v324l-7 25q0 13 15.5 23t37.5 10q19 0 31 -8.5t12 -21.5q0 -15 -6 -22v-29h1q74 79 114 79q23 0 39 -28t16 -92q0 -43 -45 -43q-41 0 -41 26q0 13 5 26q0 21 -10 21q-4 0 -16 -10t-29.5 -30.5t-33.5 -45.5v-195q12 -10 12 -27q0 -23 -14 -33.5t-52 -10.5 q-42 0 -42 39q0 12 13 23zM63 -228q-24 0 -24 22q0 28 34 31q19 2 30.5 17t11.5 39q0 19 -13 25q-40 -4 -40 30q0 12 7.5 20t22.5 8q32 0 54.5 -23t22.5 -61q0 -50 -34 -79t-72 -29z" />
<glyph unicode="&#x158;" horiz-adv-x="507" d="M51 47q0 5 13 31v400q-3 -2 -8 -2q-7 0 -13.5 9t-6.5 27q0 43 28 52v18q-6 14 -6 28q0 18 16 30.5t37 12.5q19 0 31.5 -14.5t5.5 -35.5v-10q98 50 194 50q52 0 83.5 -28t31.5 -76q0 -67 -63.5 -127t-189.5 -86l255 -243q24 9 42 -6t18 -32q0 -26 -18 -41.5t-41 -15.5 q-13 0 -25.5 7.5t-18.5 20.5l-268 264v-206q10 -23 10 -33q0 -46 -68 -46q-20 0 -29.5 15.5t-9.5 36.5zM148 521v-147q220 62 220 155q0 18 -13 28.5t-34 10.5q-87 0 -173 -47zM350 755l-62 -63q-10 -13 -36 -13q-20 0 -29 17l-36 61q-18 10 -18 28q0 36 36 36q19 0 32 -29 l27 -44l42 46q2 11 11 19t20 8q15 0 25.5 -8.5t10.5 -23.5q0 -19 -23 -34z" />
<glyph unicode="&#x159;" horiz-adv-x="308" d="M53 57v324l-7 25q0 13 15.5 23t37.5 10q19 0 31 -8.5t12 -21.5q0 -15 -6 -22v-29h1q74 79 114 79q23 0 39 -28t16 -92q0 -43 -45 -43q-41 0 -41 26q0 13 5 26q0 21 -10 21q-4 0 -16 -10t-29.5 -30.5t-33.5 -45.5v-195q12 -10 12 -27q0 -23 -14 -33.5t-52 -10.5 q-42 0 -42 39q0 12 13 23zM254 552l-62 -63q-10 -13 -36 -13q-20 0 -29 17l-36 61q-18 10 -18 28q0 36 36 36q20 0 32 -29l27 -44l42 46q2 11 11 19t20 8q15 0 25.5 -8.5t10.5 -23.5q0 -19 -23 -34z" />
<glyph unicode="&#x15a;" horiz-adv-x="498" d="M285 648q47 0 87.5 -34t40.5 -65q0 -41 -39 -41q-53 0 -51 36q-14 29 -58 29q-53 0 -98.5 -49.5t-45.5 -106.5q0 -52 35 -52q24 0 92 21q64 22 109 22q51 0 82.5 -34t31.5 -97q0 -88 -35 -143q-41 -67 -117.5 -108t-146.5 -41q-67 0 -103 45.5t-36 81.5q0 21 14 38t35 17 q11 0 19 -7t11 -14.5t7 -22.5t6 -19q16 -44 55 -44q46 0 99 31.5t81 77.5q22 34 22 104q0 58 -45 58q-32 0 -96 -22q-61 -21 -106 -21q-47 0 -75 28t-28 90q0 87 75.5 164.5t177.5 77.5zM350 806l-56 -77q-2 -13 -12.5 -22.5t-27.5 -9.5q-35 0 -37 34q2 25 22 30l59 79 q-6 17 5.5 25t28.5 8t27.5 -9t10.5 -25q0 -22 -20 -33z" />
<glyph unicode="&#x15b;" horiz-adv-x="399" d="M255 455q33 0 58 -14t25 -39q0 -37 -35 -37q-12 0 -19 10q-5 9 -28 9q-60 0 -98 -31.5t-38 -66.5q0 -28 21 -28q8 0 19 3.5t25.5 9.5l21.5 9q61 22 79 22q40 0 65 -27.5t25 -74.5q0 -45 -18 -82t-44 -60t-57.5 -39.5t-57 -23t-43.5 -6.5q-41 0 -76 23t-35 55 q0 23 12 39.5t35 16.5q16 0 24.5 -9t8.5 -18q0 -8 -4 -16q11 -19 40 -19q37 0 84.5 34.5t47.5 88.5q0 43 -29 43q-10 0 -20 -3t-24 -9.5t-22 -9.5q-57 -22 -88 -22q-34 0 -53.5 27.5t-19.5 65.5q0 70 69.5 124.5t148.5 54.5zM301 604l-57 -77q-1 -13 -11.5 -23t-27.5 -10 q-36 0 -38 35q2 25 23 30l59 79q-6 17 5.5 25t28.5 8t27.5 -9t10.5 -25q0 -22 -20 -33z" />
<glyph unicode="&#x15e;" horiz-adv-x="498" d="M258 -12l-12 -25q29 1 46.5 -19t17.5 -55q0 -44 -28 -74t-77 -30q-20 0 -35 13q-8 -6 -14 -6q-8 0 -15 10.5t-7 23.5q0 14 10 26t20 12q6 0 11.5 -4.5t5.5 -10.5q14 -8 25 -8q22 0 36.5 12.5t14.5 33.5q0 28 -21 28q-2 0 -12 -6q-4 -6 -23 -6q-11 0 -17.5 7t-6.5 17 q0 16 12 26l20 35q-12 -3 -36 -3q-36 0 -65 15t-44.5 37t-23 41.5t-7.5 33.5q0 21 14 38t35 17q11 0 19 -7t11 -14.5t7 -22.5t6 -19q16 -44 55 -44q46 0 99 31.5t81 77.5q22 34 22 104q0 58 -46 58q-31 0 -95 -22q-61 -21 -106 -21q-47 0 -75 28t-28 90q0 87 75.5 164.5 t176.5 77.5h1q47 0 87.5 -34t40.5 -65q0 -41 -39 -41q-53 0 -51 36q-14 29 -58 29q-53 0 -98.5 -49.5t-45.5 -106.5q0 -52 35 -52q24 0 93 21q63 22 108 22q51 0 82.5 -34t31.5 -97q0 -86 -35 -143q-49 -80 -148 -122q-22 -10 -30 -24z" />
<glyph unicode="&#x15f;" horiz-adv-x="399" d="M231 6l-20 -40q29 1 46.5 -19t17.5 -55q0 -44 -28 -74t-77 -30q-20 0 -35 13q-8 -6 -14 -6q-8 0 -15 10.5t-7 23.5q0 14 10 26t20 12q6 0 11.5 -4.5t5.5 -10.5q14 -8 25 -8q22 0 36.5 12.5t14.5 33.5q0 28 -21 28q-2 0 -12 -6q-5 -6 -23 -6q-11 0 -17.5 7t-6.5 17 q0 17 12 26l20 34q-6 -1 -18 -1q-41 0 -76 23t-35 55q0 23 12 39.5t35 16.5q16 0 24.5 -9t8.5 -18q0 -8 -4 -16q11 -19 40 -19q37 0 84.5 34.5t47.5 88.5q0 43 -29 43q-10 0 -20 -3t-24 -9.5t-22 -9.5q-57 -22 -88 -22q-34 0 -53.5 27.5t-19.5 65.5q0 70 69.5 124.5 t147.5 54.5h1q33 0 58 -14t25 -39q0 -37 -35 -37q-12 0 -19 10q-5 9 -28 9q-60 0 -98 -31.5t-38 -66.5q0 -28 21 -28q8 0 19 3.5t25.5 9.5l21.5 9q61 22 79 22q40 0 65 -27.5t25 -74.5q0 -74 -43 -123t-102 -71z" />
<glyph unicode="&#x160;" horiz-adv-x="498" d="M285 648q47 0 87.5 -34t40.5 -65q0 -41 -39 -41q-53 0 -51 36q-14 29 -58 29q-53 0 -98.5 -49.5t-45.5 -106.5q0 -52 35 -52q24 0 92 21q64 22 109 22q51 0 82.5 -34t31.5 -97q0 -88 -35 -143q-41 -67 -117.5 -108t-146.5 -41q-67 0 -103 45.5t-36 81.5q0 21 14 38t35 17 q11 0 19 -7t11 -14.5t7 -22.5t6 -19q16 -44 55 -44q46 0 99 31.5t81 77.5q22 34 22 104q0 58 -45 58q-32 0 -96 -22q-61 -21 -106 -21q-47 0 -75 28t-28 90q0 87 75.5 164.5t177.5 77.5zM346 755l-61 -63q-12 -13 -36 -13q-20 0 -29 17l-37 61q-17 11 -17 28q0 36 35 36 q20 0 33 -29l26 -44l42 46q2 11 11 19t20 8q15 0 26 -8.5t11 -23.5q0 -18 -24 -34z" />
<glyph unicode="&#x161;" horiz-adv-x="399" d="M255 455q33 0 58 -14t25 -39q0 -37 -35 -37q-12 0 -19 10q-5 9 -28 9q-60 0 -98 -31.5t-38 -66.5q0 -28 21 -28q8 0 19 3.5t25.5 9.5l21.5 9q61 22 79 22q40 0 65 -27.5t25 -74.5q0 -45 -18 -82t-44 -60t-57.5 -39.5t-57 -23t-43.5 -6.5q-41 0 -76 23t-35 55 q0 23 12 39.5t35 16.5q16 0 24.5 -9t8.5 -18q0 -8 -4 -16q11 -19 40 -19q37 0 84.5 34.5t47.5 88.5q0 43 -29 43q-10 0 -20 -3t-24 -9.5t-22 -9.5q-57 -22 -88 -22q-34 0 -53.5 27.5t-19.5 65.5q0 70 69.5 124.5t148.5 54.5zM298 558l-62 -63q-10 -13 -36 -13q-20 0 -29 17 l-36 61q-18 12 -18 28q0 36 36 36q21 0 33 -29l26 -44l42 46q2 11 11 19t20 8q15 0 26 -8.5t11 -23.5t-24 -34z" />
<glyph unicode="&#x162;" horiz-adv-x="382" d="M236 555v-489q9 -15 9 -25q0 -46 -60 -46q-41 0 -41 40q0 22 6 34v473l-80 -20q-15 -11 -31 -11q-19 0 -30.5 11.5t-11.5 29.5q0 20 11 34t26 14q14 0 26 -5l96 23q8 10 30.5 14.5t35.5 -1.5l103 22q17 7 30 7q16 0 27 -11t11 -34q0 -18 -11 -32t-27 -14q-15 0 -29 7z M148 -239q-22 0 -24 22q0 28 34 31q19 2 30.5 17t11.5 39q0 18 -13 25q-40 -4 -40 30q0 12 7.5 20t22.5 8q32 0 54.5 -23t22.5 -61q0 -50 -34 -79t-72 -29z" />
<glyph unicode="&#x163;" horiz-adv-x="368" d="M100 436v78q-6 6 -6 22q0 34 57 34q42 0 42 -28q0 -14 -10 -24v-66l83 17q8 8 17 8q16 0 25 -12t9 -25q0 -47 -31 -47q-13 0 -16 5l-87 -17v-283q0 -23 11 -23q9 0 41 30.5t50 61.5q-1 17 8.5 27.5t25.5 10.5q27 0 36.5 -11t9.5 -32q0 -18 -35.5 -60t-85 -78.5 t-82.5 -36.5q-28 0 -45 21.5t-17 51.5v303l-40 -7q-6 -6 -20 -9q-38 3 -38 46q0 17 11 28.5t27 11.5q10 0 17 -5zM142 -239q-24 0 -24 22q0 28 34 31q19 2 30.5 17t11.5 39q0 18 -13 25q-41 -4 -41 30q0 11 8 19.5t22 8.5q33 0 55.5 -23t22.5 -61q0 -50 -34.5 -79t-71.5 -29 z" />
<glyph unicode="&#x164;" horiz-adv-x="382" d="M236 555v-489q9 -15 9 -25q0 -46 -60 -46q-41 0 -41 40q0 22 6 34v473l-80 -20q-15 -11 -31 -11q-19 0 -30.5 11.5t-11.5 29.5q0 20 11 34t26 14q14 0 26 -5l96 23q8 10 30.5 14.5t35.5 -1.5l103 22q17 7 30 7q16 0 27 -11t11 -34q0 -18 -11 -32t-27 -14q-15 0 -29 7z M289 751l-62 -63q-10 -13 -36 -13q-20 0 -29 17l-36 61q-18 11 -18 28q0 16 9.5 26t26.5 10q20 0 33 -29l26 -44l42 46q2 11 11 19t20 8q15 0 25.5 -8.5t10.5 -23.5q0 -19 -23 -34z" />
<glyph unicode="&#x165;" horiz-adv-x="368" d="M100 436v79q-6 6 -6 22q0 33 57 33q42 0 42 -28q0 -13 -10 -24v-66l82 17q10 8 17 8q17 0 26 -12t9 -25q0 -47 -32 -47q-13 0 -15 5l-87 -17v-283q0 -23 11 -23q9 0 41 30.5t50 61.5q-1 17 8.5 27.5t25.5 10.5q27 0 36.5 -11t9.5 -32q0 -18 -35.5 -60t-85 -78.5 t-82.5 -36.5q-28 0 -45 21.5t-17 51.5v303l-40 -7q-6 -6 -20 -9q-38 3 -38 46q0 17 11 28.5t27 11.5q10 0 17 -5zM258 525q-23 0 -23 22q0 28 34 31q18 2 29.5 17t11.5 38q0 19 -13 26q-40 -4 -40 30q0 27 30 27q32 0 54.5 -22.5t22.5 -60.5q0 -50 -34 -79t-72 -29z" />
<glyph unicode="&#x16a;" horiz-adv-x="500" d="M200 -17q-77 0 -110 41.5t-34 95.5v458q-12 23 1 42.5t39 19.5q42 0 42 -54v-474q6 -20 22.5 -34t39.5 -14q68 0 109 37.5t41 66.5v414q-9 9 -9 23q0 19 15.5 31.5t39.5 12.5q16 0 28 -9.5t12 -28.5q0 -14 -4 -20v-434q0 -16 -12.5 -46t-30.5 -48q-83 -80 -189 -80z M309 711l-109 -16q-9 -4 -23 -4q-13 0 -22.5 11.5t-9.5 25.5q0 20 10 30t21 10q10 0 20 -5l101 15q14 7 24 7q14 0 23.5 -10.5t9.5 -27.5q0 -22 -15.5 -31t-29.5 -5z" />
<glyph unicode="&#x16b;" horiz-adv-x="380" d="M136 377v-280q0 -8 6.5 -16.5t13.5 -8.5q15 0 41.5 24.5t46.5 55.5v231q-6 12 -6 20q0 32 42 32q13 0 21 -1.5t15.5 -6t10 -15.5t0.5 -29v-327q8 -12 8 -25q0 -36 -60 -36q-36 0 -36 28q0 8 7 22v19q-65 -82 -126 -81q-25 1 -46 22.5t-21 50.5v321q0 2 -2.5 9t-2.5 12 q0 40 53 40q17 0 29.5 -9.5t12.5 -28.5q0 -12 -7 -23zM251 525l-109 -16q-8 -4 -23 -4q-13 0 -22 11.5t-9 25.5q0 20 9.5 30t21.5 10q7 0 20 -5l100 15q14 7 24 7q13 0 23 -10.5t10 -27.5q0 -22 -16 -31t-29 -5z" />
<glyph unicode="&#x16e;" horiz-adv-x="500" d="M200 -17q-77 0 -110 41.5t-34 95.5v458q-12 23 1 42.5t39 19.5q42 0 42 -54v-474q6 -20 22.5 -34t39.5 -14q68 0 109 37.5t41 66.5v414q-9 9 -9 23q0 19 15.5 31.5t39.5 12.5q16 0 28 -9.5t12 -28.5q0 -14 -4 -20v-434q0 -16 -12.5 -46t-30.5 -48q-83 -80 -189 -80z M232 659h-2q-27 0 -45 23.5t-18 59.5q0 31 32 55t55 24q31 0 51.5 -21t20.5 -60q0 -36 -31 -58.5t-63 -22.5zM238 706q13 0 26 9t13 23q0 36 -20 36q-15 0 -28 -10t-13 -27q0 -31 22 -31z" />
<glyph unicode="&#x16f;" horiz-adv-x="380" d="M136 377v-280q0 -8 6.5 -16.5t13.5 -8.5q15 0 41.5 24.5t46.5 55.5v231q-6 12 -6 20q0 32 42 32q13 0 21 -1.5t15.5 -6t10 -15.5t0.5 -29v-327q8 -12 8 -25q0 -36 -60 -36q-36 0 -36 28q0 8 7 22v19q-65 -82 -126 -81q-25 1 -46 22.5t-21 50.5v321q0 2 -2.5 9t-2.5 12 q0 40 53 40q17 0 29.5 -9.5t12.5 -28.5q0 -12 -7 -23zM189 472h-2q-27 0 -45 23.5t-18 59.5q0 31 32 55t55 24q31 0 51.5 -21t20.5 -60q0 -36 -31 -58.5t-63 -22.5zM195 519q13 0 26 9t13 23q0 36 -20 36q-15 0 -28 -10t-13 -27q0 -31 22 -31z" />
<glyph unicode="&#x170;" horiz-adv-x="500" d="M200 -17q-77 0 -110 41.5t-34 95.5v458q-12 23 1 42.5t39 19.5q42 0 42 -54v-474q6 -20 22.5 -34t39.5 -14q68 0 109 37.5t41 66.5v414q-9 9 -9 23q0 19 15.5 31.5t39.5 12.5q16 0 28 -9.5t12 -28.5q0 -14 -4 -20v-434q0 -16 -12.5 -46t-30.5 -48q-83 -80 -189 -80z M399 796l-70 -90q3 -13 -9.5 -28.5t-32.5 -15.5q-33 0 -34 38q2 17 13 23l71 94q-7 14 4 29.5t34 15.5q14 0 27 -10.5t13 -29.5q0 -12 -16 -26zM268 796l-70 -90q3 -14 -9.5 -29t-32.5 -15q-34 0 -34 38q0 15 13 23l71 94q-7 14 4.5 29.5t34.5 15.5q14 0 26.5 -10.5 t12.5 -29.5q0 -13 -16 -26z" />
<glyph unicode="&#x171;" horiz-adv-x="380" d="M136 377v-280q0 -8 6.5 -16.5t13.5 -8.5q15 0 41.5 24.5t46.5 55.5v231q-6 12 -6 20q0 32 42 32q13 0 21 -1.5t15.5 -6t10 -15.5t0.5 -29v-327q8 -12 8 -25q0 -36 -60 -36q-36 0 -36 28q0 8 7 22v19q-65 -82 -126 -81q-25 1 -46 22.5t-21 50.5v321q0 2 -2.5 9t-2.5 12 q0 40 53 40q17 0 29.5 -9.5t12.5 -28.5q0 -12 -7 -23zM358 606l-69 -92q3 -13 -10 -28.5t-32 -15.5q-33 0 -34 38q1 18 13 23l70 95q-7 14 4.5 29.5t34.5 15.5q14 0 26.5 -10.5t12.5 -29.5q0 -13 -16 -25zM227 606l-69 -92q3 -13 -9.5 -28.5t-31.5 -15.5q-34 0 -35 38 q1 17 14 23l70 95q-6 15 5 30t34 15q14 0 26.5 -10.5t12.5 -29.5q0 -14 -17 -25z" />
<glyph unicode="&#x172;" horiz-adv-x="500" d="M284 -170q-39 0 -64 21t-25 63q0 36 17 70q-2 0 -6 -0.5t-5 -0.5q-78 0 -111.5 41.5t-33.5 95.5v458q-12 23 1 42.5t39 19.5q42 0 42 -54v-474q6 -20 22.5 -34t39.5 -14q68 0 109 37.5t41 66.5v414q-9 9 -9 23q0 19 15.5 31.5t39.5 12.5q16 0 28 -9.5t12 -28.5 q0 -14 -4 -20v-434q0 -16 -12.5 -46t-30.5 -48q-37 -35 -72 -52q-32 -16 -46 -36q-17 -25 -17 -57q0 -16 10.5 -25t24.5 -9q32 0 37 20q-3 3 -3 10q0 18 30 18q14 0 23 -9.5t9 -24.5q0 -25 -27 -46.5t-74 -21.5z" />
<glyph unicode="&#x173;" horiz-adv-x="380" d="M306 -180q-43 0 -68 23t-25 68t30 97q-8 12 3 37v19q-65 -82 -126 -81q-25 1 -46 22.5t-21 50.5v321q0 2 -2.5 9t-2.5 12q0 40 53 40q17 0 29.5 -9.5t12.5 -28.5q0 -12 -7 -23v-281q0 -7 6.5 -15.5t13.5 -8.5q15 0 41.5 24.5t46.5 55.5v231q-6 12 -6 20q0 32 42 32 q13 0 21 -1.5t15.5 -6t10 -15.5t0.5 -29v-327q8 -12 8 -25q0 -17 -12 -26q-51 -33 -51 -91q0 -19 11.5 -29.5t27.5 -10.5t27 9t13 20q-3 5 -3 10q0 18 31 18q14 0 22.5 -9t8.5 -25q0 -27 -28.5 -52t-75.5 -25z" />
<glyph unicode="&#x178;" horiz-adv-x="467" d="M190 80v243q-20 50 -79.5 123.5t-82.5 118.5q-28 14 -28 44q0 20 19 33t39 14q18 1 30.5 -12.5t10.5 -32.5q11 -32 66 -106.5t69 -104.5h2q17 31 63 87t66 90q17 31 18 34q6 22 15.5 33.5t30.5 11.5q19 0 32 -10t13 -29q0 -16 -24 -55q-7 -11 -35 -50q-12 -17 -67 -83 t-72 -107v-253q12 -12 12 -27q0 -19 -15 -33t-44 -14q-28 0 -39 9t-11 37q0 29 11 39zM161 682q-18 0 -28 19t-10 37q0 56 49 56q45 0 45 -41q0 -38 -10.5 -54.5t-45.5 -16.5zM309 684q-42 0 -42 52q0 58 43 58q16 0 33.5 -12.5t17.5 -35.5q0 -62 -52 -62z" />
<glyph unicode="&#x179;" horiz-adv-x="457" d="M332 577l-180 -13q-15 -45 -53 -45q-20 0 -30 12.5t-10 27.5q0 39 18 66.5t46 27.5q19 0 28 -11l214 12q8 0 19 2t17 2q16 0 28.5 -8.5t12.5 -21.5q0 -28 -29 -72l-298 -487l217 9q0 24 14.5 38.5t33.5 14.5q17 0 32.5 -12.5t15.5 -42.5q0 -37 -14.5 -57t-32.5 -20 q-3 0 -40.5 0.5t-84.5 0.5q-1 0 -105 -4q-21 -1 -40.5 -2.5t-28 -2t-15.5 -0.5q-53 0 -53 49q0 22 17 44zM333 793l-57 -76q-1 -14 -11.5 -23.5t-27.5 -9.5q-16 0 -26.5 9.5t-10.5 24.5q0 10 6.5 19.5t15.5 10.5l59 79q-6 17 5.5 25t28.5 8t27.5 -9t10.5 -25q0 -22 -20 -33z " />
<glyph unicode="&#x17a;" horiz-adv-x="358" d="M32 62l197 291h-126q-1 -27 -11 -40.5t-25 -13.5q-37 0 -37 41q0 46 13.5 65.5t41.5 19.5h175q17 14 42 14q15 0 27 -10t12 -24q0 -25 -13 -44l-200 -289h132q9 47 42 47q34 0 34 -56q0 -37 -14 -54t-33 -17q-17 0 -29 8h-173q-13 -8 -33 -8q-44 0 -44 31q0 33 22 39z M282 602l-57 -76q-2 -13 -12.5 -23t-26.5 -10q-36 0 -38 34q1 10 7 19.5t15 10.5l59 79q-6 17 5.5 25t28.5 8t27.5 -9t10.5 -25q0 -23 -19 -33z" />
<glyph unicode="&#x17b;" horiz-adv-x="457" d="M332 577l-180 -13q-15 -45 -53 -45q-20 0 -30 12.5t-10 27.5q0 39 18 66.5t46 27.5q19 0 28 -11l214 12q8 0 19 2t17 2q16 0 28.5 -8.5t12.5 -21.5q0 -28 -29 -72l-298 -487l217 9q0 24 14.5 38.5t33.5 14.5q17 0 32.5 -12.5t15.5 -42.5q0 -37 -14.5 -57t-32.5 -20 q-3 0 -40.5 0.5t-84.5 0.5q-1 0 -105 -4q-21 -1 -40.5 -2.5t-28 -2t-15.5 -0.5q-53 0 -53 49q0 22 17 44zM239 675q-40 0 -40 49q0 37 15 62t42 25q18 0 29 -12t11 -33q0 -41 -17 -66t-40 -25z" />
<glyph unicode="&#x17c;" horiz-adv-x="358" d="M32 62l197 291h-126q-1 -27 -11 -40.5t-25 -13.5q-37 0 -37 41q0 46 13.5 65.5t41.5 19.5h175q17 14 42 14q15 0 27 -10t12 -24q0 -25 -13 -44l-200 -289h132q9 47 42 47q34 0 34 -56q0 -37 -14 -54t-33 -17q-17 0 -29 8h-173q-13 -8 -33 -8q-44 0 -44 31q0 33 22 39z M178 500q-40 0 -40 49q0 37 15 62t42 25q18 0 29 -12t11 -33q0 -41 -17 -66t-40 -25z" />
<glyph unicode="&#x17d;" horiz-adv-x="457" d="M332 577l-180 -13q-15 -45 -53 -45q-20 0 -30 12.5t-10 27.5q0 39 18 66.5t46 27.5q19 0 28 -11l214 12q8 0 19 2t17 2q16 0 28.5 -8.5t12.5 -21.5q0 -28 -29 -72l-298 -487l217 9q0 24 14.5 38.5t33.5 14.5q17 0 32.5 -12.5t15.5 -42.5q0 -37 -14.5 -57t-32.5 -20 q-3 0 -40.5 0.5t-84.5 0.5q-1 0 -105 -4q-21 -1 -40.5 -2.5t-28 -2t-15.5 -0.5q-53 0 -53 49q0 22 17 44zM334 756l-62 -63q-10 -13 -36 -13q-20 0 -29 17l-36 61q-18 11 -18 28q0 36 36 36q21 0 32 -29l27 -44l42 46q2 11 11 19t20 8q15 0 25.5 -9t10.5 -23q0 -19 -23 -34z " />
<glyph unicode="&#x17e;" horiz-adv-x="358" d="M32 62l197 291h-126q-1 -27 -11 -40.5t-25 -13.5q-37 0 -37 41q0 46 13.5 65.5t41.5 19.5h175q17 14 42 14q15 0 27 -10t12 -24q0 -25 -13 -44l-200 -289h132q9 47 42 47q34 0 34 -56q0 -37 -14 -54t-33 -17q-17 0 -29 8h-173q-13 -8 -33 -8q-44 0 -44 31q0 33 22 39z M275 553l-62 -63q-10 -13 -36 -13q-20 0 -29 17l-36 61q-18 11 -18 28q0 16 9.5 26t26.5 10q21 0 33 -29l26 -44l42 46q2 11 11 19t20 8q15 0 25.5 -8.5t10.5 -23.5q0 -19 -23 -34z" />
<glyph unicode="&#x192;" horiz-adv-x="518" d="M226 385l73 5q5 12 24 12q15 0 24.5 -11t9.5 -25q0 -23 -11 -39t-30 -16q-7 0 -19 7l-82 -5q-30 -206 -53 -300.5t-53.5 -133.5t-84.5 -38q-24 0 -39.5 4.5t-25 15.5t-13 17t-8.5 24.5t-6 22.5q-14 8 -14 31q0 45 43 45q19 1 31 -7.5t11 -20.5q0 -14 -5 -19 q1 -19 7 -28.5t22 -9.5q14 0 23.5 12t21.5 57.5t24 116t33 206.5l-52 -4q-9 -7 -21 -7q-13 0 -21 13t-8 32q0 14 11 25t25 11q11 0 18 -3l58 3q12 77 28 133t32 86t36.5 47t36 21.5t35.5 4.5q44 0 65.5 -31.5t21.5 -55.5q0 -17 -10 -30.5t-25 -13.5q-20 0 -28 7t-6 19 q3 30 -27 30q-42 0 -72 -210z" />
<glyph unicode="&#x218;" horiz-adv-x="498" d="M285 648q47 0 87.5 -34t40.5 -65q0 -41 -39 -41q-53 0 -51 36q-14 29 -58 29q-53 0 -98.5 -49.5t-45.5 -106.5q0 -52 35 -52q24 0 92 21q64 22 109 22q51 0 82.5 -34t31.5 -97q0 -88 -35 -143q-41 -67 -117.5 -108t-146.5 -41q-67 0 -103 45.5t-36 81.5q0 21 14 38t35 17 q11 0 19 -7t11 -14.5t7 -22.5t6 -19q16 -44 55 -44q46 0 99 31.5t81 77.5q22 34 22 104q0 58 -46 58q-31 0 -95 -22q-61 -21 -106 -21q-47 0 -75 28t-28 90q0 87 75.5 164.5t177.5 77.5zM206 -240q-24 0 -24 22q0 28 34 31q19 2 30.5 17t11.5 38q0 20 -13 26q-40 -5 -40 29 q0 28 30 28q32 0 54.5 -22.5t22.5 -60.5q0 -50 -34 -79t-72 -29z" />
<glyph unicode="&#x219;" horiz-adv-x="399" d="M254 455q33 0 58.5 -14t25.5 -39q0 -37 -35 -37q-14 0 -19 10q-5 9 -28 9q-60 0 -98 -31.5t-38 -66.5q0 -28 21 -28q8 0 19 3.5t25.5 9.5l21.5 9q61 22 79 22q40 0 65 -27.5t25 -74.5q0 -45 -18 -82t-44 -60t-57.5 -39.5t-57 -23t-43.5 -6.5q-41 0 -76 23t-35 55 q0 23 12 39.5t35 16.5q16 0 24.5 -9t8.5 -18q0 -8 -4 -16q11 -19 40 -19q37 0 84.5 34.5t47.5 88.5q0 43 -29 43q-10 0 -20.5 -3t-24.5 -9.5t-21 -9.5q-57 -22 -88 -22q-34 0 -53.5 27.5t-19.5 65.5q0 70 69.5 124.5t147.5 54.5zM158 -239q-24 0 -24 22q0 28 34 31 q19 2 30.5 17t11.5 39q0 18 -13 25q-40 -4 -40 30q0 12 7.5 20t22.5 8q32 0 54.5 -23t22.5 -61q0 -50 -34 -79t-72 -29z" />
<glyph unicode="&#x21a;" horiz-adv-x="382" d="M236 555v-489q9 -15 9 -25q0 -46 -60 -46q-41 0 -41 40q0 22 6 34v473l-80 -20q-15 -11 -31 -11q-19 0 -30.5 11.5t-11.5 29.5q0 20 11 34t26 14q14 0 26 -5l96 23q8 10 30.5 14.5t35.5 -1.5l103 22q17 7 30 7q16 0 27 -11t11 -34q0 -18 -11 -32t-27 -14q-15 0 -29 7z M148 -239q-22 0 -24 22q0 28 34 31q19 2 30.5 17t11.5 39q0 18 -13 25q-40 -4 -40 30q0 12 7.5 20t22.5 8q32 0 54.5 -23t22.5 -61q0 -50 -34 -79t-72 -29z" />
<glyph unicode="&#x21b;" horiz-adv-x="368" d="M100 436v78q-6 6 -6 22q0 34 57 34q42 0 42 -28q0 -14 -10 -24v-66l83 17q8 8 17 8q16 0 25 -12t9 -25q0 -47 -31 -47q-13 0 -16 5l-87 -17v-283q0 -23 11 -23q9 0 41 30.5t50 61.5q-1 17 8.5 27.5t25.5 10.5q27 0 36.5 -11t9.5 -32q0 -18 -35.5 -60t-85 -78.5 t-82.5 -36.5q-28 0 -45 21.5t-17 51.5v303l-40 -7q-6 -6 -20 -9q-38 3 -38 46q0 17 11 28.5t27 11.5q10 0 17 -5zM142 -239q-24 0 -24 22q0 28 34 31q19 2 30.5 17t11.5 39q0 18 -13 25q-41 -4 -41 30q0 11 8 19.5t22 8.5q33 0 55.5 -23t22.5 -61q0 -50 -34.5 -79t-71.5 -29 z" />
<glyph unicode="&#x2c6;" d="M188 630l51 -91q13 -11 13 -29q0 -14 -11 -24.5t-27 -10.5q-15 0 -21 10.5t-5 22.5l-35 69l-43 -70q1 -14 -8 -23t-21 -9q-16 0 -26.5 11.5t-10.5 23.5q0 13 17 32l64 96q15 21 30 21q20 0 33 -29z" />
<glyph unicode="&#x2c7;" d="M245 553l-61 -63q-12 -13 -36 -13q-20 0 -29 17l-36 61q-18 11 -18 28q0 36 36 36q20 0 32 -29l27 -44l41 46q2 11 11.5 19t20.5 8q15 0 25.5 -8.5t10.5 -23.5q0 -20 -24 -34z" />
<glyph unicode="&#x2c9;" d="M207 548l-109 -16q-8 -4 -23 -4q-12 0 -21.5 11.5t-9.5 25.5q0 20 9.5 30t21.5 10q7 0 20 -5l100 15q14 7 24 7q13 0 23 -10.5t10 -27.5q0 -22 -16 -31t-29 -5z" />
<glyph unicode="&#x2d8;" d="M138 472q-40 0 -68.5 34.5t-28.5 68.5q0 32 35 32q33 0 33 -29q0 -16 9 -29.5t22 -13.5q34 0 46 36q-4 7 -4 17t12.5 16.5t26.5 6.5t23.5 -7.5t9.5 -20.5q0 -16 -7 -24q-16 -43 -41 -65t-68 -22z" />
<glyph unicode="&#x2d9;" d="M142 490q-40 0 -40 49q0 37 15 62t42 25q18 0 29 -12t11 -33q0 -41 -17 -66t-40 -25z" />
<glyph unicode="&#x2da;" d="M146 472q-27 0 -45 23.5t-18 59.5q0 31 32 55t55 24q30 0 50.5 -21t20.5 -60q0 -36 -31.5 -58.5t-63.5 -22.5zM154 519q13 0 25.5 9t12.5 23q0 36 -20 36q-15 0 -27.5 -10t-12.5 -27q0 -31 22 -31z" />
<glyph unicode="&#x2db;" d="M137 -186q-39 0 -64 21t-25 63q0 55 33.5 95.5t65.5 43.5q0 6 11 10.5t22 4.5q13 0 22.5 -7t9.5 -18q0 -31 -31 -31q-12 0 -29 -11t-28 -27q-17 -24 -17 -57q0 -15 10.5 -24t24.5 -9q32 0 37 20q-3 3 -3 10q0 18 30 18q14 0 23 -9.5t9 -24.5q0 -25 -27.5 -46.5 t-73.5 -21.5z" />
<glyph unicode="&#x2dc;" d="M194 497q-34 0 -62 34q-19 21 -28 21q-20 0 -29 -28q-11 -21 -33 -21q-36 0 -36 33q0 5 6.5 13t7.5 9q18 31 38 43.5t50 12.5q24 0 51 -29q28 -28 41 -28q20 0 20 32q0 28 33 28q15 0 25.5 -8t10.5 -18q0 -5 -5 -17q-24 -77 -90 -77z" />
<glyph unicode="&#x2dd;" d="M295 594l-69 -91q3 -13 -10 -28.5t-33 -15.5q-33 0 -33 38q0 17 12 23l71 94q-7 14 4.5 29.5t33.5 15.5q15 0 27.5 -10t12.5 -30q0 -13 -16 -25zM164 594l-69 -91q3 -13 -10 -28.5t-32 -15.5q-33 0 -34 38q1 17 14 23l69 94q-6 14 5.5 29.5t33.5 15.5q15 0 27.5 -10 t12.5 -30q0 -14 -17 -25z" />
<glyph unicode="&#x3c0;" horiz-adv-x="549" d="M509 409l-108 -10q-6 -58 -10 -92q-12 -101 -12 -132q0 -100 30 -100q12 0 33.5 12.5t31.5 24.5q3 36 40 36q45 0 45 -48q0 -6 -7 -17q-20 -28 -69 -56t-87 -28q-100 0 -100 176q0 44 12 130q6 43 9 86l-75 -7l-20 -153q-21 -141 -65 -203q-3 -46 -51 -46q-21 0 -37 11.5 t-16 28.5q0 35 30 42q41 61 55 166l19 142q-40 -5 -60 -21q-6 -5 -14 -14.5t-14 -15.5q-13 -12 -32 -12t-32 11t-13 28q0 38 38 50q66 52 200 63l264 24q13 13 28 13q23 0 32 -14.5t9 -28.5q0 -17 -9.5 -32t-30.5 -15q-9 0 -14 1z" />
<glyph unicode="&#x2010;" horiz-adv-x="275" d="M176 233l-72 -12q-14 -15 -32 -15q-14 0 -24.5 15t-10.5 36q0 23 11 37t26 14q14 0 23 -9l75 9q10 12 26 12q18 0 29 -14t11 -36q0 -18 -11 -33.5t-25 -15.5q-19 0 -26 12z" />
<glyph unicode="&#x2013;" horiz-adv-x="500" d="M100 319h294q10 12 26 12q18 0 29 -13.5t11 -36.5q0 -17 -11 -32.5t-25 -15.5q-19 0 -26 11h-291q-14 -15 -32 -15q-14 0 -24.5 15t-10.5 36q0 22 11 36.5t26 14.5t23 -12z" />
<glyph unicode="&#x2014;" horiz-adv-x="1000" d="M898 244h-791q-14 -15 -32 -15q-14 0 -24.5 15t-10.5 36q0 22 11 36.5t26 14.5t23 -12h794q10 12 26 12q18 0 29 -13.5t11 -36.5q0 -17 -11 -32.5t-25 -15.5q-20 0 -26 11z" />
<glyph unicode="&#x2018;" horiz-adv-x="157" d="M73 455q-46 0 -46 71q0 63 25.5 107.5t56.5 44.5q22 0 22 -18q0 -24 -19 -26q-17 -2 -32.5 -25.5t-15.5 -56.5q14 17 30 17q38 0 38 -52q0 -24 -16.5 -43t-42.5 -19z" />
<glyph unicode="&#x2019;" horiz-adv-x="157" d="M87 678q46 0 46 -72q0 -63 -25.5 -107t-56.5 -44q-22 0 -22 18q0 24 19 26q17 2 32.5 25.5t15.5 56.5q-14 -17 -30 -17q-38 0 -38 52q0 24 16.5 43t42.5 19z" />
<glyph unicode="&#x201a;" horiz-adv-x="157" d="M131 34q0 -63 -25.5 -106.5t-56.5 -43.5q-22 0 -22 18q0 24 19 26q17 2 32.5 25t15.5 56q-14 -17 -30 -17q-38 0 -38 52q0 24 16 43t42 19q47 0 47 -72z" />
<glyph unicode="&#x201c;" horiz-adv-x="304" d="M73 455q-46 0 -46 71q0 63 25.5 107.5t56.5 44.5q22 0 22 -18q0 -24 -19 -26q-17 -2 -32.5 -25.5t-15.5 -56.5q14 17 30 17q38 0 38 -52q0 -24 -16.5 -43t-42.5 -19zM220 455q-46 0 -46 71q0 63 25.5 107.5t56.5 44.5q22 0 22 -18q0 -24 -19 -26q-17 -2 -32.5 -25.5 t-15.5 -56.5q14 17 30 17q38 0 38 -52q0 -24 -16.5 -43t-42.5 -19z" />
<glyph unicode="&#x201d;" horiz-adv-x="304" d="M87 678q46 0 46 -72q0 -63 -25.5 -107t-56.5 -44q-22 0 -22 18q0 24 19 26q17 2 32.5 25.5t15.5 56.5q-14 -17 -30 -17q-38 0 -38 52q0 24 16.5 43t42.5 19zM234 678q46 0 46 -72q0 -63 -25.5 -107t-56.5 -44q-22 0 -22 18q0 24 19 26q17 2 32.5 25.5t15.5 56.5 q-14 -17 -30 -17q-38 0 -38 52q0 24 16.5 43t42.5 19z" />
<glyph unicode="&#x201e;" horiz-adv-x="304" d="M131 34q0 -63 -25.5 -106.5t-56.5 -43.5q-22 0 -22 18q0 24 19 26q17 2 32.5 25t15.5 56q-14 -17 -30 -17q-38 0 -38 52q0 24 16 43t42 19q47 0 47 -72zM278 34q0 -63 -25.5 -106.5t-56.5 -43.5q-22 0 -22 18q0 24 19 26q17 2 32.5 25t15.5 56q-14 -17 -30 -17 q-38 0 -38 52q0 24 16 43t42 19q47 0 47 -72z" />
<glyph unicode="&#x2020;" horiz-adv-x="380" d="M232 583v-113h47q20 15 33 14q19 0 30 -16t11 -35q0 -23 -15 -36t-36 -13q-3 0 -21 11h-49v-336q14 -14 14 -32q0 -41 -50 -41q-57 0 -57 45q0 17 10 37v327h-46q-3 -1 -10 -5.5t-13 -7t-12 -2.5q-17 0 -28 14t-11 34q0 23 11.5 37.5t27.5 14.5q8 0 30 -10h51v108 q-12 15 -12 40q0 17 15 26.5t38 9.5q21 0 34.5 -14t13.5 -28q0 -19 -6 -29z" />
<glyph unicode="&#x2021;" horiz-adv-x="380" d="M232 580v-99h54q26 13 32 13q34 0 34 -46q0 -24 -12 -37.5t-30 -13.5q-13 0 -24 9h-54v-167h53q22 12 36 12q31 0 31 -48q0 -23 -12 -35.5t-29 -12.5q-11 0 -25 9h-54v-107q14 -9 14 -29q0 -42 -50 -42q-54 0 -54 45q0 21 7 32v101h-49q-18 -15 -29 -15q-20 0 -30.5 13.5 t-10.5 29.5q0 26 11 41.5t30 15.5q12 0 26 -10h52v167h-50q-25 -14 -32 -14q-18 0 -27.5 14.5t-9.5 31.5q0 22 11 37t26 15q17 0 31 -9h51v97q-14 18 -14 37q0 39 58 39q22 0 34 -13t12 -31q0 -14 -7 -30z" />
<glyph unicode="&#x2022;" horiz-adv-x="282" d="M114 187q-37 0 -59 36.5t-22 70.5q0 151 124 151q19 0 31.5 -3.5t26 -15t20 -37t6.5 -65.5q0 -39 -14.5 -68t-36.5 -43t-41 -20t-35 -6z" />
<glyph unicode="&#x2026;" horiz-adv-x="1000" d="M161 -8q-16 0 -29.5 15t-13.5 41q0 23 15.5 43t40.5 20q43 0 43 -56q0 -26 -14 -44.5t-42 -18.5zM494 -8q-16 0 -29.5 15t-13.5 41q0 23 15.5 43t40.5 20q43 0 43 -56q0 -26 -14 -44.5t-42 -18.5zM827 -8q-16 0 -29.5 15t-13.5 41q0 23 15.5 43t40.5 20q43 0 43 -56 q0 -26 -14 -44.5t-42 -18.5z" />
<glyph unicode="&#x2030;" horiz-adv-x="742" d="M423 611q0 -9 -7 -18.5t-17 -12.5l-257 -542q0 -23 -14.5 -35t-34.5 -12q-43 0 -43 38q0 8 10.5 20t11.5 14l260 549q0 20 11.5 32.5t25.5 12.5q18 1 36 -12t18 -34zM113 413q-36 0 -63 25t-27 73q0 59 42 102t86 43q38 0 63 -23.5t25 -70.5q0 -57 -42 -103t-84 -46z M122 476q12 0 26 25.5t14 55.5q0 36 -17 36q-16 0 -30.5 -23t-14.5 -54q0 -40 22 -40zM386 250q29 0 53 -29.5t24 -84.5q0 -68 -40 -111.5t-96 -43.5q-33 0 -58.5 28t-25.5 80q0 81 44.5 121t98.5 40zM642 250q29 0 53 -29.5t24 -84.5q0 -68 -40 -111.5t-96 -43.5 q-33 0 -58.5 28t-25.5 80q0 81 44.5 121t98.5 40zM364 187q-19 0 -31.5 -24.5t-12.5 -70.5q0 -48 21 -48q17 0 31 24t14 67q0 52 -22 52zM620 187q-19 0 -31.5 -24.5t-12.5 -70.5q0 -48 21 -48q17 0 31 24t14 67q0 52 -22 52z" />
<glyph unicode="&#x2039;" horiz-adv-x="228" d="M93 104l-63 133q-17 15 -17 44q0 26 20 44l96 138q4 29 45 29q17 0 32.5 -11.5t15.5 -28.5q0 -13 -8 -25.5t-19 -14.5l-94 -134l61 -126q10 0 17.5 -11t7.5 -27q0 -18 -14.5 -30.5t-30.5 -12.5q-38 0 -49 33z" />
<glyph unicode="&#x203a;" horiz-adv-x="228" d="M127 283l-67 128q-25 7 -25 38q0 18 14 30.5t29 12.5q38 0 50 -33l70 -134q17 -17 17 -44t-19 -44l-86 -132q1 -15 -12.5 -24.5t-34.5 -9.5q-17 0 -33 11.5t-16 28.5q0 13 8.5 25.5t18.5 14.5z" />
<glyph unicode="&#x2044;" horiz-adv-x="200" d="M-70 24q0 15 6 23.5t13.5 13t9.5 8.5l221 540q2 22 12 35t26 13q19 0 38 -12.5t19 -28.5q0 -14 -8.5 -24.5t-17.5 -14.5l-223 -542q-1 -23 -17 -35t-34 -12q-45 0 -45 36z" />
<glyph unicode="&#x2070;" horiz-adv-x="336" d="M150 369q-48 0 -82.5 36.5t-34.5 102.5q0 68 18 120t47 80t58.5 41.5t57.5 13.5q50 0 88 -39t38 -100q0 -69 -19 -121.5t-49 -80t-61 -40.5t-61 -13zM156 432q38 0 71.5 47t33.5 140q0 39 -14 60t-35 21q-40 0 -70 -47t-30 -142q0 -40 13 -59.5t31 -19.5z" />
<glyph unicode="&#x2074;" horiz-adv-x="323" d="M260 707v-147l25 5q13 11 24 11q12 0 21.5 -9t9.5 -29q0 -36 -29 -36q-16 0 -24 7l-27 -5v-66q15 -7 15 -23q0 -40 -62 -40q-19 0 -29 10.5t-10 21.5q0 17 8 25v62l-106 -17q-19 -7 -27 -7q-31 0 -31 40q0 12 24 36l137 198q3 23 48 23q17 0 29 -9t12 -23q0 -15 -8 -28z M183 550v114l-86 -129z" />
<glyph unicode="&#x2075;" horiz-adv-x="316" d="M236 700l-112 -11q-4 -25 -7 -63q35 26 88 26q42 0 75 -25t33 -83q0 -77 -55.5 -126t-119.5 -49q-44 0 -74 20t-30 52q0 13 12.5 24t26.5 11q21 0 31 -21q14 -23 40 -23q33 0 61.5 29t28.5 74q0 54 -44 54q-38 0 -74 -26q-7 -5 -21 -16q-11 -9 -19 -9q-32 0 -32 30 q0 8 3.5 22t4.5 21l14 118q2 20 26 20l142 13q15 11 26 11q17 0 28 -12.5t11 -28.5q0 -22 -10 -32.5t-21 -10.5q-19 0 -32 11z" />
<glyph unicode="&#x2076;" horiz-adv-x="328" d="M172 369q-67 0 -109 57q-14 2 -21 17t-2 31q-10 28 -10 60q0 90 51.5 163t126.5 73q43 0 67.5 -16t24.5 -39q0 -15 -11.5 -25t-28.5 -10q-15 0 -32 19q-7 9 -26 9q-36 0 -65 -44.5t-35 -96.5q0 -11 1 -14q57 81 125 81q46 0 70 -29t24 -66q0 -76 -48 -123t-102 -47z M173 432q24 0 48 27t24 71q0 16 -8.5 28.5t-20.5 12.5q-21 0 -51 -26t-48 -63q4 -20 20.5 -35t35.5 -15z" />
<glyph unicode="&#x2077;" horiz-adv-x="257" d="M198 695l-90 -13l-2 -16q10 -8 10 -15q0 -12 -13 -21t-32 -9q-18 0 -27 8t-8 22q1 11 4 32t4 31q2 16 8.5 22t24.5 8l142 19q5 1 20 7t22 6q15 0 25.5 -7.5t10.5 -21.5q0 -5 -3 -11.5t-8 -15t-7 -13.5l-104 -245q-2 -4 -9.5 -27t-12.5 -33q-15 -34 -43 -34 q-16 0 -26 10.5t-10 24.5q0 8 3.5 17.5t9 20.5t7.5 16z" />
<glyph unicode="&#x2078;" horiz-adv-x="337" d="M121 372q-36 0 -62.5 25.5t-26.5 68.5q0 36 20.5 70.5t45.5 55.5q-35 18 -35 60q0 58 40 88t91 30q37 0 65 -20.5t28 -48.5q0 -34 -25 -63q25 -4 48.5 -26t23.5 -57q0 -66 -65 -124.5t-148 -58.5zM184 709h-2q-17 0 -31 -15t-14 -37q0 -25 18 -33q14 10 35 14 q23 15 23 47q0 10 -8.5 17t-20.5 7zM135 434h2q35 0 76.5 35t41.5 80q0 10 -7.5 19.5t-26.5 9.5q-34 0 -72 -33t-38 -82q0 -13 7.5 -21t16.5 -8z" />
<glyph unicode="&#x2079;" horiz-adv-x="324" d="M194 766q28 0 54 -16.5t42 -41.5q23 -12 23 -40q0 -4 -3 -16q6 -28 6 -57q0 -99 -53 -163.5t-131 -64.5q-38 0 -66.5 20.5t-28.5 46.5q0 14 9 24t22 10q21 0 32 -18q5 -7 16.5 -14t22.5 -7q40 0 69.5 40t34.5 90v16q-40 -58 -103 -58q-45 0 -73.5 33.5t-28.5 74.5 q0 60 44.5 100.5t111.5 40.5zM186 703q-29 0 -50.5 -20t-21.5 -56q0 -20 11.5 -33.5t25.5 -13.5q25 0 49 19.5t36 48.5q-2 20 -16.5 37.5t-33.5 17.5z" />
<glyph unicode="&#x207d;" horiz-adv-x="190" d="M126 821q20 0 37.5 -15.5t17.5 -42.5q0 -14 -9 -22t-19 -7q-42 -44 -42 -185t40 -183q10 3 18.5 -8t8.5 -28q0 -24 -14.5 -37t-27.5 -13q-27 0 -43 25q-59 99 -59 247q0 66 17 130.5t45 107.5q1 13 10 22t20 9z" />
<glyph unicode="&#x207e;" horiz-adv-x="190" d="M83 821q9 0 18 -8.5t10 -22.5q59 -88 59 -238q0 -154 -57 -247q-15 -25 -42 -25q-12 0 -27 13t-15 37q0 17 8 28t18 8q38 40 38 183q0 145 -40 185q-10 -1 -19 7t-9 22q0 19 7 31.5t17.5 18t18.5 7t15 1.5z" />
<glyph unicode="&#x2080;" horiz-adv-x="336" d="M133 -136q-48 0 -82.5 36.5t-34.5 102.5q0 68 18 120t47 80t58.5 41.5t57.5 13.5q50 0 88 -39t38 -100q0 -69 -19 -121.5t-49 -80t-61 -40.5t-61 -13zM139 -73q38 0 71.5 47t33.5 140q0 39 -14 60t-35 21q-40 0 -70 -47t-30 -142q0 -40 13 -59.5t31 -19.5z" />
<glyph unicode="&#x2081;" horiz-adv-x="209" d="M154 206v-267q0 -2 2 -13.5t2 -17.5q0 -17 -17 -27.5t-48 -10.5q-37 0 -37 24q0 9 3.5 17t10.5 17.5t8 10.5v199q-2 0 -14 -13t-21 -13q-12 0 -21.5 7.5t-9.5 20.5q0 25 36 55q17 13 33.5 30t26 25t18.5 8q14 0 25.5 -7t11.5 -19q0 -5 -4.5 -15t-4.5 -11z" />
<glyph unicode="&#x2082;" horiz-adv-x="302" d="M87 -67l86 4q16 0 16 4q0 16 9.5 27.5t25.5 11.5q41 0 41 -45q0 -52 -36 -55l-166 -10q-53 -3 -53 37q0 62 27.5 99t78.5 66q63 34 63 92q0 31 -26 31q-24 0 -32 -10t-11 -30q-2 -12 -4.5 -19t-13.5 -13.5t-30 -6.5q-17 0 -27 9.5t-10 19.5q0 39 34 76t105 37 q41 0 67.5 -20.5t26.5 -63.5q0 -93 -92 -148q-79 -48 -79 -93z" />
<glyph unicode="&#x2083;" horiz-adv-x="330" d="M194 190l-85 -15q0 -22 -10.5 -32.5t-24.5 -10.5q-34 0 -34 54q0 48 35 48q21 0 87 11.5t77 11.5q34 0 34 -34q0 -29 -50 -98q32 1 52 -23t20 -71q0 -78 -49 -125t-119 -47q-52 0 -85 33.5t-33 56.5q0 13 13.5 24.5t32.5 11.5q26 0 32 -26q11 -37 46 -37q36 0 59.5 28 t23.5 69q0 47 -29 47q-22 0 -33 -18t-28 -18q-12 0 -20.5 7t-8.5 19q0 27 34 40q20 9 63 94z" />
<glyph unicode="&#x2084;" horiz-adv-x="323" d="M243 203v-148l25 5q13 11 24 11q12 0 21.5 -9t9.5 -29q0 -36 -29 -36q-16 0 -24 8l-27 -5v-66q15 -7 15 -24q0 -40 -62 -40q-18 0 -28.5 10t-10.5 22q0 18 8 25v62l-106 -17q-24 -6 -27 -6q-31 0 -31 39q0 12 24 36l137 199q4 23 48 23q17 0 29 -9.5t12 -22.5 q0 -15 -8 -28zM166 45v114l-86 -128z" />
<glyph unicode="&#x2085;" horiz-adv-x="316" d="M219 195l-112 -11q-3 -24 -7 -63q35 26 88 26q42 0 75 -25t33 -82q0 -77 -55.5 -126.5t-119.5 -49.5q-44 0 -74 20t-30 52q0 14 12.5 24.5t26.5 10.5q21 0 31 -21q14 -23 40 -23q33 0 61.5 29t28.5 74q0 54 -44 54q-39 0 -74 -25l-21 -17q-11 -9 -19 -9q-32 0 -32 30 q0 8 3.5 22t4.5 21q4 40 14 118q3 20 26 20l142 13q15 11 26 11q17 0 28 -12.5t11 -28.5q0 -22 -10 -32.5t-21 -10.5q-19 0 -32 11z" />
<glyph unicode="&#x2086;" horiz-adv-x="328" d="M154 -136q-67 0 -109 57q-14 2 -21 17.5t-2 31.5q-10 28 -10 60q0 89 51.5 162t126.5 73q43 0 67.5 -16t24.5 -39q0 -15 -11.5 -25t-28.5 -10q-15 0 -32 19q-7 9 -26 9q-36 0 -65 -44.5t-35 -96.5q0 -10 1 -14q57 81 125 81q46 0 70 -29t24 -65q0 -77 -48 -124t-102 -47z M155 -73q24 0 48 27.5t24 71.5q0 16 -8 28t-20 12q-22 0 -51.5 -25.5t-47.5 -62.5q4 -20 20.5 -35.5t34.5 -15.5z" />
<glyph unicode="&#x2087;" horiz-adv-x="257" d="M181 190l-91 -13l-2 -16q10 -7 10 -15q0 -12 -13 -21t-32 -9q-18 0 -27 8t-8 22q1 10 4 31t4 32q2 16 8.5 22t24.5 8l143 19q5 1 20 7t22 6q15 0 25.5 -7.5t10.5 -21.5q0 -5 -3 -11.5t-8 -15t-7 -13.5l-104 -245q-2 -5 -9.5 -27t-12.5 -33q-15 -34 -43 -34 q-16 0 -26 10.5t-10 24.5q0 8 3.5 17.5t9 20.5t7.5 16z" />
<glyph unicode="&#x2088;" horiz-adv-x="337" d="M103 -133q-36 0 -62.5 25.5t-26.5 68.5q0 35 20.5 69.5t46.5 56.5q-35 15 -35 60q0 57 39.5 87.5t90.5 30.5q37 0 65 -20.5t28 -48.5q0 -34 -25 -63q24 -4 48 -26.5t24 -56.5q0 -67 -65 -125t-148 -58zM165 204q-17 0 -31 -15t-14 -37q0 -26 17 -33q19 12 35 13 q23 15 23 48q0 10 -8.5 17t-21.5 7zM119 -70q35 0 76.5 35t41.5 79q0 10 -7.5 19.5t-26.5 9.5q-34 0 -72 -32.5t-38 -81.5q0 -13 8 -21t18 -8z" />
<glyph unicode="&#x2089;" horiz-adv-x="324" d="M177 261q28 0 54 -16.5t42 -41.5q9 -5 16 -16.5t7 -23.5q0 -4 -3 -16q6 -28 6 -57q0 -99 -53 -163.5t-131 -64.5q-38 0 -66.5 20.5t-28.5 46.5q0 14 9 24t22 10q21 0 32 -18q16 -21 39 -21q40 0 69.5 40t34.5 90v16q-40 -58 -103 -58q-45 0 -73.5 33.5t-28.5 74.5 q0 60 44.5 100.5t111.5 40.5zM169 198q-29 0 -50.5 -20t-21.5 -56q0 -20 11.5 -33.5t25.5 -13.5q25 0 49 19.5t36 48.5q-2 20 -16.5 37.5t-33.5 17.5z" />
<glyph unicode="&#x208d;" horiz-adv-x="190" d="M109 316q20 0 37.5 -15.5t17.5 -42.5q0 -14 -9 -22t-19 -7q-42 -44 -42 -185t40 -183q10 3 18.5 -8t8.5 -28q0 -24 -14.5 -37t-27.5 -13q-27 0 -43 25q-59 99 -59 247q0 66 17 130.5t45 107.5q1 13 10 22t20 9z" />
<glyph unicode="&#x208e;" horiz-adv-x="190" d="M66 316q9 0 18 -8.5t10 -22.5q59 -89 59 -238q0 -154 -57 -247q-15 -25 -42 -25q-12 0 -27 13t-15 37q0 17 8 28t18 8q38 40 38 183q0 145 -40 185q-10 -1 -19 7t-9 22q0 19 7 31.5t17.5 18t18.5 7t15 1.5z" />
<glyph unicode="&#x20ac;" horiz-adv-x="518" d="M330 227l-150 -7q9 -76 42 -117.5t76 -41.5q67 0 100 54q14 27 43 27q14 0 29 -15t15 -27q0 -30 -46 -68q-59 -49 -141 -49q-87 0 -140.5 64t-64.5 169l-17 -1q-13 -8 -26 -8q-15 0 -25.5 11.5t-10.5 30.5q0 39 33 39q10 0 22 -3l21 1q2 38 5 56l-18 -1q-13 -8 -28 -8 q-16 0 -24.5 13t-8.5 33q0 17 9.5 27t24.5 10q4 0 21 -5l40 2q28 104 87 172t137 68q55 0 97 -31q55 -34 55 -86q0 -20 -14.5 -33t-33.5 -13q-15 0 -25.5 12t-7.5 28q-8 19 -27.5 32t-41.5 13q-39 0 -75.5 -44t-58.5 -114l159 7q18 12 29 12q15 0 24.5 -12t9.5 -28 q0 -18 -9 -32t-25 -14q-9 0 -21 5l-187 -9q-3 -18 -5 -56l144 6q17 10 32 10q31 0 31 -38q0 -21 -9.5 -33t-20.5 -12q-9 0 -25 4z" />
<glyph unicode="&#x2113;" horiz-adv-x="518" d="M253 -15q-55 0 -80.5 33t-25.5 103v26q-3 -2 -8 -6.5t-7 -6.5q-30 -32 -55 -32q-19 0 -30.5 14t-11.5 35q0 8 2.5 15.5t8 13t10.5 9t14 7t13.5 5.5t14.5 4.5t12 3.5l39 30q8 341 87 420q28 28 72 28q52 0 90.5 -42t38.5 -112q0 -134 -205 -321q0 -16 -0.5 -50.5 t-0.5 -51.5q0 -50 26 -50q11 0 25 13t21 30q-1 5 -1 15q3 43 46 43q21 0 32.5 -13t11.5 -31q0 -13 -5 -22q-15 -41 -51.5 -75.5t-82.5 -34.5zM310 611q-10 0 -18 -8q-40 -42 -53 -286q112 125 112 215q0 34 -13.5 56.5t-27.5 22.5z" />
<glyph unicode="&#x2122;" horiz-adv-x="666" d="M626 640q0 -5 -3 -14v-260q8 -12 8 -19q0 -18 -16 -27.5t-37 -9.5q-29 0 -29 29q0 1 7 15q1 55 1 163h-2q-46 -97 -61 -158q-8 -32 -35 -32q-18 0 -24 21q-4 23 -12.5 49.5t-24 67t-15.5 41.5h-2q1 -45 1 -136q3 -6 3 -22q0 -38 -40 -38q-18 0 -27.5 10.5t-9.5 25.5 q0 5 3.5 12.5t3.5 8.5v269q-3 16 8 27.5t31 11.5q26 0 32 -30q11 -40 41.5 -114.5t36.5 -100.5q7 23 43.5 99t46.5 117q9 29 37 29q13 0 24 -9.5t11 -25.5zM180 602v-229q6 -24 6 -30q0 -19 -8.5 -26t-30.5 -7q-17 0 -31 10t-14 23t6 23v228l-53 -7q-13 -10 -23 -10 q-13 0 -20 8.5t-7 20.5q0 43 42 43l167 19q20 6 26 6q37 0 37 -30q0 -39 -40 -34z" />
<glyph unicode="&#x2126;" horiz-adv-x="768" d="M627 0h-153q-7 0 -19 -2.5t-18 -2.5q-46 2 -46 40q0 20 21 41q79 81 126 158q63 95 63 209q0 61 -42 108.5t-115 47.5q-103 0 -167.5 -81t-64.5 -186q0 -63 30.5 -132t77.5 -119q23 -26 23 -41q2 -20 -10.5 -34t-33.5 -14q-11 0 -23 3l-161 -4q-6 0 -16.5 -4t-15.5 -4 q-21 0 -35.5 12t-14.5 33q0 20 13.5 37t31.5 18q23 0 42 -14l104 3q-95 127 -95 266q0 137 90 237t234 100q53 0 104 -24t89 -80t38 -134q0 -102 -42 -181t-130 -179h100q11 32 46 32q17 0 31.5 -12.5t14.5 -42.5q0 -25 -15 -43t-38 -18q-12 0 -24 7z" />
<glyph unicode="&#x212e;" horiz-adv-x="803" d="M772 309h-600q-5 0 -5 -4v-181q0 -11 8 -21q96 -99 227 -99q143 0 239 111h53q-50 -60 -127.5 -94.5t-165.5 -34.5q-153 0 -261.5 97t-108.5 236q0 138 108.5 235.5t261.5 97.5q154 0 262.5 -97.5t108.5 -235.5v-10zM636 333v182q0 13 -9 22q-97 95 -225 95 q-130 0 -226 -98q-9 -9 -9 -23v-178q0 -6 5 -6h460q4 0 4 6z" />
<glyph unicode="&#x2202;" horiz-adv-x="494" d="M190 59q29 0 59 13t61 41.5t51 84.5t20 131q-35 19 -91 19q-73 0 -128.5 -51.5t-55.5 -139.5q0 -46 22.5 -72t61.5 -26zM183 -18q-45 0 -78.5 15.5t-50.5 41.5t-25 54t-8 58q0 117 75 196t203 79q43 0 71 -14q-14 73 -51.5 122t-86.5 49q-38 0 -61 -9q-13 -19 -41 -19 q-23 0 -34 16t-11 30q0 20 14 32.5t31 12.5q6 0 12 -2q44 14 88 14q51 0 93 -24t67.5 -60t43 -81t24.5 -84t7 -72q0 -171 -82.5 -263t-199.5 -92z" />
<glyph unicode="&#x2206;" horiz-adv-x="612" d="M551 -4l-501 -11q-19 -1 -32.5 10.5t-14.5 31.5q-1 18 39 96q58 112 107 224q79 180 99 272q4 18 8.5 30t16 21.5t28.5 9.5q6 0 11.5 -1.5t10 -3.5t8.5 -6.5t6.5 -7t6 -9t4.5 -9t4 -11t3.5 -10.5t3 -11t2.5 -10q20 -69 119 -278q82 -177 101 -248q20 -11 20 -36 q0 -41 -50 -43zM106 65l389 9q-28 89 -91 220q-80 170 -101 230q-29 -93 -92 -238q-47 -104 -105 -221z" />
<glyph unicode="&#x220f;" horiz-adv-x="823" d="M250 549v-716q5 -15 5 -20q0 -49 -46 -49q-49 0 -49 47q0 6 3 15t4 11v701l-73 -9q-15 -11 -31 -9q-20 0 -31 14t-11 32q0 20 12.5 37t35.5 17q18 0 32 -9l76 10q17 15 38 15q10 0 22 -7l484 61q16 11 35 11q26 0 37 -17.5t11 -33.5q0 -18 -11 -32.5t-31 -14.5 q-16 0 -28 9l-76 -10v-743q14 -18 14 -30q0 -19 -12.5 -33.5t-36.5 -14.5q-26 0 -37 15t-11 48v747z" />
<glyph unicode="&#x2211;" horiz-adv-x="713" d="M508 652l-333 -4l227 -274q17 -5 25.5 -19t8.5 -27t-7 -24t-20 -23t-17 -17l-244 -317l432 9q12 46 51 46q20 0 31 -13t11 -31q0 -88 -55 -88q-4 0 -34 5l-459 -8q-13 0 -29.5 -2.5t-21.5 -2.5q-52 0 -52 45q0 10 4 18t13.5 18.5t11.5 13.5l285 368l-256 309 q-22 26 -27 34.5t-5 18.5q0 37 53 39l401 6q12 15 32 15q41 0 45 -40q1 -9 5.5 -30t4.5 -30q0 -20 -10 -31.5t-26 -11.5q-26 0 -35 19q-2 5 -5.5 16t-4.5 13z" />
<glyph unicode="&#x2212;" horiz-adv-x="554" d="M115 266h308q3 1 9.5 3.5t11.5 4t9 1.5q38 0 38 -50q0 -48 -38 -48q-18 0 -30 6h-308q-21 -7 -32 -7q-36 0 -36 41q0 54 40 54q16 0 28 -5z" />
<glyph unicode="&#x2215;" horiz-adv-x="200" d="M-70 24q0 15 6 23.5t13.5 13t9.5 8.5l221 540q2 22 12 35t26 13q19 0 38 -12.5t19 -28.5q0 -14 -8.5 -24.5t-17.5 -14.5l-223 -542q-1 -23 -17 -35t-34 -12q-45 0 -45 36z" />
<glyph unicode="&#x2219;" horiz-adv-x="201" d="M79 155q-16 0 -29.5 15t-13.5 41q0 23 15.5 43t40.5 20q43 0 43 -56q0 -26 -14 -44.5t-42 -18.5z" />
<glyph unicode="&#x221a;" horiz-adv-x="549" d="M132 319l-76 -27q-18 -6 -24 -6q-47 0 -47 46q0 20 14.5 31t31.5 11q6 0 18 -2l71 25q2 9 13 17t24 8q14 0 23 -9q33 -5 33 -41q0 -8 -6 -18q16 -42 86 -165q48 -81 64 -125q13 113 58 348q39 197 50 298q-9 20 -9 36q0 48 57 48q20 0 34 -12t14 -30q0 -7 -7 -25.5 t-8 -23.5q-10 -84 -53 -321q-63 -340 -69 -438q-1 -8 1 -21t2 -20q0 -16 -13 -27.5t-32 -11.5q-22 0 -32.5 10.5t-16.5 29.5q-1 5 -4 14.5t-4 14.5q-27 82 -85 182q-79 137 -108 204z" />
<glyph unicode="&#x221e;" horiz-adv-x="713" d="M539 103q-94 0 -178 81l-19 19q-28 -31 -50 -52q-51 -46 -122 -46q-66 0 -103 44t-37 108q0 55 35 97t107 42q88 0 168 -73q40 36 53 45q77 57 163 57q62 0 98.5 -44t36.5 -116q0 -65 -42.5 -113.5t-109.5 -48.5zM538 186q27 0 48.5 23t21.5 54q0 36 -16.5 57.5 t-44.5 21.5q-68 0 -126 -55l-22 -22q10 -11 15 -16q37 -35 64 -49t60 -14zM171 188q25 0 44.5 11.5t45.5 36.5l23 26q-55 51 -112 51q-27 0 -43 -16t-16 -44q0 -31 16 -48t42 -17z" />
<glyph unicode="&#x222b;" horiz-adv-x="274" d="M188 440v-212q0 -265 -28 -361q-29 -131 -122 -131q-59 0 -87 51q-19 19 -19 39q0 19 15 33.5t37 14.5q45 0 45 -41q0 -1 -0.5 -5t-0.5 -6q6 -10 13 -10q31 0 45 86q19 90 19 335v203q0 174 26 248q26 82 102 82q39 0 63 -20.5t24 -45.5q0 -24 -12 -38t-30 -14 q-28 0 -36 21q-1 1 -4 11q-5 5 -13 5q-19 0 -27 -50q-10 -47 -10 -195z" />
<glyph unicode="&#x2248;" horiz-adv-x="554" d="M383 264q-31 0 -109 20q-64 18 -96 18q-31 0 -49 -13q-14 -25 -44 -25q-24 0 -35.5 15t-11.5 31q0 25 14.5 41t36.5 16q9 0 17 -3q33 19 73 19q28 0 94 -17q70 -19 101 -19t58 14q13 24 42 24q22 0 34 -15.5t12 -35.5q0 -18 -13 -34t-32 -16q-9 0 -14 2q-39 -22 -78 -22z M383 66q-35 0 -109 21q-64 18 -96 18q-29 0 -49 -14q-14 -25 -44 -25q-24 0 -35.5 15t-11.5 32q0 25 14.5 40.5t36.5 15.5q7 0 17 -2q33 19 73 19q32 0 94 -18q70 -19 101 -19t58 14q13 24 42 24q22 0 34 -15.5t12 -35.5q0 -18 -13 -34t-32 -16q-9 0 -14 2q-39 -22 -78 -22z " />
<glyph unicode="&#x2260;" horiz-adv-x="554" d="M111 72l22 30h-25q-14 -7 -25 -7q-36 0 -36 41q0 54 40 54q16 0 28 -5h69l67 102h-136q-21 -7 -32 -7q-36 0 -36 41q0 54 40 54q16 0 28 -5h187l53 80q6 47 38 47q22 0 41 -15t19 -33q0 -25 -27 -43l-26 -36h28q18 9 25 9q38 0 38 -50q0 -48 -38 -48q-18 0 -30 6h-74 l-68 -102h142q3 1 9.5 3.5t11.5 4t9 1.5q38 0 38 -50q0 -48 -38 -48q-18 0 -30 6h-193l-48 -73q-1 -18 -10.5 -33.5t-26.5 -15.5q-21 0 -40.5 16t-19.5 34q0 20 26 42z" />
<glyph unicode="&#x2264;" horiz-adv-x="554" d="M191 330l220 -127q23 -2 33 -7.5t10 -19.5q0 -19 -19 -43t-38 -24q-27 0 -33 26l-235 143q-29 17 -38 31t-9 35q0 20 29 34l250 121q-3 13 10 26t28 13q22 0 41.5 -20.5t19.5 -31.5q0 -23 -9 -34t-34 -13zM130 75h285q14 12 26 12q18 0 28.5 -14t10.5 -37 q0 -17 -11.5 -32.5t-25.5 -15.5q-19 0 -24 12h-282q-15 -15 -33 -15q-13 0 -23.5 15t-10.5 35q0 23 11 37t25 14q17 0 24 -11z" />
<glyph unicode="&#x2265;" horiz-adv-x="554" d="M348 330l-226 109q-25 2 -34 13t-9 34q0 11 19.5 31.5t41.5 20.5q15 0 28 -13t10 -26l250 -121q29 -14 29 -34q0 -21 -9 -35t-38 -31l-235 -143q-6 -26 -33 -26q-19 0 -38 24t-19 43q0 14 10 19.5t33 7.5zM119 75h285q14 12 26 12q18 0 28.5 -14t10.5 -37 q0 -17 -11.5 -32.5t-25.5 -15.5q-19 0 -24 12h-282q-15 -15 -33 -15q-13 0 -23.5 15t-10.5 35q0 23 11 37t25 14q17 0 24 -11z" />
<glyph unicode="&#x25ca;" horiz-adv-x="494" d="M239 -18q-38 0 -49 44q-10 42 -57 124q-54 94 -97 159q-25 37 -25 51q0 16 28 58l47.5 74t59.5 97q45 76 54 112q12 51 48 51q21 0 36.5 -13.5t12.5 -38.5q4 -16 15 -39t30.5 -56l33 -55l40 -64l33.5 -53q29 -46 29 -61q0 -8 -5 -17.5t-13 -20t-10 -13.5 q-9 -15 -52.5 -83t-62.5 -102q-41 -79 -48 -110q-9 -44 -48 -44zM239 121q21 48 78 139q52 83 70 114q-9 16 -61.5 103t-76.5 136q-29 -61 -83 -146.5t-64 -104.5q7 -15 62 -107q46 -72 75 -134z" />
<glyph unicode="&#xf6c3;" d="M104 -239q-24 0 -24 22q0 28 34 31q19 2 30.5 17t11.5 38q0 19 -13 26q-40 -4 -40 30q0 27 30 27q32 0 54.5 -22.5t22.5 -60.5q0 -50 -34 -79t-72 -29z" />
<glyph unicode="&#xf6c9;" d="M249 806l-57 -76q-1 -13 -11.5 -23t-27.5 -10q-35 0 -37 34q2 27 22 30l59 79q-6 17 5.5 25t28.5 8t27.5 -9t10.5 -25q0 -22 -20 -33z" />
<glyph unicode="&#xf6ca;" d="M245 755l-61 -63q-12 -13 -36 -13q-20 0 -29 17l-36 61q-18 11 -18 28q0 36 36 36q20 0 32 -29l27 -44l41 46q2 11 11.5 19t20.5 8q15 0 25.5 -8.5t10.5 -23.5q0 -20 -24 -34z" />
<glyph unicode="&#xf6cb;" d="M67 703q-18 0 -28 19t-10 37q0 56 49 56q45 0 45 -41q0 -38 -10.5 -54.5t-45.5 -16.5zM215 705q-42 0 -42 52q0 58 43 58q16 0 33.5 -12.5t17.5 -35.5q0 -62 -52 -62z" />
<glyph unicode="&#xf6ce;" d="M130 832l43 -70q20 -8 20 -30q0 -35 -42 -35q-15 0 -24.5 11t-8.5 25l-42 69q-20 9 -20 32q0 36 42 36q30 0 32 -38z" />
<glyph unicode="&#xf6cf;" d="M295 796l-69 -91q3 -13 -10 -28.5t-33 -15.5q-33 0 -33 38q0 17 12 23l71 94q-7 14 4.5 29.5t33.5 15.5q15 0 27.5 -10t12.5 -30q0 -13 -16 -25zM164 796l-69 -91q3 -13 -10 -28.5t-32 -15.5q-33 0 -34 38q1 17 14 23l69 94q-6 14 5.5 29.5t33.5 15.5q15 0 27.5 -10 t12.5 -30q0 -14 -17 -25z" />
<glyph unicode="&#xf6d0;" d="M207 749l-109 -16q-8 -4 -23 -4q-12 0 -21.5 11.5t-9.5 25.5q0 20 9.5 30t21.5 10q7 0 20 -5l100 15q14 7 24 7q13 0 23 -10.5t10 -27.5q0 -22 -16 -31t-29 -5z" />
<glyph unicode="&#xf6df;" horiz-adv-x="287" d="M169 143v-132q21 8 26 28q-8 31 28 31q38 0 38 -26q0 -28 -26 -57t-66 -41v-60q10 -10 10 -20q0 -25 -38 -25q-35 0 -35 22q0 11 8 24v50q-2 1 -9.5 1h-9.5q-34 1 -59 29t-25 69q0 67 26.5 102.5t76.5 53.5v35q-9 9 -9 19q0 11 12 18.5t34 7.5q28 0 28 -29q0 -8 -10 -15 v-25q8 2 21 2q26 0 45 -17.5t19 -32.5q0 -17 -14 -26t-27 -9q-17 0 -20 10q0 9 -11 13q-6 2 -13 0zM81 52q0 -42 17 -48q10 -4 16 -3v125q-32 -22 -33 -74z" />
<glyph unicode="&#xf6e0;" horiz-adv-x="287" d="M186 648v-132q21 8 26 28q-8 31 28 31q38 0 38 -26q0 -28 -26 -57t-66 -41v-60q10 -10 10 -20q0 -25 -38 -25q-35 0 -35 22q0 11 8 24v50h-10t-9 1q-34 1 -59 29t-25 69q0 67 26.5 102.5t76.5 53.5v35q-9 9 -9 19q0 11 12 18.5t34 7.5q28 0 28 -29q0 -8 -10 -15v-25 q8 2 21 2q26 0 45 -17.5t19 -32.5q0 -17 -14 -26t-27 -9q-17 0 -20 10q0 9 -11 13q-7 2 -13 0zM98 557q0 -42 17 -48q10 -4 16 -3v125q-32 -22 -33 -74z" />
<glyph unicode="&#xf6e1;" horiz-adv-x="122" d="M19 -197q-21 0 -21 18q0 20 24 19q41 -1 43 37q-7 -7 -21 -7q-13 0 -20.5 12t-7.5 26q0 50 42 50t42 -63q0 -45 -25 -68.5t-56 -23.5z" />
<glyph unicode="&#xf6e2;" horiz-adv-x="122" d="M36 308q-21 0 -21 18q0 20 24 19q41 -1 43 37q-7 -7 -21 -7q-13 0 -20.5 12t-7.5 26q0 50 42 50t42 -63q0 -45 -25 -68.5t-56 -23.5z" />
<glyph unicode="&#xf6e3;" horiz-adv-x="291" d="M165 -100v-31q6 -18 6 -20q0 -14 -10.5 -26t-23.5 -12q-14 0 -25.5 8.5t-11.5 23.5q0 4 4 12t4 10v29q-40 2 -71.5 28t-31.5 53q0 12 11.5 20.5t24.5 8.5q21 0 26 -18q6 -23 41 -31v90q-15 -5 -33 -5q-25 0 -45.5 19.5t-20.5 53.5q0 49 32.5 81t66.5 42v21q-4 14 -4 18 q0 24 30 24q35 0 35 -21q0 -9 -4 -17v-16q44 -1 68.5 -18.5t24.5 -33.5q0 -18 -8.5 -27t-20.5 -9q-23 0 -28 12q-7 12 -36 12v-54q20 5 30 5t20.5 -3t24 -11.5t21.5 -28.5t8 -49q0 -51 -31 -88.5t-73 -51.5zM108 111v62q-31 -14 -32 -48q0 -20 12 -20q8 0 20 6zM165 62v-96 q31 16 31 64q0 36 -18 36q-8 0 -13 -4z" />
<glyph unicode="&#xf6e4;" horiz-adv-x="291" d="M182 404v-30q6 -18 6 -20q0 -14 -10.5 -26t-23.5 -12q-14 0 -25.5 8.5t-11.5 23.5q0 4 4 12t4 10v28q-40 2 -71.5 28.5t-31.5 53.5q0 12 11.5 20.5t24.5 8.5q21 0 26 -18q6 -23 41 -31v90q-15 -5 -33 -5q-25 0 -45.5 19.5t-20.5 53.5q0 49 32.5 81t66.5 42v21 q-4 14 -4 18q0 24 30 24q35 0 35 -21q0 -9 -4 -17v-16q44 -1 68.5 -18.5t24.5 -33.5q0 -18 -8.5 -27t-20.5 -9q-23 0 -28 12q-7 12 -36 12v-54q20 5 30 5t20.5 -3t24 -11.5t21.5 -29t8 -49.5q0 -51 -31 -88.5t-73 -51.5zM125 616v62q-31 -14 -32 -48q0 -20 12 -20q8 0 20 6z M182 567v-97q31 16 31 64q0 37 -18 37q-5 0 -13 -4z" />
<glyph unicode="&#xf6e5;" horiz-adv-x="191" d="M110 -9l-42 -8q-13 -13 -29 -13q-10 0 -19 13.5t-9 30.5q0 20 10 32.5t21 12.5q12 0 19 -7l46 7q10 8 21 8q15 0 24.5 -12t9.5 -31q0 -18 -10 -30t-22 -12q-13 0 -20 9z" />
<glyph unicode="&#xf6e6;" horiz-adv-x="191" d="M128 496l-42 -8q-13 -13 -29 -13q-10 0 -19 13.5t-9 30.5q0 20 10 32.5t21 12.5q12 0 19 -7l46 7q10 8 21 8q14 0 24 -12.5t10 -31.5q0 -17 -10 -29t-22 -12q-15 0 -20 9z" />
<glyph unicode="&#xf6e7;" horiz-adv-x="122" d="M53 -130q-13 0 -24.5 11.5t-11.5 30.5q0 16 12 31t33 15q38 0 38 -43q0 -18 -11.5 -31.5t-35.5 -13.5z" />
<glyph unicode="&#xf6e8;" horiz-adv-x="122" d="M71 375q-13 0 -24.5 11t-11.5 30q0 17 12 32t33 15q38 0 38 -43q0 -18 -11.5 -31.5t-35.5 -13.5z" />
<glyph unicode="&#xf6f4;" d="M138 519q-40 0 -68.5 34.5t-28.5 68.5q0 32 35 32q33 0 33 -29q0 -16 9 -29.5t22 -13.5q34 0 46 36q-4 7 -4 17t12.5 16.5t26.5 6.5t23.5 -7.5t9.5 -20.5q0 -16 -7 -24q-16 -43 -41 -65t-68 -22z" />
<glyph unicode="&#xf6f5;" d="M245 600l-61 -63q-12 -13 -36 -13q-20 0 -29 17l-36 61q-18 11 -18 28q0 36 36 36q20 0 32 -29l27 -44l41 46q2 11 11.5 19t20.5 8q15 0 25.5 -8.5t10.5 -23.5q0 -20 -24 -34z" />
<glyph unicode="&#xf6f6;" d="M188 678l51 -90q13 -13 13 -30q0 -13 -11 -23.5t-27 -10.5q-15 0 -21 10.5t-5 22.5l-35 68l-43 -69q1 -14 -8 -23t-21 -9q-16 0 -26.5 11.5t-10.5 23.5q0 13 17 32l64 95q15 21 30 21q20 0 33 -29z" />
<glyph unicode="&#xf6f7;" d="M142 537q-40 0 -40 49q0 37 15 62t42 25q18 0 29 -12t11 -33q0 -41 -17 -66t-40 -25z" />
<glyph unicode="&#xf6f8;" d="M295 641l-69 -91q3 -14 -10 -29t-33 -15q-33 0 -33 38q0 17 12 23l71 94q-7 14 4.5 29.5t33.5 15.5q14 0 27 -10.5t13 -29.5q0 -13 -16 -25zM164 641l-69 -91q3 -13 -9.5 -28.5t-32.5 -15.5q-33 0 -34 38q1 17 14 23l69 94q-6 14 5.5 29.5t33.5 15.5q14 0 27 -10.5 t13 -29.5q0 -14 -17 -25z" />
<glyph unicode="&#xf6f9;" horiz-adv-x="302" d="M154 290l32 22q1 6 10.5 12t20.5 6q15 0 27 -11.5t12 -28.5t-15.5 -31t-30.5 -6l-56 -34v-148l93 12q12 12 29 12q15 0 27 -10.5t12 -31.5q0 -23 -10.5 -35t-25.5 -12q-8 0 -24 4l-110 -17q-18 -4 -37 -4q-48 0 -48 40q0 21 11 32v116l-15 -10q-2 -14 -29 -14 q-14 0 -23 9.5t-9 23.5q0 21 8.5 34t17.5 13q15 0 18 -1l32 18v155q-5 10 -5 21q0 48 51 48q44 0 44 -46q0 -10 -7 -24v-114z" />
<glyph unicode="&#xf6fa;" horiz-adv-x="671" d="M417 371v-97l138 16q4 0 11 5t12 5q19 0 28 -11.5t9 -26.5q0 -13 -1.5 -19t-12.5 -13t-34 -10l-150 -17v-130l192 24q20 2 35 -8t15 -33q0 -19 -12.5 -29t-28.5 -10q-3 0 -6 1t-6.5 2.5t-6.5 2.5l-179 -23q-2 0 -8 -4.5t-17 -8t-27 -3.5q-18 0 -30 10t-12 24q0 25 8 32 v21q-38 -46 -79 -65.5t-105 -19.5q-59 0 -96 55t-37 144q0 128 73.5 218t163.5 90q49 0 82 -37l1 2q2 12 13.5 20t26.5 8q25 0 36.5 -14t5.5 -29l182 26q19 3 31.5 -6t12.5 -29q0 -16 -11 -29.5t-26 -13.5q-4 0 -16 2.5t-16 1.5zM187 58q46 0 89 39.5t58 99.5v151 q-9 32 -35 53t-55 21q-58 0 -99.5 -68.5t-41.5 -162.5q0 -69 19.5 -101t64.5 -32z" />
<glyph unicode="&#xf6fb;" d="M137 -139q-39 0 -64 21t-25 63q0 55 33.5 96t65.5 44q0 6 11 10.5t22 4.5q13 0 22.5 -7t9.5 -18q0 -31 -31 -31q-12 0 -29 -11.5t-28 -27.5q-17 -24 -17 -57q0 -15 10.5 -24t24.5 -9q32 0 37 20q-3 3 -3 10q0 18 30 18q14 0 23 -9.5t9 -24.5q0 -25 -27 -46.5t-74 -21.5z " />
<glyph unicode="&#xf6fc;" d="M146 519q-27 0 -45 23.5t-18 59.5q0 31 32 55.5t55 24.5q30 0 50.5 -21t20.5 -61q0 -36 -31.5 -58.5t-63.5 -22.5zM154 566q13 0 25.5 9t12.5 23q0 37 -20 37q-15 0 -27.5 -10t-12.5 -27q0 -32 22 -32z" />
<glyph unicode="&#xf6fd;" horiz-adv-x="423" d="M240 476q44 0 77.5 -20t33.5 -49q0 -16 -13 -28t-31 -12q-38 0 -43 25q-9 13 -37 13q-41 0 -75.5 -30t-34.5 -66q0 -31 24 -31q21 0 74 14q58 15 87 15q41 0 67 -28t26 -75q0 -60 -36 -111q-33 -48 -95 -76t-120 -28q-55 0 -83 30.5t-28 57.5q0 19 13 34.5t33 15.5 q9 0 16.5 -5.5t10 -10t6.5 -15.5l5 -12q9 -23 35 -23q36 0 73.5 17.5t59.5 45.5q26 32 26 73q0 35 -32 35q-25 0 -75 -15q-53 -14 -86 -14q-39 0 -63 23.5t-24 71.5q0 66 62 122t147 56zM302 600l-62 -63q-13 -13 -36 -13q-20 0 -29 18l-37 60q-18 11 -18 28q0 16 9.5 26 t26.5 10q21 0 33 -29l27 -44l42 46q2 11 11 19t20 8q15 0 26 -8.5t11 -23.5t-24 -34z" />
<glyph unicode="&#xf6fe;" d="M194 545q-30 0 -62 32q-19 21 -28 21q-20 0 -29 -27q-11 -22 -33 -22q-36 0 -36 33q0 5 6.5 13t7.5 9q18 31 38 43.5t50 12.5q22 0 51 -27q28 -28 41 -28q20 0 20 31q0 28 33 28q15 0 25.5 -8t10.5 -18q0 -4 -5 -17q-24 -76 -90 -76z" />
<glyph unicode="&#xf6ff;" horiz-adv-x="407" d="M275 407l-139 -11q-14 -39 -50 -39q-19 0 -28 11.5t-9 25.5q0 35 16 60.5t43 25.5q18 0 26 -10l175 11q4 0 16.5 1.5t18.5 1.5q16 0 27.5 -8.5t11.5 -19.5q0 -25 -26 -61l-234 -328l163 6q1 21 14 34t31 13q46 0 46 -49q0 -35 -13.5 -53.5t-29.5 -18.5q-6 0 -38 0.5 t-70 0.5q-28 0 -84 -3l-31.5 -2t-24 -1.5t-13.5 -0.5q-50 0 -50 45q0 20 17 38zM304 600l-61 -63q-12 -13 -36 -13q-20 0 -29 17l-36 61q-18 10 -18 28q0 36 36 36q19 0 32 -29l27 -44l41 46q2 11 11.5 19t20.5 8q15 0 25.5 -8.5t10.5 -23.5q0 -20 -24 -34z" />
<glyph unicode="&#xf721;" horiz-adv-x="173" d="M128 423v-224q8 -8 8 -38q0 -16 -20 -28.5t-44 -12.5q-18 0 -28 14t-10 29q0 19 11 32v224q-11 18 -11 32q0 24 13.5 34t53.5 10q20 0 28.5 -8.5t8.5 -30.5q0 -18 -10 -33zM76 -5q-14 0 -25 12t-11 27q0 24 17.5 42t39.5 18q35 0 35 -48q0 -25 -12.5 -38t-43.5 -13z" />
<glyph unicode="&#xf726;" horiz-adv-x="411" d="M215 287l76 -103q15 30 15 48q0 8 6 14.5t15 6.5q22 0 37 -11.5t15 -25.5q0 -20 -13 -21q-15 -47 -35 -74q31 -46 36 -46q3 0 15 9.5t21 9.5q20 0 20 -23q0 -21 -30 -47.5t-54 -26.5q-17 0 -21 19l-33 49q-39 -45 -76 -62t-83 -17t-80.5 34t-34.5 106q0 56 29.5 104 t78.5 74q-15 23 -22.5 35.5t-15.5 34.5t-8 45q0 21 24 43t75 22q55 0 86 -19t31 -53q0 -70 -74 -125zM177 430q-30 0 -30 -28q0 -25 29 -61q18 12 30 31.5t12 30.5q0 27 -41 27zM246 126l-90 123q-33 -23 -51.5 -49t-18.5 -66q0 -35 15.5 -55t40.5 -20q51 0 104 67z" />
<glyph unicode="&#xf730;" horiz-adv-x="412" d="M382 258q0 -103 -62.5 -189t-149.5 -86q-66 0 -104 51t-38 135q0 106 61 192t142 86q65 0 108 -53t43 -136zM298 260q0 49 -20 80.5t-53 31.5q-39 0 -76 -60t-37 -143q0 -53 18 -82t43 -29q49 0 87 64t38 138z" />
<glyph unicode="&#xf731;" horiz-adv-x="278" d="M210 404v-354q7 -12 7 -22q0 -34 -57 -34q-42 0 -42 32q0 16 9 27v286l-26 -16q-14 -26 -33 -26q-18 0 -32 14t-14 37q0 31 39 43l71 40l14 11q15 11 26 11q17 0 28.5 -9.5t11.5 -22.5t-2 -17z" />
<glyph unicode="&#xf732;" horiz-adv-x="361" d="M342 73l-11 -45q-3 -13 -15.5 -21t-28.5 -8q-12 0 -20 4l-181 -5q-21 -9 -32 -9q-42 0 -42 39q0 22 30 52q123 125 146 162q29 46 29 85q0 23 -14 37.5t-39 14.5q-27 0 -48 -21v-8q-5 -18 -18.5 -30.5t-31.5 -12.5q-19 0 -31.5 13t-12.5 34q0 32 32 51q52 46 117 46 q61 0 98 -33t37 -87q0 -79 -79 -164q-30 -42 -92 -98l129 8q0 2 1 5t2 5q12 28 41 28q19 0 28.5 -11.5t5.5 -30.5z" />
<glyph unicode="&#xf733;" horiz-adv-x="368" d="M96 226l31 8q32 20 59 58.5t27 66.5q0 11 -7.5 17.5t-19.5 6.5q-42 0 -71 -32q-4 -13 -15.5 -23t-24.5 -10q-17 0 -27 13t-10 33q0 28 39 44q24 23 59.5 36t67.5 13q39 0 64.5 -21.5t25.5 -56.5q0 -68 -64 -136q4 0 5 -1q39 -5 66 -38t27 -83q0 -107 -73.5 -199 t-151.5 -92q-43 0 -69.5 22t-26.5 55q0 22 13 34t35 12q16 0 24.5 -9t8.5 -22q0 -2 -0.5 -5t-0.5 -4q2 -7 12 -7q49 0 97.5 68t48.5 137q0 29 -15.5 45.5t-41.5 16.5q-23 0 -47 -11q-22 -12 -36 -12q-16 0 -26 11t-10 28q0 22 27 37z" />
<glyph unicode="&#xf734;" horiz-adv-x="396" d="M289 52v-161q8 -12 8 -29q0 -20 -16.5 -31t-37.5 -11t-32.5 9t-11.5 23q0 21 9 36v156l-148 -17q-10 -5 -15 -5q-44 0 -44 42q0 17 16 41l193 301q5 7 7 20q7 29 41 29q38 0 38 -40q0 -4 -3.5 -21t-3.5 -22v-247l23 2q10 14 27 14q19 0 28.5 -8t9.5 -30q0 -51 -39 -51 q-10 0 -18 4zM208 115v171l-112 -184z" />
<glyph unicode="&#xf735;" horiz-adv-x="361" d="M145 361l-22 -116q33 25 70 25q61 0 98 -42.5t37 -116.5q0 -109 -63.5 -195t-143.5 -86q-53 0 -85.5 23t-32.5 61q0 21 13.5 33t28.5 12q27 0 37 -29q1 -2 2.5 -8t2.5 -8q6 -8 30 -8q48 0 88 60t40 145q0 39 -17 61t-40 22q-45 0 -80 -46q-19 -26 -35 -26t-27 9.5 t-11 25.5q0 5 3 16t3 15l34 191q-2 23 8.5 40.5t32.5 17.5q4 0 16 -2l132 11q14 8 29 8q17 0 27 -11.5t10 -30.5q0 -47 -40 -47q-8 0 -19 7z" />
<glyph unicode="&#xf736;" horiz-adv-x="412" d="M379 247q0 -96 -52 -176t-138 -80q-40 0 -73.5 25.5t-50.5 73.5q-18 14 -18 37q0 6 2 14q0 2 -3.5 38.5t-3.5 56.5q0 156 74.5 270t161.5 114q36 0 60 -19.5t24 -54.5q0 -44 -37 -44q-34 0 -40 29q-2 8 -2 11q-6 3 -15 3q-36 0 -79 -65t-60 -162q-1 -8 0 -12 q46 98 132 98q53 0 85.5 -43.5t32.5 -113.5zM295 248q0 36 -15.5 57t-38.5 21q-32 0 -66 -44t-47 -103q1 -52 19 -82.5t45 -30.5q44 0 73.5 55t29.5 127z" />
<glyph unicode="&#xf737;" horiz-adv-x="363" d="M115 352l-3 -25q3 -9 3 -17q0 -19 -14 -30.5t-35 -11.5q-17 0 -28 10.5t-11 27.5q0 13 4 21l7 49q4 28 12 39.5t33 12.5l192 14q9 0 13 6q11 13 33 13q16 0 26 -10t10 -22q0 -29 -19 -60q-8 -14 -96 -243t-92 -246q-11 -54 -46 -54q-19 0 -31 13t-12 34q0 12 22 70 l168 421l-12 -2z" />
<glyph unicode="&#xf738;" horiz-adv-x="401" d="M377 268q0 -56 -27.5 -115.5t-69.5 -102.5q-63 -68 -127 -68q-61 0 -95.5 39t-34.5 111q0 118 82 202q-36 36 -36 102q0 73 43 127.5t108 54.5q51 0 84.5 -32t33.5 -91q0 -57 -45 -102q38 -11 61 -44.5t23 -80.5zM259 490q0 26 -12 40t-31 14q-27 0 -48 -28.5t-21 -74.5 q0 -22 9 -38t18 -18l12 4q13 7 33 11q40 27 40 90zM293 257q0 69 -56 69q-28 0 -55 -22q-32 -29 -54 -80t-22 -95q0 -34 13 -52t34 -18q39 0 81 52q59 73 59 146z" />
<glyph unicode="&#xf739;" horiz-adv-x="400" d="M365 187q0 -61 -15.5 -124.5t-43.5 -119t-73.5 -91t-100.5 -35.5q-39 0 -67 19t-28 49q0 19 11 32.5t29 13.5q24 0 33 -22q2 -6 3 -10q8 -6 29 -6q40 0 79.5 61.5t51.5 148.5q1 1 1 4t1 4q-16 -31 -34 -46q-39 -32 -91 -32q-50 0 -83.5 41.5t-33.5 116.5 q0 105 53.5 179.5t127.5 74.5q56 0 91.5 -36.5t46.5 -94.5q14 -16 14 -37q0 -8 -3 -23q2 -44 2 -67zM212 369q-36 0 -65.5 -48t-29.5 -124q0 -40 15 -62t38 -22q24 0 53 27q44 40 57 95q-2 61 -20.5 97.5t-47.5 36.5z" />
<glyph unicode="&#xf73f;" horiz-adv-x="326" d="M140 100q-73 0 -73 75q0 30 18.5 58t68.5 70q44 37 57.5 55.5t13.5 36.5q0 13 -10 22t-25 9q-19 0 -34.5 -8t-21.5 -15.5t-17 -22.5q2 -17 -9 -30t-23 -13q-19 0 -33.5 11.5t-14.5 30.5q0 29 14 32q50 84 159 84q45 0 73 -26t28 -55q0 -33 -18 -64t-78 -84 q-53 -46 -67 -61.5t-14 -28.5q0 -16 12 -16q20 0 20 21q0 6 8 11.5t19 5.5q40 0 40 -30q0 -26 -24 -47t-69 -21zM128 -12q-16 0 -27 10t-11 28q0 52 51 52q17 0 26 -11.5t9 -30.5q0 -18 -12 -33t-36 -15z" />
<glyph unicode="&#xf760;" d="M130 677l43 -70q7 -3 13.5 -11.5t6.5 -18.5q0 -35 -42 -35q-15 0 -24.5 11t-8.5 25l-42 69q-20 9 -20 32q0 36 42 36q30 0 32 -38z" />
<glyph unicode="&#xf761;" horiz-adv-x="431" d="M291 152l-156 -13q-26 -50 -29 -63q-4 -13 -4 -43q0 -37 -52 -37q-19 0 -30.5 11.5t-11.5 26.5q0 6 1.5 12t5.5 15.5l7 17t10.5 23.5l12.5 27l113 244q15 32 19 54q-1 24 11.5 43t35.5 19q24 0 35.5 -11.5t11.5 -22.5q0 -9 -3 -19t-3 -16q0 -7 4.5 -21.5t13.5 -35 l16 -36.5l18 -39.5t14 -30.5q77 -173 77 -207q0 -26 -14.5 -40t-37.5 -14q-18 0 -31 10t-13 23q0 9 3 19.5t3 12.5q0 18 -27 91zM160 208l105 9l-48 125z" />
<glyph unicode="&#xf762;" horiz-adv-x="437" d="M57 67v337q-5 9 -5 23q0 22 16.5 32.5t38.5 10.5q31 0 33 -20q70 26 131 28q34 0 59 -18t25 -47q0 -60 -63 -100v-1q4 1 12 1q48 0 76 -30t28 -67q0 -55 -38 -100.5t-91.5 -70.5t-103.5 -38.5t-83 -13.5q-50 0 -50 40q0 28 15 34zM140 379v-78q45 2 88 29.5t43 56.5 q0 19 -36 19q-47 0 -95 -27zM140 212v-136q60 8 120.5 44t60.5 83q0 17 -18 34t-50 17q-39 0 -85 -18q-28 -12 -28 -24z" />
<glyph unicode="&#xf763;" horiz-adv-x="383" d="M237 482q50 0 84.5 -19.5t34.5 -51.5q0 -24 -11.5 -36.5t-30.5 -12.5q-36 0 -40 30q-5 17 -38 17q-44 0 -81.5 -78t-37.5 -149q0 -51 16 -86.5t53 -35.5q46 0 76 37q0 1 1 7t1.5 8t2 7.5t3 8l4 7t5.5 6.5l7 4.5t9.5 3.5t11.5 1q20 0 30.5 -12.5t10.5 -25.5q0 -31 -17 -51 q-21 -26 -66 -50t-100 -24q-60 0 -97 49t-37 151q0 59 24.5 126t73.5 118t108 51z" />
<glyph unicode="&#xf764;" horiz-adv-x="426" d="M50 64v355q-4 16 -4 24q0 14 11.5 26.5t36.5 12.5q22 0 32 -10.5t7 -24.5q55 32 124 32q51 0 95.5 -48t44.5 -120q0 -130 -67 -210q-42 -50 -109.5 -80.5t-127.5 -30.5q-52 0 -52 37q0 23 9 37zM133 370v-298q39 5 76 25.5t60 53.5q42 59 42 143q0 47 -23 78.5t-54 31.5 q-52 0 -101 -34z" />
<glyph unicode="&#xf765;" horiz-adv-x="386" d="M139 198v-125l151 12q9 11 26 11q22 0 34 -10.5t12 -26.5q0 -26 -15.5 -34.5t-54.5 -11.5l-154 -11q-12 -14 -49 -14q-19 0 -31.5 12t-12.5 31q0 21 11 38v117q-15 17 -15 34q0 20 15 40v100q-17 15 -17 34q0 23 13 32q-6 6 -6 14q0 14 14.5 23.5t35.5 9.5q40 0 42 -30 l120 14q15 13 30 13q25 0 38 -11t13 -28q0 -47 -49 -47q-6 0 -28 4l-123 -15v-105l90 13q19 13 30 13q22 0 35 -12.5t13 -29.5q0 -45 -52 -45q-9 0 -16 5z" />
<glyph unicode="&#xf766;" horiz-adv-x="353" d="M140 200v-129q11 -17 11 -35q0 -20 -16 -31t-42 -11q-50 0 -50 40q0 26 14 45v105q-13 14 -13 37q0 28 13 41v97q-5 3 -10.5 16t-5.5 24q0 27 17 30q-1 22 15 33t38 11q15 0 24 -7.5t4 -18.5l118 22q3 1 15 5.5t18 4.5q19 0 32.5 -10.5t13.5 -28.5q0 -26 -11 -37.5 t-35 -11.5q-16 0 -31 7l-119 -23v-102l107 19q15 12 37 12q14 0 23.5 -14t9.5 -29q0 -27 -10.5 -37.5t-31.5 -10.5q-19 0 -30 5z" />
<glyph unicode="&#xf767;" horiz-adv-x="455" d="M289 489q56 0 84 -32q27 -30 27 -56q0 -16 -11 -27.5t-31 -11.5t-29.5 9t-16.5 30q-1 6 -9 12t-19 6q-31 0 -75 -39q-94 -77 -94 -200q0 -63 20.5 -92.5t54.5 -29.5q64 0 108 53q33 42 45 98q-13 -5 -42.5 -11t-43.5 -6q-12 0 -20.5 9t-8.5 27q0 16 10 29.5t27 13.5 q34 0 75.5 9.5t46.5 9.5q18 0 28 -12.5t10 -29.5q0 -21 -7 -50.5t-25.5 -67.5t-45 -69t-72 -52.5t-100.5 -21.5q-70 0 -107 50.5t-37 143.5q0 80 36.5 145t93.5 107q73 56 128 56z" />
<glyph unicode="&#xf768;" horiz-adv-x="437" d="M139 211v-148q7 -17 7 -28q0 -17 -13 -28t-30 -11q-54 0 -54 35q0 27 7 28v146q-14 12 -14 28q0 36 14 44v134q-6 18 -6 26q0 16 16.5 26.5t40.5 10.5q11 0 24.5 -11.5t13.5 -26.5t-6 -27v-122l159 11v108q-6 10 -6 32q0 17 15 26.5t33 9.5q13 0 30 -12t17 -23 q0 -15 -6 -25v-356q6 -14 6 -27q0 -14 -15.5 -24.5t-33.5 -10.5q-20 0 -33.5 12.5t-13.5 30.5q0 17 7 29v153z" />
<glyph unicode="&#xf769;" horiz-adv-x="196" d="M140 391v-322q12 -16 12 -28q0 -17 -15 -31t-38 -14q-24 0 -38.5 12t-14.5 32q0 17 11 33v323q-10 6 -10 26q0 22 18 37t40 15q48 0 48 -50q0 -19 -13 -33z" />
<glyph unicode="&#xf76a;" horiz-adv-x="372" d="M314 390v-285q0 -64 -50 -104q-50 -41 -122 -41q-57 0 -91 31.5t-34 84.5q0 25 11.5 46t32.5 21q22 0 38 -15t16 -31q0 -21 -13 -32q0 -12 11 -19.5t28 -7.5q32 0 58 22q32 27 32 59v267q-13 9 -13 32q0 52 56 52q19 0 33 -15t14 -38q0 -20 -7 -27z" />
<glyph unicode="&#xf76b;" horiz-adv-x="407" d="M141 237v-174q8 -6 10 -22q1 -24 -14.5 -34.5t-36.5 -10.5q-23 0 -38 11.5t-14 34.5q0 16 10 24v342q-5 6 -5 21q0 23 13 34t31 11q20 0 34.5 -9t14.5 -29q0 -22 -5 -24v-96h1q17 27 38 44l87 78q15 35 43 35q13 0 30.5 -10.5t17.5 -30.5q0 -12 -11 -27t-25 -16 l-123 -109l169 -210q11 -2 19 -11t8 -18q0 -16 -16.5 -32t-38.5 -16q-43 0 -43 31l-118 152q-30 39 -37 61h-1z" />
<glyph unicode="&#xf76c;" horiz-adv-x="322" d="M141 403v-332l93 12q12 12 29 12q15 0 27 -10.5t12 -31.5q0 -23 -10.5 -35t-25.5 -12q-8 0 -24 4l-110 -17q-18 -4 -37 -4q-48 0 -48 40q0 21 11 32v344q-5 10 -5 21q0 48 51 48q44 0 44 -46q0 -9 -7 -25z" />
<glyph unicode="&#xf76d;" horiz-adv-x="531" d="M51 63v362q0 28 11 38t37 10q39 0 39 -30t55.5 -134.5t63.5 -155.5h2q8 44 35.5 96t52 93.5t26.5 61.5q0 6 -1 21.5t-1 20.5q0 30 43 30q59 0 59 -44q0 -12 -5 -25v-345q6 -8 6 -24q0 -19 -15 -30.5t-34 -11.5q-46 0 -46 36q0 18 9 28v226h-1q-26 -47 -59 -136t-33 -118 q0 -32 -38 -32q-48 0 -48 49q0 36 -24 108.5t-57 133.5h-2q2 -31 2 -225q9 -11 9 -29t-12.5 -29.5t-35.5 -11.5q-44 0 -44 40q0 22 6 27z" />
<glyph unicode="&#xf76e;" horiz-adv-x="430" d="M58 61v344q-6 11 -6 26q0 17 12 30t34 13q28 0 38 -8t10 -26q0 -22 20 -66q26 -51 71 -106q47 -60 59 -92h1q-2 51 -2 244l-4 8q-4 9 -4 14q0 40 40 40q20 0 35 -8.5t15 -23.5q0 -11 -5 -26v-375q9 -16 9 -22q0 -16 -10.5 -23.5t-37.5 -7.5q-13 0 -22.5 8.5t-13.5 16.5 t-10 24q-9 29 -36 74.5t-51 76.5q-60 83 -68 106h-1q4 -150 4 -241q7 -12 7 -23q0 -22 -9.5 -32t-32.5 -10q-52 0 -52 42q0 10 10 23z" />
<glyph unicode="&#xf76f;" horiz-adv-x="430" d="M248 495q63 0 105.5 -55.5t42.5 -171.5q0 -120 -66 -201t-160 -81q-38 0 -67 18t-44.5 48t-23 62t-7.5 65q0 73 30.5 146.5t82 121.5t107.5 48zM235 423q-40 0 -80 -76t-40 -156q0 -56 17.5 -94.5t56.5 -38.5q45 0 83 60.5t38 145.5q0 159 -75 159z" />
<glyph unicode="&#xf770;" horiz-adv-x="395" d="M61 60v240q-23 5 -23 36q0 36 23 49v26q-4 8 -4 24q0 14 14.5 24.5t28.5 10.5q23 0 34 -9.5t9 -24.5v-8q77 45 136 45q46 0 70.5 -25t24.5 -65q0 -61 -54.5 -116.5t-175.5 -83.5v-126q10 -17 10 -22q0 -23 -12 -31t-46 -8q-21 0 -32.5 10t-11.5 25q0 18 9 29zM144 355 v-104q147 38 147 117q0 31 -40 31q-50 0 -107 -44z" />
<glyph unicode="&#xf771;" horiz-adv-x="450" d="M271 491q65 0 98.5 -54t33.5 -141q0 -49 -13.5 -107t-31.5 -92q32 -38 64 -58q30 -7 30 -32q0 -21 -14.5 -33.5t-32.5 -12.5q-29 0 -37 20q-29 19 -62 56q-50 -48 -124 -48q-68 0 -109.5 42.5t-41.5 137.5q0 136 70 229t170 93zM257 419q-53 0 -95.5 -74t-42.5 -177 q0 -53 19.5 -80t48.5 -27q46 0 69 31q-41 41 -72 57q-16 12 -3 39t40 27q18 0 34 -14q25 -23 40 -41q23 58 23 146q0 53 -17.5 83t-43.5 30z" />
<glyph unicode="&#xf772;" horiz-adv-x="437" d="M50 46q0 10 11 26v256q-2 -1 -7 -1q-3 0 -6.5 2.5t-7 10.5t-3.5 19q0 39 24 48v10q-5 13 -5 24q0 17 15 29t34 12q16 0 27.5 -11t10.5 -27q0 -5 -1 -9q79 38 148 38q41 0 68.5 -23t27.5 -59q0 -113 -188 -153l183 -157q22 8 38.5 -6.5t16.5 -28.5q0 -24 -16.5 -39.5 t-37.5 -15.5q-30 0 -42 25l-198 180v-127q8 -28 8 -29q0 -44 -65 -44q-15 0 -25 14.5t-10 35.5zM142 369v-84q160 34 160 96q0 24 -35 24q-55 0 -125 -36z" />
<glyph unicode="&#xf773;" horiz-adv-x="423" d="M240 476q44 0 77.5 -20t33.5 -49q0 -16 -13 -28t-31 -12q-38 0 -43 25q-9 13 -37 13q-41 0 -75.5 -30t-34.5 -66q0 -31 24 -31q21 0 74 14q58 15 87 15q41 0 67 -28t26 -75q0 -60 -36 -111q-33 -48 -95 -76t-120 -28q-55 0 -83 30.5t-28 57.5q0 19 13 34.5t33 15.5 q9 0 16.5 -5.5t10 -10t6.5 -15.5l5 -12q9 -23 35 -23q36 0 73.5 17.5t59.5 45.5q26 32 26 73q0 35 -32 35q-25 0 -75 -15q-53 -14 -86 -14q-39 0 -63 23.5t-24 71.5q0 66 62 122t147 56z" />
<glyph unicode="&#xf774;" horiz-adv-x="345" d="M216 394v-333q8 -20 8 -21q0 -44 -57 -44q-39 0 -39 37q0 17 5 30v318l-58 -14q-14 -10 -29 -10q-17 0 -27 11t-10 27q0 19 10.5 32t22.5 13q4 0 24 -4l74 18q8 9 28.5 13t33.5 -1l78 18q16 6 26 6q36 0 36 -43q0 -17 -9.5 -29.5t-24.5 -12.5q-12 0 -26 6z" />
<glyph unicode="&#xf775;" horiz-adv-x="429" d="M173 -12q-54 0 -88 27.5t-34 78.5v321q-11 22 2 38.5t37 16.5q40 0 40 -48v-333q4 -9 16.5 -16.5t27.5 -7.5q37 0 65 15t38.5 30t10.5 24v282q-7 7 -7 20q0 19 14 30t37 11q14 0 26 -8.5t12 -25.5q0 -12 -3 -18v-300q0 -12 -9 -34.5t-24 -37.5q-67 -65 -161 -65z" />
<glyph unicode="&#xf776;" horiz-adv-x="383" d="M166 151q7 29 22.5 68.5t27.5 65.5l34 73t26 55q8 51 48 51q42 0 42 -45q0 -22 -17 -44q-26 -39 -77 -141q-26 -54 -44.5 -108.5t-18.5 -70.5q0 -33 -15 -47.5t-47 -12.5q-16 -2 -32 10t-14 25q0 9 1.5 23t1.5 21q0 38 -44 187q-2 7 -7.5 25l-7 23l-6 19.5t-5.5 19.5 t-4 16.5t-3.5 17.5t-2 15t-2 16t-0.5 15q0 42 45 42q17 0 26 -10t11 -21.5t3 -30.5q0 -18 34 -147q21 -82 25 -110z" />
<glyph unicode="&#xf777;" horiz-adv-x="550" d="M136 -6q-35 0 -35 74q0 54 -29 172q-34 122 -34 187q0 23 13.5 35t31.5 12q19 0 29.5 -10t10.5 -27q0 -5 -2 -16t-2 -17q0 -58 19 -134q17 -76 20 -112q16 61 42 129q28 71 25 129q0 49 36 49q28 1 37.5 -12.5t9.5 -47.5t37 -136q23 -66 35 -108q6 40 31 122 q14 42 26 138q-6 9 -6 22q0 17 10 29t34 12q21 0 35 -10.5t14 -22.5q0 -24 -2 -36q-5 -28 -39 -144q-45 -140 -52 -212q-3 -38 -13 -54t-35 -16t-33 14.5t-13 56.5q-7 42 -42 138l-14 40l-15 43q-6 -20 -19.5 -54.5l-17.5 -44.5q-37 -102 -37 -151q0 -17 -14.5 -27 t-41.5 -10z" />
<glyph unicode="&#xf778;" horiz-adv-x="370" d="M62 -4q-15 0 -26.5 10.5t-11.5 26.5q0 21 20 36q42 76 106 180q-48 90 -91 144q-20 26 -20 39q0 19 10.5 30.5t26.5 11.5q22 0 36 -11q8 -7 19 -28l27.5 -55t31.5 -59q13 21 66 119q11 30 45 30q19 0 31.5 -10.5t12.5 -29.5q0 -8 -3.5 -16t-6 -11.5t-9.5 -11.5l-6 -8 q-35 -35 -92 -132l96 -184q13 -11 13 -26q0 -20 -16 -32.5t-35 -12.5q-21 0 -29.5 13.5t-5.5 30.5q-6 12 -29.5 62.5l-36.5 77.5q-15 -27 -30 -59.5t-26 -61t-14 -33.5q-17 -30 -53 -30z" />
<glyph unicode="&#xf779;" horiz-adv-x="412" d="M164 74v158q-17 37 -62.5 87t-63.5 81q-26 13 -26 40q0 19 18 31t37 13q16 1 27.5 -10.5t10.5 -28.5q7 -19 49 -69.5t53 -71.5h1q13 19 50 57.5t52 60.5q14 23 15 25q5 13 8 19t12 12t23 6q18 0 29.5 -9.5t11.5 -26.5q0 -16 -21 -47q-6 -9 -16.5 -21.5t-13.5 -16.5 q-9 -12 -53.5 -58.5t-56.5 -73.5v-168q10 -13 10 -24q0 -17 -14.5 -30t-41.5 -13q-26 0 -36.5 8.5t-10.5 34.5q0 27 9 35z" />
<glyph unicode="&#xf77a;" horiz-adv-x="407" d="M275 407l-139 -11q-14 -39 -50 -39q-19 0 -28 11.5t-9 25.5q0 35 16 60.5t43 25.5q18 0 26 -10l175 11q4 0 16.5 1.5t18.5 1.5q16 0 27.5 -8.5t11.5 -19.5q0 -25 -26 -61l-234 -328l163 6q1 21 14 34t31 13q46 0 46 -49q0 -35 -13.5 -53.5t-29.5 -18.5q-6 0 -38 0.5 t-70 0.5q-28 0 -84 -3l-31.5 -2t-24 -1.5t-13.5 -0.5q-50 0 -50 45q0 20 17 38z" />
<glyph unicode="&#xf7a1;" horiz-adv-x="173" d="M98 474q14 0 25 -12t11 -27q0 -24 -17.5 -42t-39.5 -18q-35 0 -35 48q0 25 12 38t44 13zM46 45v224q-8 8 -8 39q0 16 20 28t44 12q18 0 28 -14t10 -29q0 -21 -11 -32v-225q11 -16 11 -31q0 -24 -13.5 -34t-53.5 -10q-21 0 -29.5 8.5t-8.5 29.5t11 34z" />
<glyph unicode="&#xf7a8;" d="M67 548q-18 0 -28 18.5t-10 36.5q0 57 49 57q45 0 45 -42q0 -38 -10.5 -54t-45.5 -16zM215 550q-42 0 -42 52q0 58 43 58q16 0 33.5 -12.5t17.5 -35.5q0 -62 -52 -62z" />
<glyph unicode="&#xf7af;" d="M207 595l-109 -16q-12 -4 -23 -4q-12 0 -21.5 11.5t-9.5 25.5q0 20 9.5 30t21.5 10l20 -4l100 13q14 7 24 7q13 0 23 -10.5t10 -27.5q0 -21 -16 -30.5t-29 -4.5z" />
<glyph unicode="&#xf7b4;" d="M249 652l-57 -77q-1 -13 -11.5 -23t-27.5 -10q-35 0 -37 34q2 27 22 30l59 79q-6 17 5.5 25t28.5 8t27.5 -9t10.5 -25q0 -23 -20 -32z" />
<glyph unicode="&#xf7b8;" d="M190 59q0 -6 -4.5 -13.5t-11.5 -8.5l-21 -42q29 1 46.5 -19t17.5 -55q0 -43 -28 -73.5t-77 -30.5q-21 0 -34 13q-10 -6 -15 -6q-8 0 -15 10.5t-7 23.5q0 15 10 27t20 12q5 0 11 -5t6 -10q13 -9 25 -9q22 0 36.5 12.5t14.5 33.5q0 28 -21 28q-2 0 -12 -6q-5 -6 -23 -6 q-11 0 -17.5 7t-6.5 17q0 16 12 26l47 83q0 9 6.5 14.5t15.5 5.5t17 -9t8 -20z" />
<glyph unicode="&#xf7bf;" horiz-adv-x="326" d="M184 474q16 0 27 -10t11 -28q0 -52 -51 -52q-17 0 -26 11.5t-9 30.5q0 18 12 33t36 15zM172 362q73 0 73 -75q0 -30 -18.5 -58.5t-68.5 -70.5q-44 -37 -57.5 -55.5t-13.5 -36.5q0 -13 10 -22t25 -9q19 0 34 8t22 16t17 23q-2 17 9 29.5t23 12.5q19 0 33 -11t14 -30 q0 -30 -13 -33q-50 -84 -159 -84q-45 0 -73 26t-28 55q0 34 18 64.5t78 83.5q52 46 66.5 62.5t14.5 28.5q0 16 -13 16q-20 0 -20 -21q0 -6 -8 -11.5t-19 -5.5q-40 0 -40 30q0 27 24.5 47.5t69.5 20.5z" />
<glyph unicode="&#xf7e0;" horiz-adv-x="431" d="M291 152l-156 -13q-26 -50 -29 -63q-4 -13 -4 -43q0 -37 -52 -37q-19 0 -30.5 11.5t-11.5 26.5q0 6 1.5 12t5.5 15.5l7 17t10.5 23.5l12.5 27l113 244q15 32 19 54q-1 24 11.5 43t35.5 19q24 0 35.5 -11.5t11.5 -22.5q0 -9 -3 -19t-3 -16q0 -7 4.5 -21.5t13.5 -35 l16 -36.5l18 -39.5t14 -30.5q77 -173 77 -207q0 -26 -14.5 -40t-37.5 -14q-18 0 -31 10t-13 23q0 9 3 19.5t3 12.5q0 18 -27 91zM160 208l105 9l-48 125zM199 676l43 -70q20 -8 20 -30q0 -35 -42 -35q-15 0 -24.5 11t-8.5 25l-42 69q-20 9 -20 32q0 36 42 36q30 0 32 -38z " />
<glyph unicode="&#xf7e1;" horiz-adv-x="431" d="M291 152l-156 -13q-26 -50 -29 -63q-4 -13 -4 -43q0 -37 -52 -37q-19 0 -30.5 11.5t-11.5 26.5q0 6 1.5 12t5.5 15.5l7 17t10.5 23.5l12.5 27l113 244q15 32 19 54q-1 24 11.5 43t35.5 19q24 0 35.5 -11.5t11.5 -22.5q0 -9 -3 -19t-3 -16q0 -7 4.5 -21.5t13.5 -35 l16 -36.5l18 -39.5t14 -30.5q77 -173 77 -207q0 -26 -14.5 -40t-37.5 -14q-18 0 -31 10t-13 23q0 9 3 19.5t3 12.5q0 18 -27 91zM160 208l105 9l-48 125zM317 650l-57 -77q-2 -13 -12.5 -23t-26.5 -10q-36 0 -38 35q1 10 7 19t15 10l59 79q-6 17 5.5 25t29.5 8q17 0 27.5 -9 t10.5 -25q0 -23 -20 -32z" />
<glyph unicode="&#xf7e2;" horiz-adv-x="431" d="M291 152l-156 -13q-26 -50 -29 -63q-4 -13 -4 -43q0 -37 -52 -37q-19 0 -30.5 11.5t-11.5 26.5q0 6 1.5 12t5.5 15.5l7 17t10.5 23.5l12.5 27l113 244q15 32 19 54q-1 24 11.5 43t35.5 19q24 0 35.5 -11.5t11.5 -22.5q0 -9 -3 -19t-3 -16q0 -7 4.5 -21.5t13.5 -35 l16 -36.5l18 -39.5t14 -30.5q77 -173 77 -207q0 -26 -14.5 -40t-37.5 -14q-18 0 -31 10t-13 23q0 9 3 19.5t3 12.5q0 18 -27 91zM160 208l105 9l-48 125zM257 677l52 -91q12 -12 12 -30q0 -14 -10.5 -24t-27.5 -10q-16 0 -22 10.5t-4 22.5l-35 68l-44 -69q1 -14 -8 -23 t-20 -9q-17 0 -27 11.5t-10 23.5q0 13 17 32l63 95q17 21 31 21q16 0 33 -28z" />
<glyph unicode="&#xf7e3;" horiz-adv-x="431" d="M291 152l-156 -13q-26 -50 -29 -63q-4 -13 -4 -43q0 -37 -52 -37q-19 0 -30.5 11.5t-11.5 26.5q0 6 1.5 12t5.5 15.5l7 17t10.5 23.5l12.5 27l113 244q15 32 19 54q-1 24 11.5 43t35.5 19q24 0 35.5 -11.5t11.5 -22.5q0 -9 -3 -19t-3 -16q0 -7 4.5 -21.5t13.5 -35 l16 -36.5l18 -39.5t14 -30.5q77 -173 77 -207q0 -26 -14.5 -40t-37.5 -14q-18 0 -31 10t-13 23q0 9 3 19.5t3 12.5q0 18 -27 91zM160 208l105 9l-48 125zM269 529q-33 0 -63 33q-19 21 -28 21q-20 0 -29 -27q-11 -22 -32 -22q-36 0 -36 33q0 5 6.5 13t7.5 9q31 56 87 56 q24 0 52 -28q26 -28 40 -28q10 0 15.5 10t5.5 22q0 28 33 28q15 0 25.5 -8t10.5 -18q0 -5 -5 -17q-22 -77 -90 -77z" />
<glyph unicode="&#xf7e4;" horiz-adv-x="431" d="M291 152l-156 -13q-26 -50 -29 -63q-4 -13 -4 -43q0 -37 -52 -37q-19 0 -30.5 11.5t-11.5 26.5q0 6 1.5 12t5.5 15.5l7 17t10.5 23.5l12.5 27l113 244q15 32 19 54q-1 24 11.5 43t35.5 19q24 0 35.5 -11.5t11.5 -22.5q0 -9 -3 -19t-3 -16q0 -7 4.5 -21.5t13.5 -35 l16 -36.5l18 -39.5t14 -30.5q77 -173 77 -207q0 -26 -14.5 -40t-37.5 -14q-18 0 -31 10t-13 23q0 9 3 19.5t3 12.5q0 18 -27 91zM160 208l105 9l-48 125zM147 533q-18 0 -28 18.5t-10 36.5q0 57 49 57q45 0 45 -42q0 -38 -10.5 -54t-45.5 -16zM295 535q-42 0 -42 52 q0 58 43 58q16 0 33.5 -12.5t17.5 -35.5q0 -62 -52 -62z" />
<glyph unicode="&#xf7e5;" horiz-adv-x="431" d="M291 152l-156 -13q-26 -50 -29 -63q-4 -13 -4 -43q0 -37 -52 -37q-19 0 -30.5 11.5t-11.5 26.5q0 6 1.5 12t5.5 15.5l7 17t10.5 23.5l12.5 27l113 244q15 32 19 54q-1 24 11.5 43t35.5 19q24 0 35.5 -11.5t11.5 -22.5q0 -9 -3 -19t-3 -16q0 -7 4.5 -21.5t13.5 -35 l16 -36.5l18 -39.5t14 -30.5q77 -173 77 -207q0 -26 -14.5 -40t-37.5 -14q-18 0 -31 10t-13 23q0 9 3 19.5t3 12.5q0 18 -27 91zM160 208l105 9l-48 125zM210 507h-2q-27 0 -45 23.5t-18 59.5q0 30 32.5 54.5t54.5 24.5q31 0 51.5 -21t20.5 -60q0 -36 -31 -58.5t-63 -22.5z M216 554q13 0 26 9t13 23q0 36 -20 36q-15 0 -28 -10t-13 -27q0 -31 22 -31z" />
<glyph unicode="&#xf7e6;" horiz-adv-x="549" d="M342 192v-125q100 0 140 14q10 5 25 5q10 0 17.5 -9.5t7.5 -27.5q0 -44 -40 -46l-194 -9q-4 0 -12.5 -1.5t-13.5 -1.5q-12 0 -21 10t-9 31q0 14 6 24.5t14 11.5v120l-107 -7q-52 -113 -54 -119q-2 -7 -2 -20q0 -21 -16.5 -33.5t-39.5 -12.5q-17 0 -32.5 12.5t-15.5 32.5 q0 35 30 46q40 80 90 163q45 75 136 194q2 15 12.5 27.5t31.5 12.5q51 0 51 -23q0 -9 -4 -13l95 5q8 1 22 7t22 7q16 0 27 -12t11 -32q0 -23 -11 -36t-28 -13q-15 0 -35 10l-103 -6v-122l77 8q3 1 22.5 6t27.5 5q16 0 25 -8t9 -22q0 -26 -12.5 -35t-38.5 -11zM262 251v108 q-17 -23 -72 -115z" />
<glyph unicode="&#xf7e7;" horiz-adv-x="383" d="M229 -3l-20 -39q29 1 46.5 -19t17.5 -55q0 -44 -28 -74t-78 -30q-21 0 -34 13q-8 -6 -14 -6q-8 0 -15.5 10.5t-7.5 23.5q0 14 10 26t20 12q6 0 11.5 -4.5t5.5 -10.5q16 -8 26 -8q22 0 36.5 12.5t14.5 33.5q0 28 -21 28q-2 0 -12 -6q-5 -6 -23 -6q-11 0 -17.5 7t-6.5 17 q0 17 12 26l22 39h-8q-61 0 -98 49t-37 151q0 59 24 126t73 118t108 51q50 0 85 -19.5t35 -51.5q0 -24 -11.5 -36.5t-30.5 -12.5q-36 0 -40 30q-5 17 -38 17q-43 0 -81 -78t-38 -149q0 -51 16 -86.5t53 -35.5q44 0 77 37q0 1 1.5 9.5t2 10.5t3 9t5 10t7 7t11 5.5t14.5 1.5 q21 0 31.5 -12.5t10.5 -25.5q0 -31 -18 -51q-36 -45 -102 -64z" />
<glyph unicode="&#xf7e8;" horiz-adv-x="386" d="M139 198v-125l151 12q9 11 26 11q22 0 34 -10.5t12 -26.5q0 -26 -15.5 -34.5t-54.5 -11.5l-154 -11q-12 -14 -49 -14q-19 0 -31.5 12t-12.5 31q0 21 11 38v117q-15 17 -15 34q0 20 15 40v100q-17 15 -17 34q0 23 13 32q-6 6 -6 14q0 14 14.5 23.5t35.5 9.5q40 0 42 -30 l120 14q15 13 30 13q25 0 38 -11t13 -28q0 -47 -49 -47q-6 0 -28 4l-123 -15v-105l90 13q19 13 30 13q22 0 35 -12.5t13 -29.5q0 -45 -52 -45q-9 0 -16 5zM175 659l43 -70q7 -3 13.5 -11.5t6.5 -18.5q0 -35 -42 -35q-15 0 -24.5 11t-8.5 25l-42 69q-20 9 -20 32q0 36 42 36 q30 0 32 -38z" />
<glyph unicode="&#xf7e9;" horiz-adv-x="386" d="M139 198v-125l151 12q9 11 26 11q22 0 34 -10.5t12 -26.5q0 -26 -15.5 -34.5t-54.5 -11.5l-154 -11q-12 -14 -49 -14q-19 0 -31.5 12t-12.5 31q0 21 11 38v117q-15 17 -15 34q0 20 15 40v100q-17 15 -17 34q0 23 13 32q-6 6 -6 14q0 14 14.5 23.5t35.5 9.5q40 0 42 -30 l120 14q15 13 30 13q25 0 38 -11t13 -29q0 -46 -49 -46q-6 0 -28 4l-123 -15v-105l90 13q19 13 30 13q22 0 35 -12.5t13 -29.5q0 -45 -52 -45q-9 0 -16 5zM291 633l-57 -77q-2 -13 -12.5 -22.5t-27.5 -9.5q-35 0 -37 34q1 10 7 19t15 10l59 79q-6 17 5.5 25t29.5 8 q17 0 27.5 -9t10.5 -25q0 -23 -20 -32z" />
<glyph unicode="&#xf7ea;" horiz-adv-x="386" d="M139 198v-125l151 12q9 11 26 11q22 0 34 -10.5t12 -26.5q0 -26 -15.5 -34.5t-54.5 -11.5l-154 -11q-12 -14 -49 -14q-19 0 -31.5 12t-12.5 31q0 21 11 38v117q-15 17 -15 34q0 20 15 40v100q-17 15 -17 34q0 23 13 32q-6 6 -6 14q0 14 14.5 23.5t35.5 9.5q40 0 42 -30 l120 14q15 13 30 13q25 0 38 -11t13 -28q0 -47 -49 -47q-6 0 -28 4l-123 -15v-105l90 13q19 13 30 13q22 0 35 -12.5t13 -29.5q0 -45 -52 -45q-9 0 -16 5zM235 681l51 -91q12 -12 12 -29q0 -14 -10.5 -24.5t-27.5 -10.5q-15 0 -21 10.5t-4 22.5l-35 68l-44 -69q1 -14 -8 -23 t-21 -9q-16 0 -26.5 11.5t-10.5 23.5q0 13 17 32l64 95q14 22 31 22t33 -29z" />
<glyph unicode="&#xf7eb;" horiz-adv-x="386" d="M139 198v-125l152 12q9 11 26 11q21 0 33.5 -10.5t12.5 -26.5q0 -26 -15.5 -34.5t-54.5 -11.5l-155 -11q-12 -14 -49 -14q-19 0 -31.5 12t-12.5 31q0 21 11 38v117q-15 17 -15 34q0 20 15 40v100q-17 15 -17 34q0 23 13 32q-6 6 -6 14q0 14 14.5 23.5t35.5 9.5 q40 0 42 -30l121 14q15 13 30 13q25 0 38 -11t13 -29q0 -46 -49 -46q-8 0 -28 4l-124 -15v-105l91 13q20 13 30 13q22 0 35 -12.5t13 -29.5q0 -45 -52 -45q-9 0 -16 5zM114 536q-18 0 -28 18.5t-10 36.5q0 57 49 57q45 0 45 -42q0 -38 -10.5 -54t-45.5 -16zM263 538 q-42 0 -42 52q0 58 43 58q16 0 33.5 -12.5t17.5 -35.5q0 -62 -52 -62z" />
<glyph unicode="&#xf7ec;" horiz-adv-x="196" d="M140 391v-322q12 -16 12 -28q0 -17 -15 -31t-38 -14q-24 0 -38.5 12t-14.5 32q0 17 11 33v323q-10 6 -10 26q0 22 18 37t40 15q48 0 48 -50q0 -19 -13 -33zM81 660l43 -70q20 -8 20 -30q0 -35 -43 -35q-14 0 -23.5 11.5t-8.5 24.5l-43 69q-19 10 -19 32q0 36 42 36 q30 0 32 -38z" />
<glyph unicode="&#xf7ed;" horiz-adv-x="196" d="M140 391v-322q12 -16 12 -28q0 -17 -15 -31t-38 -14q-24 0 -38.5 12t-14.5 32q0 17 11 33v323q-10 6 -10 26q0 22 18 37t40 15q48 0 48 -50q0 -19 -13 -33zM184 635l-57 -77q-2 -13 -12.5 -23t-27.5 -10q-35 0 -37 34q2 27 22 30l59 79q-6 17 5.5 25t28.5 8t28 -9t11 -25 q0 -23 -20 -32z" />
<glyph unicode="&#xf7ee;" horiz-adv-x="196" d="M140 391v-322q12 -16 12 -28q0 -17 -15 -31t-38 -14q-24 0 -38.5 12t-14.5 32q0 17 11 33v323q-10 6 -10 26q0 22 18 37t40 15q48 0 48 -50q0 -19 -13 -33zM139 678l51 -91q13 -11 13 -29q0 -14 -11 -24.5t-27 -10.5q-15 0 -21.5 10.5t-4.5 22.5l-35 69l-44 -70 q1 -14 -8 -23t-20 -9q-17 0 -27 11.5t-10 23.5q0 13 17 32l64 95q14 22 30 22q20 0 33 -29z" />
<glyph unicode="&#xf7ef;" horiz-adv-x="196" d="M140 391v-322q12 -16 12 -28q0 -17 -15 -31t-38 -14q-24 0 -38.5 12t-14.5 32q0 17 11 33v323q-10 6 -10 26q0 22 18 37t40 15q48 0 48 -50q0 -19 -13 -33zM18 538q-18 0 -28 18.5t-10 36.5q0 57 49 57q45 0 45 -42q0 -38 -10.5 -54t-45.5 -16zM166 540q-42 0 -42 52 q0 58 43 58q16 0 33.5 -12.5t17.5 -35.5q0 -62 -52 -62z" />
<glyph unicode="&#xf7f0;" horiz-adv-x="421" d="M54 196l-11 -2q-2 0 -7.5 -2t-7.5 -2q-13 0 -21.5 8t-8.5 21q0 20 10.5 33t24.5 14l21 2v151q-4 16 -4 24q0 14 11.5 26.5t36.5 12.5q22 0 32 -10.5t7 -24.5q55 32 124 32q50 0 94.5 -48t44.5 -120q0 -129 -67 -209q-43 -50 -110 -81t-126 -31q-52 0 -52 38q0 22 9 36 v132zM137 274l59 6q1 0 6.5 2.5t12.5 4t13 1.5q31 0 31 -37q0 -46 -36 -46q-3 0 -31 5l-55 -6v-132q86 11 135 79q42 59 42 143q0 47 -23 78.5t-54 31.5q-51 0 -100 -34v-96z" />
<glyph unicode="&#xf7f1;" horiz-adv-x="430" d="M58 61v344q-6 11 -6 26q0 17 12 30t34 13q28 0 38 -8t10 -26q0 -22 20 -66q26 -51 71 -106q47 -60 59 -92h1q-2 51 -2 244l-4 8q-4 9 -4 14q0 40 40 40q20 0 35 -8.5t15 -23.5q0 -11 -5 -26v-375q9 -16 9 -22q0 -16 -10.5 -23.5t-37.5 -7.5q-13 0 -22.5 8.5t-13.5 16.5 t-10 24q-9 29 -36 74.5t-51 76.5q-60 83 -68 106h-1q4 -150 4 -241q7 -12 7 -23q0 -22 -9.5 -32t-32.5 -10q-52 0 -52 42q0 10 10 23zM263 534q-32 0 -62 33q-19 21 -28 21q-19 0 -30 -27q-9 -22 -32 -22q-18 0 -27 9.5t-9 23.5q0 5 6.5 13t7.5 9q18 31 38 43.5t50 12.5 q23 0 51 -28t40 -28q10 0 15.5 10t5.5 22q0 28 33 28q15 0 25.5 -8t10.5 -18q0 -4 -5 -17q-24 -77 -90 -77z" />
<glyph unicode="&#xf7f2;" horiz-adv-x="430" d="M248 495q63 0 105.5 -55.5t42.5 -171.5q0 -120 -66 -201t-160 -81q-38 0 -67 18t-44.5 48t-23 62t-7.5 65q0 73 30.5 146.5t82 121.5t107.5 48zM235 423q-40 0 -80 -76t-40 -156q0 -56 17.5 -94.5t56.5 -38.5q45 0 83 60.5t38 145.5q0 159 -75 159zM198 677l43 -70 q7 -3 13.5 -11.5t6.5 -18.5q0 -35 -42 -35q-15 0 -24 11t-8 25l-43 69q-20 9 -20 32q0 36 42 36q30 0 32 -38z" />
<glyph unicode="&#xf7f3;" horiz-adv-x="430" d="M248 495q63 0 105.5 -55.5t42.5 -171.5q0 -120 -66 -201t-160 -81q-38 0 -67 18t-44.5 48t-23 62t-7.5 65q0 73 30.5 146.5t82 121.5t107.5 48zM235 423q-40 0 -80 -76t-40 -156q0 -56 17.5 -94.5t56.5 -38.5q45 0 83 60.5t38 145.5q0 159 -75 159zM320 654l-57 -77 q-1 -13 -11.5 -23t-27.5 -10q-36 0 -38 34q1 10 7 19.5t15 10.5l60 79q-6 17 5.5 25t28.5 8t27.5 -9t10.5 -25q0 -23 -20 -32z" />
<glyph unicode="&#xf7f4;" horiz-adv-x="430" d="M248 495q63 0 105.5 -55.5t42.5 -171.5q0 -120 -66 -201t-160 -81q-38 0 -67 18t-44.5 48t-23 62t-7.5 65q0 73 30.5 146.5t82 121.5t107.5 48zM235 423q-40 0 -80 -76t-40 -156q0 -56 17.5 -94.5t56.5 -38.5q45 0 83 60.5t38 145.5q0 159 -75 159zM274 689l51 -91 q13 -11 13 -30q0 -13 -11 -23.5t-27 -10.5t-22 10.5t-4 22.5l-35 68l-44 -69q1 -14 -8 -23t-21 -9q-16 0 -26.5 11.5t-10.5 23.5q0 11 17 32l64 95q17 21 31 21q5 0 9 -1.5t7 -3.5t6 -6l4.5 -6t4 -6t2.5 -5z" />
<glyph unicode="&#xf7f5;" horiz-adv-x="430" d="M248 495q63 0 105.5 -55.5t42.5 -171.5q0 -120 -66 -201t-160 -81q-38 0 -67 18t-44.5 48t-23 62t-7.5 65q0 73 30.5 146.5t82 121.5t107.5 48zM235 423q-40 0 -80 -76t-40 -156q0 -56 17.5 -94.5t56.5 -38.5q45 0 83 60.5t38 145.5q0 159 -75 159zM266 545q-30 0 -62 32 q-19 21 -28 21q-20 0 -30 -27q-9 -22 -32 -22q-36 0 -36 33q0 5 6.5 13t7.5 9q31 56 88 56q22 0 51 -27q28 -28 41 -28q20 0 20 31q0 28 33 28q15 0 25.5 -8t10.5 -18q0 -3 -2 -9.5t-2 -7.5q-24 -76 -91 -76z" />
<glyph unicode="&#xf7f6;" horiz-adv-x="430" d="M248 495q63 0 105.5 -55.5t42.5 -171.5q0 -120 -66 -201t-160 -81q-38 0 -67 18t-44.5 48t-23 62t-7.5 65q0 73 30.5 146.5t82 121.5t107.5 48zM235 423q-40 0 -80 -76t-40 -156q0 -56 17.5 -94.5t56.5 -38.5q45 0 83 60.5t38 145.5q0 159 -75 159zM151 552 q-18 0 -28 18.5t-10 36.5q0 57 49 57q45 0 45 -42q0 -38 -10.5 -54t-45.5 -16zM299 554q-42 0 -42 52q0 58 43 58q16 0 33.5 -12.5t17.5 -35.5q0 -62 -52 -62z" />
<glyph unicode="&#xf7f8;" horiz-adv-x="424" d="M72 36l-16 -18q4 -9 -7.5 -21.5t-26.5 -12.5q-17 0 -28 12.5t-11 29.5q0 14 7.5 27.5t18.5 13.5q2 0 11 -3l23 26q-14 45 -14 89q0 73 30 146.5t81.5 121.5t107.5 48q55 0 97 -45l21 26q2 10 10 18t19 8q17 0 31 -9.5t14 -27.5q0 -36 -34 -34l-29 -35q19 -52 19 -128 q0 -120 -65 -201t-159 -81q-63 0 -100 50zM117 177l173 209q-18 37 -53 37q-40 0 -80.5 -75t-40.5 -154q0 -11 1 -17zM306 316l-176 -212q19 -46 59 -46q45 0 83 60.5t38 145.5q0 32 -4 52z" />
<glyph unicode="&#xf7f9;" horiz-adv-x="429" d="M173 -12q-54 0 -88 27.5t-34 78.5v321q-11 22 2 38.5t37 16.5q40 0 40 -48v-333q4 -9 16.5 -16.5t27.5 -7.5q37 0 65 15t38.5 30t10.5 24v282q-7 7 -7 20q0 19 14 30t37 11q14 0 26 -8.5t12 -25.5q0 -12 -3 -18v-300q0 -12 -9 -34.5t-24 -37.5q-67 -65 -161 -65zM197 659 l43 -70q20 -10 20 -30q0 -35 -42 -35q-15 0 -24.5 11t-8.5 25l-43 68q-19 11 -19 32q0 37 42 37q30 0 32 -38z" />
<glyph unicode="&#xf7fa;" horiz-adv-x="429" d="M173 -12q-54 0 -88 27.5t-34 78.5v321q-11 22 2 38.5t37 16.5q40 0 40 -48v-333q4 -9 16.5 -16.5t27.5 -7.5q37 0 65 15t38.5 30t10.5 24v282q-7 7 -7 20q0 19 14 30t37 11q14 0 26 -8.5t12 -25.5q0 -12 -3 -18v-300q0 -12 -9 -34.5t-24 -37.5q-67 -65 -161 -65zM309 624 l-57 -77q-1 -13 -11.5 -23t-27.5 -10t-27 9.5t-10 25.5q0 10 6.5 19t15.5 10l59 79q-6 17 5.5 25t28.5 8t27.5 -9t10.5 -25q0 -23 -20 -32z" />
<glyph unicode="&#xf7fb;" horiz-adv-x="429" d="M173 -12q-54 0 -88 27.5t-34 78.5v321q-11 22 2 38.5t37 16.5q40 0 40 -48v-333q4 -9 16.5 -16.5t27.5 -7.5q37 0 65 15t38.5 30t10.5 24v282q-7 7 -7 20q0 19 14 30t37 11q14 0 26 -8.5t12 -25.5q0 -12 -3 -18v-300q0 -12 -9 -34.5t-24 -37.5q-67 -65 -161 -65zM255 680 l52 -92q12 -12 12 -29q0 -14 -10.5 -24t-27.5 -10q-15 0 -21 10t-4 23l-36 68l-44 -69q1 -15 -8 -23.5t-20 -8.5q-17 0 -27 11.5t-10 22.5q0 12 17 33l64 95q15 21 30 21q19 0 33 -28z" />
<glyph unicode="&#xf7fc;" horiz-adv-x="429" d="M173 -12q-54 0 -88 27.5t-34 78.5v321q-11 22 2 38.5t37 16.5q40 0 40 -48v-333q4 -9 16.5 -16.5t27.5 -7.5q37 0 65 15t38.5 30t10.5 24v282q-7 7 -7 20q0 19 14 30t37 11q14 0 26 -8.5t12 -25.5q0 -12 -3 -18v-300q0 -12 -9 -34.5t-24 -37.5q-67 -65 -161 -65zM131 538 q-18 0 -28 18.5t-10 36.5q0 57 49 57q45 0 45 -42q0 -38 -10.5 -54t-45.5 -16zM279 540q-42 0 -42 52q0 58 43 58q16 0 33.5 -12.5t17.5 -35.5q0 -62 -52 -62z" />
<glyph unicode="&#xf7fd;" horiz-adv-x="412" d="M164 74v158q-17 37 -62.5 87t-63.5 81q-26 13 -26 40q0 19 18 31t37 13q16 1 27.5 -10.5t10.5 -28.5q7 -19 49 -69.5t53 -71.5h1q13 19 50 57.5t52 60.5q14 23 15 25q5 13 8 19t12 12t23 6q18 0 29.5 -9.5t11.5 -26.5q0 -16 -21 -47q-6 -9 -16.5 -21.5t-13.5 -16.5 q-9 -12 -53.5 -58.5t-56.5 -73.5v-168q10 -13 10 -24q0 -17 -14.5 -30t-41.5 -13q-26 0 -36.5 8.5t-10.5 34.5q0 27 9 35zM315 625l-57 -77q-2 -13 -12.5 -23t-26.5 -10q-36 0 -38 34q1 10 7 19.5t15 10.5l59 79q-6 17 5.5 25t29.5 8q17 0 27.5 -9t10.5 -25q0 -23 -20 -32z " />
<glyph unicode="&#xf7fe;" horiz-adv-x="367" d="M127 425v-51q59 34 136 34q43 0 70.5 -27t27.5 -71q0 -75 -78.5 -129t-155.5 -59v-65q10 -27 10 -31q0 -30 -56 -30q-17 0 -33.5 9t-16.5 22q0 7 12 31v363q0 1 -2 6t-3 10.5t-1 9.5q0 13 16.5 23.5t40.5 10.5q16 0 29.5 -9.5t13.5 -19.5q0 -15 -10 -27zM127 292v-95 q52 4 100 35t48 64q0 16 -10 25.5t-28 9.5q-25 0 -58 -12t-52 -27z" />
<glyph unicode="&#xf7ff;" horiz-adv-x="412" d="M164 74v158q-17 37 -62.5 87t-63.5 81q-26 13 -26 40q0 19 18 31t37 13q16 1 27.5 -10.5t10.5 -28.5q7 -19 49 -69.5t53 -71.5h1q13 19 50 57.5t52 60.5q14 23 15 25q5 13 8 19t12 12t23 6q18 0 29.5 -9.5t11.5 -26.5q0 -16 -21 -47q-6 -9 -16.5 -21.5t-13.5 -16.5 q-9 -12 -53.5 -58.5t-56.5 -73.5v-168q10 -13 10 -24q0 -17 -14.5 -30t-41.5 -13q-26 0 -36.5 8.5t-10.5 34.5q0 27 9 35zM128 533q-18 0 -28 18.5t-10 36.5q0 57 49 57q45 0 45 -42q0 -38 -10.5 -54t-45.5 -16zM276 535q-42 0 -42 52q0 58 43 58q16 0 33.5 -12.5 t17.5 -35.5q0 -62 -52 -62z" />
<glyph unicode="&#xfb01;" horiz-adv-x="404" d="M269 369l-109 -22v-287q10 -10 10 -28q0 -37 -52 -37q-22 0 -35 9t-13 25q0 6 3.5 13.5t3.5 10.5v279l-27 -6q-14 -7 -18 -7q-27 0 -27 47q0 15 8 25.5t22 10.5q7 0 19 -4l23 5q0 140 27 202.5t94 62.5q72 0 112.5 -40.5t40.5 -74.5q0 -14 -12.5 -30.5t-38.5 -16.5 q-17 0 -31 9.5t-14 30.5q0 7 7 12q-16 36 -60 36q-22 0 -32 -39t-10 -137l106 21q2 0 19.5 8t29.5 8q17 0 31 -12.5t14 -28.5q0 -20 -8 -31v-315q12 -21 12 -25q0 -23 -19.5 -35.5t-40.5 -12.5q-20 0 -33.5 12t-13.5 35q0 10 12 31v296z" />
<glyph unicode="&#xfb02;" horiz-adv-x="405" d="M269 369l-109 -21v-290q11 -13 11 -27q0 -36 -57 -36q-17 0 -30.5 10t-13.5 28q0 6 7 20v280l-27 -6q-10 -5 -20 -5q-25 0 -25 43q0 18 8 28t20 10q9 0 21 -4l23 5q0 141 29 202.5t99 61.5q40 0 79 -25q9 6 28 3q21 1 37.5 -11t16.5 -32q0 -26 -14 -45v-495 q14 -11 14 -27q0 -13 -15.5 -27t-39.5 -14q-50 0 -50 45q0 4 8 25v304zM160 419l109 22v116q-4 10 -7 13q-18 23 -53 23q-25 0 -37 -37.5t-12 -136.5z" />
<glyph horiz-adv-x="518" d="M473 569l-11 -19q28 -54 28 -129q0 -97 -22.5 -176t-55.5 -126t-73.5 -78.5t-74.5 -43.5t-61 -12q-69 0 -115 51l-5 -9q0 -16 -9 -29t-24 -13q-17 0 -31 12.5t-14 30.5q0 28 39 37l11 18q-26 55 -26 132q0 95 19 172.5t48 125.5t67 81t73.5 46t69.5 13q69 0 122 -57l5 10 q2 19 11 33t25 14q18 0 31.5 -13.5t13.5 -33.5q0 -13 -12.5 -23.5t-28.5 -13.5zM123 172l254 359q-25 40 -72 40q-75 0 -130.5 -85t-55.5 -266q0 -29 4 -48zM396 465l-254 -359q22 -39 60 -39q29 0 61.5 18t64.5 55.5t53 109t21 164.5q0 30 -6 51z" />
<glyph horiz-adv-x="189" d="M111 626q18 0 28.5 -12t10.5 -33q0 -41 -17 -66t-40 -25q-40 0 -40 49q0 37 15.5 62t42.5 25zM146 391q0 -16 -10 -33v-291q3 -2 7 -9.5t4 -14.5q0 -22 -20.5 -35t-43.5 -13q-18 0 -29.5 13t-11.5 33q0 19 11 30v283q-9 9 -9 26q0 18 2.5 28t15.5 19.5t39 9.5 q16 0 30.5 -15.5t14.5 -30.5z" />
<glyph horiz-adv-x="845" d="M240 476q44 0 77.5 -20t33.5 -49q0 -16 -13 -28t-31 -12q-38 0 -43 25q-9 13 -37 13q-41 0 -75.5 -30t-34.5 -66q0 -31 24 -31q21 0 74 14q54 14 87 14q41 0 67 -27.5t26 -74.5q0 -60 -36 -111q-33 -48 -95 -76t-120 -28q-55 0 -83 30.5t-28 57.5q0 19 13 34.5t33 15.5 q9 0 16.5 -5.5t10 -10t6.5 -15.5l5 -12q9 -23 35 -23q36 0 73.5 17.5t59.5 45.5q26 32 26 72q0 36 -32 36q-15 0 -75 -14q-53 -14 -86 -14q-39 0 -63 23.5t-24 70.5q0 66 62 122t147 56zM663 476q44 0 77 -20t34 -49q0 -16 -13 -28t-32 -12q-37 0 -42 25q-9 13 -36 13 q-41 0 -75.5 -29.5t-34.5 -66.5q0 -31 24 -31q20 0 74 14q53 14 85 14q42 0 68 -27.5t26 -74.5q0 -60 -36 -111q-33 -48 -95 -76t-120 -28q-55 0 -83 30.5t-28 57.5q0 19 13 34.5t34 15.5q9 0 16.5 -5.5t10 -10t6 -15.5t4.5 -12q10 -23 36 -23q36 0 73 17.5t59 45.5 q26 32 26 72q0 36 -32 36q-16 0 -74 -14q-53 -14 -86 -14q-39 0 -63.5 23.5t-24.5 70.5q0 66 62.5 122t146.5 56z" />
<glyph horiz-adv-x="431" d="M291 152l-156 -13q-26 -50 -29 -63q-4 -13 -4 -43q0 -37 -52 -37q-19 0 -30.5 11.5t-11.5 26.5q0 6 1.5 12t5.5 15.5l7 17t10.5 23.5l12.5 27l113 244q15 32 19 54q-1 24 11.5 43t35.5 19q24 0 35.5 -11.5t11.5 -22.5q0 -9 -3 -19t-3 -16q0 -7 4.5 -21.5t13.5 -35 l16 -36.5l18 -39.5t14 -30.5q77 -173 77 -207q0 -26 -14.5 -40t-37.5 -14q-18 0 -31 10t-13 23q0 9 3 19.5t3 12.5q0 18 -27 91zM160 208l105 9l-48 125zM208 518q-40 0 -68.5 34.5t-28.5 68.5q0 32 35 32q33 0 33 -29q0 -16 9 -29.5t22 -13.5q34 0 46 36q-4 7 -4 17 t12.5 16.5t26.5 6.5t23.5 -7.5t9.5 -20.5q0 -16 -7 -24q-16 -43 -41 -65t-68 -22z" />
<glyph horiz-adv-x="431" d="M291 152l-156 -13q-26 -50 -29 -63q-4 -13 -4 -43q0 -37 -52 -37q-19 0 -30.5 11.5t-11.5 26.5q0 6 1.5 12t5.5 15.5l7 17t10.5 23.5l12.5 27l113 244q15 32 19 54q-1 24 11.5 43t35.5 19q24 0 35.5 -11.5t11.5 -22.5q0 -9 -3 -19t-3 -16q0 -7 4.5 -21.5t13.5 -35 l16 -36.5l18 -39.5t14 -30.5q77 -173 77 -207q0 -26 -14.5 -40t-37.5 -14q-18 0 -31 10t-13 23q0 9 3 19.5t3 12.5q0 18 -27 91zM160 208l105 9l-48 125zM285 556l-109 -16q-8 -4 -23 -4q-13 0 -22 11.5t-9 25.5q0 20 9.5 30t21.5 10q7 0 20 -5l100 15q14 7 24 7 q14 0 24 -10.5t10 -27.5q0 -22 -16 -31t-30 -5z" />
<glyph horiz-adv-x="432" d="M161 208l104 9l-48 125zM306 -185q-40 0 -65 21t-25 63q0 54 32 94t65 45q1 6 3 13t2 10q0 18 -27 91l-156 -13q-26 -50 -29 -63q-4 -13 -4 -43q0 -37 -52 -37q-19 0 -30.5 11.5t-11.5 26.5q0 6 1.5 12t5.5 15.5l7 17t10.5 23.5l12.5 27l113 244q15 32 19 54 q-1 24 11.5 43t35.5 19q24 0 35.5 -11.5t11.5 -22.5q0 -9 -3 -19t-3 -16q0 -7 4.5 -21.5t13.5 -35l16 -36.5l18 -39.5t14 -30.5q77 -173 77 -207q0 -26 -14.5 -40t-37.5 -14q-37 0 -64 -37q-17 -24 -17 -57q0 -15 10.5 -24t24.5 -9q32 0 37 20q-3 3 -3 10q0 18 30 18 q14 0 23 -9.5t9 -24.5q0 -25 -27 -46.5t-73 -21.5z" />
</font>
</defs>
</svg>
