<?xml version="1.0" standalone="no"?>
<!DOCTYPE svg PUBLIC "-//W3C//DTD SVG 1.1//EN" "http://www.w3.org/Graphics/SVG/1.1/DTD/svg11.dtd" >
<svg xmlns="http://www.w3.org/2000/svg">
<metadata>
This is a custom SVG webfont generated by Font Squirrel.
Copyright   :  1989 1990 1993 1994 1996 1998 1999 2000 Adobe Systems Incorporated All rights reserved
Designer    : David Siegel
Foundry URL : httpwwwadobecomtype
</metadata>
<defs>
<font id="TektonProBoldOblique" horiz-adv-x="321" >
<font-face units-per-em="1000" ascent="680" descent="-320" />
<missing-glyph horiz-adv-x="168" />
<glyph unicode="ffj" horiz-adv-x="440" d="M0 440h440v-440h-440v440z" />
<glyph unicode="fj" horiz-adv-x="466" d="M481 378l-83 -472q-14 -77 -61.5 -118t-108.5 -41q-56 0 -84.5 36t-23.5 63q4 24 19 41.5t38 17.5q16 0 26.5 -12t1.5 -38q9 -28 37 -28q56 0 73 101l78 437l-153 -26l-49 -276q7 -10 4 -29q-7 -39 -61 -39q-21 0 -32.5 10t-9.5 27q1 5 6 13t6 11l47 269l-44 -7 q-13 -8 -21 -8q-28 0 -19 50q2 16 12.5 27.5t23.5 11.5q9 0 19 -5l43 7q24 141 66.5 204t116.5 63q82 0 126 -38.5t38 -75.5q-2 -15 -18 -32t-43 -17q-17 0 -30 9t-9 30q2 6 8 11q-16 35 -81 35q-29 0 -49 -39.5t-37 -135.5l151 25q4 1 21.5 8t28.5 7q21 0 33.5 -12.5 t8.5 -31.5q-2 -14 -15 -33z" />
<glyph unicode="tt" horiz-adv-x="730" d="M566 375l-48 -270q-5 -28 11 -28t64 30t80 65q2 17 14 28t28 11q48 0 39 -48q-4 -20 -53 -62.5t-114 -78t-103 -35.5q-34 0 -49.5 23.5t-8.5 60.5l51 289l-216 -36l-39 -219q-5 -28 11 -28q13 0 34.5 9t32.5 20q2 17 14 28.5t28 11.5q48 0 39 -48q-5 -29 -74 -70 t-119 -41q-34 0 -49.5 23.5t-8.5 60.5l42 237l-62 -10q-8 -8 -20 -9q-38 2 -29 47q3 19 16 31t29 12q10 0 14 -6l65 12l22 123q-4 10 -1 25q6 35 65 35q18 0 29 -6t8 -24q-4 -15 -14 -25l-19 -113l215 36l13 72q-4 7 -1 25q6 35 65 35q11 0 18.5 -2t13.5 -9t4 -19 q-1 -12 -13 -25l-11 -61l119 20q10 8 19 8q16 0 22.5 -11.5t4.5 -28.5q-9 -48 -40 -48q-11 0 -14 4z" />
<glyph unicode="&#xfb00;" horiz-adv-x="553" d="M148 296l-48 -6q-10 -7 -20 -7q-29 0 -20 49q2 14 12 27.5t21 13.5q8 0 20 -4l49 6l3 13q24 138 62.5 200.5t114.5 62.5q37 0 62 -18.5t20 -41.5q-4 -21 -17.5 -38.5t-31.5 -17.5q-12 0 -19.5 7t-5.5 16q-6 15 -26 15q-22 0 -37.5 -37t-33.5 -135l-3 -14l152 20 q25 138 64 199.5t114 61.5q37 0 71.5 -29t29.5 -55q-3 -17 -16 -32.5t-31 -15.5q-16 0 -24 10t-6 22q-7 22 -42 22q-22 0 -38 -36.5t-33 -133.5l104 14l9 6q10 5 15 5q17 0 25 -12t5 -29q-11 -51 -39 -51q-10 0 -18 5l-115 -15l-50 -282q6 -15 3 -28q-6 -38 -55 -38 q-27 0 -37.5 10t-6.5 31q1 6 9 20l48 272l-151 -20l-44 -247q6 -15 3 -28q-6 -38 -56 -38q-26 0 -36.5 10t-6.5 31q1 6 9 20z" />
<glyph unicode="&#xfb03;" horiz-adv-x="707" d="M147 289l-49 -6q-13 -8 -21 -8q-28 0 -19 50q2 15 12.5 27t22.5 12q9 0 21 -5l47 7l4 22q24 138 62.5 200.5t114.5 62.5q37 0 62 -18.5t20 -41.5q-3 -21 -17 -38.5t-32 -17.5q-12 0 -19.5 7t-5.5 16q-6 15 -26 15q-22 0 -37.5 -37t-33.5 -135l-4 -21l152 23 q25 140 67.5 202.5t116.5 62.5q82 0 126 -38.5t38 -75.5q-2 -15 -18 -32t-43 -17q-17 0 -30 9t-9 30q0 5 8 11q-17 35 -82 35q-28 0 -47.5 -39t-36.5 -134l150 23q2 1 20 8t30 7q21 0 33 -12.5t9 -31.5q-4 -17 -14 -32l-55 -307q9 -21 8 -26q-5 -25 -26.5 -38t-44.5 -13 q-19 0 -31.5 13t-8.5 37q2 7 18 33l51 287l-152 -24l-50 -278q7 -10 4 -29q-7 -39 -61 -39q-21 0 -33 10t-9 27q1 5 5.5 12.5t5.5 11.5l48 271l-152 -23l-43 -243q6 -17 3 -28q-6 -38 -56 -38q-26 0 -36.5 10t-6.5 31q1 7 9 19z" />
<glyph unicode="&#xfb04;" horiz-adv-x="707" d="M147 290l-49 -7q-13 -8 -21 -8q-28 0 -19 50q2 15 12.5 27t22.5 12q9 0 21 -5l47 7l4 22q24 138 62.5 200.5t114.5 62.5q37 0 62 -18.5t20 -41.5q-3 -21 -17 -38.5t-32 -17.5q-12 0 -19.5 7t-5.5 16q-6 15 -26 15q-22 0 -37.5 -37t-33.5 -134l-4 -22l152 24 q25 142 69 203t126 61q52 0 95 -26q16 6 35 2q20 1 34.5 -12t10.5 -34q-4 -25 -22 -44l-85 -485q12 -9 8 -30q-2 -13 -19.5 -28.5t-42.5 -15.5t-37 13t-8 36q1 7 13 26l52 296l-152 -24l-49 -278q6 -17 4 -29q-7 -40 -64 -40q-19 0 -31 11t-8 30q1 6 10 22l48 270l-152 -24 l-43 -243q6 -15 3 -28q-6 -38 -56 -38q-26 0 -36.5 10t-6.5 31q1 6 9 20zM643 442l20 110q-5 11 -7 12q-21 26 -70 26q-36 0 -57 -37.5t-38 -134.5z" />
<glyph unicode="fi" horiz-adv-x="471" d="M393 365l-153 -26l-49 -276q7 -10 4 -29q-7 -39 -61 -39q-21 0 -32.5 10t-9.5 27q1 5 6 13t6 11l47 269l-44 -7q-13 -8 -21 -8q-28 0 -19 50q2 15 12.5 26.5t23.5 11.5q11 0 19 -4l43 7q24 141 66.5 204t116.5 63q82 0 126 -38.5t38 -75.5q-2 -15 -18 -32t-43 -17 q-17 0 -30 9t-9 30q0 5 8 11q-18 35 -81 35q-28 0 -48 -39.5t-38 -135.5l152 25q3 1 20 8t29 7q21 0 33.5 -12.5t8.5 -31.5q-3 -17 -14 -31l-54 -308q8 -19 7 -26q-4 -25 -25.5 -38t-44.5 -13q-19 0 -31.5 13t-8.5 37q2 12 18 33z" />
<glyph unicode="fl" horiz-adv-x="470" d="M393 366l-152 -24l-50 -278q7 -15 6 -29q-8 -40 -65 -40q-19 0 -30.5 11t-8.5 30q1 6 10 22l48 270l-43 -6q-10 -7 -23 -7q-26 0 -18 45q4 20 14.5 31t21.5 11q9 0 21 -4l41 6q24 142 68 203t126 61q52 0 95 -26q16 6 35 2q20 1 34.5 -12t10.5 -34q-4 -24 -21 -44 l-86 -485q13 -10 9 -30q-3 -14 -20.5 -29t-42.5 -15t-37 13t-7 36q2 9 12 26zM254 418l152 24l20 110l-6 12q-23 26 -71 26q-35 0 -56 -37.5t-39 -134.5z" />
<glyph unicode=" "  horiz-adv-x="168" />
<glyph unicode="&#x09;" horiz-adv-x="168" />
<glyph unicode="&#xa0;" horiz-adv-x="168" />
<glyph unicode="!" horiz-adv-x="215" d="M256 593l-60 -340q7 -9 2 -42q-3 -17 -26.5 -31t-48.5 -14q-20 0 -28 16.5t-4 33.5q3 22 17 36l59 337q-9 19 -6 37q5 26 22 37.5t58 11.5q22 0 30 -10t4 -34q-4 -21 -19 -38zM91 -8q-15 0 -23.5 15t-5.5 33q5 29 28 53.5t48 24.5q38 0 27 -60q-6 -34 -22 -50t-52 -16z " />
<glyph unicode="&#x22;" horiz-adv-x="319" d="M224 595l-17 -95q3 -11 -1 -38q-8 -45 -60 -45q-19 0 -27.5 6t-5.5 25q5 22 25 42l18 101q-10 19 -8 29q9 52 63 52q19 0 27 -13t6 -27q-5 -25 -20 -37zM376 595l-17 -95q4 -18 -1 -38q-8 -45 -60 -45q-18 0 -26.5 6t-5.5 25t24 42l18 101q-9 23 -8 29q9 52 63 52 q20 0 28 -13.5t5 -26.5q-3 -25 -20 -37z" />
<glyph unicode="#" horiz-adv-x="593" d="M473 490l46 111q-5 23 10.5 41.5t45.5 18.5q25 0 33.5 -13.5t5.5 -29.5q-1 -10 -9 -20t-16 -12l-39 -96h51q12 4 24 4q13 0 21.5 -12t5.5 -31q-9 -53 -43 -53q-18 0 -21 11h-70l-63 -151h58q15 5 23 5q15 0 23 -12.5t4 -32.5q-8 -52 -42 -52q-17 0 -22 11h-78l-50 -125 q4 -13 1 -30q-2 -15 -19.5 -26t-38.5 -11q-49 0 -42 46q4 28 28 36l45 110h-92l-53 -125q5 -16 1 -30q-2 -14 -18.5 -25.5t-37.5 -11.5q-23 0 -35 11t-8 32q3 14 11.5 25t16.5 14l46 110h-56q-14 -10 -33 -10q-14 0 -21 14.5t-4 31.5q4 26 17 41.5t29 15.5q18 0 26 -12h75 l63 151h-64q-15 -11 -33 -11q-15 0 -22 15t-4 33q5 26 17.5 41t28.5 15q19 0 27 -12h83l45 111q-5 23 10.5 41.5t45.5 18.5q26 0 34.5 -13.5t5.5 -29.5q-6 -26 -26 -32l-39 -96h92zM441 409h-93l-63 -151h92z" />
<glyph unicode="$" horiz-adv-x="607" d="M281 37l-11 -66q5 -21 4 -29q-4 -19 -19.5 -34.5t-31.5 -15.5q-18 0 -29.5 11.5t-8.5 31.5q1 7 8 18l7 11l11 66q-80 3 -120.5 42t-32.5 85q3 17 18 28.5t31 11.5q26 0 26 -29q-1 -25 27 -43t65 -20l36 201q-44 -19 -82 -19q-31 0 -57.5 28.5t-16.5 85.5 q15 85 81.5 143.5t128.5 71.5l7 41q0 3 -1 13t0 12q2 15 14 26t31 11q20 0 29.5 -9.5t7.5 -22.5l-11 -23l-7 -39q41 0 72 -8.5t46.5 -21.5t22 -25t4.5 -22q-4 -26 -19 -39t-31 -13q-6 0 -11 1.5t-7.5 2.5t-5.5 4.5t-3.5 5l-2.5 7.5t-3 7q-12 27 -75 26l-24 -136q32 13 66 13 q13 0 25 -2.5t27.5 -11.5t23.5 -25.5t13.5 -44t-3.5 -67.5q-16 -93 -85 -158.5t-134 -80.5zM275 388l26 151q-37 -7 -70.5 -41.5t-41.5 -84.5q-4 -22 4 -33t20 -11q24 0 62 19zM333 334l-38 -219q40 13 76.5 57.5t44.5 91.5q14 83 -32 83q-29 0 -51 -13z" />
<glyph unicode="%" horiz-adv-x="566" d="M570 610q-6 -24 -30 -32l-355 -537q-5 -25 -21 -37.5t-36 -12.5q-44 0 -36 41q1 8 13.5 21l13.5 14l362 545q4 20 17 32.5t26 12.5q18 0 33.5 -13t12.5 -34zM288 656q44 0 66.5 -26t13.5 -75q-10 -59 -65.5 -107t-108.5 -48q-40 0 -64 27t-15 78q10 60 65 105.5t108 45.5 zM269 588q-23 0 -45.5 -24t-28.5 -54q-7 -42 20 -42q21 0 44.5 25.5t28.5 55.5q3 16 -2 27.5t-17 11.5zM497 261q36 0 57 -31t11 -89q-12 -69 -68 -114t-121 -45q-37 0 -59.5 30t-13.5 84q14 78 72 121.5t122 43.5zM467 193q-27 0 -51.5 -25.5t-31.5 -68.5q-10 -49 19 -49 q25 0 50.5 25.5t31.5 65.5q9 52 -18 52z" />
<glyph unicode="&#x26;" horiz-adv-x="572" d="M361 390l86 -157q41 55 45 81q2 10 10.5 18t21.5 8q23 0 37.5 -15t11.5 -32q-1 -9 -8 -18.5t-15 -9.5q-34 -60 -67 -97q3 -4 13.5 -24.5t19.5 -36t13 -15.5t19.5 11.5t26.5 11.5q26 0 20 -30q-5 -25 -42 -57t-64 -32q-23 0 -22 26l-46 82q-122 -123 -250 -123 q-64 0 -101 45.5t-20 144.5q27 157 195 242q-46 82 -32 153q6 35 46 64t103 29q75 0 111 -25t29 -72q-17 -98 -141 -172zM355 593q-55 0 -62 -40q-7 -45 32 -103q38 18 64.5 50.5t30.5 54.5q4 21 -13.5 29.5t-51.5 8.5zM387 167l-107 184q-58 -31 -95.5 -70t-48.5 -103 q-9 -53 10.5 -84t54.5 -31q89 0 186 104z" />
<glyph unicode="'" horiz-adv-x="165" d="M223 595l-17 -95q4 -15 -1 -38q-2 -19 -17.5 -32t-42.5 -13q-18 0 -26.5 6t-5.5 25q5 22 25 42l18 101q-10 19 -8 29q9 52 63 52q19 0 27 -13.5t6 -26.5q-5 -25 -21 -37z" />
<glyph unicode="(" horiz-adv-x="307" d="M340 683q8 0 16 -2t18.5 -8.5t15 -22.5t0.5 -39q-3 -20 -18 -30t-30 -7q-111 -82 -158 -349q-45 -261 31 -352q15 8 25 -6t6 -38q-5 -30 -22 -45t-30 -15q-14 0 -30.5 10t-24.5 25q-87 168 -41 425q46 264 199 417q5 16 17.5 26.5t25.5 10.5z" />
<glyph unicode=")" horiz-adv-x="307" d="M212 683q11 0 19.5 -11t7.5 -26q100 -153 53 -417q-46 -259 -191 -425q-13 -15 -33 -25t-34 -10q-13 0 -24.5 15t-6.5 45q4 24 19 38t27 6q58 49 97 145.5t58 206.5q47 267 -34 349q-16 -3 -27.5 7t-8.5 30q4 23 14.5 39t23.5 22.5t22 8.5t18 2z" />
<glyph unicode="*" horiz-adv-x="353" d="M200 367q-11 0 -17.5 7.5t-5.5 18.5q5 20 18 35q28 32 40 54l-75 -28q-26 -9 -36 0t-8 23q6 35 45 35q23 0 84 19q-15 17 -38 39q-23 23 -20 38q2 12 12 22.5t25 10.5q19 0 23 -11q4 -20 33 -65l29 62q2 15 12 24.5t25 9.5q13 0 21.5 -8.5t6.5 -18.5t-22 -36 q-23 -27 -36 -50l80 34q12 4 18.5 -4.5t3.5 -25.5q-6 -35 -37 -35q-24 0 -68 -10q21 -36 49 -60q17 -14 15 -25q-6 -36 -31 -36q-17 0 -28.5 10t-13.5 24l-28 52l-34 -70q-8 -35 -42 -35z" />
<glyph unicode="+" horiz-adv-x="512" d="M256 268l19 105q-7 16 -4 35q2 14 16 25t33 11q27 0 39 -13t10 -30q-2 -12 -12 -28l-19 -105h101q3 1 13.5 6t15.5 5q39 0 29 -54q-4 -25 -17 -39t-31 -14q-12 0 -26 8h-101l-20 -112q9 -13 6 -26q-3 -22 -19.5 -34.5t-32.5 -12.5q-26 0 -40 11t-11 30q4 24 17 39l19 105 h-99q-30 -9 -32 -9q-36 0 -29 45q12 60 51 60q6 0 25 -8h99z" />
<glyph unicode="," horiz-adv-x="200" d="M28 -111q-26 0 -21 25q4 24 35 27q25 1 40.5 17.5t21.5 42.5q-13 -10 -26 -10q-18 0 -24 15.5t-2 37.5q5 31 21.5 51t42.5 20q53 0 37 -90q-12 -66 -51 -101t-74 -35z" />
<glyph unicode="-" horiz-adv-x="318" d="M255 230l-110 -11q-16 -17 -36 -17q-13 0 -21.5 16t-4.5 38q5 25 19 39.5t29 14.5t22 -10l111 10q15 12 29 12q18 0 27.5 -14.5t5.5 -38.5q-4 -20 -19 -36t-29 -16q-19 0 -23 13z" />
<glyph unicode="." horiz-adv-x="207" d="M90 -8q-18 0 -29 15.5t-5 44.5q4 25 23.5 46t44.5 21q45 0 35 -60q-5 -27 -23 -47t-46 -20z" />
<glyph unicode="/" horiz-adv-x="313" d="M408 616q-6 -31 -27 -36l-260 -530q4 -13 1 -31q-3 -15 -20 -25.5t-38 -10.5q-24 0 -38.5 13.5t-9.5 39.5q4 25 37 35l260 531q3 25 14.5 37.5t42.5 12.5q25 0 33 -9t5 -27z" />
<glyph unicode="0" horiz-adv-x="607" d="M473 653q83 0 138.5 -60.5t35.5 -175.5q-17 -97 -58 -175.5t-88.5 -125t-102 -77.5t-96 -42.5t-73.5 -11.5q-91 0 -135 59t-24 171q20 111 66.5 199t104.5 138t117.5 75.5t114.5 25.5zM454 569q-40 0 -82 -19.5t-83.5 -59t-75 -109.5t-49.5 -161q-14 -77 9.5 -114 t69.5 -37q27 0 60 10t72 35.5t73.5 62.5t63.5 97.5t42 134.5q13 75 -13.5 117.5t-86.5 42.5z" />
<glyph unicode="1" horiz-adv-x="607" d="M419 532l-166 -95q-11 -28 -41 -28q-16 0 -25.5 14t-6.5 34q4 20 18.5 34t30.5 17l213 121q42 24 59 24t26 -10.5t6 -26.5q-4 -19 -19 -34l-91 -521q6 -14 3 -26q-8 -40 -68 -40q-26 0 -35 6t-6 29q3 18 19 33z" />
<glyph unicode="2" horiz-adv-x="607" d="M539 56q-5 -31 -15 -43.5t-31 -12.5h-334q-20 -13 -49 -13q-19 0 -28.5 8.5t-7.5 17.5q11 57 76 142q31 41 71 76t59.5 49t66 41t47.5 27q95 54 112 143q7 40 -14 61t-62 21q-57 0 -94.5 -20t-67.5 -62q-2 -2 -5 -24q-3 -11 -21 -23.5t-39 -12.5q-24 0 -35.5 15t-7.5 36 q2 13 12.5 25.5t20.5 12.5q49 71 111.5 102t148.5 31q78 0 117.5 -44t27.5 -114q-10 -58 -40 -103t-59.5 -67t-71.5 -44q-76 -41 -132.5 -87t-95.5 -114h259q6 33 17 45.5t40 12.5q19 0 25 -17t-1 -65z" />
<glyph unicode="3" horiz-adv-x="607" d="M477 568h-216l-6 -33q4 -8 2 -27q-2 -13 -19.5 -25.5t-35.5 -12.5q-22 0 -33 10t-9 23q7 30 18 35l12 69q7 41 47 41h336q19 0 28 -9t6 -24q-5 -28 -33 -55l-145 -133q25 7 61 7q56 0 89.5 -44.5t19.5 -120.5q-26 -142 -134 -213t-257 -71q-65 0 -103.5 40.5t-24.5 113.5 q4 26 23 44.5t43 18.5t32.5 -12.5t5.5 -29.5q-2 -12 -5.5 -18t-9 -9t-6.5 -4q3 -63 80 -63q101 0 174 50.5t89 140.5q8 39 -8 69.5t-54 30.5q-46 0 -85 -13.5t-63.5 -26.5t-37.5 -13q-17 0 -25 15t-5 36q4 20 17 28t37.5 17t43.5 26z" />
<glyph unicode="4" horiz-adv-x="607" d="M384 195l-259 -40q-20 -12 -41 -12q-46 0 -34 53q1 11 12 23t23 19l361 372q3 15 20.5 26.5t39.5 11.5q23 0 35.5 -13.5t9.5 -32.5q-5 -25 -14 -35l-48 -275l84 14q13 12 29 12q40 0 31 -48q-4 -27 -17.5 -42.5t-29.5 -15.5t-23 10l-88 -12l-25 -140q11 -11 8 -28 q-10 -48 -77 -48q-40 0 -34 41q3 18 13 26zM399 277l40 231l-256 -264z" />
<glyph unicode="5" horiz-adv-x="607" d="M564 562q-12 0 -23 9l-270 -20q-2 -14 -18 -78.5t-26 -92.5q48 33 93 50t68 20t54 3q78 0 127.5 -42t33.5 -136q-13 -72 -53.5 -130.5t-93 -91.5t-106 -50.5t-100.5 -17.5q-116 0 -159 67q-28 8 -22 41q12 61 61 61q40 0 32 -46q-2 -7 7 -16.5t32 -18t54 -8.5 q93 0 166.5 58t87.5 138q9 52 -15 82t-80 30q-48 0 -92 -16.5t-70.5 -36.5t-53 -37t-42.5 -17q-18 0 -29 10.5t-7 27.5q2 10 14 38.5t17 46.5q26 95 46 209q4 28 42 30l302 22q23 14 41 14q43 0 36 -52q-9 -50 -54 -50z" />
<glyph unicode="6" horiz-adv-x="607" d="M271 -16q-55 0 -92.5 21.5t-72.5 70.5q-19 -2 -28 20t5 49q-14 55 -3 113q13 71 51 144t91 131t122 95t137 37q71 0 113 -30.5t35 -76.5q-4 -21 -20.5 -33.5t-38.5 -12.5q-26 0 -34 17.5t1 29.5q-9 26 -77 26q-96 0 -183 -101.5t-106 -207.5q-4 -31 -3 -49 q67 82 150.5 138.5t157.5 56.5q59 0 95 -24.5t46 -57.5t3 -70q-12 -68 -50.5 -124.5t-89.5 -90.5t-105.5 -52.5t-103.5 -18.5zM281 64q30 0 66.5 12t74 35t66.5 63.5t38 91.5q5 28 -12 52t-57 24q-61 0 -134.5 -56.5t-138.5 -136.5q7 -35 34.5 -60t62.5 -25z" />
<glyph unicode="7" horiz-adv-x="607" d="M255 548l-7 -37q6 -8 4 -21q-3 -15 -22.5 -27.5t-40.5 -11.5q-18 1 -27 13t-7 24q3 14 14 25l13 73q3 20 14 30t38 11l335 17q25 2 36 17q9 15 36 15q21 0 33 -11t10 -26q-7 -35 -30 -51l-186 -282q-137 -211 -162 -257q-10 -66 -68 -66q-20 0 -28.5 14.5t-4.5 37.5 q2 15 40 74l300 460q-16 -4 -48 -6z" />
<glyph unicode="8" horiz-adv-x="607" d="M190 -11q-57 0 -105 41t-36 111q12 67 66 129.5t107 90.5v2q-49 29 -35 103q16 94 89.5 146.5t166.5 52.5q71 0 106 -32t26 -80q-6 -33 -25.5 -67.5t-42.5 -53.5v-2q51 -1 91.5 -35.5t29.5 -101.5q-14 -78 -90.5 -150t-172.5 -113t-175 -41zM480 525q6 29 -10.5 46 t-56.5 17q-52 0 -90.5 -31.5t-48.5 -84.5q-5 -29 5 -47t27 -20q46 18 113 27q21 17 39 43.5t22 49.5zM433 351q-93 0 -186 -63.5t-108 -143.5q-5 -29 20.5 -51.5t49.5 -22.5q60 0 133 31.5t128 82.5t64 101q5 28 -21.5 47t-79.5 19z" />
<glyph unicode="9" horiz-adv-x="607" d="M463 658q102 0 155 -101q14 -6 20 -25.5t3 -38.5q-3 -13 -8 -19q4 -63 -4 -107q-19 -110 -80.5 -199.5t-142.5 -137.5t-164 -48q-122 0 -160 110q-9 2 -14 12.5t-3 23.5q5 29 25 43t39 14q29 0 39 -19.5t-1 -36.5q7 -28 31 -47.5t55 -19.5q99 0 181.5 86t99.5 182 q4 28 4 43h-1q-33 -44 -104 -77.5t-138 -33.5q-74 0 -118 52t-36 98q20 118 108 182t214 64zM439 578q-77 0 -134.5 -40.5t-71.5 -116.5q-4 -25 27 -52t59 -27q72 0 142.5 45.5t79.5 98.5q6 33 -23 62.5t-79 29.5z" />
<glyph unicode=":" horiz-adv-x="203" d="M176 408q21 0 28 -20t3 -43q-5 -28 -24 -48t-43 -20q-23 0 -31.5 20t-5.5 39q5 28 24.5 50t48.5 22zM87 -8q-43 0 -34 52q6 35 28.5 56t47.5 21q13 0 24 -11.5t7 -36.5q-6 -33 -28 -57t-45 -24z" />
<glyph unicode=";" horiz-adv-x="201" d="M139 277q-17 0 -28 16t-5 44q4 24 23.5 45.5t43.5 21.5q47 0 36 -60q-5 -28 -23 -47.5t-47 -19.5zM28 -111q-26 0 -21 25q4 24 35 27q25 1 40.5 17.5t21.5 42.5q-13 -10 -26 -10q-18 0 -24 15.5t-2 37.5q5 31 21.5 51t42.5 20q53 0 37 -90q-12 -66 -51 -101t-74 -35z" />
<glyph unicode="&#x3c;" horiz-adv-x="512" d="M208 223l180 -133q23 -2 31.5 -7.5t5.5 -21.5q-3 -20 -26.5 -45.5t-42.5 -25.5q-27 0 -27 27l-190 152q-24 20 -30.5 34.5t-3.5 35.5q4 20 35 36l255 131q1 14 16 26.5t29 12.5q24 0 38.5 -20.5t12.5 -32.5q-4 -24 -15 -35.5t-36 -13.5z" />
<glyph unicode="=" horiz-adv-x="512" d="M175 372h282q3 1 9.5 3.5t11 4t8.5 1.5q36 0 28 -52q-9 -51 -46 -51q-16 0 -26 6h-282q-21 -7 -31 -7q-36 0 -27 43q10 57 48 57q15 0 25 -5zM142 185h282q3 1 9 3.5t11 4t9 1.5q37 0 28 -52q-9 -51 -46 -51q-17 0 -26 6h-282q-23 -7 -31 -7q-36 0 -27 43q10 57 48 57 q15 0 25 -5z" />
<glyph unicode="&#x3e;" horiz-adv-x="512" d="M146 90l227 133l-189 120q-24 2 -31.5 13.5t-2.5 35.5q2 12 23.5 32.5t44.5 20.5q15 0 25.5 -12.5t6.5 -26.5l209 -131q26 -17 22 -36q-3 -21 -14.5 -35t-43.5 -35l-243 -152q-13 -27 -38 -27q-19 0 -33 25.5t-10 45.5q3 16 13.5 21.5t33.5 7.5z" />
<glyph unicode="?" horiz-adv-x="429" d="M218 144q-53 0 -73 19.5t-12 67.5q8 45 42.5 82.5t115.5 96.5q72 53 98.5 82t31.5 56q3 19 -13 33.5t-50 14.5q-77 0 -140 -78q-2 -21 -17 -36.5t-29 -15.5q-21 0 -34.5 14t-9.5 37q8 36 26 40q107 118 235 118q62 0 98 -36t27 -82q-8 -45 -40.5 -83t-132.5 -116 q-81 -63 -103 -83.5t-25 -37.5q-1 -11 5 -15.5t18 -4.5q40 0 47 31q2 10 12.5 18t24.5 8q19 0 31.5 -9t9.5 -30q-7 -35 -44.5 -63t-98.5 -28zM176 -19q-15 0 -26 14.5t-8 36.5q14 75 71 75q19 0 27 -16.5t3 -43.5t-22 -46.5t-45 -19.5z" />
<glyph unicode="@" horiz-adv-x="744" d="M229 -64q75 0 137 34q8 24 32 24q17 0 30.5 -13t10.5 -29q-4 -19 -21 -31t-38 -10q-80 -39 -166 -39q-96 0 -143.5 56.5t-26.5 178.5q13 74 62.5 153.5t119.5 144.5t161.5 107t181.5 42q237 0 190 -270q-14 -76 -41 -135t-60.5 -93t-67.5 -50.5t-67 -16.5q-42 0 -58 23 t-10 57q2 10 9.5 35.5l9.5 32.5h-2q-40 -49 -103.5 -91t-117.5 -42q-36 0 -54 25t-9 71q13 73 69.5 148t130.5 123t135 48q17 0 30 -5q9 20 33 20q19 0 28 -8.5t7 -21.5q-1 -5 -4 -13t-4 -10l-81 -287q-13 -44 16 -44q33 0 76.5 57.5t62.5 164.5q10 64 7.5 112.5t-36 77.5 t-99.5 29q-78 0 -157 -37.5t-137.5 -94.5t-99.5 -123.5t-52 -126.5q-30 -173 116 -173zM294 82q44 0 130 79.5t97 143.5l3 14q4 29 -22 29q-57 0 -135 -76.5t-91 -146.5q-7 -43 18 -43z" />
<glyph unicode="A" horiz-adv-x="579" d="M442 241l-231 -16q-83 -129 -88 -144q-4 -11 -9 -44q-8 -42 -62 -42q-24 0 -33.5 13t-6.5 33q0 4 1.5 8t4 9.5l4.5 10t6.5 12.5t8 13.5l10 16.5l11 18l13 21t14.5 23l223 342q36 54 46 83q4 27 22.5 47t43.5 20q22 0 33 -12t9 -26q-2 -9 -7.5 -20t-6.5 -17 q-3 -14 9 -61.5t29.5 -109t21.5 -77.5q68 -243 60 -288q-4 -28 -21.5 -43.5t-43.5 -15.5q-21 0 -33 11t-9 27q2 9 6.5 21t5.5 15q4 28 -31 172zM261 304l164 12l-42 184z" />
<glyph unicode="B" horiz-adv-x="579" d="M77 72l85 485q-5 10 -3 31q4 24 24 36.5t45 12.5q16 0 25 -8.5t6 -22.5q43 18 105.5 31.5t106.5 13.5q53 0 83.5 -24t23.5 -61q-17 -93 -128 -142v-2q18 3 32 3q62 0 96.5 -38t25.5 -89q-11 -61 -55.5 -114t-104 -87.5t-127 -59.5t-123.5 -36t-95 -11q-27 0 -39 11.5 t-8 33.5q5 30 25 37zM245 524l-21 -118q81 5 166.5 46t92.5 84q3 17 -10 26.5t-51 9.5q-34 0 -89.5 -15t-87.5 -33zM205 300l-38 -219q65 6 137.5 31t134 72t70.5 102q5 27 -19 50t-79 23q-83 0 -167 -28q-35 -13 -39 -31z" />
<glyph unicode="C" horiz-adv-x="518" d="M430 656q74 0 118.5 -32t37.5 -70q-4 -25 -20 -39t-38 -14q-36 0 -36 40q-1 14 -21 23.5t-51 9.5q-80 0 -158 -108.5t-96 -213.5q-16 -90 10.5 -138t73.5 -48q40 0 86 23.5t74 55.5q13 57 59 57q22 0 32.5 -14t7.5 -28q-6 -31 -36 -62q-47 -44 -115.5 -80.5t-134.5 -35.5 q-89 0 -129.5 70t-16.5 206q10 58 42 126t78 129t108.5 102t124.5 41z" />
<glyph unicode="D" horiz-adv-x="569" d="M53 30q5 26 19 40l88 505q-4 16 -1 33q3 16 20 29.5t44 13.5q23 0 31 -15t-1 -31q100 47 199 47q84 0 131 -69.5t32 -156.5q-31 -176 -164 -295q-78 -68 -178 -106.5t-172 -38.5q-28 0 -40 11t-8 33zM239 519l-78 -441q138 13 239 110q98 103 120 229q10 58 -19 106 t-84 48q-85 0 -178 -52z" />
<glyph unicode="E" horiz-adv-x="513" d="M203 277l-35 -194l259 19q15 15 32 15q22 0 34 -15t9 -32q-5 -30 -24.5 -40.5t-58.5 -10.5l-265 -20q-17 -17 -56 -17q-20 0 -31.5 13.5t-7.5 37.5q3 25 19 44l34 188q-14 17 -9 46q6 29 25 46l28 160q-18 12 -13 39q6 27 21 39q-4 5 -2 16q3 16 20 26t38 10 q23 0 33.5 -10.5t7.5 -26.5l224 21q24 15 36 15q26 0 37.5 -13.5t7.5 -32.5q-5 -26 -22 -42.5t-41 -16.5q-15 0 -31 8l-225 -22l-30 -167l181 24q22 14 35 14q22 0 34 -16t8 -36q-9 -51 -63 -51q-10 0 -20 7z" />
<glyph unicode="F" horiz-adv-x="470" d="M202 280l-36 -203q9 -15 5 -38q-4 -22 -24 -34t-46 -12q-28 1 -39 11.5t-7 32.5q6 31 24 49l32 181q-12 16 -8 46q6 30 25 49l26 149q-5 2 -9 16.5t-2 27.5q6 35 26 38q2 23 22.5 36t44.5 13q17 0 24.5 -9.5t0.5 -24.5l217 33q7 1 18.5 6t18.5 5q22 0 34.5 -11.5 t8.5 -31.5q-6 -34 -20 -47.5t-41 -13.5q-17 0 -33 9l-219 -34l-28 -158l203 31q17 13 42 13q13 0 20.5 -16.5t5.5 -32.5q-5 -31 -18 -43.5t-36 -12.5q-20 0 -32 6z" />
<glyph unicode="G" horiz-adv-x="628" d="M519 665q71 0 108 -37q16 -14 26.5 -36.5t8.5 -35.5q-4 -20 -18.5 -32.5t-35.5 -12.5q-32 0 -37 42q-3 13 -21 22.5t-51 9.5q-61 0 -150 -61q-155 -109 -185 -278q-15 -89 12 -136.5t82 -47.5q40 0 91.5 19t86.5 51q51 43 83 88.5t38 76.5q-24 -7 -81.5 -19t-77.5 -12 q-13 0 -21.5 10.5t-5.5 29.5t16.5 32t32.5 13q44 0 122 17.5t85 17.5q40 0 31 -46q-5 -29 -23 -71t-54.5 -92.5t-83.5 -93.5t-116.5 -72t-146.5 -29q-99 -1 -140.5 71t-19.5 193q18 107 83.5 194t154.5 146q118 79 207 79z" />
<glyph unicode="H" horiz-adv-x="579" d="M205 293l-39 -221q4 -20 1 -34q-3 -18 -19 -30.5t-34 -12.5q-31 0 -43.5 11t-9.5 30q3 25 16 33l38 218q-14 12 -10 32q7 44 25 50l36 203q-5 17 -2 29q3 19 23 31.5t46 12.5q13 0 25 -12.5t9 -29.5q-4 -24 -13 -33l-34 -190l278 19l29 167q-6 12 -1 37q4 19 21.5 30.5 t37.5 11.5q16 0 32 -13t14 -26q-3 -18 -14 -32l-89 -506q5 -16 2 -34q-3 -16 -22.5 -27.5t-39.5 -11.5t-33.5 13.5t-9.5 33.5q3 18 16 35l41 235z" />
<glyph unicode="I" horiz-adv-x="216" d="M250 551l-83 -472q9 -17 6 -35q-3 -19 -22 -34t-44 -15q-26 0 -39 14t-9 38q3 18 19 36l84 474q-10 10 -6 29q4 26 26 42.5t49 16.5q25 0 35 -16t6 -38q-3 -21 -22 -40z" />
<glyph unicode="J" horiz-adv-x="489" d="M519 547l-69 -395q-8 -41 -36.5 -81.5t-70.5 -70.5q-73 -55 -166 -55q-83 0 -120 47t-24 122q5 29 21.5 51.5t38.5 22.5q25 0 38.5 -16t10.5 -36q-4 -24 -23 -39q-6 -32 12 -49.5t58 -17.5q23 0 54.5 11.5t50.5 26.5q59 45 70 101l66 373q-12 12 -8 39q10 59 69 59 q22 0 34.5 -16.5t7.5 -42.5q-3 -25 -14 -34z" />
<glyph unicode="K" horiz-adv-x="524" d="M212 339l-47 -266q9 -9 6 -27q-8 -51 -63 -51q-24 0 -38 13.5t-9 37.5q5 20 16 30l87 493q-6 7 -2 25q4 25 20.5 38t36.5 13t35.5 -11t11.5 -34q-3 -18 -12 -27l-26 -144h2q24 26 58 51l176 126q24 37 52 37q14 0 29 -11.5t11 -33.5q-3 -17 -18 -33.5t-33 -17.5 l-220 -158l211 -310q14 0 22 -11t6 -23q-2 -18 -23 -36t-47 -18q-20 0 -29 9t-7 23l-169 247q-28 43 -35 69h-2z" />
<glyph unicode="L" horiz-adv-x="420" d="M252 563l-86 -487l180 24q19 14 35 14q15 0 26.5 -11.5t7.5 -33.5q-5 -27 -19 -41.5t-29 -14.5q-13 0 -26 5l-199 -27q-33 -6 -41 -6q-24 0 -36 11.5t-8 34.5q4 25 18 35l88 497q-5 14 -2 27q5 29 23 42t42 13q49 0 40 -53q-2 -10 -14 -29z" />
<glyph unicode="M" horiz-adv-x="725" d="M62 42q2 20 13 31l91 520q8 48 59 50q44 -2 37 -39q-5 -37 22 -116l58.5 -172.5t34.5 -155.5h3q32 74 149 218.5t129 192.5q1 6 2.5 21.5t2.5 21.5q7 33 52 33q31 0 44.5 -13t8.5 -36q-1 -13 -11 -30l-88 -498q6 -8 4 -28q-4 -22 -22.5 -34.5t-40.5 -12.5q-26 0 -36 10.5 t-6 29.5q3 19 15 31q3 15 26.5 146t37.5 200h-2l-65 -89l-82 -114t-61.5 -96t-37.5 -78q-7 -35 -52 -35q-53 0 -44 54q0 18 2 28t-2.5 33.5t-6.5 38t-9.5 41.5t-12.5 43.5l-14 45l-14.5 45.5l-14.5 44.5l-14 42.5h-3q-14 -97 -57 -340q8 -11 4 -35q-7 -46 -58 -46 q-25 0 -35 13t-6 34z" />
<glyph unicode="N" horiz-adv-x="566" d="M77 70l87 495q-5 14 -2 30q3 20 19 35t41 15q28 0 37.5 -9t5.5 -29q-5 -29 17 -98q28 -84 96 -180q61 -86 76 -138h1q22 141 67 393q-6 19 -5 27q8 45 52 45q22 0 37.5 -10t11.5 -28q-3 -17 -14 -32l-93 -530q9 -14 6 -27q-3 -19 -15.5 -26.5t-40.5 -7.5q-20 0 -28 13.5 t-15 40.5q-9 37 -39.5 98.5t-58.5 101.5q-79 115 -96 189h-2l-63 -368q7 -13 4 -30q-7 -45 -53 -45q-26 0 -40 11.5t-9 36.5q3 14 16 27z" />
<glyph unicode="O" horiz-adv-x="573" d="M452 674q88 0 133.5 -76t17.5 -234q-29 -163 -139.5 -272.5t-241.5 -109.5q-53 0 -89.5 25.5t-50 64t-18 84.5t5.5 88q17 99 76.5 199t143 165.5t162.5 65.5zM427 594q-47 0 -103.5 -51.5t-101 -131t-58.5 -155.5q-6 -48 -4 -91t26 -73t66 -30q80 0 158 86.5t100 212.5 q21 115 -1 174t-82 59z" />
<glyph unicode="P" horiz-adv-x="517" d="M63 38q5 20 17 32l65 368q-26 4 -19 43q7 35 35 53l7 36q-3 9 -1 27q4 18 22 30.5t34 12.5q26 0 36 -14t0 -37l-2 -11l19.5 9.5l21.5 10.5t21 9.5t24.5 10l24 8t28 7.5t27.5 5.5t32 4.5t33 1q63 0 90.5 -28t19.5 -78q-16 -85 -127.5 -164.5t-267.5 -104.5l-35 -204 q7 -15 5 -26q-4 -27 -18 -35.5t-52 -8.5q-22 0 -32.5 12.5t-7.5 30.5zM243 490l-24 -138q118 18 196.5 67.5t86.5 96.5q2 18 -12.5 30t-46.5 12q-86 0 -200 -68z" />
<glyph unicode="Q" horiz-adv-x="608" d="M493 669q90 0 126 -72t14 -194q-30 -170 -123 -281q34 -51 68 -77q36 -4 31 -36q-4 -24 -23.5 -39.5t-39.5 -15.5q-27 0 -34 23q-32 22 -74 81q-99 -73 -223 -73q-34 0 -62 10.5t-53.5 38.5t-32 75t3.5 121q17 94 64 178.5t107 140t126.5 88t124.5 32.5zM471 591 q-84 0 -181.5 -101t-125.5 -258q-14 -78 6.5 -123t70.5 -45q84 0 151 53q-47 59 -81 83q-14 14 4.5 45t47.5 31q16 0 34 -16q25 -27 60 -75q62 89 85 222q14 74 -5.5 129t-65.5 55z" />
<glyph unicode="R" horiz-adv-x="564" d="M63 48q1 7 17 32l68 386q-2 -2 -9 -2t-11.5 10t-1.5 28q8 45 39 56l3 21q-4 14 -1 29q4 21 22 34t40 13t31.5 -16.5t-1.5 -41.5l-2 -10q125 56 237 56q57 0 87.5 -27.5t22.5 -76.5q-14 -77 -100 -134.5t-230 -83.5l258 -234q23 9 39.5 -5.5t13.5 -34.5q-5 -28 -24 -43.5 t-42 -15.5q-31 0 -38 27l-280 256l-34 -195q4 -24 3 -31q-9 -50 -73 -50q-42 0 -34 53zM244 510l-25 -140q273 60 290 155q4 18 -10.5 28.5t-42.5 10.5q-97 0 -212 -54z" />
<glyph unicode="S" horiz-adv-x="586" d="M444 649q60 0 103 -34t37 -67q-8 -42 -49 -42q-26 0 -37.5 10t-8.5 25q-14 28 -72 28q-72 0 -139 -50t-77 -105q-8 -49 32 -49q37 0 115 23q86 24 139 24q61 0 94 -34t21 -99q-14 -87 -78 -152q-62 -66 -153 -104t-174 -38q-34 0 -60.5 10t-41.5 25t-24.5 32.5t-12 32.5 t-0.5 26q4 25 21 42t40 17q11 0 18 -7.5t9.5 -15t5 -22.5t3.5 -19q14 -41 63 -41q55 0 122.5 29t111.5 73q46 39 57 106q6 31 -6.5 44t-42.5 13q-44 0 -128 -23q-75 -24 -132 -24q-115 0 -93 121q16 87 118.5 166t218.5 79z" />
<glyph unicode="T" horiz-adv-x="457" d="M369 549l-85 -481q6 -15 4 -25q-9 -48 -70 -48q-41 0 -34 42q3 23 12 35l81 462l-112 -23q-18 -10 -30 -10q-20 0 -29.5 12t-5.5 32q4 21 18 36t29 15t26 -7l127 26q12 13 35 17t34 -4l144 27q17 7 30 7q19 0 28 -12.5t5 -34.5q-3 -19 -17 -33.5t-32 -14.5q-13 0 -27 8z " />
<glyph unicode="U" horiz-adv-x="558" d="M214 -17q-80 0 -109.5 45t-20.5 100l78 447q-7 25 10 45t44 20q18 0 27 -11t8.5 -23.5t-1.5 -23.5l-82 -462q3 -21 21 -36t45 -15q80 0 138.5 42t62.5 71l70 397q-7 7 -4 23q4 21 22 34t43 13q16 0 27 -11t7 -30q-2 -14 -7 -20l-74 -421q-3 -17 -28 -51t-55 -55 q-101 -78 -222 -78z" />
<glyph unicode="V" horiz-adv-x="506" d="M244 178h2q89 172 262 397q17 33 32 45t35 12q18 0 28 -13t6 -38q-5 -24 -28 -51q-112 -123 -181 -225q-55 -81 -91.5 -151.5t-40.5 -95.5q-12 -68 -74 -65q-20 -1 -34 12t-10 27q2 11 7 27t7 24q11 67 -20 268q-25 168 -13 242q9 47 60 47q41 0 28 -69q-7 -37 11 -209 q16 -127 14 -184z" />
<glyph unicode="W" horiz-adv-x="737" d="M175 -8q-22 0 -29 17t0 63q11 63 -5 259q0 5 -3 35.5t-3.5 39.5l-2 35t-1.5 39.5t0.5 34.5t2 38t4.5 34q5 29 22 43.5t38 14.5q20 0 30 -13t6 -34q-1 -4 -6.5 -18.5t-6.5 -23.5q-9 -62 -1 -191q9 -135 4 -202q21 55 101 204q69 132 82 211q10 56 54 56q28 1 35.5 -14.5 t0.5 -52.5q-12 -69 24 -229q24 -118 25 -174q30 84 103 225q52 98 78 194q-6 11 -3 27q9 48 59 48q22 0 33.5 -13t8.5 -29q-3 -20 -9 -38q-22 -68 -95 -212l-20 -38.5l-23 -44.5l-20.5 -41.5l-22.5 -47l-19 -42.5t-19 -46.5t-14 -42.5q-15 -45 -28.5 -62t-37.5 -17 q-30 0 -36.5 15.5t-2.5 56.5q5 34 -24 202q-25 99 -29 166q-23 -54 -84 -167q-89 -164 -99 -221q-3 -20 -21.5 -32t-45.5 -12z" />
<glyph unicode="X" horiz-adv-x="472" d="M59 -5q-15 0 -26 12t-8 28q6 36 33 46q86 126 196 260q-46 127 -95 213q-19 28 -16 46q4 20 16.5 33t25.5 13q29 0 42 -15q15 -16 32 -54.5t26.5 -67l29.5 -90.5q89 110 143 186q15 37 58 37q19 0 29.5 -13.5t6.5 -33.5q-4 -30 -36 -52q-16 -20 -77 -90.5l-96 -113.5 q10 -25 44 -122t50 -135q13 -10 8 -36q-4 -23 -21 -37t-40 -14q-22 0 -29.5 15t-2.5 36q-9 24 -33.5 101.5t-37.5 112.5q-45 -60 -157 -226q-25 -39 -65 -39z" />
<glyph unicode="Y" horiz-adv-x="548" d="M245 83l41 230q-17 51 -77.5 127t-80.5 119q-27 12 -20 46q3 20 24 35t41 16q19 0 29 -12.5t6 -31.5q13 -35 68 -109t69 -109h2q28 34 96.5 93.5t99.5 93.5q22 24 27 33q11 21 23 31.5t33 10.5q20 0 30.5 -12.5t6.5 -31.5q-3 -18 -35 -54l-15.5 -17t-19 -18.5 t-14.5 -13.5q-15 -15 -95 -84.5t-110 -112.5l-42 -240q7 -12 5 -27q-3 -22 -21 -36t-49 -14q-26 0 -35 10t-4 39t17 39z" />
<glyph unicode="Z" horiz-adv-x="535" d="M506 573l-260 -15q-21 -49 -60 -49q-19 0 -26 13t-4 30q7 42 29.5 71.5t49.5 29.5q21 0 26 -13l258 12q15 0 38 2.5t34 2.5q19 0 30 -9.5t9 -24.5q-8 -40 -54 -81l-445 -469l298 9q4 25 21.5 40.5t35.5 15.5q17 0 28.5 -15t5.5 -48q-7 -38 -24.5 -57t-38.5 -19 q-7 0 -57 0.5t-96 0.5q-25 0 -127 -4q-83 -5 -100 -5q-33 0 -46.5 12.5t-8.5 39.5q5 29 38 58z" />
<glyph unicode="[" horiz-adv-x="310" d="M134 -137l97 12q19 12 26 12q15 0 21.5 -14.5t2.5 -34.5q-6 -39 -53 -42l-107 -12q-23 -10 -45 -10q-47 0 -36 57l136 773q5 29 21.5 43t35.5 14q21 0 38 -11l73 14q20 13 35 13q21 0 28.5 -13.5t3.5 -31.5q-5 -25 -18 -38.5t-26 -13.5q-16 0 -21 8l-90 -18l-124 -705z " />
<glyph unicode="\" horiz-adv-x="313" d="M209 50l-72 530q-9 2 -13 13t-2 24q7 35 51 35q30 0 37.5 -12.5t1.5 -37.5l73 -531q29 -10 25 -35q-5 -26 -24 -39.5t-44 -13.5q-20 0 -33.5 10.5t-10.5 25.5q2 16 11 31z" />
<glyph unicode="]" horiz-adv-x="310" d="M257 583l-97 -12q-18 -13 -26 -13q-15 0 -21.5 14.5t-2.5 35.5q6 37 53 42l107 12q23 10 45 10q47 0 37 -57l-136 -772q-5 -30 -22 -43.5t-36 -13.5q-20 0 -37 11l-73 -14q-18 -12 -36 -14q-39 0 -32 44q5 26 18 39.5t26 13.5q17 0 21 -8l91 18l124 704z" />
<glyph unicode="^" horiz-adv-x="512" d="M426 417l-66 117l-126 -121q-4 -20 -16.5 -37t-31.5 -17q-24 0 -40.5 15t-13.5 34q1 8 6 15t10 12t14 13t14 14l162 162q18 29 44 29q21 0 33.5 -16t13.5 -33l76 -145q19 -27 15 -51q-4 -19 -19.5 -34t-44.5 -15q-17 0 -26.5 15t-3.5 43z" />
<glyph unicode="_" horiz-adv-x="463" d="M437 -150h-463v75h463v-75z" />
<glyph unicode="`" d="M247 635l44 -73q9 -2 15 -11t4 -21q-3 -18 -16.5 -28t-30.5 -10q-15 0 -21.5 10.5t-3.5 22.5l-47 74q-19 9 -15 34q6 39 46 39q29 0 25 -37z" />
<glyph unicode="a" horiz-adv-x="452" d="M359 288l9 51q6 39 -26 39q-68 0 -136 -43q1 -7 -12 -17.5t-31 -10.5q-16 0 -25 15.5t-6 31.5q2 15 19 29.5t30 11.5q90 55 206 55q36 0 55.5 -24t12.5 -66l-54 -306q6 -8 3 -24q-6 -36 -67 -36q-22 0 -29 8.5t-5 23.5q2 7 12 24l8 45h-2q-116 -113 -227 -113 q-36 0 -56.5 21.5t-13.5 58.5q12 73 103.5 141t231.5 85zM340 195l6 31q-88 -11 -157 -57t-76 -84q-4 -23 27 -23q50 0 122.5 49t77.5 84z" />
<glyph unicode="b" horiz-adv-x="446" d="M248 593l-42 -237l1 -2q105 82 205 82q89 0 72 -102q-12 -69 -74.5 -150.5t-151.5 -139.5t-166 -58q-27 0 -37.5 9.5t-6.5 31.5q1 9 7.5 19.5t12.5 14.5l93 523q-9 16 -6 36q3 18 25.5 27.5t43.5 9.5q44 0 36 -37q-1 -13 -12 -27zM191 271l-34 -194q79 28 151.5 99.5 t87.5 152.5q4 28 -36 28q-30 0 -77.5 -22.5t-91.5 -63.5z" />
<glyph unicode="c" horiz-adv-x="430" d="M343 444q53 0 86.5 -23t27.5 -55q-9 -49 -62 -49q-14 0 -18.5 6.5t-6.5 18.5q-2 8 -4.5 12.5t-11 8.5t-23.5 4q-44 0 -96 -50q-78 -71 -93 -159q-16 -97 68 -97q26 0 63 21q43 26 64 60q7 17 11.5 25t14.5 15t24 7q23 0 31.5 -13.5t5.5 -28.5q-2 -13 -31.5 -50.5 t-68.5 -64.5q-69 -51 -149 -51q-68 0 -100.5 45t-20.5 117q14 79 46 127t90 103q26 26 71.5 48.5t81.5 22.5z" />
<glyph unicode="d" horiz-adv-x="483" d="M409 397l33 182q-12 7 -7 34q3 19 21 31t41 12q22 0 32 -13.5t7 -32.5l-9 -34l-91 -515q11 -8 8 -25q-8 -42 -64 -42q-46 0 -39 40q4 19 9 23l12 69q-47 -58 -119.5 -101t-131.5 -43q-44 0 -67.5 31t-13.5 87q21 115 125.5 214.5t195.5 99.5q38 0 58 -17zM338 338 q-55 0 -130 -77.5t-87 -140.5q-10 -53 34 -53q60 0 144 80q28 25 41 38t27 36.5t19 50.5q5 30 -7 48t-41 18z" />
<glyph unicode="e" horiz-adv-x="433" d="M349 444q48 0 76 -23.5t34 -49.5t2 -50q-5 -26 -22.5 -44.5t-77.5 -41t-165 -41.5l-44 -8q-10 -22 -16 -54q-13 -70 52 -70q44 0 85 21.5t61 45.5q1 18 16 31t37 13q42 0 35 -44q-6 -33 -83 -89t-176 -56q-137 0 -113 140q24 135 114 227.5t185 92.5zM331 368 q-39 0 -79.5 -31t-69.5 -80q192 35 197 60q3 21 -8.5 36t-39.5 15z" />
<glyph unicode="f" horiz-adv-x="319" d="M106 55l47 267l-48 -8q-11 -7 -19 -7q-31 0 -22 48q2 15 12.5 28.5t21.5 13.5q6 0 19 -5l50 9q25 141 64 204t115 63q37 0 71.5 -29t29.5 -55q-4 -18 -16.5 -33t-30.5 -15q-16 0 -24 10t-6 22q-7 22 -42 22q-22 0 -38.5 -37.5t-34.5 -136.5l106 18l9 6q9 5 15 5 q17 0 25 -12t5 -29q-4 -22 -14.5 -36.5t-23.5 -14.5q-11 0 -19 5l-116 -20l-49 -277q6 -17 3 -28q-6 -38 -56 -38q-26 0 -36.5 10t-6.5 31q1 7 9 19z" />
<glyph unicode="g" horiz-adv-x="447" d="M460 385l-70 -402q-17 -93 -85.5 -145t-141.5 -52q-57 0 -93 21.5t-30 50.5q4 23 17.5 37.5t30.5 14.5q13 0 21.5 -8t7.5 -21q22 -20 64 -20q40 0 76.5 31.5t48.5 99.5q4 25 13.5 75.5t13.5 75.5q-40 -72 -100.5 -116.5t-114.5 -44.5q-50 0 -70 31t-11 81 q23 129 130 235.5t246 106.5q55 0 47 -51zM144 63q33 0 87 47.5t93 126.5q33 62 46 123v1q-80 0 -154.5 -79.5t-91.5 -172.5q-8 -46 20 -46z" />
<glyph unicode="h" horiz-adv-x="440" d="M309 62l41 232q4 26 1.5 35t-14.5 9q-25 0 -65.5 -21t-83.5 -69l-32 -184q6 -13 2 -28q-3 -18 -24.5 -29.5t-44.5 -11.5q-21 0 -28 7.5t-5 24.5q4 22 13 33l92 518q0 4 -2.5 14t-1.5 15q4 24 23 37.5t44 13.5q13 0 26.5 -14t10.5 -31q-3 -13 -14 -30l-41 -236h2 q106 89 188 89q36 0 46 -23.5t1 -75.5l-48 -276q0 -2 2 -9.5t1 -12.5q-3 -17 -23 -30.5t-39 -13.5q-22 0 -33.5 9t-9.5 25q4 22 16 33z" />
<glyph unicode="i" horiz-adv-x="199" d="M223 629q41 0 33 -46q-7 -42 -28 -67.5t-44 -25.5q-42 0 -33 48q7 40 26.5 65.5t45.5 25.5zM221 391q-2 -12 -16 -33l-50 -286q10 -10 7 -28q-4 -23 -27.5 -36t-48.5 -13q-18 0 -27.5 13t-5.5 34q3 20 17 34l49 278q-8 9 -4 26q3 18 7 28.5t19.5 20t42.5 9.5 q16 0 28 -15.5t9 -31.5z" />
<glyph unicode="j" horiz-adv-x="214" d="M245 635q22 0 25.5 -20t-3.5 -44q-13 -83 -72 -83q-19 0 -26 22t-1 54q5 28 27.5 49.5t49.5 21.5zM217 340l-76 -434q-14 -77 -62 -118t-109 -41q-56 0 -84 36t-23 63q4 24 19.5 41.5t37.5 17.5q16 0 26.5 -12.5t1.5 -37.5q9 -28 37 -28q56 0 74 101l72 412q-9 16 -6 38 q11 60 78 60q20 0 30 -15.5t5 -42.5q-4 -19 -21 -40z" />
<glyph unicode="k" horiz-adv-x="408" d="M245 586l-54 -308l1 -1l74 75l100 88q3 13 15 22.5t25 9.5q23 0 33.5 -14.5t6.5 -34.5q-2 -16 -14 -26.5t-23 -10.5l-158 -146l114 -165q13 2 21.5 -8t5.5 -25q-3 -22 -21.5 -36.5t-45.5 -14.5q-23 0 -26 29l-76 111q-31 47 -44 72l-2 -1l-22 -124q5 -28 5 -33 q-9 -50 -64 -50q-51 0 -41 52q3 19 14 29l89 506q-10 10 -6 28q8 47 63 47q26 0 36 -10.5t6 -34.5q-2 -18 -12 -26z" />
<glyph unicode="l" horiz-adv-x="199" d="M69 70l88 498q-6 19 -4 34q6 32 19.5 43t47.5 11q20 0 34 -13t10 -34q-4 -22 -22 -44l-88 -498q14 -13 9 -30q-2 -14 -20.5 -28t-41.5 -14t-36 13t-9 36q1 11 13 26z" />
<glyph unicode="m" horiz-adv-x="684" d="M187 255l-33 -188q5 -13 3 -26q-7 -46 -56 -46q-27 0 -38 11.5t-7 37.5q1 9 14 29l52 301q-5 17 -2 35q7 46 68 46q20 0 28.5 -12.5t5.5 -31.5q-4 -18 -12 -31l-7 -38q146 113 201 113t43 -70l-8 -48q155 118 216 118q23 0 35 -14.5t8 -40.5l-60 -337q8 -10 6 -26 q-4 -21 -24 -31.5t-42 -10.5q-24 0 -33.5 8.5t-4.5 33.5q3 16 12 24l48 273q4 22 -11 22q-37 0 -165 -101l-33 -191q-8 -42 -22.5 -55.5t-46.5 -13.5q-44 0 -38 40q4 17 21 34l47 261q4 22 -12 22q-36 0 -153 -97z" />
<glyph unicode="n" horiz-adv-x="438" d="M192 265l-37 -210q4 -10 3 -24q-3 -18 -23 -27t-41 -9q-19 0 -31 8.5t-10 25.5q5 18 17 28l27 156q-13 9 -8 33q4 23 24 58l14 80q-5 14 -2 30q3 15 23 28t41 13q25 0 33.5 -9t6.5 -26q-3 -14 -15 -31l-7 -39q135 105 188 105q25 0 43.5 -21t13.5 -45l-57 -326 q3 -18 2 -26q-8 -42 -61 -42q-24 0 -34 10t-6 28q3 14 13 26l49 280q1 5 -6 12t-13 7q-28 0 -147 -93z" />
<glyph unicode="o" horiz-adv-x="455" d="M363 448q40 0 66 -19.5t34.5 -48t11 -61.5t-4.5 -60q-10 -55 -42.5 -105.5t-60.5 -76.5q-63 -56 -108 -75.5t-107 -19.5q-46 0 -79.5 41t-19.5 118q22 131 112.5 219t197.5 88zM331 370q-57 0 -115.5 -65t-73.5 -149q-7 -43 6 -69.5t38 -26.5q59 0 115 52q67 57 81 142 q20 116 -51 116z" />
<glyph unicode="p" horiz-adv-x="461" d="M207 371l-8 -51h1q53 62 101 90t106 28q48 0 71.5 -36.5t12.5 -97.5q-12 -72 -47 -133.5t-79 -100.5t-89.5 -60.5t-83.5 -21.5q-32 0 -48 21l-41 -233q5 -16 3 -29q-7 -42 -67 -42q-19 0 -29.5 7.5t-7.5 28.5q4 23 15 37l104 587q-7 12 -4 29q4 24 20 35.5t35 11.5 q29 0 40 -10.5t8 -32.5q0 -2 -13 -27zM177 198l-17 -100q10 -33 41 -33q55 0 120.5 70t80.5 157q11 66 -35 66q-40 0 -103 -59q-44 -39 -87 -101z" />
<glyph unicode="q" horiz-adv-x="466" d="M279 -239l70 394h-1q-34 -64 -93.5 -113.5t-122.5 -49.5q-5 0 -10 0.5t-17 3t-20.5 8.5t-19.5 16t-15 25t-7.5 37t3.5 51q24 142 113.5 223t195.5 81q61 0 92 -14.5t27 -35.5l-102 -579q25 17 58 50q10 26 35 26q14 0 21 -11.5t3 -29.5q-4 -25 -77 -83t-94 -58 q-50 0 -39 59zM328 359q-56 0 -115 -54t-76 -146q-9 -39 -0.5 -58.5t16 -25t15.5 -5.5q43 0 107.5 77.5t107.5 198.5q-13 13 -55 13z" />
<glyph unicode="r" horiz-adv-x="351" d="M67 59l56 319l-2 26q2 15 19.5 25.5t40.5 10.5q21 0 31.5 -9t8.5 -24q-5 -17 -10 -23l-6 -35q105 89 164 89q24 0 35.5 -29t-0.5 -93q-7 -46 -54 -46q-20 0 -30 7t-8 20q3 14 9 26q4 22 -7 22q-12 0 -49.5 -26.5t-77.5 -67.5l-32 -183q8 -11 6 -28q-5 -23 -21.5 -34 t-52.5 -11q-43 0 -37 39q3 16 17 25z" />
<glyph unicode="s" horiz-adv-x="464" d="M366 454q47 0 74.5 -15t22.5 -42q-7 -39 -43 -39q-14 0 -20 11t-47 11q-66 0 -120 -31t-59 -66q-5 -26 21 -26q10 0 23.5 3t33.5 9.5t32 9.5q9 2 28 7.5t29 7.5t24.5 4.5t26.5 2.5q43 0 67 -26.5t16 -74.5q-10 -56 -48.5 -100t-87.5 -66.5t-92 -34t-74 -11.5 q-50 0 -84.5 24.5t-28.5 59.5q4 23 18.5 38t36.5 15q17 0 23.5 -8.5t5.5 -17.5q-1 -6 -5 -14q13 -22 50 -22q57 0 122 33.5t75 86.5q6 41 -31 41q-12 0 -24.5 -3t-32.5 -9.5t-32 -9.5q-80 -22 -115 -22q-37 0 -54.5 26.5t-10.5 66.5q14 75 102.5 128t177.5 53z" />
<glyph unicode="t" horiz-adv-x="435" d="M195 436l12 72q-4 10 -1 25q6 35 65 35q18 0 29 -6t8 -24q-4 -15 -14 -25l-10 -61l119 20q10 8 19 8q16 0 23 -12t4 -28q-9 -48 -40 -48q-13 0 -14 4l-125 -21l-48 -270q-5 -28 11 -28t64 30t81 65q3 17 14.5 28t27.5 11q48 0 39 -48q-6 -32 -110 -104t-161 -72 q-34 0 -49.5 23.5t-8.5 60.5l51 289l-62 -10q-9 -8 -20 -9q-37 2 -29 47q3 18 16.5 30.5t28.5 12.5q10 0 14 -6z" />
<glyph unicode="u" horiz-adv-x="437" d="M209 375l-48 -270q-2 -10 5.5 -20.5t18.5 -10.5q23 0 65 26.5t75 62.5l38 216q-3 18 -2 22q4 19 14.5 27t33.5 8q28 0 39.5 -10.5t0.5 -45.5l-57 -322q7 -13 4 -26q-7 -37 -66 -37q-21 0 -30 8t-6 23q1 6 12 23l4 23q-95 -89 -175 -89q-30 1 -51 27.5t-15 60.5l53 302 q0 3 -1 11t0 13q8 42 62 42q16 0 28 -10t9 -30q-1 -12 -11 -24z" />
<glyph unicode="v" horiz-adv-x="390" d="M153 -9q-49 0 -39 55q4 26 -12 124q-21 147 -12 199q-5 6 -3 23q3 17 20 30.5t42 13.5q22 0 33 -13t9 -24q-3 -14 -14 -30q-8 -42 0 -134l11 -109q35 67 88 139q43 55 87 129q17 28 31 39.5t34 11.5q40 0 33 -42q-2 -13 -12.5 -30.5t-23 -33.5l-37 -46.5l-41.5 -53.5 q-103 -134 -137 -208q-19 -40 -57 -40z" />
<glyph unicode="w" horiz-adv-x="580" d="M190 413q-2 -12 -12 -27l10 -244h2l129 215q-5 25 -2 40q7 37 55 37q44 0 29 -77l27 -211h2q19 47 62 110q45 69 49 116q-5 14 -1 26q3 18 22.5 30t42.5 12q15 0 25 -11t7 -26q-3 -22 -16 -32q-24 -86 -71 -151q-65 -101 -102 -189q2 -19 -8.5 -28.5t-38.5 -9.5 q-42 0 -37 38l-26 229l-131 -216q-12 -51 -56 -51q-22 0 -29.5 12.5t-4.5 42.5l-17 319q-8 9 -4 30q4 24 19.5 37.5t33.5 13.5q22 0 33.5 -8t7.5 -27z" />
<glyph unicode="x" horiz-adv-x="405" d="M232 159l-129 -139q-2 -9 -4.5 -15t-11.5 -11t-24 -5t-28 14.5t-9 38.5q6 34 29 34l127 139q-19 20 -43.5 58.5t-39.5 80.5q-15 7 -11 32q4 19 24 34.5t40 15.5q30 0 30 -39q1 -8 3 -15.5t5.5 -15.5t6.5 -14t8 -14t7.5 -12.5t8.5 -12t8.5 -11t9 -11.5t8.5 -10 q32 38 116 126q7 35 40 35q18 0 31.5 -15t9.5 -34q-4 -26 -27 -36l-123 -134q111 -142 103 -198q-4 -17 -17.5 -28.5t-32.5 -11.5q-23 0 -30 27q-33 82 -85 147z" />
<glyph unicode="y" horiz-adv-x="435" d="M208 28l-117 324q-16 15 -11 39q3 19 22 32t36 13q25 0 34 -15t3 -37l90 -256l142 265q9 46 51 46q23 0 35.5 -11.5t9.5 -30.5q-4 -22 -27 -35l-241 -432q-42 -76 -81.5 -104.5t-86.5 -28.5q-39 0 -65 22t-30 63q-1 6 -6.5 13.5t-3.5 21.5q4 20 18.5 33t33.5 13 q23 0 34 -9t7 -29q-1 -5 -4 -11.5t-4 -9.5q-2 -12 8 -21t26 -9q25 0 52.5 34t74.5 120z" />
<glyph unicode="z" horiz-adv-x="423" d="M49 68l284 281h-168q-10 -52 -47 -52q-15 0 -23.5 11t-4.5 35q7 44 23.5 63t45.5 19h236q19 15 44 15q17 0 26 -10.5t6 -25.5q-6 -32 -27 -47l-285 -281h177q17 47 49 47q36 0 26 -58q-6 -38 -23 -56t-38 -18q-18 0 -27 9h-238q-14 -8 -36 -9q-40 0 -34 35q2 14 12 27 t22 15z" />
<glyph unicode="{" horiz-adv-x="337" d="M194 -230q-57 0 -82.5 33t-14.5 92q4 22 17 66.5t17 65.5q18 99 7 132.5t-64 33.5q-30 0 -22 41q8 45 45 45q58 0 81.5 40.5t47.5 173.5q16 92 64 141t119 49q26 0 33.5 -10.5t4.5 -30.5q-4 -24 -17 -33t-38 -8q-30 1 -50.5 -28.5t-29.5 -75.5l-16 -90q-12 -69 -40 -118 t-71 -57q38 -10 43.5 -60.5t-12.5 -143.5q-4 -23 -16 -63.5t-15 -57.5q-10 -58 26 -58q21 0 41 7.5t28 7.5q29 0 21 -48q-4 -25 -25 -35.5t-82 -10.5z" />
<glyph unicode="|" horiz-adv-x="244" d="M135 -181v850q-10 20 -10 43q0 38 58 38q46 0 46 -38q0 -35 -13 -43v-850q15 -11 15 -35q0 -16 -13.5 -25t-34.5 -9q-54 0 -54 45q0 8 6 24z" />
<glyph unicode="}" horiz-adv-x="337" d="M220 683q57 0 82.5 -33t15.5 -92q-4 -20 -16.5 -64.5t-16.5 -67.5q-19 -99 -8 -132.5t64 -33.5q30 0 22 -41q-8 -45 -45 -45q-59 0 -82.5 -40t-47.5 -174q-16 -92 -64 -141t-118 -49q-26 0 -33.5 10.5t-4.5 30.5q4 24 17 33t38 8q30 -1 50.5 28.5t29.5 75.5l15 90 q13 70 41 118.5t71 56.5q-38 10 -44 60.5t13 142.5q4 25 16 65.5t15 56.5q10 58 -26 58q-20 0 -40 -7.5t-29 -7.5q-31 0 -21 47q4 25 24.5 36t81.5 11z" />
<glyph unicode="~" horiz-adv-x="512" d="M353 128q-32 0 -50 15t-40 53q-13 20 -21 28t-19 8q-29 0 -62 -54q-30 -48 -46 -48q-23 0 -37.5 10t-11.5 31q6 33 34 51q41 55 75 78t74 23q28 0 44.5 -16t34.5 -50q12 -23 20 -31.5t20 -8.5q38 0 51 49q9 37 19.5 52t29.5 15t31 -12.5t8 -30.5q-13 -71 -59.5 -116.5 t-94.5 -45.5z" />
<glyph unicode="&#xa1;" horiz-adv-x="215" d="M198 444q15 0 24 -15t6 -33q-5 -29 -28.5 -53.5t-47.5 -24.5q-38 0 -28 60q6 34 22 50t52 16zM34 -157l59 339q-8 12 -1 43q3 17 26.5 31t48.5 14q20 0 27.5 -16t4.5 -34q-5 -22 -18 -36l-59 -337q9 -19 7 -37q-5 -26 -22 -37.5t-59 -11.5q-22 0 -29.5 10t-3.5 34 q4 23 19 38z" />
<glyph unicode="&#xa2;" horiz-adv-x="607" d="M361 474l-48 -273q56 15 87 59q-3 43 38 43q23 0 34.5 -8.5t8.5 -25.5q-8 -44 -62.5 -86.5t-120.5 -64.5l-20 -115q9 -15 7 -27q-6 -32 -51 -32q-22 0 -31.5 6t-5.5 22q1 13 15 32l18 104q-29 -2 -46 0q-51 3 -80 50t-17 114q34 194 218 262l14 78q-10 10 -7 23 q2 14 19.5 25t42.5 11q34 0 28 -40q-1 -10 -17 -19l-11 -63q30 5 45 5q43 0 69.5 -26.5t21.5 -55.5q-4 -21 -24 -34t-35 -13q-24 0 -24 20q1 13 -6.5 24t-23.5 11q-22 0 -36 -6zM173 284q-7 -42 1.5 -69t33.5 -29q13 -2 36 0l47 266q-98 -51 -118 -168z" />
<glyph unicode="&#xa3;" horiz-adv-x="607" d="M456 305l-166 -10q-39 -144 -93 -194q48 4 117 -19t97 -23q60 0 103 72q-3 5 0 17q6 39 39 39q23 0 35.5 -15.5t9.5 -34.5q-5 -26 -23 -30q-71 -126 -180 -126q-36 0 -100 23.5t-113 23.5q-41 0 -79 -16q-47 -20 -67 -20q-13 0 -19 14.5t-2 34.5q3 20 13 28.5t30 14.5 q50 15 79 51q37 46 65 154q-39 -6 -76 -6q-13 0 -20 13.5t-4 31.5q2 12 14.5 22t26.5 11l81 5q21 83 48 140t58 86.5t62.5 42t68.5 12.5q63 0 107 -49q11 2 20 -7t7 -21q-5 -30 -25 -44t-39 -14q-12 0 -18.5 8.5t-4.5 18.5q-26 28 -65 28q-42 0 -73.5 -43.5t-58.5 -151.5 l158 10q11 7 28 7q12 0 17 -13t3 -29q-5 -27 -17.5 -39t-24.5 -12q-14 0 -19 9z" />
<glyph unicode="&#xa4;" horiz-adv-x="512" d="M256 75q-65 0 -93 36l-32 -26q-6 -32 -42 -32q-19 0 -29 13.5t-6 36.5q2 14 12 26t23 13l33 27q-21 46 -7 132q16 86 59 138l-27 40q-9 3 -14.5 15t-3.5 26q8 47 53 47q18 0 26 -10.5t6 -25.5l20 -32q59 44 137 44q55 0 85 -40l36 34q10 30 39 30q20 0 30 -12.5t6 -36.5 q-2 -15 -12 -27t-23 -13l-35 -34q24 -62 12 -127q-14 -83 -61 -138l24 -33q10 -2 16.5 -14.5t4.5 -26.5q-8 -48 -51 -48q-20 0 -29 11t-6 26l-20 26q-58 -45 -131 -45zM274 163q54 0 99 46t55 106q9 48 -12.5 94t-64.5 46q-56 0 -100 -44.5t-56 -113.5q-10 -55 10 -94.5 t69 -39.5z" />
<glyph unicode="&#xa5;" horiz-adv-x="607" d="M245 73l6 33l-88 -5q-22 -13 -39 -13q-33 0 -23 47q2 16 14 28.5t26 12.5q21 0 32 -6l90 6l12 65l-89 -5q-22 -13 -37 -13q-33 0 -24 49q3 17 14.5 28t24.5 11q22 0 32 -5l91 5l3 15q-15 41 -78 113t-81 119q-26 12 -20 48q3 21 24 35t41 15q17 0 27 -13t6 -31 q10 -35 67.5 -107.5t71.5 -101.5h2q28 31 98.5 88t99.5 90q21 24 26 33q22 42 54 42q19 0 29.5 -11.5t6.5 -31.5q-3 -20 -35 -58q-15 -17 -42 -44q-23 -23 -102 -85t-106 -99l-2 -11l113 6q19 11 34 11q12 0 19 -11t3 -28q-4 -21 -17 -34.5t-30 -13.5q-13 0 -20 6l-115 -7 l-11 -64l113 7q16 10 34 10q13 0 19 -11t3 -28q-3 -22 -15.5 -35t-31.5 -13q-13 0 -19 6l-115 -7l-7 -38q7 -15 5 -27q-3 -22 -21 -36t-49 -14q-26 0 -35.5 9.5t-4.5 37.5q3 20 16 31z" />
<glyph unicode="&#xa6;" horiz-adv-x="244" d="M216 575v-200q15 -11 15 -35q0 -15 -13.5 -24.5t-34.5 -9.5q-54 0 -54 45q0 12 6 24v200q-10 20 -10 43q0 38 58 38q46 0 46 -38q0 -35 -13 -43zM135 -65v200q-10 20 -10 43q0 38 58 38q46 0 46 -38q0 -35 -13 -43v-200q15 -11 15 -35q0 -15 -13.5 -24.5t-34.5 -9.5 q-54 0 -54 45q0 10 6 24z" />
<glyph unicode="&#xa7;" horiz-adv-x="549" d="M440 647q63 0 102.5 -29t35.5 -55q-3 -16 -21.5 -32.5t-37.5 -16.5q-16 0 -23 8t-4 19q-21 26 -77 26q-62 0 -118 -32.5t-65 -79.5q-8 -43 40 -43q25 0 86 10t88 10q66 0 97 -33.5t19 -98.5q-9 -53 -47 -94q13 -24 7 -57q-16 -94 -115.5 -157t-213.5 -63q-87 0 -123 40.5 t-28 83.5q3 20 17.5 34t31.5 14q34 0 37 -39q0 -19 20.5 -36t54.5 -17q88 0 152.5 37.5t74.5 92.5q4 25 -9.5 36.5t-45.5 11.5q-19 0 -86.5 -13t-101.5 -12q-50 0 -79 32.5t-21 78.5q12 60 59 107q-13 25 -7 61q12 68 66 117t115.5 69t119.5 20zM417 354q-25 0 -85 -10.5 t-77 -10.5q-31 0 -49 6q-20 -20 -27 -57q-4 -19 9 -30t34 -11q24 0 85.5 12t81.5 12q43 0 65 -12q15 21 20 45q9 56 -57 56z" />
<glyph unicode="&#xa8;" d="M165 500q-17 0 -24 19t-3 39q10 58 59 58q44 0 37 -43q-7 -39 -21.5 -56t-47.5 -17zM320 503q-43 0 -32 54q4 25 18 42.5t36 17.5q18 0 31 -13.5t9 -38.5q-12 -62 -62 -62z" />
<glyph unicode="&#xa9;" horiz-adv-x="751" d="M312 -30q-34 0 -68.5 10.5t-66.5 31.5t-54 53.5t-31.5 77t0.5 101.5q13 73 56.5 148t103 133t132.5 94.5t141 36.5q30 0 64.5 -8.5t71.5 -30t64 -53.5t39.5 -83.5t1.5 -115.5q-14 -82 -52 -150t-86.5 -112.5t-105.5 -75t-110 -44t-100 -13.5zM328 37q36 0 77.5 11 t87.5 36t85.5 61t71 92.5t43.5 123.5q10 59 -5 105.5t-46 72t-65 38t-66 12.5q-69 0 -145 -51.5t-131.5 -132t-69.5 -161.5q-9 -52 3.5 -94t39.5 -65.5t58 -35.5t62 -12zM335 118q-128 0 -107 126q18 102 119 174.5t212 72.5q46 0 33 -71q9 -9 6 -22q-2 -11 -14.5 -21.5 t-36.5 -10.5q-18 0 -25.5 5.5t-5.5 18.5q0 4 3 10t4 10q3 14 -5 14q-58 0 -126.5 -54t-81.5 -127q-10 -57 41 -57t102 29.5t67 63.5q9 17 26 17q19 0 28 -13t6 -30q-3 -16 -40 -47.5t-96 -59.5t-109 -28z" />
<glyph unicode="&#xaa;" horiz-adv-x="379" d="M358 524l7 41q5 27 -26 27q-52 0 -108 -28q1 -8 -10.5 -14.5t-23.5 -6.5q-16 0 -23.5 11t-4.5 28q2 13 13 22t22 7q83 44 169 44q37 0 55 -19.5t12 -51.5l-35 -201q5 -14 4 -20q-5 -25 -60 -25q-33 0 -30 19q1 5 7 12l6 7l5 29q-28 -32 -78.5 -53t-97.5 -21q-34 0 -52 19 t-13 47q11 58 75.5 98t131.5 40q36 0 55 -11zM200 395q35 0 88 25.5t57 50.5q2 10 -9.5 13t-33.5 3q-45 -1 -83 -24t-43 -50q-4 -18 24 -18z" />
<glyph unicode="&#xab;" horiz-adv-x="450" d="M145 102l-67 135q-17 15 -11 44q4 29 28 43l156 141q16 28 50 28q16 0 27.5 -13t7.5 -32q-3 -16 -15.5 -28t-26.5 -14l-134 -127l57 -121q10 0 17 -11.5t4 -28.5q-4 -19 -20 -33t-33 -14q-37 0 -40 31zM331 102l-69 135q-16 16 -10 44q4 29 28 43l156 141q16 28 49 28 q17 0 28.5 -13t7.5 -32q-2 -16 -15 -28t-27 -14l-134 -127l57 -121q11 0 18 -11.5t3 -28.5q-3 -19 -19.5 -33t-33.5 -14q-16 0 -27 8t-12 23z" />
<glyph unicode="&#xac;" horiz-adv-x="512" d="M423 284h-265q-16 -6 -30 -6q-34 0 -25 43q10 56 47 56q14 0 24 -5h290q30 0 44.5 -10.5t10.5 -35.5q-3 -21 -14 -38l-19 -104q7 -8 3 -26q-3 -20 -18 -31.5t-30 -11.5q-26 0 -40 10t-11 27q5 26 16 39z" />
<glyph unicode="&#xad;" horiz-adv-x="318" d="M255 230l-110 -11q-16 -17 -36 -17q-13 0 -21.5 16t-4.5 38q5 25 19 39.5t29 14.5t22 -10l111 10q15 12 29 12q18 0 27.5 -14.5t5.5 -38.5q-4 -20 -19 -36t-29 -16q-19 0 -23 13z" />
<glyph unicode="&#xae;" horiz-adv-x="751" d="M313 -30q-45 0 -88.5 16.5t-79 48.5t-52 86.5t-4.5 122.5q17 99 85 194.5t163.5 156.5t187.5 61q31 0 66 -8.5t72.5 -30t64.5 -53.5t39.5 -83.5t1.5 -115.5q-14 -82 -52 -150t-86.5 -112.5t-106 -75t-110.5 -44t-101 -13.5zM328 37q47 0 101 18.5t109.5 55t99 102 t58.5 149.5q8 48 -0.5 87.5t-28.5 64.5t-48 42.5t-55 25t-53 7.5q-107 0 -216.5 -110t-132.5 -235q-8 -44 0 -78t24.5 -58.5t41.5 -40t50 -23t50 -7.5zM363 220l-12 -65q-10 -52 -65 -52q-14 0 -18 4t-1 19q2 13 9 28l50 282q3 19 14.5 29t23.5 10q22 0 39 -13q74 40 124 40 q80 0 67 -73q-19 -101 -182 -163q42 -63 69 -63q28 0 35 26q6 22 29 22q16 0 24.5 -10t5.5 -25q-6 -30 -45 -56t-70 -26q-27 0 -48 18t-49 68zM394 402l-15 -92q61 20 96.5 47t40.5 55q5 26 -18 26q-39 0 -104 -36z" />
<glyph unicode="&#xaf;" d="M337 550l-154 -19q-16 -4 -24 -4q-12 0 -18.5 11.5t-3.5 27.5q3 19 14.5 30t22.5 11q5 0 17 -6l148 18q21 7 24 7q13 0 20 -11t3 -28q-3 -22 -19.5 -32t-29.5 -5z" />
<glyph unicode="&#xb0;" horiz-adv-x="279" d="M275 666q45 0 64 -34.5t10 -88.5q-10 -59 -51 -100.5t-98 -41.5q-42 0 -62 37.5t-13 79.5q13 74 54.5 111t95.5 37zM258 597q-26 0 -44 -18.5t-23 -48.5q-11 -60 32 -60q24 0 40.5 22t22.5 55q4 23 -3.5 36.5t-24.5 13.5z" />
<glyph unicode="&#xb1;" horiz-adv-x="512" d="M365 416l-12 -65h101q3 1 14 6t16 5q39 0 29 -54q-4 -25 -17.5 -38.5t-31.5 -13.5q-11 0 -25 7h-102l-12 -71q7 -13 6 -27q-4 -22 -20 -34.5t-33 -12.5q-26 0 -40 11t-11 28q5 24 18 39l11 67h-99q-24 -8 -31 -8q-36 0 -29 45q5 30 18.5 44.5t32.5 13.5q12 0 24 -7h100 l12 66q-8 14 -5 33q2 14 16 24.5t34 10.5q26 0 38.5 -13t9.5 -29q-2 -14 -12 -27zM392 0h-281q-28 -8 -31 -8q-38 0 -29 45q10 58 50 58q11 0 25 -7h282q3 1 13.5 6t15.5 5q38 0 30 -54q-4 -25 -17.5 -39t-31.5 -14q-7 0 -26 8z" />
<glyph unicode="&#xb2;" horiz-adv-x="351" d="M195 443l120 5q16 0 16 3q4 16 16 26.5t28 10.5q40 0 32 -47q-8 -55 -50 -56l-207 -10q-30 -1 -41 8t-7 32q18 103 157 164q85 37 95 88q2 14 -6 22t-30 8q-21 0 -35.5 -6.5t-20 -13.5t-11.5 -19q-5 -13 -9 -19.5t-16 -13t-31 -6.5q-17 0 -26 10t-7 22q6 37 52 74.5 t130 37.5q51 0 78 -22t19 -66q-9 -52 -44 -84t-93 -59q-49 -23 -74.5 -43t-34.5 -46z" />
<glyph unicode="&#xb3;" horiz-adv-x="382" d="M373 692l-118 -14q-9 -46 -45 -46q-35 0 -24 58q9 50 43 50q25 0 110 11t99 11q36 0 30 -35q-4 -22 -75 -95q37 2 57 -23.5t11 -72.5q-14 -78 -80.5 -125t-150.5 -47q-43 0 -73 18.5t-39 38.5t-7 32q2 15 18 27.5t35 12.5q23 0 29 -26q8 -36 56 -36t83.5 27.5t43.5 66.5 q7 47 -29 47q-28 0 -46 -19.5t-34 -19.5q-13 0 -20 7.5t-5 20.5q4 31 42 42q27 10 89 89z" />
<glyph unicode="&#xb4;" d="M371 603l-83 -77q-3 -13 -16 -23t-29 -10t-23.5 10t-4.5 26q1 11 9.5 21t17.5 12l85 78q-2 17 10.5 26t29.5 9q18 0 26 -11t5 -27q-5 -27 -27 -34z" />
<glyph unicode="&#xb5;" horiz-adv-x="438" d="M320 168l36 206q-2 16 0 25q3 17 17.5 27t32.5 10q21 0 35.5 -9t12.5 -24l-11 -29l-57 -318q4 -14 2 -25q-2 -15 -19 -25.5t-45 -10.5q-19 0 -28.5 8t-7.5 18q2 12 12 25l6 34q-90 -92 -147 -92q-12 0 -23 9l-31 -180q12 -9 8 -33q-3 -18 -21.5 -28.5t-37.5 -10.5 q-24 0 -38 9t-11 24q5 27 14 39l98 558q-2 13 -1 24q3 19 21 29.5t41 10.5q17 0 30 -10t10 -26q-4 -21 -15 -28l-48 -272q-3 -17 4.5 -26.5t21.5 -9.5q23 0 64.5 29.5t74.5 71.5z" />
<glyph unicode="&#xb6;" horiz-adv-x="507" d="M234 45l50 283q-50 -12 -86 -12q-63 0 -90.5 29t-19.5 75q16 88 139 157t263 69q17 10 33 10q30 0 41 -11t6 -35q-4 -23 -15 -28l-93 -526q9 -14 6 -29q-6 -38 -64 -38q-38 0 -31 32q1 7 8 26l93 528q-36 0 -69 -8l-91 -519q10 -9 7 -25q-2 -15 -24 -27t-40 -12 q-20 0 -30.5 8.5t-7.5 22.5q3 22 15 30zM297 405l25 141q-64 -21 -101.5 -53t-42.5 -65q-4 -16 9 -26t40 -10q32 0 70 13z" />
<glyph unicode="&#xb7;" horiz-adv-x="207" d="M111 151q-17 0 -28 15.5t-6 44.5q4 25 24 46t45 21q44 0 34 -60q-5 -28 -22.5 -47.5t-46.5 -19.5z" />
<glyph unicode="&#xb8;" d="M210 12q-1 -7 -7 -14.5t-12 -9.5l-30 -42q29 1 43.5 -19.5t7.5 -58.5q-9 -47 -45 -78.5t-87 -31.5q-24 0 -38 14q-7 -5 -15 -5t-12.5 11t-2.5 24q3 15 15 27.5t22 12.5q5 0 10 -4.5t4 -9.5q13 -9 30 -9q25 0 43 13t22 33q4 28 -20 28q-5 0 -15 -5q-7 -7 -23 -7 q-21 0 -18 26q3 19 18 30l63 83q5 24 26 24q10 0 16.5 -10t4.5 -22z" />
<glyph unicode="&#xb9;" horiz-adv-x="224" d="M308 708l-45 -259q-1 -5 -1 -16v-17q-9 -41 -75 -41q-15 0 -24.5 6.5t-6.5 18.5q2 13 29 49l35 196q-2 0 -22 -16.5t-30 -16.5q-12 0 -19.5 8.5t-5.5 22.5q5 23 59 60q16 12 35.5 29t30.5 24t21 7q14 0 24.5 -8t8.5 -21q-2 -6 -14 -26z" />
<glyph unicode="&#xba;" horiz-adv-x="377" d="M435 522q-12 -68 -80.5 -129.5t-148.5 -61.5q-53 0 -78 32t-17 77q15 85 84 150t153 65q30 0 50.5 -13.5t28 -34t10.5 -43.5t-2 -42zM357 525q12 66 -31 66t-83.5 -43t-50.5 -101q-9 -52 36 -52q40 0 80 40.5t49 89.5z" />
<glyph unicode="&#xbb;" horiz-adv-x="450" d="M208 282l-69 123q-32 6 -26 41q4 19 19 33t30 14q34 0 43 -31l84 -138q18 -13 12 -43q-4 -28 -28 -44l-136 -136q-3 -13 -17 -22t-32 -9t-30.5 13t-9.5 32q3 15 14.5 27t22.5 14zM391 282l-69 123q-32 6 -26 41q4 19 19 33t31 14q33 0 42 -31l84 -138q18 -13 12 -43 q-4 -28 -28 -44l-136 -136q-2 -13 -16.5 -22t-32.5 -9t-30.5 13t-9.5 32q3 15 14.5 27t23.5 14z" />
<glyph unicode="&#xbc;" horiz-adv-x="698" d="M103 25q2 13 8.5 21.5t14.5 14.5t11 10l380 540q15 46 45 46q19 0 35 -13.5t12 -32.5q-3 -14 -14 -25t-20 -14l-377 -538q-5 -22 -22 -34t-36 -12q-45 0 -37 37zM280 593l-45 -259q0 -3 -0.5 -15t-1.5 -18q-3 -18 -22.5 -29.5t-51.5 -11.5q-15 0 -24.5 6.5t-7.5 18.5 q1 9 6 17.5t13.5 19t9.5 12.5l35 195q-2 0 -22 -16.5t-30 -16.5q-12 0 -19.5 8.5t-5.5 22.5q4 21 59 61q17 12 36 28.5t30 24t21 7.5q14 0 25 -8t8 -21q-1 -4 -13 -26zM645 325l-25 -145l47 7q17 11 24 11q13 0 20.5 -9.5t4.5 -30.5q-8 -38 -36 -38q-15 0 -23 8l-47 -6 l-11 -60q14 -8 11 -25q-9 -42 -72 -42q-18 0 -26.5 11t-6.5 23q3 19 13 26l10 56l-147 -19q-24 -6 -27 -6q-33 0 -26 44q3 15 30 36l211 198q9 26 54 26q17 0 28 -10t8 -24q-3 -20 -14 -31zM539 170l20 117l-140 -133z" />
<glyph unicode="&#xbd;" horiz-adv-x="705" d="M105 24q2 14 8 22.5t14.5 15t11.5 9.5l380 540q6 21 18 33.5t26 12.5q19 0 35.5 -14t12.5 -32q-3 -14 -14 -25t-20 -14l-377 -539q-5 -22 -22 -33.5t-36 -11.5q-25 0 -33 10t-4 26zM281 593l-46 -258q0 -3 -0.5 -15.5t-1.5 -18.5q-3 -18 -22.5 -29.5t-51.5 -11.5 q-15 0 -24.5 7t-7.5 18q1 9 6 18t13 19t10 12l35 195q-2 0 -22 -16.5t-30 -16.5q-12 0 -19.5 8.5t-5.5 22.5q4 21 59 61q17 11 36 28t30 24.5t22 7.5q13 0 24 -8t9 -21q-1 -5 -6.5 -14.5t-6.5 -11.5zM464 58l119 5q17 0 17 4q3 15 15.5 26t27.5 11q41 0 33 -47 q-10 -56 -50 -56l-207 -10q-31 -2 -42 7t-7 32q10 59 51 96.5t106 66.5q86 37 95 89q3 14 -5.5 22t-30.5 8q-21 0 -35 -6.5t-19.5 -14t-11.5 -19.5q-6 -14 -9.5 -19.5t-16 -12t-31.5 -6.5q-17 0 -26 10t-7 22q6 37 52 74.5t130 37.5q51 0 77.5 -22t19.5 -66 q-10 -52 -44.5 -84t-92.5 -59q-49 -23 -74 -43t-34 -46z" />
<glyph unicode="&#xbe;" horiz-adv-x="841" d="M242 24q3 14 9 22.5t15 15t12 9.5l380 540q15 46 44 46q19 0 35 -13.5t13 -32.5q-2 -14 -13 -25t-21 -14l-377 -539q-5 -21 -22.5 -33t-35.5 -12q-26 0 -34 10t-5 26zM344 577l-118 -14q-9 -46 -45 -46q-33 0 -24 58q9 50 43 50q26 0 111 11.5t98 11.5q36 0 30 -35 q-4 -22 -74 -96q36 2 56 -23.5t11 -72.5q-14 -78 -80.5 -125t-150.5 -47q-43 0 -72.5 18.5t-38.5 38.5t-7 32q2 15 18 28t35 13q22 0 28 -27q9 -37 56 -37q48 0 84 28t43 68q9 46 -28 46q-29 0 -47 -19.5t-33 -19.5q-13 0 -20.5 7.5t-5.5 20.5q5 31 41 42q31 11 90 89z M790 324l-26 -144l47 6q14 10 24 10q27 0 21 -38q-7 -37 -32 -37q-17 0 -23 7l-47 -7l-10 -59q13 -8 10 -25q-7 -42 -71 -42q-19 0 -27.5 11t-5.5 23q3 19 12 25l10 57l-147 -20q-24 -6 -28 -6q-33 0 -25 44q4 18 31 37l210 197q10 26 55 26q17 0 27.5 -9.5t7.5 -24.5 q-3 -17 -13 -31zM683 170l21 117l-141 -133z" />
<glyph unicode="&#xbf;" horiz-adv-x="429" d="M320 446q16 0 27 -14t7 -37q-14 -75 -71 -75q-40 0 -30 60q5 27 22 46.5t45 19.5zM277 283q53 0 73 -19.5t12 -67.5q-8 -45 -42.5 -82.5t-115.5 -96.5q-72 -53 -98.5 -82t-31.5 -57q-3 -18 13 -32.5t50 -14.5q77 0 140 78q2 21 17 36.5t29 15.5q21 0 34 -14t9 -37 q-2 -14 -9.5 -26t-15.5 -14q-107 -118 -235 -118q-62 0 -98 36t-27 82q8 45 40.5 83t131.5 116q80 61 103 82.5t27 38.5q1 11 -5.5 15.5t-18.5 4.5q-20 0 -32 -9.5t-14 -21.5q-2 -10 -13 -18t-25 -8q-19 0 -31.5 9t-9.5 30q7 35 44.5 63t98.5 28z" />
<glyph unicode="&#xc0;" horiz-adv-x="579" d="M442 241l-231 -16q-83 -129 -88 -144q-4 -11 -9 -44q-8 -42 -62 -42q-24 0 -33.5 13t-6.5 33q0 4 1.5 8t4 9.5l4.5 10t6.5 12.5t8 13.5l10 16.5l11 18l13 21t14.5 23l223 342q36 54 46 83q4 27 22.5 47t43.5 20q22 0 33 -12t9 -26q-2 -9 -7.5 -20t-6.5 -17 q-3 -14 9 -61.5t29.5 -109t21.5 -77.5q68 -243 60 -288q-4 -28 -21.5 -43.5t-43.5 -15.5q-21 0 -33 11t-9 27q2 9 6.5 21t5.5 15q4 28 -31 172zM261 304l164 12l-42 184zM412 842l46 -73q9 -2 14.5 -11t3.5 -21q-4 -18 -17 -27.5t-30 -9.5q-15 0 -21.5 10t-3.5 23l-47 73 q-20 9 -16 34q8 39 47 39q14 0 20 -11t4 -26z" />
<glyph unicode="&#xc1;" horiz-adv-x="579" d="M442 241l-231 -16q-83 -129 -88 -144q-4 -11 -9 -44q-8 -42 -62 -42q-24 0 -33.5 13t-6.5 33q0 4 1.5 8t4 9.5l4.5 10t6.5 12.5t8 13.5l10 16.5l11 18l13 21t14.5 23l223 342q36 54 46 83q4 27 22.5 47t43.5 20q22 0 33 -12t9 -26q-2 -9 -7.5 -20t-6.5 -17 q-3 -14 9 -61.5t29.5 -109t21.5 -77.5q68 -243 60 -288q-4 -28 -21.5 -43.5t-43.5 -15.5q-21 0 -33 11t-9 27q2 9 6.5 21t5.5 15q4 28 -31 172zM261 304l164 12l-42 184zM543 811l-82 -77q-3 -13 -16.5 -23.5t-28.5 -10.5q-16 0 -23.5 10t-5.5 26q2 12 10.5 21.5t17.5 11.5 l84 79q-1 17 11.5 25.5t28.5 8.5q18 0 26 -10.5t5 -26.5q-3 -26 -27 -34z" />
<glyph unicode="&#xc2;" horiz-adv-x="579" d="M442 241l-231 -16q-83 -129 -88 -144q-4 -11 -9 -44q-8 -42 -62 -42q-24 0 -33.5 13t-6.5 33q0 4 1.5 8t4 9.5l4.5 10t6.5 12.5t8 13.5l10 16.5l11 18l13 21t14.5 23l223 342q36 54 46 83q4 27 22.5 47t43.5 20q22 0 33 -12t9 -26q-2 -9 -7.5 -20t-6.5 -17 q-3 -14 9 -61.5t29.5 -109t21.5 -77.5q68 -243 60 -288q-4 -28 -21.5 -43.5t-43.5 -15.5q-21 0 -33 11t-9 27q2 9 6.5 21t5.5 15q4 28 -31 172zM261 304l164 12l-42 184zM491 837l44 -92q15 -17 12 -33q-2 -15 -15.5 -26t-31.5 -11q-14 0 -19 11.5t-1 24.5l-35 74l-79 -77 q-1 -13 -11.5 -23t-22.5 -10q-16 0 -25 12.5t-7 24.5q3 20 29 36l95 96q24 20 36 20q19 0 31 -27z" />
<glyph unicode="&#xc3;" horiz-adv-x="579" d="M442 241l-231 -16q-83 -129 -88 -144q-4 -11 -9 -44q-8 -42 -62 -42q-24 0 -33.5 13t-6.5 33q0 4 1.5 8t4 9.5l4.5 10t6.5 12.5t8 13.5l10 16.5l11 18l13 21t14.5 23l223 342q36 54 46 83q4 27 22.5 47t43.5 20q22 0 33 -12t9 -26q-2 -9 -7.5 -20t-6.5 -17 q-3 -14 9 -61.5t29.5 -109t21.5 -77.5q68 -243 60 -288q-4 -28 -21.5 -43.5t-43.5 -15.5q-21 0 -33 11t-9 27q2 9 6.5 21t5.5 15q4 28 -31 172zM261 304l164 12l-42 184zM475 703q-40 0 -61 36q-15 23 -28 23q-24 0 -39 -31q-14 -24 -36 -24q-36 0 -30 36q1 5 9 13.5t9 9.5 q43 60 103 60q23 0 49 -30q22 -30 39 -30q14 0 22 11t10 24q4 29 37 29q16 0 24 -8.5t6 -18.5q-1 -7 -7 -18q-38 -82 -107 -82z" />
<glyph unicode="&#xc4;" horiz-adv-x="579" d="M442 241l-231 -16q-83 -129 -88 -144q-4 -11 -9 -44q-8 -42 -62 -42q-24 0 -33.5 13t-6.5 33q0 4 1.5 8t4 9.5l4.5 10t6.5 12.5t8 13.5l10 16.5l11 18l13 21t14.5 23l223 342q36 54 46 83q4 27 22.5 47t43.5 20q22 0 33 -12t9 -26q-2 -9 -7.5 -20t-6.5 -17 q-3 -14 9 -61.5t29.5 -109t21.5 -77.5q68 -243 60 -288q-4 -28 -21.5 -43.5t-43.5 -15.5q-21 0 -33 11t-9 27q2 9 6.5 21t5.5 15q4 28 -31 172zM261 304l164 12l-42 184zM338 701q-17 0 -24 19t-3 39q4 24 18.5 41t40.5 17q44 0 37 -43q-7 -39 -21.5 -56t-47.5 -17zM493 703 q-41 0 -32 54q4 25 18 42.5t36 17.5q18 0 31 -13.5t9 -38.5q-12 -62 -62 -62z" />
<glyph unicode="&#xc5;" horiz-adv-x="579" d="M442 241l-231 -16q-83 -129 -88 -144q-4 -11 -9 -44q-8 -42 -62 -42q-24 0 -33.5 13t-6.5 33q0 4 1.5 8t4 9.5l4.5 10t6.5 12.5t8 13.5l10 16.5l11 18l13 21t14.5 23l223 342q36 54 46 83q4 27 22.5 47t43.5 20q22 0 33 -12t9 -26q-2 -9 -7.5 -20t-6.5 -17 q-3 -14 9 -61.5t29.5 -109t21.5 -77.5q68 -243 60 -288q-4 -28 -21.5 -43.5t-43.5 -15.5q-21 0 -33 11t-9 27q2 9 6.5 21t5.5 15q4 28 -31 172zM261 304l164 12l-42 184zM409 682q-27 0 -40.5 25.5t-6.5 65.5q6 34 42 60t61 26q31 0 47.5 -22.5t9.5 -65.5q-8 -41 -44 -65 t-69 -24zM426 733q14 0 28.5 10.5t17.5 26.5q7 38 -15 38q-14 0 -28.5 -11t-18.5 -29q-6 -35 16 -35z" />
<glyph unicode="&#xc6;" horiz-adv-x="755" d="M498 268l-35 -196q47 0 126 6.5t102 15.5q14 6 30 6q11 0 17.5 -11t2.5 -31q-10 -53 -59 -53l-261 -13q-3 0 -17.5 -2.5t-25.5 -2.5q-37 0 -29 45q6 36 27 42l34 188l-170 -13q-72 -99 -98 -140t-30 -64q-4 -22 -23 -36t-43 -14q-19 0 -33 13t-10 35q3 18 15.5 33 t27.5 20q65 100 170 234q54 70 243 277q5 20 19 36t38 16q25 0 39.5 -8t11.5 -22q-1 -10 -8 -19l176 12q7 1 22.5 8.5t24.5 7.5q17 0 26.5 -13.5t5.5 -36.5q-4 -26 -19 -40.5t-31 -14.5q-14 0 -37 10l-183 -12l-33 -186l151 12q7 1 27 7.5t28 6.5q18 0 26 -9.5t5 -26.5 q-8 -50 -63 -52zM423 338l31 171q-81 -88 -150 -182z" />
<glyph unicode="&#xc7;" horiz-adv-x="518" d="M273 -12l-31 -42q29 1 43.5 -19.5t7.5 -58.5q-8 -47 -44.5 -78.5t-87.5 -31.5q-25 0 -39 14q-7 -5 -15 -5q-7 0 -11.5 11t-2.5 24q3 15 15 27.5t22 12.5q5 0 10 -4.5t4 -9.5q13 -9 29 -9q26 0 44 13t21 33q6 28 -19 28q-7 0 -15 -5q-5 -7 -23 -7q-10 0 -15 7.5t-3 18.5 q3 16 17 30l36 46q-85 2 -123.5 72t-15.5 203q14 79 63 169t128.5 159.5t160.5 69.5q75 0 119.5 -32t37.5 -70q-4 -25 -20 -39t-38 -14q-36 0 -36 40q0 14 -20 23.5t-51 9.5q-80 0 -158.5 -108.5t-96.5 -213.5q-16 -89 10.5 -137.5t74.5 -48.5q40 0 86 24t73 55q13 57 59 57 q22 0 32.5 -14t7.5 -28q-4 -28 -36 -62q-36 -34 -89.5 -66t-110.5 -44z" />
<glyph unicode="&#xc8;" horiz-adv-x="513" d="M203 277l-35 -194l259 19q15 15 32 15q22 0 34 -15t9 -32q-5 -30 -24.5 -40.5t-58.5 -10.5l-265 -20q-17 -17 -56 -17q-20 0 -31.5 13.5t-7.5 37.5q3 25 19 44l34 188q-14 17 -9 46q6 29 25 46l28 160q-18 12 -13 39q6 27 21 39q-4 5 -2 16q3 16 20 26t38 10 q23 0 33.5 -10.5t7.5 -26.5l224 21q24 15 36 15q26 0 37.5 -13.5t7.5 -32.5q-5 -26 -22 -42.5t-41 -16.5q-15 0 -31 8l-225 -22l-30 -167l181 24q22 14 35 14q22 0 34 -16t8 -36q-9 -51 -63 -51q-10 0 -20 7zM374 825l45 -73q9 -2 14.5 -11t3.5 -21q-7 -37 -47 -37 q-15 0 -21.5 10t-3.5 23l-47 73q-19 9 -15 34q7 39 46 39q29 0 25 -37z" />
<glyph unicode="&#xc9;" horiz-adv-x="513" d="M203 277l-35 -194l259 19q15 15 32 15q22 0 34 -15t9 -32q-5 -30 -24.5 -40.5t-58.5 -10.5l-265 -20q-17 -17 -56 -17q-20 0 -31.5 13.5t-7.5 37.5q3 25 19 44l34 188q-14 17 -9 46q6 29 25 46l28 160q-18 12 -13 39q6 27 21 39q-4 5 -2 16q3 16 20 26t38 10 q23 0 33.5 -10.5t7.5 -26.5l224 21q24 15 36 15q26 0 37.5 -13.5t7.5 -32.5q-5 -26 -22 -42.5t-41 -16.5q-15 0 -31 8l-225 -22l-30 -167l181 24q22 14 35 14q22 0 34 -16t8 -36q-9 -51 -63 -51q-10 0 -20 7zM504 794l-83 -77q-3 -13 -17 -23.5t-29 -10.5q-33 0 -28 37 q2 11 10.5 20.5t16.5 11.5l85 79q-1 17 11.5 26t29.5 9t25.5 -11t5.5 -27q-5 -27 -27 -34z" />
<glyph unicode="&#xca;" horiz-adv-x="513" d="M203 277l-35 -194l259 19q15 15 32 15q22 0 34 -15t9 -32q-5 -30 -24.5 -40.5t-58.5 -10.5l-265 -20q-17 -17 -56 -17q-20 0 -31.5 13.5t-7.5 37.5q3 25 19 44l34 188q-14 17 -9 46q6 29 25 46l28 160q-18 12 -13 39q6 27 21 39q-4 5 -2 16q3 16 20 26t38 10 q23 0 33.5 -10.5t7.5 -26.5l224 21q24 15 36 15q26 0 37.5 -13.5t7.5 -32.5q-5 -26 -22 -42.5t-41 -16.5q-15 0 -31 8l-225 -22l-30 -167l181 24q22 14 35 14q22 0 34 -16t8 -36q-9 -51 -63 -51q-10 0 -20 7zM453 845l45 -92q14 -20 11 -33q-2 -15 -15.5 -26t-31.5 -11 q-14 0 -18.5 11t-1.5 24l-35 75l-78 -77q-2 -14 -12.5 -23.5t-22.5 -9.5q-16 0 -25 12t-7 25q3 18 29 36l96 95q21 21 35 21q19 0 31 -27z" />
<glyph unicode="&#xcb;" horiz-adv-x="513" d="M203 277l-35 -194l259 19q15 15 32 15q22 0 34 -15t9 -32q-5 -30 -24.5 -40.5t-58.5 -10.5l-265 -20q-17 -17 -56 -17q-20 0 -31.5 13.5t-7.5 37.5q3 25 19 44l34 188q-14 17 -9 46q6 29 25 46l28 160q-18 12 -13 39q6 27 21 39q-4 5 -2 16q3 16 20 26t38 10 q23 0 33.5 -10.5t7.5 -26.5l224 21q24 15 36 15q26 0 37.5 -13.5t7.5 -32.5q-5 -26 -22 -42.5t-41 -16.5q-15 0 -31 8l-225 -22l-30 -167l181 24q22 14 35 14q22 0 34 -16t8 -36q-9 -51 -63 -51q-10 0 -20 7zM297 695q-17 0 -24 19t-3 39q4 24 18.5 41t40.5 17q44 0 37 -43 q-7 -39 -21.5 -56t-47.5 -17zM452 697q-41 0 -32 54q4 25 18.5 42.5t36.5 17.5q18 0 31 -13.5t8 -38.5q-10 -62 -62 -62z" />
<glyph unicode="&#xcc;" horiz-adv-x="216" d="M250 551l-83 -472q9 -17 6 -35q-3 -19 -22 -34t-44 -15q-26 0 -39 14t-9 38q3 18 19 36l84 474q-10 10 -6 29q4 26 26 42.5t49 16.5q25 0 35 -16t6 -38q-3 -21 -22 -40zM227 839l45 -73q22 -6 19 -32q-4 -18 -17.5 -28t-30.5 -10q-14 0 -20 10.5t-4 22.5l-48 74 q-19 8 -15 34q6 39 47 39q13 0 19.5 -11t4.5 -26z" />
<glyph unicode="&#xcd;" horiz-adv-x="216" d="M250 551l-83 -472q9 -17 6 -35q-3 -19 -22 -34t-44 -15q-26 0 -39 14t-9 38q3 18 19 36l84 474q-10 10 -6 29q4 26 26 42.5t49 16.5q25 0 35 -16t6 -38q-3 -21 -22 -40zM359 807l-83 -77q-3 -13 -17 -23.5t-29 -10.5q-16 0 -23.5 10t-5.5 26q2 12 10.5 21.5t17.5 11.5 l85 79q-1 17 11 25.5t29 8.5q18 0 26 -10.5t5 -26.5q-5 -27 -26 -34z" />
<glyph unicode="&#xce;" horiz-adv-x="216" d="M250 551l-83 -472q9 -17 6 -35q-3 -19 -22 -34t-44 -15q-26 0 -39 14t-9 38q3 18 19 36l84 474q-10 10 -6 29q4 26 26 42.5t49 16.5q25 0 35 -16t6 -38q-3 -21 -22 -40zM303 839l45 -92q14 -20 12 -33q-2 -15 -15.5 -26t-32.5 -11q-14 0 -18.5 11t-1.5 24l-34 74l-79 -76 q-1 -14 -11.5 -23.5t-22.5 -9.5q-17 0 -26 12t-7 25q4 19 29 36l96 95q21 21 36 21q18 0 30 -27z" />
<glyph unicode="&#xcf;" horiz-adv-x="216" d="M250 551l-83 -472q9 -17 6 -35q-3 -19 -22 -34t-44 -15q-26 0 -39 14t-9 38q3 18 19 36l84 474q-10 10 -6 29q4 26 26 42.5t49 16.5q25 0 35 -16t6 -38q-3 -21 -22 -40zM149 694q-17 0 -24 19t-3 39q4 24 18.5 41t40.5 17q44 0 37 -43q-7 -38 -21.5 -55.5t-47.5 -17.5z M304 696q-41 0 -32 54q12 60 54 60q18 0 31 -13.5t9 -38.5q-12 -62 -62 -62z" />
<glyph unicode="&#xd0;" horiz-adv-x="582" d="M66 30q5 26 19 40l35 206l-26 -2q-14 -7 -19 -7q-12 0 -19.5 9t-5.5 24q11 48 45 52l39 3l39 220q-4 16 -1 33q3 16 20 29.5t44 13.5q23 0 30.5 -14t0.5 -32q99 47 198 47q84 0 132 -65.5t34 -144.5q-35 -194 -166 -311q-78 -68 -179 -106.5t-173 -38.5q-28 0 -39.5 11 t-7.5 33zM252 519l-27 -156l98 9q31 9 37 9q16 0 22.5 -12t3.5 -30q-9 -51 -47 -51q-10 0 -32 6l-96 -10l-37 -206q136 13 239 110q98 102 124 245q9 51 -20.5 94.5t-85.5 43.5q-86 0 -179 -52z" />
<glyph unicode="&#xd1;" horiz-adv-x="566" d="M77 70l87 495q-5 14 -2 30q3 20 19 35t41 15q28 0 37.5 -9t5.5 -29q-5 -29 17 -98q28 -84 96 -180q61 -86 76 -138h1q22 141 67 393q-6 19 -5 27q8 45 52 45q22 0 37.5 -10t11.5 -28q-3 -17 -14 -32l-93 -530q9 -14 6 -27q-3 -19 -15.5 -26.5t-40.5 -7.5q-20 0 -28 13.5 t-15 40.5q-9 37 -39.5 98.5t-58.5 101.5q-79 115 -96 189h-2l-63 -368q7 -13 4 -30q-7 -45 -53 -45q-26 0 -40 11.5t-9 36.5q3 14 16 27zM462 696q-41 0 -61 37q-15 23 -28 23q-23 0 -40 -31q-14 -24 -35 -24q-36 0 -30 36q1 3 18 23q43 60 103 60q24 0 49 -31 q22 -30 39 -30q13 0 21.5 11t10.5 24q4 29 37 29q15 0 23.5 -8.5t6.5 -18.5q0 -4 -7 -18q-39 -82 -107 -82z" />
<glyph unicode="&#xd2;" horiz-adv-x="573" d="M452 674q88 0 133.5 -76t17.5 -234q-29 -163 -139.5 -272.5t-241.5 -109.5q-53 0 -89.5 25.5t-50 64t-18 84.5t5.5 88q17 99 76.5 199t143 165.5t162.5 65.5zM427 594q-47 0 -103.5 -51.5t-101 -131t-58.5 -155.5q-6 -48 -4 -91t26 -73t66 -30q80 0 158 86.5t100 212.5 q21 115 -1 174t-82 59zM425 857l45 -73q10 -2 15.5 -11t3.5 -21q-7 -38 -48 -38q-14 0 -20 10.5t-4 22.5l-47 73q-20 9 -16 35q8 38 46 38q14 0 20.5 -10.5t4.5 -25.5z" />
<glyph unicode="&#xd3;" horiz-adv-x="573" d="M452 674q88 0 133.5 -76t17.5 -234q-29 -163 -139.5 -272.5t-241.5 -109.5q-53 0 -89.5 25.5t-50 64t-18 84.5t5.5 88q17 99 76.5 199t143 165.5t162.5 65.5zM427 594q-47 0 -103.5 -51.5t-101 -131t-58.5 -155.5q-6 -48 -4 -91t26 -73t66 -30q80 0 158 86.5t100 212.5 q21 115 -1 174t-82 59zM567 824l-83 -77q-3 -13 -16.5 -23.5t-29.5 -10.5t-23.5 10t-4.5 27q2 11 10.5 21t16.5 12l85 78q-1 17 11.5 26t29.5 9t25 -10.5t6 -27.5q-5 -27 -27 -34z" />
<glyph unicode="&#xd4;" horiz-adv-x="573" d="M452 674q88 0 133.5 -76t17.5 -234q-29 -163 -139.5 -272.5t-241.5 -109.5q-53 0 -89.5 25.5t-50 64t-18 84.5t5.5 88q17 99 76.5 199t143 165.5t162.5 65.5zM427 594q-47 0 -103.5 -51.5t-101 -131t-58.5 -155.5q-6 -48 -4 -91t26 -73t66 -30q80 0 158 86.5t100 212.5 q21 115 -1 174t-82 59zM522 860l45 -92q15 -15 12 -33q-2 -15 -15.5 -26t-31.5 -11q-15 0 -19.5 11.5t-0.5 24.5l-35 74l-79 -76q-1 -14 -11.5 -24t-22.5 -10q-16 0 -25 12.5t-7 24.5q3 20 28 37l97 95q19 21 35 21q19 0 30 -28z" />
<glyph unicode="&#xd5;" horiz-adv-x="573" d="M452 674q88 0 133.5 -76t17.5 -234q-29 -163 -139.5 -272.5t-241.5 -109.5q-53 0 -89.5 25.5t-50 64t-18 84.5t5.5 88q17 99 76.5 199t143 165.5t162.5 65.5zM427 594q-47 0 -103.5 -51.5t-101 -131t-58.5 -155.5q-6 -48 -4 -91t26 -73t66 -30q80 0 158 86.5t100 212.5 q21 115 -1 174t-82 59zM497 714q-40 0 -61 36q-15 23 -28 23q-23 0 -40 -31q-14 -24 -35 -24q-36 0 -30 36q1 5 9 13.5t9 9.5q43 60 103 60q25 0 49 -30t40 -30q25 0 32 35q3 29 37 29q15 0 23.5 -8.5t6.5 -18.5q0 -4 -7 -18q-39 -82 -108 -82z" />
<glyph unicode="&#xd6;" horiz-adv-x="573" d="M452 674q88 0 133.5 -76t17.5 -234q-29 -163 -139.5 -272.5t-241.5 -109.5q-53 0 -89.5 25.5t-50 64t-18 84.5t5.5 88q17 99 76.5 199t143 165.5t162.5 65.5zM427 594q-47 0 -103.5 -51.5t-101 -131t-58.5 -155.5q-6 -48 -4 -91t26 -73t66 -30q80 0 158 86.5t100 212.5 q21 115 -1 174t-82 59zM367 706q-17 0 -24 19t-3 39q10 58 59 58q44 0 37 -43q-7 -38 -21.5 -55.5t-47.5 -17.5zM521 708q-41 0 -32 54q12 60 55 60q18 0 31 -13.5t9 -38.5q-12 -62 -63 -62z" />
<glyph unicode="&#xd7;" horiz-adv-x="512" d="M301 278l121 110q6 19 21 31.5t31 12.5q17 0 30 -17t9 -42q-3 -18 -17.5 -31.5t-26.5 -14.5l-121 -112l78 -106q37 -14 31 -47q-4 -22 -23 -39t-38 -17q-16 0 -26 12.5t-13 28.5l-78 107l-118 -108q-3 -18 -19.5 -30.5t-36.5 -12.5q-21 0 -31.5 18.5t-7.5 41.5 q4 20 23.5 35t30.5 16l113 101l-81 108q-14 5 -24.5 18t-7.5 28q4 22 21.5 39.5t39.5 17.5q30 0 39 -40z" />
<glyph unicode="&#xd8;" horiz-adv-x="593" d="M105 61l-45 -40q-2 -13 -16.5 -25t-30.5 -12q-18 0 -27 13t-6 34q3 17 14.5 31.5t23.5 14.5q7 0 13 -3l54 52q-7 56 3 118q18 99 77 199t142 165.5t161 65.5q87 0 130 -67l51 44q4 12 15.5 21.5t23.5 9.5q17 0 29 -12t9 -33q-8 -43 -49 -39l-54 -53q17 -70 -2 -181 q-29 -163 -139.5 -272.5t-241.5 -109.5q-96 0 -135 79zM179 212l344 321q-22 61 -77 61q-47 0 -103.5 -51.5t-101 -131t-58.5 -155.5q-4 -17 -4 -44zM535 466l-351 -328q22 -76 86 -76q79 0 157.5 86.5t100.5 212.5q10 56 7 105z" />
<glyph unicode="&#xd9;" horiz-adv-x="558" d="M214 -17q-80 0 -109.5 45t-20.5 100l78 447q-7 25 10 45t44 20q18 0 27 -11t8.5 -23.5t-1.5 -23.5l-82 -462q3 -21 21 -36t45 -15q80 0 138.5 42t62.5 71l70 397q-7 7 -4 23q4 21 22 34t43 13q16 0 27 -11t7 -30q-2 -14 -7 -20l-74 -421q-3 -17 -28 -51t-55 -55 q-101 -78 -222 -78zM372 828l46 -73q9 -2 14.5 -11.5t3.5 -21.5q-4 -18 -17 -27.5t-30 -9.5q-15 0 -21.5 10t-3.5 23l-48 73q-19 10 -15 34q6 39 47 39q14 0 20 -11t4 -25z" />
<glyph unicode="&#xda;" horiz-adv-x="558" d="M214 -17q-80 0 -109.5 45t-20.5 100l78 447q-7 25 10 45t44 20q18 0 27 -11t8.5 -23.5t-1.5 -23.5l-82 -462q3 -21 21 -36t45 -15q80 0 138.5 42t62.5 71l70 397q-7 7 -4 23q4 21 22 34t43 13q16 0 27 -11t7 -30q-2 -14 -7 -20l-74 -421q-3 -17 -28 -51t-55 -55 q-101 -78 -222 -78zM517 798l-83 -77q-3 -13 -16.5 -23t-28.5 -10q-16 0 -24 10t-5 26q2 11 10.5 21.5t17.5 11.5l85 78q-2 17 10 26t29 9q18 0 26 -10.5t6 -27.5q-5 -27 -27 -34z" />
<glyph unicode="&#xdb;" horiz-adv-x="558" d="M214 -17q-80 0 -109.5 45t-20.5 100l78 447q-7 25 10 45t44 20q18 0 27 -11t8.5 -23.5t-1.5 -23.5l-82 -462q3 -21 21 -36t45 -15q80 0 138.5 42t62.5 71l70 397q-7 7 -4 23q4 21 22 34t43 13q16 0 27 -11t7 -30q-2 -14 -7 -20l-74 -421q-3 -17 -28 -51t-55 -55 q-101 -78 -222 -78zM465 841l45 -92q15 -17 12 -33t-16 -26.5t-31 -10.5q-14 0 -19 11t-2 24l-34 74l-79 -76q-2 -14 -12.5 -23.5t-22.5 -9.5q-16 0 -25 12t-7 25q3 20 29 36l96 95q21 21 36 21q18 0 30 -27z" />
<glyph unicode="&#xdc;" horiz-adv-x="558" d="M214 -17q-80 0 -109.5 45t-20.5 100l78 447q-7 25 10 45t44 20q18 0 27 -11t8.5 -23.5t-1.5 -23.5l-82 -462q3 -21 21 -36t45 -15q80 0 138.5 42t62.5 71l70 397q-7 7 -4 23q4 21 22 34t43 13q16 0 27 -11t7 -30q-2 -14 -7 -20l-74 -421q-3 -17 -28 -51t-55 -55 q-101 -78 -222 -78zM316 691q-17 0 -24 19t-3 39q10 58 59 58q45 0 36 -43q-6 -38 -20.5 -55.5t-47.5 -17.5zM471 693q-41 0 -32 54q4 25 18 42.5t36 17.5q18 0 31 -13.5t9 -38.5q-12 -62 -62 -62z" />
<glyph unicode="&#xdd;" horiz-adv-x="548" d="M245 83l41 230q-17 51 -77.5 127t-80.5 119q-27 12 -20 46q3 20 24 35t41 16q19 0 29 -12.5t6 -31.5q13 -35 68 -109t69 -109h2q28 34 96.5 93.5t99.5 93.5q22 24 27 33q11 21 23 31.5t33 10.5q20 0 30.5 -12.5t6.5 -31.5q-3 -18 -35 -54l-15.5 -17t-19 -18.5 t-14.5 -13.5q-15 -15 -95 -84.5t-110 -112.5l-42 -240q7 -12 5 -27q-3 -22 -21 -36t-49 -14q-26 0 -35 10t-4 39t17 39zM516 791l-83 -77q-3 -13 -16.5 -23.5t-29.5 -10.5t-23.5 10t-4.5 26q2 12 10.5 21.5t17.5 11.5l84 79q-1 17 11.5 25.5t29.5 8.5t25.5 -10.5t5.5 -26.5 q-5 -27 -27 -34z" />
<glyph unicode="&#xde;" horiz-adv-x="507" d="M252 587l-17 -96q114 57 228 57q61 0 87.5 -35.5t16.5 -92.5q-9 -48 -52.5 -93t-102.5 -76.5t-121 -51.5t-111 -24l-20 -109q9 -18 7 -35q-7 -36 -66 -36q-18 0 -34.5 10.5t-14.5 24.5q4 17 20 37l91 516q-3 23 -2 31q3 16 23.5 28.5t45.5 12.5q18 0 30.5 -11.5 t10.5 -24.5q-3 -20 -19 -32zM219 400l-25 -143q53 5 115 27.5t110 57.5t54 70q4 19 -7.5 35t-37.5 16q-45 0 -106.5 -19.5t-102.5 -43.5z" />
<glyph unicode="&#xdf;" horiz-adv-x="558" d="M157 333l-41 -9q-13 -8 -23 -8q-30 0 -22 46q3 17 15 30.5t24 13.5q10 0 18 -4l44 9l14 83q14 77 76 129t142 52q66 0 106.5 -34t29.5 -95q-9 -59 -65 -108q-17 -15 -22.5 -20.5t-15.5 -18.5t-12 -25q-5 -27 60 -73q91 -64 76 -147q-16 -88 -75.5 -129.5t-142.5 -41.5 q-56 0 -87 28.5t-25 64.5q4 24 18.5 41t38.5 17q14 0 21.5 -8.5t5.5 -19.5q0 -3 -7 -16q13 -29 52 -29q48 0 76.5 23.5t36.5 65.5q8 46 -75 107q-72 52 -62 109q8 46 58 90q27 23 40 40.5t18 42.5q5 26 -11 42t-56 16q-45 0 -75.5 -32t-37.5 -72l-77 -433q6 -11 4 -26 q-6 -39 -62 -39q-43 0 -37 37q0 4 1.5 7.5t4 8t3.5 7.5z" />
<glyph unicode="&#xe0;" horiz-adv-x="452" d="M359 288l9 51q6 39 -26 39q-68 0 -136 -43q1 -7 -12 -17.5t-31 -10.5q-16 0 -25 15.5t-6 31.5q2 15 19 29.5t30 11.5q90 55 206 55q36 0 55.5 -24t12.5 -66l-54 -306q6 -8 3 -24q-6 -36 -67 -36q-22 0 -29 8.5t-5 23.5q2 7 12 24l8 45h-2q-116 -113 -227 -113 q-36 0 -56.5 21.5t-13.5 58.5q12 73 103.5 141t231.5 85zM340 195l6 31q-88 -11 -157 -57t-76 -84q-4 -23 27 -23q50 0 122.5 49t77.5 84zM325 638l45 -73q9 -2 15 -11t4 -21q-4 -18 -17 -28t-30 -10q-15 0 -21.5 10.5t-3.5 22.5l-47 74q-20 9 -16 34q9 39 47 39 q14 0 20 -11t4 -26z" />
<glyph unicode="&#xe1;" horiz-adv-x="452" d="M359 288l9 51q6 39 -26 39q-68 0 -136 -43q1 -7 -12 -17.5t-31 -10.5q-16 0 -25 15.5t-6 31.5q2 15 19 29.5t30 11.5q90 55 206 55q36 0 55.5 -24t12.5 -66l-54 -306q6 -8 3 -24q-6 -36 -67 -36q-22 0 -29 8.5t-5 23.5q2 7 12 24l8 45h-2q-116 -113 -227 -113 q-36 0 -56.5 21.5t-13.5 58.5q12 73 103.5 141t231.5 85zM340 195l6 31q-88 -11 -157 -57t-76 -84q-4 -23 27 -23q50 0 122.5 49t77.5 84zM447 605l-82 -76q-3 -13 -17 -23.5t-29 -10.5q-16 0 -23.5 10t-5.5 26q3 12 11.5 21.5t16.5 11.5l85 78q-1 17 11 26t29 9 q18 0 26 -10.5t6 -27.5q-5 -26 -28 -34z" />
<glyph unicode="&#xe2;" horiz-adv-x="452" d="M359 288l9 51q6 39 -26 39q-68 0 -136 -43q1 -7 -12 -17.5t-31 -10.5q-16 0 -25 15.5t-6 31.5q2 15 19 29.5t30 11.5q90 55 206 55q36 0 55.5 -24t12.5 -66l-54 -306q6 -8 3 -24q-6 -36 -67 -36q-22 0 -29 8.5t-5 23.5q2 7 12 24l8 45h-2q-116 -113 -227 -113 q-36 0 -56.5 21.5t-13.5 58.5q12 73 103.5 141t231.5 85zM340 195l6 31q-88 -11 -157 -57t-76 -84q-4 -23 27 -23q50 0 122.5 49t77.5 84zM391 641l45 -92q15 -17 12 -33t-16.5 -26.5t-31.5 -10.5q-14 0 -19 12t0 23l-36 74l-79 -76q-1 -14 -11 -23.5t-22 -9.5q-17 0 -26 12 t-7 25q3 18 29 36l96 95q21 21 36 21q18 0 30 -27z" />
<glyph unicode="&#xe3;" horiz-adv-x="452" d="M359 288l9 51q6 39 -26 39q-68 0 -136 -43q1 -7 -12 -17.5t-31 -10.5q-16 0 -25 15.5t-6 31.5q2 15 19 29.5t30 11.5q90 55 206 55q36 0 55.5 -24t12.5 -66l-54 -306q6 -8 3 -24q-6 -36 -67 -36q-22 0 -29 8.5t-5 23.5q2 7 12 24l8 45h-2q-116 -113 -227 -113 q-36 0 -56.5 21.5t-13.5 58.5q12 73 103.5 141t231.5 85zM340 195l6 31q-88 -11 -157 -57t-76 -84q-4 -23 27 -23q50 0 122.5 49t77.5 84zM374 500q-37 0 -61 36q-13 23 -27 23q-24 0 -40 -31q-15 -23 -36 -23q-34 0 -30 35q1 5 9 13.5t9 9.5q23 33 47 46.5t57 13.5 q23 0 49 -30q22 -30 39 -30q13 0 21.5 11t9.5 24q4 29 38 29q15 0 23.5 -8.5t6.5 -18.5q0 -4 -7 -18q-39 -82 -108 -82z" />
<glyph unicode="&#xe4;" horiz-adv-x="452" d="M359 288l9 51q6 39 -26 39q-68 0 -136 -43q1 -7 -12 -17.5t-31 -10.5q-16 0 -25 15.5t-6 31.5q2 15 19 29.5t30 11.5q90 55 206 55q36 0 55.5 -24t12.5 -66l-54 -306q6 -8 3 -24q-6 -36 -67 -36q-22 0 -29 8.5t-5 23.5q2 7 12 24l8 45h-2q-116 -113 -227 -113 q-36 0 -56.5 21.5t-13.5 58.5q12 73 103.5 141t231.5 85zM340 195l6 31q-88 -11 -157 -57t-76 -84q-4 -23 27 -23q50 0 122.5 49t77.5 84zM249 500q-17 0 -24 19t-3 39q4 24 18.5 41t40.5 17q44 0 37 -43q-6 -38 -21 -55.5t-48 -17.5zM404 503q-41 0 -32 54q4 25 18 42.5 t36 17.5q18 0 31 -13.5t9 -38.5q-12 -62 -62 -62z" />
<glyph unicode="&#xe5;" horiz-adv-x="452" d="M359 288l9 51q6 39 -26 39q-69 0 -135 -43q0 -8 -13 -18t-31 -10q-16 0 -24.5 15t-6.5 32q3 15 19.5 29.5t30.5 11.5q88 55 205 55q36 0 55.5 -24t12.5 -66l-54 -306q6 -8 3 -24q-6 -36 -67 -36q-22 0 -29 8.5t-5 23.5q2 7 12 24l8 45h-2q-116 -113 -227 -113 q-36 0 -56.5 21.5t-13.5 58.5q12 73 104 141t231 85zM340 195l6 31q-88 -11 -157 -57t-76 -84q-4 -23 27 -23q50 0 122.5 49t77.5 84zM311 476q-28 0 -42 25t-7 65q6 35 42.5 61t61.5 26q30 0 47 -23t9 -65q-7 -40 -42.5 -64.5t-68.5 -24.5zM328 527q13 0 27.5 10.5 t17.5 26.5q7 38 -15 38q-14 0 -29 -11.5t-18 -28.5q-6 -35 17 -35z" />
<glyph unicode="&#xe6;" horiz-adv-x="725" d="M24 65q17 98 135 154q65 34 149 44l63 8l10 56q4 19 -3.5 31t-24.5 12q-78 0 -152 -52q-2 -7 -15.5 -15.5t-31.5 -8.5q-16 0 -23.5 15t-4.5 29q3 17 17 31t29 13q105 64 213 64q41 0 65 -24t18 -58l-5 -25q43 49 91.5 76.5t88.5 27.5q38 0 64.5 -15.5t37 -38.5t14 -43 t0.5 -34q-4 -22 -23 -43t-46 -24l-243 -30q-22 -45 -28 -81q-5 -32 12 -52t54 -20q88 0 158 77q-1 18 11 29t34 11t32 -11t7 -25q-1 -6 -12.5 -22.5t-35.5 -40t-54 -44.5t-74.5 -36t-90.5 -15q-56 0 -86.5 28.5t-33.5 73.5q-38 -43 -103.5 -74t-120.5 -31q-52 0 -75.5 21.5 t-16.5 61.5zM495 284l186 25q4 19 -9 39.5t-43 20.5q-63 0 -134 -85zM360 205l-54 -7q-68 -8 -122 -34q-61 -34 -70 -81q-2 -10 6.5 -17t26.5 -7q43 0 123 48.5t90 97.5z" />
<glyph unicode="&#xe7;" horiz-adv-x="430" d="M216 -16l-28 -38q29 1 44 -19.5t8 -58.5q-8 -47 -45 -78.5t-88 -31.5q-24 0 -38 14q-8 -5 -15 -5q-8 0 -12.5 11t-2.5 24q3 15 15 27.5t22 12.5q6 0 10 -4.5t3 -9.5q14 -9 30 -9q26 0 44 13t22 33q4 28 -19 28q-8 0 -16 -5q-5 -7 -23 -7q-10 0 -15 7.5t-3 18.5 q3 17 18 30l35 45q-61 3 -90.5 47t-17.5 113q14 79 46.5 128t90.5 103q26 26 71.5 48.5t80.5 22.5q54 0 87.5 -23t27.5 -55q-9 -49 -62 -49q-9 0 -15 4.5t-7.5 8.5t-3.5 12t-4 12t-11 8.5t-24 4.5q-45 0 -95 -50q-77 -71 -94 -159q-8 -47 9.5 -72.5t59.5 -25.5q27 0 63 22 q42 24 64 60q7 17 11 25t14 14.5t24 6.5q23 0 31.5 -13.5t6.5 -27.5q-2 -13 -31.5 -50.5t-69.5 -65.5q-55 -40 -108 -47z" />
<glyph unicode="&#xe8;" horiz-adv-x="433" d="M349 444q48 0 76 -23.5t34 -49.5t2 -50q-5 -26 -22.5 -44.5t-77.5 -41t-165 -41.5l-44 -8q-10 -22 -16 -54q-13 -70 52 -70q44 0 85 21.5t61 45.5q1 18 16 31t37 13q42 0 35 -44q-6 -33 -83 -89t-176 -56q-137 0 -113 140q24 135 114 227.5t185 92.5zM331 368 q-39 0 -79.5 -31t-69.5 -80q192 35 197 60q3 21 -8.5 36t-39.5 15zM323 633l45 -73q9 -2 14.5 -11t3.5 -21q-7 -37 -47 -37q-15 0 -21.5 10t-3.5 23l-47 73q-20 9 -16 34q7 39 47 39q29 0 25 -37z" />
<glyph unicode="&#xe9;" horiz-adv-x="433" d="M349 444q48 0 76 -23.5t34 -49.5t2 -50q-5 -26 -22.5 -44.5t-77.5 -41t-165 -41.5l-44 -8q-10 -22 -16 -54q-13 -70 52 -70q44 0 85 21.5t61 45.5q1 18 16 31t37 13q42 0 35 -44q-6 -33 -83 -89t-176 -56q-137 0 -113 140q24 135 114 227.5t185 92.5zM331 368 q-39 0 -79.5 -31t-69.5 -80q192 35 197 60q3 21 -8.5 36t-39.5 15zM453 605l-83 -76q-3 -14 -16 -24t-29 -10t-24 10t-5 26q2 12 10.5 21.5t17.5 11.5l85 78q-2 17 10.5 26t29.5 9q18 0 26 -11t5 -27q-5 -27 -27 -34z" />
<glyph unicode="&#xea;" horiz-adv-x="433" d="M349 444q48 0 76 -23.5t34 -49.5t2 -50q-5 -26 -22.5 -44.5t-77.5 -41t-165 -41.5l-44 -8q-10 -22 -16 -54q-13 -70 52 -70q44 0 85 21.5t61 45.5q1 18 16 31t37 13q42 0 35 -44q-6 -33 -83 -89t-176 -56q-137 0 -113 140q24 135 114 227.5t185 92.5zM331 368 q-39 0 -79.5 -31t-69.5 -80q192 35 197 60q3 21 -8.5 36t-39.5 15zM402 640l45 -92q15 -17 12 -33q-2 -15 -15.5 -26t-31.5 -11q-15 0 -19.5 11t-0.5 25l-35 74l-79 -77q-1 -14 -11.5 -23.5t-22.5 -9.5q-16 0 -25 12.5t-7 24.5q3 20 29 36l96 96q19 21 35 21q19 0 30 -28z " />
<glyph unicode="&#xeb;" horiz-adv-x="433" d="M349 444q48 0 76 -23.5t34 -49.5t2 -50q-5 -26 -22.5 -44.5t-77.5 -41t-165 -41.5l-44 -8q-10 -22 -16 -54q-13 -70 52 -70q44 0 85 21.5t61 45.5q1 18 16 31t37 13q42 0 35 -44q-6 -33 -83 -89t-176 -56q-137 0 -113 140q24 135 114 227.5t185 92.5zM331 368 q-39 0 -79.5 -31t-69.5 -80q192 35 197 60q3 21 -8.5 36t-39.5 15zM253 499q-18 0 -24.5 18.5t-2.5 39.5q3 24 18 41t41 17q43 0 36 -43q-6 -38 -20.5 -55.5t-47.5 -17.5zM407 501q-41 0 -32 54q12 60 55 60q17 0 30 -13.5t9 -38.5q-10 -62 -62 -62z" />
<glyph unicode="&#xec;" horiz-adv-x="199" d="M221 391q-2 -12 -16 -33l-50 -286q10 -10 7 -28q-4 -23 -27.5 -36t-48.5 -13q-18 0 -27.5 13t-5.5 34q3 20 17 34l49 278q-8 9 -4 26q3 18 7 28.5t19.5 20t42.5 9.5q16 0 28 -15.5t9 -31.5zM182 635l45 -73q9 -2 15 -11t4 -21q-7 -37 -47 -37q-15 0 -21.5 10t-3.5 23 l-47 73q-20 9 -15 34q6 39 46 39q14 0 20 -11t4 -26z" />
<glyph unicode="&#xed;" horiz-adv-x="199" d="M221 391q-2 -12 -16 -33l-50 -286q10 -10 7 -28q-4 -23 -27.5 -36t-48.5 -13q-18 0 -27.5 13t-5.5 34q3 20 17 34l49 278q-8 9 -4 26q3 18 7 28.5t19.5 20t42.5 9.5q16 0 28 -15.5t9 -31.5zM310 605l-83 -76q-3 -13 -17 -23.5t-29 -10.5q-16 0 -23.5 10t-4.5 26 q2 12 10.5 21.5t16.5 11.5l85 78q-1 17 11 26t30 9q17 0 25 -11t5 -27q-4 -27 -26 -34z" />
<glyph unicode="&#xee;" horiz-adv-x="199" d="M221 391q-2 -12 -16 -33l-50 -286q10 -10 7 -28q-4 -23 -27.5 -36t-48.5 -13q-18 0 -27.5 13t-5.5 34q3 20 17 34l49 278q-8 9 -4 26q3 18 7 28.5t19.5 20t42.5 9.5q16 0 28 -15.5t9 -31.5zM256 635l44 -92q16 -16 13 -33q-3 -15 -16.5 -26t-31.5 -11q-14 0 -18.5 11.5 t-1.5 24.5l-35 74l-78 -76q-1 -14 -12 -24t-23 -10q-15 0 -24 12.5t-7 24.5q3 20 28 36l96 95q19 21 36 21q18 0 30 -27z" />
<glyph unicode="&#xef;" horiz-adv-x="199" d="M221 391q-2 -12 -16 -33l-50 -286q10 -10 7 -28q-4 -23 -27.5 -36t-48.5 -13q-18 0 -27.5 13t-5.5 34q3 20 17 34l49 278q-8 9 -4 26q3 18 7 28.5t19.5 20t42.5 9.5q16 0 28 -15.5t9 -31.5zM104 500q-18 0 -24.5 18.5t-2.5 39.5q10 58 59 58q45 0 36 -43 q-6 -38 -20.5 -55.5t-47.5 -17.5zM259 503q-40 0 -33 54q5 25 19 42.5t36 17.5q18 0 31 -13.5t9 -38.5q-12 -62 -62 -62z" />
<glyph unicode="&#xf0;" horiz-adv-x="464" d="M377 508l-59 -29q-12 -20 -42 -20q-11 0 -17.5 9.5t-4.5 22.5q4 19 17 30t28 9l36 18q-27 24 -59 24q-1 0 -9 -2.5t-15 -2.5q-13 0 -21.5 10.5t-4.5 28.5q4 22 19.5 36.5t31.5 14.5q22 0 26 -13q58 -5 107 -51l51 26q13 18 36 18q33 0 27 -29q-7 -38 -40 -39l-39 -19 q69 -101 42 -253q-25 -142 -119 -228.5t-199 -86.5q-41 0 -68.5 16.5t-36.5 40.5t-13 52t3 51q20 117 103.5 206.5t184.5 89.5q26 0 47 -10t28 -24q-1 28 -13.5 58t-26.5 46zM337 363q-66 0 -123 -64.5t-72 -148.5q-7 -40 5 -65t45 -25q66 0 126 59.5t74 136.5 q18 107 -55 107z" />
<glyph unicode="&#xf1;" horiz-adv-x="438" d="M192 265l-37 -210q4 -10 3 -24q-3 -18 -23 -27t-41 -9q-19 0 -31 8.5t-10 25.5q5 18 17 28l27 156q-13 9 -8 33q4 23 24 58l14 80q-5 14 -2 30q3 15 23 28t41 13q25 0 33.5 -9t6.5 -26q-3 -14 -15 -31l-7 -39q135 105 188 105q25 0 43.5 -21t13.5 -45l-57 -326 q3 -18 2 -26q-8 -42 -61 -42q-24 0 -34 10t-6 28q3 14 13 26l49 280q1 5 -6 12t-13 7q-28 0 -147 -93zM359 500q-40 0 -61 36q-15 24 -28 24q-24 0 -39 -31q-14 -24 -35 -24q-35 0 -31 36q1 5 9.5 13t9.5 10q24 33 46.5 46.5t55.5 13.5q24 0 49 -31q22 -30 39 -30 q14 0 22.5 11t9.5 24q4 29 38 29q15 0 23.5 -8.5t6.5 -18.5q-1 -7 -7 -18q-39 -82 -108 -82z" />
<glyph unicode="&#xf2;" horiz-adv-x="455" d="M363 448q40 0 66 -19.5t34.5 -48t11 -61.5t-4.5 -60q-10 -55 -42.5 -105.5t-60.5 -76.5q-63 -56 -108 -75.5t-107 -19.5q-46 0 -79.5 41t-19.5 118q22 131 112.5 219t197.5 88zM331 370q-57 0 -115.5 -65t-73.5 -149q-7 -43 6 -69.5t38 -26.5q59 0 115 52q67 57 81 142 q20 116 -51 116zM323 638l45 -73q10 -2 15.5 -11t3.5 -21q-7 -38 -48 -38q-14 0 -20 10.5t-4 22.5l-47 74q-21 8 -15 34q7 39 46 39q14 0 20 -11t4 -26z" />
<glyph unicode="&#xf3;" horiz-adv-x="455" d="M363 448q40 0 66 -19.5t34.5 -48t11 -61.5t-4.5 -60q-10 -55 -42.5 -105.5t-60.5 -76.5q-63 -56 -108 -75.5t-107 -19.5q-46 0 -79.5 41t-19.5 118q22 131 112.5 219t197.5 88zM331 370q-57 0 -115.5 -65t-73.5 -149q-7 -43 6 -69.5t38 -26.5q59 0 115 52q67 57 81 142 q20 116 -51 116zM459 605l-82 -76q-4 -14 -17 -24t-29 -10t-23.5 10t-4.5 26q1 12 9.5 21.5t17.5 11.5l85 78q-2 17 10.5 26t29.5 9t25 -10.5t6 -27.5q-5 -27 -27 -34z" />
<glyph unicode="&#xf4;" horiz-adv-x="455" d="M363 448q40 0 66 -19.5t34.5 -48t11 -61.5t-4.5 -60q-10 -55 -42.5 -105.5t-60.5 -76.5q-63 -56 -108 -75.5t-107 -19.5q-46 0 -79.5 41t-19.5 118q22 131 112.5 219t197.5 88zM331 370q-57 0 -115.5 -65t-73.5 -149q-7 -43 6 -69.5t38 -26.5q59 0 115 52q67 57 81 142 q20 116 -51 116zM413 640l44 -92q15 -15 12 -33q-2 -15 -15.5 -26t-31.5 -11q-14 0 -18.5 11.5t-1.5 24.5l-35 74l-78 -76q-1 -14 -11.5 -24t-22.5 -10q-16 0 -25.5 12t-7.5 25q4 20 29 37l96 95q21 21 36 21q19 0 30 -28z" />
<glyph unicode="&#xf5;" horiz-adv-x="455" d="M363 448q40 0 66 -19.5t34.5 -48t11 -61.5t-4.5 -60q-10 -55 -42.5 -105.5t-60.5 -76.5q-63 -56 -108 -75.5t-107 -19.5q-46 0 -79.5 41t-19.5 118q22 131 112.5 219t197.5 88zM331 370q-57 0 -115.5 -65t-73.5 -149q-7 -43 6 -69.5t38 -26.5q59 0 115 52q67 57 81 142 q20 116 -51 116zM392 494q-41 0 -61 37q-15 23 -28 23q-23 0 -40 -31q-14 -24 -35 -24q-36 0 -30 36q1 5 9 13.5t9 9.5q43 60 103 60q24 0 49 -31q24 -30 39 -30q13 0 21.5 11t10.5 24q4 29 37 29q16 0 24 -8.5t6 -18.5q0 -9 -7 -18q-39 -82 -107 -82z" />
<glyph unicode="&#xf6;" horiz-adv-x="455" d="M363 448q40 0 66 -19.5t34.5 -48t11 -61.5t-4.5 -60q-10 -55 -42.5 -105.5t-60.5 -76.5q-63 -56 -108 -75.5t-107 -19.5q-46 0 -79.5 41t-19.5 118q22 131 112.5 219t197.5 88zM331 370q-57 0 -115.5 -65t-73.5 -149q-7 -43 6 -69.5t38 -26.5q59 0 115 52q67 57 81 142 q20 116 -51 116zM259 499q-17 0 -24 19t-3 39q4 24 18.5 41t40.5 17q45 0 36 -43q-6 -38 -20.5 -55.5t-47.5 -17.5zM414 501q-41 0 -32 54q4 25 18 42.5t36 17.5q18 0 31 -13.5t9 -38.5q-12 -62 -62 -62z" />
<glyph unicode="&#xf7;" horiz-adv-x="512" d="M312 321q-26 0 -37.5 14.5t-6.5 38.5q4 24 22 40t42 16q16 0 26.5 -17.5t6.5 -43.5q-3 -19 -17 -33.5t-36 -14.5zM424 180h-282q-21 -7 -31 -7q-34 0 -27 43q10 57 49 57q14 0 24 -5h283q3 1 9 3.5t11 4t9 1.5q36 0 27 -52q-9 -51 -46 -51q-16 0 -26 6zM256 18 q-23 0 -35.5 14t-7.5 36q4 24 22.5 41.5t47.5 17.5q17 0 24.5 -13.5t4.5 -32.5q-4 -27 -21.5 -45t-34.5 -18z" />
<glyph unicode="&#xf8;" horiz-adv-x="468" d="M453 415l27 25q10 22 33 22q16 0 26 -9t7 -28q-3 -20 -13 -26.5t-30 -8.5l-25 -24q12 -55 1 -107q-9 -56 -41.5 -105.5t-61.5 -76.5q-63 -56 -108.5 -75.5t-107.5 -19.5q-36 0 -65 27l-31 -28q-10 -24 -40 -24q-14 0 -23 9.5t-6 23.5q7 38 43 36l27 26q-13 38 -4 89 q23 131 113 219t196 88q53 0 83 -33zM149 127l235 219q-13 24 -43 24q-57 0 -117.5 -64.5t-73.5 -143.5q-1 -5 -1.5 -17t0.5 -18zM395 293l-231 -216q12 -17 30 -17q59 0 117 52q31 28 53 64t28 68q4 40 3 49z" />
<glyph unicode="&#xf9;" horiz-adv-x="437" d="M209 375l-48 -270q-2 -10 5.5 -20.5t18.5 -10.5q23 0 65 26.5t75 62.5l38 216q-3 18 -2 22q4 19 14.5 27t33.5 8q28 0 39.5 -10.5t0.5 -45.5l-57 -322q7 -13 4 -26q-7 -37 -66 -37q-21 0 -30 8t-6 23q1 6 12 23l4 23q-95 -89 -175 -89q-30 1 -51 27.5t-15 60.5l53 302 q0 3 -1 11t0 13q8 42 62 42q16 0 28 -10t9 -30q-1 -12 -11 -24zM289 637l45 -73q10 -2 15.5 -11.5t3.5 -21.5q-7 -37 -48 -37q-14 0 -20 10.5t-4 22.5l-47 74q-21 8 -15 34q7 39 46 39q14 0 20 -11t4 -26z" />
<glyph unicode="&#xfa;" horiz-adv-x="437" d="M209 375l-48 -270q-2 -10 5.5 -20.5t18.5 -10.5q23 0 65 26.5t75 62.5l38 216q-3 18 -2 22q4 19 14.5 27t33.5 8q28 0 39.5 -10.5t0.5 -45.5l-57 -322q7 -13 4 -26q-7 -37 -66 -37q-21 0 -30 8t-6 23q1 6 12 23l4 23q-95 -89 -175 -89q-30 1 -51 27.5t-15 60.5l53 302 q0 3 -1 11t0 13q8 42 62 42q16 0 28 -10t9 -30q-1 -12 -11 -24zM433 600l-82 -77q-3 -13 -17 -23.5t-29 -10.5q-16 0 -23.5 10t-4.5 26q2 12 10.5 21.5t16.5 11.5l85 79q-1 17 11 26t29 9q18 0 26 -11t5 -27q-5 -27 -27 -34z" />
<glyph unicode="&#xfb;" horiz-adv-x="437" d="M209 375l-48 -270q-2 -10 5.5 -20.5t18.5 -10.5q23 0 65 26.5t75 62.5l38 216q-3 18 -2 22q4 19 14.5 27t33.5 8q28 0 39.5 -10.5t0.5 -45.5l-57 -322q7 -13 4 -26q-7 -37 -66 -37q-21 0 -30 8t-6 23q1 6 12 23l4 23q-95 -89 -175 -89q-30 1 -51 27.5t-15 60.5l53 302 q0 3 -1 11t0 13q8 42 62 42q16 0 28 -10t9 -30q-1 -12 -11 -24zM378 640l44 -92q15 -17 12 -33q-2 -16 -15.5 -27t-31.5 -11q-14 0 -19 11.5t-1 24.5l-35 75l-78 -77q-2 -14 -12.5 -24t-22.5 -10q-16 0 -25 12.5t-7 25.5q3 19 28 36l97 96q19 21 35 21q17 0 31 -28z" />
<glyph unicode="&#xfc;" horiz-adv-x="437" d="M209 375l-48 -270q-2 -10 5.5 -20.5t18.5 -10.5q23 0 65 26.5t75 62.5l38 216q-3 18 -2 22q4 19 14.5 27t33.5 8q28 0 39.5 -10.5t0.5 -45.5l-57 -322q7 -13 4 -26q-7 -37 -66 -37q-21 0 -30 8t-6 23q1 6 12 23l4 23q-95 -89 -175 -89q-30 1 -51 27.5t-15 60.5l53 302 q0 3 -1 11t0 13q8 42 62 42q16 0 28 -10t9 -30q-1 -12 -11 -24zM224 500q-17 0 -24 19t-3 39q10 58 60 58q43 0 37 -43q-7 -38 -22 -55.5t-48 -17.5zM379 503q-41 0 -32 54q4 25 18.5 42.5t36.5 17.5q17 0 30 -13.5t9 -38.5q-10 -62 -62 -62z" />
<glyph unicode="&#xfd;" horiz-adv-x="435" d="M208 28l-117 324q-16 15 -11 39q3 19 22 32t36 13q25 0 34 -15t3 -37l90 -256l142 265q9 46 51 46q23 0 35.5 -11.5t9.5 -30.5q-4 -22 -27 -35l-241 -432q-42 -76 -81.5 -104.5t-86.5 -28.5q-39 0 -65 22t-30 63q-1 6 -6.5 13.5t-3.5 21.5q4 20 18.5 33t33.5 13 q23 0 34 -9t7 -29q-1 -5 -4 -11.5t-4 -9.5q-2 -12 8 -21t26 -9q25 0 52.5 34t74.5 120zM428 597l-83 -77q-3 -13 -16.5 -23.5t-28.5 -10.5q-16 0 -23.5 10t-5.5 26q2 12 10.5 21.5t17.5 11.5l85 78q-2 17 10.5 26t29.5 9t25 -10.5t6 -27.5q-5 -27 -27 -33z" />
<glyph unicode="&#xfe;" horiz-adv-x="461" d="M15 -235l142 805q0 5 -0.5 21.5t0.5 19.5q3 21 20 31.5t32 10.5q29 0 42 -9.5t11 -22.5q-1 -4 -9 -23t-9 -23l-45 -255h1q53 62 101 90t106 28q48 0 71.5 -36t12.5 -97q-12 -72 -47 -134t-79 -101t-89.5 -60.5t-83.5 -21.5q-32 0 -48 21l-44 -246q8 -9 4 -28 q-7 -44 -69 -44q-19 0 -29 7t-7 27t16 40zM177 198l-17 -100q10 -33 41 -33q55 0 120.5 70t80.5 157q11 66 -35 66q-40 0 -103 -59q-44 -39 -87 -101z" />
<glyph unicode="&#xff;" horiz-adv-x="435" d="M208 28l-117 324q-16 15 -11 39q3 19 22 32t36 13q25 0 34 -15t3 -37l90 -256l142 265q9 46 51 46q23 0 35.5 -11.5t9.5 -30.5q-4 -22 -27 -35l-241 -432q-42 -76 -81.5 -104.5t-86.5 -28.5q-39 0 -65 22t-30 63q-1 6 -6.5 13.5t-3.5 21.5q4 20 18.5 33t33.5 13 q23 0 34 -9t7 -29q-1 -5 -4 -11.5t-4 -9.5q-2 -12 8 -21t26 -9q25 0 52.5 34t74.5 120zM225 494q-17 0 -24 19t-3 39q10 58 58 58q44 0 37 -43q-7 -39 -21.5 -56t-46.5 -17zM379 497q-41 0 -32 54q4 25 18 42.5t36 17.5q18 0 31 -13.5t9 -38.5q-12 -62 -62 -62z" />
<glyph unicode="&#x100;" horiz-adv-x="579" d="M442 241l-231 -16q-83 -129 -88 -144q-4 -11 -9 -44q-8 -42 -62 -42q-24 0 -33.5 13t-6.5 33q0 4 1.5 8t4 9.5l4.5 10t6.5 12.5t8 13.5l10 16.5l11 18l13 21t14.5 23l223 342q36 54 46 83q4 27 22.5 47t43.5 20q22 0 33 -12t9 -26q-2 -9 -7.5 -20t-6.5 -17 q-3 -14 9 -61.5t29.5 -109t21.5 -77.5q68 -243 60 -288q-4 -28 -21.5 -43.5t-43.5 -15.5q-21 0 -33 11t-9 27q2 9 6.5 21t5.5 15q4 28 -31 172zM261 304l164 12l-42 184zM509 746l-155 -19q-14 -4 -23 -4q-13 0 -19.5 11t-3.5 28q3 19 14.5 30t22.5 11q6 0 18 -6l147 18 q21 7 25 7q13 0 19.5 -11t3.5 -28q-4 -21 -20.5 -31.5t-28.5 -5.5z" />
<glyph unicode="&#x101;" horiz-adv-x="452" d="M359 288l9 51q6 39 -26 39q-68 0 -136 -43q1 -7 -12 -17.5t-31 -10.5q-16 0 -25 15.5t-6 31.5q2 15 19 29.5t30 11.5q90 55 206 55q36 0 55.5 -24t12.5 -66l-54 -306q6 -8 3 -24q-6 -36 -67 -36q-22 0 -29 8.5t-5 23.5q2 7 12 24l8 45h-2q-116 -113 -227 -113 q-36 0 -56.5 21.5t-13.5 58.5q12 73 103.5 141t231.5 85zM340 195l6 31q-88 -11 -157 -57t-76 -84q-4 -23 27 -23q50 0 122.5 49t77.5 84zM408 545l-154 -19q-16 -4 -24 -4q-13 0 -19.5 11t-3.5 28q3 19 14.5 30t22.5 11q6 0 18 -6l148 18q21 7 24 7q13 0 19.5 -11t4.5 -28 q-4 -21 -21 -31.5t-29 -5.5z" />
<glyph unicode="&#x102;" horiz-adv-x="579" d="M442 241l-231 -16q-83 -129 -88 -144q-4 -11 -9 -44q-8 -42 -62 -42q-24 0 -33.5 13t-6.5 33q0 4 1.5 8t4 9.5l4.5 10t6.5 12.5t8 13.5l10 16.5l11 18l13 21t14.5 23l223 342q36 54 46 83q4 27 22.5 47t43.5 20q22 0 33 -12t9 -26q-2 -9 -7.5 -20t-6.5 -17 q-3 -14 9 -61.5t29.5 -109t21.5 -77.5q68 -243 60 -288q-4 -28 -21.5 -43.5t-43.5 -15.5q-21 0 -33 11t-9 27q2 9 6.5 21t5.5 15q4 28 -31 172zM261 304l164 12l-42 184zM407 687q-47 0 -73.5 37t-20.5 75q8 38 41 38q31 0 25 -31q-3 -20 7.5 -36.5t32.5 -16.5q52 0 76 45 q-3 8 -1 19t15 18t27 7q15 0 22.5 -8.5t5.5 -22.5q-3 -17 -12 -27q-53 -97 -145 -97z" />
<glyph unicode="&#x103;" horiz-adv-x="452" d="M359 288l9 51q6 39 -26 39q-68 0 -136 -43q1 -7 -12 -17.5t-31 -10.5q-16 0 -25 15.5t-6 31.5q2 15 19 29.5t30 11.5q90 55 206 55q36 0 55.5 -24t12.5 -66l-54 -306q6 -8 3 -24q-6 -36 -67 -36q-22 0 -29 8.5t-5 23.5q2 7 12 24l8 45h-2q-116 -113 -227 -113 q-36 0 -56.5 21.5t-13.5 58.5q12 73 103.5 141t231.5 85zM340 195l6 31q-88 -11 -157 -57t-76 -84q-4 -23 27 -23q50 0 122.5 49t77.5 84zM305 485q-48 0 -74.5 37t-19.5 75t41 38q31 0 25 -31q-3 -20 7.5 -36.5t33.5 -16.5q51 0 75 45q-3 8 -1 19t15 18t27 7 q15 0 22.5 -8.5t5.5 -22.5q-4 -19 -12 -27q-53 -97 -145 -97z" />
<glyph unicode="&#x104;" horiz-adv-x="579" d="M261 304l163 12l-42 184zM413 -194q-41 0 -63.5 24t-14.5 69q9 52 48.5 92.5t82.5 57.5q5 9 7 20q4 28 -31 172l-231 -16q-83 -129 -88 -144q-4 -11 -9 -44q-8 -42 -62 -42q-24 0 -33.5 13t-6.5 33q3 21 73 132l223 342q36 54 46 83q4 27 22.5 47t43.5 20q22 0 33 -12 t9 -26q-2 -9 -7.5 -20t-6.5 -17q-3 -14 9 -61.5t29.5 -109t21.5 -77.5q68 -243 60 -288q-4 -28 -21.5 -43.5t-43.5 -15.5q-23 0 -33 -4q-24 -9 -47 -34q-21 -24 -28 -56q-2 -17 7.5 -27t25.5 -10q34 0 46 19q-1 4 0 10q4 18 31 18q14 0 20.5 -10t3.5 -26q-5 -25 -37.5 -47 t-78.5 -22z" />
<glyph unicode="&#x105;" horiz-adv-x="452" d="M336 -191q-45 0 -67 25t-13 74q8 49 50 100q-9 17 9 42l8 45h-2q-116 -113 -227 -113q-36 0 -56.5 21.5t-13.5 58.5q12 73 103.5 141t231.5 85l9 51q6 39 -26 39q-68 0 -136 -43q1 -7 -12 -17.5t-31 -10.5q-16 0 -25 15.5t-6 31.5q2 15 19 30t30 11q90 55 206 55 q36 0 55.5 -24t12.5 -66l-54 -305q6 -9 3 -24q-2 -15 -18 -25q-59 -36 -69 -96q-4 -20 6.5 -31.5t27.5 -11.5t31.5 9t20.5 21q-1 3 0 10q2 18 30 18q14 0 20.5 -9.5t3.5 -26.5q-4 -27 -38.5 -53.5t-82.5 -26.5zM340 195l6 31q-88 -11 -157 -57t-76 -84q-4 -23 27 -23 q50 0 122.5 49t77.5 84z" />
<glyph unicode="&#x106;" horiz-adv-x="518" d="M430 656q74 0 118.5 -32t37.5 -70q-4 -25 -20 -39t-38 -14q-36 0 -36 40q-1 14 -21 23.5t-51 9.5q-80 0 -158 -108.5t-96 -213.5q-16 -90 10.5 -138t73.5 -48q40 0 86 23.5t74 55.5q13 57 59 57q22 0 32.5 -14t7.5 -28q-6 -31 -36 -62q-47 -44 -115.5 -80.5t-134.5 -35.5 q-89 0 -129.5 70t-16.5 206q10 58 42 126t78 129t108.5 102t124.5 41zM530 807l-83 -77q-3 -13 -16.5 -23.5t-29.5 -10.5q-15 0 -22.5 10t-5.5 26q2 12 10.5 21.5t17.5 11.5l84 79q-1 17 11.5 25.5t29.5 8.5t25.5 -10.5t5.5 -26.5q-5 -27 -27 -34z" />
<glyph unicode="&#x107;" horiz-adv-x="430" d="M343 444q53 0 86.5 -23t27.5 -55q-9 -49 -62 -49q-14 0 -18.5 6.5t-6.5 18.5q-2 8 -4.5 12.5t-11 8.5t-23.5 4q-44 0 -96 -50q-78 -71 -93 -159q-16 -97 68 -97q26 0 63 21q43 26 64 60q7 17 11.5 25t14.5 15t24 7q23 0 31.5 -13.5t5.5 -28.5q-2 -13 -31.5 -50.5 t-68.5 -64.5q-69 -51 -149 -51q-68 0 -100.5 45t-20.5 117q14 79 46 127t90 103q26 26 71.5 48.5t81.5 22.5zM424 605l-82 -77q-3 -13 -17 -23.5t-29 -10.5q-16 0 -23.5 10t-5.5 27q2 11 11 20.5t17 11.5l85 79q-1 17 11 26t29 9q18 0 26 -11t5 -27q-4 -27 -27 -34z" />
<glyph unicode="&#x10c;" horiz-adv-x="518" d="M430 656q74 0 118.5 -32t37.5 -70q-4 -25 -20 -39t-38 -14q-36 0 -36 40q-1 14 -21 23.5t-51 9.5q-80 0 -158 -108.5t-96 -213.5q-16 -90 10.5 -138t73.5 -48q40 0 86 23.5t74 55.5q13 57 59 57q22 0 32.5 -14t7.5 -28q-6 -31 -36 -62q-47 -44 -115.5 -80.5t-134.5 -35.5 q-89 0 -129.5 70t-16.5 206q10 58 42 126t78 129t108.5 102t124.5 41zM525 766l-87 -64q-16 -12 -39 -12q-19 0 -28 17l-38 62q-15 10 -12 31q7 35 42 35q19 0 26 -28l32 -49l72 52q12 25 35 25q15 0 24 -9.5t6 -25.5q-4 -23 -33 -34z" />
<glyph unicode="&#x10d;" horiz-adv-x="430" d="M343 444q53 0 86.5 -23t27.5 -55q-9 -49 -62 -49q-14 0 -18.5 6.5t-6.5 18.5q-2 8 -4.5 12.5t-11 8.5t-23.5 4q-44 0 -96 -50q-78 -71 -93 -159q-16 -97 68 -97q26 0 63 21q43 26 64 60q7 17 11.5 25t14.5 15t24 7q23 0 31.5 -13.5t5.5 -28.5q-2 -13 -31.5 -50.5 t-68.5 -64.5q-69 -51 -149 -51q-68 0 -100.5 45t-20.5 117q14 79 46 127t90 103q26 26 71.5 48.5t81.5 22.5zM428 562l-87 -63q-17 -13 -39 -13q-18 0 -29 17l-37 63q-16 11 -12 30q5 36 41 36q20 0 26 -28l33 -49l72 52q12 25 35 25q15 0 24 -9.5t6 -26.5q-4 -23 -33 -34z " />
<glyph unicode="&#x10e;" horiz-adv-x="569" d="M53 30q5 26 19 40l88 505q-4 16 -1 33q3 16 20 29.5t44 13.5q23 0 31 -15t-1 -31q100 47 199 47q84 0 131 -69.5t32 -156.5q-31 -176 -164 -295q-78 -68 -178 -106.5t-172 -38.5q-28 0 -40 11t-8 33zM239 519l-78 -441q138 13 239 110q98 103 120 229q10 58 -19 106 t-84 48q-85 0 -178 -52zM518 765l-87 -64q-18 -12 -39 -12q-20 0 -29 17l-37 62q-15 10 -12 31q2 15 13 25t28 10q19 0 27 -28l32 -49l72 52q11 25 35 25q15 0 24 -9.5t6 -25.5q-4 -24 -33 -34z" />
<glyph unicode="&#x10f;" horiz-adv-x="483" d="M409 397l33 181q-12 9 -7 35q3 19 21 31t42 12q22 0 31.5 -13.5t6.5 -32.5l-8 -34l-92 -515q11 -8 8 -25q-8 -42 -64 -42q-46 0 -39 40q4 19 9 23l12 69q-47 -58 -119.5 -101t-131.5 -43q-44 0 -67.5 31t-13.5 87q21 115 125.5 214.5t195.5 99.5q38 0 58 -17zM338 338 q-55 0 -130 -77.5t-87 -140.5q-10 -53 34 -53q60 0 144 80q28 25 41 38t27 36.5t19 50.5q5 30 -7 48t-41 18zM567 459q-25 0 -20 24q5 28 38 33q18 2 31 16t17 38q3 18 -8 24q-22 -3 -29 6.5t-4 25.5q5 30 35 30q32 0 50 -23.5t11 -63.5q-10 -52 -47.5 -81t-73.5 -29z" />
<glyph unicode="&#x110;" horiz-adv-x="582" d="M66 30q5 26 19 40l35 206l-26 -2q-14 -7 -19 -7q-12 0 -19.5 9t-5.5 24q11 48 45 52l39 3l39 220q-4 16 -1 33q3 16 20 29.5t44 13.5q23 0 30.5 -14t0.5 -32q99 47 198 47q84 0 132 -65.5t34 -144.5q-35 -194 -166 -311q-78 -68 -179 -106.5t-173 -38.5q-28 0 -39.5 11 t-7.5 33zM252 519l-27 -156l98 9q31 9 37 9q16 0 22.5 -12t3.5 -30q-9 -51 -47 -51q-10 0 -32 6l-96 -10l-37 -206q136 13 239 110q98 102 124 245q9 51 -20.5 94.5t-85.5 43.5q-86 0 -179 -52z" />
<glyph unicode="&#x111;" horiz-adv-x="483" d="M338 338q-55 0 -130 -77.5t-87 -140.5q-10 -53 34 -53q60 0 144 80q28 25 41 38t27 36.5t19 50.5q5 30 -7 48t-41 18zM542 486l-31 -4l-75 -421q11 -8 8 -25q-8 -42 -64 -42q-46 0 -39 40q4 19 9 23l12 69q-47 -58 -119.5 -101t-131.5 -43q-44 0 -67.5 31t-13.5 87 q21 115 125.5 214.5t195.5 99.5q38 0 58 -17l14 74l-99 -13q-12 -4 -22 -4q-11 0 -16.5 9.5t-2.5 24.5q3 17 12.5 26.5t18.5 9.5q6 0 18 -6l101 13l9 47q-12 9 -7 35q3 19 21 31t41 12q22 0 32.5 -13.5t6.5 -32.5l-9 -34l-6 -34l22 3q19 7 23 7q11 0 16.5 -9.5t2.5 -24.5 q-3 -19 -18 -28t-25 -4z" />
<glyph unicode="&#x112;" horiz-adv-x="513" d="M203 277l-35 -194l259 19q15 15 32 15q22 0 34 -15t9 -32q-5 -30 -24.5 -40.5t-58.5 -10.5l-265 -20q-17 -17 -56 -17q-20 0 -31.5 13.5t-7.5 37.5q3 25 19 44l34 188q-14 17 -9 46q6 29 25 46l28 160q-18 12 -13 39q6 27 21 39q-4 5 -2 16q3 16 20 26t38 10 q23 0 33.5 -10.5t7.5 -26.5l224 21q24 15 36 15q26 0 37.5 -13.5t7.5 -32.5q-5 -26 -22 -42.5t-41 -16.5q-15 0 -31 8l-225 -22l-30 -167l181 24q22 14 35 14q22 0 34 -16t8 -36q-9 -51 -63 -51q-10 0 -20 7zM469 732l-155 -19q-14 -4 -23 -4q-13 0 -19.5 11t-3.5 28 q3 19 14.5 30t22.5 11q6 0 18 -6l148 18q19 7 24 7q13 0 19.5 -11t3.5 -28q-3 -21 -20 -31.5t-29 -5.5z" />
<glyph unicode="&#x113;" horiz-adv-x="433" d="M349 444q48 0 76 -23.5t34 -49.5t2 -50q-5 -26 -22.5 -44.5t-77.5 -41t-165 -41.5l-44 -8q-10 -22 -16 -54q-13 -70 52 -70q44 0 85 21.5t61 45.5q1 18 16 31t37 13q42 0 35 -44q-6 -33 -83 -89t-176 -56q-137 0 -113 140q24 135 114 227.5t185 92.5zM331 368 q-39 0 -79.5 -31t-69.5 -80q192 35 197 60q3 21 -8.5 36t-39.5 15zM410 531l-155 -19q-14 -4 -23 -4q-13 0 -19.5 11t-3.5 28q3 19 14.5 30t22.5 11q6 0 18 -6l148 18q21 7 24 7q13 0 19.5 -11t3.5 -28q-3 -22 -19.5 -32t-29.5 -5z" />
<glyph unicode="&#x116;" horiz-adv-x="513" d="M203 277l-35 -194l259 19q15 15 32 15q22 0 34 -15t9 -32q-5 -30 -24.5 -40.5t-58.5 -10.5l-265 -20q-17 -17 -56 -17q-20 0 -31.5 13.5t-7.5 37.5q3 25 19 44l34 188q-14 17 -9 46q6 29 25 46l28 160q-18 12 -13 39q6 27 21 39q-4 5 -2 16q3 16 20 26t38 10 q23 0 33.5 -10.5t7.5 -26.5l224 21q24 15 36 15q26 0 37.5 -13.5t7.5 -32.5q-5 -26 -22 -42.5t-41 -16.5q-15 0 -31 8l-225 -22l-30 -167l181 24q22 14 35 14q22 0 34 -16t8 -36q-9 -51 -63 -51q-10 0 -20 7zM371 671q-41 0 -32 48q7 40 26 65.5t45 25.5q43 0 35 -46 q-8 -43 -29 -68t-45 -25z" />
<glyph unicode="&#x117;" horiz-adv-x="433" d="M349 444q48 0 76 -23.5t34 -49.5t2 -50q-5 -26 -22.5 -44.5t-77.5 -41t-165 -41.5l-44 -8q-10 -22 -16 -54q-13 -70 52 -70q44 0 85 21.5t61 45.5q1 18 16 31t37 13q42 0 35 -44q-6 -33 -83 -89t-176 -56q-137 0 -113 140q24 135 114 227.5t185 92.5zM331 368 q-39 0 -79.5 -31t-69.5 -80q192 35 197 60q3 21 -8.5 36t-39.5 15zM304 484q-41 0 -32 48q7 39 26.5 65t45.5 26q42 0 34 -46q-7 -43 -28.5 -68t-45.5 -25z" />
<glyph unicode="&#x118;" horiz-adv-x="513" d="M350 -172q-41 0 -64 24t-15 69q9 54 51 91l-168 -12q-16 -18 -56 -18q-20 0 -31.5 13.5t-7.5 37.5q3 23 19 45l34 187q-14 17 -9 46q6 29 25 46l28 160q-18 12 -13 39q6 27 21 39q-4 5 -2 16q3 16 20 26t38 10q23 0 33.5 -10.5t7.5 -26.5l224 21q24 15 36 15 q26 0 37 -13.5t8 -32.5q-5 -26 -22 -42.5t-41 -16.5q-16 0 -30 8l-226 -22l-30 -167l181 24q22 14 35 14q22 0 34 -16t8 -36q-9 -51 -63 -51q-10 0 -21 7l-188 -25l-35 -194l259 19q15 15 32 15q22 0 34 -15t9 -32q-5 -29 -23 -38.5t-57 -11.5q-33 -8 -62 -40 q-23 -26 -29 -57q-2 -17 7.5 -27t25.5 -10q35 0 47 19q-3 4 -1 10q4 18 32 18q13 0 19.5 -10t3.5 -26q-4 -25 -36.5 -47t-78.5 -22z" />
<glyph unicode="&#x119;" horiz-adv-x="433" d="M332 368q-39 0 -79.5 -30.5t-69.5 -79.5q192 34 197 59q3 21 -8.5 36t-39.5 15zM222 -177q-41 0 -64 24t-14 69q6 36 30 71q-14 -2 -23 -2q-124 9 -101 140q24 135 114 227t184 92h1q48 0 76 -23.5t34 -49.5t2 -50q-5 -26 -22.5 -44t-77.5 -40.5t-165 -41.5l-44 -8 q-9 -23 -16 -54q-13 -70 52 -70q44 0 85.5 21.5t60.5 45.5q1 18 16 30.5t37 12.5q41 0 35 -43q-4 -20 -44 -58.5t-96 -62.5q-29 -13 -50 -35q-23 -26 -28 -56q-3 -17 6.5 -27t25.5 -10q35 0 47 19q-1 4 0 10q1 7 9.5 12.5t21.5 5.5q14 0 20 -10t3 -26q-4 -25 -36.5 -47 t-78.5 -22z" />
<glyph unicode="&#x11a;" horiz-adv-x="513" d="M203 277l-35 -194l259 19q15 15 32 15q22 0 34 -15t9 -32q-5 -30 -24.5 -40.5t-58.5 -10.5l-265 -20q-17 -17 -56 -17q-20 0 -31.5 13.5t-7.5 37.5q3 25 19 44l34 188q-14 17 -9 46q6 29 25 46l28 160q-18 12 -13 39q6 27 21 39q-4 5 -2 16q3 16 20 26t38 10 q23 0 33.5 -10.5t7.5 -26.5l224 21q24 15 36 15q26 0 37.5 -13.5t7.5 -32.5q-5 -26 -22 -42.5t-41 -16.5q-15 0 -31 8l-225 -22l-30 -167l181 24q22 14 35 14q22 0 34 -16t8 -36q-9 -51 -63 -51q-10 0 -20 7zM495 758l-88 -64q-17 -12 -38 -12t-29 17l-38 62q-15 10 -12 31 q7 35 42 35q20 0 26 -28l32 -49l72 52q12 25 35 25q16 0 24.5 -9t6.5 -26q-4 -22 -33 -34z" />
<glyph unicode="&#x11b;" horiz-adv-x="433" d="M349 444q48 0 76 -23.5t34 -49.5t2 -50q-5 -26 -22.5 -44.5t-77.5 -41t-165 -41.5l-44 -8q-10 -22 -16 -54q-13 -70 52 -70q44 0 85 21.5t61 45.5q1 18 16 31t37 13q42 0 35 -44q-6 -33 -83 -89t-176 -56q-137 0 -113 140q24 135 114 227.5t185 92.5zM331 368 q-39 0 -79.5 -31t-69.5 -80q192 35 197 60q3 21 -8.5 36t-39.5 15zM433 556l-87 -63q-17 -13 -39 -13q-20 0 -29 17l-38 63q-15 9 -12 30q7 36 42 36q20 0 26 -28l33 -49l72 52q13 25 35 25q15 0 24 -9.5t6 -26.5q-4 -23 -33 -34z" />
<glyph unicode="&#x11e;" horiz-adv-x="628" d="M519 665q71 0 108 -37q16 -14 26.5 -36.5t8.5 -35.5q-4 -20 -18.5 -32.5t-35.5 -12.5q-32 0 -37 42q-3 13 -21 22.5t-51 9.5q-61 0 -150 -61q-155 -109 -185 -278q-15 -89 12 -136.5t82 -47.5q40 0 91.5 19t86.5 51q51 43 83 88.5t38 76.5q-24 -7 -81.5 -19t-77.5 -12 q-13 0 -21.5 10.5t-5.5 29.5t16.5 32t32.5 13q44 0 122 17.5t85 17.5q40 0 31 -46q-5 -29 -23 -71t-54.5 -92.5t-83.5 -93.5t-116.5 -72t-146.5 -29q-99 -1 -140.5 71t-19.5 193q18 107 83.5 194t154.5 146q118 79 207 79zM454 694q-48 0 -74.5 37t-19.5 75q4 21 13.5 29.5 t27.5 8.5q30 0 25 -31q-3 -19 7.5 -36t32.5 -17q51 0 75 45q-2 6 0 19q2 11 15 18t26 7q15 0 23 -9t5 -22q-2 -17 -12 -27q-51 -97 -144 -97z" />
<glyph unicode="&#x11f;" horiz-adv-x="447" d="M460 385l-70 -402q-17 -93 -85.5 -145t-141.5 -52q-57 0 -93 21.5t-30 50.5q4 23 17.5 37.5t30.5 14.5q13 0 21.5 -8t7.5 -21q22 -20 64 -20q40 0 76.5 31.5t48.5 99.5q4 25 13.5 75.5t13.5 75.5q-40 -72 -100.5 -116.5t-114.5 -44.5q-50 0 -70 31t-11 81 q23 129 130 235.5t246 106.5q55 0 47 -51zM144 63q33 0 87 47.5t93 126.5q33 62 46 123v1q-80 0 -154.5 -79.5t-91.5 -172.5q-8 -46 20 -46zM302 476q-47 0 -73.5 36.5t-20.5 75.5q7 38 41 38q30 0 25 -31q-3 -20 7 -36.5t33 -16.5q51 0 75 45q-3 8 -1 19t15 18t27 7 q15 0 22.5 -8.5t5.5 -22.5q-4 -19 -12 -27q-53 -97 -144 -97z" />
<glyph unicode="&#x122;" horiz-adv-x="628" d="M519 665q71 0 108 -37q16 -14 26.5 -36.5t8.5 -35.5q-4 -20 -18.5 -32.5t-35.5 -12.5q-32 0 -37 42q-3 13 -21 22.5t-51 9.5q-62 0 -149 -61q-154 -107 -186 -278q-15 -89 12 -136.5t82 -47.5q40 0 91.5 19t86.5 51q51 43 83 88.5t38 76.5q-24 -7 -81 -19t-77 -12 q-14 0 -22.5 10.5t-5.5 29.5q4 19 17.5 32t32.5 13q44 0 121.5 17.5t84.5 17.5q40 0 31 -46q-5 -29 -23 -71t-54.5 -92.5t-83.5 -93.5t-116.5 -72t-146.5 -29q-99 -1 -140.5 71t-19.5 193q18 107 83.5 194t154.5 146q118 79 207 79zM229 -243q-25 0 -20 24q5 28 38 33 q18 2 31 16t17 37q3 18 -7 25q-22 -3 -29.5 6.5t-4.5 25.5q5 30 35 30q32 0 50 -23.5t11 -63.5q-9 -52 -46.5 -81t-74.5 -29z" />
<glyph unicode="&#x123;" horiz-adv-x="447" d="M460 385l-70 -402q-17 -93 -85.5 -145t-141.5 -52q-57 0 -93 21.5t-30 50.5q4 23 17.5 37.5t30.5 14.5q13 0 21.5 -8t7.5 -21q22 -20 64 -20q40 0 76.5 31.5t48.5 99.5q4 25 13.5 75.5t13.5 75.5q-40 -72 -100.5 -116.5t-114.5 -44.5q-50 0 -70 31t-11 81 q23 129 130 235.5t246 106.5q55 0 47 -51zM144 63q33 0 87 47.5t93 126.5q35 66 46 123v1q-80 0 -154.5 -79.5t-91.5 -172.5q-8 -46 20 -46zM393 667q25 0 20 -24q-5 -28 -38 -33q-17 -2 -30.5 -16t-17.5 -37q-3 -18 8 -25q22 3 29.5 -6t4.5 -26q-5 -30 -35 -30 q-32 0 -50.5 23.5t-11.5 63.5q10 52 47.5 81t73.5 29z" />
<glyph unicode="&#x12a;" horiz-adv-x="216" d="M250 551l-83 -472q9 -17 6 -35q-3 -19 -22 -34t-44 -15q-26 0 -39 14t-9 38q3 18 19 36l84 474q-10 10 -6 29q4 26 26 42.5t49 16.5q25 0 35 -16t6 -38q-3 -21 -22 -40zM319 727l-155 -19q-16 -4 -23 -4q-13 0 -19.5 11t-3.5 28q3 19 14.5 30t21.5 11q6 0 18 -6l148 18 q21 7 25 7q13 0 19.5 -11t2.5 -28q-3 -21 -19.5 -31.5t-28.5 -5.5z" />
<glyph unicode="&#x12b;" horiz-adv-x="199" d="M221 391q-2 -12 -16 -33l-50 -286q10 -10 7 -28q-4 -23 -27.5 -36t-48.5 -13q-18 0 -27.5 13t-5.5 34q3 20 17 34l49 278q-8 9 -4 26q3 18 7 28.5t19.5 20t42.5 9.5q16 0 28 -15.5t9 -31.5zM274 533l-154 -19q-14 -4 -23 -4q-13 0 -20 11.5t-4 27.5q3 19 15 30t23 11 q5 0 17 -6l148 18q21 7 24 7q14 0 20.5 -11t3.5 -28q-4 -22 -20.5 -32t-29.5 -5z" />
<glyph unicode="&#x12e;" horiz-adv-x="216" d="M99 -186q-44 0 -66 25t-13 74q8 47 47 97q-13 16 -9 35.5t20 37.5l84 474q-10 10 -6 29q4 26 26 42.5t49 16.5q25 0 35 -16t6 -38q-3 -21 -22 -40l-83 -472q9 -17 6 -35q-4 -23 -31 -40q-51 -32 -61 -89q-4 -20 5.5 -31.5t27.5 -11.5q17 0 32.5 9t21.5 21q-2 2 -1 10 q1 7 9.5 12.5t21.5 5.5q14 0 20.5 -10t3.5 -26q-4 -27 -39.5 -53.5t-83.5 -26.5z" />
<glyph unicode="&#x12f;" horiz-adv-x="199" d="M223 629q41 0 33 -46q-7 -42 -28 -67.5t-44 -25.5q-42 0 -33 48q7 40 26.5 65.5t45.5 25.5zM93 -183q-45 0 -67 25t-13 74q8 44 45 94q-8 13 -4 33.5t17 32.5l49 278q-8 9 -4 26q3 18 7 28.5t19.5 20t42.5 9.5q16 0 28 -15.5t9 -30.5v-1q-2 -12 -16 -33l-50 -286 q10 -10 7 -27q-4 -21 -27 -36q-53 -35 -63 -91q-3 -20 7 -31.5t27 -11.5t32.5 9t20.5 21q-1 2 -1 10q4 18 32 18q14 0 20.5 -10t2.5 -26q-4 -27 -38.5 -53.5t-82.5 -26.5z" />
<glyph unicode="&#x130;" horiz-adv-x="216" d="M250 551l-83 -472q9 -17 6 -35q-3 -19 -22 -34t-44 -15q-26 0 -39 14t-9 38q3 18 19 36l84 474q-10 10 -6 29q4 26 26 42.5t49 16.5q25 0 35 -16t6 -38q-3 -21 -22 -40zM222 677q-41 0 -31 48q6 39 25.5 65t45.5 26q42 0 34 -46q-8 -43 -29 -68t-45 -25z" />
<glyph unicode="&#x131;" horiz-adv-x="199" d="M221 391q-2 -12 -16 -33l-50 -286q10 -10 7 -28q-4 -23 -27.5 -36t-48.5 -13q-18 0 -27.5 13t-5.5 34q3 20 17 34l49 278q-8 9 -4 26q3 18 7 28.5t19.5 20t42.5 9.5q16 0 28 -15.5t9 -31.5z" />
<glyph unicode="&#x136;" horiz-adv-x="524" d="M212 339l-47 -266q9 -9 6 -27q-8 -51 -63 -51q-24 0 -38 13.5t-9 37.5q5 20 16 30l87 493q-6 7 -2 25q4 24 21 37.5t36 13.5q20 0 35.5 -11t11.5 -34q-3 -18 -12 -27l-26 -144h2q24 26 58 51l176 126q24 37 52 37q14 0 29 -11.5t11 -33.5q-3 -17 -18 -33.5t-33 -17.5 l-219 -158l210 -310q14 0 22 -11t6 -23q-2 -18 -23 -36t-46 -18q-21 0 -30 9t-7 23l-169 247q-28 43 -35 69h-2zM182 -220q-24 0 -19 24q4 28 37 33q40 5 49 53q3 18 -8 25q-22 -3 -29.5 6t-4.5 26q5 30 36 30t49 -24t11 -63q-9 -52 -46.5 -81t-74.5 -29z" />
<glyph unicode="&#x137;" horiz-adv-x="408" d="M245 586l-54 -308l2 -1q33 36 74 75l100 88q3 13 14.5 22.5t24.5 9.5q23 0 33.5 -14.5t6.5 -34.5q-2 -16 -13.5 -26.5t-23.5 -10.5l-157 -146l113 -165q13 2 21.5 -8t5.5 -25q-3 -22 -21.5 -36.5t-45.5 -14.5q-23 0 -26 29l-76 111q-1 3 -17 27t-27 45l-2 -1l-22 -124 q5 -28 5 -33q-9 -50 -64 -50q-51 0 -41 52q3 19 14 29l89 506q-10 10 -6 28q8 47 63 47q26 0 36.5 -10.5t6.5 -34.5q-5 -19 -13 -26zM120 -241q-24 0 -19 24q4 28 37 33q40 5 49 53q3 19 -8 25q-22 -3 -29.5 6t-4.5 26q5 30 35 30q32 0 50.5 -23.5t11.5 -63.5 q-10 -52 -47.5 -81t-74.5 -29z" />
<glyph unicode="&#x139;" horiz-adv-x="420" d="M252 563l-86 -487l180 24q19 14 35 14q15 0 26.5 -11.5t7.5 -33.5q-5 -27 -19 -41.5t-29 -14.5q-13 0 -26 5l-199 -27q-33 -6 -41 -6q-24 0 -36 11.5t-8 34.5q4 25 18 35l88 497q-5 14 -2 27q5 29 23 42t42 13q49 0 40 -53q-2 -10 -14 -29zM433 806l-83 -77 q-3 -13 -16.5 -23.5t-29.5 -10.5q-33 0 -28 37q2 11 10.5 21t17.5 12l84 78q-1 17 11.5 26t29.5 9t25 -10.5t6 -27.5q-5 -27 -27 -34z" />
<glyph unicode="&#x13a;" horiz-adv-x="199" d="M69 70l88 498q-6 19 -4 34q6 32 19.5 43t47.5 11q20 0 34 -13t10 -34q-4 -22 -22 -44l-88 -498q14 -13 9 -30q-2 -14 -20.5 -28t-41.5 -14t-36 13t-9 36q1 11 13 26zM348 792l-83 -77q-3 -13 -16.5 -23.5t-28.5 -10.5q-16 0 -23.5 10t-5.5 26q2 12 10.5 21.5t17.5 11.5 l85 79q-2 17 10.5 25.5t29.5 8.5t25 -10.5t6 -26.5q-5 -27 -27 -34z" />
<glyph unicode="&#x13b;" horiz-adv-x="420" d="M252 563l-86 -487l180 24q19 14 34 14t26.5 -11.5t8.5 -33.5q-6 -27 -19.5 -41.5t-28.5 -14.5q-14 0 -26 5l-199 -27q-33 -6 -41 -6q-24 0 -36 11.5t-8 34.5q4 25 18 35l88 497q-5 14 -2 27q5 29 23 42t42 13q20 0 32.5 -12.5t7.5 -40.5q0 -2 -14 -29zM127 -243 q-25 0 -20 24q5 28 38 33q39 5 48 53q5 17 -7 25q-22 -3 -30 6.5t-5 25.5q7 30 36 30q31 0 49 -24t11 -63q-8 -51 -46 -80.5t-74 -29.5z" />
<glyph unicode="&#x13c;" horiz-adv-x="199" d="M69 70l88 498q-6 19 -4 34q6 32 19.5 43t47.5 11q20 0 34 -13t10 -34q-4 -22 -22 -44l-88 -498q14 -13 9 -30q-2 -14 -20.5 -28t-41.5 -14t-36 13t-9 36q1 11 13 26zM23 -236q-24 0 -19 24q4 28 37 33q40 5 49 53q3 18 -8 24q-22 -3 -29.5 6.5t-4.5 26.5q5 30 35 30 q32 0 50 -24t11 -63q-9 -52 -46.5 -81t-74.5 -29z" />
<glyph unicode="&#x13d;" horiz-adv-x="420" d="M252 563l-86 -487l180 24q19 14 34 14q16 0 27.5 -11.5t7.5 -33.5q-5 -27 -19 -41.5t-29 -14.5q-13 0 -26 5l-199 -27q-33 -6 -41 -6q-24 0 -36 11.5t-8 34.5t18 35l88 497q-5 14 -2 27q5 29 23 42t42 13q49 0 40 -53q-2 -10 -14 -29zM314 458q-25 0 -20 24q5 28 37 33 q18 2 31 16t17 37q3 18 -7 25q-22 -3 -29.5 6t-4.5 26q5 30 35 30q31 0 49.5 -24t11.5 -63q-9 -51 -46.5 -80.5t-73.5 -29.5z" />
<glyph unicode="&#x13e;" horiz-adv-x="199" d="M69 70l88 498q-6 19 -4 34q6 32 19.5 43t47.5 11q20 0 34 -13t10 -34q-4 -24 -22 -45l-88 -497q14 -13 9 -30q-2 -14 -20.5 -28t-41.5 -14t-36 13t-9 36q1 11 13 26zM283 459q-25 0 -20 24q5 28 38 33q39 5 48 54q3 18 -8 24q-22 -3 -29 6.5t-4 25.5q5 30 35 30 q31 0 49.5 -24t11.5 -63q-9 -51 -47 -80.5t-74 -29.5z" />
<glyph unicode="&#x141;" horiz-adv-x="437" d="M341 368l-101 -62l-41 -230l181 24q19 14 34 14q16 0 27 -11.5t7 -33.5q-5 -27 -19 -41.5t-29 -14.5q-13 0 -26 5l-199 -27q-30 -6 -41 -6q-51 0 -44 46q4 25 19 35l33 187l-34 -21q-5 -19 -35 -19q-16 0 -23.5 11t-5.5 27q4 23 15.5 37.5t22.5 14.5q13 0 19 -2l56 34 l39 228q-5 14 -2 27q5 29 23 42t42 13q21 0 33 -12.5t7 -40.5q-1 -8 -14 -29l-31 -175l72 44q4 9 15 15.5t23 6.5q17 0 27.5 -12.5t6.5 -32.5q-3 -20 -21.5 -34.5t-35.5 -6.5z" />
<glyph unicode="&#x142;" horiz-adv-x="254" d="M97 70l34 196l-27 -23q-7 -23 -38 -23q-15 0 -24 11t-6 26q4 22 18.5 35t34.5 10l57 48l38 218q-5 22 -3 34q5 32 18.5 43t48.5 11q20 0 34 -13t10 -34q-3 -20 -22 -44l-26 -149l35 30q7 21 35 21q17 0 26 -11t5 -33q-3 -21 -21 -31t-30 -4l-65 -55l-47 -266 q12 -13 9 -30q-2 -14 -21 -28t-41 -14q-23 0 -36 13t-9 36q1 11 13 26z" />
<glyph unicode="&#x143;" horiz-adv-x="566" d="M77 70l87 495q-5 14 -2 30q3 20 19 35t41 15q28 0 37.5 -9t5.5 -29q-5 -29 17 -98q28 -84 96 -180q61 -86 76 -138h1q22 141 67 393q-6 19 -5 27q8 45 52 45q22 0 37.5 -10t11.5 -28q-3 -17 -14 -32l-93 -530q9 -14 6 -27q-3 -19 -15.5 -26.5t-40.5 -7.5q-20 0 -28 13.5 t-15 40.5q-9 37 -39.5 98.5t-58.5 101.5q-79 115 -96 189h-2l-63 -368q7 -13 4 -30q-7 -45 -53 -45q-26 0 -40 11.5t-9 36.5q3 14 16 27zM524 794l-82 -77q-4 -13 -17 -23.5t-29 -10.5q-15 0 -23 10t-5 26q2 12 10.5 21.5t17.5 11.5l84 79q-1 17 11.5 25.5t28.5 8.5 q17 0 25.5 -10.5t5.5 -26.5q-5 -27 -27 -34z" />
<glyph unicode="&#x144;" horiz-adv-x="438" d="M192 265l-37 -210q4 -10 3 -24q-3 -18 -23 -27t-41 -9q-19 0 -31 8.5t-10 25.5q5 18 17 28l27 156q-13 9 -8 33q4 23 24 58l14 80q-5 14 -2 30q3 15 23 28t41 13q25 0 33.5 -9t6.5 -26q-3 -14 -15 -31l-7 -39q135 105 188 105q25 0 43.5 -21t13.5 -45l-57 -326 q3 -18 2 -26q-8 -42 -61 -42q-24 0 -34 10t-6 28q3 14 13 26l49 280q1 5 -6 12t-13 7q-28 0 -147 -93zM430 604l-82 -77q-4 -13 -17.5 -23.5t-28.5 -10.5q-16 0 -23.5 10t-5.5 26q2 12 10.5 21.5t17.5 11.5l84 79q-1 17 11.5 26t28.5 9q18 0 26 -10.5t6 -27.5 q-5 -27 -27 -34z" />
<glyph unicode="&#x145;" horiz-adv-x="566" d="M77 70l87 495q-5 14 -2 30q3 20 19 35t41 15q28 0 37.5 -9t5.5 -29q-5 -32 17 -98q28 -84 96 -180q61 -86 76 -138h1q22 141 67 393q-6 19 -5 27q8 45 52 45q22 0 37.5 -10t11.5 -28q-3 -17 -14 -32l-93 -530q9 -14 6 -27q-3 -19 -15.5 -26.5t-40.5 -7.5q-20 0 -28 13.5 t-15 40.5q-9 37 -39.5 98.5t-58.5 101.5q-79 115 -96 189h-2l-63 -368q7 -13 4 -30q-7 -45 -53 -45q-26 0 -40 11.5t-9 36.5q3 14 16 27zM204 -219q-25 0 -20 24q5 28 38 33q40 5 49 53q2 19 -8 25q-22 -3 -29.5 6t-4.5 26q5 30 35 30q31 0 49.5 -24t11.5 -63 q-9 -51 -47 -80.5t-74 -29.5z" />
<glyph unicode="&#x146;" horiz-adv-x="438" d="M192 265l-37 -210q4 -10 3 -24q-3 -18 -23 -27t-41 -9q-19 0 -31 8.5t-10 25.5q5 18 17 28l27 156q-13 9 -8 33q4 23 24 58l14 80q-5 14 -2 30q3 15 23 28t41 13q25 0 33.5 -9t6.5 -26q-3 -14 -15 -31l-7 -39q135 105 188 105q25 0 43.5 -21t13.5 -45l-57 -326 q3 -18 2 -26q-8 -42 -61 -42q-24 0 -34 10t-6 28q3 14 13 26l49 280q1 5 -6 12t-13 7q-28 0 -147 -93zM136 -241q-24 0 -19 24q4 28 37 33q40 5 49 53q3 18 -8 25q-22 -3 -29.5 6.5t-4.5 25.5q5 30 35 30q32 0 50.5 -23.5t11.5 -63.5q-10 -51 -48 -80.5t-74 -29.5z" />
<glyph unicode="&#x147;" horiz-adv-x="566" d="M77 70l87 495q-5 14 -2 30q3 20 19 35t41 15q28 0 37.5 -9t5.5 -29q-5 -29 17 -98q28 -84 96 -180q61 -86 76 -138h1q22 141 67 393q-6 19 -5 27q8 45 52 45q22 0 37.5 -10t11.5 -28q-3 -17 -14 -32l-93 -530q9 -14 6 -27q-3 -19 -15.5 -26.5t-40.5 -7.5q-20 0 -28 13.5 t-15 40.5q-9 37 -39.5 98.5t-58.5 101.5q-79 115 -96 189h-2l-63 -368q7 -13 4 -30q-7 -45 -53 -45q-26 0 -40 11.5t-9 36.5q3 14 16 27zM524 751l-87 -63q-16 -13 -39 -13q-18 0 -29 17l-37 63q-15 10 -12 30q7 36 42 36q20 0 26 -28l32 -49l72 52q12 25 35 25 q15 0 24 -9.5t6 -25.5q-4 -24 -33 -35z" />
<glyph unicode="&#x148;" horiz-adv-x="438" d="M192 265l-37 -210q4 -10 3 -24q-3 -18 -23 -27t-41 -9q-19 0 -31 8.5t-10 25.5q5 18 17 28l27 156q-13 9 -8 33q4 23 24 58l14 80q-5 14 -2 30q3 15 23 28t41 13q25 0 33.5 -9t6.5 -26q-3 -14 -15 -31l-7 -39q135 105 188 105q25 0 43.5 -21t13.5 -45l-57 -326 q3 -18 2 -26q-8 -42 -61 -42q-24 0 -34 10t-6 28q3 14 13 26l49 280q1 5 -6 12t-13 7q-28 0 -147 -93zM426 564l-87 -63q-17 -13 -39 -13q-18 0 -29 17l-37 63q-16 11 -12 30q5 36 41 36q19 0 27 -28l32 -49l72 52q12 25 35 25q15 0 24 -9.5t6 -26.5q-4 -23 -33 -34z" />
<glyph unicode="&#x14c;" horiz-adv-x="573" d="M452 674q88 0 133.5 -76t17.5 -234q-29 -163 -139.5 -272.5t-241.5 -109.5q-53 0 -89.5 25.5t-50 64t-18 84.5t5.5 88q17 99 76.5 199t143 165.5t162.5 65.5zM427 594q-47 0 -103.5 -51.5t-101 -131t-58.5 -155.5q-6 -48 -4 -91t26 -73t66 -30q80 0 158 86.5t100 212.5 q21 115 -1 174t-82 59zM523 741l-156 -19q-14 -4 -23 -4q-12 0 -19 11.5t-4 27.5q3 19 14.5 30t22.5 11q6 0 18 -6l148 18q21 7 25 7q13 0 19.5 -11t3.5 -28q-4 -21 -20.5 -31.5t-28.5 -5.5z" />
<glyph unicode="&#x14d;" horiz-adv-x="455" d="M363 448q40 0 66 -19.5t34.5 -48t11 -61.5t-4.5 -60q-10 -55 -42.5 -105.5t-60.5 -76.5q-63 -56 -108 -75.5t-107 -19.5q-46 0 -79.5 41t-19.5 118q22 131 112.5 219t197.5 88zM331 370q-57 0 -115.5 -65t-73.5 -149q-7 -43 6 -69.5t38 -26.5q59 0 115 52q67 57 81 142 q20 116 -51 116zM418 527l-155 -19q-14 -4 -22 -4q-13 0 -20 11t-4 28q3 19 15 30t23 11q5 0 17 -6l148 18q19 7 24 7q13 0 19.5 -11t2.5 -28q-3 -21 -19.5 -31.5t-28.5 -5.5z" />
<glyph unicode="&#x150;" horiz-adv-x="573" d="M452 674q88 0 133.5 -76t17.5 -234q-29 -163 -139.5 -272.5t-241.5 -109.5q-53 0 -89.5 25.5t-50 64t-18 84.5t5.5 88q17 99 76.5 199t143 165.5t162.5 65.5zM427 594q-47 0 -103.5 -51.5t-101 -131t-58.5 -155.5q-6 -48 -4 -91t26 -73t66 -30q80 0 158 86.5t100 212.5 q21 115 -1 174t-82 59zM639 835l-91 -92q0 -13 -15.5 -28.5t-35.5 -15.5q-30 0 -24 40q3 20 19 26l92 94q-3 16 10.5 30.5t35.5 14.5q15 0 24.5 -11.5t6.5 -29.5q-4 -18 -22 -28zM505 835l-91 -92q0 -13 -15 -28.5t-35 -15.5q-13 0 -20.5 10.5t-4.5 29.5q5 20 19 26l92 94 q-2 16 11.5 30.5t35.5 14.5q14 0 24 -11.5t7 -29.5q-3 -17 -23 -28z" />
<glyph unicode="&#x151;" horiz-adv-x="455" d="M363 448q40 0 66 -19.5t34.5 -48t11 -61.5t-4.5 -60q-10 -55 -42.5 -105.5t-60.5 -76.5q-63 -56 -108 -75.5t-107 -19.5q-46 0 -79.5 41t-19.5 118q22 131 112.5 219t197.5 88zM331 370q-57 0 -115.5 -65t-73.5 -149q-7 -43 6 -69.5t38 -26.5q59 0 115 52q67 57 81 142 q20 116 -51 116zM540 619l-90 -92q-1 -14 -16.5 -29t-34.5 -15q-30 0 -24 40q5 20 19 26l92 94q-3 16 10 30.5t35 14.5q14 0 24.5 -11.5t6.5 -29.5q-3 -18 -22 -28zM407 619l-91 -92q0 -13 -15 -28.5t-34 -15.5q-32 0 -25 40q3 20 19 26l91 94q-2 16 11.5 30.5t35.5 14.5 q14 0 24 -11.5t6 -29.5q-3 -18 -22 -28z" />
<glyph unicode="&#x152;" horiz-adv-x="904" d="M646 528l-29 -161l215 24q4 0 13.5 6.5t14.5 6.5q21 0 28 -13t4 -30q-2 -14 -5.5 -21.5t-16 -15t-35.5 -9.5l-231 -27l-37 -207l286 35q21 3 34.5 -8.5t8.5 -37.5q-4 -22 -18 -33.5t-31 -11.5q-11 0 -23 8l-268 -33q-2 -1 -10.5 -6t-20.5 -8.5t-29 -3.5q-19 0 -30.5 11.5 t-7.5 29.5q1 12 7 24.5t10 14.5l11 55q-61 -68 -126.5 -102t-155.5 -34q-82 0 -118 75.5t-14 195.5q20 116 86 214.5t150.5 152.5t163.5 54q68 0 103 -51l2 2q4 16 18 26.5t32 10.5q27 0 38 -18.5t-1 -35.5l270 39q21 3 33 -7.5t8 -32.5q-3 -19 -17 -34t-31 -15 q-4 0 -16.5 3.5t-18.5 2.5zM248 61q74 0 147 55t115 141l43 245q-5 40 -35 66t-70 26q-88 0 -173.5 -99t-109.5 -237q-17 -93 4 -145t79 -52z" />
<glyph unicode="&#x153;" horiz-adv-x="725" d="M358 443q52 0 78.5 -35.5t20.5 -83.5q33 47 87.5 83t94.5 36q38 0 64 -14.5t36 -35.5t13.5 -39.5t0.5 -31.5q-3 -20 -22.5 -41.5t-46.5 -28.5l-235 -55q-17 -37 -21 -65q-5 -30 7.5 -50t44.5 -20q39 0 83.5 23t76.5 59q-2 16 9.5 27.5t29.5 11.5q26 0 35 -13t7 -26 q-3 -16 -24 -37q-110 -122 -241 -122q-45 0 -75 25.5t-29 63.5q-34 -43 -87.5 -67t-104.5 -24q-66 0 -93 41.5t-15 112.5q22 127 109 216.5t197 89.5zM336 365q-65 0 -122.5 -62.5t-73.5 -155.5q-15 -86 52 -86q66 0 122 65.5t68 135.5q18 103 -46 103zM489 270l188 44 q3 22 -10 37.5t-39 15.5q-30 0 -69 -28.5t-70 -68.5z" />
<glyph unicode="&#x154;" horiz-adv-x="564" d="M63 48q1 7 17 32l68 386q-2 -2 -9 -2t-11.5 10t-1.5 28q8 45 39 56l3 21q-4 14 -1 29q4 21 22 34t40 13t31.5 -16.5t-1.5 -41.5l-2 -10q125 56 237 56q57 0 87.5 -27.5t22.5 -76.5q-14 -77 -100 -134.5t-230 -83.5l258 -234q23 9 39.5 -5.5t13.5 -34.5q-5 -28 -24 -43.5 t-42 -15.5q-31 0 -38 27l-280 256l-34 -195q4 -24 3 -31q-9 -50 -73 -50q-42 0 -34 53zM244 510l-25 -140q273 60 290 155q4 18 -10.5 28.5t-42.5 10.5q-97 0 -212 -54zM530 807l-82 -77q-4 -13 -17.5 -23.5t-28.5 -10.5q-16 0 -24 10t-5 26q2 12 10.5 21.5t17.5 11.5l85 79 q-1 17 11 25.5t29 8.5t25.5 -10.5t5.5 -26.5q-5 -27 -27 -34z" />
<glyph unicode="&#x155;" horiz-adv-x="351" d="M67 59l56 319l-2 26q2 15 19.5 25.5t40.5 10.5q21 0 31.5 -9t8.5 -24q-5 -17 -10 -23l-6 -35q105 89 164 89q24 0 35.5 -29t-0.5 -93q-7 -46 -54 -46q-20 0 -30 7t-8 20q3 14 9 26q4 22 -7 22q-12 0 -49.5 -26.5t-77.5 -67.5l-32 -183q8 -11 6 -28q-5 -23 -21.5 -34 t-52.5 -11q-43 0 -37 39q3 16 17 25zM387 603l-82 -77q-3 -13 -16.5 -23.5t-28.5 -10.5q-34 0 -29 37q2 11 10.5 21t17.5 11l84 79q-1 17 11 26t29 9q18 0 26 -11t5 -27q-3 -26 -27 -34z" />
<glyph unicode="&#x156;" horiz-adv-x="564" d="M63 48q1 7 17 32l68 386q-2 -2 -9 -2t-11.5 10t-1.5 28q8 45 39 56l3 21q-4 14 -1 29q4 21 22 34t40 13t31.5 -16.5t-1.5 -41.5l-2 -10q125 56 237 56q57 0 87.5 -27.5t22.5 -76.5q-14 -77 -100 -134.5t-230 -83.5l258 -234q23 9 39.5 -5.5t13.5 -34.5q-5 -28 -24 -43.5 t-42 -15.5q-31 0 -38 27l-280 256l-34 -195q4 -24 3 -31q-9 -50 -73 -50q-42 0 -34 53zM244 510l-25 -140q273 60 290 155q4 18 -10.5 28.5t-42.5 10.5q-97 0 -212 -54zM202 -219q-25 0 -20 24q5 28 38 33q41 5 48 53q3 18 -7 25q-22 -3 -29.5 6.5t-4.5 25.5q5 30 35 30 q31 0 49.5 -24t11.5 -63q-9 -52 -46.5 -81t-74.5 -29z" />
<glyph unicode="&#x157;" horiz-adv-x="351" d="M67 59l56 319l-2 26q2 15 19.5 25.5t40.5 10.5q21 0 31.5 -9t8.5 -24q-5 -17 -10 -23l-6 -35q105 89 164 89q24 0 35.5 -29t-0.5 -93q-7 -46 -54 -46q-20 0 -30 7t-8 20q3 14 9 26q4 22 -7 22q-12 0 -49.5 -26.5t-77.5 -67.5l-32 -183q8 -11 6 -28q-5 -23 -21.5 -34 t-52.5 -11q-43 0 -37 39q3 16 17 25zM28 -233q-24 0 -19 24q5 28 38 33q18 2 31 16t17 37q3 19 -8 25q-21 -3 -29 6.5t-5 25.5q5 30 35 30q32 0 50.5 -24t11.5 -63q-10 -52 -47.5 -81t-74.5 -29z" />
<glyph unicode="&#x158;" horiz-adv-x="564" d="M63 48q1 7 17 32l68 386q-2 -2 -9 -2t-11.5 10t-1.5 28q8 45 39 56l3 21q-4 14 -1 29q4 21 22 34t40 13t31.5 -16.5t-1.5 -41.5l-2 -10q125 56 237 56q57 0 87.5 -27.5t22.5 -76.5q-14 -77 -100 -134.5t-230 -83.5l258 -234q23 9 39.5 -5.5t13.5 -34.5q-5 -28 -24 -43.5 t-42 -15.5q-31 0 -38 27l-280 256l-34 -195q4 -24 3 -31q-9 -50 -73 -50q-42 0 -34 53zM244 510l-25 -140q273 60 290 155q4 18 -10.5 28.5t-42.5 10.5q-97 0 -212 -54zM522 760l-87 -64q-18 -12 -39 -12q-19 0 -29 17l-37 62q-16 11 -12 31q2 15 13 25t28 10q19 0 27 -28 l32 -49l72 52q12 25 35 25q15 0 24 -9.5t6 -25.5q-2 -12 -12 -21.5t-21 -12.5z" />
<glyph unicode="&#x159;" horiz-adv-x="351" d="M67 59l56 319l-2 26q2 15 19.5 25.5t40.5 10.5q21 0 31.5 -9t8.5 -24q-5 -17 -10 -23l-6 -35q105 89 164 89q24 0 35.5 -29t-0.5 -93q-7 -46 -54 -46q-20 0 -30 7t-8 20q3 14 9 26q4 22 -7 22q-12 0 -49.5 -26.5t-77.5 -67.5l-32 -183q8 -11 6 -28q-5 -23 -21.5 -34 t-52.5 -11q-43 0 -37 39q3 16 17 25zM384 556l-87 -64q-17 -12 -39 -12q-20 0 -29 17l-37 62q-16 11 -13 31q7 35 42 35q20 0 26 -28l33 -49l72 52q10 25 34 25q15 0 24.5 -9.5t5.5 -25.5q-4 -22 -32 -34z" />
<glyph unicode="&#x15a;" horiz-adv-x="586" d="M444 649q60 0 103 -34t37 -67q-8 -42 -49 -42q-26 0 -37.5 10t-8.5 25q-14 28 -72 28q-72 0 -139 -50t-77 -105q-8 -49 32 -49q37 0 115 23q86 24 139 24q61 0 94 -34t21 -99q-14 -87 -78 -152q-62 -66 -153 -104t-174 -38q-34 0 -60.5 10t-41.5 25t-24.5 32.5t-12 32.5 t-0.5 26q4 25 21 42t40 17q11 0 18 -7.5t9.5 -15t5 -22.5t3.5 -19q14 -41 63 -41q55 0 122.5 29t111.5 73q46 39 57 106q6 31 -6.5 44t-42.5 13q-44 0 -128 -23q-75 -24 -132 -24q-115 0 -93 121q16 87 118.5 166t218.5 79zM541 807l-83 -77q-3 -13 -16.5 -23.5t-28.5 -10.5 q-16 0 -23.5 10t-4.5 27q1 11 9.5 20.5t17.5 11.5l85 79q-2 17 10.5 26t29.5 9t25.5 -11t5.5 -27q-3 -26 -27 -34z" />
<glyph unicode="&#x15b;" horiz-adv-x="464" d="M366 454q47 0 74.5 -15t22.5 -42q-7 -39 -43 -39q-14 0 -20 11t-47 11q-66 0 -120 -31t-59 -66q-5 -26 21 -26q10 0 23.5 3t33.5 9.5t32 9.5q9 2 28 7.5t29 7.5t24.5 4.5t26.5 2.5q43 0 67 -26.5t16 -74.5q-10 -56 -48.5 -100t-87.5 -66.5t-92 -34t-74 -11.5 q-50 0 -84.5 24.5t-28.5 59.5q4 23 18.5 38t36.5 15q17 0 23.5 -8.5t5.5 -17.5q-1 -6 -5 -14q13 -22 50 -22q57 0 122 33.5t75 86.5q6 41 -31 41q-12 0 -24.5 -3t-32.5 -9.5t-32 -9.5q-80 -22 -115 -22q-37 0 -54.5 26.5t-10.5 66.5q14 75 102.5 128t177.5 53zM443 603 l-82 -77q-3 -13 -16.5 -23.5t-28.5 -10.5q-16 0 -24 10t-5 27q2 11 10.5 20.5t16.5 11.5l85 79q-1 17 11 26t29 9q18 0 26 -11t5 -27q-5 -27 -27 -34z" />
<glyph unicode="&#x15e;" horiz-adv-x="586" d="M302 -12l-19 -27q28 1 43 -19.5t8 -58.5q-8 -47 -44 -78.5t-88 -31.5q-25 0 -39 14q-7 -5 -15 -5t-12 11t-2 24q3 15 15 27.5t21 12.5q6 0 11 -4.5t4 -9.5q13 -9 30 -9q25 0 42.5 12.5t22.5 33.5q4 28 -20 28q-5 0 -15 -5q-7 -7 -23 -7q-10 0 -15 7.5t-3 18.5q3 19 18 30 l28 36q-27 -3 -53 -3q-34 0 -60.5 10t-41.5 25t-24.5 32.5t-12 32.5t-0.5 26q4 25 21 42t40 17q11 0 18 -7.5t9.5 -15t5 -22.5t3.5 -19q14 -41 63 -41q56 0 123 29t111 73q46 39 57 106q6 31 -6.5 44t-42.5 13q-44 0 -128 -23q-75 -24 -132 -24q-115 0 -93 121 q16 87 118 166t218 79h1q60 0 103 -34t37 -67q-8 -42 -49 -42q-26 0 -37.5 10t-8.5 25q-14 28 -72 28q-72 0 -139 -50t-77 -105q-8 -49 32 -49q37 0 115 23q86 24 139 24q61 0 94 -34t21 -98q-14 -87 -78 -152q-74 -81 -188 -118q-23 -10 -34 -22z" />
<glyph unicode="&#x15f;" horiz-adv-x="464" d="M262 4l-29 -41q29 1 43.5 -19.5t8.5 -58.5q-8 -47 -45 -78.5t-88 -31.5q-24 0 -38 14q-7 -5 -15 -5t-12 11t-2 24q2 15 14 27.5t22 12.5q5 0 10 -4.5t4 -9.5q13 -9 30 -9q25 0 43 13t22 33q4 28 -19 28q-6 0 -16 -5q-5 -7 -23 -7q-10 0 -15 7.5t-2 18.5q2 19 17 30l28 36 q-18 -2 -27 -2q-50 0 -84.5 24.5t-28.5 59.5q4 23 18.5 38t36.5 15q17 0 23.5 -8.5t5.5 -17.5q-1 -6 -5 -14q13 -22 50 -22q57 0 122 33.5t75 86.5q6 41 -31 41q-12 0 -24.5 -3t-32.5 -9.5t-32 -9.5q-80 -22 -115 -22q-37 0 -54.5 26.5t-10.5 66.5q14 75 102.5 128t176.5 53 h1q47 0 74.5 -15t22.5 -42q-7 -39 -43 -39q-14 0 -20 11t-47 11q-66 0 -120 -31t-59 -66q-5 -26 21 -26q10 0 23.5 3t33.5 9.5t32 9.5q9 2 28 7.5t29 7.5t24.5 4.5t26.5 2.5q43 0 67 -26.5t16 -74.5q-14 -76 -74.5 -125t-138.5 -71z" />
<glyph unicode="&#x160;" horiz-adv-x="586" d="M444 649q60 0 103 -34t37 -67q-8 -42 -49 -42q-26 0 -37.5 10t-8.5 25q-14 28 -72 28q-72 0 -139 -50t-77 -105q-8 -49 32 -49q37 0 115 23q86 24 139 24q61 0 94 -34t21 -99q-14 -87 -78 -152q-62 -66 -153 -104t-174 -38q-34 0 -60.5 10t-41.5 25t-24.5 32.5t-12 32.5 t-0.5 26q4 25 21 42t40 17q11 0 18 -7.5t9.5 -15t5 -22.5t3.5 -19q14 -41 63 -41q55 0 122.5 29t111.5 73q46 39 57 106q6 31 -6.5 44t-42.5 13q-44 0 -128 -23q-75 -24 -132 -24q-115 0 -93 121q16 87 118.5 166t218.5 79zM535 760l-88 -63q-16 -13 -38 -13q-20 0 -29 17 l-37 63q-16 9 -12 30q2 16 13 26t28 10q20 0 26 -28l32 -49l73 52q13 25 35 25q15 0 24 -9.5t6 -26.5q-4 -22 -33 -34z" />
<glyph unicode="&#x161;" horiz-adv-x="464" d="M366 454q47 0 74.5 -15t22.5 -42q-7 -39 -43 -39q-14 0 -20 11t-47 11q-66 0 -120 -31t-59 -66q-5 -26 21 -26q10 0 23.5 3t33.5 9.5t32 9.5q9 2 28 7.5t29 7.5t24.5 4.5t26.5 2.5q43 0 67 -26.5t16 -74.5q-10 -56 -48.5 -100t-87.5 -66.5t-92 -34t-74 -11.5 q-50 0 -84.5 24.5t-28.5 59.5q4 23 18.5 38t36.5 15q17 0 23.5 -8.5t5.5 -17.5q-1 -6 -5 -14q13 -22 50 -22q57 0 122 33.5t75 86.5q6 41 -31 41q-12 0 -24.5 -3t-32.5 -9.5t-32 -9.5q-80 -22 -115 -22q-37 0 -54.5 26.5t-10.5 66.5q14 75 102.5 128t177.5 53zM439 560 l-88 -63q-18 -13 -38 -13t-29 17l-38 63q-15 11 -12 30q7 36 42 36q20 0 26 -28l32 -49l73 52q13 25 35 25q14 0 23 -9.5t6 -25.5q-4 -23 -32 -35z" />
<glyph unicode="&#x162;" horiz-adv-x="457" d="M369 549l-85 -481q6 -15 4 -25q-9 -48 -70 -48q-41 0 -34 42q3 23 12 35l81 462l-112 -23q-18 -10 -30 -10q-20 0 -29.5 12t-5.5 32q4 21 18 36t29 15t26 -7l127 26q12 13 35 17t34 -4l144 27q17 7 30 7q19 0 28 -12.5t5 -34.5q-3 -19 -17 -33.5t-32 -14.5q-13 0 -27 8z M146 -241q-25 0 -20 24q5 28 38 33q39 5 48 53q3 18 -8 25q-21 -3 -29 6.5t-5 25.5q5 30 35 30q32 0 50.5 -23.5t11.5 -63.5q-9 -51 -47 -80.5t-74 -29.5z" />
<glyph unicode="&#x163;" horiz-adv-x="435" d="M195 436l12 72q-4 10 -1 25q6 35 65 35q18 0 29 -6t8 -24q-4 -14 -13 -25l-11 -61l119 20q10 8 19 8q16 0 23 -12t4 -28q-9 -48 -40 -48q-13 0 -14 4l-125 -21l-48 -270q-5 -28 11 -28t64 30t81 65q3 17 14.5 28t27.5 11q48 0 39 -48q-4 -20 -53 -62t-114 -78t-104 -36 q-34 0 -49.5 23.5t-8.5 60.5l51 289l-62 -10q-9 -8 -20 -9q-37 2 -29 47q3 18 16.5 30.5t28.5 12.5q10 0 14 -6zM135 -242q-25 0 -20 24q5 28 38 33q18 2 31 16t17 38q3 18 -8 24q-22 -3 -29 6.5t-4 25.5q5 30 35 30q32 0 50 -23.5t11 -63.5q-9 -51 -47 -80.5t-74 -29.5z " />
<glyph unicode="&#x164;" horiz-adv-x="457" d="M369 549l-85 -481q6 -15 4 -25q-9 -48 -70 -48q-41 0 -34 42q3 23 12 35l81 462l-112 -23q-18 -10 -30 -10q-20 0 -29.5 12t-5.5 32q4 21 18 36t29 15t26 -7l127 26q12 13 35 17t34 -4l144 27q17 7 30 7q19 0 28 -12.5t5 -34.5q-3 -19 -17 -33.5t-32 -14.5q-13 0 -27 8z M470 757l-87 -63q-17 -13 -39 -13q-18 0 -29 17l-38 63q-15 11 -11 30q5 36 41 36q19 0 27 -28l32 -49l72 52q12 25 35 25q15 0 24 -9.5t6 -26.5q-4 -23 -33 -34z" />
<glyph unicode="&#x165;" horiz-adv-x="435" d="M195 436l12 72q-4 10 -1 25q7 36 65 36q18 0 28.5 -6.5t7.5 -24.5q-4 -15 -13 -24l-11 -62l119 20q10 8 19 8q16 0 23 -12t4 -28q-8 -48 -40 -48q-11 0 -14 4l-125 -21l-47 -270q-5 -28 11 -28t64 30t80 65q3 17 14.5 28t27.5 11q49 0 39 -48q-3 -20 -52.5 -62 t-114.5 -78t-103 -36q-34 0 -49.5 23.5t-8.5 60.5l51 289l-62 -10q-9 -8 -20 -9q-37 2 -29 47q3 18 16.5 30.5t28.5 12.5q10 0 14 -6zM368 520q-25 0 -20 24q5 28 37 33q40 5 49 53q3 18 -8 25q-21 -3 -29 6.5t-5 25.5q7 30 35 30q31 0 49.5 -24t11.5 -63 q-9 -51 -46.5 -80.5t-73.5 -29.5z" />
<glyph unicode="&#x16a;" horiz-adv-x="558" d="M214 -17q-80 0 -109.5 45t-20.5 100l78 447q-7 25 10 45t44 20q18 0 27 -11t8.5 -23.5t-1.5 -23.5l-82 -462q3 -21 21 -36t45 -15q80 0 138.5 42t62.5 71l70 397q-7 7 -4 23q4 21 22 34t43 13q16 0 27 -11t7 -30q-2 -14 -7 -20l-74 -421q-3 -17 -28 -51t-55 -55 q-101 -78 -222 -78zM489 724l-155 -19q-14 -4 -23 -4q-13 0 -19.5 11t-3.5 28q3 19 14.5 30t22.5 11q6 0 18 -6l148 18q21 7 24 7q13 0 19.5 -11t3.5 -28q-3 -22 -19.5 -32t-29.5 -5z" />
<glyph unicode="&#x16b;" horiz-adv-x="437" d="M209 375l-48 -270q-2 -10 5.5 -20.5t18.5 -10.5q23 0 65 26.5t75 62.5l38 216q-3 18 -2 22q4 19 14.5 27t33.5 8q28 0 39.5 -10.5t0.5 -45.5l-57 -322q7 -13 4 -26q-7 -37 -66 -37q-21 0 -30 8t-6 23q1 6 12 23l4 23q-95 -89 -175 -89q-30 1 -51 27.5t-15 60.5l53 302 q0 3 -1 11t0 13q8 42 62 42q16 0 28 -10t9 -30q-1 -12 -11 -24zM395 532l-155 -19q-14 -4 -23 -4q-13 0 -19.5 11t-3.5 28q3 19 14.5 30t22.5 11q6 0 18 -6l148 18q19 7 24 7q13 0 19.5 -11t3.5 -28q-3 -21 -20 -31.5t-29 -5.5z" />
<glyph unicode="&#x16e;" horiz-adv-x="558" d="M214 -17q-80 0 -109.5 45t-20.5 100l78 447q-7 25 10 45t44 20q18 0 27 -11t8.5 -23.5t-1.5 -23.5l-82 -462q3 -21 21 -36t45 -15q80 0 138.5 42t62.5 71l70 397q-7 7 -4 23q4 21 22 34t43 13q16 0 27 -11t7 -30q-2 -14 -7 -20l-74 -421q-3 -17 -28 -51t-55 -55 q-101 -78 -222 -78zM382 668q-27 0 -41 25.5t-7 65.5q6 34 42.5 60t61.5 26q31 0 47.5 -22.5t9.5 -65.5q-8 -41 -44 -65t-69 -24zM399 719q13 0 28.5 10.5t18.5 26.5q5 38 -16 38q-14 0 -29 -11.5t-18 -28.5q-6 -35 16 -35z" />
<glyph unicode="&#x16f;" horiz-adv-x="437" d="M209 375l-48 -270q-2 -10 5.5 -20.5t18.5 -10.5q23 0 65 26.5t75 62.5l38 216q-3 18 -2 22q4 19 14.5 27t33.5 8q28 0 39.5 -10.5t0.5 -45.5l-57 -322q7 -13 4 -26q-7 -37 -66 -37q-21 0 -30 8t-6 23q1 6 12 23l4 23q-95 -89 -175 -89q-30 1 -51 27.5t-15 60.5l53 302 q0 3 -1 11t0 13q8 42 62 42q16 0 28 -10t9 -30q-1 -12 -11 -24zM300 476q-28 0 -41.5 25.5t-6.5 64.5q5 35 41.5 61t61.5 26q30 0 47 -23t9 -65q-7 -40 -42.5 -64.5t-68.5 -24.5zM316 527q14 0 28.5 10.5t17.5 26.5q7 38 -15 38q-15 0 -29 -11t-18 -29q-6 -35 16 -35z" />
<glyph unicode="&#x170;" horiz-adv-x="558" d="M214 -17q-80 0 -109.5 45t-20.5 100l78 447q-7 25 10 45t44 20q18 0 27 -11t8.5 -23.5t-1.5 -23.5l-82 -462q3 -21 21 -36t45 -15q80 0 138.5 42t62.5 71l70 397q-7 7 -4 23q4 21 22 34t43 13q16 0 27 -11t7 -30q-2 -14 -7 -20l-74 -421q-3 -17 -28 -51t-55 -55 q-101 -78 -222 -78zM577 799l-91 -92q-1 -14 -16 -29t-35 -15q-31 0 -24 40q3 20 19 26l92 94q-3 16 10 30.5t35 14.5q15 0 25 -11.5t7 -29.5q-3 -17 -22 -28zM443 799l-91 -92q0 -13 -15 -28.5t-35 -15.5q-32 0 -25 40q3 19 20 26l91 94q-2 16 11.5 30.5t35.5 14.5 q14 0 24 -11.5t7 -29.5q-5 -18 -23 -28z" />
<glyph unicode="&#x171;" horiz-adv-x="437" d="M209 375l-48 -270q-2 -10 5.5 -20.5t18.5 -10.5q23 0 65 26.5t75 62.5l38 216q-3 18 -2 22q4 19 14.5 27t33.5 8q28 0 39.5 -10.5t0.5 -45.5l-57 -322q7 -13 4 -26q-7 -37 -66 -37q-21 0 -30 8t-6 23q1 6 12 23l4 23q-95 -89 -175 -89q-30 1 -51 27.5t-15 60.5l53 302 q0 3 -1 11t0 13q8 42 62 42q16 0 28 -10t9 -30q-1 -12 -11 -24zM496 603l-91 -91q0 -14 -15.5 -29.5t-34.5 -15.5q-14 0 -21.5 10.5t-3.5 29.5q4 21 19 26l92 95q-3 15 10.5 30t34.5 15q15 0 25.5 -12t6.5 -30q-3 -17 -22 -28zM362 603l-90 -91q-1 -14 -16 -29.5t-34 -15.5 q-14 0 -21.5 10.5t-3.5 29.5q3 21 19 26l92 95q-3 15 11 30t35 15q14 0 24 -12t7 -30q-5 -18 -23 -28z" />
<glyph unicode="&#x172;" horiz-adv-x="558" d="M283 -180q-42 0 -65 24t-14 69q6 40 34 71q-3 0 -11 -0.5t-11 -0.5q-81 0 -111.5 45t-20.5 100l78 447q-7 25 10 45t45 20q43 0 34 -58l-83 -462q4 -21 21.5 -36t44.5 -15q80 0 138.5 42t62.5 71l70 397q-7 7 -4 23q4 21 22 34t43 13q16 0 27 -11t7 -30q-2 -14 -7 -20 l-74 -421q-3 -17 -28 -51t-55 -55q-35 -28 -85 -51q-39 -18 -58 -38q-23 -26 -28 -57q-4 -16 6 -26.5t26 -10.5q33 0 47 19q-3 4 -1 10q2 18 31 18t24 -36q-4 -25 -36.5 -47t-78.5 -22z" />
<glyph unicode="&#x173;" horiz-adv-x="437" d="M327 -190q-44 0 -66 25t-14 74q10 49 49 99q-7 15 10 41l4 23q-95 -89 -175 -89q-30 1 -51 27.5t-15 60.5l53 302q0 3 -1 11t0 13q8 42 62 42q16 0 28 -10t9 -30q-1 -12 -11 -24l-48 -270q-2 -10 5.5 -20.5t18.5 -10.5q23 0 65 26.5t75 62.5l38 216q-3 18 -2 22 q4 19 14.5 27t33.5 8q28 0 39.5 -10.5t0.5 -45.5l-57 -322q7 -13 4 -26q-3 -17 -18 -25q-60 -38 -70 -96q-3 -20 7 -31.5t27 -11.5q16 0 31.5 9t21.5 21q-3 2 -1 10q4 18 31 18q13 0 20 -10t4 -26q-4 -27 -39 -53.5t-83 -26.5z" />
<glyph unicode="&#x178;" horiz-adv-x="548" d="M245 83l41 230q-17 51 -77.5 127t-80.5 119q-27 12 -20 46q3 20 24 35t41 16q19 0 29 -12.5t6 -31.5q13 -35 68 -109t69 -109h2q28 34 96.5 93.5t99.5 93.5q22 24 27 33q11 21 23 31.5t33 10.5q20 0 30.5 -12.5t6.5 -31.5q-3 -18 -35 -54l-15.5 -17t-19 -18.5 t-14.5 -13.5q-15 -15 -95 -84.5t-110 -112.5l-42 -240q7 -12 5 -27q-3 -22 -21 -36t-49 -14q-26 0 -35 10t-4 39t17 39zM317 681q-17 0 -24 19t-3 39q10 58 59 58q44 0 37 -43q-7 -38 -21.5 -55.5t-47.5 -17.5zM472 683q-41 0 -32 54q4 25 18 42.5t36 17.5q18 0 31 -13.5 t9 -38.5q-12 -62 -62 -62z" />
<glyph unicode="&#x179;" horiz-adv-x="535" d="M506 573l-260 -15q-21 -49 -60 -49q-19 0 -26 13t-4 30q7 42 29.5 71.5t49.5 29.5q21 0 26 -13l258 12q15 0 38 2.5t34 2.5q19 0 30 -9.5t9 -24.5q-8 -40 -54 -81l-445 -469l298 9q4 25 21.5 40.5t35.5 15.5q17 0 28.5 -15t5.5 -48q-7 -38 -24.5 -57t-38.5 -19 q-7 0 -57 0.5t-96 0.5q-25 0 -127 -4q-83 -5 -100 -5q-33 0 -46.5 12.5t-8.5 39.5q5 29 38 58zM516 798l-82 -77q-4 -13 -17 -23.5t-29 -10.5t-23.5 10t-4.5 26q6 29 27 33l85 79q-1 17 11.5 25.5t28.5 8.5q17 0 25.5 -10.5t5.5 -26.5q-5 -27 -27 -34z" />
<glyph unicode="&#x17a;" horiz-adv-x="423" d="M49 68l284 281h-168q-10 -52 -47 -52q-15 0 -23.5 11t-4.5 35q7 44 23.5 63t45.5 19h236q19 15 44 15q17 0 26 -10.5t6 -25.5q-6 -32 -27 -47l-285 -281h177q17 47 49 47q36 0 26 -58q-6 -38 -23 -56t-38 -18q-18 0 -27 9h-238q-14 -8 -36 -9q-40 0 -34 35q2 14 12 27 t22 15zM423 602l-83 -77q-3 -13 -16.5 -23.5t-28.5 -10.5q-16 0 -24 10.5t-5 26.5q2 11 10.5 21t17.5 12l84 78q-1 17 11.5 26t28.5 9q18 0 26 -10.5t6 -27.5q-5 -27 -27 -34z" />
<glyph unicode="&#x17b;" horiz-adv-x="535" d="M506 573l-260 -15q-21 -49 -60 -49q-19 0 -26 13t-4 30q7 42 29.5 71.5t49.5 29.5q21 0 26 -13l258 12q15 0 38 2.5t34 2.5q19 0 30 -9.5t9 -24.5q-8 -40 -54 -81l-445 -469l298 9q4 25 21.5 40.5t35.5 15.5q17 0 28.5 -15t5.5 -48q-7 -38 -24.5 -57t-38.5 -19 q-7 0 -57 0.5t-96 0.5q-25 0 -127 -4q-83 -5 -100 -5q-33 0 -46.5 12.5t-8.5 39.5q5 29 38 58zM396 681q-41 0 -32 48q7 40 26.5 65.5t45.5 25.5q42 0 34 -46q-8 -43 -29 -68t-45 -25z" />
<glyph unicode="&#x17c;" horiz-adv-x="423" d="M49 68l284 281h-168q-10 -52 -47 -52q-15 0 -23.5 11t-4.5 35q7 44 23.5 63t45.5 19h236q19 15 44 15q17 0 26 -10.5t6 -25.5q-6 -32 -27 -47l-285 -281h177q17 47 49 47q36 0 26 -58q-6 -38 -23 -56t-38 -18q-18 0 -27 9h-238q-14 -8 -36 -9q-40 0 -34 35q2 14 12 27 t22 15zM296 497q-41 0 -32 48q7 40 26 65.5t45 25.5q43 0 35 -46q-8 -43 -29 -68t-45 -25z" />
<glyph unicode="&#x17d;" horiz-adv-x="535" d="M506 573l-260 -15q-21 -49 -60 -49q-19 0 -26 13t-4 30q7 42 29.5 71.5t49.5 29.5q21 0 26 -13l258 12q15 0 38 2.5t34 2.5q19 0 30 -9.5t9 -24.5q-8 -40 -54 -81l-445 -469l298 9q4 25 21.5 40.5t35.5 15.5q17 0 28.5 -15t5.5 -48q-7 -38 -24.5 -57t-38.5 -19 q-7 0 -57 0.5t-96 0.5q-25 0 -127 -4q-83 -5 -100 -5q-33 0 -46.5 12.5t-8.5 39.5q5 29 38 58zM517 760l-87 -63q-18 -13 -39 -13q-18 0 -29 17l-37 63q-16 11 -12 30q2 16 13.5 26t28.5 10q20 0 26 -28l32 -49l72 52q13 25 35 25q15 0 24 -9.5t6 -25.5q-4 -24 -33 -35z" />
<glyph unicode="&#x17e;" horiz-adv-x="423" d="M49 68l284 281h-168q-10 -52 -47 -52q-15 0 -23.5 11t-4.5 35q7 44 23.5 63t45.5 19h236q19 15 44 15q17 0 26 -10.5t6 -25.5q-6 -32 -27 -47l-285 -281h177q17 47 49 47q36 0 26 -58q-6 -38 -23 -56t-38 -18q-18 0 -27 9h-238q-14 -8 -36 -9q-40 0 -34 35q2 14 12 27 t22 15zM415 556l-88 -63q-18 -13 -38 -13t-29 17l-38 63q-15 11 -12 30q7 36 42 36q20 0 26 -28l33 -49l72 52q13 25 35 25q15 0 24 -9.5t6 -25.5q-4 -23 -33 -35z" />
<glyph unicode="&#x192;" horiz-adv-x="607" d="M344 381l98 7q8 12 25 12q33 0 28 -41q-4 -22 -18 -39t-31 -17q-5 0 -18 8l-110 -7q-69 -201 -113 -296.5t-83.5 -130.5t-97.5 -35q-16 0 -28 2.5t-20.5 5t-14.5 9.5l-9.5 11t-6 14.5l-3.5 14.5t-2.5 17.5t-1.5 17.5q-14 8 -10 34q4 22 18.5 36t34.5 14q19 1 30 -8.5 t8 -23.5q-1 -12 -9 -21q-2 -24 5 -34.5t27 -10.5q24 0 44.5 27.5t52 105.5t88.5 245l-73 -5q-9 -7 -21 -7q-13 0 -18.5 14.5t-1.5 34.5q2 16 14.5 28t26.5 12q12 0 18 -6l82 6q32 93 65.5 155t65 90.5t56 39t51.5 10.5q50 0 70 -34t15 -60q-3 -18 -16.5 -33.5t-29.5 -15.5 q-20 0 -27.5 7.5t-3.5 22.5q5 15 -2.5 24.5t-26.5 9.5q-55 0 -127 -210z" />
<glyph unicode="&#x218;" horiz-adv-x="586" d="M444 649q60 0 103 -34t37 -67q-8 -42 -49 -42q-26 0 -37.5 10t-8.5 25q-14 28 -72 28q-72 0 -139 -50t-77 -105q-8 -49 32 -49q37 0 115 23q84 24 139 24q61 0 94 -34t21 -99q-14 -87 -78 -152q-62 -66 -153 -104t-174 -38q-34 0 -60.5 10t-41.5 25t-24.5 32.5t-12 32.5 t-0.5 26q4 25 21 42t40 17q11 0 18 -7.5t9.5 -15t5 -22.5t3.5 -19q14 -41 63 -41q55 0 122 29t112 73q46 39 57 106q6 31 -6.5 44t-42.5 13q-46 0 -128 -23q-75 -24 -132 -24q-115 0 -93 121q16 87 118.5 166t218.5 79zM209 -243q-24 0 -19 24q4 28 37 33q40 5 49 53 q2 19 -8 25q-22 -3 -29.5 6t-4.5 26q5 30 35 30q31 0 49.5 -23.5t11.5 -63.5q-9 -52 -46.5 -81t-74.5 -29z" />
<glyph unicode="&#x219;" horiz-adv-x="464" d="M366 454q47 0 74.5 -15t22.5 -42q-7 -39 -43 -39q-14 0 -20 11t-47 11q-66 0 -119.5 -31t-59.5 -66q-5 -26 21 -26q10 0 23.5 3.5t33 9.5t32.5 9q86 22 108 22q43 0 67 -26.5t16 -74.5q-10 -56 -48.5 -100t-87.5 -66.5t-92.5 -34t-74.5 -11.5q-49 0 -83.5 24.5 t-28.5 59.5q4 23 18.5 38t36.5 15q17 0 23.5 -8.5t5.5 -17.5q-1 -6 -5 -14q13 -22 50 -22q57 0 122 33.5t75 86.5q6 41 -31 41q-12 0 -25 -3t-33 -9.5t-32 -9.5q-80 -22 -114 -22q-37 0 -54.5 26.5t-10.5 66.5q14 75 102.5 128t177.5 53zM151 -241q-25 0 -20 24q5 28 38 33 q17 2 30.5 16t17.5 37q3 18 -8 25q-21 -3 -29 6.5t-5 25.5q5 30 35 30q32 0 50 -23.5t11 -63.5q-9 -51 -46.5 -80.5t-73.5 -29.5z" />
<glyph unicode="&#x21a;" horiz-adv-x="457" d="M369 549l-85 -481q6 -15 4 -25q-9 -48 -70 -48q-41 0 -34 42q3 23 12 35l81 462l-112 -23q-18 -10 -30 -10q-20 0 -29.5 12t-5.5 32q4 21 18 36t29 15t26 -7l127 26q12 13 35 17t34 -4l144 27q17 7 30 7q19 0 28 -12.5t5 -34.5q-3 -19 -17 -33.5t-32 -14.5q-13 0 -27 8z M146 -241q-25 0 -20 24q5 28 38 33q39 5 48 53q3 18 -8 25q-21 -3 -29 6.5t-5 25.5q5 30 35 30q32 0 50.5 -23.5t11.5 -63.5q-9 -51 -47 -80.5t-74 -29.5z" />
<glyph unicode="&#x21b;" horiz-adv-x="435" d="M195 436l12 72q-4 10 -1 25q6 35 65 35q18 0 29 -6t8 -24q-4 -14 -13 -25l-11 -61l119 20q10 8 19 8q16 0 23 -12t4 -28q-9 -48 -40 -48q-13 0 -14 4l-125 -21l-48 -270q-5 -28 11 -28t64 30t81 65q3 17 14.5 28t27.5 11q48 0 39 -48q-4 -20 -53 -62t-114 -78t-104 -36 q-34 0 -49.5 23.5t-8.5 60.5l51 289l-62 -10q-9 -8 -20 -9q-37 2 -29 47q3 18 16.5 30.5t28.5 12.5q10 0 14 -6zM135 -242q-25 0 -20 24q5 28 38 33q18 2 31 16t17 38q3 18 -8 24q-22 -3 -29 6.5t-4 25.5q5 30 35 30q32 0 50 -23.5t11 -63.5q-9 -51 -47 -80.5t-74 -29.5z " />
<glyph unicode="&#x2c6;" d="M316 634l44 -91q15 -15 13 -34q-3 -15 -16.5 -25.5t-31.5 -10.5q-14 0 -18.5 11t-0.5 24l-36 74l-78 -76q-1 -14 -11.5 -23.5t-22.5 -9.5q-16 0 -25 12t-7 25q3 19 28 36l97 95q19 21 35 21q19 0 30 -28z" />
<glyph unicode="&#x2c7;" d="M366 556l-88 -63q-16 -13 -38 -13q-20 0 -29 17l-37 63q-17 8 -12 30q5 36 41 36q18 0 26 -28l32 -49l72 52q13 25 35 25q15 0 24 -9.5t6 -26.5q-4 -22 -32 -34z" />
<glyph unicode="&#x2c9;" d="M337 550l-154 -19q-16 -4 -24 -4q-12 0 -18.5 11.5t-3.5 27.5q3 19 14.5 30t22.5 11q5 0 17 -6l148 18q21 7 24 7q13 0 20 -11t3 -28q-3 -22 -19.5 -32t-29.5 -5z" />
<glyph unicode="&#x2d8;" d="M233 475q-47 0 -73.5 37t-19.5 75t40 38q31 0 25 -31q-3 -19 7.5 -36t32.5 -17q51 0 75 45q-1 9 0 19q1 11 14.5 18t27.5 7t22 -9t6 -22q-3 -17 -12 -27q-55 -97 -145 -97z" />
<glyph unicode="&#x2d9;" d="M240 490q-41 0 -32 48q7 39 26.5 65t44.5 26q44 0 34 -46q-7 -43 -28 -68t-45 -25z" />
<glyph unicode="&#x2da;" d="M243 476q-27 0 -41 25.5t-7 64.5q6 35 42 61t61 26q31 0 47.5 -23t9.5 -65q-8 -40 -43.5 -64.5t-68.5 -24.5zM259 527q14 0 29 10.5t18 26.5q5 38 -16 38q-14 0 -28.5 -11t-17.5 -29q-8 -35 15 -35z" />
<glyph unicode="&#x2db;" d="M109 -203q-41 0 -64 24t-15 69q10 57 57.5 101t85.5 47q2 5 12.5 9.5t21.5 4.5t18 -8t6 -20q-7 -35 -39 -35q-36 0 -73 -41q-23 -26 -29 -57q-3 -16 7 -26t26 -10q34 0 46 19q-1 4 0 10q4 17 31 17q29 0 24 -35q-5 -25 -37 -47t-78 -22z" />
<glyph unicode="&#x2dc;" d="M300 500q-39 0 -60 36q-17 23 -29 23q-23 0 -39 -31q-15 -23 -36 -23q-34 0 -30 35q1 5 9 13.5t9 9.5q24 33 47 46.5t56 13.5q25 0 49 -30t40 -30q13 0 21.5 11t9.5 24q2 14 13.5 21.5t24.5 7.5q15 0 23.5 -8.5t6.5 -18.5q0 -4 -7 -18q-39 -82 -108 -82z" />
<glyph unicode="&#x2dd;" d="M419 595l-91 -92q0 -14 -15.5 -29.5t-34.5 -15.5q-31 0 -25 41q5 20 19 26l92 94q-3 15 11 30t35 15q14 0 24 -11.5t7 -30.5q-3 -18 -22 -27zM285 595l-90 -92q-1 -14 -16.5 -29.5t-34.5 -15.5q-13 0 -20.5 11t-3.5 30q3 20 19 26l92 94q-3 15 10.5 30t35.5 15 q14 0 24.5 -12t6.5 -30q-3 -18 -23 -27z" />
<glyph unicode="&#x3c0;" horiz-adv-x="508" d="M542 407l-97 -10q-25 -90 -30 -111q-24 -87 -30 -119q-13 -89 11 -89q11 0 30 11t30 22q11 38 47 38q23 0 31 -14.5t4 -32.5q-1 -8 -10 -20q-24 -30 -73.5 -57t-86.5 -27q-88 0 -65 160q5 46 28 122q5 21 29 108l-67 -7l-45 -146q-22 -76 -43 -122t-52 -83 q-10 -48 -58 -48q-23 0 -36 12t-10 31q7 36 37 44q47 56 78 163l42 137q-34 -5 -54 -19q-7 -4 -16 -13.5t-14 -13.5q-19 -17 -36 -17q-18 0 -29 11.5t-7 29.5q6 40 46 52q68 49 191 62l254 24q13 13 29 13q22 0 29 -14.5t4 -30.5q-3 -18 -15.5 -33t-32.5 -15q-5 0 -13 2z " />
<glyph unicode="&#x2010;" horiz-adv-x="318" d="M255 230l-110 -11q-16 -17 -36 -17q-13 0 -21.5 16t-4.5 38q5 25 19 39.5t29 14.5t22 -10l111 10q15 12 29 12q18 0 27.5 -14.5t5.5 -38.5q-4 -20 -19 -36t-29 -16q-19 0 -23 13z" />
<glyph unicode="&#x2013;" horiz-adv-x="463" d="M155 322h259q15 12 28 12q18 1 27.5 -14t5.5 -39q-3 -20 -18 -35.5t-30 -15.5q-20 0 -22 12h-257q-15 -16 -35 -16q-14 0 -22.5 15t-4.5 38q4 25 18.5 39.5t29.5 14.5q18 0 21 -11z" />
<glyph unicode="&#x2014;" horiz-adv-x="925" d="M867 242h-719q-15 -16 -35 -16q-14 0 -22.5 15t-4.5 38q4 25 18.5 39.5t29.5 14.5q18 0 21 -11h721q15 12 29 12q18 1 27.5 -14t5.5 -39q-4 -20 -19 -35.5t-29 -15.5q-19 0 -23 12z" />
<glyph unicode="&#x2018;" horiz-adv-x="165" d="M158 448q-49 0 -35 81q11 63 46.5 105.5t65.5 42.5q25 0 21 -21q-4 -25 -25 -27q-18 -2 -39 -25t-25 -55q18 18 34 18q18 0 25.5 -13.5t2.5 -39.5q-4 -25 -24 -45.5t-47 -20.5z" />
<glyph unicode="&#x2019;" horiz-adv-x="165" d="M215 677q48 0 34 -81q-11 -63 -46.5 -106t-65.5 -43q-11 0 -17 5.5t-4 15.5q4 25 26 27q18 2 39 25t25 56q-20 -18 -35 -18q-37 0 -28 53q4 25 24.5 45.5t47.5 20.5z" />
<glyph unicode="&#x201a;" horiz-adv-x="165" d="M147 28q-11 -62 -46.5 -105t-65.5 -43q-11 0 -17 5.5t-5 15.5q5 25 27 27q17 2 38 25t25 56q-16 -18 -35 -18q-36 0 -27 53q4 25 24 45.5t46 20.5q51 0 36 -82z" />
<glyph unicode="&#x201c;" horiz-adv-x="319" d="M158 448q-49 0 -35 81q11 63 46.5 105.5t65.5 42.5q12 0 17.5 -5.5t4.5 -15.5q-5 -25 -26 -27q-18 -2 -39 -25t-25 -55q18 18 35 18q37 0 28 -53q-5 -25 -25 -45.5t-47 -20.5zM311 448q-23 0 -32 21t-2 60q11 62 46.5 105t65.5 43q24 0 21 -21q-4 -25 -26 -27 q-18 -2 -39 -25t-25 -55q18 18 35 18q37 0 28 -53q-4 -25 -24.5 -45.5t-47.5 -20.5z" />
<glyph unicode="&#x201d;" horiz-adv-x="319" d="M214 677q49 0 35 -81q-11 -63 -46.5 -106t-65.5 -43q-11 0 -17 5.5t-4 15.5q4 25 26 27q18 2 39 25t24 56q-20 -18 -34 -18q-37 0 -28 53q4 25 24 45.5t47 20.5zM367 677q49 0 35 -81q-11 -63 -46.5 -106t-65.5 -43q-12 0 -18 5.5t-4 15.5q5 25 26 27q18 2 39 25t25 56 q-20 -18 -35 -18q-37 0 -28 53q5 25 25 45.5t47 20.5z" />
<glyph unicode="&#x201e;" horiz-adv-x="319" d="M147 28q-11 -62 -46.5 -105t-65.5 -43q-11 0 -17 5.5t-5 15.5q5 25 27 27q17 2 38 25t25 56q-16 -18 -35 -18q-36 0 -27 53q4 25 24 45.5t46 20.5q51 0 36 -82zM301 28q-11 -62 -47 -105t-65 -43q-11 0 -17 5.5t-5 15.5q4 25 27 27q17 2 38 25t25 56q-18 -18 -35 -18 t-24.5 13.5t-2.5 39.5q4 25 23.5 45.5t46.5 20.5q50 0 36 -82z" />
<glyph unicode="&#x2020;" horiz-adv-x="434" d="M362 576l-20 -112h71q26 15 36 14q19 0 27.5 -15.5t5.5 -36.5q-5 -26 -22.5 -39.5t-37.5 -13.5q-6 0 -20 12h-74l-56 -320q11 -16 8 -34q-8 -45 -60 -45q-28 0 -41 13t-9 36q4 18 17 38l55 312h-71q-3 -2 -10.5 -6l-13.5 -7t-12 -3q-18 0 -26.5 16t-5.5 35q4 25 19 40 t31 15q8 0 28 -11h75l19 108q-8 17 -4 42q3 18 20.5 29t40.5 11t34 -14.5t8 -32.5q-3 -17 -12 -31z" />
<glyph unicode="&#x2021;" horiz-adv-x="434" d="M362 575l-17 -95h78q30 14 35 14q34 0 25 -49q-4 -24 -19.5 -38.5t-32.5 -14.5q-11 0 -22 9h-78l-27 -157h77q24 13 37 13q30 0 23 -51q-5 -24 -19.5 -37t-30.5 -13q-9 0 -22 9h-79l-18 -102q13 -10 8 -33q-7 -44 -61 -44q-26 0 -38 12.5t-9 33.5q4 24 14 37l17 96h-73 q-20 -15 -32 -15q-19 0 -27 14.5t-5 30.5q4 27 18 43t33 16q11 0 25 -10h75l28 157h-74q-23 -14 -34 -14q-18 0 -25 15.5t-4 32.5q4 25 17.5 40t29.5 15q14 0 28 -10h76l16 93q-9 19 -6 39q9 42 65 42q22 0 33 -14.5t8 -33.5q-3 -16 -13 -31z" />
<glyph unicode="&#x2022;" horiz-adv-x="308" d="M158 181q-40 0 -57.5 37.5t-11.5 75.5q28 157 163 157q42 0 62 -24.5t6 -102.5q-7 -41 -28 -71t-47.5 -44.5t-48 -21t-38.5 -6.5z" />
<glyph unicode="&#x2026;" horiz-adv-x="925" d="M147 -8q-17 0 -28 16t-6 44q4 25 24 46t45 21q44 0 34 -60q-5 -28 -22.5 -47.5t-46.5 -19.5zM455 -8q-17 0 -28 16t-6 44q4 25 24 46t45 21q44 0 34 -60q-5 -28 -22.5 -47.5t-46.5 -19.5zM763 -8q-17 0 -28 16t-6 44q4 25 24 46t45 21q44 0 34 -60q-5 -28 -22.5 -47.5 t-46.5 -19.5z" />
<glyph unicode="&#x2030;" horiz-adv-x="857" d="M570 610q-6 -24 -30 -32l-355 -537q-5 -25 -21 -37.5t-36 -12.5q-44 0 -36 40q1 6 5.5 12t11.5 13l10 10l361 546q4 20 17.5 32.5t26.5 12.5q19 0 34.5 -13t11.5 -34zM193 400q-40 0 -63.5 27t-14.5 78q10 59 65 105t107 46q45 0 67.5 -26t13.5 -75q-10 -59 -66 -107 t-109 -48zM216 468q20 0 43 25.5t29 55.5q2 16 -3 27.5t-16 11.5q-24 0 -46.5 -24t-27.5 -54q-7 -42 21 -42zM497 261q36 0 57 -31t11 -89q-12 -69 -68 -114t-121 -45q-37 0 -59.5 30t-13.5 84q14 78 72 121.5t122 43.5zM788 261q36 0 57.5 -31t11.5 -89q-12 -69 -68.5 -114 t-122.5 -45q-37 0 -59.5 30t-12.5 84q14 78 71.5 121.5t122.5 43.5zM467 193q-27 0 -51.5 -25.5t-31.5 -68.5q-10 -49 19 -49q25 0 50.5 25.5t31.5 65.5q9 52 -18 52zM758 193q-27 0 -51.5 -25t-32.5 -69q-8 -49 19 -49q26 0 51 25t32 65q9 53 -18 53z" />
<glyph unicode="&#x2039;" horiz-adv-x="265" d="M143 101l-67 135q-16 18 -11 45q4 28 29 43l155 141q16 28 50 28q16 0 27.5 -13t7.5 -32q-2 -16 -15 -28t-27 -14l-134 -127l57 -122q10 0 17 -11.5t4 -28.5q-4 -19 -20 -33t-33 -14q-37 0 -40 31z" />
<glyph unicode="&#x203a;" horiz-adv-x="265" d="M208 282l-69 123q-31 6 -26 41q3 19 18 33t31 14q34 0 43 -31l84 -138q18 -13 12 -43q-6 -29 -28 -44l-136 -136q-3 -13 -17 -22t-32 -9t-30.5 13t-9.5 32q3 15 14.5 27t22.5 14z" />
<glyph unicode="&#x2044;" horiz-adv-x="260" d="M-67 24q3 14 9 22.5t15 15t12 9.5l379 540q15 46 44 46q20 0 36 -13.5t13 -32.5q-3 -14 -14 -25t-21 -14l-376 -539q-5 -22 -22.5 -33.5t-36.5 -11.5q-25 0 -33 10t-5 26z" />
<glyph unicode="&#x2070;" horiz-adv-x="398" d="M239 369q-60 0 -91.5 36t-19.5 103q22 123 101 189t159 66q60 0 96.5 -39.5t25.5 -102.5q-12 -69 -46 -121.5t-76 -79t-79.5 -39t-69.5 -12.5zM260 436q47 0 98 46t67 135q7 38 -8.5 58.5t-46.5 20.5q-49 0 -95 -47.5t-62 -135.5q-6 -38 7.5 -57.5t39.5 -19.5z" />
<glyph unicode="&#x2074;" horiz-adv-x="383" d="M426 704l-26 -144l47 6q13 11 24 11q29 0 23 -39q-7 -38 -34 -38q-16 0 -23 7l-47 -6l-11 -59q14 -8 11 -25q-9 -42 -72 -42q-19 0 -27 11t-6 23q3 18 13 25l10 56l-147 -19q-21 -6 -27 -6q-34 0 -25 44q2 17 30 36l209 198q10 26 56 26q17 0 27.5 -9.5t7.5 -24.5 q-3 -17 -13 -31zM319 550l20 117l-140 -134z" />
<glyph unicode="&#x2075;" horiz-adv-x="373" d="M410 697l-159 -11q-11 -37 -17 -64q54 29 119 29q56 0 88 -24.5t22 -83.5q-14 -78 -87.5 -126t-148.5 -48q-58 0 -88 20.5t-24 53.5q2 13 17 24.5t29 11.5q21 0 31 -20q6 -9 20.5 -16.5t30.5 -7.5q49 0 88.5 27.5t46.5 70.5q9 52 -48 52q-44 0 -96 -24q-22 -11 -31 -16 q-14 -9 -25 -9q-36 0 -31 31q2 8 8 23l9 23q13 48 32 110q7 24 34 26l189 13q14 12 28 12q16 0 23.5 -12.5t4.5 -31.5q-3 -21 -15 -32t-24 -11q-16 0 -26 10z" />
<glyph unicode="&#x2076;" horiz-adv-x="393" d="M253 369q-68 0 -105 51q-14 2 -21 16t1 32q-9 29 -3 64q16 90 92 164t170 74q53 0 79.5 -17.5t22.5 -42.5q-3 -16 -15.5 -26t-29.5 -10q-15 0 -34 19q-11 11 -41 11q-53 0 -99 -45t-61 -98q-2 -11 -1 -16q37 37 85 63t89 26q57 0 81 -28.5t16 -66.5q-9 -54 -48.5 -94 t-86.5 -58t-91 -18zM269 435q39 0 79 26.5t48 68.5q3 15 -5 26.5t-26 11.5q-31 0 -72.5 -25t-77.5 -65q3 -17 19.5 -30t34.5 -13z" />
<glyph unicode="&#x2077;" horiz-adv-x="308" d="M359 691l-129 -13l-5 -18q7 -7 6 -17q-2 -13 -17 -22t-36 -9q-36 0 -27 37q2 9 8 29.5l9 31.5q5 18 13 25t28 8l181 18q9 1 26.5 8t25.5 7q15 0 24.5 -8.5t7.5 -22.5q-1 -6 -27 -42l-163 -242q-6 -9 -17.5 -30.5t-16.5 -29.5q-21 -34 -50 -34q-17 0 -25 11t-6 27 q1 9 7 19t17 23t12 15z" />
<glyph unicode="&#x2078;" horiz-adv-x="400" d="M213 372q-49 0 -76.5 26t-19.5 69q6 37 34.5 70.5t62.5 53.5q-29 16 -23 56q10 56 62.5 89.5t113.5 33.5q46 0 74 -21.5t23 -52.5q-7 -35 -36 -61q30 -4 51 -26t15 -56q-12 -70 -98 -125.5t-183 -55.5zM350 706q-28 0 -51 -15.5t-27 -38.5q-5 -23 12 -30q29 13 67 15 q27 16 32 44q1 11 -8 18t-25 7zM237 438q50 0 107.5 32.5t64.5 73.5q2 12 -8 21t-38 9q-49 0 -102 -30.5t-61 -74.5q-2 -13 8.5 -22t28.5 -9z" />
<glyph unicode="&#x2079;" horiz-adv-x="382" d="M365 766q33 0 60 -16t43 -42q10 -4 15.5 -15.5t3.5 -24.5q-2 -8 -5 -15q4 -29 -1 -58q-18 -99 -91 -163.5t-162 -64.5q-47 0 -81.5 20.5t-28.5 52.5q2 15 13.5 24.5t25.5 9.5q22 0 35 -19q4 -8 19 -15t32 -7q52 0 95 38.5t57 87.5q0 2 1 5.5t1.5 6.5t0.5 6 q-26 -28 -64 -44.5t-77 -16.5q-55 0 -82 30.5t-20 72.5q11 63 71.5 105t138.5 42zM346 700q-43 0 -73 -20.5t-36 -54.5q-3 -18 7 -30.5t31 -12.5q37 0 72.5 19.5t54.5 47.5q-2 20 -17.5 35.5t-38.5 15.5z" />
<glyph unicode="&#x207d;" horiz-adv-x="217" d="M294 821q20 0 34.5 -16t9.5 -46q-3 -17 -16.5 -26t-26.5 -7q-57 -44 -81 -177q-24 -138 19 -181q12 6 21 -5.5t5 -31.5q-4 -26 -20 -38.5t-29 -12.5q-26 0 -40 21q-32 45 -39.5 119t5.5 132q13 71 47 134.5t74 102.5q11 32 37 32z" />
<glyph unicode="&#x207e;" horiz-adv-x="217" d="M232 821q9 0 16.5 -8.5t8.5 -23.5q60 -86 34 -237q-11 -68 -41.5 -136.5t-79.5 -113.5q-19 -22 -48 -22q-12 0 -23 12.5t-6 38.5q4 20 16 31.5t23 5.5q56 41 81 181q23 138 -18 177q-13 -2 -23 7t-7 26q4 25 18.5 40t26 18.5t22.5 3.5z" />
<glyph unicode="&#x2080;" horiz-adv-x="398" d="M134 -130q-59 0 -90.5 36t-19.5 103q11 64 40 114.5t67 80t77 44.5t76 15q60 0 96 -39.5t25 -102.5q-12 -69 -45.5 -121t-75.5 -78.5t-80 -39t-70 -12.5zM154 -63q48 0 99 45.5t67 134.5q7 37 -8 58t-46 21q-50 0 -96 -47t-61 -135q-7 -38 6 -57.5t39 -19.5z" />
<glyph unicode="&#x2081;" horiz-adv-x="224" d="M204 209l-46 -259q0 -28 -1 -33q-3 -18 -22.5 -29.5t-51.5 -11.5q-15 0 -24.5 6.5t-7.5 18.5q1 7 5 14.5t7.5 12.5t9.5 12.5t8 9.5l34 196q-2 0 -22 -16.5t-30 -16.5q-12 0 -19.5 8.5t-5.5 22.5q5 23 59 60q16 12 35.5 29t30.5 24t21 7q14 0 24.5 -8t8.5 -21z" />
<glyph unicode="&#x2082;" horiz-adv-x="351" d="M91 -57l120 5q16 0 17 4q3 15 15.5 26t27.5 11q41 0 33 -47q-11 -55 -51 -56l-206 -10q-31 -2 -42.5 7t-7.5 32q10 59 51.5 97t106.5 67q88 37 95 88q3 14 -5 22t-30 8q-49 0 -67 -39q-7 -15 -10.5 -20.5t-16 -12t-31.5 -6.5q-17 0 -26 10t-7 22q7 38 53 75t131 37 q51 0 77.5 -22t18.5 -66q-9 -52 -44 -84t-93 -59q-50 -23 -75.5 -43t-33.5 -46z" />
<glyph unicode="&#x2083;" horiz-adv-x="382" d="M268 193l-118 -15q-9 -46 -45 -46q-33 0 -24 58q9 50 43 50q26 0 111 11.5t98 11.5q36 0 30 -35q-4 -23 -74 -95q36 2 56 -23.5t11 -72.5q-14 -78 -80.5 -125t-150.5 -47q-33 0 -58.5 11t-38 26.5t-18 29t-4.5 22.5q3 15 19 28t35 13q22 0 28 -27q9 -37 56 -37 q48 0 84 28t43 68q9 46 -28 46q-29 0 -47 -19.5t-33 -19.5q-13 0 -21 7.5t-6 20.5q7 31 42 42q28 10 90 89z" />
<glyph unicode="&#x2084;" horiz-adv-x="383" d="M322 205l-26 -146l47 7q19 11 24 11q30 0 23 -39q-7 -38 -34 -38q-17 0 -22 8l-48 -7l-11 -59q15 -6 11 -24q-7 -42 -71 -42q-19 0 -27.5 11t-5.5 23q3 19 12 25l10 56l-147 -19q-21 -6 -27 -6q-32 0 -25 44q4 18 30 36l210 198q10 26 55 26q17 0 27.5 -9.5t7.5 -24.5 q-3 -20 -13 -31zM215 49l21 117l-141 -133z" />
<glyph unicode="&#x2085;" horiz-adv-x="373" d="M305 197l-159 -11q-3 -13 -17 -64q54 29 119 29q56 0 88 -24.5t22 -82.5q-9 -52 -49.5 -93.5t-90 -61t-96.5 -19.5q-58 0 -88 20.5t-24 53.5q3 14 17.5 25t28.5 11q20 0 32 -20q5 -9 19 -16.5t30 -7.5q50 0 89.5 27.5t46.5 69.5q9 52 -48 52q-48 0 -96 -24q-9 -4 -31 -16 q-18 -9 -25 -9q-36 0 -30 32q1 7 7.5 22t8.5 23l17 57t15 53q7 24 35 26l188 13q16 12 28 12q16 0 23.5 -12.5t4.5 -31.5q-3 -21 -15 -32t-24 -11q-16 0 -26 10z" />
<glyph unicode="&#x2086;" horiz-adv-x="393" d="M148 -130q-68 0 -105 51q-14 2 -20.5 16t0.5 32q-8 33 -3 64q16 90 92.5 163.5t169.5 73.5q53 0 80 -17.5t22 -42.5q-2 -15 -15 -25t-29 -10q-19 0 -35 18q-13 11 -41 11q-52 0 -99 -44.5t-61 -97.5q-1 -6 -1 -16q38 37 86 63t88 26q57 0 81 -28.5t17 -66.5 q-14 -79 -85 -124.5t-142 -45.5zM165 -64q39 0 79 26.5t47 68.5q3 15 -5 26.5t-26 11.5q-31 0 -72.5 -25t-76.5 -65q3 -17 19.5 -30t34.5 -13z" />
<glyph unicode="&#x2087;" horiz-adv-x="308" d="M254 192l-129 -13l-5 -18q9 -7 6 -17q-2 -13 -17 -22t-36 -9q-36 0 -27 37q2 9 8 29.5l9 31.5q5 18 13 25t28 8l182 18q8 1 26 8t26 7q14 0 23.5 -8.5t7.5 -22.5q-1 -6 -5 -13t-11 -16l-10 -13l-163 -242q-3 -4 -34 -60q-21 -34 -51 -34q-17 0 -25 11t-6 27q2 9 7.5 18.5 t16.5 23.5t12 15z" />
<glyph unicode="&#x2088;" horiz-adv-x="400" d="M109 -127q-50 0 -77.5 26t-19.5 69q7 37 35.5 71t61.5 53q-30 15 -22 55q10 56 62 89.5t114 33.5q47 0 75 -21.5t22 -52.5q-7 -35 -36 -61q30 -4 51.5 -25.5t15.5 -56.5q-13 -69 -98.5 -124.5t-183.5 -55.5zM246 206q-29 0 -51.5 -15.5t-26.5 -38.5q-5 -23 12 -30 q29 13 66 15q27 15 32 44q2 11 -7.5 18t-24.5 7zM132 -61q51 0 108.5 32t64.5 73q3 11 -7.5 20.5t-38.5 9.5q-49 0 -102.5 -30.5t-60.5 -73.5q-3 -13 7.5 -22t28.5 -9z" />
<glyph unicode="&#x2089;" horiz-adv-x="382" d="M261 266q33 0 60 -16t43 -42q10 -4 16 -15.5t4 -24.5q-1 -3 -3 -8t-2 -7q2 -33 -2 -58q-17 -98 -90.5 -162.5t-163.5 -64.5q-47 0 -81 20.5t-28 52.5q2 15 13 24.5t26 9.5q24 0 34 -20q4 -7 19.5 -14t31.5 -7q53 0 96 38t58 87l3 18q-58 -61 -143 -61q-55 0 -81.5 30.5 t-19.5 72.5q10 63 70.5 105t139.5 42zM242 200q-43 0 -73.5 -20.5t-36.5 -54.5q-3 -19 7.5 -31t31.5 -12q37 0 72.5 19.5t55.5 47.5q-2 20 -17.5 35.5t-39.5 15.5z" />
<glyph unicode="&#x208d;" horiz-adv-x="217" d="M189 322q20 0 34.5 -16t9.5 -46q-3 -17 -16 -26t-26 -7q-58 -43 -82 -177q-24 -138 19 -181q12 6 21 -5.5t6 -31.5q-5 -26 -21 -38.5t-29 -12.5q-27 0 -39 21q-63 87 -35 251q13 72 46.5 135.5t74.5 101.5q4 13 15 22.5t22 9.5z" />
<glyph unicode="&#x208e;" horiz-adv-x="217" d="M127 322q10 0 17 -8.5t8 -23.5q61 -87 35 -237q-12 -68 -42.5 -136.5t-78.5 -113.5q-21 -22 -48 -22q-13 0 -24 12.5t-6 38.5q3 20 15.5 31.5t23.5 5.5q56 41 81 181q24 136 -17 177q-14 -2 -24 7t-7 26q4 25 18.5 40t26 18.5t22.5 3.5z" />
<glyph unicode="&#x20ac;" horiz-adv-x="607" d="M435 223l-210 -10q1 -71 36 -110t91 -39q103 0 152 59q31 33 52 33q16 0 28 -15.5t10 -30.5q-7 -33 -57 -70q-85 -57 -200 -57q-104 0 -157.5 62t-49.5 164l-20 -1q-14 -9 -27 -9q-14 0 -21.5 12t-4.5 31q8 40 39 40q8 0 19 -3l22 1q7 32 15 58l-18 -1q-12 -8 -30 -8 q-14 0 -20.5 12.5t-3.5 31.5q3 18 14.5 29t25.5 11q2 0 20 -5l43 2q53 105 140 174t180 69q79 0 124 -34q48 -33 40 -84q-4 -20 -21.5 -34.5t-36.5 -14.5q-14 0 -23.5 12.5t-7.5 30.5q-9 18 -32.5 30.5t-54.5 12.5q-53 0 -109.5 -44t-97.5 -113l224 10q22 12 33 12 q15 0 22 -12t5 -28q-4 -19 -15.5 -33t-27.5 -14q-9 0 -21 5l-259 -13q-10 -26 -16 -58l212 10q15 10 30 10q34 0 26 -38q-3 -22 -15 -34.5t-25 -12.5q-10 0 -22 4z" />
<glyph unicode="&#x2113;" horiz-adv-x="607" d="M278 -15q-105 0 -86 134l4 21q-8 -4 -22 -14q-34 -30 -59 -30q-17 0 -26.5 14t-6.5 35q4 19 19.5 32.5t28.5 17.5t33 8l50 30q67 329 166 419q38 35 86 35q58 0 91 -44t20 -118q-13 -72 -87 -156.5t-195 -166.5q-14 -71 -15 -80q-10 -58 18 -58q15 0 35.5 14.5t32.5 32.5 q1 2 1 6t1 6q9 41 51 41q20 0 30 -14t6 -33q-2 -13 -13 -26q-30 -42 -74.5 -74t-88.5 -32zM451 607q-11 0 -24 -11q-54 -49 -110 -291q153 123 170 220q7 35 -4.5 58.5t-31.5 23.5z" />
<glyph unicode="&#x2122;" horiz-adv-x="759" d="M820 638q0 -2 -2.5 -8.5t-2.5 -7.5l-46 -254q7 -9 5 -19q-7 -39 -61 -39q-31 0 -25 29q1 4 10 19l30 165h-2l-34 -50l-43 -64t-29 -50q-16 -32 -43 -32q-19 0 -22 22q-3 30 -20.5 93t-18.5 69h-2q-4 -27 -13 -76t-11 -62q2 -4 0 -23q-8 -40 -51 -40q-36 0 -30 39q1 4 3 8 t4.5 8t3.5 5l46 266q0 15 13.5 27t32.5 12q16 0 24.5 -10t8.5 -22q6 -39 29 -113.5t26 -101.5q13 26 68.5 102.5t76.5 116.5q13 28 42 28q16 0 26.5 -10t6.5 -27zM308 599l-39 -223v-32q-3 -20 -12.5 -27t-29.5 -7t-32.5 10t-10.5 25q2 12 11 23l38 223l-73 -9 q-18 -9 -23 -9q-12 0 -18 8.5t-4 20.5q7 46 54 46l203 22q25 5 29 5q17 0 24 -9t5 -23q-6 -41 -49 -36z" />
<glyph unicode="&#x2126;" horiz-adv-x="710" d="M582 0h-139q-6 0 -18 -2.5t-17 -2.5q-20 1 -31.5 11.5t-8.5 32.5q4 20 30 46q68 63 122 130q87 103 109 224q10 62 -20 108.5t-94 46.5q-91 0 -164 -77t-92 -185q-22 -127 55 -247q15 -25 12 -42q-2 -22 -17 -36.5t-38 -14.5q-9 0 -20 3l-146 -4q-6 0 -17.5 -4t-16.5 -4 q-21 0 -32.5 13t-6.5 36q3 20 19.5 37.5t35.5 17.5q22 0 38 -13l93 2q-68 121 -44 262q25 139 128 238t236 99q82 0 139 -63t37 -176q-17 -99 -70.5 -179t-148.5 -175h90q15 28 47 28q17 0 29 -12.5t7 -41.5q-5 -26 -23 -44.5t-41 -18.5q-12 0 -22 7z" />
<glyph unicode="&#x212e;" horiz-adv-x="826" d="M837 309h-599q-5 0 -5 -4v-181q0 -11 8 -21q96 -99 227 -99q70 0 132 29.5t106 81.5h53q-50 -60 -127 -94.5t-165 -34.5q-153 0 -261.5 97t-108.5 235q0 139 108.5 236.5t261.5 97.5t261.5 -97.5t108.5 -236.5v-9zM701 333v182q0 13 -9 22q-95 95 -224 95 q-130 0 -226 -98q-9 -9 -9 -23v-178q0 -6 5 -6h459q4 0 4 6z" />
<glyph unicode="&#x2202;" horiz-adv-x="457" d="M189 64q27 0 57.5 14t62 43t58 82.5t39.5 124.5q-26 18 -76 18q-68 0 -126.5 -51t-73.5 -136q-8 -44 8 -69.5t51 -25.5zM165 -18q-43 0 -72.5 17t-40 42.5t-14.5 55.5t3 56q21 118 106 196.5t206 78.5q33 0 57 -12q1 69 -25 115.5t-69 46.5q-31 0 -55 -9q-18 -22 -45 -22 q-23 0 -31.5 17t-5.5 34q4 21 20.5 34.5t34.5 13.5q3 0 6 -1t5 -1q42 14 84 14q40 0 71.5 -16.5t50 -44.5t30.5 -61.5t15.5 -70.5t3 -69.5t-5.5 -59.5q-31 -174 -126.5 -264t-202.5 -90z" />
<glyph unicode="&#x2206;" horiz-adv-x="566" d="M510 -4l-466 -11q-19 -1 -30 11t-9 33q2 17 54 97q67 102 142 228q101 174 134 263q8 20 14.5 31.5t19 21.5t29.5 10q39 0 45 -75q1 -4 1 -6q5 -61 62 -278q45 -178 50 -243q15 -13 11 -36q-3 -22 -20 -33.5t-37 -12.5zM115 70l353 9q-8 68 -45 213q-41 151 -52 224 q-41 -89 -121 -228q-72 -123 -135 -218z" />
<glyph unicode="&#x220f;" horiz-adv-x="761" d="M332 544l-124 -706q2 -13 1 -20q-10 -54 -56 -54q-25 0 -36 13.5t-6 37.5q0 4 11 28l122 689l-63 -9q-14 -10 -33 -10t-28 14.5t-6 35.5q4 23 21 40t40 17q14 0 27 -9l71 10q18 15 38 15q11 0 20 -7l456 61q17 11 36 11t29 -11.5t10 -24v-19.5q-3 -19 -17 -34.5 t-35 -15.5q-13 0 -25 9l-66 -9l-130 -732q10 -17 8 -31q-3 -21 -19 -36.5t-40 -15.5q-50 0 -38 66l130 737z" />
<glyph unicode="&#x2211;" horiz-adv-x="660" d="M580 647l-298 -4l159 -267q15 -6 21.5 -20.5t3.5 -27.5t-11 -24t-23.5 -24t-19.5 -18l-276 -308l391 8q21 46 58 46q20 0 28.5 -14t5.5 -33q-7 -41 -25 -66t-45 -25q-6 0 -31 5l-426 -8q-12 0 -28 -2.5t-22 -2.5q-49 0 -41 48q2 10 7 18t17 20.5l13 13.5l325 363 l-182 304q-23 39 -20 56q6 40 61 42l370 6q14 16 34 16q40 0 38 -44q0 -7 0.5 -31.5t-1.5 -28.5q-4 -21 -17.5 -34t-28.5 -13q-27 0 -33 23q-2 20 -4 26z" />
<glyph unicode="&#x2212;" horiz-adv-x="512" d="M157 268h282q3 1 9 3.5t11 4t9 1.5q37 0 28 -52q-9 -51 -47 -51q-16 0 -25 6h-282q-23 -7 -31 -7q-36 0 -27 43q10 57 48 57q15 0 25 -5z" />
<glyph unicode="&#x2215;" horiz-adv-x="260" d="M-67 24q3 14 9 22.5t15 15t12 9.5l379 540q15 46 44 46q20 0 36 -13.5t13 -32.5q-3 -14 -14 -25t-21 -14l-376 -539q-5 -22 -22.5 -33.5t-36.5 -11.5q-25 0 -33 10t-5 26z" />
<glyph unicode="&#x2219;" horiz-adv-x="207" d="M111 151q-17 0 -28 15.5t-6 44.5q4 25 24 46t45 21q44 0 34 -60q-5 -28 -22.5 -47.5t-46.5 -19.5z" />
<glyph unicode="&#x221a;" horiz-adv-x="508" d="M175 314l-70 -25q-21 -7 -26 -7q-23 0 -32.5 13.5t-4.5 35.5q4 21 20 33t33 12q10 0 16 -3l69 25q3 9 15 17.5t25 8.5q12 0 20 -9q32 -5 26 -43q-1 -4 -9 -18q8 -43 47 -154q30 -74 38 -126q28 101 113 342q63 172 97 293q-6 17 -3 35q9 50 65 50q19 0 31.5 -12.5 t8.5 -32.5q-2 -8 -12 -26.5t-11 -21.5q-32 -111 -105 -322q-117 -335 -141 -434q-2 -8 -2.5 -21t-1.5 -18q-3 -17 -18.5 -29.5t-34.5 -12.5q-36 0 -40 41q-2 20 -4 30q-11 85 -46 182q-45 117 -63 197z" />
<glyph unicode="&#x221e;" horiz-adv-x="660" d="M517 101q-88 0 -150 80q-3 3 -8 9t-7 10q-32 -32 -54 -49q-56 -48 -122 -48q-63 0 -90 44t-15 109q10 58 51 100t108 42q80 0 142 -73q42 35 55 44q82 58 162 58q59 0 85.5 -45t13.5 -118q-12 -65 -60.5 -114t-110.5 -49zM530 188q25 0 48.5 22t28.5 53q6 34 -5 55.5 t-36 21.5q-34 0 -61.5 -12.5t-61.5 -41.5q-14 -12 -25 -23q3 -3 6.5 -8.5t5.5 -7.5q27 -33 49 -46t51 -13zM192 190q37 0 88 45q16 16 26 25q-40 51 -92 51q-25 0 -41.5 -16t-21.5 -43q-5 -30 6.5 -46t34.5 -16z" />
<glyph unicode="&#x222b;" horiz-adv-x="253" d="M255 439l-37 -210q-46 -256 -87 -352q-53 -141 -144 -141q-55 0 -72 51q-17 15 -13 39q4 21 21 36t38 15q18 0 28.5 -10.5t6.5 -29.5q0 -1 -1 -5t-1 -5q2 -10 11 -10q27 0 58 100q32 91 72 316l35 205q31 166 65 236q41 92 122 92q35 0 54 -21t15 -47q-4 -24 -18.5 -38.5 t-33.5 -14.5q-25 0 -30 19q-2 8 -2 13q-5 5 -11 5q-16 0 -32 -47q-18 -50 -44 -196z" />
<glyph unicode="&#x2248;" horiz-adv-x="512" d="M400 262q-28 0 -97 20q-56 18 -86 18q-24 0 -45 -12q-19 -26 -48 -26q-22 0 -31 15.5t-6 33.5q5 26 22.5 42.5t38.5 16.5q7 0 15 -2q33 18 70 18q28 0 85 -17q59 -19 90 -19q27 0 54 14q17 24 45 24q21 0 30.5 -16t5.5 -37q-4 -19 -20 -36t-34 -17q-5 0 -11 2 q-42 -22 -78 -22zM366 63q-33 0 -98 21q-56 18 -86 18q-24 0 -46 -13q-18 -26 -47 -26q-22 0 -31 15.5t-6 34.5q5 27 22.5 43t38.5 16q8 0 14 -2q35 18 71 18q28 0 85 -17q58 -20 90 -20q27 0 54 13q17 25 46 25q20 0 29 -16t6 -37q-4 -19 -19.5 -36t-33.5 -17q-9 0 -13 1 q-42 -21 -76 -21z" />
<glyph unicode="&#x2260;" horiz-adv-x="512" d="M121 70l22 27h-25q-14 -7 -23 -7q-37 0 -28 43q10 57 49 57q13 0 25 -5h65l77 99h-125q-21 -7 -31 -7q-34 0 -27 43q10 57 49 57q14 0 24 -5h172l58 75q12 49 44 49q21 0 37 -15.5t12 -35.5q-3 -23 -33 -42l-26 -31h28q16 9 24 9q36 0 27 -52q-8 -51 -46 -51q-16 0 -25 6 h-71l-76 -99h129q3 1 9 3.5t11 4t9 1.5q36 0 28 -52q-10 -51 -46 -51q-17 0 -26 6h-177l-54 -70q-13 -49 -43 -49q-20 0 -37 16t-13 35q4 21 33 41z" />
<glyph unicode="&#x2264;" horiz-adv-x="512" d="M236 332l182 -118q21 1 31 -5t7 -23q-3 -21 -25 -46.5t-40 -25.5q-25 0 -30 26l-198 137q-26 17 -32 32t-2 38q3 23 35 37l259 117q2 13 17 25t29 12q23 0 36.5 -20.5t11.5 -33.5q-9 -46 -52 -49zM132 80h264q15 12 28 12q18 0 27 -14.5t5 -39.5q-4 -20 -19 -35.5 t-29 -15.5q-16 0 -22 13h-261q-16 -16 -36 -16q-14 0 -22 15.5t-4 37.5q4 25 18 39.5t29 14.5q17 0 22 -11z" />
<glyph unicode="&#x2265;" horiz-adv-x="512" d="M381 333l-193 102q-23 1 -31 13t-4 36q2 13 23 33.5t44 20.5q15 0 25.5 -11.5t7.5 -25.5l218 -117q26 -11 23 -36q-5 -24 -16.5 -39t-43.5 -31l-247 -138q-12 -26 -38 -26q-18 0 -31 25.5t-9 46.5q5 30 48 28zM126 80h263q15 12 29 12q18 0 27 -14.5t5 -39.5 q-4 -20 -19 -35.5t-29 -15.5q-18 0 -22 13h-262q-16 -16 -36 -16q-13 0 -21.5 15.5t-4.5 37.5q5 25 19 39.5t28 14.5q17 0 23 -11z" />
<glyph unicode="&#x25ca;" horiz-adv-x="457" d="M218 -18q-38 0 -41 46q-3 42 -34 127q-35 95 -58 149q-1 3 -6 13.5t-6.5 15t-3 12.5t-0.5 15q1 8 6 17.5t9 15t13 16t11 13.5l123 161q59 80 73 116q21 53 58 53q20 0 33 -14t5 -40q2 -19 13 -54.5t21.5 -62l31.5 -79t27 -66.5q20 -49 17 -64q-2 -10 -7.5 -19t-16.5 -21 t-12 -14q-9 -13 -59 -77.5t-73 -97.5q-54 -74 -69 -115q-17 -46 -55 -46zM243 129q32 54 94 133l84 112q-7 20 -26 66.5t-33.5 87.5t-24.5 78q-37 -59 -100.5 -141.5t-76.5 -102.5q5 -19 20.5 -58.5t17.5 -45.5q29 -75 45 -129z" />
<glyph unicode="&#xf6c3;" d="M77 -241q-23 0 -20 24q5 28 38 33q40 5 49 53q3 18 -8 25q-22 -3 -29.5 6t-4.5 26q5 30 35 30q32 0 50 -24t11 -63q-9 -51 -47 -80.5t-74 -29.5z" />
<glyph unicode="&#xf6c9;" d="M408 807l-83 -77q-3 -13 -16.5 -23.5t-28.5 -10.5q-16 0 -23.5 10t-5.5 26q2 12 10.5 21.5t17.5 11.5l84 78q-1 17 11.5 26t28.5 9q18 0 26 -10.5t6 -27.5q-5 -27 -27 -33z" />
<glyph unicode="&#xf6ca;" d="M403 760l-87 -63q-17 -13 -39 -13q-18 0 -29 17l-37 63q-15 8 -12 30q5 36 41 36q19 0 27 -28l32 -49l72 52q13 25 35 25q15 0 24 -9.5t6 -26.5q-4 -22 -33 -34z" />
<glyph unicode="&#xf6cb;" d="M202 704q-18 0 -24.5 18.5t-2.5 39.5q4 24 18.5 41t40.5 17q43 0 37 -43q-7 -38 -21.5 -55.5t-47.5 -17.5zM357 706q-40 0 -33 54q5 25 19 42.5t36 17.5q17 0 30 -13.5t10 -38.5q-12 -62 -62 -62z" />
<glyph unicode="&#xf6ce;" d="M285 838l44 -72q10 -2 15.5 -11.5t2.5 -20.5q-6 -38 -47 -38q-14 0 -20 10.5t-4 22.5l-48 73q-19 10 -15 34q7 39 47 39q29 0 25 -37z" />
<glyph unicode="&#xf6cf;" d="M456 798l-90 -91q-1 -14 -16 -29.5t-34 -15.5q-14 0 -21.5 10.5t-3.5 29.5q3 21 19 27l92 94q-3 15 10.5 30t35.5 15q14 0 24 -12t7 -30q-3 -17 -23 -28zM323 798l-91 -91q0 -14 -15 -29.5t-34 -15.5q-14 0 -21.5 10.5t-3.5 29.5q3 21 19 27l91 94q-2 15 11.5 30t35.5 15 q14 0 24 -11.5t7 -30.5q-5 -18 -23 -28z" />
<glyph unicode="&#xf6d0;" d="M375 753l-155 -19q-14 -4 -23 -4q-13 0 -19.5 11t-3.5 28q3 19 14.5 30t22.5 11q6 0 18 -6l148 18q19 7 24 7q13 0 19.5 -11t3.5 -28q-4 -21 -20.5 -31.5t-28.5 -5.5z" />
<glyph unicode="&#xf6df;" horiz-adv-x="323" d="M215 142l-23 -127q26 5 41 24q0 31 33 31q20 0 29.5 -6.5t7.5 -19.5q-6 -32 -42 -59.5t-81 -37.5l-9 -51q7 -12 6 -21q-5 -29 -44 -29q-38 0 -35 24q3 13 14 27l7 43q-29 2 -41 5q-32 4 -49.5 31t-10.5 66q22 118 146 155l6 32q-8 8 -5 19q2 13 16 22t37 9q14 0 21 -9 t4 -23q-1 -10 -13 -17l-4 -23q10 2 24 2q31 0 51.5 -16.5t16.5 -37.5q-3 -17 -19 -27t-30 -10q-18 0 -21 11q0 11 -17 13q-8 2 -16 0zM92 55q-7 -40 15 -44q15 -5 24 -4l21 120q-50 -19 -60 -72z" />
<glyph unicode="&#xf6e0;" horiz-adv-x="323" d="M319 642l-22 -127q29 6 40 24q2 31 35 31q19 0 28.5 -6.5t7.5 -19.5q-6 -32 -42 -59.5t-81 -37.5l-9 -51q7 -12 5 -21q-4 -29 -44 -29q-18 0 -27 5.5t-6 18.5q1 14 12 27l8 43q-29 2 -42 5q-31 4 -48.5 31t-10.5 66q21 118 146 155l6 32q-8 8 -5 19q2 13 16 22t37 9 q14 0 20.5 -9t4.5 -23q-1 -8 -13 -17l-4 -23q12 2 24 2q31 0 51.5 -16.5t16.5 -37.5q-3 -17 -19 -27t-30 -10q-18 0 -21 11q-2 12 -18 13q-7 2 -16 0zM197 555q-7 -40 16 -44q13 -5 23 -4l21 120q-50 -19 -60 -72z" />
<glyph unicode="&#xf6e1;" horiz-adv-x="127" d="M-9 -198q-24 0 -19 21q3 20 25 20q40 0 50 40q-12 -7 -22 -7q-13 0 -18 12.5t-2 27.5q8 53 52 53q42 0 30 -70q-8 -46 -37.5 -71.5t-58.5 -25.5z" />
<glyph unicode="&#xf6e2;" horiz-adv-x="127" d="M94 302q-21 0 -18 21q3 20 25 20q41 0 49 39q-12 -7 -21 -7q-13 0 -18.5 12.5t-2.5 27.5q10 53 53 53q42 0 29 -70q-8 -45 -37.5 -70.5t-58.5 -25.5z" />
<glyph unicode="&#xf6e3;" horiz-adv-x="333" d="M172 -97l-4 -26q3 -15 1 -21q-2 -15 -15.5 -27.5t-27.5 -12.5q-15 0 -24.5 9t-6.5 25q1 4 9 21l5 25q-53 1 -81.5 25.5t-23.5 53.5q2 12 14.5 21.5t26.5 9.5q19 0 23 -18q2 -24 53 -27l15 85q-24 -8 -47 -8q-28 0 -46 20t-12 56q9 52 52.5 87.5t87.5 43.5l3 19v19 q6 28 37 28q18 0 26 -7t6 -18q-2 -10 -7 -18l-3 -15q37 -1 61.5 -11t32 -21t5.5 -21q-3 -18 -13.5 -28.5t-22.5 -10.5q-20 0 -26 14q-4 12 -48 12l-10 -57q27 6 41 6q31 0 51 -20t11 -72q-10 -54 -52.5 -91.5t-90.5 -49.5zM148 115l11 65q-48 -14 -55 -51q-4 -22 12 -22 q8 0 32 8zM199 62l-15 -92q46 16 55 63q7 34 -15 34q-12 0 -25 -5z" />
<glyph unicode="&#xf6e4;" horiz-adv-x="333" d="M277 402l-4 -26q0 -2 1 -9t0 -12q-3 -15 -16 -27t-27 -12q-15 0 -25 9t-7 25l10 20l5 25q-54 1 -82 25.5t-23 53.5q2 12 14.5 21.5t25.5 9.5q20 0 24 -18q2 -24 52 -27l15 85q-24 -8 -47 -8q-27 0 -45.5 20t-12.5 56q10 53 53 88.5t87 43.5l4 19q-2 12 -1 19q6 28 38 28 q18 0 26 -7t6 -18q0 -1 -7 -18l-3 -15q37 -1 61.5 -11t32 -21t5.5 -21q-4 -18 -14.5 -28.5t-22.5 -10.5q-19 0 -25 14q-6 12 -49 12l-10 -57q30 6 42 6q30 0 50.5 -20t11.5 -72q-10 -55 -52.5 -92t-90.5 -50zM252 614l12 66q-49 -14 -55 -52q-3 -22 12 -22q10 0 31 8z M304 561l-16 -91q47 15 56 63q5 34 -15 34q-9 0 -25 -6z" />
<glyph unicode="&#xf6e5;" horiz-adv-x="217" d="M132 -5l-63 -7q-12 -14 -31 -14q-10 0 -17.5 13.5t-4.5 32.5q4 21 16.5 34t24.5 13q13 0 18 -8l66 8q14 8 22 8q15 0 24 -12.5t5 -33.5q-4 -19 -16.5 -31.5t-25.5 -12.5t-18 10z" />
<glyph unicode="&#xf6e6;" horiz-adv-x="217" d="M237 494l-63 -6q-14 -14 -32 -14q-11 0 -18 13.5t-3 32.5q4 21 16.5 34t24.5 13q13 0 18 -8l66 6q11 9 22 9q16 0 24 -12.5t4 -33.5q-3 -19 -15.5 -31.5t-25.5 -12.5q-14 0 -18 10z" />
<glyph unicode="&#xf6e7;" horiz-adv-x="127" d="M35 -124q-14 0 -23.5 12t-6.5 33q3 19 18.5 35t36.5 16q39 0 31 -46q-3 -20 -17.5 -35t-38.5 -15z" />
<glyph unicode="&#xf6e8;" horiz-adv-x="127" d="M139 375q-14 0 -23 12t-6 33q3 18 18.5 34t36.5 16q39 0 31 -46q-3 -20 -18 -34.5t-39 -14.5z" />
<glyph unicode="&#xf6f4;" d="M243 522q-47 0 -73.5 37t-19.5 75t40 38q30 0 25 -31q-3 -19 7.5 -36t32.5 -17q53 0 75 45q-1 9 0 19q2 11 15 18t27 7q15 0 22.5 -8.5t5.5 -22.5q-4 -19 -12 -27q-53 -97 -145 -97z" />
<glyph unicode="&#xf6f5;" d="M376 603l-88 -63q-16 -13 -38 -13q-20 0 -29 17l-37 63q-16 11 -12 30q5 36 41 36q20 0 26 -28l32 -49l72 52q13 25 36 25q14 0 23.5 -10t6.5 -26q-4 -22 -33 -34z" />
<glyph unicode="&#xf6f6;" d="M326 683l45 -92q15 -17 12 -33q-2 -15 -15.5 -26t-31.5 -11q-15 0 -19.5 11t-0.5 25l-35 74l-79 -77q-1 -13 -11.5 -23t-22.5 -10q-16 0 -25 12t-7 25q3 20 29 36l95 95q21 21 36 21q18 0 30 -27z" />
<glyph unicode="&#xf6f7;" d="M251 538q-40 0 -33 48q8 40 27.5 65.5t44.5 25.5q42 0 34 -46q-7 -43 -28 -68t-45 -25z" />
<glyph unicode="&#xf6f8;" d="M429 643l-91 -92q0 -14 -15.5 -29.5t-34.5 -15.5q-31 0 -25 41q5 20 19 26l93 94q-3 16 10 30.5t35 14.5q15 0 25 -11.5t6 -29.5q-3 -17 -22 -28zM296 643l-91 -92q0 -13 -15.5 -29t-34.5 -16q-31 0 -25 41q3 19 19 26l92 94q-3 16 10.5 30.5t35.5 14.5q14 0 24.5 -11.5 t6.5 -29.5q-3 -17 -22 -28z" />
<glyph unicode="&#xf6f9;" horiz-adv-x="361" d="M217 295l46 27q9 17 33 17q15 0 25 -11.5t7 -29.5q-3 -17 -20 -31t-33 -6l-70 -39l-26 -146l136 16q19 12 31 12q14 0 24 -11t7 -31q-4 -26 -17 -39t-27 -13q-9 0 -23 4l-155 -19q-18 -6 -37 -6q-50 0 -43 44q5 21 16 31l20 113l-20 -12q-6 -15 -32 -15q-15 0 -21.5 10 t-3.5 25q4 21 14 34t20 13q12 0 16 -2l40 22l26 148q-4 10 -1 22q9 51 62 51q44 0 37 -48q-2 -9 -12 -26z" />
<glyph unicode="&#xf6fa;" horiz-adv-x="758" d="M535 368l-17 -93l172 19q3 0 11.5 5t13.5 5q18 0 25 -12t4 -28q-3 -14 -5.5 -20.5t-14 -13.5t-32.5 -9l-187 -21l-22 -123l232 27q20 2 32.5 -8.5t8.5 -34.5q-4 -20 -17.5 -31t-28.5 -11q-6 0 -22 7l-215 -25q-2 -1 -10 -5.5t-20 -7.5t-28 -3q-17 0 -28 10.5t-8 27.5 q6 25 14 33l4 23q-49 -48 -101 -70.5t-127 -22.5q-69 0 -101 55t-16 144q22 127 124 218t205 91q53 0 85 -37l1 2q11 28 47 28q24 0 35 -14t3 -30l220 30q18 3 29 -6.5t7 -29.5q-3 -19 -16 -32.5t-30 -13.5q-3 0 -14 3t-15 2zM211 62q59 0 118.5 40t90.5 103l24 138 q-3 34 -27.5 55t-60.5 21q-69 0 -133 -67t-80 -161q-23 -129 68 -129z" />
<glyph unicode="&#xf6fb;" d="M119 -156q-41 0 -64 24t-15 69q10 56 57.5 100.5t84.5 47.5q2 5 13 9.5t21 4.5q11 0 18 -8t6 -20q-3 -15 -13.5 -25t-24.5 -10q-37 0 -73 -41q-23 -26 -29 -57q-3 -16 7 -26t26 -10q34 0 46 19q-1 4 0 10q2 17 30 17q29 0 24 -35q-4 -25 -36.5 -47t-77.5 -22z" />
<glyph unicode="&#xf6fc;" d="M253 524q-27 0 -40.5 25.5t-6.5 64.5q5 34 41 60t61 26q31 0 48 -22.5t9 -65.5q-7 -40 -43 -64t-69 -24zM270 575q13 0 28 10.5t18 25.5q7 38 -15 38q-15 0 -29.5 -11t-17.5 -29q-6 -34 16 -34z" />
<glyph unicode="&#xf6fd;" horiz-adv-x="495" d="M360 476q59 0 94 -19.5t30 -51.5q-3 -16 -18 -29t-33 -13q-38 0 -41 26q-14 12 -51 12q-56 0 -106 -30t-56 -65q-6 -29 23 -29q30 0 91 16q75 16 118 16q48 0 72 -27.5t16 -76.5q-13 -67 -73 -119q-47 -46 -118 -71.5t-142 -25.5q-64 0 -92 30.5t-23 60.5q4 21 20 36 t38 15q9 0 15.5 -6t9 -11t6 -16t3.5 -12q10 -22 44 -22q46 0 94 17t79 44q42 32 49 71q7 35 -30 35q-34 0 -103 -16q-66 -16 -108 -16q-98 0 -81 96q12 65 95 123t178 58zM457 603l-86 -64q-18 -12 -40 -12q-19 0 -29 17l-37 62q-16 11 -12 31q7 36 41 36q19 0 27 -28 l33 -50l72 53q11 25 34 25q15 0 24 -9.5t6 -26.5q-4 -23 -33 -34z" />
<glyph unicode="&#xf6fe;" d="M310 547q-39 0 -60 36q-15 23 -28 23q-24 0 -40 -31q-14 -24 -36 -24q-34 0 -30 36q1 5 9 12.5t9 10.5q24 33 47.5 46.5t56.5 13.5q24 0 48 -30t40 -30q13 0 21.5 11t9.5 24q2 14 13.5 21.5t24.5 7.5q16 0 24 -9t6 -19q0 -3 -7 -17q-39 -82 -108 -82z" />
<glyph unicode="&#xf6ff;" horiz-adv-x="458" d="M393 402l-194 -12q-21 -43 -57 -43q-34 0 -28 40q6 37 27 65.5t46 28.5q21 0 25 -13l198 10q12 0 35 2.5t33 2.5q18 0 28 -9t8 -23q-5 -34 -47 -70l-329 -310l217 6q5 24 21 37.5t33 13.5q15 0 27 -12.5t6 -45.5q-7 -36 -23.5 -53.5t-36.5 -17.5q-8 0 -49 0.5t-75 0.5 q-44 0 -98 -3q-70 -4 -79 -4q-29 0 -42 12t-8 37q5 30 35 51zM447 603l-87 -63q-17 -13 -39 -13q-18 0 -29 17l-37 63q-16 9 -12 30q5 36 41 36q19 0 27 -28l32 -49l72 52q13 25 35 25q15 0 24 -9.5t6 -26.5q-4 -23 -33 -34z" />
<glyph unicode="&#xf721;" horiz-adv-x="180" d="M208 420l-38 -213q5 -6 1 -38q-3 -15 -25.5 -28t-45.5 -13q-19 0 -26.5 15t-4.5 31q5 20 16 33l36 210q-8 16 -4 34q4 23 20 33.5t55 10.5q21 0 28.5 -8.5t3.5 -31.5q-3 -15 -16 -35zM77 -8q-13 0 -22 13.5t-6 29.5q4 26 25.5 46.5t44.5 20.5q36 0 26 -53q-9 -57 -68 -57 z" />
<glyph unicode="&#xf726;" horiz-adv-x="476" d="M306 278l61 -92q29 36 32 56q2 9 11 16t20 7q22 0 34.5 -13t10.5 -30q-5 -21 -22 -24q-26 -45 -49 -69q1 -1 8 -12l13.5 -20.5t9.5 -9.5q4 0 19 10.5t24 10.5q25 0 20 -28q-4 -22 -39 -52t-60 -30q-21 0 -21 22l-33 49q-90 -84 -200 -84q-58 0 -89 34t-19 105 q11 58 51.5 103t96.5 69q-35 58 -26 109q5 30 39 55t93 25q67 0 97 -22.5t23 -61.5q-12 -70 -105 -123zM283 422q-17 0 -30.5 -7.5t-15.5 -21.5q-4 -23 29 -62q27 11 45 29.5t20 32.5q6 29 -48 29zM307 126l-82 115q-92 -43 -104 -109q-6 -32 9 -50.5t42 -18.5q66 0 135 63z " />
<glyph unicode="&#xf730;" horiz-adv-x="485" d="M498 257q-18 -105 -110 -189.5t-191 -84.5q-81 0 -115.5 51t-20.5 135q19 107 109.5 193t182.5 86q77 0 118 -53t27 -138zM410 260q8 48 -12 79t-63 31q-53 0 -112.5 -59.5t-73.5 -140.5q-9 -51 10.5 -80t54.5 -29q59 0 121 62t75 137z" />
<glyph unicode="&#xf731;" d="M310 401l-62 -349q4 -11 3 -21q-7 -37 -63 -37q-24 0 -32.5 9t-6.5 26q3 15 13 27l50 281l-49 -26q-18 -26 -39 -26q-18 0 -28 14.5t-6 36.5q5 30 42 44l107 54l17 10q17 10 27 10q18 0 26.5 -10t6.5 -24q-5 -16 -6 -19z" />
<glyph unicode="&#xf732;" horiz-adv-x="428" d="M418 73l-16 -42q-13 -33 -50 -33q-16 0 -23 5l-239 -6q-24 -8 -34 -8q-18 0 -26 10.5t-5 28.5q3 22 46 51q144 99 201 160q42 47 48 83q5 23 -9 38t-44 15q-50 0 -87 -30l-5 -10q-7 -15 -21.5 -26t-29.5 -11q-19 0 -28.5 13.5t-5.5 35.5q7 36 46 54q68 51 149 51 q70 0 103 -34t23 -89q-12 -76 -106 -160q-52 -50 -120 -97l155 9q6 9 7 11q16 27 44 27q19 0 27 -13t0 -33z" />
<glyph unicode="&#xf733;" horiz-adv-x="435" d="M153 227l43 10q37 18 79 56t47 64q2 11 -5 17t-21 6q-56 0 -108 -36q-21 -33 -48 -33q-19 0 -27 13t-5 33q6 32 52 48q84 53 168 53q44 0 66.5 -22t16.5 -58q-13 -70 -96 -134q4 0 6 -1q44 -3 71 -36.5t17 -89.5q-19 -108 -123.5 -197.5t-199.5 -89.5q-48 0 -73 24.5 t-19 60.5q4 22 19.5 35t37.5 13q18 0 26 -10.5t5 -23.5q-1 -3 -2 -6.5t-1 -4.5q5 -8 21 -8q62 0 135.5 65.5t85.5 132.5q5 29 -11 46t-52 17q-31 0 -62 -11q-33 -13 -49 -13q-38 0 -31 41q4 27 37 39z" />
<glyph unicode="&#xf734;" horiz-adv-x="469" d="M349 51l-27 -157q5 -12 2 -31q-4 -19 -22.5 -31t-41.5 -12q-22 0 -32 9.5t-7 24.5q2 19 15 37l27 151l-197 -18q-12 -5 -18 -5q-43 0 -35 44q3 18 27 42l288 304q5 8 8 16q12 31 49 31q43 0 35 -42q-1 -6 -7 -21.5t-7 -19.5l-43 -246l39 5q12 14 29 14q40 0 33 -41 q-12 -54 -49 -54q-12 0 -20 4zM277 118l31 176l-182 -191z" />
<glyph unicode="&#xf735;" horiz-adv-x="428" d="M220 357l-42 -117q52 32 104 32q71 0 104 -44t20 -117q-20 -113 -110.5 -197t-182.5 -84q-58 0 -89 25t-23 63q4 21 18.5 33t31.5 12q28 2 33 -27q1 -3 2 -9t1 -7q8 -10 35 -10q56 0 119.5 57.5t78.5 141.5q7 39 -9 61t-49 22q-60 0 -119 -53q-24 -24 -42 -24 q-17 0 -26.5 9.5t-6.5 25.5q2 7 7.5 18t6.5 15l69 196q2 24 17.5 41t37.5 17q4 0 18 -2l168 11q20 9 33 9q18 0 26 -13t4 -32q-4 -23 -17.5 -36t-31.5 -13q-10 0 -20 7z" />
<glyph unicode="&#xf736;" horiz-adv-x="487" d="M492 247q-17 -100 -99 -178t-173 -78q-43 0 -75.5 23.5t-45.5 67.5q-17 11 -17 33q0 10 3 19q-3 58 5 100q28 159 135.5 272.5t211.5 113.5q44 0 67.5 -20.5t16.5 -54.5q-8 -48 -47 -48q-34 0 -35 30q-2 5 0 10q-7 5 -22 5q-58 0 -125 -66.5t-100 -167.5q-3 -9 -3 -16 q39 52 89.5 82.5t102.5 30.5q65 0 94.5 -43t16.5 -115zM406 247q7 35 -7.5 56t-45.5 21q-44 0 -99 -47t-81 -106q-4 -47 14 -74.5t49 -27.5q59 0 108.5 53.5t61.5 124.5z" />
<glyph unicode="&#xf737;" horiz-adv-x="426" d="M183 346l-8 -23q3 -8 1 -18q-4 -19 -20 -30.5t-38 -11.5q-17 0 -27 11t-6 28q0 10 9 23l18 52q10 27 21 38t37 12l244 16q10 2 13 6q15 13 38 13q16 0 25 -10t7 -24q-6 -28 -33 -59q-12 -14 -154.5 -240t-150.5 -244q-25 -59 -61 -59q-20 0 -29 13.5t-5 35.5q4 23 36 72 l267 414l-12 -2z" />
<glyph unicode="&#xf738;" horiz-adv-x="473" d="M493 269q-9 -53 -45 -109t-86 -97q-94 -81 -187 -81q-71 0 -104.5 39t-20.5 112q22 118 137 201q-41 33 -30 101q14 76 79.5 129.5t133.5 53.5q61 0 93 -32t22 -92q-10 -56 -67 -101q42 -10 62.5 -43.5t12.5 -80.5zM402 490q4 24 -8.5 37.5t-39.5 13.5q-39 0 -72.5 -29 t-41.5 -73q-4 -23 5.5 -37.5t25.5 -16.5q16 3 20 4q27 9 39 10q62 32 72 91zM403 258q12 67 -59 67q-47 0 -98 -33q-39 -27 -70 -72.5t-39 -87.5q-6 -33 9 -51t43 -18q63 0 132 61q72 69 82 134z" />
<glyph unicode="&#xf739;" horiz-adv-x="474" d="M465 190q-11 -63 -41 -128t-73 -120t-102.5 -90t-122.5 -35q-49 0 -75 20t-20 52q3 19 17 33t32 14q26 0 32 -24q0 -2 0.5 -5t0.5 -4q10 -7 33 -7q56 0 119.5 62t91.5 151q0 1 0.5 3t1 3.5l1 3t0.5 2.5q-22 -30 -50 -49q-59 -40 -131 -40q-61 0 -90.5 41t-17.5 116 q19 106 97.5 181.5t166.5 75.5q119 0 135 -130q15 -13 11 -38q-2 -12 -7 -23q-3 -33 -9 -65zM316 367q-50 0 -97 -48.5t-60 -123.5q-7 -37 7 -58.5t45 -21.5q45 0 97 36q50 38 75 90q5 57 -13 91.5t-54 34.5z" />
<glyph unicode="&#xf73f;" horiz-adv-x="362" d="M187 106q-47 0 -64.5 19.5t-10.5 60.5q6 33 34 59t94 67q53 32 71.5 49t21.5 33q2 12 -9 20t-33 8q-54 0 -107 -42q-2 -20 -16.5 -34.5t-27.5 -14.5q-21 0 -33 13t-8 35q5 31 23 37q79 79 196 79q55 0 83.5 -26t22.5 -58q-6 -35 -33.5 -65.5t-100.5 -77.5 q-66 -41 -83.5 -54.5t-19.5 -25.5q-3 -16 16 -16q14 0 26 6.5t14 13.5q11 19 37 19q36 0 31 -31q-5 -29 -38.5 -51.5t-85.5 -22.5zM153 -20q-16 0 -25.5 12.5t-5.5 35.5q4 26 21 42t41 16q38 0 30 -50q-4 -22 -20 -39t-41 -17z" />
<glyph unicode="&#xf760;" d="M257 682l45 -72q9 -2 14.5 -11.5t3.5 -20.5q-7 -38 -47 -38q-14 0 -20.5 10.5t-4.5 22.5l-47 73q-19 9 -15 34q6 39 46 39q29 0 25 -37z" />
<glyph unicode="&#xf761;" horiz-adv-x="498" d="M370 162l-189 -13q-53 -64 -57 -77q-4 -11 -9 -38q-6 -38 -59 -38q-24 0 -33 12t-6 30q3 17 57 92l179 245q25 31 35 54q3 24 20.5 42t42.5 18q20 0 30 -11t8 -23q-1 -8 -5 -17t-5 -14q-2 -15 49 -163q64 -183 59 -212q-10 -53 -61 -53q-21 0 -32.5 10t-8.5 25 q1 8 5.5 18t4.5 11q1 8 -25 102zM229 220l122 9l-34 121z" />
<glyph unicode="&#xf762;" horiz-adv-x="504" d="M73 69l58 329q-4 7 -2 27q4 23 23 34t42 11q14 0 23 -7t8 -17q74 31 168 33q45 0 70.5 -19t20.5 -50q-10 -60 -82 -98v-1q14 2 17 2q47 0 73 -29t20 -65q-10 -56 -62.5 -102t-120.5 -71.5t-130 -39t-104 -13.5q-25 0 -36 10.5t-7 31.5q5 26 21 34zM212 371l-13 -74 q58 4 123 32t70 56q1 6 -2 10t-14 7t-30 3q-27 0 -67.5 -10t-66.5 -24zM182 202l-21 -124q85 7 168 44.5t91 84.5q2 16 -14.5 30.5t-53.5 14.5q-64 0 -136 -24q-19 -7 -25.5 -12t-8.5 -14z" />
<glyph unicode="&#xf763;" horiz-adv-x="446" d="M352 481q63 0 100 -22.5t30 -58.5q-4 -21 -19 -34t-35 -13q-34 0 -35 32q0 7 -15.5 13.5t-36.5 6.5q-58 0 -115.5 -72t-71.5 -146q-9 -51 8 -86.5t60 -35.5q61 0 111 46q16 49 55 49q21 0 31 -12.5t8 -25.5q-5 -27 -27 -49q-34 -32 -92.5 -59t-114.5 -27q-74 0 -109 50.5 t-16 153.5q18 102 103 196t181 94z" />
<glyph unicode="&#xf764;" horiz-adv-x="494" d="M68 68l61 342q-3 15 -1 29q3 15 19 27.5t42 12.5q20 0 28 -11.5t3 -26.5q78 37 159 37q69 0 110 -48t28 -118q-23 -128 -131 -214q-64 -50 -146 -79t-144 -29q-25 0 -36 11t-7 31q4 19 15 36zM205 359l-49 -283q44 5 95.5 26t87.5 52q73 65 86 142q8 45 -13 74.5 t-65 29.5q-65 0 -142 -41z" />
<glyph unicode="&#xf765;" horiz-adv-x="444" d="M181 195l-21 -120l204 15q12 12 28 12q21 0 31.5 -11.5t8.5 -27.5q-5 -29 -22 -37.5t-55 -10.5l-208 -15q-16 -16 -51 -16q-20 0 -31.5 13t-7.5 35q3 21 17 40l19 112q-10 15 -6 38q4 21 20 40l18 98q-13 13 -10 36q4 24 18 36q-3 7 -2 13q2 14 18.5 23.5t36.5 9.5 t30.5 -9t8.5 -22l172 15q19 13 33 13q23 0 33.5 -12t7.5 -30q-10 -51 -57 -51q-16 0 -29 6l-172 -16l-18 -103l134 16q22 13 33 13q21 0 32 -13.5t7 -31.5q-9 -47 -57 -47q-10 0 -20 6z" />
<glyph unicode="&#xf766;" horiz-adv-x="408" d="M182 196l-22 -123q6 -17 4 -34q-4 -21 -22.5 -32.5t-43.5 -11.5q-53 0 -44 40q4 26 21 45l18 100q-10 15 -6 40q5 25 20 43l17 93q-4 3 -7 16.5t-1 24.5q5 31 24 36q2 19 21 30t40 11q16 0 24 -7.5t1 -19.5l167 26q4 0 15 4.5t18 4.5q21 0 31.5 -11t7.5 -29 q-5 -29 -18 -40.5t-37 -11.5q-12 0 -30 7l-167 -26l-18 -99l157 24q18 10 37 10q13 0 19.5 -14.5t4.5 -29.5q-8 -49 -50 -49q-17 0 -27 6z" />
<glyph unicode="&#xf767;" horiz-adv-x="520" d="M423 488q55 0 81 -27q33 -30 29 -59q-4 -17 -17.5 -29t-32.5 -12q-17 0 -24 8t-12 26q-9 18 -46 18q-49 0 -111 -41q-118 -75 -138 -191q-11 -61 9.5 -90t63.5 -29q85 0 151 55q45 41 66 93q-20 -6 -59.5 -13.5t-56.5 -7.5q-11 0 -18.5 10t-4.5 27q3 18 15 31t30 13 q38 0 94.5 11.5t61.5 11.5q37 0 30 -43q-4 -22 -18 -52.5t-42 -68.5t-65 -69t-93 -52t-119 -21q-81 0 -115 51.5t-17 142.5q13 79 65.5 143.5t124.5 107.5q93 56 168 56z" />
<glyph unicode="&#xf768;" horiz-adv-x="502" d="M183 206l-25 -140q5 -16 2 -29q-3 -16 -18 -28.5t-32 -12.5q-31 0 -42.5 10.5t-8.5 26.5q6 25 13 30l24 138q-11 9 -9 30q8 40 23 47l23 130q-3 12 -1 26q3 16 22 27.5t44 11.5q12 0 23.5 -11.5t9.5 -26.5q-3 -13 -12 -29l-21 -120l212 14l18 101q-5 13 -1 33q3 17 20 28 t36 11q15 0 30.5 -12t13.5 -24q-7 -22 -12 -28l-61 -347q4 -16 1 -31q-3 -14 -22 -24.5t-36 -10.5q-18 0 -31 13t-10 30q4 19 14 31l26 151z" />
<glyph unicode="&#xf769;" horiz-adv-x="207" d="M215 388l-55 -316q8 -17 6 -29q-3 -18 -22 -32.5t-42 -14.5q-24 0 -36 13t-8 35q3 15 16 32l57 317q-9 9 -5 27q4 24 24 38.5t46 14.5q23 0 32.5 -14.5t6.5 -35.5q-4 -22 -20 -35z" />
<glyph unicode="&#xf76a;" horiz-adv-x="427" d="M434 386l-46 -266q-16 -78 -90 -121q-60 -39 -138 -39q-65 0 -98.5 37.5t-23.5 94.5q5 25 20 45t35 20q24 0 36.5 -15t10.5 -33q-4 -20 -19 -33q-2 -15 13 -25.5t40 -10.5q43 0 80 24q42 29 49 67l45 251q-11 11 -7 34q10 54 65 54q20 0 32 -15.5t8 -38.5q-3 -23 -12 -30 z" />
<glyph unicode="&#xf76b;" horiz-adv-x="452" d="M188 230l-28 -163q7 -7 4 -24q-6 -47 -60 -47q-22 0 -35 12.5t-9 34.5q5 19 14 27l60 334q-5 4 -3 22q5 23 20.5 35t33.5 12q19 0 34 -10t11 -31q-4 -20 -10 -24l-16 -88h1q24 24 46 38l134 83q21 31 47 31q12 0 26.5 -11t10.5 -31q-2 -15 -16.5 -30.5t-30.5 -16.5 l-165 -104l161 -204q13 -1 20 -11t5 -21q-3 -16 -22 -33t-44 -17q-19 0 -27 8t-6 20l-125 155q-23 33 -29 54h-2z" />
<glyph unicode="&#xf76c;" horiz-adv-x="366" d="M217 399l-56 -323l135 16q19 12 31 12q14 0 24.5 -11t7.5 -31q-5 -26 -18 -39t-27 -13q-9 0 -23 4l-154 -19q-20 -6 -38 -6q-49 0 -42 44q3 21 16 31l58 336q-2 12 0 22q9 51 61 51q46 0 37 -48q-4 -14 -12 -26z" />
<glyph unicode="&#xf76d;" horiz-adv-x="609" d="M69 67l64 360q7 45 55 45q21 0 29.5 -9.5t6.5 -25.5q-3 -25 19 -75l47.5 -111.5t28.5 -106.5h2q18 44 65 98l88 98.5t48 67.5q1 5 2 18t2 18q5 31 49 31q28 0 41 -12t10 -33q-2 -11 -10 -26l-60 -340q4 -8 2 -24q-4 -21 -21 -32.5t-38 -11.5q-24 0 -33 9.5t-6 27.5 q3 19 13 28q23 136 41 225h-2q-160 -209 -170 -254q-6 -32 -50 -32q-27 0 -36.5 13.5t-5.5 33.5q9 56 -62 243h-3q-6 -48 -37 -219q7 -12 3 -32q-7 -43 -54 -43q-21 0 -31.5 11t-6.5 33q2 19 10 27z" />
<glyph unicode="&#xf76e;" horiz-adv-x="492" d="M72 63l60 339q-4 10 -1 26q2 18 17.5 31.5t39.5 13.5q26 0 34.5 -8.5t5.5 -26.5q-3 -22 14 -64q25 -58 76 -112q53 -59 63 -96h2q13 87 42 251q-3 21 -3 23q7 41 49 41q20 0 34 -9t11 -25q-1 -8 -11 -28l-64 -365q6 -14 5 -24q-6 -34 -53 -34q-28 0 -42 45 q-29 77 -89 149q-56 62 -69 110h-2q-19 -131 -39 -237q5 -13 3 -25q-7 -42 -50 -42q-25 0 -37.5 10.5t-8.5 33.5q2 8 13 23z" />
<glyph unicode="&#xf76f;" horiz-adv-x="498" d="M377 494q76 0 114.5 -56.5t18.5 -170.5q-22 -120 -113.5 -200.5t-201.5 -80.5q-60 0 -94 32t-41 73t1 87q20 115 117.5 215.5t198.5 100.5zM352 418q-56 0 -120.5 -74.5t-78.5 -153.5q-10 -53 7.5 -90.5t64.5 -37.5q61 0 120.5 59t74.5 142q14 74 -4 114.5t-64 40.5z" />
<glyph unicode="&#xf770;" horiz-adv-x="454" d="M76 65l41 231q-20 7 -14 37q6 38 30 52l4 23q-2 8 0 23q3 16 20 27.5t31 11.5q24 0 33.5 -10.5t5.5 -27.5l-2 -9q96 49 184 49q52 0 75 -25t15 -67q-12 -69 -99 -127.5t-220 -83.5l-19 -110q7 -16 5 -23q-4 -22 -18 -31t-48 -9q-19 0 -29.5 10.5t-7.5 27.5q2 16 13 31z M212 346l-19 -105q94 19 151 52t65 71q2 15 -7 22.5t-34 7.5q-68 0 -156 -48z" />
<glyph unicode="&#xf771;" horiz-adv-x="520" d="M403 491q72 0 105.5 -53.5t18.5 -141.5q-10 -53 -35.5 -109t-55.5 -90q24 -34 49 -52q32 -4 27 -34q-4 -21 -22.5 -36t-35.5 -15q-26 0 -32 20q-22 16 -55 58q-71 -49 -165 -49q-78 0 -117.5 42t-22.5 138q24 134 125.5 228t215.5 94zM379 415q-65 0 -136.5 -72 t-89.5 -172q-9 -53 11 -79.5t55 -26.5q61 0 100 31q-31 39 -59 53q-14 14 3.5 44t45.5 30q18 0 32 -14l42 -48q41 55 56 137q9 54 -8 85.5t-52 31.5z" />
<glyph unicode="&#xf772;" horiz-adv-x="483" d="M61 47q2 12 15 27l43 244q-2 -1 -7 -1q-19 0 -12 34q6 38 33 49l3 15q-3 17 -1 25q4 19 20.5 31.5t36.5 12.5t29 -12.5t4 -31.5q0 -2 -2 -10q103 43 183 42q45 0 71.5 -23t19.5 -61q-22 -115 -239 -158l186 -146q21 8 36 -5.5t12 -31.5q-4 -26 -22 -41t-38 -15 q-28 0 -36 23l-216 172l-20 -115q0 -2 1.5 -11.5t0.5 -15.5q-9 -48 -69 -48q-19 0 -27 14t-5 37zM211 358l-15 -80q199 36 211 98q3 23 -35 23q-69 0 -161 -41z" />
<glyph unicode="&#xf773;" horiz-adv-x="495" d="M360 476q59 0 94 -19.5t30 -51.5q-3 -16 -18 -29t-33 -13q-38 0 -41 26q-14 12 -51 12q-56 0 -106 -30t-56 -65q-6 -29 23 -29q30 0 91 16q75 16 118 16q48 0 72 -27.5t16 -76.5q-13 -67 -73 -119q-47 -46 -118 -71.5t-142 -25.5q-64 0 -92 30.5t-23 60.5q4 21 20 36 t38 15q9 0 15.5 -6t9 -11t6 -16t3.5 -12q10 -22 44 -22q46 0 94 17t79 44q42 32 49 71q7 35 -30 35q-34 0 -103 -16q-66 -16 -108 -16q-98 0 -81 96q12 65 95 123t178 58z" />
<glyph unicode="&#xf774;" horiz-adv-x="405" d="M314 389l-58 -326q4 -19 3 -22q-7 -45 -65 -45q-40 0 -34 39q6 22 11 30l54 310l-83 -18q-16 -9 -28 -9q-18 0 -26.5 11.5t-5.5 30.5q4 19 17.5 33t26.5 14q10 0 23 -5l99 19q11 11 33.5 14.5t31.5 -2.5l110 20q22 6 27 6q39 0 31 -45q-3 -18 -15.5 -30.5t-29.5 -12.5 q-15 0 -23 8z" />
<glyph unicode="&#xf775;" horiz-adv-x="480" d="M188 -12q-59 0 -90.5 32.5t-22.5 82.5l54 308q-7 24 9 41.5t43 17.5q24 0 30 -17.5t2 -33.5l-56 -321q3 -11 17 -19.5t32 -8.5q62 0 106 28.5t47 48.5l47 265q-6 8 -3 21q3 19 20 31t40 12q16 0 26.5 -10t7.5 -28q-2 -10 -5 -18l-51 -283q-3 -15 -23.5 -42t-48.5 -46 q-80 -61 -181 -61z" />
<glyph unicode="&#xf776;" horiz-adv-x="437" d="M211 151q53 94 192 263q25 51 63 51q17 0 27 -12.5t6 -34.5q-4 -23 -27 -46q-78 -67 -141 -157q-38 -52 -64.5 -100t-29.5 -63q-12 -60 -70 -57q-20 -1 -33 11t-10 25q2 8 6 21t6 22q6 44 -25 182q-14 66 -17 95t2 75q8 44 56 44q38 0 28 -60q-3 -23 14 -142 q16 -83 17 -117z" />
<glyph unicode="&#xf777;" horiz-adv-x="628" d="M153 -6q-41 0 -28 69q8 49 -10 175q-17 127 -8 184q5 25 21 38t37 13q19 0 29 -11.5t6 -31.5q-1 -5 -5 -16t-5 -17q-8 -47 1 -131q9 -76 8 -116q24 56 76 136q46 77 54 127q9 52 53 52q25 1 32.5 -13t2.5 -47q-8 -42 26 -147q19 -63 23 -106q7 17 64 121q39 60 61 142 q-5 9 -2 24q3 18 17 31t38 13q21 0 32 -12t9 -28q-4 -22 -8 -33q-16 -50 -73 -150q-82 -150 -99 -198q-11 -27 -18 -40t-19 -24t-28 -11q-27 0 -34 14t-4 50q3 39 -23 138q-22 59 -28 100q0 -1 -57 -97q-70 -109 -78 -160q-4 -17 -21 -27.5t-42 -10.5z" />
<glyph unicode="&#xf778;" horiz-adv-x="426" d="M63 -4q-14 0 -23.5 10.5t-7.5 25.5q7 30 31 43q47 64 152 176q-31 58 -86 140q-16 17 -12 39q4 19 17 31.5t28 12.5q24 0 35 -11t22 -32t26 -55t28 -57q71 77 107 122q16 29 53 29q19 0 29 -12t6 -31q-4 -28 -36 -47q-30 -23 -126 -127l84 -176q13 -11 10 -33 q-3 -19 -21 -33.5t-39 -14.5t-28 13.5t-2 31.5l-25.5 60.5t-38.5 83.5q-32 -37 -121 -157q-24 -32 -62 -32z" />
<glyph unicode="&#xf779;" horiz-adv-x="470" d="M206 76l26 146q-14 38 -61.5 90t-64.5 82q-24 10 -19 43q4 18 23.5 32t38.5 15q17 0 27 -11t6 -27q10 -24 53 -74.5t54 -74.5h1q21 22 73.5 63t75.5 65q14 12 21 23q8 13 12.5 18.5t15 11.5t25.5 6q18 0 27.5 -12t6.5 -30q-3 -16 -31 -46l-13 -12.5t-15 -13t-11 -9.5 q-12 -11 -73.5 -60.5t-85.5 -79.5l-27 -155q5 -13 4 -25q-3 -19 -20 -32t-47 -13q-24 0 -33 9t-4 36q5 29 15 35z" />
<glyph unicode="&#xf77a;" horiz-adv-x="458" d="M393 402l-194 -12q-21 -43 -57 -43q-34 0 -28 40q6 37 27 65.5t46 28.5q21 0 25 -13l198 10q12 0 35 2.5t33 2.5q18 0 28 -9t8 -23q-5 -34 -47 -70l-329 -310l217 6q5 24 21 37.5t33 13.5q15 0 27 -12.5t6 -45.5q-7 -36 -23.5 -53.5t-36.5 -17.5q-8 0 -49 0.5t-75 0.5 q-44 0 -98 -3q-70 -4 -79 -4q-29 0 -42 12t-8 37q5 30 35 51z" />
<glyph unicode="&#xf7a1;" horiz-adv-x="180" d="M186 473q14 0 22.5 -13.5t5.5 -29.5q-4 -26 -25.5 -46.5t-43.5 -20.5q-37 0 -27 53q5 29 20.5 43t47.5 14zM56 44l38 214q-6 8 -1 38q2 15 24 27.5t46 12.5q20 0 27 -14.5t4 -31.5q-2 -14 -15 -32l-37 -210q8 -17 4 -35q-4 -23 -19.5 -33.5t-54.5 -10.5q-21 0 -28.5 9 t-3.5 32q4 20 16 34z" />
<glyph unicode="&#xf7a8;" d="M175 547q-18 0 -25 19t-3 39q4 24 18.5 41t40.5 17q44 0 37 -43q-6 -38 -20.5 -55.5t-47.5 -17.5zM329 549q-41 0 -32 54q4 25 18 42.5t36 17.5q18 0 31 -14t9 -38q-11 -62 -62 -62z" />
<glyph unicode="&#xf7af;" d="M347 597l-154 -18q-13 -5 -23 -5q-13 0 -19.5 11t-3.5 28q3 19 14.5 30t22.5 11q9 0 17 -6l148 17q16 7 24 7q13 0 19.5 -10.5t4.5 -28.5q-4 -21 -21 -31.5t-29 -4.5z" />
<glyph unicode="&#xf7b4;" d="M380 651l-82 -77q-4 -13 -17.5 -23.5t-28.5 -10.5q-16 0 -23.5 10t-4.5 27q6 28 27 32l85 79q-2 17 10.5 26t29.5 9t25.5 -11t5.5 -27q-3 -27 -27 -34z" />
<glyph unicode="&#xf7b8;" d="M220 59q-1 -8 -6.5 -15.5t-12.5 -8.5l-31 -42q29 1 43.5 -19.5t7.5 -58.5q-8 -47 -44.5 -78.5t-86.5 -31.5q-24 0 -39 13q-7 -5 -15 -5t-12.5 11t-2.5 24q3 16 15 28.5t22 12.5q6 0 10.5 -4.5t3.5 -9.5q13 -9 30 -9q25 0 43 13t21 33q7 28 -19 28q-5 0 -15 -5 q-5 -7 -23 -7q-10 0 -14.5 7.5t-2.5 18.5q2 17 17 30l64 83q5 24 26 24q10 0 16.5 -10t4.5 -22z" />
<glyph unicode="&#xf7bf;" horiz-adv-x="362" d="M284 473q16 0 25 -12.5t5 -35.5q-4 -26 -21 -42t-41 -16q-38 0 -29 50q3 22 19.5 39t41.5 17zM249 347q46 0 64 -19.5t11 -60.5q-6 -33 -34 -59t-94 -67q-53 -32 -71.5 -48.5t-21.5 -32.5q-2 -13 9 -21t34 -8q54 0 106 43q2 19 16 33.5t28 14.5q21 0 33 -12.5t8 -34.5 q-5 -32 -23 -37q-77 -80 -196 -80q-55 0 -83.5 26t-22.5 58q6 36 33.5 66t101.5 77q64 41 82 55t20 26q3 16 -16 16q-14 0 -26 -6.5t-14 -14.5q-13 -19 -38 -19q-35 0 -30 31q6 30 39.5 52t84.5 22z" />
<glyph unicode="&#xf7e0;" horiz-adv-x="498" d="M370 162l-189 -13q-53 -64 -57 -77q-4 -11 -9 -38q-6 -38 -59 -38q-24 0 -33 12t-6 30q3 17 57 92l179 245q25 31 35 54q3 24 20.5 42t42.5 18q20 0 30 -11t8 -23q-1 -8 -5 -17t-5 -14q-2 -15 49 -163q64 -183 59 -212q-10 -53 -61 -53q-21 0 -32.5 10t-8.5 25 q1 8 5.5 18t4.5 11q1 8 -25 102zM229 220l122 9l-34 121zM347 681l45 -73q9 -2 14.5 -11t3.5 -21q-4 -18 -17 -28t-30 -10q-14 0 -20.5 10.5t-4.5 22.5l-47 74q-19 8 -15 34q6 39 46 39q29 0 25 -37z" />
<glyph unicode="&#xf7e1;" horiz-adv-x="498" d="M370 162l-189 -13q-53 -64 -57 -77q-4 -11 -9 -38q-6 -38 -59 -38q-24 0 -33 12t-6 30q3 17 57 92l179 245q25 31 35 54q3 24 20.5 42t42.5 18q20 0 30 -11t8 -23q-1 -8 -5 -17t-5 -14q-2 -15 49 -163q64 -183 59 -212q-10 -53 -61 -53q-21 0 -32.5 10t-8.5 25 q1 8 5.5 18t4.5 11q1 8 -25 102zM229 220l122 9l-34 121zM471 649l-83 -77q-3 -13 -17 -23.5t-29 -10.5q-16 0 -23.5 10t-5.5 26q3 12 11 22t17 11l85 79q-1 17 11 26t29 9q18 0 26 -11t5 -27q-3 -26 -26 -34z" />
<glyph unicode="&#xf7e2;" horiz-adv-x="498" d="M370 162l-189 -13q-53 -64 -57 -77q-4 -11 -9 -38q-6 -38 -59 -38q-24 0 -33 12t-6 30q3 17 57 92l179 245q25 31 35 54q3 24 20.5 42t42.5 18q20 0 30 -11t8 -23q-1 -8 -5 -17t-5 -14q-2 -15 49 -163q64 -183 59 -212q-10 -53 -61 -53q-21 0 -32.5 10t-8.5 25 q1 8 5.5 18t4.5 11q1 8 -25 102zM229 220l122 9l-34 121zM419 681l44 -92q15 -17 12 -33q-2 -15 -15.5 -26t-31.5 -11q-14 0 -19 11t-2 24l-35 75l-78 -77q-1 -14 -12 -23.5t-23 -9.5q-15 0 -24 12.5t-7 24.5q3 19 28 36l96 95q21 21 36 21q16 0 31 -27z" />
<glyph unicode="&#xf7e3;" horiz-adv-x="498" d="M370 162l-189 -13q-53 -64 -57 -77q-4 -11 -9 -38q-6 -38 -59 -38q-24 0 -33 12t-6 30q3 17 57 92l179 245q25 31 35 54q3 24 20.5 42t42.5 18q20 0 30 -11t8 -23q-1 -8 -5 -17t-5 -14q-2 -15 49 -163q64 -183 59 -212q-10 -53 -61 -53q-21 0 -32.5 10t-8.5 25 q1 8 5.5 18t4.5 11q1 8 -25 102zM229 220l122 9l-34 121zM402 536q-39 0 -61 35q-16 24 -28 24q-25 0 -40 -31q-14 -24 -35 -24q-36 0 -30 36q1 5 9 13.5t9 9.5q43 60 103 60q25 0 49 -30q22 -30 40 -30q13 0 21 11t10 24q4 29 38 29q15 0 23.5 -9t6.5 -19q-1 -2 -4 -8.5 t-3 -8.5q-39 -82 -108 -82z" />
<glyph unicode="&#xf7e4;" horiz-adv-x="498" d="M370 162l-189 -13q-53 -64 -57 -77q-4 -11 -9 -38q-6 -38 -59 -38q-24 0 -33 12t-6 30q3 17 57 92l179 245q25 31 35 54q3 24 20.5 42t42.5 18q20 0 30 -11t8 -23q-1 -8 -5 -17t-5 -14q-2 -15 49 -163q64 -183 59 -212q-10 -53 -61 -53q-21 0 -32.5 10t-8.5 25 q1 8 5.5 18t4.5 11q1 8 -25 102zM229 220l122 9l-34 121zM271 537q-17 0 -23.5 19t-2.5 39q10 58 58 58q44 0 37 -43q-7 -39 -21.5 -56t-47.5 -17zM426 539q-41 0 -32 54q12 60 54 60q18 0 31 -14t9 -38q-11 -62 -62 -62z" />
<glyph unicode="&#xf7e5;" horiz-adv-x="498" d="M370 162l-189 -13q-53 -64 -57 -77q-4 -11 -9 -38q-6 -38 -59 -38q-24 0 -33 12t-6 30q3 17 57 92l179 245q25 31 35 54q3 24 20.5 42t42.5 18q20 0 30 -11t8 -23q-1 -8 -5 -17t-5 -14q-2 -15 49 -163q64 -183 59 -212q-10 -53 -61 -53q-21 0 -32.5 10t-8.5 25 q1 8 5.5 18t4.5 11q1 8 -25 102zM229 220l122 9l-34 121zM336 513q-28 0 -41.5 25.5t-6.5 65.5q6 34 42 60t61 26q31 0 47.5 -22.5t8.5 -65.5q-7 -40 -42.5 -64.5t-68.5 -24.5zM352 564q14 0 28.5 10.5t17.5 26.5q7 38 -15 38q-15 0 -29 -11t-18 -29q-6 -35 16 -35z" />
<glyph unicode="&#xf7e6;" horiz-adv-x="628" d="M414 190l-21 -120q41 0 102 4.5t79 11.5q10 5 28 5q25 0 19 -38q-8 -48 -52 -50l-215 -9q-4 0 -18 -2.5t-24 -2.5q-16 0 -24 10.5t-4 31.5q5 35 24 40l21 114l-136 -10q-64 -77 -87 -115q-6 -9 -8 -20q-4 -20 -22 -32t-40 -12q-17 0 -30 12.5t-9 32.5q3 17 14 30.5 t25 17.5l133 159q34 38 195 195q5 17 18 31t34 14q54 0 50 -26q-2 -10 -6 -14l139 7q7 1 20 7t20 7q16 0 25 -12.5t5 -35.5t-17.5 -36.5t-27.5 -13.5q-15 0 -33 11l-144 -7l-21 -116l116 10l23.5 6t25.5 5q35 0 29 -33q-8 -45 -55 -47zM341 253l18 106q-42 -42 -106 -114z " />
<glyph unicode="&#xf7e7;" horiz-adv-x="446" d="M264 -2l-29 -40q28 1 42.5 -19.5t8.5 -58.5q-9 -47 -45 -78.5t-87 -31.5q-25 0 -39 14q-7 -5 -15 -5t-12 11t-2 24q3 15 14.5 27.5t21.5 12.5q6 0 10.5 -4.5t3.5 -9.5q14 -9 30 -9q26 0 43.5 12.5t21.5 33.5q4 28 -19 28q-6 0 -16 -5q-5 -7 -22 -7q-10 0 -15 7.5t-3 18.5 q2 17 17 30l29 39q-2 -1 -9 -1q-74 0 -109 50.5t-16 153.5q18 101 103 195.5t179 94.5q63 0 100.5 -22.5t31.5 -58.5q-4 -22 -19 -34.5t-35 -12.5q-35 0 -35 32q-1 7 -16 13.5t-36 6.5q-58 0 -115.5 -72t-71.5 -146q-9 -51 8 -86.5t60 -35.5q62 0 110 46q5 14 10 22.5 t17 17.5t29 9q21 0 30.5 -12.5t7.5 -25.5q-4 -27 -26 -49q-53 -51 -136 -75z" />
<glyph unicode="&#xf7e8;" horiz-adv-x="444" d="M181 195l-21 -120l204 15q12 12 28 12q21 0 31.5 -11.5t8.5 -27.5q-5 -29 -22 -37.5t-55 -10.5l-208 -15q-16 -16 -51 -16q-20 0 -31.5 13t-7.5 35q3 21 17 40l19 112q-10 15 -6 38q4 21 20 40l18 98q-13 13 -10 36q4 24 18 36q-3 7 -2 13q2 14 18.5 23.5t36.5 9.5 t30.5 -9t8.5 -22l172 15q19 13 33 13q23 0 33.5 -12t7.5 -30q-10 -51 -57 -51q-16 0 -29 6l-172 -16l-18 -103l134 16q22 13 33 13q21 0 32 -13.5t7 -31.5q-9 -47 -57 -47q-10 0 -20 6zM317 669l45 -73q9 -2 14.5 -11.5t3.5 -21.5q-7 -37 -47 -37q-15 0 -21.5 10t-3.5 23 l-47 73q-19 9 -15 34q6 39 46 39q14 0 20.5 -10.5t4.5 -25.5z" />
<glyph unicode="&#xf7e9;" horiz-adv-x="444" d="M181 195l-21 -120l204 15q12 12 28 12q21 0 31.5 -11.5t8.5 -27.5q-5 -29 -22 -37.5t-55 -10.5l-208 -15q-16 -16 -51 -16q-20 0 -31.5 13t-7.5 35q3 21 17 40l19 112q-10 15 -6 38q4 21 20 40l18 98q-13 13 -10 36q4 24 18 36q-3 7 -2 13q2 14 18.5 23.5t36.5 9.5 t30.5 -9t8.5 -22l172 15q19 13 33 13q23 0 33.5 -12t7.5 -30q-10 -51 -57 -51q-16 0 -29 6l-172 -16l-18 -103l134 16q22 13 33 13q21 0 32 -13.5t7 -31.5q-9 -47 -57 -47q-10 0 -20 6zM439 636l-83 -77q-3 -13 -16.5 -23.5t-29.5 -10.5t-23.5 10t-4.5 27q2 11 10.5 21 t17.5 11l84 79q-1 17 11.5 26t28.5 9q18 0 26 -11t6 -27q-5 -27 -27 -34z" />
<glyph unicode="&#xf7ea;" horiz-adv-x="444" d="M181 195l-21 -120l204 15q12 12 28 12q21 0 31.5 -11.5t8.5 -27.5q-5 -29 -22 -37.5t-55 -10.5l-208 -15q-16 -16 -51 -16q-20 0 -31.5 13t-7.5 35q3 21 17 40l19 112q-10 15 -6 38q4 21 20 40l18 98q-13 13 -10 36q4 24 18 36q-3 7 -2 13q2 14 18.5 23.5t36.5 9.5 t30.5 -9t8.5 -22l172 15q19 13 33 13q23 0 33.5 -12t7.5 -30q-10 -51 -57 -51q-16 0 -29 6l-172 -16l-18 -103l134 16q22 13 33 13q21 0 32 -13.5t7 -31.5q-9 -47 -57 -47q-10 0 -20 6zM391 686l44 -92q15 -17 12 -33q-2 -15 -15.5 -26t-31.5 -11q-14 0 -18.5 11t-1.5 24 l-35 74l-78 -76q-1 -14 -12 -23.5t-23 -9.5q-16 0 -25 12t-7 25q3 18 29 36l96 95q19 21 36 21q4 0 8 -1.5t6.5 -3.5t5.5 -5.5t4 -5.5t3 -7z" />
<glyph unicode="&#xf7eb;" horiz-adv-x="444" d="M181 195l-21 -120l203 15q12 12 28 12q22 0 32.5 -11.5t7.5 -27.5q-5 -29 -21.5 -37.5t-54.5 -10.5l-208 -15q-16 -16 -51 -16q-20 0 -31.5 13t-7.5 35q3 21 17 40l19 112q-10 15 -6 38q4 21 20 40l18 98q-13 13 -10 36q4 24 18 36q-3 7 -2 13q2 14 18.5 23.5t35.5 9.5 q21 0 31.5 -9t8.5 -22l172 15q17 13 32 13q23 0 33.5 -12t7.5 -30q-4 -24 -19 -37.5t-38 -13.5q-15 0 -28 6l-173 -16l-18 -103l135 16q19 13 32 13q21 0 32 -13t8 -32q-9 -47 -58 -47q-10 0 -20 6zM237 539q-17 0 -23.5 19t-2.5 39q10 58 57 58q44 0 37 -43 q-6 -38 -20.5 -55.5t-47.5 -17.5zM391 541q-41 0 -32 54q12 60 55 60q18 0 30.5 -13.5t8.5 -38.5q-11 -62 -62 -62z" />
<glyph unicode="&#xf7ec;" horiz-adv-x="207" d="M215 388l-55 -316q8 -17 6 -29q-3 -18 -22 -32.5t-42 -14.5q-24 0 -36 13t-8 35q3 15 16 32l57 317q-9 9 -5 27q4 24 24 38.5t46 14.5q23 0 32.5 -14.5t6.5 -35.5q-4 -22 -20 -35zM198 669l45 -72q23 -6 18 -33q-6 -37 -47 -37q-14 0 -20 10.5t-4 22.5l-48 73 q-19 9 -15 34q6 39 47 39q13 0 19.5 -11t4.5 -26z" />
<glyph unicode="&#xf7ed;" horiz-adv-x="207" d="M215 388l-55 -316q8 -17 6 -29q-3 -18 -22 -32.5t-42 -14.5q-24 0 -36 13t-8 35q3 15 16 32l57 317q-9 9 -5 27q4 24 24 38.5t46 14.5q23 0 32.5 -14.5t6.5 -35.5q-4 -22 -20 -35zM312 639l-83 -78q-3 -13 -16.5 -23.5t-29.5 -10.5t-23.5 10t-4.5 27q2 11 10.5 21 t17.5 12l84 79q-1 17 11 26t29 9q18 0 26 -11t6 -27q-5 -27 -27 -34z" />
<glyph unicode="&#xf7ee;" horiz-adv-x="207" d="M215 388l-55 -316q8 -17 6 -29q-3 -18 -22 -32.5t-42 -14.5q-24 0 -36 13t-8 35q3 15 16 32l57 317q-9 9 -5 27q4 24 24 38.5t46 14.5q23 0 32.5 -14.5t6.5 -35.5q-4 -22 -20 -35zM270 682l45 -92q15 -17 12 -33q-3 -15 -16 -26t-31 -11q-14 0 -19 11t-2 24l-34 74 l-79 -76q-1 -14 -12 -23.5t-23 -9.5q-16 0 -24.5 12t-6.5 25q3 20 29 36l95 95q21 21 36 21q18 0 30 -27z" />
<glyph unicode="&#xf7ef;" horiz-adv-x="207" d="M215 388l-55 -316q8 -17 6 -29q-3 -18 -22 -32.5t-42 -14.5q-24 0 -36 13t-8 35q3 15 16 32l57 317q-9 9 -5 27q4 24 24 38.5t46 14.5q23 0 32.5 -14.5t6.5 -35.5q-4 -22 -20 -35zM117 540q-18 0 -24.5 18.5t-3.5 39.5q4 24 18.5 41t40.5 17q44 0 37 -43 q-6 -38 -20.5 -55.5t-47.5 -17.5zM271 542q-41 0 -32 54q12 60 55 60q17 0 30 -14t9 -38q-11 -62 -62 -62z" />
<glyph unicode="&#xf7f0;" horiz-adv-x="486" d="M91 186l-17 -1q-10 -5 -15 -5q-12 0 -18 8.5t-4 22.5q4 22 15.5 35t25.5 15l26 2l26 147q-5 12 -1 29q3 15 19 27.5t41 12.5q21 0 29 -11.5t3 -26.5q78 37 159 37q69 0 110 -48t28 -118q-21 -128 -131 -215q-64 -49 -146 -78t-144 -29q-50 0 -42 42q3 20 15 36zM191 271 l63 6q20 8 32 8q16 0 22 -11.5t3 -27.5q-3 -20 -14.5 -34t-29.5 -14q-5 0 -30 5l-59 -6l-21 -120q43 4 95 25t88 52q33 30 56 68t30 74q8 45 -13 74.5t-65 29.5q-64 0 -141 -41z" />
<glyph unicode="&#xf7f1;" horiz-adv-x="492" d="M72 63l60 339q-4 10 -1 26q2 18 17.5 31.5t39.5 13.5q26 0 34.5 -8.5t5.5 -26.5q-3 -22 14 -64q25 -58 76 -112q53 -59 63 -96h2q13 87 42 251q-3 21 -3 23q7 41 49 41q20 0 34 -9t11 -25q-1 -8 -11 -28l-64 -365q6 -14 5 -24q-6 -34 -53 -34q-28 0 -42 45 q-29 77 -89 149q-56 62 -69 110h-2q-19 -131 -39 -237q5 -13 3 -25q-7 -42 -50 -42q-25 0 -37.5 10.5t-8.5 33.5q2 8 13 23zM395 534q-39 0 -61 35q-16 24 -28 24q-23 0 -40 -31q-14 -24 -36 -24q-35 0 -29 36q1 5 9 13.5t9 9.5q43 60 103 60q23 0 49 -30q22 -30 39 -30 q13 0 21.5 11t10.5 24q4 29 37 29q16 0 24 -9t6 -19q-1 -6 -7 -17q-39 -82 -107 -82z" />
<glyph unicode="&#xf7f2;" horiz-adv-x="498" d="M377 494q76 0 114.5 -56.5t18.5 -170.5q-22 -120 -113.5 -200.5t-201.5 -80.5q-60 0 -94 32t-41 73t1 87q20 115 117.5 215.5t198.5 100.5zM352 418q-56 0 -120.5 -74.5t-78.5 -153.5q-10 -53 7.5 -90.5t64.5 -37.5q61 0 120.5 59t74.5 142q14 74 -4 114.5t-64 40.5z M346 681l45 -72q22 -6 19 -33q-7 -37 -48 -37q-14 0 -20 10.5t-4 22.5l-48 73q-19 9 -15 34q6 39 46 39q29 0 25 -37z" />
<glyph unicode="&#xf7f3;" horiz-adv-x="498" d="M377 494q76 0 114.5 -56.5t18.5 -170.5q-22 -120 -113.5 -200.5t-201.5 -80.5q-60 0 -94 32t-41 73t1 87q20 115 117.5 215.5t198.5 100.5zM352 418q-56 0 -120.5 -74.5t-78.5 -153.5q-10 -53 7.5 -90.5t64.5 -37.5q61 0 120.5 59t74.5 142q14 74 -4 114.5t-64 40.5z M474 652l-83 -78q-3 -13 -17 -23.5t-29 -10.5q-16 0 -23.5 10t-5.5 27q3 11 11.5 21.5t16.5 11.5l85 79q-1 17 11 26t29 9q18 0 26 -11t5 -27q-3 -26 -26 -34z" />
<glyph unicode="&#xf7f4;" horiz-adv-x="498" d="M377 494q76 0 114.5 -56.5t18.5 -170.5q-22 -120 -113.5 -200.5t-201.5 -80.5q-60 0 -94 32t-41 73t1 87q20 115 117.5 215.5t198.5 100.5zM352 418q-56 0 -120.5 -74.5t-78.5 -153.5q-10 -53 7.5 -90.5t64.5 -37.5q61 0 120.5 59t74.5 142q14 74 -4 114.5t-64 40.5z M437 694l45 -92q14 -20 12 -33q-2 -15 -15.5 -26t-32.5 -11q-14 0 -18.5 11.5t-1.5 24.5l-35 74l-78 -77q-2 -13 -13 -23t-22 -10q-16 0 -25 12.5t-7 24.5q3 19 29 36l96 96q20 20 36 20q18 0 30 -27z" />
<glyph unicode="&#xf7f5;" horiz-adv-x="498" d="M377 494q76 0 114.5 -56.5t18.5 -170.5q-22 -120 -113.5 -200.5t-201.5 -80.5q-60 0 -94 32t-41 73t1 87q20 115 117.5 215.5t198.5 100.5zM352 418q-56 0 -120.5 -74.5t-78.5 -153.5q-10 -53 7.5 -90.5t64.5 -37.5q61 0 120.5 59t74.5 142q14 74 -4 114.5t-64 40.5z M403 547q-39 0 -61 35q-16 24 -28 24q-25 0 -40 -32q-15 -23 -35 -23q-36 0 -30 36q0 4 3 7.5t8 8.5l7 7q43 60 103 60q23 0 49 -30q22 -30 40 -30q13 0 21 11t10 24q4 29 38 29q15 0 23.5 -9t6.5 -19q-2 -6 -7 -17q-39 -82 -108 -82z" />
<glyph unicode="&#xf7f6;" horiz-adv-x="498" d="M377 494q76 0 114.5 -56.5t18.5 -170.5q-22 -120 -113.5 -200.5t-201.5 -80.5q-60 0 -94 32t-41 73t1 87q20 115 117.5 215.5t198.5 100.5zM352 418q-56 0 -120.5 -74.5t-78.5 -153.5q-10 -53 7.5 -90.5t64.5 -37.5q61 0 120.5 59t74.5 142q14 74 -4 114.5t-64 40.5z M282 552q-17 0 -24 19t-3 39q10 58 59 58q44 0 37 -43q-7 -38 -21.5 -55.5t-47.5 -17.5zM436 553q-41 0 -32 55q4 25 18.5 42.5t36.5 17.5q17 0 30 -14t9 -39q-10 -62 -62 -62z" />
<glyph unicode="&#xf7f8;" horiz-adv-x="494" d="M86 40l-30 -23q-2 -11 -15 -22t-27 -11q-16 0 -24.5 13.5t-5.5 31.5q3 16 14 29.5t22 13.5q1 0 10 -3l34 27q-6 38 1 83q20 114 117 214.5t197 100.5q69 0 108 -45l39 30q4 10 14 17.5t21 7.5q14 0 25.5 -11t8.5 -30q-7 -40 -42 -36l-39 -33q12 -49 0 -127 q-22 -120 -113.5 -200.5t-201.5 -80.5q-79 0 -113 54zM157 174l257 211q-16 33 -57 33q-56 0 -121 -74t-79 -152v-18zM426 320l-263 -215q18 -43 66 -43q61 0 120.5 58.5t73.5 142.5q6 35 3 57z" />
<glyph unicode="&#xf7f9;" horiz-adv-x="480" d="M188 -12q-59 0 -90.5 32.5t-22.5 82.5l54 308q-7 24 9 41.5t43 17.5q24 0 30 -17.5t2 -33.5l-56 -321q3 -11 17 -19.5t32 -8.5q62 0 106 28.5t47 48.5l47 265q-6 8 -3 21q3 19 20 31t40 12q16 0 26.5 -10t7.5 -28q-2 -10 -5 -18l-51 -283q-3 -15 -23.5 -42t-48.5 -46 q-80 -61 -181 -61zM325 663l45 -73q9 -2 14.5 -11t3.5 -21q-4 -18 -17 -28t-30 -10q-15 0 -21.5 10.5t-3.5 22.5l-47 74q-20 7 -16 34q7 39 47 39q29 0 25 -37z" />
<glyph unicode="&#xf7fa;" horiz-adv-x="480" d="M188 -12q-59 0 -90.5 32.5t-22.5 82.5l54 308q-7 24 9 41.5t43 17.5q24 0 30 -17.5t2 -33.5l-56 -321q3 -11 17 -19.5t32 -8.5q62 0 106 28.5t47 48.5l47 265q-6 8 -3 21q3 19 20 31t40 12q16 0 26.5 -10t7.5 -28q-2 -10 -5 -18l-51 -283q-3 -15 -23.5 -42t-48.5 -46 q-80 -61 -181 -61zM452 624l-83 -78q-3 -13 -16.5 -23t-29.5 -10t-23.5 10t-4.5 26q6 29 27 33l85 79q-1 17 11 26t29 9q18 0 26 -11t6 -27q-5 -27 -27 -34z" />
<glyph unicode="&#xf7fb;" horiz-adv-x="480" d="M188 -12q-59 0 -90.5 32.5t-22.5 82.5l54 308q-7 24 9 41.5t43 17.5q24 0 30 -17.5t2 -33.5l-56 -321q3 -11 17 -19.5t32 -8.5q62 0 106 28.5t47 48.5l47 265q-6 8 -3 21q3 19 20 31t40 12q16 0 26.5 -10t7.5 -28q-2 -10 -5 -18l-51 -283q-3 -15 -23.5 -42t-48.5 -46 q-80 -61 -181 -61zM406 682l45 -92q15 -17 12 -33q-2 -15 -15.5 -26t-31.5 -11q-14 0 -19 11.5t-2 24.5l-34 74l-79 -76q-1 -14 -12 -24t-23 -10q-15 0 -24 12.5t-7 24.5q2 20 28 37l96 95q21 21 36 21q18 0 30 -28z" />
<glyph unicode="&#xf7fc;" horiz-adv-x="480" d="M188 -12q-59 0 -90.5 32.5t-22.5 82.5l54 308q-7 24 9 41.5t43 17.5q24 0 30 -17.5t2 -33.5l-56 -321q3 -11 17 -19.5t32 -8.5q62 0 106 28.5t47 48.5l47 265q-6 8 -3 21q3 19 20 31t40 12q16 0 26.5 -10t7.5 -28q-2 -10 -5 -18l-51 -283q-3 -15 -23.5 -42t-48.5 -46 q-80 -61 -181 -61zM250 540q-17 0 -24 19t-3 39q4 24 18.5 41t40.5 17q44 0 37 -43q-6 -38 -21 -55.5t-48 -17.5zM405 542q-41 0 -32 54q4 25 18.5 42.5t36.5 17.5q17 0 30 -14t9 -38q-11 -62 -62 -62z" />
</font>
</defs>
</svg>
